%FSLAX44Y44*%
%MOMM*%
G71*
G01*
G75*
G04 Layer_Color=8388736*
%ADD10R,0.6000X0.6000*%
%ADD11R,0.6300X0.8300*%
%ADD12R,5.5000X3.2000*%
%ADD13R,1.0000X1.5000*%
%ADD14R,3.0000X1.6000*%
%ADD15R,6.2000X5.8000*%
%ADD16R,2.7000X1.0000*%
%ADD17R,2.7000X3.3000*%
%ADD18O,2.1500X0.6000*%
%ADD19O,0.7000X2.5000*%
G04:AMPARAMS|DCode=20|XSize=0.6mm|YSize=1.3mm|CornerRadius=0.15mm|HoleSize=0mm|Usage=FLASHONLY|Rotation=180.000|XOffset=0mm|YOffset=0mm|HoleType=Round|Shape=RoundedRectangle|*
%AMROUNDEDRECTD20*
21,1,0.6000,1.0000,0,0,180.0*
21,1,0.3000,1.3000,0,0,180.0*
1,1,0.3000,-0.1500,0.5000*
1,1,0.3000,0.1500,0.5000*
1,1,0.3000,0.1500,-0.5000*
1,1,0.3000,-0.1500,-0.5000*
%
%ADD20ROUNDEDRECTD20*%
%ADD21R,0.6000X0.6000*%
%ADD22R,0.4500X0.6000*%
%ADD23O,1.7000X0.3000*%
%ADD24R,1.1000X0.6000*%
%ADD25R,1.0000X0.8000*%
%ADD26R,0.9000X0.6000*%
%ADD27R,0.6000X1.1000*%
%ADD28R,1.5000X2.1000*%
%ADD29R,0.8300X0.6300*%
%ADD30R,1.5000X1.0000*%
%ADD31R,3.0000X3.7500*%
%ADD32C,1.5000*%
%ADD33C,0.3000*%
%ADD34C,0.5000*%
%ADD35C,1.8000*%
%ADD36C,2.0000*%
%ADD37C,0.7500*%
%ADD38C,1.0000*%
%ADD39C,0.2600*%
%ADD40C,0.2500*%
%ADD41C,1.5000*%
%ADD42R,1.5000X1.5000*%
%ADD43C,2.5000*%
%ADD44C,6.0000*%
%ADD45C,1.6000*%
%ADD46C,0.7000*%
%ADD47R,0.8000X1.0000*%
%ADD48C,0.7000*%
%ADD49C,0.1700*%
%ADD50C,0.2540*%
%ADD51C,0.2000*%
%ADD52C,0.1000*%
%ADD53C,0.1500*%
%ADD54R,0.8032X0.8032*%
%ADD55R,0.8332X1.0332*%
%ADD56R,5.7032X3.4032*%
%ADD57R,1.2032X1.7032*%
%ADD58R,3.2032X1.8032*%
%ADD59R,6.4032X6.0032*%
%ADD60R,2.9032X1.2032*%
%ADD61R,2.9032X3.5032*%
%ADD62O,2.3532X0.8032*%
%ADD63O,0.9032X2.7032*%
G04:AMPARAMS|DCode=64|XSize=0.8032mm|YSize=1.5032mm|CornerRadius=0.2516mm|HoleSize=0mm|Usage=FLASHONLY|Rotation=180.000|XOffset=0mm|YOffset=0mm|HoleType=Round|Shape=RoundedRectangle|*
%AMROUNDEDRECTD64*
21,1,0.8032,1.0000,0,0,180.0*
21,1,0.3000,1.5032,0,0,180.0*
1,1,0.5032,-0.1500,0.5000*
1,1,0.5032,0.1500,0.5000*
1,1,0.5032,0.1500,-0.5000*
1,1,0.5032,-0.1500,-0.5000*
%
%ADD64ROUNDEDRECTD64*%
%ADD65R,0.8032X0.8032*%
%ADD66R,0.6532X0.8032*%
%ADD67O,1.9032X0.5032*%
%ADD68R,1.3032X0.8032*%
%ADD69R,1.2032X1.0032*%
%ADD70R,1.1032X0.8032*%
%ADD71R,0.8032X1.3032*%
%ADD72R,1.7032X2.3032*%
%ADD73R,1.0332X0.8332*%
%ADD74R,1.7032X1.2032*%
%ADD75R,3.2032X3.9532*%
%ADD76C,1.7032*%
%ADD77R,1.7032X1.7032*%
%ADD78C,2.7032*%
%ADD79C,6.2032*%
%ADD80C,1.8032*%
D54*
X682500Y267500D02*
D03*
X692500D02*
D03*
X712500D02*
D03*
X702500D02*
D03*
X122500Y367500D02*
D03*
X132500Y367500D02*
D03*
X152500D02*
D03*
X142500Y367500D02*
D03*
X162500D02*
D03*
X172500Y367500D02*
D03*
X220000Y327500D02*
D03*
X210000D02*
D03*
X255000Y285000D02*
D03*
X245000D02*
D03*
X310000Y327500D02*
D03*
X300000D02*
D03*
X345000Y285000D02*
D03*
X335000D02*
D03*
X237500Y195000D02*
D03*
X227500D02*
D03*
X227500Y185000D02*
D03*
X237500D02*
D03*
X520000Y330000D02*
D03*
X510000D02*
D03*
X670000D02*
D03*
X660000D02*
D03*
X807500Y267500D02*
D03*
X797500D02*
D03*
X827500D02*
D03*
X817500D02*
D03*
X820000Y330000D02*
D03*
X810000D02*
D03*
X970000D02*
D03*
X960000D02*
D03*
X932500Y267500D02*
D03*
X922500D02*
D03*
X952500D02*
D03*
X942500D02*
D03*
X1085000Y257500D02*
D03*
X1075000D02*
D03*
X1015000Y245000D02*
D03*
X1025000D02*
D03*
X1085000Y202500D02*
D03*
X1075000D02*
D03*
D55*
X261100Y347500D02*
D03*
X238900Y347500D02*
D03*
X336100Y347500D02*
D03*
X313900Y347500D02*
D03*
X411100Y347500D02*
D03*
X388900Y347500D02*
D03*
X486100Y347500D02*
D03*
X463900Y347500D02*
D03*
X561100Y347500D02*
D03*
X538900D02*
D03*
X636100D02*
D03*
X613900D02*
D03*
X711100D02*
D03*
X688900D02*
D03*
X786100D02*
D03*
X763900D02*
D03*
X861100D02*
D03*
X838900D02*
D03*
X936100D02*
D03*
X913900D02*
D03*
D56*
X147500Y127500D02*
D03*
Y227500D02*
D03*
D57*
X274500Y345000D02*
D03*
X295500D02*
D03*
X349500D02*
D03*
X370500D02*
D03*
X424500D02*
D03*
X445500D02*
D03*
X499500D02*
D03*
X520500D02*
D03*
X574500D02*
D03*
X595500D02*
D03*
X649500D02*
D03*
X670500D02*
D03*
X724500D02*
D03*
X745500D02*
D03*
X799500D02*
D03*
X820500D02*
D03*
X874500D02*
D03*
X895500D02*
D03*
X949500D02*
D03*
X970500D02*
D03*
X239500Y270000D02*
D03*
X260500D02*
D03*
X204500D02*
D03*
X225500D02*
D03*
X329500D02*
D03*
X350500D02*
D03*
X315500D02*
D03*
X294500D02*
D03*
X448000Y172500D02*
D03*
X427000D02*
D03*
X560500D02*
D03*
X539500D02*
D03*
D58*
X264100Y180360D02*
D03*
Y134640D02*
D03*
Y247860D02*
D03*
Y202140D02*
D03*
D59*
X335900Y157500D02*
D03*
Y225000D02*
D03*
D60*
X1120500Y328000D02*
D03*
Y305000D02*
D03*
Y282000D02*
D03*
X77000Y307000D02*
D03*
Y330000D02*
D03*
Y353000D02*
D03*
D61*
X1179500Y305000D02*
D03*
X18000Y330000D02*
D03*
D62*
X782500Y251950D02*
D03*
Y239250D02*
D03*
Y226550D02*
D03*
Y213850D02*
D03*
Y201150D02*
D03*
Y188450D02*
D03*
Y175750D02*
D03*
Y163050D02*
D03*
X842500Y251950D02*
D03*
Y239250D02*
D03*
Y226550D02*
D03*
Y213850D02*
D03*
Y201150D02*
D03*
Y188450D02*
D03*
Y175750D02*
D03*
Y163050D02*
D03*
X907500Y251950D02*
D03*
Y239250D02*
D03*
Y226550D02*
D03*
Y213850D02*
D03*
Y201150D02*
D03*
Y188450D02*
D03*
Y175750D02*
D03*
Y163050D02*
D03*
X967500Y251950D02*
D03*
Y239250D02*
D03*
Y226550D02*
D03*
Y213850D02*
D03*
Y201150D02*
D03*
Y188450D02*
D03*
Y175750D02*
D03*
Y163050D02*
D03*
X668500Y251950D02*
D03*
X668500Y239250D02*
D03*
X668500Y226550D02*
D03*
X668500Y213850D02*
D03*
Y201150D02*
D03*
Y188450D02*
D03*
Y175750D02*
D03*
X668500Y163050D02*
D03*
X728500Y251950D02*
D03*
Y239250D02*
D03*
Y226550D02*
D03*
X728500Y213850D02*
D03*
Y201150D02*
D03*
X728500Y188450D02*
D03*
Y175750D02*
D03*
Y163050D02*
D03*
D63*
X1011900Y173500D02*
D03*
X1024600D02*
D03*
X1037300D02*
D03*
X1050000D02*
D03*
X1011900Y222500D02*
D03*
X1024600D02*
D03*
X1037300D02*
D03*
X1050000D02*
D03*
X159600Y345000D02*
D03*
X146900D02*
D03*
X134200Y345000D02*
D03*
X121500Y345000D02*
D03*
X159600Y296000D02*
D03*
X146900Y296000D02*
D03*
X134200D02*
D03*
X121500Y296000D02*
D03*
D64*
X450200Y250500D02*
D03*
X424800D02*
D03*
X450200Y194500D02*
D03*
X424800D02*
D03*
X562700Y250500D02*
D03*
X537300D02*
D03*
X562700Y194500D02*
D03*
X537300D02*
D03*
D65*
X97500Y340000D02*
D03*
Y350000D02*
D03*
Y325000D02*
D03*
Y315000D02*
D03*
X107500Y325000D02*
D03*
Y315000D02*
D03*
X172500Y347500D02*
D03*
X172500Y357500D02*
D03*
X172500Y297500D02*
D03*
X172500Y307500D02*
D03*
X147500Y262500D02*
D03*
Y252500D02*
D03*
X272500Y312500D02*
D03*
Y302500D02*
D03*
X362500Y312500D02*
D03*
Y302500D02*
D03*
X412500Y297500D02*
D03*
Y307500D02*
D03*
Y327500D02*
D03*
Y317500D02*
D03*
X465000Y252500D02*
D03*
Y242500D02*
D03*
X475000Y242500D02*
D03*
Y252500D02*
D03*
X577500Y252500D02*
D03*
Y242500D02*
D03*
X587500Y242500D02*
D03*
Y252500D02*
D03*
X487500Y297500D02*
D03*
Y307500D02*
D03*
X637500Y297500D02*
D03*
Y307500D02*
D03*
X787500Y297500D02*
D03*
Y307500D02*
D03*
X937500Y297500D02*
D03*
Y307500D02*
D03*
X1100000Y297500D02*
D03*
Y287500D02*
D03*
Y312500D02*
D03*
Y322500D02*
D03*
X1065000Y202500D02*
D03*
Y192500D02*
D03*
D66*
X190000Y312000D02*
D03*
X183500D02*
D03*
X196500D02*
D03*
Y293000D02*
D03*
X190000D02*
D03*
X183500Y293000D02*
D03*
D67*
X214500Y317500D02*
D03*
Y312500D02*
D03*
Y307500D02*
D03*
Y302500D02*
D03*
Y297500D02*
D03*
X255500Y317500D02*
D03*
Y312500D02*
D03*
Y307500D02*
D03*
Y302500D02*
D03*
Y297500D02*
D03*
X304500Y317500D02*
D03*
Y312500D02*
D03*
Y307500D02*
D03*
Y302500D02*
D03*
Y297500D02*
D03*
X345500Y317500D02*
D03*
Y312500D02*
D03*
Y307500D02*
D03*
Y302500D02*
D03*
Y297500D02*
D03*
D68*
X160999Y258001D02*
D03*
Y277001D02*
D03*
X188999D02*
D03*
Y267501D02*
D03*
Y258001D02*
D03*
D69*
X275000Y274000D02*
D03*
Y291000D02*
D03*
X365000Y274000D02*
D03*
Y291000D02*
D03*
D70*
X445500Y297500D02*
D03*
Y317500D02*
D03*
X424000Y307500D02*
D03*
X520500Y297500D02*
D03*
Y317500D02*
D03*
X499000Y307500D02*
D03*
X670500Y297500D02*
D03*
Y317500D02*
D03*
X649000Y307500D02*
D03*
X820500Y297500D02*
D03*
Y317500D02*
D03*
X799000Y307500D02*
D03*
X970500Y297500D02*
D03*
Y317500D02*
D03*
X949000Y307500D02*
D03*
D71*
X220501Y171501D02*
D03*
X239501D02*
D03*
Y143501D02*
D03*
X230001D02*
D03*
X220501D02*
D03*
X1075501Y244001D02*
D03*
X1094501D02*
D03*
Y216001D02*
D03*
X1085001D02*
D03*
X1075501D02*
D03*
D72*
X458500Y145000D02*
D03*
X416500D02*
D03*
X571000D02*
D03*
X529000D02*
D03*
D73*
X1007500Y281100D02*
D03*
Y258900D02*
D03*
X1042500D02*
D03*
Y281100D02*
D03*
D74*
X1025000Y280500D02*
D03*
Y259500D02*
D03*
X1060000Y259500D02*
D03*
Y280500D02*
D03*
D75*
X202500Y62500D02*
D03*
X107500D02*
D03*
D76*
X650700Y140000D02*
D03*
X676100D02*
D03*
X701500D02*
D03*
X726900D02*
D03*
X752300D02*
D03*
X777700D02*
D03*
X803100D02*
D03*
X828500D02*
D03*
X853900D02*
D03*
X879300D02*
D03*
X904700D02*
D03*
X930100D02*
D03*
X955500D02*
D03*
X980900D02*
D03*
X1006300D02*
D03*
X1031700D02*
D03*
X1057100D02*
D03*
X483500Y142500D02*
D03*
X500000Y192500D02*
D03*
X596000Y142500D02*
D03*
X612500Y192500D02*
D03*
X25000Y240000D02*
D03*
Y157500D02*
D03*
D77*
X1082500Y140000D02*
D03*
X60000Y240000D02*
D03*
Y157500D02*
D03*
D78*
X925000Y25000D02*
D03*
X900000Y75000D02*
D03*
X975000Y25000D02*
D03*
X950000Y75000D02*
D03*
X1000000D02*
D03*
X1025000Y25000D02*
D03*
X1050000Y75000D02*
D03*
X1075000Y25000D02*
D03*
X850000Y75000D02*
D03*
X875000Y25000D02*
D03*
X800000Y75000D02*
D03*
X825000Y25000D02*
D03*
X750000Y75000D02*
D03*
X775000Y25000D02*
D03*
X700000Y75000D02*
D03*
X725000Y25000D02*
D03*
X675000D02*
D03*
X650000Y75000D02*
D03*
X351000Y62500D02*
D03*
X401800D02*
D03*
X452600D02*
D03*
X503400D02*
D03*
X554200D02*
D03*
X605000D02*
D03*
X300200D02*
D03*
X249400D02*
D03*
X1100000Y405000D02*
D03*
X1075000Y455000D02*
D03*
X1050000Y405000D02*
D03*
X1025000Y455000D02*
D03*
X1000000Y405000D02*
D03*
X975000Y455000D02*
D03*
X950000Y405000D02*
D03*
X925000Y455000D02*
D03*
X900000Y405000D02*
D03*
X875000Y455000D02*
D03*
X850000Y405000D02*
D03*
X825000Y455000D02*
D03*
X800000Y405000D02*
D03*
X775000Y455000D02*
D03*
X750000Y405000D02*
D03*
X725000Y455000D02*
D03*
X675000D02*
D03*
X700000Y405000D02*
D03*
X650000Y405000D02*
D03*
X625000Y455000D02*
D03*
X575000D02*
D03*
X600000Y405000D02*
D03*
X525000Y455000D02*
D03*
X550000Y405000D02*
D03*
X475000Y455000D02*
D03*
X500000Y405000D02*
D03*
X425000Y455000D02*
D03*
X450000Y405000D02*
D03*
X225000Y455000D02*
D03*
X250000Y405000D02*
D03*
X275000Y455000D02*
D03*
X300000Y405000D02*
D03*
X350000D02*
D03*
X325000Y455000D02*
D03*
X400000Y405000D02*
D03*
X375000Y455000D02*
D03*
D79*
X1150000Y80000D02*
D03*
Y430000D02*
D03*
X50000D02*
D03*
Y50000D02*
D03*
D80*
X82500Y100000D02*
D03*
X107900D02*
D03*
M02*
