%FSLAX44Y44*%
%MOMM*%
G71*
G01*
G75*
G04 Layer_Color=32896*
%ADD10R,0.6000X0.6000*%
%ADD11R,0.6300X0.8300*%
%ADD12R,5.5000X3.2000*%
%ADD13R,1.0000X1.5000*%
%ADD14R,3.0000X1.6000*%
%ADD15R,6.2000X5.8000*%
%ADD16R,2.7000X1.0000*%
%ADD17R,2.7000X3.3000*%
%ADD18O,2.1500X0.6000*%
%ADD19O,0.7000X2.5000*%
G04:AMPARAMS|DCode=20|XSize=0.6mm|YSize=1.3mm|CornerRadius=0.15mm|HoleSize=0mm|Usage=FLASHONLY|Rotation=180.000|XOffset=0mm|YOffset=0mm|HoleType=Round|Shape=RoundedRectangle|*
%AMROUNDEDRECTD20*
21,1,0.6000,1.0000,0,0,180.0*
21,1,0.3000,1.3000,0,0,180.0*
1,1,0.3000,-0.1500,0.5000*
1,1,0.3000,0.1500,0.5000*
1,1,0.3000,0.1500,-0.5000*
1,1,0.3000,-0.1500,-0.5000*
%
%ADD20ROUNDEDRECTD20*%
%ADD21R,0.6000X0.6000*%
%ADD22R,0.4500X0.6000*%
%ADD23O,1.7000X0.3000*%
%ADD24R,1.1000X0.6000*%
%ADD25R,1.0000X0.8000*%
%ADD26R,0.9000X0.6000*%
%ADD27R,0.6000X1.1000*%
%ADD28R,1.5000X2.1000*%
%ADD29R,0.8300X0.6300*%
%ADD30R,1.5000X1.0000*%
%ADD31R,3.0000X3.7500*%
%ADD32C,1.5000*%
%ADD33C,0.3000*%
%ADD34C,0.5000*%
%ADD35C,1.8000*%
%ADD36C,2.0000*%
%ADD37C,0.7500*%
%ADD38C,1.0000*%
%ADD39C,0.2600*%
%ADD40C,0.2500*%
%ADD41C,1.5000*%
%ADD42R,1.5000X1.5000*%
%ADD43C,2.5000*%
%ADD44C,6.0000*%
%ADD45C,1.6000*%
%ADD46C,0.7000*%
%ADD47R,0.8000X1.0000*%
%ADD48C,0.7000*%
%ADD49C,0.1700*%
%ADD50C,0.2540*%
%ADD51C,0.2000*%
%ADD52C,0.1000*%
%ADD53C,0.1500*%
%ADD54R,0.8032X0.8032*%
%ADD55R,0.8332X1.0332*%
%ADD56R,5.7032X3.4032*%
%ADD57R,1.2032X1.7032*%
%ADD58R,3.2032X1.8032*%
%ADD59R,6.4032X6.0032*%
%ADD60R,2.9032X1.2032*%
%ADD61R,2.9032X3.5032*%
%ADD62O,2.3532X0.8032*%
%ADD63O,0.9032X2.7032*%
G04:AMPARAMS|DCode=64|XSize=0.8032mm|YSize=1.5032mm|CornerRadius=0.2516mm|HoleSize=0mm|Usage=FLASHONLY|Rotation=180.000|XOffset=0mm|YOffset=0mm|HoleType=Round|Shape=RoundedRectangle|*
%AMROUNDEDRECTD64*
21,1,0.8032,1.0000,0,0,180.0*
21,1,0.3000,1.5032,0,0,180.0*
1,1,0.5032,-0.1500,0.5000*
1,1,0.5032,0.1500,0.5000*
1,1,0.5032,0.1500,-0.5000*
1,1,0.5032,-0.1500,-0.5000*
%
%ADD64ROUNDEDRECTD64*%
%ADD65R,0.8032X0.8032*%
%ADD66R,0.6532X0.8032*%
%ADD67O,1.9032X0.5032*%
%ADD68R,1.3032X0.8032*%
%ADD69R,1.2032X1.0032*%
%ADD70R,1.1032X0.8032*%
%ADD71R,0.8032X1.3032*%
%ADD72R,1.7032X2.3032*%
%ADD73R,1.0332X0.8332*%
%ADD74R,1.7032X1.2032*%
%ADD75R,3.2032X3.9532*%
%ADD76C,1.7032*%
%ADD77R,1.7032X1.7032*%
%ADD78C,2.7032*%
%ADD79C,6.2032*%
%ADD80C,1.8032*%
%ADD81R,1.0032X1.2032*%
D40*
X494198Y348239D02*
X495864Y349905D01*
X499196D01*
X500862Y348239D01*
Y341574D01*
X499196Y339908D01*
X495864D01*
X494198Y341574D01*
X490865D02*
X489199Y339908D01*
X485867D01*
X484201Y341574D01*
Y348239D01*
X485867Y349905D01*
X489199D01*
X490865Y348239D01*
Y346573D01*
X489199Y344907D01*
X484201D01*
X423412Y348345D02*
X425078Y350011D01*
X428410D01*
X430076Y348345D01*
Y341680D01*
X428410Y340014D01*
X425078D01*
X423412Y341680D01*
X420079Y340014D02*
X416747D01*
X418413D01*
Y350011D01*
X420079Y348345D01*
X411749D02*
X410083Y350011D01*
X406750D01*
X405084Y348345D01*
Y341680D01*
X406750Y340014D01*
X410083D01*
X411749Y341680D01*
Y348345D01*
X346610Y348211D02*
X348276Y349877D01*
X351608D01*
X353274Y348211D01*
Y341546D01*
X351608Y339880D01*
X348276D01*
X346610Y341546D01*
X343277Y339880D02*
X339945D01*
X341611D01*
Y349877D01*
X343277Y348211D01*
X334947Y339880D02*
X331614D01*
X333281D01*
Y349877D01*
X334947Y348211D01*
X273364Y348437D02*
X275030Y350103D01*
X278362D01*
X280028Y348437D01*
Y341772D01*
X278362Y340106D01*
X275030D01*
X273364Y341772D01*
X270031Y340106D02*
X266699D01*
X268365D01*
Y350103D01*
X270031Y348437D01*
X255036Y340106D02*
X261701D01*
X255036Y346771D01*
Y348437D01*
X256702Y350103D01*
X260035D01*
X261701Y348437D01*
X798304Y348389D02*
X799970Y350055D01*
X803302D01*
X804968Y348389D01*
Y341724D01*
X803302Y340058D01*
X799970D01*
X798304Y341724D01*
X794971Y340058D02*
X791639D01*
X793305D01*
Y350055D01*
X794971Y348389D01*
X779976Y350055D02*
X786641D01*
Y345056D01*
X783308Y346723D01*
X781642D01*
X779976Y345056D01*
Y341724D01*
X781642Y340058D01*
X784975D01*
X786641Y341724D01*
X723372Y348213D02*
X725038Y349879D01*
X728370D01*
X730036Y348213D01*
Y341548D01*
X728370Y339882D01*
X725038D01*
X723372Y341548D01*
X720039Y339882D02*
X716707D01*
X718373D01*
Y349879D01*
X720039Y348213D01*
X705044Y349879D02*
X708376Y348213D01*
X711709Y344880D01*
Y341548D01*
X710042Y339882D01*
X706710D01*
X705044Y341548D01*
Y343214D01*
X706710Y344880D01*
X711709D01*
X648456Y348363D02*
X650122Y350029D01*
X653454D01*
X655120Y348363D01*
Y341698D01*
X653454Y340032D01*
X650122D01*
X648456Y341698D01*
X645123Y340032D02*
X641791D01*
X643457D01*
Y350029D01*
X645123Y348363D01*
X636793Y350029D02*
X630128D01*
Y348363D01*
X636793Y341698D01*
Y340032D01*
X573378Y348383D02*
X575044Y350049D01*
X578376D01*
X580042Y348383D01*
Y341718D01*
X578376Y340052D01*
X575044D01*
X573378Y341718D01*
X570045Y340052D02*
X566713D01*
X568379D01*
Y350049D01*
X570045Y348383D01*
X561715D02*
X560049Y350049D01*
X556716D01*
X555050Y348383D01*
Y346717D01*
X556716Y345051D01*
X555050Y343384D01*
Y341718D01*
X556716Y340052D01*
X560049D01*
X561715Y341718D01*
Y343384D01*
X560049Y345051D01*
X561715Y346717D01*
Y348383D01*
X560049Y345051D02*
X556716D01*
X948300Y348239D02*
X949966Y349905D01*
X953298D01*
X954964Y348239D01*
Y341574D01*
X953298Y339908D01*
X949966D01*
X948300Y341574D01*
X944967Y339908D02*
X941635D01*
X943301D01*
Y349905D01*
X944967Y348239D01*
X936637Y341574D02*
X934970Y339908D01*
X931638D01*
X929972Y341574D01*
Y348239D01*
X931638Y349905D01*
X934970D01*
X936637Y348239D01*
Y346573D01*
X934970Y344906D01*
X929972D01*
X874062Y348277D02*
X875728Y349943D01*
X879060D01*
X880726Y348277D01*
Y341612D01*
X879060Y339946D01*
X875728D01*
X874062Y341612D01*
X864065Y339946D02*
X870729D01*
X864065Y346610D01*
Y348277D01*
X865731Y349943D01*
X869063D01*
X870729Y348277D01*
X860732D02*
X859066Y349943D01*
X855734D01*
X854068Y348277D01*
Y341612D01*
X855734Y339946D01*
X859066D01*
X860732Y341612D01*
Y348277D01*
X726659Y168245D02*
X728326Y169911D01*
X731658D01*
X733324Y168245D01*
Y161580D01*
X731658Y159914D01*
X728326D01*
X726659Y161580D01*
X723327Y168245D02*
X721661Y169911D01*
X718329D01*
X716663Y168245D01*
Y166579D01*
X718329Y164912D01*
X719995D01*
X718329D01*
X716663Y163246D01*
Y161580D01*
X718329Y159914D01*
X721661D01*
X723327Y161580D01*
X713331Y169911D02*
X706666D01*
Y168245D01*
X713331Y161580D01*
Y159914D01*
X701768Y168245D02*
X703434Y169911D01*
X706766D01*
X708432Y168245D01*
Y161580D01*
X706766Y159914D01*
X703434D01*
X701768Y161580D01*
X698435Y168245D02*
X696769Y169911D01*
X693437D01*
X691771Y168245D01*
Y166579D01*
X693437Y164912D01*
X695103D01*
X693437D01*
X691771Y163246D01*
Y161580D01*
X693437Y159914D01*
X696769D01*
X698435Y161580D01*
X688438Y168245D02*
X686772Y169911D01*
X683440D01*
X681774Y168245D01*
Y166579D01*
X683440Y164912D01*
X681774Y163246D01*
Y161580D01*
X683440Y159914D01*
X686772D01*
X688438Y161580D01*
Y163246D01*
X686772Y164912D01*
X688438Y166579D01*
Y168245D01*
X686772Y164912D02*
X683440D01*
X676621Y168245D02*
X678288Y169911D01*
X681620D01*
X683286Y168245D01*
Y161580D01*
X681620Y159914D01*
X678288D01*
X676621Y161580D01*
X673289Y168245D02*
X671623Y169911D01*
X668291D01*
X666625Y168245D01*
Y166579D01*
X668291Y164912D01*
X669957D01*
X668291D01*
X666625Y163246D01*
Y161580D01*
X668291Y159914D01*
X671623D01*
X673289Y161580D01*
X663292D02*
X661626Y159914D01*
X658294D01*
X656628Y161580D01*
Y168245D01*
X658294Y169911D01*
X661626D01*
X663292Y168245D01*
Y166579D01*
X661626Y164912D01*
X656628D01*
X751730Y168245D02*
X753396Y169911D01*
X756728D01*
X758394Y168245D01*
Y161580D01*
X756728Y159914D01*
X753396D01*
X751730Y161580D01*
X743399Y159914D02*
Y169911D01*
X748397Y164912D01*
X741733D01*
X738400Y168245D02*
X736734Y169911D01*
X733402D01*
X731736Y168245D01*
Y161580D01*
X733402Y159914D01*
X736734D01*
X738400Y161580D01*
Y168245D01*
X745770Y155088D02*
Y165085D01*
X740772D01*
X739106Y163419D01*
Y160086D01*
X740772Y158420D01*
X745770D01*
X742438D02*
X739106Y155088D01*
X730775D02*
Y165085D01*
X735773Y160086D01*
X729109D01*
X725777Y163419D02*
X724110Y165085D01*
X720778D01*
X719112Y163419D01*
Y156754D01*
X720778Y155088D01*
X724110D01*
X725777Y156754D01*
Y163419D01*
X719100Y155088D02*
Y165085D01*
X714102D01*
X712436Y163419D01*
Y160086D01*
X714102Y158420D01*
X719100D01*
X715768D02*
X712436Y155088D01*
X704105D02*
Y165085D01*
X709103Y160086D01*
X702439D01*
X699107Y155088D02*
X695774D01*
X697440D01*
Y165085D01*
X699107Y163419D01*
X695732Y155088D02*
Y165085D01*
X690734D01*
X689068Y163419D01*
Y160086D01*
X690734Y158420D01*
X695732D01*
X692400D02*
X689068Y155088D01*
X680737D02*
Y165085D01*
X685735Y160086D01*
X679071D01*
X669074Y155088D02*
X675739D01*
X669074Y161752D01*
Y163419D01*
X670740Y165085D01*
X674072D01*
X675739Y163419D01*
X770840Y155088D02*
Y165085D01*
X765842D01*
X764175Y163419D01*
Y160086D01*
X765842Y158420D01*
X770840D01*
X767508D02*
X764175Y155088D01*
X755845D02*
Y165085D01*
X760843Y160086D01*
X754179D01*
X750846Y163419D02*
X749180Y165085D01*
X745848D01*
X744182Y163419D01*
Y161752D01*
X745848Y160086D01*
X747514D01*
X745848D01*
X744182Y158420D01*
Y156754D01*
X745848Y155088D01*
X749180D01*
X750846Y156754D01*
X313690Y162425D02*
X307026D01*
X310358D01*
Y152428D01*
X303693D02*
X300361D01*
X302027D01*
Y162425D01*
X303693Y160759D01*
X315214Y232489D02*
X308549D01*
X311882D01*
Y222492D01*
X305217Y230823D02*
X303551Y232489D01*
X300219D01*
X298553Y230823D01*
Y229156D01*
X300219Y227490D01*
X301885D01*
X300219D01*
X298553Y225824D01*
Y224158D01*
X300219Y222492D01*
X303551D01*
X305217Y224158D01*
D52*
X852500Y352500D02*
X882500D01*
X852500Y337500D02*
Y352500D01*
X882500Y337500D02*
Y352500D01*
X852500Y337500D02*
X882500D01*
X927500Y352500D02*
X957500D01*
X927500D02*
X927500Y337500D01*
X957500D02*
X957500Y352500D01*
X927500Y337500D02*
X957500D01*
X552500Y352500D02*
X582500D01*
X552500Y337500D02*
Y352500D01*
X582500Y337500D02*
Y352500D01*
X552500Y337500D02*
X582500D01*
X627500Y352500D02*
X657500D01*
X627500Y337500D02*
Y352500D01*
X657500Y337500D02*
Y352500D01*
X627500Y337500D02*
X657500D01*
X702500Y352500D02*
X732500D01*
X702500Y337500D02*
Y352500D01*
X732500Y337500D02*
Y352500D01*
X702500Y337500D02*
X732500D01*
X777500Y352500D02*
X807500D01*
X777500Y337500D02*
Y352500D01*
X807500Y337500D02*
Y352500D01*
X777500Y337500D02*
X807500D01*
X327500Y352500D02*
X357500D01*
X327500Y337500D02*
Y352500D01*
X357500Y337500D02*
Y352500D01*
X327500Y337500D02*
X357500D01*
X477500Y352500D02*
X507500D01*
X477500Y337500D02*
Y352500D01*
X507500Y337500D02*
Y352500D01*
X477500Y337500D02*
X507500D01*
X402500Y352500D02*
X432500D01*
X402500Y337500D02*
Y352500D01*
X432500Y337500D02*
Y352500D01*
X402500Y337500D02*
X432500D01*
X252500Y352500D02*
X282500D01*
X252500Y337500D02*
Y352500D01*
X282500Y337500D02*
Y352500D01*
X252500Y337500D02*
X282500D01*
X246000Y260500D02*
X368000D01*
X246000Y194500D02*
Y260500D01*
Y194500D02*
X368000D01*
Y260500D01*
X246000Y190500D02*
X368000D01*
X246000Y124500D02*
Y190500D01*
Y124500D02*
X368000D01*
Y190500D01*
X752500Y170000D02*
X762500D01*
X752500Y150000D02*
X762500D01*
X752500D02*
Y170000D01*
X762500Y150000D02*
Y170000D01*
X677500D02*
X687500D01*
X677500Y150000D02*
X687500D01*
X677500D02*
Y170000D01*
X687500Y150000D02*
Y170000D01*
X702500D02*
X712500D01*
X702500Y150000D02*
X712500D01*
X702500D02*
Y170000D01*
X712500Y150000D02*
Y170000D01*
X727500D02*
X737500D01*
X727500Y150000D02*
X737500D01*
X727500D02*
Y170000D01*
X737500Y150000D02*
Y170000D01*
X752500Y150000D02*
Y180000D01*
X737500Y180000D02*
X752500Y180000D01*
X737500Y150000D02*
X752500D01*
X737500D02*
Y180000D01*
X677500Y150000D02*
Y180000D01*
X662500D02*
X677500D01*
X662500Y150000D02*
X677500D01*
X662500D02*
Y180000D01*
X702500Y150000D02*
Y180000D01*
X687500Y180000D02*
X702500Y180000D01*
X687500Y150000D02*
X702500D01*
X687500D02*
Y180000D01*
X727500Y150000D02*
Y180000D01*
X712500D02*
X727500D01*
X712500Y150000D02*
X727500Y150000D01*
X712500Y150000D02*
Y180000D01*
M02*
