M48
;Layer_Color=9474304
;FILE_FORMAT=4:4
METRIC,LZ
;TYPE=PLATED
T1F00S00C0.3000
T2F00S00C0.8000
T3F00S00C0.9000
T4F00S00C1.0000
T5F00S00C1.5000
T6F00S00C3.2000
%
T01
X002125Y00145
X002325Y001575
X0024
X006535Y001625
X007675Y001625
X008925
X009525Y002125
Y002575
X009375
X009575Y003075
X0096Y00345
X00995Y00335
X009925Y0032
X01Y002925
X010075Y0024
X01075Y002275
X010675Y00215
X01075Y001925
X01085
X0105075Y002
X0111Y0027
X0112
X0113
Y002925
X0112
X0111
X011425Y00305
X01135Y003175
X0104Y0039
X0098Y004
X00885Y00345
X0081
X008075Y003075
X008125Y002575
X008275
X0079Y002675
X007575Y00295
X0072Y002675
X007025Y002575
X00675Y002675
X006575Y003075
X0066Y00345
X006875Y003375
X00735Y00345
X00585
X00625Y002975
X006275Y002575
X00655Y002075
X00545Y0024
X00815Y00215
X00915Y002675
X0052Y002875
X005075Y003075
X0051Y00345
X00435
X004325Y003075
X0047Y002825
X004325Y0024
X0034Y00265
X0034Y0027725
X00355Y00285
X0032Y003
X0032Y0032
X002925Y003275
X0029Y00305
X00285Y00345
X0036
X003875Y00335
X00265Y00285
X0025Y00277
Y002655
X002275Y00285
X0023Y00305
X002025Y003275
X001825Y0032
X00185Y00345
X001525Y0033
X0017Y0029
X00179Y00266
X0018Y002575
X001825Y0023
X00225Y00225
X002275Y002025
X002375
X00295Y001925
X0014Y002625
X001175Y0025
X001075Y003075
X000895Y003095
X0014Y003175
X000175Y003075
X0002Y003525
T02
X000825Y001
X001079
T03
X00025Y001575
X0006
X006507Y0014
X006761
X007015
X007269
X007523
X007777
X008031
X008285
X008539
X008793
X009047
X009301
X009555
X009809
X010063
X010317
X010571
X010825
X0006Y0024
X00025
T04
X004835Y001425
X00596
X006125Y001925
X005
T05
X002494Y000625
X003002
X00351
X004018
X004526
X005034
X005542
X00605
X0065Y00075
X007
X0075
X008
X0085
X009
X00925Y00025
X00875
X00825
X00775
X00725
X00675
X00975
X01025
X01075
X0105Y00075
X01
X0095
X0095Y00405
X01
X0105
X011
X01075Y00455
X01025
X00975
X00925
X00875
X00825
X00775
X00725
X00675
X00625
X00575
X006Y00405
X0055
X0065
X007Y00405
X0075Y00405
X008
X0085
X009
X005
X0045
X004
X0035
X003
X0025
X00225Y00455
X00275
X00325
X00375
X00425
X00475
X00525
T06
X0005Y0005
X0115Y0008
Y0043
X0005
M30
