%FSLAX44Y44*%
%MOMM*%
G71*
G01*
G75*
G04 Layer_Color=65535*
%ADD10R,0.6000X0.6000*%
%ADD11R,0.6300X0.8300*%
%ADD12R,5.5000X3.2000*%
%ADD13R,1.0000X1.5000*%
%ADD14R,3.0000X1.6000*%
%ADD15R,6.2000X5.8000*%
%ADD16R,2.7000X1.0000*%
%ADD17R,2.7000X3.3000*%
%ADD18O,2.1500X0.6000*%
%ADD19O,0.7000X2.5000*%
G04:AMPARAMS|DCode=20|XSize=0.6mm|YSize=1.3mm|CornerRadius=0.15mm|HoleSize=0mm|Usage=FLASHONLY|Rotation=180.000|XOffset=0mm|YOffset=0mm|HoleType=Round|Shape=RoundedRectangle|*
%AMROUNDEDRECTD20*
21,1,0.6000,1.0000,0,0,180.0*
21,1,0.3000,1.3000,0,0,180.0*
1,1,0.3000,-0.1500,0.5000*
1,1,0.3000,0.1500,0.5000*
1,1,0.3000,0.1500,-0.5000*
1,1,0.3000,-0.1500,-0.5000*
%
%ADD20ROUNDEDRECTD20*%
%ADD21R,0.6000X0.6000*%
%ADD22R,0.4500X0.6000*%
%ADD23O,1.7000X0.3000*%
%ADD24R,1.1000X0.6000*%
%ADD25R,1.0000X0.8000*%
%ADD26R,0.9000X0.6000*%
%ADD27R,0.6000X1.1000*%
%ADD28R,1.5000X2.1000*%
%ADD29R,0.8300X0.6300*%
%ADD30R,1.5000X1.0000*%
%ADD31R,3.0000X3.7500*%
%ADD32C,1.5000*%
%ADD33C,0.3000*%
%ADD34C,0.5000*%
%ADD35C,1.8000*%
%ADD36C,2.0000*%
%ADD37C,0.7500*%
%ADD38C,1.0000*%
%ADD39C,0.2600*%
%ADD40C,0.2500*%
%ADD41C,1.5000*%
%ADD42R,1.5000X1.5000*%
%ADD43C,2.5000*%
%ADD44C,6.0000*%
%ADD45C,1.6000*%
%ADD46C,0.7000*%
%ADD47R,0.8000X1.0000*%
%ADD48C,0.7000*%
%ADD49C,0.1700*%
%ADD50C,0.2540*%
%ADD51C,0.2000*%
%ADD52C,0.1000*%
%ADD53C,0.1500*%
G36*
X914500Y252250D02*
Y259500D01*
X921750D01*
X914500Y252250D01*
D02*
G37*
G36*
X789500D02*
Y259500D01*
X796750D01*
X789500Y252250D01*
D02*
G37*
G36*
X675500Y252250D02*
X675500Y259500D01*
X682750Y259500D01*
X675500Y252250D01*
D02*
G37*
G36*
X335000Y293500D02*
X328000D01*
X335000Y300500D01*
X335000D01*
Y293500D01*
D02*
G37*
G36*
X245000Y293500D02*
X238000D01*
X245000Y300500D01*
X245000D01*
Y293500D01*
D02*
G37*
D40*
X1121750Y338500D02*
G03*
X1121750Y338500I-1250J0D01*
G01*
X78250Y296500D02*
G03*
X78250Y296500I-1250J0D01*
G01*
D49*
X417500Y203500D02*
Y241500D01*
X457500D01*
X417500Y203500D02*
X457500D01*
Y241500D01*
X455500D02*
X457500Y239500D01*
X453500Y241500D02*
X457500Y237500D01*
X451500Y241500D02*
X457500Y235500D01*
X530000Y203500D02*
Y241500D01*
X570000D01*
X530000Y203500D02*
X570000D01*
Y241500D01*
X568000D02*
X570000Y239500D01*
X566000Y241500D02*
X570000Y237500D01*
X564000Y241500D02*
X570000Y235500D01*
X861568Y57432D02*
Y67429D01*
X866566D01*
X868233Y65763D01*
Y62431D01*
X866566Y60764D01*
X861568D01*
X871565Y65763D02*
X873231Y67429D01*
X876563D01*
X878229Y65763D01*
Y64097D01*
X876563Y62431D01*
X874897D01*
X876563D01*
X878229Y60764D01*
Y59098D01*
X876563Y57432D01*
X873231D01*
X871565Y59098D01*
X419100Y57432D02*
Y67429D01*
X424099D01*
X425765Y65763D01*
Y62431D01*
X424099Y60764D01*
X419100D01*
X435761Y57432D02*
X429097D01*
X435761Y64097D01*
Y65763D01*
X434095Y67429D01*
X430763D01*
X429097Y65763D01*
X648462Y412524D02*
Y422521D01*
X653460D01*
X655127Y420855D01*
Y417523D01*
X653460Y415856D01*
X648462D01*
X658459Y412524D02*
X661791D01*
X660125D01*
Y422521D01*
X658459Y420855D01*
X42479Y160759D02*
X40813Y162425D01*
X37480D01*
X35814Y160759D01*
Y154094D01*
X37480Y152428D01*
X40813D01*
X42479Y154094D01*
X45811Y152428D02*
X49143D01*
X47477D01*
Y162425D01*
X45811Y160759D01*
X40955Y243309D02*
X39288Y244975D01*
X35956D01*
X34290Y243309D01*
Y236644D01*
X35956Y234978D01*
X39288D01*
X40955Y236644D01*
X50951Y234978D02*
X44287D01*
X50951Y241643D01*
Y243309D01*
X49285Y244975D01*
X45953D01*
X44287Y243309D01*
X1084169Y291665D02*
X1082503Y289998D01*
Y286666D01*
X1084169Y285000D01*
X1090834D01*
X1092500Y286666D01*
Y289998D01*
X1090834Y291665D01*
X1084169Y294997D02*
X1082503Y296663D01*
Y299995D01*
X1084169Y301661D01*
X1085835D01*
X1087502Y299995D01*
Y298329D01*
Y299995D01*
X1089168Y301661D01*
X1090834D01*
X1092500Y299995D01*
Y296663D01*
X1090834Y294997D01*
X1084169Y316665D02*
X1082503Y314998D01*
Y311666D01*
X1084169Y310000D01*
X1090834D01*
X1092500Y311666D01*
Y314998D01*
X1090834Y316665D01*
X1092500Y324995D02*
X1082503D01*
X1087502Y319997D01*
Y326661D01*
X81669Y344165D02*
X80003Y342498D01*
Y339166D01*
X81669Y337500D01*
X88334D01*
X90000Y339166D01*
Y342498D01*
X88334Y344165D01*
X80003Y354161D02*
Y347497D01*
X85002D01*
X83336Y350829D01*
Y352495D01*
X85002Y354161D01*
X88334D01*
X90000Y352495D01*
Y349163D01*
X88334Y347497D01*
X94169Y296665D02*
X92503Y294998D01*
Y291666D01*
X94169Y290000D01*
X100834D01*
X102500Y291666D01*
Y294998D01*
X100834Y296665D01*
X92503Y306661D02*
X94169Y303329D01*
X97502Y299997D01*
X100834D01*
X102500Y301663D01*
Y304995D01*
X100834Y306661D01*
X99168D01*
X97502Y304995D01*
Y299997D01*
X799165Y283331D02*
X797498Y284997D01*
X794166D01*
X792500Y283331D01*
Y276666D01*
X794166Y275000D01*
X797498D01*
X799165Y276666D01*
X802497Y284997D02*
X809161D01*
Y283331D01*
X802497Y276666D01*
Y275000D01*
X821665Y283331D02*
X819998Y284997D01*
X816666D01*
X815000Y283331D01*
Y276666D01*
X816666Y275000D01*
X819998D01*
X821665Y276666D01*
X824997Y283331D02*
X826663Y284997D01*
X829995D01*
X831661Y283331D01*
Y281665D01*
X829995Y279998D01*
X831661Y278332D01*
Y276666D01*
X829995Y275000D01*
X826663D01*
X824997Y276666D01*
Y278332D01*
X826663Y279998D01*
X824997Y281665D01*
Y283331D01*
X826663Y279998D02*
X829995D01*
X916665Y283331D02*
X914998Y284997D01*
X911666D01*
X910000Y283331D01*
Y276666D01*
X911666Y275000D01*
X914998D01*
X916665Y276666D01*
X919997Y275000D02*
X923329D01*
X921663D01*
Y284997D01*
X919997Y283331D01*
X928327D02*
X929994Y284997D01*
X933326D01*
X934992Y283331D01*
Y281665D01*
X933326Y279998D01*
X931660D01*
X933326D01*
X934992Y278332D01*
Y276666D01*
X933326Y275000D01*
X929994D01*
X928327Y276666D01*
X949165Y283331D02*
X947498Y284997D01*
X944166D01*
X942500Y283331D01*
Y276666D01*
X944166Y275000D01*
X947498D01*
X949165Y276666D01*
X952497Y275000D02*
X955829D01*
X954163D01*
Y284997D01*
X952497Y283331D01*
X965826Y275000D02*
Y284997D01*
X960827Y279998D01*
X967492D01*
X1081665Y193331D02*
X1079998Y194997D01*
X1076666D01*
X1075000Y193331D01*
Y186666D01*
X1076666Y185000D01*
X1079998D01*
X1081665Y186666D01*
X1091661Y185000D02*
X1084997D01*
X1091661Y191665D01*
Y193331D01*
X1089995Y194997D01*
X1086663D01*
X1084997Y193331D01*
X1094994Y185000D02*
X1098326D01*
X1096660D01*
Y194997D01*
X1094994Y193331D01*
X1079165Y273331D02*
X1077498Y274997D01*
X1074166D01*
X1072500Y273331D01*
Y266666D01*
X1074166Y265000D01*
X1077498D01*
X1079165Y266666D01*
X1089161Y265000D02*
X1082497D01*
X1089161Y271665D01*
Y273331D01*
X1087495Y274997D01*
X1084163D01*
X1082497Y273331D01*
X1099158Y265000D02*
X1092494D01*
X1099158Y271665D01*
Y273331D01*
X1097492Y274997D01*
X1094160D01*
X1092494Y273331D01*
X1014165Y235831D02*
X1012498Y237497D01*
X1009166D01*
X1007500Y235831D01*
Y229166D01*
X1009166Y227500D01*
X1012498D01*
X1014165Y229166D01*
X1024161Y227500D02*
X1017497D01*
X1024161Y234165D01*
Y235831D01*
X1022495Y237497D01*
X1019163D01*
X1017497Y235831D01*
X1027494D02*
X1029160Y237497D01*
X1032492D01*
X1034158Y235831D01*
Y234165D01*
X1032492Y232498D01*
X1030826D01*
X1032492D01*
X1034158Y230832D01*
Y229166D01*
X1032492Y227500D01*
X1029160D01*
X1027494Y229166D01*
X1061669Y164165D02*
X1060003Y162498D01*
Y159166D01*
X1061669Y157500D01*
X1068334D01*
X1070000Y159166D01*
Y162498D01*
X1068334Y164165D01*
X1070000Y174161D02*
Y167497D01*
X1063335Y174161D01*
X1061669D01*
X1060003Y172495D01*
Y169163D01*
X1061669Y167497D01*
X1070000Y182492D02*
X1060003D01*
X1065002Y177493D01*
Y184158D01*
X256669Y301665D02*
X255003Y299998D01*
Y296666D01*
X256669Y295000D01*
X263334D01*
X265000Y296666D01*
Y299998D01*
X263334Y301665D01*
X265000Y311661D02*
Y304997D01*
X258335Y311661D01*
X256669D01*
X255003Y309995D01*
Y306663D01*
X256669Y304997D01*
X255003Y321658D02*
Y314994D01*
X260002D01*
X258335Y318326D01*
Y319992D01*
X260002Y321658D01*
X263334D01*
X265000Y319992D01*
Y316660D01*
X263334Y314994D01*
X216665Y288331D02*
X214998Y289997D01*
X211666D01*
X210000Y288331D01*
Y281666D01*
X211666Y280000D01*
X214998D01*
X216665Y281666D01*
X226661Y280000D02*
X219997D01*
X226661Y286665D01*
Y288331D01*
X224995Y289997D01*
X221663D01*
X219997Y288331D01*
X236658Y289997D02*
X233326Y288331D01*
X229994Y284998D01*
Y281666D01*
X231660Y280000D01*
X234992D01*
X236658Y281666D01*
Y283332D01*
X234992Y284998D01*
X229994D01*
X131669Y254165D02*
X130003Y252498D01*
Y249166D01*
X131669Y247500D01*
X138334D01*
X140000Y249166D01*
Y252498D01*
X138334Y254165D01*
X140000Y264161D02*
Y257497D01*
X133336Y264161D01*
X131669D01*
X130003Y262495D01*
Y259163D01*
X131669Y257497D01*
X130003Y267493D02*
Y274158D01*
X131669D01*
X138334Y267493D01*
X140000D01*
X156669Y289165D02*
X155003Y287498D01*
Y284166D01*
X156669Y282500D01*
X163334D01*
X165000Y284166D01*
Y287498D01*
X163334Y289165D01*
X165000Y299161D02*
Y292497D01*
X158336Y299161D01*
X156669D01*
X155003Y297495D01*
Y294163D01*
X156669Y292497D01*
Y302494D02*
X155003Y304160D01*
Y307492D01*
X156669Y309158D01*
X158336D01*
X160002Y307492D01*
X161668Y309158D01*
X163334D01*
X165000Y307492D01*
Y304160D01*
X163334Y302494D01*
X161668D01*
X160002Y304160D01*
X158336Y302494D01*
X156669D01*
X160002Y304160D02*
Y307492D01*
X344169Y304165D02*
X342503Y302498D01*
Y299166D01*
X344169Y297500D01*
X350834D01*
X352500Y299166D01*
Y302498D01*
X350834Y304165D01*
X352500Y314161D02*
Y307497D01*
X345835Y314161D01*
X344169D01*
X342503Y312495D01*
Y309163D01*
X344169Y307497D01*
X350834Y317493D02*
X352500Y319160D01*
Y322492D01*
X350834Y324158D01*
X344169D01*
X342503Y322492D01*
Y319160D01*
X344169Y317493D01*
X345835D01*
X347502Y319160D01*
Y324158D01*
X309165Y290831D02*
X307498Y292497D01*
X304166D01*
X302500Y290831D01*
Y284166D01*
X304166Y282500D01*
X307498D01*
X309165Y284166D01*
X312497Y290831D02*
X314163Y292497D01*
X317495D01*
X319161Y290831D01*
Y289165D01*
X317495Y287498D01*
X315829D01*
X317495D01*
X319161Y285832D01*
Y284166D01*
X317495Y282500D01*
X314163D01*
X312497Y284166D01*
X322494Y290831D02*
X324160Y292497D01*
X327492D01*
X329158Y290831D01*
Y284166D01*
X327492Y282500D01*
X324160D01*
X322494Y284166D01*
Y290831D01*
X106669Y291665D02*
X105003Y289998D01*
Y286666D01*
X106669Y285000D01*
X113334D01*
X115000Y286666D01*
Y289998D01*
X113334Y291665D01*
X106669Y294997D02*
X105003Y296663D01*
Y299995D01*
X106669Y301661D01*
X108336D01*
X110002Y299995D01*
Y298329D01*
Y299995D01*
X111668Y301661D01*
X113334D01*
X115000Y299995D01*
Y296663D01*
X113334Y294997D01*
X115000Y304993D02*
Y308326D01*
Y306660D01*
X105003D01*
X106669Y304993D01*
X184169Y346665D02*
X182503Y344998D01*
Y341666D01*
X184169Y340000D01*
X190834D01*
X192500Y341666D01*
Y344998D01*
X190834Y346665D01*
X184169Y349997D02*
X182503Y351663D01*
Y354995D01*
X184169Y356661D01*
X185835D01*
X187502Y354995D01*
Y353329D01*
Y354995D01*
X189168Y356661D01*
X190834D01*
X192500Y354995D01*
Y351663D01*
X190834Y349997D01*
X192500Y366658D02*
Y359994D01*
X185835Y366658D01*
X184169D01*
X182503Y364992D01*
Y361660D01*
X184169Y359994D01*
X174165Y383331D02*
X172498Y384997D01*
X169166D01*
X167500Y383331D01*
Y376666D01*
X169166Y375000D01*
X172498D01*
X174165Y376666D01*
X177497Y383331D02*
X179163Y384997D01*
X182495D01*
X184161Y383331D01*
Y381665D01*
X182495Y379998D01*
X180829D01*
X182495D01*
X184161Y378332D01*
Y376666D01*
X182495Y375000D01*
X179163D01*
X177497Y376666D01*
X187494Y383331D02*
X189160Y384997D01*
X192492D01*
X194158Y383331D01*
Y381665D01*
X192492Y379998D01*
X190826D01*
X192492D01*
X194158Y378332D01*
Y376666D01*
X192492Y375000D01*
X189160D01*
X187494Y376666D01*
X676665Y283331D02*
X674998Y284997D01*
X671666D01*
X670000Y283331D01*
Y276666D01*
X671666Y275000D01*
X674998D01*
X676665Y276666D01*
X679997Y283331D02*
X681663Y284997D01*
X684995D01*
X686661Y283331D01*
Y281665D01*
X684995Y279998D01*
X683329D01*
X684995D01*
X686661Y278332D01*
Y276666D01*
X684995Y275000D01*
X681663D01*
X679997Y276666D01*
X694992Y275000D02*
Y284997D01*
X689994Y279998D01*
X696658D01*
X706665Y283331D02*
X704998Y284997D01*
X701666D01*
X700000Y283331D01*
Y276666D01*
X701666Y275000D01*
X704998D01*
X706665Y276666D01*
X709997Y283331D02*
X711663Y284997D01*
X714995D01*
X716661Y283331D01*
Y281665D01*
X714995Y279998D01*
X713329D01*
X714995D01*
X716661Y278332D01*
Y276666D01*
X714995Y275000D01*
X711663D01*
X709997Y276666D01*
X726658Y284997D02*
X719994D01*
Y279998D01*
X723326Y281665D01*
X724992D01*
X726658Y279998D01*
Y276666D01*
X724992Y275000D01*
X721660D01*
X719994Y276666D01*
X224165Y175831D02*
X222498Y177497D01*
X219166D01*
X217500Y175831D01*
Y169166D01*
X219166Y167500D01*
X222498D01*
X224165Y169166D01*
X227497Y175831D02*
X229163Y177497D01*
X232495D01*
X234161Y175831D01*
Y174165D01*
X232495Y172498D01*
X230829D01*
X232495D01*
X234161Y170832D01*
Y169166D01*
X232495Y167500D01*
X229163D01*
X227497Y169166D01*
X244158Y177497D02*
X240826Y175831D01*
X237494Y172498D01*
Y169166D01*
X239160Y167500D01*
X242492D01*
X244158Y169166D01*
Y170832D01*
X242492Y172498D01*
X237494D01*
X97500Y94997D02*
Y85000D01*
X102498D01*
X104164Y86666D01*
Y93331D01*
X102498Y94997D01*
X97500D01*
X107497Y85000D02*
X110829D01*
X109163D01*
Y94997D01*
X107497Y93331D01*
X241554Y352417D02*
Y342420D01*
X246553D01*
X248219Y344086D01*
Y350751D01*
X246553Y352417D01*
X241554D01*
X258215Y342420D02*
X251551D01*
X258215Y349085D01*
Y350751D01*
X256549Y352417D01*
X253217D01*
X251551Y350751D01*
X316738Y352417D02*
Y342420D01*
X321736D01*
X323403Y344086D01*
Y350751D01*
X321736Y352417D01*
X316738D01*
X326735Y350751D02*
X328401Y352417D01*
X331733D01*
X333399Y350751D01*
Y349085D01*
X331733Y347419D01*
X330067D01*
X331733D01*
X333399Y345752D01*
Y344086D01*
X331733Y342420D01*
X328401D01*
X326735Y344086D01*
X391668Y352417D02*
Y342420D01*
X396666D01*
X398333Y344086D01*
Y350751D01*
X396666Y352417D01*
X391668D01*
X406663Y342420D02*
Y352417D01*
X401665Y347419D01*
X408329D01*
X466598Y352417D02*
Y342420D01*
X471596D01*
X473263Y344086D01*
Y350751D01*
X471596Y352417D01*
X466598D01*
X483259D02*
X476595D01*
Y347419D01*
X479927Y349085D01*
X481593D01*
X483259Y347419D01*
Y344086D01*
X481593Y342420D01*
X478261D01*
X476595Y344086D01*
X520003Y297500D02*
X530000D01*
Y302498D01*
X528334Y304165D01*
X521669D01*
X520003Y302498D01*
Y297500D01*
Y314161D02*
X521669Y310829D01*
X525002Y307497D01*
X528334D01*
X530000Y309163D01*
Y312495D01*
X528334Y314161D01*
X526668D01*
X525002Y312495D01*
Y307497D01*
X445003Y300000D02*
X455000D01*
Y304998D01*
X453334Y306665D01*
X446669D01*
X445003Y304998D01*
Y300000D01*
Y309997D02*
Y316661D01*
X446669D01*
X453334Y309997D01*
X455000D01*
X541782Y352417D02*
Y342420D01*
X546781D01*
X548447Y344086D01*
Y350751D01*
X546781Y352417D01*
X541782D01*
X551779Y350751D02*
X553445Y352417D01*
X556777D01*
X558443Y350751D01*
Y349085D01*
X556777Y347419D01*
X558443Y345752D01*
Y344086D01*
X556777Y342420D01*
X553445D01*
X551779Y344086D01*
Y345752D01*
X553445Y347419D01*
X551779Y349085D01*
Y350751D01*
X553445Y347419D02*
X556777D01*
X616712Y352417D02*
Y342420D01*
X621711D01*
X623377Y344086D01*
Y350751D01*
X621711Y352417D01*
X616712D01*
X626709Y344086D02*
X628375Y342420D01*
X631707D01*
X633373Y344086D01*
Y350751D01*
X631707Y352417D01*
X628375D01*
X626709Y350751D01*
Y349085D01*
X628375Y347419D01*
X633373D01*
X687578Y352417D02*
Y342420D01*
X692577D01*
X694243Y344086D01*
Y350751D01*
X692577Y352417D01*
X687578D01*
X697575Y342420D02*
X700907D01*
X699241D01*
Y352417D01*
X697575Y350751D01*
X705906D02*
X707572Y352417D01*
X710904D01*
X712570Y350751D01*
Y344086D01*
X710904Y342420D01*
X707572D01*
X705906Y344086D01*
Y350751D01*
X764286Y352417D02*
Y342420D01*
X769285D01*
X770951Y344086D01*
Y350751D01*
X769285Y352417D01*
X764286D01*
X774283Y342420D02*
X777615D01*
X775949D01*
Y352417D01*
X774283Y350751D01*
X782614Y342420D02*
X785946D01*
X784280D01*
Y352417D01*
X782614Y350751D01*
X820003Y295000D02*
X830000D01*
Y299998D01*
X828334Y301665D01*
X821669D01*
X820003Y299998D01*
Y295000D01*
X830000Y304997D02*
Y308329D01*
Y306663D01*
X820003D01*
X821669Y304997D01*
X830000Y319992D02*
Y313327D01*
X823335Y319992D01*
X821669D01*
X820003Y318326D01*
Y314994D01*
X821669Y313327D01*
X670003Y295000D02*
X680000D01*
Y299998D01*
X678334Y301665D01*
X671669D01*
X670003Y299998D01*
Y295000D01*
X680000Y304997D02*
Y308329D01*
Y306663D01*
X670003D01*
X671669Y304997D01*
Y313327D02*
X670003Y314994D01*
Y318326D01*
X671669Y319992D01*
X673335D01*
X675002Y318326D01*
Y316660D01*
Y318326D01*
X676668Y319992D01*
X678334D01*
X680000Y318326D01*
Y314994D01*
X678334Y313327D01*
X837438Y352417D02*
Y342420D01*
X842437D01*
X844103Y344086D01*
Y350751D01*
X842437Y352417D01*
X837438D01*
X847435Y342420D02*
X850767D01*
X849101D01*
Y352417D01*
X847435Y350751D01*
X860764Y342420D02*
Y352417D01*
X855766Y347419D01*
X862430D01*
X912622Y352417D02*
Y342420D01*
X917620D01*
X919287Y344086D01*
Y350751D01*
X917620Y352417D01*
X912622D01*
X922619Y342420D02*
X925951D01*
X924285D01*
Y352417D01*
X922619Y350751D01*
X937614Y352417D02*
X930949D01*
Y347419D01*
X934282Y349085D01*
X935948D01*
X937614Y347419D01*
Y344086D01*
X935948Y342420D01*
X932616D01*
X930949Y344086D01*
X970003Y295000D02*
X980000D01*
Y299998D01*
X978334Y301665D01*
X971669D01*
X970003Y299998D01*
Y295000D01*
X980000Y304997D02*
Y308329D01*
Y306663D01*
X970003D01*
X971669Y304997D01*
X970003Y319992D02*
X971669Y316660D01*
X975002Y313327D01*
X978334D01*
X980000Y314994D01*
Y318326D01*
X978334Y319992D01*
X976668D01*
X975002Y318326D01*
Y313327D01*
X1037503Y260000D02*
X1047500D01*
Y264998D01*
X1045834Y266665D01*
X1039169D01*
X1037503Y264998D01*
Y260000D01*
X1047500Y269997D02*
Y273329D01*
Y271663D01*
X1037503D01*
X1039169Y269997D01*
X1037503Y278327D02*
Y284992D01*
X1039169D01*
X1045834Y278327D01*
X1047500D01*
X1002503Y257500D02*
X1012500D01*
Y262498D01*
X1010834Y264165D01*
X1004169D01*
X1002503Y262498D01*
Y257500D01*
X1012500Y267497D02*
Y270829D01*
Y269163D01*
X1002503D01*
X1004169Y267497D01*
Y275827D02*
X1002503Y277494D01*
Y280826D01*
X1004169Y282492D01*
X1005835D01*
X1007502Y280826D01*
X1009168Y282492D01*
X1010834D01*
X1012500Y280826D01*
Y277494D01*
X1010834Y275827D01*
X1009168D01*
X1007502Y277494D01*
X1005835Y275827D01*
X1004169D01*
X1007502Y277494D02*
Y280826D01*
X270003Y270000D02*
X280000D01*
Y274998D01*
X278334Y276665D01*
X271669D01*
X270003Y274998D01*
Y270000D01*
X280000Y279997D02*
Y283329D01*
Y281663D01*
X270003D01*
X271669Y279997D01*
X278334Y288327D02*
X280000Y289994D01*
Y293326D01*
X278334Y294992D01*
X271669D01*
X270003Y293326D01*
Y289994D01*
X271669Y288327D01*
X273335D01*
X275002Y289994D01*
Y294992D01*
X375003Y267500D02*
X385000D01*
Y272498D01*
X383334Y274165D01*
X376669D01*
X375003Y272498D01*
Y267500D01*
X385000Y284161D02*
Y277497D01*
X378335Y284161D01*
X376669D01*
X375003Y282495D01*
Y279163D01*
X376669Y277497D01*
Y287494D02*
X375003Y289160D01*
Y292492D01*
X376669Y294158D01*
X383334D01*
X385000Y292492D01*
Y289160D01*
X383334Y287494D01*
X376669D01*
X410003Y132500D02*
X420000D01*
Y137498D01*
X418334Y139164D01*
X411669D01*
X410003Y137498D01*
Y132500D01*
X420000Y149161D02*
Y142497D01*
X413335Y149161D01*
X411669D01*
X410003Y147495D01*
Y144163D01*
X411669Y142497D01*
X420000Y152493D02*
Y155826D01*
Y154160D01*
X410003D01*
X411669Y152493D01*
X525003Y130000D02*
X535000D01*
Y134998D01*
X533334Y136664D01*
X526669D01*
X525003Y134998D01*
Y130000D01*
X535000Y146661D02*
Y139997D01*
X528335Y146661D01*
X526669D01*
X525003Y144995D01*
Y141663D01*
X526669Y139997D01*
X535000Y156658D02*
Y149994D01*
X528335Y156658D01*
X526669D01*
X525003Y154992D01*
Y151660D01*
X526669Y149994D01*
X164165Y47497D02*
X157500D01*
Y42498D01*
X160832D01*
X157500D01*
Y37500D01*
X167497D02*
X170829D01*
X169163D01*
Y47497D01*
X167497Y45831D01*
X140716Y182491D02*
Y172494D01*
X147381D01*
X150713D02*
X154045D01*
X152379D01*
Y182491D01*
X150713Y180825D01*
X278384Y339880D02*
Y349877D01*
X283382D01*
X285049Y348211D01*
Y344879D01*
X283382Y343212D01*
X278384D01*
X281716D02*
X285049Y339880D01*
X288381D02*
X291713D01*
X290047D01*
Y349877D01*
X288381Y348211D01*
X351790Y339880D02*
Y349877D01*
X356788D01*
X358455Y348211D01*
Y344879D01*
X356788Y343212D01*
X351790D01*
X355122D02*
X358455Y339880D01*
X368451D02*
X361787D01*
X368451Y346545D01*
Y348211D01*
X366785Y349877D01*
X363453D01*
X361787Y348211D01*
X426720Y339880D02*
Y349877D01*
X431718D01*
X433385Y348211D01*
Y344879D01*
X431718Y343212D01*
X426720D01*
X430052D02*
X433385Y339880D01*
X436717Y348211D02*
X438383Y349877D01*
X441715D01*
X443381Y348211D01*
Y346545D01*
X441715Y344879D01*
X440049D01*
X441715D01*
X443381Y343212D01*
Y341546D01*
X441715Y339880D01*
X438383D01*
X436717Y341546D01*
X501650Y339880D02*
Y349877D01*
X506648D01*
X508315Y348211D01*
Y344879D01*
X506648Y343212D01*
X501650D01*
X504982D02*
X508315Y339880D01*
X516645D02*
Y349877D01*
X511647Y344879D01*
X518311D01*
X485000Y322500D02*
Y332497D01*
X489998D01*
X491665Y330831D01*
Y327498D01*
X489998Y325832D01*
X485000D01*
X488332D02*
X491665Y322500D01*
X501661Y332497D02*
X494997D01*
Y327498D01*
X498329Y329165D01*
X499995D01*
X501661Y327498D01*
Y324166D01*
X499995Y322500D01*
X496663D01*
X494997Y324166D01*
X480000Y297500D02*
X470003D01*
Y302498D01*
X471669Y304165D01*
X475002D01*
X476668Y302498D01*
Y297500D01*
Y300832D02*
X480000Y304165D01*
X470003Y314161D02*
X471669Y310829D01*
X475002Y307497D01*
X478334D01*
X480000Y309163D01*
Y312495D01*
X478334Y314161D01*
X476668D01*
X475002Y312495D01*
Y307497D01*
X405000Y315000D02*
X395003D01*
Y319998D01*
X396669Y321665D01*
X400002D01*
X401668Y319998D01*
Y315000D01*
Y318332D02*
X405000Y321665D01*
X395003Y324997D02*
Y331661D01*
X396669D01*
X403334Y324997D01*
X405000D01*
Y295000D02*
X395003D01*
Y299998D01*
X396669Y301665D01*
X400002D01*
X401668Y299998D01*
Y295000D01*
Y298332D02*
X405000Y301665D01*
X396669Y304997D02*
X395003Y306663D01*
Y309995D01*
X396669Y311661D01*
X398335D01*
X400002Y309995D01*
X401668Y311661D01*
X403334D01*
X405000Y309995D01*
Y306663D01*
X403334Y304997D01*
X401668D01*
X400002Y306663D01*
X398335Y304997D01*
X396669D01*
X400002Y306663D02*
Y309995D01*
X576580Y339880D02*
Y349877D01*
X581578D01*
X583245Y348211D01*
Y344879D01*
X581578Y343212D01*
X576580D01*
X579912D02*
X583245Y339880D01*
X586577Y341546D02*
X588243Y339880D01*
X591575D01*
X593241Y341546D01*
Y348211D01*
X591575Y349877D01*
X588243D01*
X586577Y348211D01*
Y346545D01*
X588243Y344879D01*
X593241D01*
X647446Y339880D02*
Y349877D01*
X652445D01*
X654111Y348211D01*
Y344879D01*
X652445Y343212D01*
X647446D01*
X650778D02*
X654111Y339880D01*
X657443D02*
X660775D01*
X659109D01*
Y349877D01*
X657443Y348211D01*
X665773D02*
X667440Y349877D01*
X670772D01*
X672438Y348211D01*
Y341546D01*
X670772Y339880D01*
X667440D01*
X665773Y341546D01*
Y348211D01*
X724154Y339880D02*
Y349877D01*
X729153D01*
X730819Y348211D01*
Y344879D01*
X729153Y343212D01*
X724154D01*
X727486D02*
X730819Y339880D01*
X734151D02*
X737483D01*
X735817D01*
Y349877D01*
X734151Y348211D01*
X742482Y339880D02*
X745814D01*
X744148D01*
Y349877D01*
X742482Y348211D01*
X797560Y339880D02*
Y349877D01*
X802559D01*
X804225Y348211D01*
Y344879D01*
X802559Y343212D01*
X797560D01*
X800892D02*
X804225Y339880D01*
X807557D02*
X810889D01*
X809223D01*
Y349877D01*
X807557Y348211D01*
X822552Y339880D02*
X815888D01*
X822552Y346545D01*
Y348211D01*
X820886Y349877D01*
X817554D01*
X815888Y348211D01*
X777500Y322500D02*
Y332497D01*
X782498D01*
X784165Y330831D01*
Y327498D01*
X782498Y325832D01*
X777500D01*
X780832D02*
X784165Y322500D01*
X787497D02*
X790829D01*
X789163D01*
Y332497D01*
X787497Y330831D01*
X795827D02*
X797494Y332497D01*
X800826D01*
X802492Y330831D01*
Y329165D01*
X800826Y327498D01*
X799160D01*
X800826D01*
X802492Y325832D01*
Y324166D01*
X800826Y322500D01*
X797494D01*
X795827Y324166D01*
X780000Y290000D02*
X770003D01*
Y294998D01*
X771669Y296665D01*
X775002D01*
X776668Y294998D01*
Y290000D01*
Y293332D02*
X780000Y296665D01*
Y299997D02*
Y303329D01*
Y301663D01*
X770003D01*
X771669Y299997D01*
X780000Y313326D02*
X770003D01*
X775002Y308327D01*
Y314992D01*
X627500Y322500D02*
Y332497D01*
X632498D01*
X634165Y330831D01*
Y327498D01*
X632498Y325832D01*
X627500D01*
X630832D02*
X634165Y322500D01*
X637497D02*
X640829D01*
X639163D01*
Y332497D01*
X637497Y330831D01*
X652492Y332497D02*
X645827D01*
Y327498D01*
X649160Y329165D01*
X650826D01*
X652492Y327498D01*
Y324166D01*
X650826Y322500D01*
X647494D01*
X645827Y324166D01*
X630000Y292500D02*
X620003D01*
Y297498D01*
X621669Y299165D01*
X625002D01*
X626668Y297498D01*
Y292500D01*
Y295832D02*
X630000Y299165D01*
Y302497D02*
Y305829D01*
Y304163D01*
X620003D01*
X621669Y302497D01*
X620003Y317492D02*
X621669Y314160D01*
X625002Y310827D01*
X628334D01*
X630000Y312494D01*
Y315826D01*
X628334Y317492D01*
X626668D01*
X625002Y315826D01*
Y310827D01*
X872490Y339880D02*
Y349877D01*
X877488D01*
X879155Y348211D01*
Y344879D01*
X877488Y343212D01*
X872490D01*
X875822D02*
X879155Y339880D01*
X882487D02*
X885819D01*
X884153D01*
Y349877D01*
X882487Y348211D01*
X890817Y349877D02*
X897482D01*
Y348211D01*
X890817Y341546D01*
Y339880D01*
X947420D02*
Y349877D01*
X952419D01*
X954085Y348211D01*
Y344879D01*
X952419Y343212D01*
X947420D01*
X950752D02*
X954085Y339880D01*
X957417D02*
X960749D01*
X959083D01*
Y349877D01*
X957417Y348211D01*
X965748D02*
X967414Y349877D01*
X970746D01*
X972412Y348211D01*
Y346545D01*
X970746Y344879D01*
X972412Y343212D01*
Y341546D01*
X970746Y339880D01*
X967414D01*
X965748Y341546D01*
Y343212D01*
X967414Y344879D01*
X965748Y346545D01*
Y348211D01*
X967414Y344879D02*
X970746D01*
X927500Y322500D02*
Y332497D01*
X932498D01*
X934165Y330831D01*
Y327498D01*
X932498Y325832D01*
X927500D01*
X930832D02*
X934165Y322500D01*
X937497D02*
X940829D01*
X939163D01*
Y332497D01*
X937497Y330831D01*
X945827Y324166D02*
X947494Y322500D01*
X950826D01*
X952492Y324166D01*
Y330831D01*
X950826Y332497D01*
X947494D01*
X945827Y330831D01*
Y329165D01*
X947494Y327498D01*
X952492D01*
X930000Y290000D02*
X920003D01*
Y294998D01*
X921669Y296665D01*
X925002D01*
X926668Y294998D01*
Y290000D01*
Y293332D02*
X930000Y296665D01*
Y306661D02*
Y299997D01*
X923335Y306661D01*
X921669D01*
X920003Y304995D01*
Y301663D01*
X921669Y299997D01*
Y309994D02*
X920003Y311660D01*
Y314992D01*
X921669Y316658D01*
X928334D01*
X930000Y314992D01*
Y311660D01*
X928334Y309994D01*
X921669D01*
X1062500Y260000D02*
X1052503D01*
Y264998D01*
X1054169Y266665D01*
X1057502D01*
X1059168Y264998D01*
Y260000D01*
Y263332D02*
X1062500Y266665D01*
Y276661D02*
Y269997D01*
X1055835Y276661D01*
X1054169D01*
X1052503Y274995D01*
Y271663D01*
X1054169Y269997D01*
X1062500Y279993D02*
Y283326D01*
Y281660D01*
X1052503D01*
X1054169Y279993D01*
X1030000Y257500D02*
X1020003D01*
Y262498D01*
X1021669Y264165D01*
X1025002D01*
X1026668Y262498D01*
Y257500D01*
Y260832D02*
X1030000Y264165D01*
Y274161D02*
Y267497D01*
X1023335Y274161D01*
X1021669D01*
X1020003Y272495D01*
Y269163D01*
X1021669Y267497D01*
X1030000Y284158D02*
Y277494D01*
X1023335Y284158D01*
X1021669D01*
X1020003Y282492D01*
Y279160D01*
X1021669Y277494D01*
X236728Y264950D02*
Y274947D01*
X241726D01*
X243393Y273281D01*
Y269949D01*
X241726Y268282D01*
X236728D01*
X240060D02*
X243393Y264950D01*
X253389D02*
X246725D01*
X253389Y271615D01*
Y273281D01*
X251723Y274947D01*
X248391D01*
X246725Y273281D01*
X256722D02*
X258388Y274947D01*
X261720D01*
X263386Y273281D01*
Y271615D01*
X261720Y269949D01*
X260054D01*
X261720D01*
X263386Y268282D01*
Y266616D01*
X261720Y264950D01*
X258388D01*
X256722Y266616D01*
X201676Y264950D02*
Y274947D01*
X206674D01*
X208341Y273281D01*
Y269949D01*
X206674Y268282D01*
X201676D01*
X205008D02*
X208341Y264950D01*
X218337D02*
X211673D01*
X218337Y271615D01*
Y273281D01*
X216671Y274947D01*
X213339D01*
X211673Y273281D01*
X226668Y264950D02*
Y274947D01*
X221670Y269949D01*
X228334D01*
X197500Y335000D02*
Y344997D01*
X202498D01*
X204165Y343331D01*
Y339998D01*
X202498Y338332D01*
X197500D01*
X200832D02*
X204165Y335000D01*
X214161D02*
X207497D01*
X214161Y341665D01*
Y343331D01*
X212495Y344997D01*
X209163D01*
X207497Y343331D01*
X224158Y344997D02*
X217494D01*
Y339998D01*
X220826Y341665D01*
X222492D01*
X224158Y339998D01*
Y336666D01*
X222492Y335000D01*
X219160D01*
X217494Y336666D01*
X326644Y264950D02*
Y274947D01*
X331642D01*
X333309Y273281D01*
Y269949D01*
X331642Y268282D01*
X326644D01*
X329976D02*
X333309Y264950D01*
X343305D02*
X336641D01*
X343305Y271615D01*
Y273281D01*
X341639Y274947D01*
X338307D01*
X336641Y273281D01*
X353302Y274947D02*
X349970Y273281D01*
X346638Y269949D01*
Y266616D01*
X348304Y264950D01*
X351636D01*
X353302Y266616D01*
Y268282D01*
X351636Y269949D01*
X346638D01*
X291592Y264950D02*
Y274947D01*
X296590D01*
X298257Y273281D01*
Y269949D01*
X296590Y268282D01*
X291592D01*
X294924D02*
X298257Y264950D01*
X308253D02*
X301589D01*
X308253Y271615D01*
Y273281D01*
X306587Y274947D01*
X303255D01*
X301589Y273281D01*
X311586Y274947D02*
X318250D01*
Y273281D01*
X311586Y266616D01*
Y264950D01*
X282500Y310000D02*
Y319997D01*
X287498D01*
X289165Y318331D01*
Y314998D01*
X287498Y313332D01*
X282500D01*
X285832D02*
X289165Y310000D01*
X299161D02*
X292497D01*
X299161Y316665D01*
Y318331D01*
X297495Y319997D01*
X294163D01*
X292497Y318331D01*
X302494D02*
X304160Y319997D01*
X307492D01*
X309158Y318331D01*
Y316665D01*
X307492Y314998D01*
X309158Y313332D01*
Y311666D01*
X307492Y310000D01*
X304160D01*
X302494Y311666D01*
Y313332D01*
X304160Y314998D01*
X302494Y316665D01*
Y318331D01*
X304160Y314998D02*
X307492D01*
X482500Y260000D02*
X472503D01*
Y264998D01*
X474169Y266665D01*
X477502D01*
X479168Y264998D01*
Y260000D01*
Y263332D02*
X482500Y266665D01*
Y276661D02*
Y269997D01*
X475835Y276661D01*
X474169D01*
X472503Y274995D01*
Y271663D01*
X474169Y269997D01*
X480834Y279993D02*
X482500Y281660D01*
Y284992D01*
X480834Y286658D01*
X474169D01*
X472503Y284992D01*
Y281660D01*
X474169Y279993D01*
X475835D01*
X477502Y281660D01*
Y286658D01*
X481584Y162588D02*
Y172585D01*
X486582D01*
X488249Y170919D01*
Y167586D01*
X486582Y165920D01*
X481584D01*
X484916D02*
X488249Y162588D01*
X491581Y170919D02*
X493247Y172585D01*
X496579D01*
X498245Y170919D01*
Y169253D01*
X496579Y167586D01*
X494913D01*
X496579D01*
X498245Y165920D01*
Y164254D01*
X496579Y162588D01*
X493247D01*
X491581Y164254D01*
X501578Y170919D02*
X503244Y172585D01*
X506576D01*
X508242Y170919D01*
Y164254D01*
X506576Y162588D01*
X503244D01*
X501578Y164254D01*
Y170919D01*
X467500Y260000D02*
X457503D01*
Y264998D01*
X459169Y266665D01*
X462502D01*
X464168Y264998D01*
Y260000D01*
Y263332D02*
X467500Y266665D01*
X459169Y269997D02*
X457503Y271663D01*
Y274995D01*
X459169Y276661D01*
X460835D01*
X462502Y274995D01*
Y273329D01*
Y274995D01*
X464168Y276661D01*
X465834D01*
X467500Y274995D01*
Y271663D01*
X465834Y269997D01*
X467500Y279993D02*
Y283326D01*
Y281660D01*
X457503D01*
X459169Y279993D01*
X424180Y167414D02*
Y177411D01*
X429179D01*
X430845Y175745D01*
Y172412D01*
X429179Y170746D01*
X424180D01*
X427512D02*
X430845Y167414D01*
X434177Y175745D02*
X435843Y177411D01*
X439175D01*
X440841Y175745D01*
Y174079D01*
X439175Y172412D01*
X437509D01*
X439175D01*
X440841Y170746D01*
Y169080D01*
X439175Y167414D01*
X435843D01*
X434177Y169080D01*
X450838Y167414D02*
X444174D01*
X450838Y174079D01*
Y175745D01*
X449172Y177411D01*
X445840D01*
X444174Y175745D01*
X105000Y375000D02*
Y384997D01*
X109998D01*
X111664Y383331D01*
Y379998D01*
X109998Y378332D01*
X105000D01*
X108332D02*
X111664Y375000D01*
X114997Y383331D02*
X116663Y384997D01*
X119995D01*
X121661Y383331D01*
Y381665D01*
X119995Y379998D01*
X118329D01*
X119995D01*
X121661Y378332D01*
Y376666D01*
X119995Y375000D01*
X116663D01*
X114997Y376666D01*
X124994Y383331D02*
X126660Y384997D01*
X129992D01*
X131658Y383331D01*
Y381665D01*
X129992Y379998D01*
X128326D01*
X129992D01*
X131658Y378332D01*
Y376666D01*
X129992Y375000D01*
X126660D01*
X124994Y376666D01*
X137500Y375000D02*
Y384997D01*
X142498D01*
X144164Y383331D01*
Y379998D01*
X142498Y378332D01*
X137500D01*
X140832D02*
X144164Y375000D01*
X147497Y383331D02*
X149163Y384997D01*
X152495D01*
X154161Y383331D01*
Y381665D01*
X152495Y379998D01*
X150829D01*
X152495D01*
X154161Y378332D01*
Y376666D01*
X152495Y375000D01*
X149163D01*
X147497Y376666D01*
X162492Y375000D02*
Y384997D01*
X157494Y379998D01*
X164158D01*
X592500Y260000D02*
X582503D01*
Y264998D01*
X584169Y266665D01*
X587502D01*
X589168Y264998D01*
Y260000D01*
Y263332D02*
X592500Y266665D01*
X584169Y269997D02*
X582503Y271663D01*
Y274995D01*
X584169Y276661D01*
X585835D01*
X587502Y274995D01*
Y273329D01*
Y274995D01*
X589168Y276661D01*
X590834D01*
X592500Y274995D01*
Y271663D01*
X590834Y269997D01*
X582503Y286658D02*
Y279993D01*
X587502D01*
X585835Y283326D01*
Y284992D01*
X587502Y286658D01*
X590834D01*
X592500Y284992D01*
Y281660D01*
X590834Y279993D01*
X594106Y162588D02*
Y172585D01*
X599104D01*
X600771Y170919D01*
Y167586D01*
X599104Y165920D01*
X594106D01*
X597438D02*
X600771Y162588D01*
X604103Y170919D02*
X605769Y172585D01*
X609101D01*
X610767Y170919D01*
Y169253D01*
X609101Y167586D01*
X607435D01*
X609101D01*
X610767Y165920D01*
Y164254D01*
X609101Y162588D01*
X605769D01*
X604103Y164254D01*
X620764Y172585D02*
X617432Y170919D01*
X614100Y167586D01*
Y164254D01*
X615766Y162588D01*
X619098D01*
X620764Y164254D01*
Y165920D01*
X619098Y167586D01*
X614100D01*
X580000Y260000D02*
X570003D01*
Y264998D01*
X571669Y266665D01*
X575002D01*
X576668Y264998D01*
Y260000D01*
Y263332D02*
X580000Y266665D01*
X571669Y269997D02*
X570003Y271663D01*
Y274995D01*
X571669Y276661D01*
X573335D01*
X575002Y274995D01*
Y273329D01*
Y274995D01*
X576668Y276661D01*
X578334D01*
X580000Y274995D01*
Y271663D01*
X578334Y269997D01*
X570003Y279993D02*
Y286658D01*
X571669D01*
X578334Y279993D01*
X580000D01*
X536702Y167414D02*
Y177411D01*
X541701D01*
X543367Y175745D01*
Y172412D01*
X541701Y170746D01*
X536702D01*
X540034D02*
X543367Y167414D01*
X546699Y175745D02*
X548365Y177411D01*
X551697D01*
X553363Y175745D01*
Y174079D01*
X551697Y172412D01*
X550031D01*
X551697D01*
X553363Y170746D01*
Y169080D01*
X551697Y167414D01*
X548365D01*
X546699Y169080D01*
X556696Y175745D02*
X558362Y177411D01*
X561694D01*
X563360Y175745D01*
Y174079D01*
X561694Y172412D01*
X563360Y170746D01*
Y169080D01*
X561694Y167414D01*
X558362D01*
X556696Y169080D01*
Y170746D01*
X558362Y172412D01*
X556696Y174079D01*
Y175745D01*
X558362Y172412D02*
X561694D01*
X217500Y202500D02*
Y212497D01*
X222498D01*
X224165Y210831D01*
Y207498D01*
X222498Y205832D01*
X217500D01*
X220832D02*
X224165Y202500D01*
X227497Y210831D02*
X229163Y212497D01*
X232495D01*
X234161Y210831D01*
Y209165D01*
X232495Y207498D01*
X230829D01*
X232495D01*
X234161Y205832D01*
Y204166D01*
X232495Y202500D01*
X229163D01*
X227497Y204166D01*
X237494D02*
X239160Y202500D01*
X242492D01*
X244158Y204166D01*
Y210831D01*
X242492Y212497D01*
X239160D01*
X237494Y210831D01*
Y209165D01*
X239160Y207498D01*
X244158D01*
X299720Y162425D02*
X306385D01*
X303052D01*
Y152428D01*
X316381D02*
X309717D01*
X316381Y159093D01*
Y160759D01*
X314715Y162425D01*
X311383D01*
X309717Y160759D01*
X299720Y229989D02*
X306385D01*
X303052D01*
Y219992D01*
X314715D02*
Y229989D01*
X309717Y224991D01*
X316381D01*
X1143254Y309999D02*
Y301668D01*
X1144920Y300002D01*
X1148252D01*
X1149919Y301668D01*
Y309999D01*
X1153251Y300002D02*
X1156583D01*
X1154917D01*
Y309999D01*
X1153251Y308333D01*
X39116Y334891D02*
Y326560D01*
X40782Y324894D01*
X44114D01*
X45781Y326560D01*
Y334891D01*
X55777Y324894D02*
X49113D01*
X55777Y331559D01*
Y333225D01*
X54111Y334891D01*
X50779D01*
X49113Y333225D01*
X804164Y212463D02*
Y204132D01*
X805830Y202466D01*
X809163D01*
X810829Y204132D01*
Y212463D01*
X814161Y210797D02*
X815827Y212463D01*
X819159D01*
X820825Y210797D01*
Y209131D01*
X819159Y207465D01*
X817493D01*
X819159D01*
X820825Y205798D01*
Y204132D01*
X819159Y202466D01*
X815827D01*
X814161Y204132D01*
X929132Y212463D02*
Y204132D01*
X930798Y202466D01*
X934130D01*
X935797Y204132D01*
Y212463D01*
X944127Y202466D02*
Y212463D01*
X939129Y207465D01*
X945793D01*
X1105000Y237497D02*
Y229166D01*
X1106666Y227500D01*
X1109998D01*
X1111665Y229166D01*
Y237497D01*
X1121661D02*
X1114997D01*
Y232498D01*
X1118329Y234165D01*
X1119995D01*
X1121661Y232498D01*
Y229166D01*
X1119995Y227500D01*
X1116663D01*
X1114997Y229166D01*
X1022604Y203065D02*
Y194734D01*
X1024270Y193068D01*
X1027602D01*
X1029269Y194734D01*
Y203065D01*
X1039265D02*
X1035933Y201399D01*
X1032601Y198067D01*
Y194734D01*
X1034267Y193068D01*
X1037599D01*
X1039265Y194734D01*
Y196400D01*
X1037599Y198067D01*
X1032601D01*
X212503Y300000D02*
X220834D01*
X222500Y301666D01*
Y304998D01*
X220834Y306665D01*
X212503D01*
Y309997D02*
Y316661D01*
X214169D01*
X220834Y309997D01*
X222500D01*
X182500Y322497D02*
Y314166D01*
X184166Y312500D01*
X187498D01*
X189165Y314166D01*
Y322497D01*
X192497Y320831D02*
X194163Y322497D01*
X197495D01*
X199161Y320831D01*
Y319165D01*
X197495Y317498D01*
X199161Y315832D01*
Y314166D01*
X197495Y312500D01*
X194163D01*
X192497Y314166D01*
Y315832D01*
X194163Y317498D01*
X192497Y319165D01*
Y320831D01*
X194163Y317498D02*
X197495D01*
X155003Y257500D02*
X163334D01*
X165000Y259166D01*
Y262498D01*
X163334Y264165D01*
X155003D01*
X163334Y267497D02*
X165000Y269163D01*
Y272495D01*
X163334Y274161D01*
X156669D01*
X155003Y272495D01*
Y269163D01*
X156669Y267497D01*
X158336D01*
X160002Y269163D01*
Y274161D01*
X320003Y295000D02*
X328334D01*
X330000Y296666D01*
Y299998D01*
X328334Y301665D01*
X320003D01*
X330000Y304997D02*
Y308329D01*
Y306663D01*
X320003D01*
X321669Y304997D01*
Y313327D02*
X320003Y314994D01*
Y318326D01*
X321669Y319992D01*
X328334D01*
X330000Y318326D01*
Y314994D01*
X328334Y313327D01*
X321669D01*
X426720Y227449D02*
Y219118D01*
X428386Y217452D01*
X431718D01*
X433385Y219118D01*
Y227449D01*
X436717Y217452D02*
X440049D01*
X438383D01*
Y227449D01*
X436717Y225783D01*
X445047Y217452D02*
X448380D01*
X446714D01*
Y227449D01*
X445047Y225783D01*
X128016Y325493D02*
Y317162D01*
X129682Y315496D01*
X133014D01*
X134681Y317162D01*
Y325493D01*
X138013Y315496D02*
X141345D01*
X139679D01*
Y325493D01*
X138013Y323827D01*
X153008Y315496D02*
X146343D01*
X153008Y322161D01*
Y323827D01*
X151342Y325493D01*
X148010D01*
X146343Y323827D01*
X537464Y227449D02*
Y219118D01*
X539130Y217452D01*
X542463D01*
X544129Y219118D01*
Y227449D01*
X547461Y217452D02*
X550793D01*
X549127D01*
Y227449D01*
X547461Y225783D01*
X555792D02*
X557458Y227449D01*
X560790D01*
X562456Y225783D01*
Y224117D01*
X560790Y222451D01*
X559124D01*
X560790D01*
X562456Y220784D01*
Y219118D01*
X560790Y217452D01*
X557458D01*
X555792Y219118D01*
X686054Y212463D02*
Y204132D01*
X687720Y202466D01*
X691052D01*
X692719Y204132D01*
Y212463D01*
X696051Y202466D02*
X699383D01*
X697717D01*
Y212463D01*
X696051Y210797D01*
X709380Y202466D02*
Y212463D01*
X704381Y207465D01*
X711046D01*
X217500Y147497D02*
Y139166D01*
X219166Y137500D01*
X222498D01*
X224165Y139166D01*
Y147497D01*
X227497Y137500D02*
X230829D01*
X229163D01*
Y147497D01*
X227497Y145831D01*
X242492Y147497D02*
X235827D01*
Y142498D01*
X239160Y144164D01*
X240826D01*
X242492Y142498D01*
Y139166D01*
X240826Y137500D01*
X237494D01*
X235827Y139166D01*
D50*
X147500Y185500D02*
G03*
X147500Y169500I0J-8000D01*
G01*
Y201500D02*
G03*
X147500Y185500I0J-8000D01*
G01*
Y169500D02*
G03*
X147500Y153500I0J-8000D01*
G01*
X93130Y100000D02*
G03*
X93130Y100000I-10630J0D01*
G01*
X637500Y2500D02*
X637500Y122500D01*
X1102500D01*
Y2500D02*
Y122500D01*
X637500Y2500D02*
X1102500D01*
X635160Y2180D02*
Y122820D01*
X219880D02*
X635160D01*
X219880Y2180D02*
Y122820D01*
Y2180D02*
X635160D01*
X1112500Y357500D02*
Y477500D01*
X197500D02*
X1112500D01*
X197500Y357500D02*
Y477500D01*
Y357500D02*
X1112500D01*
X85000Y115000D02*
X210000D01*
X85000D02*
Y240000D01*
X210000D01*
Y115000D02*
Y240000D01*
X147500Y208000D02*
X147500Y201500D01*
X147500Y153500D02*
X147500Y147000D01*
X520000Y132500D02*
Y202500D01*
X470000Y132500D02*
X520000D01*
X470000D02*
Y202500D01*
X520000D01*
X632500Y132500D02*
Y202500D01*
X582500Y132500D02*
X632500D01*
X582500D02*
Y202500D01*
X632500D01*
X93250Y100000D02*
X97750D01*
X140000Y52500D02*
Y72500D01*
X170000D01*
X107500Y62500D02*
X202500D01*
X170000Y52500D02*
Y72500D01*
X140000Y52500D02*
X170000D01*
X639632Y161264D02*
Y176499D01*
X647250D01*
X649789Y173960D01*
Y168882D01*
X647250Y166343D01*
X639632D01*
X662485Y161264D02*
Y176499D01*
X654867Y168882D01*
X665024D01*
D51*
X82500Y240000D02*
G03*
X82500Y240000I-40000J0D01*
G01*
Y157500D02*
G03*
X82500Y157500I-40000J0D01*
G01*
X1076150Y127300D02*
X1095200D01*
Y152700D01*
X638000D02*
X1095200D01*
X638000Y127300D02*
Y152700D01*
Y127300D02*
X1076150D01*
X1137000Y271500D02*
Y338500D01*
X1163000Y271500D02*
Y338500D01*
X1137000D02*
X1163000D01*
X1137000Y271500D02*
X1163000D01*
X60500Y296500D02*
Y363500D01*
X34500Y296500D02*
Y363500D01*
Y296500D02*
X60500D01*
X34500Y363500D02*
X60500D01*
X789500Y155500D02*
Y259500D01*
X835500Y155500D02*
Y259500D01*
X789500D02*
X835500D01*
X789500Y155500D02*
X835500D01*
X914500D02*
Y259500D01*
X960500Y155500D02*
Y259500D01*
X914500D02*
X960500D01*
X914500Y155500D02*
X960500D01*
X1052950Y206000D02*
X1055950Y203000D01*
X1050950Y206000D02*
X1055950Y201000D01*
X1048950Y206000D02*
X1055950Y199000D01*
X1005950Y190000D02*
Y206000D01*
X1055950Y190000D02*
Y206000D01*
X1005950Y190000D02*
X1055950D01*
X1005950Y206000D02*
X1055950D01*
X115550Y315500D02*
X118550Y312500D01*
X115550Y317500D02*
X120550Y312500D01*
X115550Y319500D02*
X122550Y312500D01*
X165550D02*
Y328500D01*
X115550Y312500D02*
Y328500D01*
X165550D01*
X115550Y312500D02*
X165550D01*
X675500Y155500D02*
Y259500D01*
X721500Y155500D02*
X721500Y259500D01*
X675500D02*
X721500D01*
X675500Y155500D02*
X721500D01*
X225000Y321500D02*
X245000D01*
X225000Y293500D02*
X245000D01*
X225000D02*
Y321500D01*
X245000Y293500D02*
Y321500D01*
X169000Y253000D02*
Y282000D01*
X181000Y253000D02*
Y282000D01*
X169000D02*
X181000D01*
X169000Y253000D02*
X181000D01*
X178000D02*
X181000Y256000D01*
X175500Y253000D02*
X181000Y258500D01*
X315000Y321500D02*
X335000D01*
X315000Y293500D02*
X335000D01*
X315000D02*
Y321500D01*
X335000Y293500D02*
Y321500D01*
X435500Y293000D02*
X441000Y298500D01*
X438000Y293000D02*
X441000Y296000D01*
X429000Y293000D02*
X441000D01*
X429000Y322000D02*
X441000D01*
Y293000D02*
Y322000D01*
X429000Y293000D02*
Y322000D01*
X215500Y163500D02*
X244500D01*
X215500Y151500D02*
X244500D01*
Y163500D01*
X215500Y151500D02*
Y163500D01*
Y154500D02*
X218500Y151500D01*
X215500Y157000D02*
X221000Y151500D01*
X447660Y130970D02*
Y158970D01*
X446390Y130970D02*
X446390Y158970D01*
X445120Y130970D02*
Y158970D01*
X443850Y130970D02*
Y158970D01*
X426070Y131000D02*
X448930D01*
X426070Y159000D02*
X448930D01*
Y131000D02*
Y159000D01*
X426070Y131000D02*
Y159000D01*
X560160Y130970D02*
Y158970D01*
X558890Y130970D02*
X558890Y158970D01*
X557620Y130970D02*
Y158970D01*
X556350Y130970D02*
Y158970D01*
X538570Y131000D02*
X561430D01*
X538570Y159000D02*
X561430D01*
Y131000D02*
Y159000D01*
X538570Y131000D02*
Y159000D01*
X510500Y293000D02*
X516000Y298500D01*
X513000Y293000D02*
X516000Y296000D01*
X504000Y293000D02*
X516000D01*
X504000Y322000D02*
X516000D01*
Y293000D02*
Y322000D01*
X504000Y293000D02*
Y322000D01*
X660500Y293000D02*
X666000Y298500D01*
X663000Y293000D02*
X666000Y296000D01*
X654000Y293000D02*
X666000D01*
X654000Y322000D02*
X666000D01*
Y293000D02*
Y322000D01*
X654000Y293000D02*
Y322000D01*
X810500Y293000D02*
X816000Y298500D01*
X813000Y293000D02*
X816000Y296000D01*
X804000Y293000D02*
X816000D01*
X804000Y322000D02*
X816000D01*
Y293000D02*
Y322000D01*
X804000Y293000D02*
Y322000D01*
X960500Y293000D02*
X966000Y298500D01*
X963000Y293000D02*
X966000Y296000D01*
X954000Y293000D02*
X966000D01*
X954000Y322000D02*
X966000D01*
Y293000D02*
Y322000D01*
X954000Y293000D02*
Y322000D01*
X1070500Y236000D02*
X1099500D01*
X1070500Y224000D02*
X1099500D01*
Y236000D01*
X1070500Y224000D02*
Y236000D01*
Y227000D02*
X1073500Y224000D01*
X1070500Y229500D02*
X1076000Y224000D01*
D52*
X697500Y262500D02*
Y272500D01*
X677500Y262500D02*
Y272500D01*
Y262500D02*
X697500D01*
X677500Y272500D02*
X697500D01*
Y262500D02*
Y272500D01*
X717500Y262500D02*
Y272500D01*
X697500D02*
X717500D01*
X697500Y262500D02*
X717500D01*
X265625Y340000D02*
Y355000D01*
X266875Y340000D02*
Y355000D01*
X266250Y340000D02*
Y355000D01*
X232500D02*
X232500Y340000D01*
X267500D02*
Y355000D01*
X232500D02*
X267500D01*
X232500Y340000D02*
X267500D01*
X340625D02*
Y355000D01*
X341875Y340000D02*
Y355000D01*
X341250D02*
X341250Y340000D01*
X307500Y355000D02*
X307500Y340000D01*
X342500D02*
Y355000D01*
X307500D02*
X342500D01*
X307500Y340000D02*
X342500D01*
X415625D02*
Y355000D01*
X416875Y340000D02*
Y355000D01*
X416250Y340000D02*
Y355000D01*
X382500Y340000D02*
X382500Y355000D01*
X417500Y340000D02*
Y355000D01*
X382500D02*
X417500D01*
X382500Y340000D02*
X417500D01*
X490625D02*
Y355000D01*
X491875Y340000D02*
Y355000D01*
X491250Y340000D02*
Y355000D01*
X457500Y340000D02*
Y355000D01*
X492500Y340000D02*
Y355000D01*
X457500D02*
X492500D01*
X457500Y340000D02*
X492500D01*
X565625D02*
Y355000D01*
X566875Y340000D02*
Y355000D01*
X566250Y340000D02*
Y355000D01*
X532500Y340000D02*
Y355000D01*
X567500Y340000D02*
Y355000D01*
X532500D02*
X567500D01*
X532500Y340000D02*
X567500D01*
X640625D02*
Y355000D01*
X641875Y340000D02*
Y355000D01*
X641250Y340000D02*
Y355000D01*
X607500Y340000D02*
Y355000D01*
X642500Y340000D02*
Y355000D01*
X607500D02*
X642500D01*
X607500Y340000D02*
X642500D01*
X715625D02*
Y355000D01*
X716875Y340000D02*
Y355000D01*
X716250Y340000D02*
Y355000D01*
X682500Y340000D02*
Y355000D01*
X717500Y340000D02*
Y355000D01*
X682500D02*
X717500D01*
X682500Y340000D02*
X717500D01*
X790625D02*
Y355000D01*
X791875Y340000D02*
Y355000D01*
X791250Y340000D02*
Y355000D01*
X757500Y340000D02*
Y355000D01*
X792500Y340000D02*
Y355000D01*
X757500D02*
X792500D01*
X757500Y340000D02*
X792500D01*
X865625D02*
Y355000D01*
X866875Y340000D02*
Y355000D01*
X866250Y340000D02*
Y355000D01*
X832500Y340000D02*
Y355000D01*
X867500Y340000D02*
Y355000D01*
X832500D02*
X867500D01*
X832500Y340000D02*
X867500D01*
X940625D02*
Y355000D01*
X941875Y340000D02*
Y355000D01*
X941250Y340000D02*
Y355000D01*
X907500Y340000D02*
Y355000D01*
X942500Y340000D02*
Y355000D01*
X907500D02*
X942500D01*
X907500Y340000D02*
X942500D01*
X302500Y335000D02*
Y355000D01*
X267500D02*
X302500D01*
X267500Y335000D02*
X302500D01*
X267500D02*
Y355000D01*
X377500Y335000D02*
Y355000D01*
X342500D02*
X377500D01*
X342500Y335000D02*
X377500D01*
X342500D02*
Y355000D01*
X452500Y335000D02*
Y355000D01*
X417500D02*
X452500D01*
X417500Y335000D02*
X452500D01*
X417500D02*
Y355000D01*
X527500Y335000D02*
Y355000D01*
X492500D02*
X527500D01*
X492500Y335000D02*
X527500D01*
X492500D02*
Y355000D01*
X602500Y335000D02*
Y355000D01*
X567500D02*
X602500D01*
X567500Y335000D02*
X602500D01*
X567500D02*
Y355000D01*
X677500Y335000D02*
Y355000D01*
X642500D02*
X677500D01*
X642500Y335000D02*
X677500D01*
X642500D02*
Y355000D01*
X752500Y335000D02*
Y355000D01*
X717500D02*
X752500D01*
X717500Y335000D02*
X752500D01*
X717500D02*
Y355000D01*
X827500Y335000D02*
Y355000D01*
X792500D02*
X827500D01*
X792500Y335000D02*
X827500D01*
X792500D02*
Y355000D01*
X902500Y335000D02*
Y355000D01*
X867500D02*
X902500D01*
X867500Y335000D02*
X902500D01*
X867500D02*
Y355000D01*
X977500Y335000D02*
Y355000D01*
X942500D02*
X977500D01*
X942500Y335000D02*
X977500D01*
X942500D02*
Y355000D01*
X267500Y260000D02*
Y280000D01*
X232500D02*
X267500D01*
X232500Y260000D02*
X267500D01*
X232500D02*
Y280000D01*
X232500Y260000D02*
Y280000D01*
X197500D02*
X232500D01*
X197500Y260000D02*
X232500D01*
X197500D02*
Y280000D01*
X357500Y260000D02*
Y280000D01*
X322500D02*
X357500D01*
X322500Y260000D02*
X357500D01*
X322500D02*
Y280000D01*
X287500Y260000D02*
Y280000D01*
Y260000D02*
X322500D01*
X287500Y280000D02*
X322500D01*
Y260000D02*
Y280000D01*
X420000Y162500D02*
Y182500D01*
Y162500D02*
X455000D01*
X420000Y182500D02*
X455000D01*
Y162500D02*
Y182500D01*
X532500Y162500D02*
Y182500D01*
Y162500D02*
X567500D01*
X532500Y182500D02*
X567500D01*
Y162500D02*
Y182500D01*
X247000Y190500D02*
X369000D01*
Y124500D02*
Y190500D01*
X247000Y124500D02*
X369000D01*
X247000D02*
Y190500D01*
Y258000D02*
X369000D01*
Y192000D02*
Y258000D01*
X247000Y192000D02*
X369000D01*
X247000D02*
Y258000D01*
X92500Y355000D02*
X102500D01*
X92500Y335000D02*
X102500D01*
Y355000D01*
X92500Y335000D02*
Y355000D01*
Y310000D02*
X102500D01*
X92500Y330000D02*
X102500D01*
X92500Y310000D02*
Y330000D01*
X102500Y310000D02*
Y330000D01*
Y310000D02*
X112500D01*
X102500Y330000D02*
X112500D01*
X102500Y310000D02*
Y330000D01*
X112500Y310000D02*
Y330000D01*
X137500Y362500D02*
Y372500D01*
X117500Y362500D02*
Y372500D01*
Y362500D02*
X137500D01*
X117500Y372500D02*
X137500D01*
Y362500D02*
Y372500D01*
X157500Y362500D02*
Y372500D01*
X137500D02*
X157500D01*
X137500Y362500D02*
X157500Y362500D01*
X177500Y362500D02*
Y372500D01*
X157500Y362500D02*
Y372500D01*
Y362500D02*
X177500D01*
X157500Y372500D02*
X177500D01*
X167500Y362500D02*
X177500D01*
X167500Y342500D02*
X177500Y342500D01*
Y362500D01*
X167500Y342500D02*
Y362500D01*
X167500Y312500D02*
X177500D01*
X167500Y292500D02*
X177500D01*
Y312500D01*
X167500Y292500D02*
Y312500D01*
X179000Y299500D02*
X183000Y295500D01*
X179000Y298250D02*
X181750Y295500D01*
X179000Y297000D02*
X180500Y295500D01*
X179001D02*
X201000D01*
Y309500D01*
X179001D02*
X201000D01*
X179001Y295500D02*
Y309500D01*
X205000Y322500D02*
Y332500D01*
X225000Y322500D02*
Y332500D01*
X205000D02*
X225000D01*
X205000Y322500D02*
X225000D01*
X142500Y247500D02*
X152500D01*
X142500Y267500D02*
X152500D01*
X142500Y247500D02*
Y267500D01*
X152500Y247500D02*
Y267500D01*
X240000Y280000D02*
Y290000D01*
X260000Y280000D02*
Y290000D01*
X240000D02*
X260000D01*
X240000Y280000D02*
X260000D01*
X267500Y267500D02*
X282500D01*
Y297500D01*
X267500D02*
X282500D01*
X267500Y267500D02*
Y297500D01*
Y296500D02*
X282500D01*
X267500Y295500D02*
X282500D01*
X267500Y294500D02*
X282500D01*
X267500Y297500D02*
X277500D01*
X267500Y317500D02*
X277500D01*
X267500Y297500D02*
Y317500D01*
X277500Y297500D02*
Y317500D01*
X295000Y322500D02*
Y332500D01*
X315000Y322500D02*
Y332500D01*
X295000D02*
X315000D01*
X295000Y322500D02*
X315000D01*
X330000Y280000D02*
Y290000D01*
X350000Y280000D02*
Y290000D01*
X330000D02*
X350000D01*
X330000Y280000D02*
X350000D01*
X357500Y267500D02*
X372500D01*
Y297500D01*
X357500D02*
X372500D01*
X357500Y267500D02*
Y297500D01*
Y296500D02*
X372500D01*
X357500Y295500D02*
X372500D01*
X357500Y294500D02*
X372500D01*
X357500Y297500D02*
X367500D01*
X357500Y317500D02*
X367500D01*
X357500Y297500D02*
Y317500D01*
X367500Y297500D02*
Y317500D01*
X407500Y312500D02*
X417500D01*
X407500Y292500D02*
X417500D01*
Y312500D01*
X407500Y292500D02*
Y312500D01*
X417500D01*
X407500Y332500D02*
X417500D01*
X407500Y312500D02*
Y332500D01*
X417500Y312500D02*
Y332500D01*
X222500Y190000D02*
Y200000D01*
X242500Y190000D02*
Y200000D01*
X222500D02*
X242500D01*
X222500Y190000D02*
X242500D01*
Y180000D02*
Y190000D01*
X222500Y180000D02*
Y190000D01*
Y180000D02*
X242500D01*
X222500Y190000D02*
X242500D01*
X460000Y237500D02*
X470000D01*
X460000Y257500D02*
X470000D01*
X460000Y237500D02*
Y257500D01*
X470000Y237500D02*
Y257500D01*
X480000D01*
X470000Y237500D02*
X480000D01*
Y257500D01*
X470000Y237500D02*
Y257500D01*
X572500Y237500D02*
X582500D01*
X572500Y257500D02*
X582500D01*
X572500Y237500D02*
Y257500D01*
X582500Y237500D02*
Y257500D01*
X582500D02*
X592500D01*
X582500Y237500D02*
X592500D01*
Y257500D01*
X582500Y237500D02*
Y257500D01*
X482500Y312500D02*
X492500D01*
X482500Y292500D02*
X492500D01*
Y312500D01*
X482500Y292500D02*
Y312500D01*
X505000Y325000D02*
Y335000D01*
X525000Y325000D02*
Y335000D01*
X505000D02*
X525000D01*
X505000Y325000D02*
X525000D01*
X632500Y312500D02*
X642500D01*
X632500Y292500D02*
X642500D01*
Y312500D01*
X632500Y292500D02*
Y312500D01*
X655000Y325000D02*
Y335000D01*
X675000Y325000D02*
Y335000D01*
X655000D02*
X675000D01*
X655000Y325000D02*
X675000D01*
X792500Y262500D02*
Y272500D01*
X812500Y262500D02*
Y272500D01*
X792500D02*
X812500D01*
X792500Y262500D02*
X812500D01*
Y272500D01*
X832500Y262500D02*
Y272500D01*
X812500D02*
X832500D01*
X812500Y262500D02*
X832500D01*
X782500Y312500D02*
X792500D01*
X782500Y292500D02*
X792500D01*
Y312500D01*
X782500Y292500D02*
Y312500D01*
X805000Y325000D02*
Y335000D01*
X825000Y325000D02*
Y335000D01*
X805000D02*
X825000D01*
X805000Y325000D02*
X825000D01*
X932500Y312500D02*
X942500D01*
X932500Y292500D02*
X942500D01*
Y312500D01*
X932500Y292500D02*
Y312500D01*
X955000Y325000D02*
Y335000D01*
X975000Y325000D02*
Y335000D01*
X955000D02*
X975000D01*
X955000Y325000D02*
X975000D01*
X917500Y262500D02*
Y272500D01*
X937500Y262500D02*
Y272500D01*
X917500D02*
X937500D01*
X917500Y262500D02*
X937500D01*
Y272500D01*
X957500Y262500D02*
Y272500D01*
X937500D02*
X957500D01*
X937500Y262500D02*
X957500D01*
X1000000Y285625D02*
X1015000D01*
X1000000Y286875D02*
X1015000D01*
X1000000Y286250D02*
X1015000D01*
X1000000Y252500D02*
X1015000D01*
X1000000Y287500D02*
X1015000D01*
X1000000Y252500D02*
Y287500D01*
X1015000Y252500D02*
Y287500D01*
Y252500D02*
X1035000D01*
Y287500D01*
X1015000Y252500D02*
Y287500D01*
X1035000D01*
X1035000Y254375D02*
X1050000D01*
X1035000Y253125D02*
X1050000D01*
X1035000Y253750D02*
X1050000D01*
X1035000Y287500D02*
X1050000D01*
X1035000Y252500D02*
X1050000D01*
Y287500D01*
X1035000Y252500D02*
Y287500D01*
X1050000D02*
X1070000D01*
X1050000Y252500D02*
Y287500D01*
X1070000Y252500D02*
Y287500D01*
X1050000Y252500D02*
X1070000D01*
Y262500D01*
X1090000Y252500D02*
Y262500D01*
X1070000D02*
X1090000D01*
X1070000Y252500D02*
X1090000D01*
X1030000Y240000D02*
Y250000D01*
X1010000Y240000D02*
Y250000D01*
Y240000D02*
X1030000D01*
X1010000Y250000D02*
X1030000D01*
X1095000Y282500D02*
X1105000D01*
X1095000Y302500D02*
X1105000D01*
X1095000Y282500D02*
Y302500D01*
X1105000Y282500D02*
Y302500D01*
X1095000Y327500D02*
X1105000D01*
X1095000Y307500D02*
X1105000D01*
Y327500D01*
X1095000Y307500D02*
Y327500D01*
X1070000Y197500D02*
Y207500D01*
X1090000Y197500D02*
Y207500D01*
X1070000D02*
X1090000D01*
X1070000Y197500D02*
X1090000D01*
X1060000Y187500D02*
X1070000D01*
X1060000Y207500D02*
X1070000D01*
X1060000Y187500D02*
Y207500D01*
X1070000Y187500D02*
Y207500D01*
D53*
X65250Y224003D02*
X55253D01*
X60252Y219004D02*
Y229001D01*
X65250Y141503D02*
X55253D01*
X60252Y136504D02*
Y146501D01*
M02*
