%FSLAX44Y44*%
%MOMM*%
G71*
G01*
G75*
G04 Layer_Color=32896*
%ADD10C,0.3000*%
%ADD11C,0.5000*%
%ADD12O,2.1500X0.6000*%
%ADD13R,3.0000X1.6000*%
%ADD14R,6.2000X5.8000*%
%ADD15O,0.7000X2.5000*%
%ADD16R,2.7000X1.0000*%
%ADD17R,2.7000X3.3000*%
%ADD18R,0.6300X0.8300*%
%ADD19R,1.0000X1.5000*%
G04:AMPARAMS|DCode=20|XSize=0.6mm|YSize=1.3mm|CornerRadius=0.15mm|HoleSize=0mm|Usage=FLASHONLY|Rotation=180.000|XOffset=0mm|YOffset=0mm|HoleType=Round|Shape=RoundedRectangle|*
%AMROUNDEDRECTD20*
21,1,0.6000,1.0000,0,0,180.0*
21,1,0.3000,1.3000,0,0,180.0*
1,1,0.3000,-0.1500,0.5000*
1,1,0.3000,0.1500,0.5000*
1,1,0.3000,0.1500,-0.5000*
1,1,0.3000,-0.1500,-0.5000*
%
%ADD20ROUNDEDRECTD20*%
%ADD21R,5.5000X3.2000*%
%ADD22R,0.6000X0.6000*%
%ADD23R,0.6000X0.6000*%
%ADD24R,0.9000X0.6000*%
%ADD25R,0.8300X0.6300*%
%ADD26R,1.0000X0.8000*%
%ADD27R,1.5000X2.1000*%
%ADD28R,3.0000X3.7500*%
%ADD29R,1.5000X1.0000*%
%ADD30R,0.6000X1.1000*%
%ADD31O,1.7000X0.3000*%
%ADD32R,0.4500X0.6000*%
%ADD33R,1.1000X0.6000*%
%ADD34C,1.8000*%
%ADD35C,1.5000*%
%ADD36C,2.0000*%
%ADD37C,0.7500*%
%ADD38C,1.0000*%
%ADD39C,0.2600*%
%ADD40C,0.2500*%
%ADD41C,2.5000*%
%ADD42C,1.5000*%
%ADD43R,1.5000X1.5000*%
%ADD44C,6.0000*%
%ADD45C,1.6000*%
%ADD46C,0.7000*%
%ADD47R,0.8000X1.0000*%
%ADD48C,0.7000*%
%ADD49C,0.1700*%
%ADD50C,0.2000*%
%ADD51C,0.2540*%
%ADD52C,0.1000*%
%ADD53C,0.1500*%
%ADD54O,2.3532X0.8032*%
%ADD55R,3.2032X1.8032*%
%ADD56R,6.4032X6.0032*%
%ADD57O,0.9032X2.7032*%
%ADD58R,2.9032X1.2032*%
%ADD59R,2.9032X3.5032*%
%ADD60R,0.8332X1.0332*%
%ADD61R,1.2032X1.7032*%
G04:AMPARAMS|DCode=62|XSize=0.8032mm|YSize=1.5032mm|CornerRadius=0.2516mm|HoleSize=0mm|Usage=FLASHONLY|Rotation=180.000|XOffset=0mm|YOffset=0mm|HoleType=Round|Shape=RoundedRectangle|*
%AMROUNDEDRECTD62*
21,1,0.8032,1.0000,0,0,180.0*
21,1,0.3000,1.5032,0,0,180.0*
1,1,0.5032,-0.1500,0.5000*
1,1,0.5032,0.1500,0.5000*
1,1,0.5032,0.1500,-0.5000*
1,1,0.5032,-0.1500,-0.5000*
%
%ADD62ROUNDEDRECTD62*%
%ADD63R,5.7032X3.4032*%
%ADD64R,0.8032X0.8032*%
%ADD65R,0.8032X0.8032*%
%ADD66R,1.1032X0.8032*%
%ADD67R,1.0332X0.8332*%
%ADD68R,1.2032X1.0032*%
%ADD69R,1.7032X2.3032*%
%ADD70R,3.2032X3.9532*%
%ADD71R,1.7032X1.2032*%
%ADD72R,0.8032X1.3032*%
%ADD73O,1.9032X0.5032*%
%ADD74R,0.6532X0.8032*%
%ADD75R,1.3032X0.8032*%
%ADD76C,2.7032*%
%ADD77C,1.7032*%
%ADD78R,1.7032X1.7032*%
%ADD79C,6.2032*%
%ADD80C,1.8032*%
%ADD81R,1.0032X1.2032*%
D49*
X388000Y166247D02*
X381335D01*
X384668D01*
Y156250D01*
X378003D02*
X374671D01*
X376337D01*
Y166247D01*
X378003Y164581D01*
X388000Y253497D02*
X381335D01*
X384668D01*
Y243500D01*
X378003Y251831D02*
X376337Y253497D01*
X373005D01*
X371339Y251831D01*
Y250165D01*
X373005Y248498D01*
X374671D01*
X373005D01*
X371339Y246832D01*
Y245166D01*
X373005Y243500D01*
X376337D01*
X378003Y245166D01*
X752500Y182500D02*
X762497D01*
Y187498D01*
X760831Y189165D01*
X757498D01*
X755832Y187498D01*
Y182500D01*
Y185832D02*
X752500Y189165D01*
Y197495D02*
X762497D01*
X757498Y192497D01*
Y199161D01*
X760831Y202493D02*
X762497Y204160D01*
Y207492D01*
X760831Y209158D01*
X759165D01*
X757498Y207492D01*
Y205826D01*
Y207492D01*
X755832Y209158D01*
X754166D01*
X752500Y207492D01*
Y204160D01*
X754166Y202493D01*
X748331Y189165D02*
X749997Y187498D01*
Y184166D01*
X748331Y182500D01*
X741666D01*
X740000Y184166D01*
Y187498D01*
X741666Y189165D01*
X740000Y197495D02*
X749997D01*
X744998Y192497D01*
Y199161D01*
X748331Y202493D02*
X749997Y204160D01*
Y207492D01*
X748331Y209158D01*
X741666D01*
X740000Y207492D01*
Y204160D01*
X741666Y202493D01*
X748331D01*
X727500Y182500D02*
X737497D01*
Y187498D01*
X735831Y189165D01*
X732498D01*
X730832Y187498D01*
Y182500D01*
Y185832D02*
X727500Y189165D01*
Y197495D02*
X737497D01*
X732498Y192497D01*
Y199161D01*
X735831Y202493D02*
X737497Y204160D01*
Y207492D01*
X735831Y209158D01*
X729166D01*
X727500Y207492D01*
Y204160D01*
X729166Y202493D01*
X735831D01*
X723331Y189165D02*
X724997Y187498D01*
Y184166D01*
X723331Y182500D01*
X716666D01*
X715000Y184166D01*
Y187498D01*
X716666Y189165D01*
X723331Y192497D02*
X724997Y194163D01*
Y197495D01*
X723331Y199161D01*
X721665D01*
X719998Y197495D01*
Y195829D01*
Y197495D01*
X718332Y199161D01*
X716666D01*
X715000Y197495D01*
Y194163D01*
X716666Y192497D01*
X724997Y202493D02*
Y209158D01*
X723331D01*
X716666Y202493D01*
X715000D01*
X702500Y182500D02*
X712497D01*
Y187498D01*
X710831Y189165D01*
X707498D01*
X705832Y187498D01*
Y182500D01*
Y185832D02*
X702500Y189165D01*
Y197495D02*
X712497D01*
X707498Y192497D01*
Y199161D01*
X702500Y202493D02*
Y205826D01*
Y204160D01*
X712497D01*
X710831Y202493D01*
X698331Y189165D02*
X699997Y187498D01*
Y184166D01*
X698331Y182500D01*
X691666D01*
X690000Y184166D01*
Y187498D01*
X691666Y189165D01*
X698331Y192497D02*
X699997Y194163D01*
Y197495D01*
X698331Y199161D01*
X696665D01*
X694998Y197495D01*
Y195829D01*
Y197495D01*
X693332Y199161D01*
X691666D01*
X690000Y197495D01*
Y194163D01*
X691666Y192497D01*
X698331Y202493D02*
X699997Y204160D01*
Y207492D01*
X698331Y209158D01*
X696665D01*
X694998Y207492D01*
X693332Y209158D01*
X691666D01*
X690000Y207492D01*
Y204160D01*
X691666Y202493D01*
X693332D01*
X694998Y204160D01*
X696665Y202493D01*
X698331D01*
X694998Y204160D02*
Y207492D01*
X677500Y182500D02*
X687497D01*
Y187498D01*
X685831Y189165D01*
X682498D01*
X680832Y187498D01*
Y182500D01*
Y185832D02*
X677500Y189165D01*
Y197495D02*
X687497D01*
X682498Y192497D01*
Y199161D01*
X677500Y209158D02*
Y202493D01*
X684165Y209158D01*
X685831D01*
X687497Y207492D01*
Y204160D01*
X685831Y202493D01*
X673331Y189165D02*
X674997Y187498D01*
Y184166D01*
X673331Y182500D01*
X666666D01*
X665000Y184166D01*
Y187498D01*
X666666Y189165D01*
X673331Y192497D02*
X674997Y194163D01*
Y197495D01*
X673331Y199161D01*
X671665D01*
X669998Y197495D01*
Y195829D01*
Y197495D01*
X668332Y199161D01*
X666666D01*
X665000Y197495D01*
Y194163D01*
X666666Y192497D01*
Y202493D02*
X665000Y204160D01*
Y207492D01*
X666666Y209158D01*
X673331D01*
X674997Y207492D01*
Y204160D01*
X673331Y202493D01*
X671665D01*
X669998Y204160D01*
Y209158D01*
X950835Y333331D02*
X952502Y334997D01*
X955834D01*
X957500Y333331D01*
Y326666D01*
X955834Y325000D01*
X952502D01*
X950835Y326666D01*
X947503Y325000D02*
X944171D01*
X945837D01*
Y334997D01*
X947503Y333331D01*
X939173Y326666D02*
X937506Y325000D01*
X934174D01*
X932508Y326666D01*
Y333331D01*
X934174Y334997D01*
X937506D01*
X939173Y333331D01*
Y331665D01*
X937506Y329998D01*
X932508D01*
X875835Y333331D02*
X877502Y334997D01*
X880834D01*
X882500Y333331D01*
Y326666D01*
X880834Y325000D01*
X877502D01*
X875835Y326666D01*
X865839Y325000D02*
X872503D01*
X865839Y331665D01*
Y333331D01*
X867505Y334997D01*
X870837D01*
X872503Y333331D01*
X862506D02*
X860840Y334997D01*
X857508D01*
X855842Y333331D01*
Y326666D01*
X857508Y325000D01*
X860840D01*
X862506Y326666D01*
Y333331D01*
X800835D02*
X802502Y334997D01*
X805834D01*
X807500Y333331D01*
Y326666D01*
X805834Y325000D01*
X802502D01*
X800835Y326666D01*
X797503Y325000D02*
X794171D01*
X795837D01*
Y334997D01*
X797503Y333331D01*
X782508Y334997D02*
X789173D01*
Y329998D01*
X785840Y331665D01*
X784174D01*
X782508Y329998D01*
Y326666D01*
X784174Y325000D01*
X787506D01*
X789173Y326666D01*
X725835Y333331D02*
X727502Y334997D01*
X730834D01*
X732500Y333331D01*
Y326666D01*
X730834Y325000D01*
X727502D01*
X725835Y326666D01*
X722503Y325000D02*
X719171D01*
X720837D01*
Y334997D01*
X722503Y333331D01*
X707508Y334997D02*
X710840Y333331D01*
X714173Y329998D01*
Y326666D01*
X712506Y325000D01*
X709174D01*
X707508Y326666D01*
Y328332D01*
X709174Y329998D01*
X714173D01*
X650835Y333331D02*
X652502Y334997D01*
X655834D01*
X657500Y333331D01*
Y326666D01*
X655834Y325000D01*
X652502D01*
X650835Y326666D01*
X647503Y325000D02*
X644171D01*
X645837D01*
Y334997D01*
X647503Y333331D01*
X639173Y334997D02*
X632508D01*
Y333331D01*
X639173Y326666D01*
Y325000D01*
X575835Y333331D02*
X577502Y334997D01*
X580834D01*
X582500Y333331D01*
Y326666D01*
X580834Y325000D01*
X577502D01*
X575835Y326666D01*
X572503Y325000D02*
X569171D01*
X570837D01*
Y334997D01*
X572503Y333331D01*
X564173D02*
X562506Y334997D01*
X559174D01*
X557508Y333331D01*
Y331665D01*
X559174Y329998D01*
X557508Y328332D01*
Y326666D01*
X559174Y325000D01*
X562506D01*
X564173Y326666D01*
Y328332D01*
X562506Y329998D01*
X564173Y331665D01*
Y333331D01*
X562506Y329998D02*
X559174D01*
X500835Y333331D02*
X502502Y334997D01*
X505834D01*
X507500Y333331D01*
Y326666D01*
X505834Y325000D01*
X502502D01*
X500835Y326666D01*
X497503D02*
X495837Y325000D01*
X492505D01*
X490839Y326666D01*
Y333331D01*
X492505Y334997D01*
X495837D01*
X497503Y333331D01*
Y331665D01*
X495837Y329998D01*
X490839D01*
X425835Y333331D02*
X427502Y334997D01*
X430834D01*
X432500Y333331D01*
Y326666D01*
X430834Y325000D01*
X427502D01*
X425835Y326666D01*
X422503Y325000D02*
X419171D01*
X420837D01*
Y334997D01*
X422503Y333331D01*
X414173D02*
X412506Y334997D01*
X409174D01*
X407508Y333331D01*
Y326666D01*
X409174Y325000D01*
X412506D01*
X414173Y326666D01*
Y333331D01*
X350835D02*
X352502Y334997D01*
X355834D01*
X357500Y333331D01*
Y326666D01*
X355834Y325000D01*
X352502D01*
X350835Y326666D01*
X347503Y325000D02*
X344171D01*
X345837D01*
Y334997D01*
X347503Y333331D01*
X339173Y325000D02*
X335840D01*
X337506D01*
Y334997D01*
X339173Y333331D01*
X275835D02*
X277502Y334997D01*
X280834D01*
X282500Y333331D01*
Y326666D01*
X280834Y325000D01*
X277502D01*
X275835Y326666D01*
X272503Y325000D02*
X269171D01*
X270837D01*
Y334997D01*
X272503Y333331D01*
X257508Y325000D02*
X264173D01*
X257508Y331665D01*
Y333331D01*
X259174Y334997D01*
X262506D01*
X264173Y333331D01*
D52*
X246000Y190500D02*
X368000D01*
X246000Y124500D02*
Y190500D01*
Y124500D02*
X368000D01*
Y190500D01*
X246000Y260500D02*
X368000D01*
X246000Y194500D02*
Y260500D01*
Y194500D02*
X368000D01*
Y260500D01*
X752500Y170000D02*
X762500D01*
X752500Y150000D02*
X762500D01*
X752500D02*
Y170000D01*
X762500Y150000D02*
Y170000D01*
X752500Y150000D02*
Y180000D01*
X737500Y180000D02*
X752500Y180000D01*
X737500Y150000D02*
X752500D01*
X737500D02*
Y180000D01*
X727500Y170000D02*
X737500D01*
X727500Y150000D02*
X737500D01*
X727500D02*
Y170000D01*
X737500Y150000D02*
Y170000D01*
X727500Y150000D02*
Y180000D01*
X712500D02*
X727500D01*
X712500Y150000D02*
X727500Y150000D01*
X712500Y150000D02*
Y180000D01*
X702500Y170000D02*
X712500D01*
X702500Y150000D02*
X712500D01*
X702500D02*
Y170000D01*
X712500Y150000D02*
Y170000D01*
X702500Y150000D02*
Y180000D01*
X687500Y180000D02*
X702500Y180000D01*
X687500Y150000D02*
X702500D01*
X687500D02*
Y180000D01*
X677500Y170000D02*
X687500D01*
X677500Y150000D02*
X687500D01*
X677500D02*
Y170000D01*
X687500Y150000D02*
Y170000D01*
X677500Y150000D02*
Y180000D01*
X662500D02*
X677500D01*
X662500Y150000D02*
X677500D01*
X662500D02*
Y180000D01*
X927500Y352500D02*
X957500D01*
X927500D02*
X927500Y337500D01*
X957500D02*
X957500Y352500D01*
X927500Y337500D02*
X957500D01*
X852500Y352500D02*
X882500D01*
X852500Y337500D02*
Y352500D01*
X882500Y337500D02*
Y352500D01*
X852500Y337500D02*
X882500D01*
X777500Y352500D02*
X807500D01*
X777500Y337500D02*
Y352500D01*
X807500Y337500D02*
Y352500D01*
X777500Y337500D02*
X807500D01*
X702500Y352500D02*
X732500D01*
X702500Y337500D02*
Y352500D01*
X732500Y337500D02*
Y352500D01*
X702500Y337500D02*
X732500D01*
X627500Y352500D02*
X657500D01*
X627500Y337500D02*
Y352500D01*
X657500Y337500D02*
Y352500D01*
X627500Y337500D02*
X657500D01*
X552500Y352500D02*
X582500D01*
X552500Y337500D02*
Y352500D01*
X582500Y337500D02*
Y352500D01*
X552500Y337500D02*
X582500D01*
X477500Y352500D02*
X507500D01*
X477500Y337500D02*
Y352500D01*
X507500Y337500D02*
Y352500D01*
X477500Y337500D02*
X507500D01*
X402500Y352500D02*
X432500D01*
X402500Y337500D02*
Y352500D01*
X432500Y337500D02*
Y352500D01*
X402500Y337500D02*
X432500D01*
X327500Y352500D02*
X357500D01*
X327500Y337500D02*
Y352500D01*
X357500Y337500D02*
Y352500D01*
X327500Y337500D02*
X357500D01*
X252500Y352500D02*
X282500D01*
X252500Y337500D02*
Y352500D01*
X282500Y337500D02*
Y352500D01*
X252500Y337500D02*
X282500D01*
M02*
