%FSLAX44Y44*%
%MOMM*%
G71*
G01*
G75*
G04 Layer_Physical_Order=2*
G04 Layer_Color=16711680*
%ADD10R,0.6000X0.6000*%
%ADD11R,0.6300X0.8300*%
%ADD12R,5.5000X3.2000*%
%ADD13R,1.0000X1.5000*%
%ADD14R,3.0000X1.6000*%
%ADD15R,6.2000X5.8000*%
%ADD16R,2.7000X1.0000*%
%ADD17R,2.7000X3.3000*%
%ADD18O,2.1500X0.6000*%
%ADD19O,0.7000X2.5000*%
G04:AMPARAMS|DCode=20|XSize=0.6mm|YSize=1.3mm|CornerRadius=0.15mm|HoleSize=0mm|Usage=FLASHONLY|Rotation=180.000|XOffset=0mm|YOffset=0mm|HoleType=Round|Shape=RoundedRectangle|*
%AMROUNDEDRECTD20*
21,1,0.6000,1.0000,0,0,180.0*
21,1,0.3000,1.3000,0,0,180.0*
1,1,0.3000,-0.1500,0.5000*
1,1,0.3000,0.1500,0.5000*
1,1,0.3000,0.1500,-0.5000*
1,1,0.3000,-0.1500,-0.5000*
%
%ADD20ROUNDEDRECTD20*%
%ADD21R,0.6000X0.6000*%
%ADD22R,0.4500X0.6000*%
%ADD23O,1.7000X0.3000*%
%ADD24R,1.1000X0.6000*%
%ADD25R,1.0000X0.8000*%
%ADD26R,0.9000X0.6000*%
%ADD27R,0.6000X1.1000*%
%ADD28R,1.5000X2.1000*%
%ADD29R,0.8300X0.6300*%
%ADD30R,1.5000X1.0000*%
%ADD31R,3.0000X3.7500*%
%ADD32C,1.5000*%
%ADD33C,0.3000*%
%ADD34C,0.5000*%
%ADD35C,1.8000*%
%ADD36C,2.0000*%
%ADD37C,0.7500*%
%ADD38C,1.0000*%
%ADD39C,0.2600*%
%ADD40C,0.2500*%
%ADD41C,1.5000*%
%ADD42R,1.5000X1.5000*%
%ADD43C,2.5000*%
%ADD44C,6.0000*%
%ADD45C,1.6000*%
%ADD46C,0.7000*%
%ADD47R,0.8000X1.0000*%
%ADD48C,0.7000*%
%ADD49C,0.1700*%
G36*
X1197176Y48197D02*
X1099331D01*
Y31800D01*
X1120990D01*
Y15697D01*
X1100997D01*
Y2824D01*
X2824D01*
Y477176D01*
X1197176D01*
Y48197D01*
D02*
G37*
%LPC*%
G36*
X853900Y149078D02*
X851551Y148768D01*
X849361Y147861D01*
X847481Y146419D01*
X846039Y144539D01*
X845132Y142350D01*
X844822Y140000D01*
X845132Y137650D01*
X846039Y135461D01*
X847481Y133581D01*
X849361Y132139D01*
X851551Y131232D01*
X853900Y130922D01*
X856249Y131232D01*
X858439Y132139D01*
X860319Y133581D01*
X861761Y135461D01*
X862668Y137650D01*
X862978Y140000D01*
X862668Y142350D01*
X861761Y144539D01*
X860319Y146419D01*
X858439Y147861D01*
X856249Y148768D01*
X853900Y149078D01*
D02*
G37*
G36*
X879300D02*
X876951Y148768D01*
X874761Y147861D01*
X872881Y146419D01*
X871439Y144539D01*
X870532Y142350D01*
X870222Y140000D01*
X870532Y137650D01*
X871439Y135461D01*
X872881Y133581D01*
X874761Y132139D01*
X876951Y131232D01*
X879300Y130922D01*
X881649Y131232D01*
X883839Y132139D01*
X885719Y133581D01*
X887161Y135461D01*
X888068Y137650D01*
X888378Y140000D01*
X888068Y142350D01*
X887161Y144539D01*
X885719Y146419D01*
X883839Y147861D01*
X881649Y148768D01*
X879300Y149078D01*
D02*
G37*
G36*
X904700D02*
X902350Y148768D01*
X900161Y147861D01*
X898281Y146419D01*
X896839Y144539D01*
X895932Y142350D01*
X895622Y140000D01*
X895932Y137650D01*
X896839Y135461D01*
X898281Y133581D01*
X900161Y132139D01*
X902350Y131232D01*
X904700Y130922D01*
X907049Y131232D01*
X909239Y132139D01*
X911119Y133581D01*
X912561Y135461D01*
X913468Y137650D01*
X913778Y140000D01*
X913468Y142350D01*
X912561Y144539D01*
X911119Y146419D01*
X909239Y147861D01*
X907049Y148768D01*
X904700Y149078D01*
D02*
G37*
G36*
X828500D02*
X826151Y148768D01*
X823961Y147861D01*
X822081Y146419D01*
X820639Y144539D01*
X819732Y142350D01*
X819422Y140000D01*
X819732Y137650D01*
X820639Y135461D01*
X822081Y133581D01*
X823961Y132139D01*
X826151Y131232D01*
X828500Y130922D01*
X830850Y131232D01*
X833039Y132139D01*
X834919Y133581D01*
X836361Y135461D01*
X837268Y137650D01*
X837578Y140000D01*
X837268Y142350D01*
X836361Y144539D01*
X834919Y146419D01*
X833039Y147861D01*
X830850Y148768D01*
X828500Y149078D01*
D02*
G37*
G36*
X650700D02*
X648351Y148768D01*
X646161Y147861D01*
X644281Y146419D01*
X642839Y144539D01*
X641932Y142350D01*
X641622Y140000D01*
X641932Y137650D01*
X642839Y135461D01*
X644281Y133581D01*
X646161Y132139D01*
X648351Y131232D01*
X650700Y130922D01*
X653049Y131232D01*
X655239Y132139D01*
X657119Y133581D01*
X658561Y135461D01*
X659468Y137650D01*
X659778Y140000D01*
X659468Y142350D01*
X658561Y144539D01*
X657119Y146419D01*
X655239Y147861D01*
X653049Y148768D01*
X650700Y149078D01*
D02*
G37*
G36*
X777700D02*
X775350Y148768D01*
X773161Y147861D01*
X771281Y146419D01*
X769839Y144539D01*
X768932Y142350D01*
X768622Y140000D01*
X768932Y137650D01*
X769839Y135461D01*
X771281Y133581D01*
X773161Y132139D01*
X775350Y131232D01*
X777700Y130922D01*
X780050Y131232D01*
X782239Y132139D01*
X784119Y133581D01*
X785562Y135461D01*
X786468Y137650D01*
X786778Y140000D01*
X786468Y142350D01*
X785562Y144539D01*
X784119Y146419D01*
X782239Y147861D01*
X780050Y148768D01*
X777700Y149078D01*
D02*
G37*
G36*
X803100D02*
X800751Y148768D01*
X798561Y147861D01*
X796681Y146419D01*
X795238Y144539D01*
X794332Y142350D01*
X794022Y140000D01*
X794332Y137650D01*
X795238Y135461D01*
X796681Y133581D01*
X798561Y132139D01*
X800751Y131232D01*
X803100Y130922D01*
X805449Y131232D01*
X807639Y132139D01*
X809519Y133581D01*
X810961Y135461D01*
X811868Y137650D01*
X812178Y140000D01*
X811868Y142350D01*
X810961Y144539D01*
X809519Y146419D01*
X807639Y147861D01*
X805449Y148768D01*
X803100Y149078D01*
D02*
G37*
G36*
X930100D02*
X927750Y148768D01*
X925561Y147861D01*
X923681Y146419D01*
X922238Y144539D01*
X921332Y142350D01*
X921022Y140000D01*
X921332Y137650D01*
X922238Y135461D01*
X923681Y133581D01*
X925561Y132139D01*
X927750Y131232D01*
X930100Y130922D01*
X932449Y131232D01*
X934639Y132139D01*
X936519Y133581D01*
X937961Y135461D01*
X938868Y137650D01*
X939178Y140000D01*
X938868Y142350D01*
X937961Y144539D01*
X936519Y146419D01*
X934639Y147861D01*
X932449Y148768D01*
X930100Y149078D01*
D02*
G37*
G36*
X676500Y162000D02*
X663500D01*
Y151000D01*
X671106D01*
X671500Y150922D01*
X677972D01*
X678000Y150847D01*
Y150500D01*
X678000D01*
X678000Y149365D01*
X677467Y148898D01*
X676100Y149078D01*
X673751Y148768D01*
X671561Y147861D01*
X669681Y146419D01*
X668239Y144539D01*
X667332Y142350D01*
X667022Y140000D01*
X667332Y137650D01*
X668239Y135461D01*
X669681Y133581D01*
X670922Y132629D01*
Y38464D01*
X667940Y37229D01*
X665015Y34985D01*
X662771Y32060D01*
X661360Y28655D01*
X660879Y25000D01*
X661360Y21345D01*
X662771Y17940D01*
X665015Y15015D01*
X667940Y12771D01*
X671345Y11360D01*
X675000Y10879D01*
X678655Y11360D01*
X682060Y12771D01*
X684985Y15015D01*
X687229Y17940D01*
X688640Y21345D01*
X689121Y25000D01*
X688640Y28655D01*
X687229Y32060D01*
X684985Y34985D01*
X682060Y37229D01*
X679079Y38464D01*
Y131492D01*
X680639Y132139D01*
X682519Y133581D01*
X683961Y135461D01*
X684868Y137650D01*
X685178Y140000D01*
X684868Y142350D01*
X684678Y142810D01*
X685384Y143516D01*
X685384Y143516D01*
X685975Y144400D01*
X686268Y144839D01*
X686578Y146400D01*
X686578Y146400D01*
Y150500D01*
X687000D01*
Y159500D01*
X678000D01*
Y159078D01*
X676500D01*
Y162000D01*
D02*
G37*
G36*
X701500D02*
X688500D01*
Y151000D01*
X696106D01*
X696500Y150922D01*
X702912D01*
X703000Y150688D01*
Y150500D01*
X703000D01*
X703000Y149418D01*
X702467Y148950D01*
X701500Y149078D01*
X699150Y148768D01*
X696961Y147861D01*
X695081Y146419D01*
X693639Y144539D01*
X692732Y142350D01*
X692422Y140000D01*
X692732Y137650D01*
X693639Y135461D01*
X695081Y133581D01*
X695922Y132936D01*
Y88464D01*
X692940Y87229D01*
X690015Y84985D01*
X687771Y82060D01*
X686360Y78655D01*
X685879Y75000D01*
X686360Y71345D01*
X687771Y67940D01*
X690015Y65015D01*
X692940Y62771D01*
X696345Y61361D01*
X700000Y60879D01*
X703655Y61361D01*
X707060Y62771D01*
X709985Y65015D01*
X712229Y67940D01*
X713640Y71345D01*
X714121Y75000D01*
X713640Y78655D01*
X712229Y82060D01*
X709985Y84985D01*
X707060Y87229D01*
X704079Y88464D01*
Y131327D01*
X706039Y132139D01*
X707919Y133581D01*
X709361Y135461D01*
X710268Y137650D01*
X710578Y140000D01*
X710268Y142350D01*
X710078Y142810D01*
X710384Y143116D01*
X711268Y144439D01*
X711319Y144698D01*
X711578Y146000D01*
X711578Y146000D01*
Y150500D01*
X712000D01*
Y159500D01*
X703000D01*
Y159078D01*
X701500D01*
Y162000D01*
D02*
G37*
G36*
X726500D02*
X713500D01*
Y151000D01*
X721106D01*
X721500Y150922D01*
X727852D01*
X728000Y150528D01*
Y150500D01*
X728000D01*
X728000Y149471D01*
X727467Y149003D01*
X726900Y149078D01*
X724550Y148768D01*
X722361Y147861D01*
X720481Y146419D01*
X719038Y144539D01*
X718132Y142350D01*
X717822Y140000D01*
X718132Y137650D01*
X719038Y135461D01*
X720481Y133581D01*
X720922Y133243D01*
Y38464D01*
X717940Y37229D01*
X715015Y34985D01*
X712771Y32060D01*
X711360Y28655D01*
X710879Y25000D01*
X711360Y21345D01*
X712771Y17940D01*
X715015Y15015D01*
X717940Y12771D01*
X721345Y11360D01*
X725000Y10879D01*
X728655Y11360D01*
X732060Y12771D01*
X734985Y15015D01*
X737229Y17940D01*
X738640Y21345D01*
X739121Y25000D01*
X738640Y28655D01*
X737229Y32060D01*
X734985Y34985D01*
X732060Y37229D01*
X729079Y38464D01*
Y131209D01*
X729249Y131232D01*
X731439Y132139D01*
X733319Y133581D01*
X734761Y135461D01*
X735668Y137650D01*
X735978Y140000D01*
X735668Y142350D01*
X735466Y142839D01*
X736268Y144039D01*
X736319Y144298D01*
X736578Y145600D01*
X736578Y145600D01*
Y150500D01*
X737000D01*
Y159500D01*
X728000D01*
Y159078D01*
X726500D01*
Y162000D01*
D02*
G37*
G36*
X69000Y166500D02*
X51000D01*
Y148500D01*
X69000D01*
Y166500D01*
D02*
G37*
G36*
X955500Y149078D02*
X953150Y148768D01*
X950961Y147861D01*
X949081Y146419D01*
X947638Y144539D01*
X946732Y142350D01*
X946422Y140000D01*
X946732Y137650D01*
X947638Y135461D01*
X949081Y133581D01*
X950961Y132139D01*
X953150Y131232D01*
X955500Y130922D01*
X957850Y131232D01*
X960039Y132139D01*
X961919Y133581D01*
X963361Y135461D01*
X964268Y137650D01*
X964578Y140000D01*
X964268Y142350D01*
X963361Y144539D01*
X961919Y146419D01*
X960039Y147861D01*
X957850Y148768D01*
X955500Y149078D01*
D02*
G37*
G36*
X980900D02*
X978550Y148768D01*
X976361Y147861D01*
X974481Y146419D01*
X973038Y144539D01*
X972132Y142350D01*
X971822Y140000D01*
X972132Y137650D01*
X973038Y135461D01*
X974481Y133581D01*
X976361Y132139D01*
X978550Y131232D01*
X980900Y130922D01*
X983250Y131232D01*
X985439Y132139D01*
X987319Y133581D01*
X988761Y135461D01*
X989668Y137650D01*
X989978Y140000D01*
X989668Y142350D01*
X988761Y144539D01*
X987319Y146419D01*
X985439Y147861D01*
X983250Y148768D01*
X980900Y149078D01*
D02*
G37*
G36*
X1006300D02*
X1003951Y148768D01*
X1001761Y147861D01*
X999881Y146419D01*
X998438Y144539D01*
X997532Y142350D01*
X997222Y140000D01*
X997532Y137650D01*
X998438Y135461D01*
X999881Y133581D01*
X1001761Y132139D01*
X1003951Y131232D01*
X1006300Y130922D01*
X1008650Y131232D01*
X1010839Y132139D01*
X1012719Y133581D01*
X1014161Y135461D01*
X1015068Y137650D01*
X1015378Y140000D01*
X1015068Y142350D01*
X1014161Y144539D01*
X1012719Y146419D01*
X1010839Y147861D01*
X1008650Y148768D01*
X1006300Y149078D01*
D02*
G37*
G36*
X107900Y109582D02*
X105420Y109256D01*
X103109Y108298D01*
X101124Y106776D01*
X99602Y104791D01*
X98645Y102480D01*
X98318Y100000D01*
X98645Y97520D01*
X99602Y95209D01*
X101124Y93225D01*
X103109Y91702D01*
X105420Y90744D01*
X107900Y90418D01*
X110380Y90744D01*
X112691Y91702D01*
X114675Y93225D01*
X116198Y95209D01*
X117155Y97520D01*
X117482Y100000D01*
X117155Y102480D01*
X116198Y104791D01*
X114675Y106776D01*
X112691Y108298D01*
X110380Y109256D01*
X107900Y109582D01*
D02*
G37*
G36*
X975000Y39121D02*
X971345Y38640D01*
X967940Y37229D01*
X965015Y34985D01*
X962771Y32060D01*
X961360Y28655D01*
X960879Y25000D01*
X961360Y21345D01*
X962771Y17940D01*
X965015Y15015D01*
X967940Y12771D01*
X971345Y11360D01*
X975000Y10879D01*
X978655Y11360D01*
X982060Y12771D01*
X984985Y15015D01*
X987229Y17940D01*
X988640Y21345D01*
X989121Y25000D01*
X988640Y28655D01*
X987229Y32060D01*
X984985Y34985D01*
X982060Y37229D01*
X978655Y38640D01*
X975000Y39121D01*
D02*
G37*
G36*
X1025000D02*
X1021345Y38640D01*
X1017940Y37229D01*
X1015015Y34985D01*
X1012771Y32060D01*
X1011360Y28655D01*
X1010879Y25000D01*
X1011360Y21345D01*
X1012771Y17940D01*
X1015015Y15015D01*
X1017940Y12771D01*
X1021345Y11360D01*
X1025000Y10879D01*
X1028655Y11360D01*
X1032060Y12771D01*
X1034985Y15015D01*
X1037229Y17940D01*
X1038640Y21345D01*
X1039121Y25000D01*
X1038640Y28655D01*
X1037229Y32060D01*
X1034985Y34985D01*
X1032060Y37229D01*
X1028655Y38640D01*
X1025000Y39121D01*
D02*
G37*
G36*
X311600Y258000D02*
X246600D01*
Y197000D01*
X267501D01*
Y188000D01*
X246600D01*
Y166624D01*
X215000D01*
X213852Y166148D01*
X213377Y165000D01*
Y150000D01*
X213852Y148852D01*
X215000Y148377D01*
X246600D01*
Y127000D01*
X267501D01*
Y83600D01*
X267501Y83600D01*
X267712Y81993D01*
X267896Y80598D01*
X268575Y78959D01*
X269055Y77800D01*
X270898Y75398D01*
X286425Y59871D01*
X286560Y58845D01*
X287971Y55440D01*
X290215Y52515D01*
X293140Y50271D01*
X296545Y48861D01*
X300200Y48379D01*
X303855Y48861D01*
X307261Y50271D01*
X310185Y52515D01*
X312429Y55440D01*
X313840Y58845D01*
X314321Y62500D01*
X313840Y66155D01*
X312429Y69560D01*
X310185Y72485D01*
X307261Y74729D01*
X303855Y76140D01*
X302829Y76275D01*
X290699Y88405D01*
Y127000D01*
X311600D01*
Y188000D01*
X290699D01*
Y197000D01*
X311600D01*
Y258000D01*
D02*
G37*
G36*
X925000Y39121D02*
X921345Y38640D01*
X917940Y37229D01*
X915015Y34985D01*
X912771Y32060D01*
X911360Y28655D01*
X910879Y25000D01*
X911360Y21345D01*
X912771Y17940D01*
X915015Y15015D01*
X917940Y12771D01*
X921345Y11360D01*
X925000Y10879D01*
X928655Y11360D01*
X932060Y12771D01*
X934985Y15015D01*
X937229Y17940D01*
X938640Y21345D01*
X939121Y25000D01*
X938640Y28655D01*
X937229Y32060D01*
X934985Y34985D01*
X932060Y37229D01*
X928655Y38640D01*
X925000Y39121D01*
D02*
G37*
G36*
X775000D02*
X771345Y38640D01*
X767940Y37229D01*
X765015Y34985D01*
X762771Y32060D01*
X761360Y28655D01*
X760879Y25000D01*
X761360Y21345D01*
X762771Y17940D01*
X765015Y15015D01*
X767940Y12771D01*
X771345Y11360D01*
X775000Y10879D01*
X778655Y11360D01*
X782060Y12771D01*
X784985Y15015D01*
X787229Y17940D01*
X788640Y21345D01*
X789121Y25000D01*
X788640Y28655D01*
X787229Y32060D01*
X784985Y34985D01*
X782060Y37229D01*
X778655Y38640D01*
X775000Y39121D01*
D02*
G37*
G36*
X825000D02*
X821345Y38640D01*
X817940Y37229D01*
X815015Y34985D01*
X812771Y32060D01*
X811360Y28655D01*
X810879Y25000D01*
X811360Y21345D01*
X812771Y17940D01*
X815015Y15015D01*
X817940Y12771D01*
X821345Y11360D01*
X825000Y10879D01*
X828655Y11360D01*
X832060Y12771D01*
X834985Y15015D01*
X837229Y17940D01*
X838640Y21345D01*
X839121Y25000D01*
X838640Y28655D01*
X837229Y32060D01*
X834985Y34985D01*
X832060Y37229D01*
X828655Y38640D01*
X825000Y39121D01*
D02*
G37*
G36*
X875000D02*
X871345Y38640D01*
X867940Y37229D01*
X865015Y34985D01*
X862771Y32060D01*
X861360Y28655D01*
X860879Y25000D01*
X861360Y21345D01*
X862771Y17940D01*
X865015Y15015D01*
X867940Y12771D01*
X871345Y11360D01*
X875000Y10879D01*
X878655Y11360D01*
X882060Y12771D01*
X884985Y15015D01*
X887229Y17940D01*
X888640Y21345D01*
X889121Y25000D01*
X888640Y28655D01*
X887229Y32060D01*
X884985Y34985D01*
X882060Y37229D01*
X878655Y38640D01*
X875000Y39121D01*
D02*
G37*
G36*
X350900Y146239D02*
X347898Y145844D01*
X345101Y144685D01*
X344390Y144140D01*
X334400D01*
Y125140D01*
X340001D01*
Y71163D01*
X338771Y69560D01*
X337360Y66155D01*
X336879Y62500D01*
X337360Y58845D01*
X338771Y55440D01*
X341015Y52515D01*
X343940Y50271D01*
X347345Y48861D01*
X351000Y48379D01*
X354655Y48861D01*
X358060Y50271D01*
X360985Y52515D01*
X363229Y55440D01*
X364640Y58845D01*
X365121Y62500D01*
X364640Y66155D01*
X363229Y69560D01*
X363199Y69599D01*
Y125140D01*
X367400D01*
Y144140D01*
X357410D01*
X356700Y144685D01*
X353902Y145844D01*
X350900Y146239D01*
D02*
G37*
G36*
X950000Y89121D02*
X946345Y88640D01*
X942940Y87229D01*
X940015Y84985D01*
X937771Y82060D01*
X936360Y78655D01*
X935879Y75000D01*
X936360Y71345D01*
X937771Y67940D01*
X940015Y65015D01*
X942940Y62771D01*
X946345Y61361D01*
X950000Y60879D01*
X953655Y61361D01*
X957060Y62771D01*
X959985Y65015D01*
X962229Y67940D01*
X963640Y71345D01*
X964121Y75000D01*
X963640Y78655D01*
X962229Y82060D01*
X959985Y84985D01*
X957060Y87229D01*
X953655Y88640D01*
X950000Y89121D01*
D02*
G37*
G36*
X1000000D02*
X996345Y88640D01*
X992940Y87229D01*
X990015Y84985D01*
X987771Y82060D01*
X986360Y78655D01*
X985879Y75000D01*
X986360Y71345D01*
X987771Y67940D01*
X990015Y65015D01*
X992940Y62771D01*
X996345Y61361D01*
X1000000Y60879D01*
X1003655Y61361D01*
X1007060Y62771D01*
X1009985Y65015D01*
X1012229Y67940D01*
X1013640Y71345D01*
X1014121Y75000D01*
X1013640Y78655D01*
X1012229Y82060D01*
X1009985Y84985D01*
X1007060Y87229D01*
X1003655Y88640D01*
X1000000Y89121D01*
D02*
G37*
G36*
X605000Y94097D02*
X600057Y93708D01*
X595236Y92551D01*
X590655Y90654D01*
X586428Y88063D01*
X582657Y84843D01*
X580235Y82007D01*
X578965D01*
X576543Y84843D01*
X572773Y88063D01*
X568545Y90654D01*
X563964Y92551D01*
X559143Y93708D01*
X554200Y94097D01*
X549257Y93708D01*
X544436Y92551D01*
X539855Y90654D01*
X535628Y88063D01*
X531857Y84843D01*
X529435Y82007D01*
X528165D01*
X525743Y84843D01*
X521973Y88063D01*
X517745Y90654D01*
X513164Y92551D01*
X508343Y93708D01*
X503400Y94097D01*
X498457Y93708D01*
X493636Y92551D01*
X489055Y90654D01*
X484828Y88063D01*
X481057Y84843D01*
X478635Y82007D01*
X477365D01*
X474943Y84843D01*
X471173Y88063D01*
X466945Y90654D01*
X462364Y92551D01*
X457543Y93708D01*
X452600Y94097D01*
X447657Y93708D01*
X442836Y92551D01*
X438255Y90654D01*
X434028Y88063D01*
X430257Y84843D01*
X427037Y81073D01*
X424447Y76845D01*
X422549Y72264D01*
X421392Y67443D01*
X421003Y62500D01*
X421392Y57557D01*
X422549Y52736D01*
X424447Y48155D01*
X427037Y43928D01*
X430257Y40157D01*
X434028Y36937D01*
X438255Y34347D01*
X442836Y32449D01*
X447657Y31292D01*
X452600Y30903D01*
X457543Y31292D01*
X462364Y32449D01*
X466945Y34347D01*
X471173Y36937D01*
X474943Y40157D01*
X477365Y42993D01*
X478635D01*
X481057Y40157D01*
X484828Y36937D01*
X489055Y34347D01*
X493636Y32449D01*
X498457Y31292D01*
X503400Y30903D01*
X508343Y31292D01*
X513164Y32449D01*
X517745Y34347D01*
X521973Y36937D01*
X525743Y40157D01*
X528165Y42993D01*
X529435D01*
X531857Y40157D01*
X535628Y36937D01*
X539855Y34347D01*
X544436Y32449D01*
X549257Y31292D01*
X554200Y30903D01*
X559143Y31292D01*
X563964Y32449D01*
X568545Y34347D01*
X572773Y36937D01*
X576543Y40157D01*
X578965Y42993D01*
X580235D01*
X582657Y40157D01*
X586428Y36937D01*
X590655Y34347D01*
X595236Y32449D01*
X600057Y31292D01*
X605000Y30903D01*
X609943Y31292D01*
X614764Y32449D01*
X619345Y34347D01*
X623573Y36937D01*
X627343Y40157D01*
X630563Y43928D01*
X633154Y48155D01*
X635051Y52736D01*
X636208Y57557D01*
X636598Y62500D01*
X636208Y67443D01*
X635660Y69728D01*
X636868Y70121D01*
X637771Y67940D01*
X640015Y65015D01*
X642940Y62771D01*
X646345Y61361D01*
X650000Y60879D01*
X653655Y61361D01*
X657060Y62771D01*
X659985Y65015D01*
X662229Y67940D01*
X663640Y71345D01*
X664121Y75000D01*
X663640Y78655D01*
X662229Y82060D01*
X659985Y84985D01*
X657060Y87229D01*
X653655Y88640D01*
X650000Y89121D01*
X646345Y88640D01*
X642940Y87229D01*
X640015Y84985D01*
X637771Y82060D01*
X636361Y78655D01*
X635879Y75000D01*
X636158Y72882D01*
X634931Y72553D01*
X633154Y76845D01*
X630563Y81073D01*
X627343Y84843D01*
X623573Y88063D01*
X619345Y90654D01*
X614764Y92551D01*
X609943Y93708D01*
X605000Y94097D01*
D02*
G37*
G36*
X900000Y89121D02*
X896345Y88640D01*
X892940Y87229D01*
X890015Y84985D01*
X887771Y82060D01*
X886360Y78655D01*
X885879Y75000D01*
X886360Y71345D01*
X887771Y67940D01*
X890015Y65015D01*
X892940Y62771D01*
X896345Y61361D01*
X900000Y60879D01*
X903655Y61361D01*
X907060Y62771D01*
X909985Y65015D01*
X912229Y67940D01*
X913640Y71345D01*
X914121Y75000D01*
X913640Y78655D01*
X912229Y82060D01*
X909985Y84985D01*
X907060Y87229D01*
X903655Y88640D01*
X900000Y89121D01*
D02*
G37*
G36*
X375360Y216239D02*
X375360Y216239D01*
X350900D01*
X347898Y215844D01*
X345100Y214685D01*
X344390Y214140D01*
X334400D01*
Y195140D01*
X344390D01*
X345100Y194595D01*
X347898Y193436D01*
X350900Y193041D01*
X370555D01*
X390201Y173395D01*
Y70381D01*
X389571Y69560D01*
X388161Y66155D01*
X387679Y62500D01*
X388161Y58845D01*
X389571Y55440D01*
X391815Y52515D01*
X394740Y50271D01*
X398145Y48861D01*
X401800Y48379D01*
X405455Y48861D01*
X408861Y50271D01*
X411785Y52515D01*
X414029Y55440D01*
X415440Y58845D01*
X415921Y62500D01*
X415440Y66155D01*
X414029Y69560D01*
X413399Y70381D01*
Y178200D01*
X413399Y178200D01*
X413004Y181202D01*
X411845Y184000D01*
X410002Y186402D01*
X410002Y186402D01*
X383562Y212842D01*
X381160Y214685D01*
X378362Y215844D01*
X375360Y216239D01*
D02*
G37*
G36*
X800000Y89121D02*
X796345Y88640D01*
X792940Y87229D01*
X790015Y84985D01*
X787771Y82060D01*
X786360Y78655D01*
X785879Y75000D01*
X786360Y71345D01*
X787771Y67940D01*
X790015Y65015D01*
X792940Y62771D01*
X796345Y61361D01*
X800000Y60879D01*
X803655Y61361D01*
X807060Y62771D01*
X809985Y65015D01*
X812229Y67940D01*
X813640Y71345D01*
X814121Y75000D01*
X813640Y78655D01*
X812229Y82060D01*
X809985Y84985D01*
X807060Y87229D01*
X803655Y88640D01*
X800000Y89121D01*
D02*
G37*
G36*
X850000D02*
X846345Y88640D01*
X842940Y87229D01*
X840015Y84985D01*
X837771Y82060D01*
X836360Y78655D01*
X835879Y75000D01*
X836360Y71345D01*
X837771Y67940D01*
X840015Y65015D01*
X842940Y62771D01*
X846345Y61361D01*
X850000Y60879D01*
X853655Y61361D01*
X857060Y62771D01*
X859985Y65015D01*
X862229Y67940D01*
X863640Y71345D01*
X864121Y75000D01*
X863640Y78655D01*
X862229Y82060D01*
X859985Y84985D01*
X857060Y87229D01*
X853655Y88640D01*
X850000Y89121D01*
D02*
G37*
G36*
X751500Y162000D02*
X738500D01*
Y151000D01*
X746106D01*
X746500Y150922D01*
X752792D01*
X753000Y150369D01*
X753000Y149523D01*
X752467Y149056D01*
X752300Y149078D01*
X749950Y148768D01*
X747761Y147861D01*
X745881Y146419D01*
X744438Y144539D01*
X743532Y142350D01*
X743222Y140000D01*
X743532Y137650D01*
X744438Y135461D01*
X745881Y133581D01*
X745922Y133550D01*
Y88464D01*
X742940Y87229D01*
X740015Y84985D01*
X737771Y82060D01*
X736360Y78655D01*
X735879Y75000D01*
X736360Y71345D01*
X737771Y67940D01*
X740015Y65015D01*
X742940Y62771D01*
X746345Y61361D01*
X750000Y60879D01*
X753655Y61361D01*
X757060Y62771D01*
X759985Y65015D01*
X762229Y67940D01*
X763640Y71345D01*
X764121Y75000D01*
X763640Y78655D01*
X762229Y82060D01*
X759985Y84985D01*
X757060Y87229D01*
X754079Y88464D01*
Y131157D01*
X754650Y131232D01*
X756839Y132139D01*
X758719Y133581D01*
X760161Y135461D01*
X761068Y137650D01*
X761378Y140000D01*
X761068Y142350D01*
X760815Y142961D01*
X761268Y143639D01*
X761319Y143898D01*
X761578Y145200D01*
X761578Y145200D01*
Y150500D01*
X762000D01*
Y159500D01*
X753000D01*
Y159078D01*
X751500D01*
Y162000D01*
D02*
G37*
G36*
X275000Y469121D02*
X271345Y468640D01*
X267940Y467229D01*
X265015Y464985D01*
X262771Y462061D01*
X261360Y458655D01*
X260879Y455000D01*
X261360Y451345D01*
X262771Y447940D01*
X265015Y445015D01*
X267940Y442771D01*
X271345Y441361D01*
X275000Y440879D01*
X278655Y441361D01*
X282061Y442771D01*
X284985Y445015D01*
X287229Y447940D01*
X288640Y451345D01*
X289121Y455000D01*
X288640Y458655D01*
X287229Y462061D01*
X284985Y464985D01*
X282061Y467229D01*
X278655Y468640D01*
X275000Y469121D01*
D02*
G37*
G36*
X225000D02*
X221345Y468640D01*
X217940Y467229D01*
X215015Y464985D01*
X212771Y462061D01*
X211360Y458655D01*
X210879Y455000D01*
X211360Y451345D01*
X212771Y447940D01*
X215015Y445015D01*
X217940Y442771D01*
X221345Y441361D01*
X225000Y440879D01*
X228655Y441361D01*
X232061Y442771D01*
X234985Y445015D01*
X237229Y447940D01*
X238640Y451345D01*
X239121Y455000D01*
X238640Y458655D01*
X237229Y462061D01*
X234985Y464985D01*
X232061Y467229D01*
X228655Y468640D01*
X225000Y469121D01*
D02*
G37*
G36*
X425000D02*
X421345Y468640D01*
X417940Y467229D01*
X415015Y464985D01*
X412771Y462061D01*
X411361Y458655D01*
X410879Y455000D01*
X411361Y451345D01*
X412771Y447940D01*
X415015Y445015D01*
X417940Y442771D01*
X421345Y441361D01*
X425000Y440879D01*
X428655Y441361D01*
X432061Y442771D01*
X434985Y445015D01*
X437229Y447940D01*
X438640Y451345D01*
X439121Y455000D01*
X438640Y458655D01*
X437229Y462061D01*
X434985Y464985D01*
X432061Y467229D01*
X428655Y468640D01*
X425000Y469121D01*
D02*
G37*
G36*
X375000D02*
X371345Y468640D01*
X367940Y467229D01*
X365015Y464985D01*
X362771Y462061D01*
X361361Y458655D01*
X360879Y455000D01*
X361361Y451345D01*
X362771Y447940D01*
X365015Y445015D01*
X367940Y442771D01*
X371345Y441361D01*
X375000Y440879D01*
X378655Y441361D01*
X382061Y442771D01*
X384985Y445015D01*
X387229Y447940D01*
X388640Y451345D01*
X389121Y455000D01*
X388640Y458655D01*
X387229Y462061D01*
X384985Y464985D01*
X382061Y467229D01*
X378655Y468640D01*
X375000Y469121D01*
D02*
G37*
G36*
X1050000Y419121D02*
X1046345Y418640D01*
X1042940Y417229D01*
X1040015Y414985D01*
X1037771Y412061D01*
X1036360Y408655D01*
X1035879Y405000D01*
X1036360Y401345D01*
X1037771Y397940D01*
X1040015Y395015D01*
X1042940Y392771D01*
X1046345Y391361D01*
X1050000Y390879D01*
X1053655Y391361D01*
X1057060Y392771D01*
X1059985Y395015D01*
X1062229Y397940D01*
X1063640Y401345D01*
X1064121Y405000D01*
X1063640Y408655D01*
X1062229Y412061D01*
X1059985Y414985D01*
X1057060Y417229D01*
X1053655Y418640D01*
X1050000Y419121D01*
D02*
G37*
G36*
X900000D02*
X896346Y418640D01*
X892940Y417229D01*
X890015Y414985D01*
X887771Y412061D01*
X886360Y408655D01*
X885879Y405000D01*
X886360Y401345D01*
X887771Y397940D01*
X890015Y395015D01*
X892940Y392771D01*
X896346Y391361D01*
X900000Y390879D01*
X903655Y391361D01*
X907061Y392771D01*
X909985Y395015D01*
X912229Y397940D01*
X913640Y401345D01*
X914121Y405000D01*
X913640Y408655D01*
X912229Y412061D01*
X909985Y414985D01*
X907061Y417229D01*
X903655Y418640D01*
X900000Y419121D01*
D02*
G37*
G36*
X975000Y469121D02*
X971345Y468640D01*
X967940Y467229D01*
X965015Y464985D01*
X962771Y462061D01*
X961360Y458655D01*
X960879Y455000D01*
X961360Y451345D01*
X962771Y447940D01*
X965015Y445015D01*
X967940Y442771D01*
X971345Y441361D01*
X975000Y440879D01*
X975922Y440071D01*
Y402896D01*
X975290Y401951D01*
X974902Y400000D01*
X975290Y398049D01*
X976395Y396395D01*
X978049Y395290D01*
X980000Y394902D01*
X981951Y395290D01*
X983605Y396395D01*
X984710Y398049D01*
X985098Y400000D01*
X984710Y401951D01*
X984079Y402896D01*
Y444319D01*
X984985Y445015D01*
X987229Y447940D01*
X988640Y451345D01*
X989121Y455000D01*
X988640Y458655D01*
X987229Y462061D01*
X984985Y464985D01*
X982060Y467229D01*
X978655Y468640D01*
X975000Y469121D01*
D02*
G37*
G36*
X1100000Y419121D02*
X1096345Y418640D01*
X1092940Y417229D01*
X1090015Y414985D01*
X1087771Y412061D01*
X1086360Y408655D01*
X1085879Y405000D01*
X1086360Y401345D01*
X1087771Y397940D01*
X1090015Y395015D01*
X1092940Y392771D01*
X1096345Y391361D01*
X1100000Y390879D01*
X1103655Y391361D01*
X1107060Y392771D01*
X1109985Y395015D01*
X1112229Y397940D01*
X1113640Y401345D01*
X1114121Y405000D01*
X1113640Y408655D01*
X1112229Y412061D01*
X1109985Y414985D01*
X1107060Y417229D01*
X1103655Y418640D01*
X1100000Y419121D01*
D02*
G37*
G36*
X875000Y469121D02*
X871345Y468640D01*
X867940Y467229D01*
X865015Y464985D01*
X862771Y462061D01*
X861360Y458655D01*
X860879Y455000D01*
X861360Y451345D01*
X862771Y447940D01*
X865015Y445015D01*
X867940Y442771D01*
X871345Y441361D01*
X875000Y440879D01*
X878655Y441361D01*
X882060Y442771D01*
X884985Y445015D01*
X887229Y447940D01*
X888640Y451345D01*
X889121Y455000D01*
X888640Y458655D01*
X887229Y462061D01*
X884985Y464985D01*
X882060Y467229D01*
X878655Y468640D01*
X875000Y469121D01*
D02*
G37*
G36*
X825000D02*
X821345Y468640D01*
X817940Y467229D01*
X815015Y464985D01*
X812771Y462061D01*
X811360Y458655D01*
X810879Y455000D01*
X811360Y451345D01*
X812771Y447940D01*
X815015Y445015D01*
X817940Y442771D01*
X821345Y441361D01*
X825000Y440879D01*
X828655Y441361D01*
X832060Y442771D01*
X834985Y445015D01*
X837229Y447940D01*
X838640Y451345D01*
X839121Y455000D01*
X838640Y458655D01*
X837229Y462061D01*
X834985Y464985D01*
X832060Y467229D01*
X828655Y468640D01*
X825000Y469121D01*
D02*
G37*
G36*
X1075000D02*
X1071345Y468640D01*
X1067940Y467229D01*
X1065015Y464985D01*
X1062771Y462061D01*
X1061360Y458655D01*
X1060879Y455000D01*
X1061360Y451345D01*
X1062771Y447940D01*
X1065015Y445015D01*
X1067940Y442771D01*
X1071345Y441361D01*
X1075000Y440879D01*
X1078655Y441361D01*
X1082060Y442771D01*
X1084985Y445015D01*
X1087229Y447940D01*
X1088640Y451345D01*
X1089121Y455000D01*
X1088640Y458655D01*
X1087229Y462061D01*
X1084985Y464985D01*
X1082060Y467229D01*
X1078655Y468640D01*
X1075000Y469121D01*
D02*
G37*
G36*
X1025000D02*
X1021345Y468640D01*
X1017940Y467229D01*
X1015015Y464985D01*
X1012771Y462061D01*
X1011360Y458655D01*
X1010879Y455000D01*
X1011360Y451345D01*
X1012771Y447940D01*
X1015015Y445015D01*
X1017940Y442771D01*
X1021345Y441361D01*
X1025000Y440879D01*
X1028655Y441361D01*
X1032060Y442771D01*
X1034985Y445015D01*
X1037229Y447940D01*
X1038640Y451345D01*
X1039121Y455000D01*
X1038640Y458655D01*
X1037229Y462061D01*
X1034985Y464985D01*
X1032060Y467229D01*
X1028655Y468640D01*
X1025000Y469121D01*
D02*
G37*
G36*
X575000D02*
X571345Y468640D01*
X567940Y467229D01*
X565015Y464985D01*
X562771Y462061D01*
X561361Y458655D01*
X560879Y455000D01*
X561361Y451345D01*
X562771Y447940D01*
X565015Y445015D01*
X567940Y442771D01*
X571345Y441361D01*
X575000Y440879D01*
X578655Y441361D01*
X582061Y442771D01*
X584985Y445015D01*
X587229Y447940D01*
X588640Y451345D01*
X589121Y455000D01*
X588640Y458655D01*
X587229Y462061D01*
X584985Y464985D01*
X582061Y467229D01*
X578655Y468640D01*
X575000Y469121D01*
D02*
G37*
G36*
X525000D02*
X521345Y468640D01*
X517940Y467229D01*
X515015Y464985D01*
X512771Y462061D01*
X511361Y458655D01*
X510879Y455000D01*
X511361Y451345D01*
X512771Y447940D01*
X515015Y445015D01*
X517940Y442771D01*
X521345Y441361D01*
X525000Y440879D01*
X528655Y441361D01*
X532061Y442771D01*
X534985Y445015D01*
X537229Y447940D01*
X538640Y451345D01*
X539121Y455000D01*
X538640Y458655D01*
X537229Y462061D01*
X534985Y464985D01*
X532061Y467229D01*
X528655Y468640D01*
X525000Y469121D01*
D02*
G37*
G36*
X725000D02*
X721345Y468640D01*
X717940Y467229D01*
X715015Y464985D01*
X712771Y462061D01*
X711360Y458655D01*
X710879Y455000D01*
X711360Y451345D01*
X712771Y447940D01*
X715015Y445015D01*
X717940Y442771D01*
X721345Y441361D01*
X725000Y440879D01*
X728655Y441361D01*
X732060Y442771D01*
X734985Y445015D01*
X737229Y447940D01*
X738640Y451345D01*
X739121Y455000D01*
X738640Y458655D01*
X737229Y462061D01*
X734985Y464985D01*
X732060Y467229D01*
X728655Y468640D01*
X725000Y469121D01*
D02*
G37*
G36*
X675000D02*
X671345Y468640D01*
X667940Y467229D01*
X665015Y464985D01*
X662771Y462061D01*
X661360Y458655D01*
X660879Y455000D01*
X661360Y451345D01*
X662771Y447940D01*
X665015Y445015D01*
X667940Y442771D01*
X671345Y441361D01*
X675000Y440879D01*
X678655Y441361D01*
X682060Y442771D01*
X684985Y445015D01*
X687229Y447940D01*
X688640Y451345D01*
X689121Y455000D01*
X688640Y458655D01*
X687229Y462061D01*
X684985Y464985D01*
X682060Y467229D01*
X678655Y468640D01*
X675000Y469121D01*
D02*
G37*
G36*
X995000Y340098D02*
X993049Y339710D01*
X991395Y338605D01*
X990290Y336951D01*
X989902Y335000D01*
X990290Y333049D01*
X991395Y331395D01*
X993049Y330290D01*
X994164Y330068D01*
X1010922Y313311D01*
Y286689D01*
X985811Y261579D01*
X955396D01*
X954451Y262210D01*
X952500Y262598D01*
X950549Y262210D01*
X948895Y261105D01*
X947790Y259451D01*
X947569Y258336D01*
X938311Y249079D01*
X841689D01*
X832432Y258336D01*
X832210Y259451D01*
X831105Y261105D01*
X829451Y262210D01*
X827500Y262598D01*
X825549Y262210D01*
X823895Y261105D01*
X822790Y259451D01*
X822569Y258336D01*
X813311Y249079D01*
X699189D01*
X679932Y268336D01*
X679710Y269451D01*
X678605Y271105D01*
X676951Y272210D01*
X675000Y272598D01*
X673049Y272210D01*
X671395Y271105D01*
X670290Y269451D01*
X669902Y267500D01*
X670290Y265549D01*
X671395Y263895D01*
X673049Y262790D01*
X674164Y262568D01*
X694616Y242116D01*
X694616Y242116D01*
X695500Y241526D01*
X695939Y241232D01*
X697500Y240922D01*
X697500Y240922D01*
X815000D01*
X815000Y240922D01*
X816302Y241181D01*
X816561Y241232D01*
X817884Y242116D01*
X826865Y251097D01*
X828135D01*
X837116Y242116D01*
X837116Y242116D01*
X838439Y241232D01*
X840000Y240922D01*
X940000D01*
X940000Y240922D01*
X941302Y241181D01*
X941561Y241232D01*
X942884Y242116D01*
X953336Y252568D01*
X954451Y252790D01*
X955396Y253422D01*
X987500D01*
X987500Y253422D01*
X988802Y253681D01*
X989061Y253732D01*
X990384Y254616D01*
X1017884Y282116D01*
X1017884Y282116D01*
X1018768Y283439D01*
X1019079Y285000D01*
Y315000D01*
X1018768Y316561D01*
X1017884Y317884D01*
X1017884Y317884D01*
X999932Y335836D01*
X999710Y336951D01*
X998605Y338605D01*
X996951Y339710D01*
X995000Y340098D01*
D02*
G37*
G36*
X1000000Y297598D02*
X998049Y297210D01*
X996395Y296105D01*
X982888Y282598D01*
X940000D01*
X938049Y282210D01*
X936395Y281105D01*
X927888Y272598D01*
X917112D01*
X911105Y278605D01*
X909451Y279710D01*
X907500Y280098D01*
X797500D01*
X795549Y279710D01*
X793895Y278605D01*
X786395Y271105D01*
X785290Y269451D01*
X784902Y267500D01*
X785290Y265549D01*
X786395Y263895D01*
X788049Y262790D01*
X790000Y262402D01*
X791951Y262790D01*
X793605Y263895D01*
X799612Y269902D01*
X905388D01*
X911395Y263895D01*
X913049Y262790D01*
X915000Y262402D01*
X930000D01*
X931951Y262790D01*
X933605Y263895D01*
X942112Y272402D01*
X985000D01*
X986951Y272790D01*
X988605Y273895D01*
X1003605Y288895D01*
X1004710Y290549D01*
X1005098Y292500D01*
X1004710Y294451D01*
X1003605Y296105D01*
X1001951Y297210D01*
X1000000Y297598D01*
D02*
G37*
G36*
X387500Y340098D02*
X385549Y339710D01*
X383895Y338605D01*
X382790Y336951D01*
X382402Y335000D01*
X382790Y333049D01*
X383422Y332104D01*
Y319189D01*
X354164Y289932D01*
X353049Y289710D01*
X352104Y289079D01*
X267896D01*
X266951Y289710D01*
X265000Y290098D01*
X263049Y289710D01*
X261395Y288605D01*
X260290Y286951D01*
X259902Y285000D01*
X260290Y283049D01*
X261395Y281395D01*
X263049Y280290D01*
X265000Y279902D01*
X266951Y280290D01*
X267896Y280922D01*
X352104D01*
X353049Y280290D01*
X355000Y279902D01*
X356951Y280290D01*
X358605Y281395D01*
X359710Y283049D01*
X359932Y284164D01*
X390384Y314616D01*
X390384Y314616D01*
X391268Y315939D01*
X391320Y316198D01*
X391578Y317500D01*
X391578Y317500D01*
Y332104D01*
X392210Y333049D01*
X392598Y335000D01*
X392210Y336951D01*
X391105Y338605D01*
X389451Y339710D01*
X387500Y340098D01*
D02*
G37*
G36*
X340000Y270098D02*
X338049Y269710D01*
X336395Y268605D01*
X335290Y266951D01*
X334902Y265000D01*
X335290Y263049D01*
X335922Y262104D01*
Y259860D01*
X334400D01*
Y240860D01*
X367400D01*
Y259860D01*
X344078D01*
Y262104D01*
X344710Y263049D01*
X345098Y265000D01*
X344710Y266951D01*
X343605Y268605D01*
X341951Y269710D01*
X340000Y270098D01*
D02*
G37*
G36*
X500000Y219082D02*
X495842Y218755D01*
X491786Y217781D01*
X487932Y216185D01*
X484376Y214005D01*
X481204Y211296D01*
X478495Y208125D01*
X476315Y204568D01*
X474719Y200714D01*
X473745Y196658D01*
X473418Y192500D01*
X473745Y188342D01*
X474719Y184286D01*
X476315Y180432D01*
X478495Y176876D01*
X481204Y173704D01*
X484376Y170995D01*
X485767Y170142D01*
X485374Y168934D01*
X483500Y169082D01*
X479342Y168755D01*
X475286Y167781D01*
X471432Y166185D01*
X467876Y164005D01*
X464704Y161296D01*
X461995Y158125D01*
X459815Y154568D01*
X458219Y150714D01*
X457245Y146658D01*
X456918Y142500D01*
X457245Y138342D01*
X458219Y134286D01*
X459815Y130432D01*
X461995Y126876D01*
X464704Y123704D01*
X467876Y120995D01*
X471432Y118815D01*
X475286Y117219D01*
X479342Y116245D01*
X483500Y115918D01*
X487659Y116245D01*
X491714Y117219D01*
X495568Y118815D01*
X499125Y120995D01*
X502296Y123704D01*
X505005Y126876D01*
X507185Y130432D01*
X508781Y134286D01*
X509755Y138342D01*
X510082Y142500D01*
X509755Y146658D01*
X508781Y150714D01*
X507185Y154568D01*
X505005Y158125D01*
X502296Y161296D01*
X499125Y164005D01*
X497733Y164858D01*
X498126Y166066D01*
X500000Y165918D01*
X504159Y166245D01*
X508214Y167219D01*
X512068Y168815D01*
X515625Y170995D01*
X518796Y173704D01*
X521505Y176876D01*
X523685Y180432D01*
X525281Y184286D01*
X526255Y188342D01*
X526582Y192500D01*
X526255Y196658D01*
X525281Y200714D01*
X523685Y204568D01*
X521505Y208125D01*
X518796Y211296D01*
X515625Y214005D01*
X512068Y216185D01*
X508214Y217781D01*
X504159Y218755D01*
X500000Y219082D01*
D02*
G37*
G36*
X612500D02*
X608342Y218755D01*
X604286Y217781D01*
X600432Y216185D01*
X596876Y214005D01*
X593704Y211296D01*
X590995Y208125D01*
X588815Y204568D01*
X587219Y200714D01*
X586245Y196658D01*
X585918Y192500D01*
X586245Y188342D01*
X587219Y184286D01*
X588815Y180432D01*
X590995Y176876D01*
X593704Y173704D01*
X596876Y170995D01*
X598267Y170142D01*
X597874Y168934D01*
X596000Y169082D01*
X591842Y168755D01*
X587786Y167781D01*
X583932Y166185D01*
X580376Y164005D01*
X577204Y161296D01*
X574495Y158125D01*
X572315Y154568D01*
X570719Y150714D01*
X569745Y146658D01*
X569418Y142500D01*
X569745Y138342D01*
X570719Y134286D01*
X572315Y130432D01*
X574495Y126876D01*
X577204Y123704D01*
X580376Y120995D01*
X583932Y118815D01*
X587786Y117219D01*
X591842Y116245D01*
X596000Y115918D01*
X600159Y116245D01*
X604214Y117219D01*
X608068Y118815D01*
X611625Y120995D01*
X614796Y123704D01*
X617505Y126876D01*
X619685Y130432D01*
X621281Y134286D01*
X622255Y138342D01*
X622582Y142500D01*
X622255Y146658D01*
X621281Y150714D01*
X619685Y154568D01*
X617505Y158125D01*
X614796Y161296D01*
X611625Y164005D01*
X610233Y164858D01*
X610626Y166066D01*
X612500Y165918D01*
X616659Y166245D01*
X620714Y167219D01*
X624568Y168815D01*
X628125Y170995D01*
X631296Y173704D01*
X634005Y176876D01*
X636185Y180432D01*
X637781Y184286D01*
X638755Y188342D01*
X639082Y192500D01*
X638755Y196658D01*
X637781Y200714D01*
X636185Y204568D01*
X634005Y208125D01*
X631296Y211296D01*
X628125Y214005D01*
X624568Y216185D01*
X620714Y217781D01*
X616659Y218755D01*
X612500Y219082D01*
D02*
G37*
G36*
X250000Y270598D02*
X248049Y270210D01*
X246395Y269105D01*
X245290Y267451D01*
X244902Y265500D01*
X245290Y263549D01*
X246395Y261895D01*
X248049Y260790D01*
X250000Y260402D01*
X251951Y260790D01*
X252896Y261422D01*
X314061D01*
X318422Y257061D01*
Y187750D01*
X318422Y187750D01*
X318681Y186448D01*
X318732Y186189D01*
X319616Y184866D01*
X327006Y177476D01*
X327006Y177476D01*
X328329Y176592D01*
X328588Y176541D01*
X329890Y176282D01*
X329890Y176282D01*
X334400D01*
Y170860D01*
X367400D01*
Y189860D01*
X334400D01*
Y184438D01*
X331579D01*
X326578Y189439D01*
Y258750D01*
X326578Y258750D01*
X326268Y260311D01*
X325384Y261634D01*
X318634Y268384D01*
X317311Y269268D01*
X317052Y269319D01*
X315750Y269578D01*
X315750Y269578D01*
X252896D01*
X251951Y270210D01*
X250000Y270598D01*
D02*
G37*
G36*
X992500Y325098D02*
X990549Y324710D01*
X988895Y323605D01*
X987790Y321951D01*
X987569Y320836D01*
X965811Y299079D01*
X760396D01*
X759451Y299710D01*
X757500Y300098D01*
X755549Y299710D01*
X754604Y299079D01*
X747500D01*
X745939Y298768D01*
X744616Y297884D01*
X744616Y297884D01*
X719164Y272432D01*
X718049Y272210D01*
X716395Y271105D01*
X715290Y269451D01*
X714902Y267500D01*
X715290Y265549D01*
X716395Y263895D01*
X718049Y262790D01*
X720000Y262402D01*
X721951Y262790D01*
X723605Y263895D01*
X724710Y265549D01*
X724932Y266664D01*
X749189Y290922D01*
X754604D01*
X755549Y290290D01*
X757500Y289902D01*
X759451Y290290D01*
X760396Y290922D01*
X967500D01*
X967500Y290922D01*
X968802Y291181D01*
X969061Y291232D01*
X970384Y292116D01*
X993336Y315068D01*
X994451Y315290D01*
X996105Y316395D01*
X997210Y318049D01*
X997598Y320000D01*
X997210Y321951D01*
X996105Y323605D01*
X994451Y324710D01*
X992500Y325098D01*
D02*
G37*
G36*
X300000Y419121D02*
X296345Y418640D01*
X292940Y417229D01*
X290015Y414985D01*
X287771Y412061D01*
X286360Y408655D01*
X285879Y405000D01*
X286360Y401345D01*
X287771Y397940D01*
X290015Y395015D01*
X292940Y392771D01*
X296345Y391361D01*
X300000Y390879D01*
X303655Y391361D01*
X307061Y392771D01*
X309985Y395015D01*
X312229Y397940D01*
X313640Y401345D01*
X314121Y405000D01*
X313640Y408655D01*
X312229Y412061D01*
X309985Y414985D01*
X307061Y417229D01*
X303655Y418640D01*
X300000Y419121D01*
D02*
G37*
G36*
X600000D02*
X596345Y418640D01*
X592940Y417229D01*
X590015Y414985D01*
X587771Y412061D01*
X586361Y408655D01*
X585879Y405000D01*
X586361Y401345D01*
X587771Y397940D01*
X590015Y395015D01*
X592940Y392771D01*
X596345Y391361D01*
X600000Y390879D01*
X603655Y391361D01*
X607061Y392771D01*
X609985Y395015D01*
X612229Y397940D01*
X613640Y401345D01*
X614121Y405000D01*
X613640Y408655D01*
X612229Y412061D01*
X609985Y414985D01*
X607061Y417229D01*
X603655Y418640D01*
X600000Y419121D01*
D02*
G37*
G36*
X750000D02*
X746345Y418640D01*
X742940Y417229D01*
X740015Y414985D01*
X737771Y412061D01*
X736360Y408655D01*
X735879Y405000D01*
X736360Y401345D01*
X737771Y397940D01*
X740015Y395015D01*
X742940Y392771D01*
X746345Y391361D01*
X750000Y390879D01*
X753655Y391361D01*
X757060Y392771D01*
X759985Y395015D01*
X762229Y397940D01*
X763640Y401345D01*
X764121Y405000D01*
X763640Y408655D01*
X762229Y412061D01*
X759985Y414985D01*
X757060Y417229D01*
X753655Y418640D01*
X750000Y419121D01*
D02*
G37*
G36*
X970000Y421624D02*
X930000D01*
X928852Y421148D01*
X928376Y420000D01*
Y381624D01*
X821624D01*
Y420000D01*
X821148Y421148D01*
X820000Y421624D01*
X780000D01*
X778852Y421148D01*
X778376Y420000D01*
Y381624D01*
X671624D01*
Y420000D01*
X671148Y421148D01*
X670000Y421624D01*
X630000D01*
X628852Y421148D01*
X628377Y420000D01*
Y381624D01*
X521624D01*
Y420000D01*
X521148Y421148D01*
X520000Y421624D01*
X480000D01*
X478852Y421148D01*
X478377Y420000D01*
Y391624D01*
X457541D01*
X457132Y392826D01*
X459985Y395015D01*
X462229Y397940D01*
X463640Y401345D01*
X464121Y405000D01*
X463640Y408655D01*
X462229Y412061D01*
X459985Y414985D01*
X457061Y417229D01*
X453655Y418640D01*
X450000Y419121D01*
X446345Y418640D01*
X442940Y417229D01*
X440015Y414985D01*
X437771Y412061D01*
X436361Y408655D01*
X435879Y405000D01*
X436361Y401345D01*
X437771Y397940D01*
X440015Y395015D01*
X442868Y392826D01*
X442460Y391624D01*
X371624D01*
Y420000D01*
X371148Y421148D01*
X370000Y421624D01*
X330000D01*
X328852Y421148D01*
X328377Y420000D01*
Y381624D01*
X40000D01*
X38852Y381148D01*
X38377Y380000D01*
Y220000D01*
X38852Y218852D01*
X40000Y218377D01*
X80000D01*
X81148Y218852D01*
X81624Y220000D01*
Y348377D01*
X95949D01*
X96435Y347203D01*
X86616Y337384D01*
X85732Y336061D01*
X85681Y335802D01*
X85422Y334500D01*
X85422Y334500D01*
Y312396D01*
X84790Y311451D01*
X84402Y309500D01*
X84790Y307549D01*
X85895Y305895D01*
X87549Y304790D01*
X89500Y304402D01*
X91451Y304790D01*
X93105Y305895D01*
X94210Y307549D01*
X94598Y309500D01*
X94210Y311451D01*
X93579Y312396D01*
Y332811D01*
X110689Y349922D01*
X270500D01*
Y338500D01*
X281500D01*
Y339978D01*
X282620Y340577D01*
X283049Y340290D01*
X285000Y339902D01*
X286951Y340290D01*
X288605Y341395D01*
X289710Y343049D01*
X290098Y345000D01*
X289710Y346951D01*
X288605Y348605D01*
X288453Y348706D01*
X288822Y349922D01*
X345500D01*
Y338500D01*
X356500D01*
Y339978D01*
X357620Y340577D01*
X358049Y340290D01*
X360000Y339902D01*
X361951Y340290D01*
X363605Y341395D01*
X364710Y343049D01*
X365098Y345000D01*
X364710Y346951D01*
X363605Y348605D01*
X361951Y349710D01*
X361905Y349719D01*
X361657Y350965D01*
X361884Y351116D01*
X366689Y355922D01*
X398311D01*
X403116Y351116D01*
X403116Y351116D01*
X404001Y350525D01*
X404440Y350232D01*
X406000Y349922D01*
X406000Y349922D01*
X420500D01*
Y338500D01*
X431500D01*
Y339978D01*
X432620Y340577D01*
X433049Y340290D01*
X435000Y339902D01*
X436951Y340290D01*
X438605Y341395D01*
X439710Y343049D01*
X440098Y345000D01*
X439710Y346951D01*
X438605Y348605D01*
X438453Y348706D01*
X438822Y349922D01*
X495500D01*
Y338500D01*
X506500D01*
Y339978D01*
X507620Y340577D01*
X508049Y340290D01*
X510000Y339902D01*
X511951Y340290D01*
X513605Y341395D01*
X514710Y343049D01*
X515098Y345000D01*
X514710Y346951D01*
X513605Y348605D01*
X513453Y348706D01*
X513822Y349922D01*
X570500D01*
Y338500D01*
X581500D01*
Y339978D01*
X582620Y340577D01*
X583049Y340290D01*
X585000Y339902D01*
X586951Y340290D01*
X588605Y341395D01*
X589710Y343049D01*
X590098Y345000D01*
X589710Y346951D01*
X588605Y348605D01*
X588453Y348706D01*
X588822Y349922D01*
X645500D01*
Y338500D01*
X656500D01*
Y339978D01*
X657620Y340577D01*
X658049Y340290D01*
X660000Y339902D01*
X661951Y340290D01*
X663605Y341395D01*
X664710Y343049D01*
X665098Y345000D01*
X664710Y346951D01*
X663605Y348605D01*
X663453Y348706D01*
X663822Y349922D01*
X669311D01*
X682569Y336664D01*
X682790Y335549D01*
X683895Y333895D01*
X685549Y332790D01*
X687500Y332402D01*
X689451Y332790D01*
X691105Y333895D01*
X692210Y335549D01*
X692598Y337500D01*
X692210Y339451D01*
X691105Y341105D01*
X689451Y342210D01*
X688336Y342432D01*
X683565Y347203D01*
X684051Y348377D01*
X702602Y348377D01*
X703750Y348852D01*
X704648Y349750D01*
X704701Y349877D01*
X712928D01*
X713352Y348852D01*
X714500Y348377D01*
X719602D01*
X720500Y347776D01*
Y338500D01*
X731500D01*
Y339978D01*
X732620Y340577D01*
X733049Y340290D01*
X735000Y339902D01*
X736951Y340290D01*
X738605Y341395D01*
X739710Y343049D01*
X740098Y345000D01*
X739710Y346951D01*
X739506Y347256D01*
X740105Y348377D01*
X777602D01*
X778750Y348852D01*
X779648Y349750D01*
X779701Y349877D01*
X787928D01*
X788352Y348852D01*
X789500Y348377D01*
X794602D01*
X795500Y347776D01*
Y338500D01*
X806500D01*
Y339978D01*
X807620Y340577D01*
X808049Y340290D01*
X810000Y339902D01*
X811951Y340290D01*
X813605Y341395D01*
X814710Y343049D01*
X815098Y345000D01*
X814710Y346951D01*
X814506Y347256D01*
X815105Y348377D01*
X852602D01*
X853750Y348852D01*
X854648Y349750D01*
X854701Y349877D01*
X862928D01*
X863352Y348852D01*
X864500Y348377D01*
X869602D01*
X870500Y347776D01*
Y338500D01*
X881500D01*
Y339978D01*
X882620Y340577D01*
X883049Y340290D01*
X885000Y339902D01*
X886951Y340290D01*
X888605Y341395D01*
X889710Y343049D01*
X890098Y345000D01*
X889710Y346951D01*
X889506Y347256D01*
X890105Y348377D01*
X927602D01*
X928750Y348852D01*
X929648Y349750D01*
X929701Y349877D01*
X937928D01*
X938352Y348852D01*
X939500Y348377D01*
X944602D01*
X945500Y347776D01*
Y338500D01*
X956500D01*
Y339978D01*
X957620Y340577D01*
X958049Y340290D01*
X960000Y339902D01*
X961951Y340290D01*
X963605Y341395D01*
X964710Y343049D01*
X965098Y345000D01*
X964710Y346951D01*
X964506Y347256D01*
X965105Y348377D01*
X999328D01*
X1048377Y299328D01*
X1048377Y205713D01*
X1048409Y205635D01*
X1048384Y205554D01*
X1048643Y205071D01*
X1048852Y204565D01*
X1048930Y204533D01*
X1048970Y204458D01*
X1049720Y203843D01*
X1050102Y203727D01*
X1050433Y203506D01*
X1052067Y203181D01*
X1053184Y202434D01*
X1053931Y201317D01*
X1054193Y200000D01*
X1053931Y198683D01*
X1053184Y197566D01*
X1052067Y196819D01*
X1050433Y196495D01*
X1050102Y196273D01*
X1049720Y196157D01*
X1048970Y195542D01*
X1048930Y195467D01*
X1048852Y195435D01*
X1048643Y194929D01*
X1048384Y194446D01*
X1048409Y194365D01*
X1048377Y194287D01*
Y150673D01*
X1041155Y143451D01*
X1039909Y143699D01*
X1039561Y144539D01*
X1038119Y146419D01*
X1036239Y147861D01*
X1034049Y148768D01*
X1031700Y149078D01*
X1029351Y148768D01*
X1027161Y147861D01*
X1025281Y146419D01*
X1023839Y144539D01*
X1022932Y142350D01*
X1022622Y140000D01*
X1022932Y137650D01*
X1023839Y135461D01*
X1025281Y133581D01*
X1027161Y132139D01*
X1028125Y131739D01*
X1028611Y130566D01*
X1028574Y130476D01*
X1028377Y130000D01*
Y130000D01*
D01*
X1028376Y60898D01*
X1028852Y59750D01*
X1029750Y58852D01*
X1030898Y58376D01*
X1080000D01*
X1081148Y58852D01*
X1081624Y60000D01*
Y131000D01*
X1081148Y132148D01*
X1080000Y132624D01*
X1075124D01*
Y147376D01*
X1080000D01*
X1081148Y147852D01*
X1081624Y149000D01*
Y189443D01*
X1081723Y189683D01*
X1081986Y190077D01*
X1081954Y190240D01*
X1082018Y190394D01*
X1081863Y190767D01*
X1081883Y190866D01*
X1081558Y192500D01*
X1081820Y193818D01*
X1082566Y194934D01*
X1083683Y195681D01*
X1085000Y195943D01*
X1086634Y195618D01*
X1086733Y195637D01*
X1087106Y195483D01*
X1087260Y195546D01*
X1087423Y195514D01*
X1087817Y195777D01*
X1088254Y195958D01*
X1141148Y248852D01*
X1141624Y250000D01*
Y300000D01*
X1141148Y301148D01*
X1061148Y381148D01*
X1060000Y381624D01*
X971624D01*
Y420000D01*
X971148Y421148D01*
X970000Y421624D01*
D02*
G37*
G36*
X152500Y335098D02*
X150549Y334710D01*
X148895Y333605D01*
X147790Y331951D01*
X147569Y330836D01*
X139164Y322432D01*
X138049Y322210D01*
X136395Y321105D01*
X135290Y319451D01*
X134902Y317500D01*
X135290Y315549D01*
X136395Y313895D01*
X138049Y312790D01*
X140000Y312402D01*
X141951Y312790D01*
X143605Y313895D01*
X144710Y315549D01*
X144932Y316664D01*
X153336Y325069D01*
X154451Y325290D01*
X156105Y326395D01*
X157210Y328049D01*
X157598Y330000D01*
X157210Y331951D01*
X156105Y333605D01*
X154451Y334710D01*
X152500Y335098D01*
D02*
G37*
G36*
X182500Y325098D02*
X180549Y324710D01*
X178895Y323605D01*
X177790Y321951D01*
X177402Y320000D01*
X177790Y318049D01*
X178895Y316395D01*
X179441Y316031D01*
Y286267D01*
X170337Y277163D01*
X169674Y276171D01*
X169441Y275000D01*
X169441Y275000D01*
Y250000D01*
X169441Y250000D01*
X169674Y248830D01*
X170337Y247837D01*
X217837Y200337D01*
X217837Y200337D01*
X218830Y199674D01*
X220000Y199441D01*
X220000Y199441D01*
X223531D01*
X223895Y198895D01*
X225549Y197790D01*
X227500Y197402D01*
X229451Y197790D01*
X231105Y198895D01*
X231865Y200033D01*
X233135D01*
X233895Y198895D01*
X235549Y197790D01*
X237500Y197402D01*
X239451Y197790D01*
X241105Y198895D01*
X242210Y200549D01*
X242598Y202500D01*
X242210Y204451D01*
X241105Y206105D01*
X239451Y207210D01*
X237500Y207598D01*
X235549Y207210D01*
X233895Y206105D01*
X233135Y204967D01*
X231865D01*
X231105Y206105D01*
X229451Y207210D01*
X227500Y207598D01*
X225549Y207210D01*
X223895Y206105D01*
X223531Y205559D01*
X221267D01*
X175559Y251267D01*
Y253107D01*
X176679Y253706D01*
X178049Y252790D01*
X180000Y252402D01*
X181951Y252790D01*
X183605Y253895D01*
X184710Y255549D01*
X185098Y257500D01*
X185012Y257933D01*
X227642Y300563D01*
X228049Y300290D01*
X230000Y299902D01*
X231951Y300290D01*
X233605Y301395D01*
X233970Y301941D01*
X278480D01*
X284834Y295587D01*
X284834Y295587D01*
X285827Y294924D01*
X286997Y294691D01*
X286997Y294691D01*
X297750D01*
X297750Y294691D01*
X298921Y294924D01*
X299913Y295587D01*
X319356Y315030D01*
X320000Y314902D01*
X321951Y315290D01*
X323605Y316395D01*
X324710Y318049D01*
X325098Y320000D01*
X324710Y321951D01*
X323605Y323605D01*
X321951Y324710D01*
X320000Y325098D01*
X318049Y324710D01*
X316395Y323605D01*
X315290Y321951D01*
X314902Y320000D01*
X315030Y319356D01*
X296483Y300809D01*
X294560D01*
X293962Y301929D01*
X294710Y303049D01*
X295098Y305000D01*
X294710Y306951D01*
X293605Y308605D01*
X291951Y309710D01*
X290000Y310098D01*
X289356Y309970D01*
X284913Y314413D01*
X283921Y315076D01*
X282750Y315309D01*
X282750Y315309D01*
X224750D01*
X223580Y315076D01*
X222587Y314413D01*
X222587Y314413D01*
X179227Y271053D01*
X179000Y271098D01*
X177049Y270710D01*
X176679Y270463D01*
X175559Y271061D01*
Y273733D01*
X184663Y282837D01*
X185326Y283830D01*
X185559Y285000D01*
X185559Y285000D01*
Y316031D01*
X186105Y316395D01*
X187210Y318049D01*
X187598Y320000D01*
X187210Y321951D01*
X186105Y323605D01*
X184451Y324710D01*
X182500Y325098D01*
D02*
G37*
%LPD*%
G36*
X270000Y150000D02*
X215000D01*
Y165000D01*
X270000D01*
Y150000D01*
D02*
G37*
G36*
X970000Y380000D02*
X1060000D01*
X1140000Y300000D01*
Y250000D01*
X1087106Y197106D01*
X1086951Y197210D01*
X1085000Y197598D01*
X1083049Y197210D01*
X1081395Y196105D01*
X1080290Y194451D01*
X1079902Y192500D01*
X1080290Y190549D01*
X1080394Y190394D01*
X1080000Y190000D01*
Y149000D01*
X1073500D01*
Y131000D01*
X1080000D01*
Y60000D01*
X1030898D01*
X1030000Y60898D01*
X1030000Y130000D01*
X1031013Y131013D01*
X1031700Y130922D01*
X1034049Y131232D01*
X1036239Y132139D01*
X1038119Y133581D01*
X1039561Y135461D01*
X1040468Y137650D01*
X1040778Y140000D01*
X1040687Y140687D01*
X1050000Y150000D01*
Y194287D01*
X1050750Y194902D01*
X1052701Y195290D01*
X1054355Y196395D01*
X1055460Y198049D01*
X1055848Y200000D01*
X1055460Y201951D01*
X1054355Y203605D01*
X1052701Y204710D01*
X1050750Y205098D01*
X1050000Y205713D01*
X1050000Y300000D01*
X1000000Y350000D01*
X960493D01*
X960000Y350098D01*
X959507Y350000D01*
X956500D01*
Y351500D01*
X945500D01*
Y350898D01*
X944602Y350000D01*
X939500D01*
Y351500D01*
X928500D01*
Y350898D01*
X927602Y350000D01*
X885493D01*
X885000Y350098D01*
X884507Y350000D01*
X881500D01*
Y351500D01*
X870500D01*
Y350898D01*
X869602Y350000D01*
X864500D01*
Y351500D01*
X853500D01*
Y350898D01*
X852602Y350000D01*
X810493D01*
X810000Y350098D01*
X809507Y350000D01*
X806500D01*
Y351500D01*
X795500D01*
Y350898D01*
X794602Y350000D01*
X789500D01*
Y351500D01*
X778500D01*
Y350898D01*
X777602Y350000D01*
X735493D01*
X735000Y350098D01*
X734507Y350000D01*
X731500D01*
Y351500D01*
X720500D01*
Y350898D01*
X719602Y350000D01*
X714500D01*
Y351500D01*
X703500D01*
Y350898D01*
X702602Y350000D01*
X680768Y350000D01*
X673884Y356884D01*
X672561Y357768D01*
X672302Y357819D01*
X671000Y358078D01*
X671000Y358078D01*
X407690D01*
X402884Y362884D01*
X401561Y363768D01*
X401302Y363820D01*
X400000Y364078D01*
X400000Y364078D01*
X365000D01*
X365000Y364078D01*
X363439Y363768D01*
X363000Y363475D01*
X362116Y362884D01*
X362116Y362884D01*
X357311Y358078D01*
X109000D01*
X107439Y357768D01*
X106116Y356884D01*
X99232Y350000D01*
X80000D01*
Y220000D01*
X40000D01*
Y380000D01*
X330000D01*
Y420000D01*
X370000D01*
Y390000D01*
X480000D01*
Y420000D01*
X520000D01*
Y380000D01*
X630000D01*
Y420000D01*
X670000D01*
Y380000D01*
X780000D01*
Y420000D01*
X820000D01*
Y380000D01*
X930000D01*
Y420000D01*
X970000D01*
Y380000D01*
D02*
G37*
D14*
X350900Y250360D02*
D03*
Y204640D02*
D03*
X350900Y180360D02*
D03*
Y134640D02*
D03*
D15*
X279100Y227500D02*
D03*
X279100Y157500D02*
D03*
D21*
X757500Y155000D02*
D03*
Y165000D02*
D03*
X682500Y155000D02*
D03*
Y165000D02*
D03*
X707500Y155000D02*
D03*
Y165000D02*
D03*
X732500Y155000D02*
D03*
Y165000D02*
D03*
D25*
X745000Y156500D02*
D03*
Y173500D02*
D03*
X670000Y156500D02*
D03*
X670000Y173500D02*
D03*
X695000Y156500D02*
D03*
Y173500D02*
D03*
X720000Y156500D02*
D03*
X720000Y173500D02*
D03*
D33*
X178750Y266250D02*
X224750Y312250D01*
X297750Y297750D02*
X320000Y320000D01*
X182500Y285000D02*
Y320000D01*
X172500Y275000D02*
X182500Y285000D01*
X172500Y250000D02*
Y275000D01*
X951000Y345000D02*
X960000D01*
X876000Y345000D02*
X885000D01*
X801000D02*
X810000D01*
X726000D02*
X735000D01*
X651000D02*
X660000D01*
X576000D02*
X585000D01*
X501000D02*
X510000D01*
X426000D02*
X435000D01*
X351000D02*
X360000D01*
X276000D02*
X285000D01*
X224750Y312250D02*
X282750D01*
X290000Y305000D01*
X180000Y257500D02*
X180253D01*
X227753Y305000D01*
X279747D02*
X286997Y297750D01*
X297750D01*
X227753Y305000D02*
X230000D01*
X279747D01*
X172500Y250000D02*
X220000Y202500D01*
X227500D01*
D34*
X250250Y265250D02*
X250500Y265500D01*
X250000Y265000D02*
X250250Y265250D01*
X340000Y250360D02*
Y265000D01*
Y250000D02*
Y250360D01*
X757500Y295000D02*
X967500D01*
X747500D02*
X757500D01*
X675000Y138900D02*
X676100Y140000D01*
X675000Y25000D02*
Y138900D01*
X700000Y75000D02*
Y138500D01*
X725000Y25000D02*
Y138100D01*
X750000Y75000D02*
Y137700D01*
X752300Y140000D02*
X757500Y145200D01*
X750000Y137700D02*
X752300Y140000D01*
X757500Y145200D02*
Y155000D01*
X726900Y140000D02*
X732500Y145600D01*
X725000Y138100D02*
X726900Y140000D01*
X732500Y145600D02*
Y155000D01*
X701500Y140000D02*
X707500Y146000D01*
X700000Y138500D02*
X701500Y140000D01*
X707500Y146000D02*
Y155000D01*
X676100Y140000D02*
X682500Y146400D01*
Y155000D01*
X329890Y180360D02*
X350900D01*
X322500Y187750D02*
X329890Y180360D01*
X322500Y187750D02*
Y258750D01*
X315750Y265500D02*
X322500Y258750D01*
X250500Y265500D02*
X315750D01*
X671000Y354000D02*
X687500Y337500D01*
X406000Y354000D02*
X671000D01*
X400000Y360000D02*
X406000Y354000D01*
X359000D02*
X365000Y360000D01*
X109000Y354000D02*
X359000D01*
X89500Y334500D02*
X109000Y354000D01*
X250000Y265000D02*
Y265500D01*
X975000Y455000D02*
X980000Y450000D01*
Y400000D02*
Y450000D01*
X987500Y257500D02*
X1015000Y285000D01*
X967500Y295000D02*
X992500Y320000D01*
X675000Y267500D02*
X697500Y245000D01*
X815000D01*
X827500Y257500D01*
X952500D02*
X987500D01*
X827500D02*
X840000Y245000D01*
X940000D01*
X952500Y257500D01*
X140000Y317500D02*
X152500Y330000D01*
X365000Y360000D02*
X400000D01*
X687500Y337500D02*
Y337500D01*
X89500Y309500D02*
Y334500D01*
X720000Y267500D02*
X747500Y295000D01*
X387500Y317500D02*
Y335000D01*
X355000Y285000D02*
X387500Y317500D01*
X265000Y285000D02*
X355000D01*
X340000Y250000D02*
X342140Y247860D01*
X746500Y155000D02*
X757500D01*
X671500D02*
X682500D01*
X696500Y155000D02*
X707500D01*
X721500Y155000D02*
X732500D01*
X995000Y335000D02*
X995000D01*
X1015000Y315000D01*
Y285000D02*
Y315000D01*
D36*
X351600Y62500D02*
Y133940D01*
X401800Y62500D02*
Y178200D01*
X375360Y204640D02*
X401800Y178200D01*
X350900Y204640D02*
X375360D01*
X279100Y83600D02*
X300200Y62500D01*
X279100Y83600D02*
Y157500D01*
X350900Y134640D02*
X351600Y133940D01*
X279100Y157500D02*
Y225000D01*
D41*
X650700Y140000D02*
D03*
X676100D02*
D03*
X701500D02*
D03*
X726900D02*
D03*
X752300D02*
D03*
X777700D02*
D03*
X803100D02*
D03*
X828500D02*
D03*
X853900D02*
D03*
X879300D02*
D03*
X904700D02*
D03*
X930100D02*
D03*
X955500D02*
D03*
X980900D02*
D03*
X1006300D02*
D03*
X1031700D02*
D03*
X1057100D02*
D03*
X483500Y142500D02*
D03*
X500000Y192500D02*
D03*
X596000Y142500D02*
D03*
X612500Y192500D02*
D03*
X25000Y240000D02*
D03*
Y157500D02*
D03*
D42*
X1082500Y140000D02*
D03*
X60000Y240000D02*
D03*
Y157500D02*
D03*
D43*
X925000Y25000D02*
D03*
X900000Y75000D02*
D03*
X975000Y25000D02*
D03*
X950000Y75000D02*
D03*
X1000000D02*
D03*
X1025000Y25000D02*
D03*
X1050000Y75000D02*
D03*
X1075000Y25000D02*
D03*
X850000Y75000D02*
D03*
X875000Y25000D02*
D03*
X800000Y75000D02*
D03*
X825000Y25000D02*
D03*
X750000Y75000D02*
D03*
X775000Y25000D02*
D03*
X700000Y75000D02*
D03*
X725000Y25000D02*
D03*
X675000D02*
D03*
X650000Y75000D02*
D03*
X351000Y62500D02*
D03*
X401800D02*
D03*
X452600D02*
D03*
X503400D02*
D03*
X554200D02*
D03*
X605000D02*
D03*
X300200D02*
D03*
X249400D02*
D03*
X1100000Y405000D02*
D03*
X1075000Y455000D02*
D03*
X1050000Y405000D02*
D03*
X1025000Y455000D02*
D03*
X1000000Y405000D02*
D03*
X975000Y455000D02*
D03*
X950000Y405000D02*
D03*
X925000Y455000D02*
D03*
X900000Y405000D02*
D03*
X875000Y455000D02*
D03*
X850000Y405000D02*
D03*
X825000Y455000D02*
D03*
X800000Y405000D02*
D03*
X775000Y455000D02*
D03*
X750000Y405000D02*
D03*
X725000Y455000D02*
D03*
X675000D02*
D03*
X700000Y405000D02*
D03*
X650000Y405000D02*
D03*
X625000Y455000D02*
D03*
X575000D02*
D03*
X600000Y405000D02*
D03*
X525000Y455000D02*
D03*
X550000Y405000D02*
D03*
X475000Y455000D02*
D03*
X500000Y405000D02*
D03*
X425000Y455000D02*
D03*
X450000Y405000D02*
D03*
X225000Y455000D02*
D03*
X250000Y405000D02*
D03*
X275000Y455000D02*
D03*
X300000Y405000D02*
D03*
X350000D02*
D03*
X325000Y455000D02*
D03*
X400000Y405000D02*
D03*
X375000Y455000D02*
D03*
D44*
X1150000Y80000D02*
D03*
Y430000D02*
D03*
X50000D02*
D03*
Y50000D02*
D03*
D45*
X82500Y100000D02*
D03*
X107900D02*
D03*
D46*
X295000Y192500D02*
D03*
X250000Y277000D02*
D03*
Y265500D02*
D03*
X227500Y285000D02*
D03*
X320000Y300000D02*
D03*
X980000Y400000D02*
D03*
X1000000Y292500D02*
D03*
X992500Y320000D02*
D03*
X995000Y335000D02*
D03*
X952500Y257500D02*
D03*
X827500D02*
D03*
X675000Y267500D02*
D03*
X152500Y330000D02*
D03*
X140000Y317500D02*
D03*
X687500Y337500D02*
D03*
X757500Y295000D02*
D03*
X89500Y309500D02*
D03*
X720000Y267500D02*
D03*
X185000Y345000D02*
D03*
X202500Y327500D02*
D03*
X292500D02*
D03*
X957500Y307500D02*
D03*
X807500D02*
D03*
X657500D02*
D03*
X507500D02*
D03*
X432500D02*
D03*
X432500Y240000D02*
D03*
X545000D02*
D03*
X653500Y162500D02*
D03*
X767500Y162500D02*
D03*
X952500Y212500D02*
D03*
X892500Y162500D02*
D03*
X1007500Y240000D02*
D03*
X1050750Y200000D02*
D03*
X1135000Y317500D02*
D03*
X1142500Y305000D02*
D03*
X702500Y257500D02*
D03*
X812500D02*
D03*
X937500D02*
D03*
X1085000Y192500D02*
D03*
X212500Y145000D02*
D03*
X170000Y290000D02*
D03*
X107500Y307500D02*
D03*
X140000Y262500D02*
D03*
X915000Y267500D02*
D03*
X790000D02*
D03*
X387500Y335000D02*
D03*
X1075000Y227500D02*
D03*
X1067500Y215000D02*
D03*
X1075000Y192500D02*
D03*
X1130000Y292500D02*
D03*
X1120000D02*
D03*
X1110000D02*
D03*
X1130000Y270000D02*
D03*
X1120000D02*
D03*
X1110000D02*
D03*
X960000Y345000D02*
D03*
X885000D02*
D03*
X810000D02*
D03*
X735000D02*
D03*
X660000D02*
D03*
X585000D02*
D03*
X510000D02*
D03*
X435000D02*
D03*
X360000D02*
D03*
X285000D02*
D03*
X265000Y285000D02*
D03*
X355000D02*
D03*
X340000Y277250D02*
D03*
X179000Y266000D02*
D03*
X180000Y257500D02*
D03*
X230000Y305000D02*
D03*
X290000D02*
D03*
X340000Y265000D02*
D03*
X232500Y157500D02*
D03*
X240000D02*
D03*
X237500Y202500D02*
D03*
X227500D02*
D03*
X182500Y320000D02*
D03*
X320000Y320000D02*
D03*
X225000Y225000D02*
D03*
X117500Y250000D02*
D03*
X182500Y230000D02*
D03*
X17500Y307500D02*
D03*
X20000Y352500D02*
D03*
X520000Y287500D02*
D03*
X470000Y282500D02*
D03*
X625000Y297500D02*
D03*
X627500Y257500D02*
D03*
X655000Y207500D02*
D03*
X815000Y215000D02*
D03*
X1040000Y390000D02*
D03*
D47*
X876000Y345000D02*
D03*
X859000D02*
D03*
X951000Y345000D02*
D03*
X934000D02*
D03*
X576000Y345000D02*
D03*
X559000D02*
D03*
X651000D02*
D03*
X634000D02*
D03*
X726000D02*
D03*
X709000D02*
D03*
X801000D02*
D03*
X784000D02*
D03*
X351000D02*
D03*
X334000D02*
D03*
X501000D02*
D03*
X484000D02*
D03*
X426000D02*
D03*
X409000D02*
D03*
X276000D02*
D03*
X259000D02*
D03*
D48*
X985000Y277500D02*
X1000000Y292500D01*
X940000Y277500D02*
X985000D01*
X930000Y267500D02*
X940000Y277500D01*
X915000Y267500D02*
X930000D01*
X797500Y275000D02*
X907500D01*
X790000Y267500D02*
X797500Y275000D01*
X907500D02*
X915000Y267500D01*
D49*
X1197500Y12497D02*
Y5832D01*
X1194168Y2500D01*
X1190835Y5832D01*
Y12497D01*
X1180839Y2500D02*
X1187503D01*
X1180839Y9165D01*
Y10831D01*
X1182505Y12497D01*
X1185837D01*
X1187503Y10831D01*
X1177506Y2500D02*
Y4166D01*
X1175840D01*
Y2500D01*
X1177506D01*
X1169176Y10831D02*
X1167510Y12497D01*
X1164177D01*
X1162511Y10831D01*
Y4166D01*
X1164177Y2500D01*
X1167510D01*
X1169176Y4166D01*
Y10831D01*
X1132521Y2500D02*
X1139185D01*
X1132521Y9165D01*
Y10831D01*
X1134187Y12497D01*
X1137519D01*
X1139185Y10831D01*
X1129189D02*
X1127523Y12497D01*
X1124190D01*
X1122524Y10831D01*
Y4166D01*
X1124190Y2500D01*
X1127523D01*
X1129189Y4166D01*
Y10831D01*
X1119192Y2500D02*
X1115860D01*
X1117526D01*
Y12497D01*
X1119192Y10831D01*
X1104197Y12497D02*
X1107529Y10831D01*
X1110861Y7498D01*
Y4166D01*
X1109195Y2500D01*
X1105863D01*
X1104197Y4166D01*
Y5832D01*
X1105863Y7498D01*
X1110861D01*
X1190835Y44997D02*
X1194168D01*
X1192502D01*
Y36666D01*
X1194168Y35000D01*
X1195834D01*
X1197500Y36666D01*
X1187503Y35000D02*
Y36666D01*
X1185837D01*
Y35000D01*
X1187503D01*
X1169176D02*
Y41665D01*
X1165844Y44997D01*
X1162511Y41665D01*
Y35000D01*
Y39998D01*
X1169176D01*
X1159179Y35000D02*
Y41665D01*
X1154181D01*
X1152514Y39998D01*
Y35000D01*
X1142518Y44997D02*
Y35000D01*
X1147516D01*
X1149182Y36666D01*
Y39998D01*
X1147516Y41665D01*
X1142518D01*
X1139185D02*
Y35000D01*
Y38332D01*
X1137519Y39998D01*
X1135853Y41665D01*
X1134187D01*
X1124190Y35000D02*
X1127523D01*
X1129189Y36666D01*
Y39998D01*
X1127523Y41665D01*
X1124190D01*
X1122524Y39998D01*
Y38332D01*
X1129189D01*
X1117526Y41665D02*
X1114193D01*
X1112527Y39998D01*
Y35000D01*
X1117526D01*
X1119192Y36666D01*
X1117526Y38332D01*
X1112527D01*
X1104197Y35000D02*
X1107529D01*
X1109195Y36666D01*
Y39998D01*
X1107529Y41665D01*
X1104197D01*
X1102531Y39998D01*
Y38332D01*
X1109195D01*
X1190835Y29997D02*
X1194168D01*
X1192502D01*
Y21666D01*
X1194168Y20000D01*
X1195834D01*
X1197500Y21666D01*
X1187503Y20000D02*
Y21666D01*
X1185837D01*
Y20000D01*
X1187503D01*
X1179173D02*
Y29997D01*
X1174174D01*
X1172508Y28331D01*
Y24998D01*
X1174174Y23332D01*
X1179173D01*
X1169176Y20000D02*
Y21666D01*
X1167510D01*
Y20000D01*
X1169176D01*
X1150848D02*
Y29997D01*
X1145850D01*
X1144184Y28331D01*
Y24998D01*
X1145850Y23332D01*
X1150848D01*
X1147516D02*
X1144184Y20000D01*
X1135853D02*
X1139185D01*
X1140852Y21666D01*
Y24998D01*
X1139185Y26665D01*
X1135853D01*
X1134187Y24998D01*
Y23332D01*
X1140852D01*
X1130855Y26665D02*
Y21666D01*
X1129189Y20000D01*
X1124190D01*
Y18334D01*
X1125856Y16668D01*
X1127523D01*
X1124190Y20000D02*
Y26665D01*
M02*
