G04 Layer_Color=8421504*
%FSLAX44Y44*%
%MOMM*%
G71*
G01*
G75*
%ADD10R,2.2000X5.5000*%
%ADD11O,1.7000X0.3500*%
%ADD12R,3.0000X2.3000*%
G04:AMPARAMS|DCode=13|XSize=1.2mm|YSize=0.5mm|CornerRadius=0.125mm|HoleSize=0mm|Usage=FLASHONLY|Rotation=90.000|XOffset=0mm|YOffset=0mm|HoleType=Round|Shape=RoundedRectangle|*
%AMROUNDEDRECTD13*
21,1,1.2000,0.2500,0,0,90.0*
21,1,0.9500,0.5000,0,0,90.0*
1,1,0.2500,0.1250,0.4750*
1,1,0.2500,0.1250,-0.4750*
1,1,0.2500,-0.1250,-0.4750*
1,1,0.2500,-0.1250,0.4750*
%
%ADD13ROUNDEDRECTD13*%
%ADD14O,2.5000X0.7000*%
%ADD15R,5.5000X2.2000*%
%ADD16O,0.3500X1.7000*%
%ADD17R,0.6000X0.6000*%
%ADD18R,0.6000X0.6000*%
%ADD19R,1.5000X1.0000*%
%ADD20R,6.5000X2.0000*%
%ADD21R,3.5000X1.3000*%
%ADD22R,1.3000X3.5000*%
%ADD23R,1.0000X1.5000*%
%ADD24R,1.1000X1.6000*%
%ADD25O,0.6000X2.1500*%
%ADD26O,2.1500X0.6000*%
D10*
X1215000Y320000D02*
D03*
X487500Y392500D02*
D03*
D11*
X1186500Y316750D02*
D03*
Y323250D02*
D03*
Y329750D02*
D03*
Y336250D02*
D03*
Y342750D02*
D03*
Y349250D02*
D03*
Y355750D02*
D03*
Y362250D02*
D03*
Y277750D02*
D03*
Y284250D02*
D03*
Y290750D02*
D03*
Y297250D02*
D03*
Y303750D02*
D03*
Y310250D02*
D03*
X1243500Y277750D02*
D03*
Y362250D02*
D03*
Y355750D02*
D03*
Y349250D02*
D03*
Y342750D02*
D03*
Y336250D02*
D03*
Y329750D02*
D03*
Y323250D02*
D03*
Y316750D02*
D03*
Y310250D02*
D03*
Y303750D02*
D03*
Y297250D02*
D03*
Y290750D02*
D03*
Y284250D02*
D03*
X459000Y389250D02*
D03*
Y395750D02*
D03*
Y402250D02*
D03*
Y408750D02*
D03*
Y415250D02*
D03*
Y421750D02*
D03*
Y428250D02*
D03*
Y434750D02*
D03*
Y350250D02*
D03*
Y356750D02*
D03*
Y363250D02*
D03*
Y369750D02*
D03*
Y376250D02*
D03*
Y382750D02*
D03*
X516000Y350250D02*
D03*
Y434750D02*
D03*
Y428250D02*
D03*
Y421750D02*
D03*
Y415250D02*
D03*
Y408750D02*
D03*
Y402250D02*
D03*
Y395750D02*
D03*
Y389250D02*
D03*
Y382750D02*
D03*
Y376250D02*
D03*
Y369750D02*
D03*
Y363250D02*
D03*
Y356750D02*
D03*
D12*
X567500Y390000D02*
D03*
D13*
X563500Y411000D02*
D03*
X571500D02*
D03*
X579500D02*
D03*
X555500D02*
D03*
X579500Y369000D02*
D03*
X571500D02*
D03*
X563500D02*
D03*
X555500D02*
D03*
D14*
X270000Y17500D02*
D03*
Y30200D02*
D03*
Y42900D02*
D03*
Y55600D02*
D03*
X221000Y17500D02*
D03*
Y30200D02*
D03*
Y42900D02*
D03*
Y55600D02*
D03*
D15*
X682500Y317500D02*
D03*
D16*
X685750Y289000D02*
D03*
X679250D02*
D03*
X672750D02*
D03*
X666250D02*
D03*
X659750D02*
D03*
X653250D02*
D03*
X646750D02*
D03*
X640250D02*
D03*
X724750D02*
D03*
X718250D02*
D03*
X711750D02*
D03*
X705250D02*
D03*
X698750D02*
D03*
X692250D02*
D03*
X724750Y346000D02*
D03*
X640250D02*
D03*
X646750D02*
D03*
X653250D02*
D03*
X659750D02*
D03*
X666250D02*
D03*
X672750D02*
D03*
X679250D02*
D03*
X685750D02*
D03*
X692250D02*
D03*
X698750D02*
D03*
X705250D02*
D03*
X711750D02*
D03*
X718250D02*
D03*
D17*
X1210000Y377500D02*
D03*
X1200000D02*
D03*
X482500Y447500D02*
D03*
X472500D02*
D03*
X535000Y370000D02*
D03*
X545000D02*
D03*
X555000Y432500D02*
D03*
X565000D02*
D03*
X635000Y365000D02*
D03*
X645000D02*
D03*
X535000Y380000D02*
D03*
X545000D02*
D03*
X665000Y365000D02*
D03*
X655000D02*
D03*
X217500Y75000D02*
D03*
X207500D02*
D03*
X197500Y75000D02*
D03*
X187500D02*
D03*
X177500Y55000D02*
D03*
X187500D02*
D03*
X645000Y272500D02*
D03*
X635000D02*
D03*
X1465000Y5000D02*
D03*
X1475000D02*
D03*
X990000Y322500D02*
D03*
X980000D02*
D03*
X1230000Y377500D02*
D03*
X1220000D02*
D03*
X502500Y447500D02*
D03*
X492500D02*
D03*
X555000Y442500D02*
D03*
X565000D02*
D03*
X187500Y65000D02*
D03*
X177500D02*
D03*
X240000Y2500D02*
D03*
X250000D02*
D03*
D18*
X1525000Y20000D02*
D03*
Y30000D02*
D03*
X62500Y15000D02*
D03*
Y5000D02*
D03*
X340000Y320000D02*
D03*
Y330000D02*
D03*
X352500Y320000D02*
D03*
Y330000D02*
D03*
X300000Y40000D02*
D03*
Y30000D02*
D03*
X197500Y65000D02*
D03*
Y55000D02*
D03*
X627500Y345000D02*
D03*
Y335000D02*
D03*
X500000Y262500D02*
D03*
Y272500D02*
D03*
Y282500D02*
D03*
Y292500D02*
D03*
X1042500Y247500D02*
D03*
Y257500D02*
D03*
X1150000Y237500D02*
D03*
Y247500D02*
D03*
D19*
X157500Y147000D02*
D03*
Y168000D02*
D03*
D20*
X105000Y68500D02*
D03*
Y21500D02*
D03*
D21*
X425000Y243200D02*
D03*
Y196800D02*
D03*
D22*
X518200Y170000D02*
D03*
X471800D02*
D03*
X195700Y27500D02*
D03*
X149300D02*
D03*
D23*
X182000Y167500D02*
D03*
X203000D02*
D03*
D24*
X260000Y75000D02*
D03*
X230000D02*
D03*
D25*
X515550Y247500D02*
D03*
X528250D02*
D03*
X540950D02*
D03*
X553650D02*
D03*
X566350D02*
D03*
X579050D02*
D03*
X591750D02*
D03*
X604450D02*
D03*
X515550Y307500D02*
D03*
X528250D02*
D03*
X540950D02*
D03*
X553650D02*
D03*
X566350D02*
D03*
X579050D02*
D03*
X591750D02*
D03*
X604450D02*
D03*
D26*
X1072500Y246950D02*
D03*
Y234250D02*
D03*
Y221550D02*
D03*
Y208850D02*
D03*
Y196150D02*
D03*
Y183450D02*
D03*
Y170750D02*
D03*
Y158050D02*
D03*
X1132500Y246950D02*
D03*
Y234250D02*
D03*
Y221550D02*
D03*
Y208850D02*
D03*
Y196150D02*
D03*
Y183450D02*
D03*
Y170750D02*
D03*
Y158050D02*
D03*
M02*
