G04 Layer_Color=8421504*
%FSLAX44Y44*%
%MOMM*%
G71*
G01*
G75*
%ADD10R,0.6000X0.6000*%
%ADD11R,0.6000X0.6000*%
%ADD12O,1.7000X0.3500*%
%ADD13R,2.2000X5.5000*%
%ADD14O,2.1500X0.6000*%
%ADD15C,1.5000*%
%ADD16O,0.3500X1.7000*%
%ADD17R,5.5000X2.2000*%
G04:AMPARAMS|DCode=18|XSize=1.2mm|YSize=0.5mm|CornerRadius=0.125mm|HoleSize=0mm|Usage=FLASHONLY|Rotation=90.000|XOffset=0mm|YOffset=0mm|HoleType=Round|Shape=RoundedRectangle|*
%AMROUNDEDRECTD18*
21,1,1.2000,0.2500,0,0,90.0*
21,1,0.9500,0.5000,0,0,90.0*
1,1,0.2500,0.1250,0.4750*
1,1,0.2500,0.1250,-0.4750*
1,1,0.2500,-0.1250,-0.4750*
1,1,0.2500,-0.1250,0.4750*
%
%ADD18ROUNDEDRECTD18*%
%ADD19R,3.0000X2.3000*%
%ADD20R,1.3000X3.5000*%
%ADD21O,0.6000X2.1500*%
%ADD22R,3.5000X1.3000*%
%ADD23R,6.5000X2.0000*%
%ADD24O,2.5000X0.7000*%
%ADD25R,1.1000X1.6000*%
%ADD26R,1.0000X1.5000*%
%ADD27R,1.5000X1.0000*%
D10*
X1525000Y30000D02*
D03*
Y20000D02*
D03*
X1150000Y237500D02*
D03*
Y247500D02*
D03*
X1042500D02*
D03*
Y257500D02*
D03*
X627500Y335000D02*
D03*
Y345000D02*
D03*
X500000Y282500D02*
D03*
Y292500D02*
D03*
Y262500D02*
D03*
Y272500D02*
D03*
X340000Y330000D02*
D03*
Y320000D02*
D03*
X352500Y330000D02*
D03*
Y320000D02*
D03*
X62500Y5000D02*
D03*
Y15000D02*
D03*
X300000Y30000D02*
D03*
Y40000D02*
D03*
X197500Y55000D02*
D03*
Y65000D02*
D03*
X652500Y175000D02*
D03*
Y165000D02*
D03*
Y185000D02*
D03*
Y195000D02*
D03*
X662500Y200000D02*
D03*
Y190000D02*
D03*
X942500Y177500D02*
D03*
Y187500D02*
D03*
X952500Y177500D02*
D03*
Y187500D02*
D03*
X1045000Y209478D02*
D03*
Y219478D02*
D03*
D11*
X1475000Y5000D02*
D03*
X1465000D02*
D03*
X1200000Y377500D02*
D03*
X1210000D02*
D03*
X1220000D02*
D03*
X1230000D02*
D03*
X980000Y322500D02*
D03*
X990000D02*
D03*
X635000Y272500D02*
D03*
X645000D02*
D03*
X645000Y365000D02*
D03*
X635000D02*
D03*
X655000D02*
D03*
X665000D02*
D03*
X545000Y370000D02*
D03*
X535000D02*
D03*
X545000Y380000D02*
D03*
X535000D02*
D03*
X565000Y442500D02*
D03*
X555000D02*
D03*
X565000Y432500D02*
D03*
X555000D02*
D03*
X472500Y447500D02*
D03*
X482500D02*
D03*
X492500D02*
D03*
X502500D02*
D03*
X250000Y2500D02*
D03*
X240000D02*
D03*
X207500Y75000D02*
D03*
X217500D02*
D03*
X187500Y75000D02*
D03*
X197500D02*
D03*
X177500Y65000D02*
D03*
X187500D02*
D03*
X187500Y55000D02*
D03*
X177500D02*
D03*
X800000Y212500D02*
D03*
X810000D02*
D03*
X827500D02*
D03*
X837500D02*
D03*
X857500D02*
D03*
X847500D02*
D03*
X867500D02*
D03*
X877500D02*
D03*
X897500D02*
D03*
X887500D02*
D03*
X907500D02*
D03*
X917500D02*
D03*
X1042500Y237500D02*
D03*
X1032500D02*
D03*
D12*
X1243500Y284250D02*
D03*
Y290750D02*
D03*
Y297250D02*
D03*
Y303750D02*
D03*
Y310250D02*
D03*
Y316750D02*
D03*
Y323250D02*
D03*
Y329750D02*
D03*
Y336250D02*
D03*
Y342750D02*
D03*
Y349250D02*
D03*
Y355750D02*
D03*
Y362250D02*
D03*
Y277750D02*
D03*
X1186500Y310250D02*
D03*
Y303750D02*
D03*
Y297250D02*
D03*
Y290750D02*
D03*
Y284250D02*
D03*
Y277750D02*
D03*
Y362250D02*
D03*
Y355750D02*
D03*
Y349250D02*
D03*
Y342750D02*
D03*
Y336250D02*
D03*
Y329750D02*
D03*
Y323250D02*
D03*
Y316750D02*
D03*
X516000Y356750D02*
D03*
Y363250D02*
D03*
Y369750D02*
D03*
Y376250D02*
D03*
Y382750D02*
D03*
Y389250D02*
D03*
Y395750D02*
D03*
Y402250D02*
D03*
Y408750D02*
D03*
Y415250D02*
D03*
Y421750D02*
D03*
Y428250D02*
D03*
Y434750D02*
D03*
Y350250D02*
D03*
X459000Y382750D02*
D03*
Y376250D02*
D03*
Y369750D02*
D03*
Y363250D02*
D03*
Y356750D02*
D03*
Y350250D02*
D03*
Y434750D02*
D03*
Y428250D02*
D03*
Y421750D02*
D03*
Y415250D02*
D03*
Y408750D02*
D03*
Y402250D02*
D03*
Y395750D02*
D03*
Y389250D02*
D03*
D13*
X1215000Y320000D02*
D03*
X487500Y392500D02*
D03*
D14*
X1072500Y246950D02*
D03*
Y234250D02*
D03*
Y221550D02*
D03*
Y208850D02*
D03*
Y196150D02*
D03*
Y183450D02*
D03*
Y170750D02*
D03*
Y158050D02*
D03*
X1132500Y246950D02*
D03*
Y234250D02*
D03*
Y221550D02*
D03*
Y208850D02*
D03*
Y196150D02*
D03*
Y183450D02*
D03*
Y170750D02*
D03*
Y158050D02*
D03*
D15*
X597500Y332500D02*
D03*
Y357500D02*
D03*
Y385000D02*
D03*
X1170000Y240000D02*
D03*
Y262500D02*
D03*
X655000Y257500D02*
D03*
X680000Y267500D02*
D03*
D16*
X718250Y346000D02*
D03*
X711750D02*
D03*
X705250D02*
D03*
X698750D02*
D03*
X692250D02*
D03*
X685750D02*
D03*
X679250D02*
D03*
X672750D02*
D03*
X666250D02*
D03*
X659750D02*
D03*
X653250D02*
D03*
X646750D02*
D03*
X640250D02*
D03*
X724750D02*
D03*
X692250Y289000D02*
D03*
X698750D02*
D03*
X705250D02*
D03*
X711750D02*
D03*
X718250D02*
D03*
X724750D02*
D03*
X640250D02*
D03*
X646750D02*
D03*
X653250D02*
D03*
X659750D02*
D03*
X666250D02*
D03*
X672750D02*
D03*
X679250D02*
D03*
X685750D02*
D03*
D17*
X682500Y317500D02*
D03*
D18*
X555500Y369000D02*
D03*
X563500D02*
D03*
X571500D02*
D03*
X579500D02*
D03*
X555500Y411000D02*
D03*
X579500D02*
D03*
X571500D02*
D03*
X563500D02*
D03*
D19*
X567500Y390000D02*
D03*
D20*
X471800Y170000D02*
D03*
X518200D02*
D03*
X149300Y27500D02*
D03*
X195700D02*
D03*
D21*
X515550Y247500D02*
D03*
X528250D02*
D03*
X540950D02*
D03*
X553650D02*
D03*
X566350D02*
D03*
X579050D02*
D03*
X591750D02*
D03*
X604450D02*
D03*
X515550Y307500D02*
D03*
X528250D02*
D03*
X540950D02*
D03*
X553650D02*
D03*
X566350D02*
D03*
X579050D02*
D03*
X591750D02*
D03*
X604450D02*
D03*
D22*
X425000Y196800D02*
D03*
Y243200D02*
D03*
D23*
X105000Y21500D02*
D03*
Y68500D02*
D03*
D24*
X221000Y55600D02*
D03*
Y42900D02*
D03*
Y30200D02*
D03*
Y17500D02*
D03*
X270000Y55600D02*
D03*
Y42900D02*
D03*
Y30200D02*
D03*
Y17500D02*
D03*
D25*
X230000Y75000D02*
D03*
X260000D02*
D03*
D26*
X203000Y167500D02*
D03*
X182000D02*
D03*
D27*
X157500Y168000D02*
D03*
Y147000D02*
D03*
M02*
