G04 Layer_Color=8388736*
%FSLAX44Y44*%
%MOMM*%
G71*
G01*
G75*
%ADD65R,0.8032X0.8032*%
%ADD66R,0.8032X0.8032*%
%ADD67O,1.9032X0.5532*%
%ADD68R,2.4032X5.7032*%
%ADD69O,2.3532X0.8032*%
%ADD70C,1.7032*%
%ADD71O,0.5532X1.9032*%
%ADD72R,5.7032X2.4032*%
G04:AMPARAMS|DCode=73|XSize=1.4032mm|YSize=0.7032mm|CornerRadius=0.2266mm|HoleSize=0mm|Usage=FLASHONLY|Rotation=90.000|XOffset=0mm|YOffset=0mm|HoleType=Round|Shape=RoundedRectangle|*
%AMROUNDEDRECTD73*
21,1,1.4032,0.2500,0,0,90.0*
21,1,0.9500,0.7032,0,0,90.0*
1,1,0.4532,0.1250,0.4750*
1,1,0.4532,0.1250,-0.4750*
1,1,0.4532,-0.1250,-0.4750*
1,1,0.4532,-0.1250,0.4750*
%
%ADD73ROUNDEDRECTD73*%
%ADD74R,3.2032X2.5032*%
%ADD75R,1.5032X3.7032*%
%ADD76O,0.8032X2.3532*%
%ADD77R,3.7032X1.5032*%
%ADD78R,6.7032X2.2032*%
%ADD79O,2.7032X0.9032*%
%ADD80R,1.3032X1.8032*%
%ADD81R,1.2032X1.7032*%
%ADD82R,1.7032X1.2032*%
%ADD83R,1.0532X1.2032*%
G04:AMPARAMS|DCode=84|XSize=1.0532mm|YSize=1.2032mm|CornerRadius=0mm|HoleSize=0mm|Usage=FLASHONLY|Rotation=225.000|XOffset=0mm|YOffset=0mm|HoleType=Round|Shape=Rectangle|*
%AMROTATEDRECTD84*
4,1,4,-0.0530,0.7978,0.7978,-0.0530,0.0530,-0.7978,-0.7978,0.0530,-0.0530,0.7978,0.0*
%
%ADD84ROTATEDRECTD84*%

%ADD85R,1.2032X1.0532*%
%ADD86R,1.7032X1.7032*%
%ADD87C,1.8032*%
%ADD88R,1.7032X1.7032*%
%ADD89C,1.5532*%
%ADD90C,1.7272*%
%ADD91C,0.9032*%
D65*
X1525000Y30000D02*
D03*
Y20000D02*
D03*
X1150000Y237500D02*
D03*
Y247500D02*
D03*
X1042500D02*
D03*
Y257500D02*
D03*
X627500Y335000D02*
D03*
Y345000D02*
D03*
X500000Y282500D02*
D03*
Y292500D02*
D03*
Y262500D02*
D03*
Y272500D02*
D03*
X340000Y330000D02*
D03*
Y320000D02*
D03*
X352500Y330000D02*
D03*
Y320000D02*
D03*
X62500Y5000D02*
D03*
Y15000D02*
D03*
X300000Y30000D02*
D03*
Y40000D02*
D03*
X197500Y55000D02*
D03*
Y65000D02*
D03*
X652500Y175000D02*
D03*
Y165000D02*
D03*
Y185000D02*
D03*
Y195000D02*
D03*
X662500Y200000D02*
D03*
Y190000D02*
D03*
X942500Y177500D02*
D03*
Y187500D02*
D03*
X952500Y177500D02*
D03*
Y187500D02*
D03*
X1045000Y209478D02*
D03*
Y219478D02*
D03*
D66*
X1475000Y5000D02*
D03*
X1465000D02*
D03*
X1200000Y377500D02*
D03*
X1210000D02*
D03*
X1220000D02*
D03*
X1230000D02*
D03*
X980000Y322500D02*
D03*
X990000D02*
D03*
X635000Y272500D02*
D03*
X645000D02*
D03*
X645000Y365000D02*
D03*
X635000D02*
D03*
X655000D02*
D03*
X665000D02*
D03*
X545000Y370000D02*
D03*
X535000D02*
D03*
X545000Y380000D02*
D03*
X535000D02*
D03*
X565000Y442500D02*
D03*
X555000D02*
D03*
X565000Y432500D02*
D03*
X555000D02*
D03*
X472500Y447500D02*
D03*
X482500D02*
D03*
X492500D02*
D03*
X502500D02*
D03*
X250000Y2500D02*
D03*
X240000D02*
D03*
X207500Y75000D02*
D03*
X217500D02*
D03*
X187500Y75000D02*
D03*
X197500D02*
D03*
X177500Y65000D02*
D03*
X187500D02*
D03*
X187500Y55000D02*
D03*
X177500D02*
D03*
X800000Y212500D02*
D03*
X810000D02*
D03*
X827500D02*
D03*
X837500D02*
D03*
X857500D02*
D03*
X847500D02*
D03*
X867500D02*
D03*
X877500D02*
D03*
X897500D02*
D03*
X887500D02*
D03*
X907500D02*
D03*
X917500D02*
D03*
X1042500Y237500D02*
D03*
X1032500D02*
D03*
D67*
X1243500Y284250D02*
D03*
Y290750D02*
D03*
Y297250D02*
D03*
Y303750D02*
D03*
Y310250D02*
D03*
Y316750D02*
D03*
Y323250D02*
D03*
Y329750D02*
D03*
Y336250D02*
D03*
Y342750D02*
D03*
Y349250D02*
D03*
Y355750D02*
D03*
Y362250D02*
D03*
Y277750D02*
D03*
X1186500Y310250D02*
D03*
Y303750D02*
D03*
Y297250D02*
D03*
Y290750D02*
D03*
Y284250D02*
D03*
Y277750D02*
D03*
Y362250D02*
D03*
Y355750D02*
D03*
Y349250D02*
D03*
Y342750D02*
D03*
Y336250D02*
D03*
Y329750D02*
D03*
Y323250D02*
D03*
Y316750D02*
D03*
X516000Y356750D02*
D03*
Y363250D02*
D03*
Y369750D02*
D03*
Y376250D02*
D03*
Y382750D02*
D03*
Y389250D02*
D03*
Y395750D02*
D03*
Y402250D02*
D03*
Y408750D02*
D03*
Y415250D02*
D03*
Y421750D02*
D03*
Y428250D02*
D03*
Y434750D02*
D03*
Y350250D02*
D03*
X459000Y382750D02*
D03*
Y376250D02*
D03*
Y369750D02*
D03*
Y363250D02*
D03*
Y356750D02*
D03*
Y350250D02*
D03*
Y434750D02*
D03*
Y428250D02*
D03*
Y421750D02*
D03*
Y415250D02*
D03*
Y408750D02*
D03*
Y402250D02*
D03*
Y395750D02*
D03*
Y389250D02*
D03*
D68*
X1215000Y320000D02*
D03*
X487500Y392500D02*
D03*
D69*
X1072500Y246950D02*
D03*
Y234250D02*
D03*
Y221550D02*
D03*
Y208850D02*
D03*
Y196150D02*
D03*
Y183450D02*
D03*
Y170750D02*
D03*
Y158050D02*
D03*
X1132500Y246950D02*
D03*
Y234250D02*
D03*
Y221550D02*
D03*
Y208850D02*
D03*
Y196150D02*
D03*
Y183450D02*
D03*
Y170750D02*
D03*
Y158050D02*
D03*
D70*
X597500Y332500D02*
D03*
Y357500D02*
D03*
Y385000D02*
D03*
X1170000Y240000D02*
D03*
Y262500D02*
D03*
X655000Y257500D02*
D03*
X680000Y267500D02*
D03*
X719600Y457500D02*
D03*
X694200D02*
D03*
X668800D02*
D03*
X643400D02*
D03*
X300000Y107500D02*
D03*
X689350Y166944D02*
D03*
X714750Y192344D02*
D03*
Y166944D02*
D03*
X740150Y192344D02*
D03*
Y166944D02*
D03*
X765550Y192344D02*
D03*
Y166944D02*
D03*
X790950Y192344D02*
D03*
Y166944D02*
D03*
X816350Y192344D02*
D03*
Y166944D02*
D03*
X841750Y192344D02*
D03*
Y166944D02*
D03*
X867150Y192344D02*
D03*
Y166944D02*
D03*
X892550Y192344D02*
D03*
Y166944D02*
D03*
X917950Y192344D02*
D03*
Y166944D02*
D03*
D71*
X718250Y346000D02*
D03*
X711750D02*
D03*
X705250D02*
D03*
X698750D02*
D03*
X692250D02*
D03*
X685750D02*
D03*
X679250D02*
D03*
X672750D02*
D03*
X666250D02*
D03*
X659750D02*
D03*
X653250D02*
D03*
X646750D02*
D03*
X640250D02*
D03*
X724750D02*
D03*
X692250Y289000D02*
D03*
X698750D02*
D03*
X705250D02*
D03*
X711750D02*
D03*
X718250D02*
D03*
X724750D02*
D03*
X640250D02*
D03*
X646750D02*
D03*
X653250D02*
D03*
X659750D02*
D03*
X666250D02*
D03*
X672750D02*
D03*
X679250D02*
D03*
X685750D02*
D03*
D72*
X682500Y317500D02*
D03*
D73*
X555500Y369000D02*
D03*
X563500D02*
D03*
X571500D02*
D03*
X579500D02*
D03*
X555500Y411000D02*
D03*
X579500D02*
D03*
X571500D02*
D03*
X563500D02*
D03*
D74*
X567500Y390000D02*
D03*
D75*
X471800Y170000D02*
D03*
X518200D02*
D03*
X149300Y27500D02*
D03*
X195700D02*
D03*
D76*
X515550Y247500D02*
D03*
X528250D02*
D03*
X540950D02*
D03*
X553650D02*
D03*
X566350D02*
D03*
X579050D02*
D03*
X591750D02*
D03*
X604450D02*
D03*
X515550Y307500D02*
D03*
X528250D02*
D03*
X540950D02*
D03*
X553650D02*
D03*
X566350D02*
D03*
X579050D02*
D03*
X591750D02*
D03*
X604450D02*
D03*
D77*
X425000Y196800D02*
D03*
Y243200D02*
D03*
D78*
X105000Y21500D02*
D03*
Y68500D02*
D03*
D79*
X221000Y55600D02*
D03*
Y42900D02*
D03*
Y30200D02*
D03*
Y17500D02*
D03*
X270000Y55600D02*
D03*
Y42900D02*
D03*
Y30200D02*
D03*
Y17500D02*
D03*
D80*
X230000Y75000D02*
D03*
X260000D02*
D03*
D81*
X203000Y167500D02*
D03*
X182000D02*
D03*
D82*
X157500Y168000D02*
D03*
Y147000D02*
D03*
D83*
X1551100Y-6556D02*
D03*
X1538600D02*
D03*
X1526100D02*
D03*
X1513600D02*
D03*
X100100Y-7556D02*
D03*
X87600D02*
D03*
X75100D02*
D03*
X62600D02*
D03*
X366100Y304444D02*
D03*
X353600D02*
D03*
X341100D02*
D03*
X328600D02*
D03*
D84*
X1439104Y12443D02*
D03*
X1447942Y21282D02*
D03*
X1456781Y30121D02*
D03*
X1465620Y38960D02*
D03*
X1311853Y169193D02*
D03*
X1320692Y178032D02*
D03*
X1329531Y186871D02*
D03*
X1338370Y195710D02*
D03*
X267097Y277446D02*
D03*
X258258Y268608D02*
D03*
X249419Y259769D02*
D03*
X240580Y250930D02*
D03*
D85*
X1016350Y334440D02*
D03*
Y321940D02*
D03*
Y309440D02*
D03*
Y296940D02*
D03*
D86*
X745000Y457500D02*
D03*
X689350Y192344D02*
D03*
D87*
X415943Y154617D02*
D03*
X547500Y202500D02*
D03*
D88*
X300000Y72500D02*
D03*
D89*
X1393166Y286274D02*
D03*
X1418566D02*
D03*
X1459779Y219641D02*
D03*
X1485179D02*
D03*
X1544464Y146431D02*
D03*
X1519064D02*
D03*
X1595771Y67444D02*
D03*
X1570371D02*
D03*
X365159Y391479D02*
D03*
X342138Y402214D02*
D03*
X435380Y427108D02*
D03*
X439791Y452122D02*
D03*
X625508Y488797D02*
D03*
X607548Y506757D02*
D03*
X1171917Y427128D02*
D03*
X1167506Y452142D02*
D03*
X1265727Y400791D02*
D03*
X1241570Y392942D02*
D03*
X696348Y237444D02*
D03*
X670948D02*
D03*
X674668Y378464D02*
D03*
X692629Y396424D02*
D03*
X525533Y460695D02*
D03*
Y486095D02*
D03*
X709573Y499814D02*
D03*
Y525214D02*
D03*
X803649Y504744D02*
D03*
Y530144D02*
D03*
X897724Y499814D02*
D03*
Y525214D02*
D03*
X981789Y488797D02*
D03*
X999749Y506757D02*
D03*
X910948Y387444D02*
D03*
X936348D02*
D03*
X910948Y317444D02*
D03*
X936348D02*
D03*
X910948Y262444D02*
D03*
X936348D02*
D03*
X1072784Y464414D02*
D03*
X1090744Y482375D02*
D03*
X1319955Y345539D02*
D03*
X1345355D02*
D03*
X482421Y324481D02*
D03*
X457021D02*
D03*
X482421Y269481D02*
D03*
X457021D02*
D03*
X482421Y214481D02*
D03*
X457021D02*
D03*
X287342Y345539D02*
D03*
X261942D02*
D03*
X214131Y286254D02*
D03*
X188731D02*
D03*
X147518Y219622D02*
D03*
X122118D02*
D03*
X88233Y146431D02*
D03*
X62833D02*
D03*
X36926Y67424D02*
D03*
X11526D02*
D03*
D90*
X854448Y408644D02*
D03*
X829048D02*
D03*
X803649D02*
D03*
X778249D02*
D03*
X752849D02*
D03*
X854448Y256244D02*
D03*
X829048D02*
D03*
X803649D02*
D03*
X778249D02*
D03*
X752849D02*
D03*
D91*
X970000Y165000D02*
D03*
M02*
