G04 Layer_Color=16711935*
%FSLAX44Y44*%
%MOMM*%
G71*
G01*
G75*
%ADD65R,0.8032X0.8032*%
%ADD66R,0.8032X0.8032*%
%ADD70C,1.7032*%
%ADD76O,0.8032X2.3532*%
%ADD82R,1.7032X1.2032*%
%ADD83R,1.7032X1.7032*%
%ADD84C,1.8032*%
%ADD85R,1.7032X1.7032*%
%ADD86C,1.5532*%
%ADD87C,1.7272*%
%ADD88R,1.0032X1.2032*%
G04:AMPARAMS|DCode=89|XSize=1.0032mm|YSize=1.2032mm|CornerRadius=0mm|HoleSize=0mm|Usage=FLASHONLY|Rotation=45.000|XOffset=0mm|YOffset=0mm|HoleType=Round|Shape=Rectangle|*
%AMROTATEDRECTD89*
4,1,4,0.0707,-0.7801,-0.7801,0.0707,-0.0707,0.7801,0.7801,-0.0707,0.0707,-0.7801,0.0*
%
%ADD89ROTATEDRECTD89*%

%ADD90R,1.2032X1.0032*%
%ADD92R,1.7032X1.4032*%
%ADD93R,1.4032X1.7032*%
%ADD94R,1.2532X0.8532*%
G04:AMPARAMS|DCode=95|XSize=1.1532mm|YSize=1.0532mm|CornerRadius=0mm|HoleSize=0mm|Usage=FLASHONLY|Rotation=45.000|XOffset=0mm|YOffset=0mm|HoleType=Round|Shape=Rectangle|*
%AMROTATEDRECTD95*
4,1,4,-0.0353,-0.7801,-0.7801,-0.0353,0.0353,0.7801,0.7801,0.0353,-0.0353,-0.7801,0.0*
%
%ADD95ROTATEDRECTD95*%

%ADD96P,1.1359X4X270.0*%
%ADD97P,1.1359X4X360.0*%
%ADD98O,2.0032X0.5032*%
%ADD99O,0.5032X2.0032*%
%ADD100R,0.8332X1.0332*%
%ADD101R,2.9732X2.7532*%
D65*
X592500Y425000D02*
D03*
Y415000D02*
D03*
X622500Y267500D02*
D03*
Y277500D02*
D03*
X632500Y277500D02*
D03*
Y267500D02*
D03*
X890000Y295000D02*
D03*
Y305000D02*
D03*
Y315000D02*
D03*
Y325000D02*
D03*
X767500Y455000D02*
D03*
Y465000D02*
D03*
X510000Y405000D02*
D03*
Y395000D02*
D03*
X500000Y395000D02*
D03*
Y405000D02*
D03*
X567500Y247500D02*
D03*
Y237500D02*
D03*
X537500Y257500D02*
D03*
Y267500D02*
D03*
X527500Y257500D02*
D03*
Y267500D02*
D03*
X547500Y267500D02*
D03*
Y257500D02*
D03*
X557500Y257500D02*
D03*
Y267500D02*
D03*
D66*
X612500D02*
D03*
X602500D02*
D03*
X967500Y355000D02*
D03*
X977500D02*
D03*
X967500Y365000D02*
D03*
X977500D02*
D03*
X967500Y375000D02*
D03*
X977500D02*
D03*
X632500Y395000D02*
D03*
X622500D02*
D03*
X572500Y202500D02*
D03*
X562500D02*
D03*
X572500Y212500D02*
D03*
X562500D02*
D03*
X547500Y237500D02*
D03*
X557500D02*
D03*
X547500Y247500D02*
D03*
X557500D02*
D03*
X437500Y297500D02*
D03*
X447500D02*
D03*
X362500Y335000D02*
D03*
X352500D02*
D03*
X362500Y345000D02*
D03*
X352500D02*
D03*
X362500Y355000D02*
D03*
X352500D02*
D03*
X782500Y232500D02*
D03*
X772500D02*
D03*
X792500D02*
D03*
X802500D02*
D03*
D70*
X719600Y457500D02*
D03*
X694200D02*
D03*
X668800D02*
D03*
X643400D02*
D03*
X300000Y107500D02*
D03*
X689350Y166944D02*
D03*
X714750Y192344D02*
D03*
Y166944D02*
D03*
X740150Y192344D02*
D03*
Y166944D02*
D03*
X765550Y192344D02*
D03*
Y166944D02*
D03*
X790950Y192344D02*
D03*
Y166944D02*
D03*
X816350Y192344D02*
D03*
Y166944D02*
D03*
X841750Y192344D02*
D03*
Y166944D02*
D03*
X867150Y192344D02*
D03*
Y166944D02*
D03*
X892550Y192344D02*
D03*
Y166944D02*
D03*
X917950Y192344D02*
D03*
Y166944D02*
D03*
D76*
X873100Y280000D02*
D03*
X860400D02*
D03*
X847700D02*
D03*
X835000D02*
D03*
X822300D02*
D03*
X809600D02*
D03*
X796900D02*
D03*
X784200D02*
D03*
X873100Y340000D02*
D03*
X860400D02*
D03*
X847700D02*
D03*
X835000D02*
D03*
X822300D02*
D03*
X809600D02*
D03*
X796900D02*
D03*
X784200D02*
D03*
D82*
X415000Y318000D02*
D03*
Y297000D02*
D03*
D83*
X745000Y457500D02*
D03*
X689350Y192344D02*
D03*
D84*
X413443Y154617D02*
D03*
X545000Y202500D02*
D03*
D85*
X300000Y72500D02*
D03*
D86*
X1393166Y286274D02*
D03*
X1418566D02*
D03*
X1459779Y219641D02*
D03*
X1485179D02*
D03*
X1544464Y146431D02*
D03*
X1519064D02*
D03*
X1595771Y67444D02*
D03*
X1570371D02*
D03*
X365583Y392503D02*
D03*
X341714Y401190D02*
D03*
X435380Y427108D02*
D03*
X439791Y452122D02*
D03*
X625508Y488797D02*
D03*
X607548Y506757D02*
D03*
X1171917Y427128D02*
D03*
X1167506Y452142D02*
D03*
X1265583Y401210D02*
D03*
X1241714Y392523D02*
D03*
X696348Y237444D02*
D03*
X670948D02*
D03*
X674668Y378464D02*
D03*
X692629Y396424D02*
D03*
X525533Y460695D02*
D03*
Y486095D02*
D03*
X709573Y499814D02*
D03*
Y525214D02*
D03*
X803649Y504744D02*
D03*
Y530144D02*
D03*
X897724Y499814D02*
D03*
Y525214D02*
D03*
X981789Y488797D02*
D03*
X999749Y506757D02*
D03*
X910948Y387444D02*
D03*
X936348D02*
D03*
X910948Y317444D02*
D03*
X936348D02*
D03*
X910948Y262444D02*
D03*
X936348D02*
D03*
X1072784Y464414D02*
D03*
X1090744Y482375D02*
D03*
X1319955Y345539D02*
D03*
X1345355D02*
D03*
X482421Y324481D02*
D03*
X457021D02*
D03*
X482421Y269481D02*
D03*
X457021D02*
D03*
X482421Y214481D02*
D03*
X457021D02*
D03*
X287342Y345539D02*
D03*
X261942D02*
D03*
X214131Y286254D02*
D03*
X188731D02*
D03*
X147518Y219622D02*
D03*
X122118D02*
D03*
X88233Y146431D02*
D03*
X62833D02*
D03*
X36926Y67424D02*
D03*
X11526D02*
D03*
D87*
X854448Y408644D02*
D03*
X829048D02*
D03*
X803649D02*
D03*
X778249D02*
D03*
X752849D02*
D03*
X854448Y256244D02*
D03*
X829048D02*
D03*
X803649D02*
D03*
X778249D02*
D03*
X752849D02*
D03*
D88*
X100100Y-7556D02*
D03*
X87600D02*
D03*
X75100D02*
D03*
X62600D02*
D03*
X366100Y304444D02*
D03*
X353600D02*
D03*
X341100D02*
D03*
X328600D02*
D03*
X1551100Y-6556D02*
D03*
X1538600D02*
D03*
X1526100D02*
D03*
X1513600D02*
D03*
D89*
X267097Y277446D02*
D03*
X258258Y268608D02*
D03*
X249419Y259769D02*
D03*
X240580Y250930D02*
D03*
X1311853Y169193D02*
D03*
X1320692Y178032D02*
D03*
X1329531Y186871D02*
D03*
X1338370Y195710D02*
D03*
X1439104Y12443D02*
D03*
X1447942Y21282D02*
D03*
X1456781Y30121D02*
D03*
X1465620Y38960D02*
D03*
D90*
X1016350Y334440D02*
D03*
Y321940D02*
D03*
Y309440D02*
D03*
Y296940D02*
D03*
D92*
X1174800Y371750D02*
D03*
Y356750D02*
D03*
Y341750D02*
D03*
Y326750D02*
D03*
Y311750D02*
D03*
Y296750D02*
D03*
Y281750D02*
D03*
X1302200Y371750D02*
D03*
Y356750D02*
D03*
Y341750D02*
D03*
Y326750D02*
D03*
Y311750D02*
D03*
Y296750D02*
D03*
Y281750D02*
D03*
D93*
X1258700Y381750D02*
D03*
X1275200D02*
D03*
D94*
X782900Y449250D02*
D03*
Y470750D02*
D03*
X824400D02*
D03*
Y449250D02*
D03*
D95*
X704192Y371061D02*
D03*
X696061Y379192D02*
D03*
X685808Y368939D02*
D03*
X693939Y360808D02*
D03*
D96*
X686036Y346465D02*
D03*
X678964Y353535D02*
D03*
X671036Y361465D02*
D03*
X663964Y368535D02*
D03*
D97*
X663536Y396036D02*
D03*
X656464Y388965D02*
D03*
D98*
X630500Y377500D02*
D03*
Y372500D02*
D03*
Y367500D02*
D03*
Y362500D02*
D03*
Y357500D02*
D03*
Y352500D02*
D03*
Y347500D02*
D03*
Y342500D02*
D03*
Y337500D02*
D03*
Y332500D02*
D03*
Y327500D02*
D03*
Y322500D02*
D03*
Y317500D02*
D03*
Y312500D02*
D03*
Y307500D02*
D03*
Y302500D02*
D03*
X519500D02*
D03*
Y307500D02*
D03*
Y312500D02*
D03*
Y317500D02*
D03*
Y322500D02*
D03*
Y327500D02*
D03*
Y332500D02*
D03*
Y337500D02*
D03*
Y342500D02*
D03*
Y347500D02*
D03*
Y352500D02*
D03*
Y357500D02*
D03*
Y362500D02*
D03*
Y367500D02*
D03*
Y372500D02*
D03*
Y377500D02*
D03*
D99*
X612500Y284500D02*
D03*
X607500D02*
D03*
X602500D02*
D03*
X597500D02*
D03*
X592500D02*
D03*
X587500D02*
D03*
X582500D02*
D03*
X577500D02*
D03*
X572500D02*
D03*
X567500D02*
D03*
X562500D02*
D03*
X557500D02*
D03*
X552500D02*
D03*
X547500D02*
D03*
X542500D02*
D03*
X537500D02*
D03*
Y395500D02*
D03*
X542500D02*
D03*
X547500D02*
D03*
X552500D02*
D03*
X557500D02*
D03*
X562500D02*
D03*
X567500D02*
D03*
X572500D02*
D03*
X577500D02*
D03*
X582500D02*
D03*
X587500D02*
D03*
X592500D02*
D03*
X597500D02*
D03*
X602500D02*
D03*
X607500D02*
D03*
X612500D02*
D03*
D100*
X571100Y225000D02*
D03*
X548900D02*
D03*
D101*
X155300Y107500D02*
D03*
X219700D02*
D03*
M02*
