G04 Layer_Physical_Order=2*
G04 Layer_Color=32768*
%FSLAX44Y44*%
%MOMM*%
G71*
G01*
G75*
%ADD43C,1.0160*%
%ADD44C,1.4080*%
%ADD45C,1.7080*%
%ADD46C,1.5080*%
%ADD47C,1.2700*%
%ADD48C,1.0080*%
%ADD49C,0.7580*%
%ADD50C,0.8080*%
G36*
X598753Y189271D02*
X601938Y187952D01*
X604804Y186037D01*
X607242Y183599D01*
X609157Y180733D01*
X610476Y177548D01*
X611148Y174167D01*
Y172444D01*
Y170720D01*
X610476Y167339D01*
X609157Y164154D01*
X607242Y161288D01*
X604804Y158851D01*
X601938Y156936D01*
X598753Y155616D01*
X595372Y154944D01*
X591925D01*
X588544Y155616D01*
X585359Y156936D01*
X582493Y158851D01*
X580055Y161288D01*
X578140Y164154D01*
X576821Y167339D01*
X576148Y170720D01*
Y172444D01*
Y174167D01*
X576821Y177548D01*
X578140Y180733D01*
X580055Y183599D01*
X582493Y186037D01*
X585359Y187952D01*
X588544Y189271D01*
X591925Y189944D01*
X595372D01*
X598753Y189271D01*
D02*
G37*
G36*
X1018753Y189271D02*
X1021938Y187952D01*
X1024804Y186037D01*
X1027242Y183599D01*
X1029157Y180733D01*
X1030476Y177549D01*
X1031149Y174167D01*
Y172444D01*
Y170720D01*
X1030476Y167339D01*
X1029157Y164155D01*
X1027242Y161288D01*
X1024804Y158851D01*
X1021938Y156936D01*
X1018753Y155616D01*
X1015372Y154944D01*
X1011925D01*
X1008544Y155616D01*
X1005359Y156936D01*
X1002493Y158851D01*
X1000055Y161288D01*
X998140Y164155D01*
X996821Y167339D01*
X996149Y170720D01*
Y172444D01*
Y174167D01*
X996821Y177549D01*
X998140Y180733D01*
X1000055Y183599D01*
X1002493Y186037D01*
X1005359Y187952D01*
X1008544Y189271D01*
X1011925Y189944D01*
X1015372D01*
X1018753Y189271D01*
D02*
G37*
G36*
X1409977Y127343D02*
X1416941Y125477D01*
X1423602Y122718D01*
X1429846Y119113D01*
X1435565Y114724D01*
X1440664Y109626D01*
X1445053Y103906D01*
X1448658Y97662D01*
X1451417Y91001D01*
X1453283Y84037D01*
X1454224Y76889D01*
Y73284D01*
Y69679D01*
X1453283Y62531D01*
X1451417Y55567D01*
X1448658Y48906D01*
X1445053Y42662D01*
X1440664Y36942D01*
X1435565Y31844D01*
X1429846Y27455D01*
X1423602Y23850D01*
X1416941Y21091D01*
X1409977Y19225D01*
X1402829Y18284D01*
X1395619D01*
X1388471Y19225D01*
X1381507Y21091D01*
X1374846Y23850D01*
X1368602Y27455D01*
X1362882Y31844D01*
X1357784Y36942D01*
X1353395Y42662D01*
X1349790Y48906D01*
X1347031Y55567D01*
X1345165Y62531D01*
X1344224Y69679D01*
Y73284D01*
Y76889D01*
X1345165Y84037D01*
X1347031Y91001D01*
X1349790Y97662D01*
X1353395Y103906D01*
X1357784Y109626D01*
X1362882Y114724D01*
X1368602Y119113D01*
X1374846Y122718D01*
X1381507Y125477D01*
X1388471Y127343D01*
X1395619Y128284D01*
X1402829D01*
X1409977Y127343D01*
D02*
G37*
G36*
X5105Y16827D02*
X8289Y15508D01*
X11156Y13593D01*
X13593Y11156D01*
X15508Y8289D01*
X16827Y5105D01*
X17500Y1724D01*
Y0D01*
Y-1724D01*
X16827Y-5105D01*
X15508Y-8289D01*
X13593Y-11156D01*
X11156Y-13593D01*
X8289Y-15508D01*
X5105Y-16827D01*
X1724Y-17500D01*
X-1724D01*
X-5105Y-16827D01*
X-8289Y-15508D01*
X-11156Y-13593D01*
X-13593Y-11156D01*
X-15508Y-8289D01*
X-16827Y-5105D01*
X-17500Y-1724D01*
Y0D01*
Y1724D01*
X-16827Y5105D01*
X-15508Y8289D01*
X-13593Y11156D01*
X-11156Y13593D01*
X-8289Y15508D01*
X-5105Y16827D01*
X-1724Y17500D01*
X1724D01*
X5105Y16827D01*
D02*
G37*
G36*
X1612401D02*
X1615586Y15508D01*
X1618452Y13593D01*
X1620890Y11156D01*
X1622805Y8289D01*
X1624124Y5105D01*
X1624797Y1724D01*
Y0D01*
Y-1724D01*
X1624124Y-5105D01*
X1622805Y-8289D01*
X1620890Y-11156D01*
X1618452Y-13593D01*
X1615586Y-15508D01*
X1612401Y-16827D01*
X1609021Y-17500D01*
X1605573D01*
X1602192Y-16827D01*
X1599008Y-15508D01*
X1596141Y-13593D01*
X1593704Y-11156D01*
X1591789Y-8289D01*
X1590469Y-5105D01*
X1589797Y-1724D01*
Y0D01*
Y1724D01*
X1590469Y5105D01*
X1591789Y8289D01*
X1593704Y11156D01*
X1596141Y13593D01*
X1599008Y15508D01*
X1602192Y16827D01*
X1605573Y17500D01*
X1609021D01*
X1612401Y16827D01*
D02*
G37*
G36*
X623753Y454271D02*
X626938Y452952D01*
X629804Y451037D01*
X632242Y448600D01*
X634157Y445733D01*
X635476Y442548D01*
X636148Y439168D01*
Y437444D01*
Y435720D01*
X635476Y432339D01*
X634157Y429155D01*
X632242Y426288D01*
X629804Y423851D01*
X626938Y421936D01*
X623753Y420616D01*
X620372Y419944D01*
X616925D01*
X613544Y420616D01*
X610359Y421936D01*
X607493Y423851D01*
X605055Y426288D01*
X603140Y429155D01*
X601821Y432339D01*
X601148Y435720D01*
Y437444D01*
Y439168D01*
X601821Y442548D01*
X603140Y445733D01*
X605055Y448600D01*
X607493Y451037D01*
X610359Y452952D01*
X613544Y454271D01*
X616925Y454944D01*
X620372D01*
X623753Y454271D01*
D02*
G37*
G36*
X993753D02*
X996938Y452952D01*
X999804Y451037D01*
X1002242Y448600D01*
X1004157Y445733D01*
X1005476Y442548D01*
X1006149Y439168D01*
Y437444D01*
Y435720D01*
X1005476Y432339D01*
X1004157Y429155D01*
X1002242Y426288D01*
X999804Y423851D01*
X996938Y421936D01*
X993753Y420616D01*
X990372Y419944D01*
X986925D01*
X983544Y420616D01*
X980359Y421936D01*
X977493Y423851D01*
X975055Y426288D01*
X973140Y429155D01*
X971821Y432339D01*
X971149Y435720D01*
Y437444D01*
Y439168D01*
X971821Y442548D01*
X973140Y445733D01*
X975055Y448600D01*
X977493Y451037D01*
X980359Y452952D01*
X983544Y454271D01*
X986925Y454944D01*
X990372D01*
X993753Y454271D01*
D02*
G37*
G36*
X397553Y288717D02*
X398960Y287311D01*
X399721Y285473D01*
Y284478D01*
X399721Y284478D01*
Y144478D01*
Y143484D01*
X398960Y141646D01*
X397553Y140239D01*
X395716Y139478D01*
X394721D01*
X394721Y139478D01*
X223727D01*
X221889Y140239D01*
X220482Y141646D01*
X219721Y143484D01*
Y144478D01*
X219721Y144478D01*
Y209478D01*
X299721Y289478D01*
X395716D01*
X397553Y288717D01*
D02*
G37*
G36*
X1268329Y268537D02*
X1275293Y266671D01*
X1281954Y263912D01*
X1288198Y260307D01*
X1293918Y255918D01*
X1299016Y250820D01*
X1303405Y245100D01*
X1307009Y238856D01*
X1309769Y232195D01*
X1311635Y225231D01*
X1312576Y218083D01*
Y214478D01*
Y210873D01*
X1311635Y203725D01*
X1309769Y196761D01*
X1307009Y190100D01*
X1303405Y183856D01*
X1299016Y178136D01*
X1293918Y173038D01*
X1288198Y168649D01*
X1281954Y165044D01*
X1275293Y162285D01*
X1268329Y160419D01*
X1261181Y159478D01*
X1253971D01*
X1246823Y160419D01*
X1239859Y162285D01*
X1233198Y165044D01*
X1226954Y168649D01*
X1221234Y173038D01*
X1216136Y178136D01*
X1211747Y183856D01*
X1208142Y190100D01*
X1205383Y196761D01*
X1203517Y203725D01*
X1202576Y210873D01*
Y214478D01*
Y218083D01*
X1203517Y225231D01*
X1205383Y232195D01*
X1208142Y238856D01*
X1211747Y245100D01*
X1216136Y250820D01*
X1221234Y255918D01*
X1226954Y260307D01*
X1233198Y263912D01*
X1239859Y266671D01*
X1246823Y268537D01*
X1253971Y269478D01*
X1261181D01*
X1268329Y268537D01*
D02*
G37*
G36*
X1094401Y367276D02*
X1101366Y365410D01*
X1108027Y362651D01*
X1114270Y359046D01*
X1119990Y354657D01*
X1125088Y349559D01*
X1129477Y343839D01*
X1133082Y337595D01*
X1135841Y330934D01*
X1137707Y323970D01*
X1138648Y316822D01*
Y313217D01*
Y309612D01*
X1137707Y302464D01*
X1135841Y295500D01*
X1133082Y288839D01*
X1129477Y282595D01*
X1125088Y276875D01*
X1119990Y271777D01*
X1114270Y267388D01*
X1108027Y263783D01*
X1101366Y261024D01*
X1094401Y259158D01*
X1087253Y258217D01*
X1080044D01*
X1072895Y259158D01*
X1065931Y261024D01*
X1059270Y263783D01*
X1053027Y267388D01*
X1047307Y271777D01*
X1042208Y276875D01*
X1037820Y282595D01*
X1034215Y288839D01*
X1031456Y295500D01*
X1029589Y302464D01*
X1028649Y309612D01*
Y313217D01*
Y316822D01*
X1029589Y323970D01*
X1031456Y330934D01*
X1034215Y337595D01*
X1037820Y343839D01*
X1042208Y349559D01*
X1047307Y354657D01*
X1053027Y359046D01*
X1059270Y362651D01*
X1065931Y365410D01*
X1072895Y367276D01*
X1080044Y368217D01*
X1087253D01*
X1094401Y367276D01*
D02*
G37*
D43*
X399721Y284478D02*
X399721Y284478D01*
X399721Y144478D02*
Y284478D01*
X394721Y139478D02*
X394721Y139478D01*
X219721Y144478D02*
X219721Y144478D01*
Y209478D01*
X299721Y289478D01*
X-40107Y0D02*
Y31782D01*
X847879Y556519D02*
X877317Y554669D01*
X906683Y551896D01*
X935948Y548204D01*
X965082Y543596D01*
X994057Y538075D01*
X1022845Y531649D01*
X1051417Y524322D01*
X1079746Y516103D01*
X1107802Y506999D01*
X1135559Y497019D01*
X1149274Y491596D01*
X1152462Y490336D01*
X1158434Y486969D01*
X1163890Y482818D01*
X1168729Y477962D01*
X1172860Y472490D01*
X1176205Y466506D01*
X1178703Y460121D01*
X1180306Y453456D01*
X1180645Y450045D01*
X1181051Y446945D01*
X1182440Y440852D01*
X1184578Y434981D01*
X1187432Y429421D01*
X1190956Y424261D01*
X1195098Y419581D01*
X1199790Y415455D01*
X1204960Y411945D01*
X1210528Y409108D01*
X1216406Y406988D01*
X1222503Y405617D01*
X1228724Y405018D01*
X1234970Y405199D01*
X1241145Y406158D01*
X1247152Y407880D01*
X1252897Y410337D01*
X1255644Y411831D01*
X1258603Y413561D01*
X1264937Y416183D01*
X1271571Y417915D01*
X1278378Y418726D01*
X1285233Y418600D01*
X1292006Y417540D01*
X1298571Y415565D01*
X1304806Y412713D01*
X1307699Y410875D01*
X1318577Y403965D01*
X1339946Y389552D01*
X1360911Y374560D01*
X1381458Y358998D01*
X1401571Y342878D01*
X1421234Y326214D01*
X1440432Y309016D01*
X1459152Y291299D01*
X1477379Y273075D01*
X1495100Y254359D01*
X1512301Y235163D01*
X1528970Y215504D01*
X1545093Y195394D01*
X1560658Y174850D01*
X1575655Y153888D01*
X1590071Y132521D01*
X1603897Y110768D01*
X1617120Y88644D01*
X1629732Y66166D01*
X1641723Y43350D01*
X1647404Y31782D01*
X1647404Y0D01*
X1647404Y-2738D02*
X1647404Y0D01*
X1646660Y-8164D02*
X1647404Y-2738D01*
X1645185Y-13438D02*
X1646660Y-8164D01*
X1643007Y-18462D02*
X1645185Y-13438D01*
X1640167Y-23144D02*
X1643007Y-18462D01*
X1636716Y-27397D02*
X1640167Y-23144D01*
X1632720Y-31141D02*
X1636716Y-27397D01*
X1628252Y-34307D02*
X1632720Y-31141D01*
X1623395Y-36837D02*
X1628252Y-34307D01*
X1618239Y-38683D02*
X1623395Y-36837D01*
X1612880Y-39811D02*
X1618239Y-38683D01*
X1607418Y-40200D02*
X1612880Y-39811D01*
X1601953Y-39844D02*
X1607418Y-40200D01*
X1596588Y-38748D02*
X1601953Y-39844D01*
X1591421Y-36933D02*
X1596588Y-38748D01*
X1586549Y-34432D02*
X1591421Y-36933D01*
X1584305Y-32863D02*
X1586549Y-34432D01*
X1582405Y-31587D02*
X1584305Y-32863D01*
X1578465Y-29256D02*
X1582405Y-31587D01*
X1574359Y-27233D02*
X1578465Y-29256D01*
X1570111Y-25528D02*
X1574359Y-27233D01*
X1565745Y-24153D02*
X1570111Y-25528D01*
X1561287Y-23114D02*
X1565745Y-24153D01*
X1556763Y-22418D02*
X1561287Y-23114D01*
X1552198Y-22069D02*
X1556763Y-22418D01*
X1549910Y-22025D02*
X1552198Y-22069D01*
X1350690Y-22025D02*
X1549910D01*
X1347253Y-22025D02*
X1350690Y-22025D01*
X1340425Y-21241D02*
X1347253Y-22025D01*
X1333731Y-19681D02*
X1340425Y-21241D01*
X1327259Y-17368D02*
X1333731Y-19681D01*
X1321093Y-14331D02*
X1327259Y-17368D01*
X1315315Y-10610D02*
X1321093Y-14331D01*
X1309999Y-6253D02*
X1315315Y-10610D01*
X1305215Y-1318D02*
X1309999Y-6253D01*
X1303121Y1407D02*
X1305215Y-1318D01*
X1297799Y8232D02*
X1303121Y1407D01*
X1286876Y21661D02*
X1297799Y8232D01*
X1275588Y34784D02*
X1286876Y21661D01*
X1263944Y47593D02*
X1275588Y34784D01*
X1251953Y60076D02*
X1263944Y47593D01*
X1239622Y72226D02*
X1251953Y60076D01*
X1226963Y84032D02*
X1239622Y72226D01*
X1213985Y95486D02*
X1226963Y84032D01*
X1200696Y106579D02*
X1213985Y95486D01*
X1187108Y117303D02*
X1200696Y106579D01*
X1173230Y127649D02*
X1187108Y117303D01*
X1159074Y137610D02*
X1173230Y127649D01*
X1151894Y142444D02*
X1159074Y137610D01*
X455403Y142444D02*
X1151894D01*
X448223Y137610D02*
X455403Y142444D01*
X434067Y127649D02*
X448223Y137610D01*
X420189Y117303D02*
X434067Y127649D01*
X406601Y106579D02*
X420189Y117303D01*
X393312Y95486D02*
X406601Y106579D01*
X380334Y84032D02*
X393312Y95486D01*
X367674Y72226D02*
X380334Y84032D01*
X355344Y60076D02*
X367674Y72226D01*
X343353Y47593D02*
X355344Y60076D01*
X331709Y34784D02*
X343353Y47593D01*
X320421Y21661D02*
X331709Y34784D01*
X309498Y8232D02*
X320421Y21661D01*
X304176Y1407D02*
X309498Y8232D01*
X302082Y-1318D02*
X304176Y1407D01*
X297298Y-6253D02*
X302082Y-1318D01*
X291982Y-10610D02*
X297298Y-6253D01*
X286204Y-14331D02*
X291982Y-10610D01*
X280038Y-17368D02*
X286204Y-14331D01*
X273566Y-19681D02*
X280038Y-17368D01*
X266872Y-21241D02*
X273566Y-19681D01*
X260044Y-22025D02*
X266872Y-21241D01*
X256607Y-22025D02*
X260044Y-22025D01*
X57387Y-22025D02*
X256607D01*
X55099Y-22069D02*
X57387Y-22025D01*
X50534Y-22418D02*
X55099Y-22069D01*
X46010Y-23114D02*
X50534Y-22418D01*
X41552Y-24153D02*
X46010Y-23114D01*
X37186Y-25528D02*
X41552Y-24153D01*
X32938Y-27233D02*
X37186Y-25528D01*
X28832Y-29256D02*
X32938Y-27233D01*
X24892Y-31587D02*
X28832Y-29256D01*
X22992Y-32863D02*
X24892Y-31587D01*
X20748Y-34432D02*
X22992Y-32863D01*
X15876Y-36933D02*
X20748Y-34432D01*
X10709Y-38748D02*
X15876Y-36933D01*
X5344Y-39844D02*
X10709Y-38748D01*
X-121Y-40200D02*
X5344Y-39844D01*
X-5583Y-39811D02*
X-121Y-40200D01*
X-10942Y-38683D02*
X-5583Y-39811D01*
X-16098Y-36837D02*
X-10942Y-38683D01*
X-20955Y-34307D02*
X-16098Y-36837D01*
X-25423Y-31141D02*
X-20955Y-34307D01*
X-29419Y-27397D02*
X-25423Y-31141D01*
X-32870Y-23144D02*
X-29419Y-27397D01*
X-35710Y-18462D02*
X-32870Y-23144D01*
X-37888Y-13438D02*
X-35710Y-18462D01*
X-39363Y-8164D02*
X-37888Y-13438D01*
X-40107Y-2738D02*
X-39363Y-8164D01*
X-40107Y-2738D02*
X-40107Y0D01*
Y31782D02*
X-34427Y43350D01*
X-22436Y66166D01*
X-9823Y88644D01*
X3400Y110768D01*
X17225Y132521D01*
X31642Y153888D01*
X46638Y174850D01*
X62204Y195394D01*
X78327Y215504D01*
X94996Y235163D01*
X112197Y254359D01*
X129917Y273075D01*
X148145Y291299D01*
X166865Y309016D01*
X186063Y326214D01*
X205726Y342878D01*
X225839Y358998D01*
X246385Y374560D01*
X267351Y389552D01*
X288720Y403965D01*
X299598Y410875D01*
X302491Y412713D01*
X308726Y415565D01*
X315291Y417540D01*
X322064Y418600D01*
X328919Y418726D01*
X335726Y417915D01*
X342360Y416183D01*
X348694Y413561D01*
X351653Y411831D01*
X354400Y410337D01*
X360145Y407880D01*
X366152Y406158D01*
X372327Y405199D01*
X378573Y405018D01*
X384794Y405617D01*
X390890Y406988D01*
X396769Y409108D01*
X402337Y411945D01*
X407507Y415455D01*
X412199Y419581D01*
X416340Y424261D01*
X419865Y429421D01*
X422719Y434981D01*
X424857Y440852D01*
X426246Y446945D01*
X426652Y450045D01*
X426991Y453456D01*
X428594Y460121D01*
X431091Y466506D01*
X434437Y472490D01*
X438568Y477962D01*
X443407Y482818D01*
X448863Y486969D01*
X454835Y490336D01*
X458023Y491596D01*
X471738Y497019D01*
X499495Y506999D01*
X527551Y516103D01*
X555880Y524322D01*
X584452Y531649D01*
X613240Y538075D01*
X642215Y543596D01*
X671349Y548204D01*
X700614Y551896D01*
X729980Y554669D01*
X759418Y556519D01*
X788900Y557444D01*
X818397D01*
X847879Y556519D01*
X986925Y454944D02*
X990372D01*
X983544Y454271D02*
X986925Y454944D01*
X980359Y452952D02*
X983544Y454271D01*
X977493Y451037D02*
X980359Y452952D01*
X975055Y448600D02*
X977493Y451037D01*
X973140Y445733D02*
X975055Y448600D01*
X971821Y442548D02*
X973140Y445733D01*
X971149Y439168D02*
X971821Y442548D01*
X971149Y437444D02*
Y439168D01*
Y435720D02*
Y437444D01*
Y435720D02*
X971821Y432339D01*
X973140Y429155D01*
X975055Y426288D01*
X977493Y423851D01*
X980359Y421936D01*
X983544Y420616D01*
X986925Y419944D01*
X990372D01*
X993753Y420616D01*
X996938Y421936D01*
X999804Y423851D01*
X1002242Y426288D01*
X1004157Y429155D01*
X1005476Y432339D01*
X1006149Y435720D01*
Y437444D01*
Y439168D01*
X1005476Y442548D02*
X1006149Y439168D01*
X1004157Y445733D02*
X1005476Y442548D01*
X1002242Y448600D02*
X1004157Y445733D01*
X999804Y451037D02*
X1002242Y448600D01*
X996938Y452952D02*
X999804Y451037D01*
X993753Y454271D02*
X996938Y452952D01*
X990372Y454944D02*
X993753Y454271D01*
X616925Y454944D02*
X620372D01*
X613544Y454271D02*
X616925Y454944D01*
X610359Y452952D02*
X613544Y454271D01*
X607493Y451037D02*
X610359Y452952D01*
X605055Y448600D02*
X607493Y451037D01*
X603140Y445733D02*
X605055Y448600D01*
X601821Y442548D02*
X603140Y445733D01*
X601148Y439168D02*
X601821Y442548D01*
X601148Y437444D02*
Y439168D01*
Y435720D02*
Y437444D01*
Y435720D02*
X601821Y432339D01*
X603140Y429155D01*
X605055Y426288D01*
X607493Y423851D01*
X610359Y421936D01*
X613544Y420616D01*
X616925Y419944D01*
X620372D01*
X623753Y420616D01*
X626938Y421936D01*
X629804Y423851D01*
X632242Y426288D01*
X634157Y429155D01*
X635476Y432339D01*
X636148Y435720D01*
Y437444D01*
Y439168D01*
X635476Y442548D02*
X636148Y439168D01*
X634157Y445733D02*
X635476Y442548D01*
X632242Y448600D02*
X634157Y445733D01*
X629804Y451037D02*
X632242Y448600D01*
X626938Y452952D02*
X629804Y451037D01*
X623753Y454271D02*
X626938Y452952D01*
X620372Y454944D02*
X623753Y454271D01*
X299721Y289478D02*
X395716D01*
X219721Y143484D02*
Y144478D01*
Y143484D02*
X220482Y141646D01*
X221889Y140239D01*
X223727Y139478D01*
X394721D01*
X394721Y139478D02*
X395716D01*
X397553Y140239D01*
X398960Y141646D01*
X399721Y143484D01*
Y144478D01*
X399721Y284478D02*
Y285473D01*
X398960Y287311D02*
X399721Y285473D01*
X397553Y288717D02*
X398960Y287311D01*
X395716Y289478D02*
X397553Y288717D01*
X1080044Y368217D02*
X1087253D01*
X1072895Y367276D02*
X1080044Y368217D01*
X1065931Y365410D02*
X1072895Y367276D01*
X1059270Y362651D02*
X1065931Y365410D01*
X1053027Y359046D02*
X1059270Y362651D01*
X1047307Y354657D02*
X1053027Y359046D01*
X1042208Y349559D02*
X1047307Y354657D01*
X1037820Y343839D02*
X1042208Y349559D01*
X1034215Y337595D02*
X1037820Y343839D01*
X1031456Y330934D02*
X1034215Y337595D01*
X1029589Y323970D02*
X1031456Y330934D01*
X1028649Y316822D02*
X1029589Y323970D01*
X1028649Y313217D02*
Y316822D01*
Y309612D02*
Y313217D01*
Y309612D02*
X1029589Y302464D01*
X1031456Y295500D01*
X1034215Y288839D01*
X1037820Y282595D01*
X1042208Y276875D01*
X1047307Y271777D01*
X1053027Y267388D01*
X1059270Y263783D01*
X1065931Y261024D01*
X1072895Y259158D01*
X1080044Y258217D01*
X1087253D01*
X1094401Y259158D01*
X1101366Y261024D01*
X1108027Y263783D01*
X1114270Y267388D01*
X1119990Y271777D01*
X1125088Y276875D01*
X1129477Y282595D01*
X1133082Y288839D01*
X1135841Y295500D01*
X1137707Y302464D01*
X1138648Y309612D01*
Y313217D01*
Y316822D01*
X1137707Y323970D02*
X1138648Y316822D01*
X1135841Y330934D02*
X1137707Y323970D01*
X1133082Y337595D02*
X1135841Y330934D01*
X1129477Y343839D02*
X1133082Y337595D01*
X1125088Y349559D02*
X1129477Y343839D01*
X1119990Y354657D02*
X1125088Y349559D01*
X1114270Y359046D02*
X1119990Y354657D01*
X1108027Y362651D02*
X1114270Y359046D01*
X1101366Y365410D02*
X1108027Y362651D01*
X1094401Y367276D02*
X1101366Y365410D01*
X1087253Y368217D02*
X1094401Y367276D01*
X1253971Y269478D02*
X1261181D01*
X1246823Y268537D02*
X1253971Y269478D01*
X1239859Y266671D02*
X1246823Y268537D01*
X1233198Y263912D02*
X1239859Y266671D01*
X1226954Y260307D02*
X1233198Y263912D01*
X1221234Y255918D02*
X1226954Y260307D01*
X1216136Y250820D02*
X1221234Y255918D01*
X1211747Y245100D02*
X1216136Y250820D01*
X1208142Y238856D02*
X1211747Y245100D01*
X1205383Y232195D02*
X1208142Y238856D01*
X1203517Y225231D02*
X1205383Y232195D01*
X1202576Y218083D02*
X1203517Y225231D01*
X1202576Y214478D02*
Y218083D01*
Y210873D02*
Y214478D01*
Y210873D02*
X1203517Y203725D01*
X1205383Y196761D01*
X1208142Y190100D01*
X1211747Y183856D01*
X1216136Y178136D01*
X1221234Y173038D01*
X1226954Y168649D01*
X1233198Y165044D01*
X1239859Y162285D01*
X1246823Y160419D01*
X1253971Y159478D01*
X1261181D01*
X1268329Y160419D01*
X1275293Y162285D01*
X1281954Y165044D01*
X1288198Y168649D01*
X1293918Y173038D01*
X1299016Y178136D01*
X1303405Y183856D01*
X1307009Y190100D01*
X1309769Y196761D01*
X1311635Y203725D01*
X1312576Y210873D01*
Y214478D01*
Y218083D01*
X1311635Y225231D02*
X1312576Y218083D01*
X1309769Y232195D02*
X1311635Y225231D01*
X1307009Y238856D02*
X1309769Y232195D01*
X1303405Y245100D02*
X1307009Y238856D01*
X1299016Y250820D02*
X1303405Y245100D01*
X1293918Y255918D02*
X1299016Y250820D01*
X1288198Y260307D02*
X1293918Y255918D01*
X1281954Y263912D02*
X1288198Y260307D01*
X1275293Y266671D02*
X1281954Y263912D01*
X1268329Y268537D02*
X1275293Y266671D01*
X1261181Y269478D02*
X1268329Y268537D01*
X1011925Y189944D02*
X1015372D01*
X1008544Y189271D02*
X1011925Y189944D01*
X1005359Y187952D02*
X1008544Y189271D01*
X1002493Y186037D02*
X1005359Y187952D01*
X1000055Y183599D02*
X1002493Y186037D01*
X998140Y180733D02*
X1000055Y183599D01*
X996821Y177549D02*
X998140Y180733D01*
X996149Y174167D02*
X996821Y177549D01*
X996149Y172444D02*
Y174167D01*
Y170720D02*
Y172444D01*
Y170720D02*
X996821Y167339D01*
X998140Y164155D01*
X1000055Y161288D01*
X1002493Y158851D01*
X1005359Y156936D01*
X1008544Y155616D01*
X1011925Y154944D01*
X1015372D01*
X1018753Y155616D01*
X1021938Y156936D01*
X1024804Y158851D01*
X1027242Y161288D01*
X1029157Y164155D01*
X1030476Y167339D01*
X1031149Y170720D01*
Y172444D01*
Y174167D01*
X1030476Y177549D02*
X1031149Y174167D01*
X1029157Y180733D02*
X1030476Y177549D01*
X1027242Y183599D02*
X1029157Y180733D01*
X1024804Y186037D02*
X1027242Y183599D01*
X1021938Y187952D02*
X1024804Y186037D01*
X1018753Y189271D02*
X1021938Y187952D01*
X1015372Y189944D02*
X1018753Y189271D01*
X591925Y189944D02*
X595372D01*
X588544Y189271D02*
X591925Y189944D01*
X585359Y187952D02*
X588544Y189271D01*
X582493Y186037D02*
X585359Y187952D01*
X580055Y183599D02*
X582493Y186037D01*
X578140Y180733D02*
X580055Y183599D01*
X576821Y177548D02*
X578140Y180733D01*
X576148Y174167D02*
X576821Y177548D01*
X576148Y172444D02*
Y174167D01*
Y170720D02*
Y172444D01*
Y170720D02*
X576821Y167339D01*
X578140Y164154D01*
X580055Y161288D01*
X582493Y158851D01*
X585359Y156936D01*
X588544Y155616D01*
X591925Y154944D01*
X595372D01*
X598753Y155616D01*
X601938Y156936D01*
X604804Y158851D01*
X607242Y161288D01*
X609157Y164154D01*
X610476Y167339D01*
X611148Y170720D01*
Y172444D01*
Y174167D01*
X610476Y177548D02*
X611148Y174167D01*
X609157Y180733D02*
X610476Y177548D01*
X607242Y183599D02*
X609157Y180733D01*
X604804Y186037D02*
X607242Y183599D01*
X601938Y187952D02*
X604804Y186037D01*
X598753Y189271D02*
X601938Y187952D01*
X595372Y189944D02*
X598753Y189271D01*
X1395619Y128284D02*
X1402829D01*
X1388471Y127343D02*
X1395619Y128284D01*
X1381507Y125477D02*
X1388471Y127343D01*
X1374846Y122718D02*
X1381507Y125477D01*
X1368602Y119113D02*
X1374846Y122718D01*
X1362882Y114724D02*
X1368602Y119113D01*
X1357784Y109626D02*
X1362882Y114724D01*
X1353395Y103906D02*
X1357784Y109626D01*
X1349790Y97662D02*
X1353395Y103906D01*
X1347031Y91001D02*
X1349790Y97662D01*
X1345165Y84037D02*
X1347031Y91001D01*
X1344224Y76889D02*
X1345165Y84037D01*
X1344224Y73284D02*
Y76889D01*
Y69679D02*
Y73284D01*
Y69679D02*
X1345165Y62531D01*
X1347031Y55567D01*
X1349790Y48906D01*
X1353395Y42662D01*
X1357784Y36942D01*
X1362882Y31844D01*
X1368602Y27455D01*
X1374846Y23850D01*
X1381507Y21091D01*
X1388471Y19225D01*
X1395619Y18284D01*
X1402829D01*
X1409977Y19225D01*
X1416941Y21091D01*
X1423602Y23850D01*
X1429846Y27455D01*
X1435565Y31844D01*
X1440664Y36942D01*
X1445053Y42662D01*
X1448658Y48906D01*
X1451417Y55567D01*
X1453283Y62531D01*
X1454224Y69679D01*
Y73284D01*
Y76889D01*
X1453283Y84037D02*
X1454224Y76889D01*
X1451417Y91001D02*
X1453283Y84037D01*
X1448658Y97662D02*
X1451417Y91001D01*
X1445053Y103906D02*
X1448658Y97662D01*
X1440664Y109626D02*
X1445053Y103906D01*
X1435565Y114724D02*
X1440664Y109626D01*
X1429846Y119113D02*
X1435565Y114724D01*
X1423602Y122718D02*
X1429846Y119113D01*
X1416941Y125477D02*
X1423602Y122718D01*
X1409977Y127343D02*
X1416941Y125477D01*
X1402829Y128284D02*
X1409977Y127343D01*
X1605573Y17500D02*
X1609021D01*
X1602192Y16827D02*
X1605573Y17500D01*
X1599008Y15508D02*
X1602192Y16827D01*
X1596141Y13593D02*
X1599008Y15508D01*
X1593704Y11156D02*
X1596141Y13593D01*
X1591789Y8289D02*
X1593704Y11156D01*
X1590469Y5105D02*
X1591789Y8289D01*
X1589797Y1724D02*
X1590469Y5105D01*
X1589797Y0D02*
Y1724D01*
Y-1724D02*
Y0D01*
Y-1724D02*
X1590469Y-5105D01*
X1591789Y-8289D01*
X1593704Y-11156D01*
X1596141Y-13593D01*
X1599008Y-15508D01*
X1602192Y-16827D01*
X1605573Y-17500D01*
X1609021D01*
X1612401Y-16827D01*
X1615586Y-15508D01*
X1618452Y-13593D01*
X1620890Y-11156D01*
X1622805Y-8289D01*
X1624124Y-5105D01*
X1624797Y-1724D01*
Y0D01*
Y1724D01*
X1624124Y5105D02*
X1624797Y1724D01*
X1622805Y8289D02*
X1624124Y5105D01*
X1620890Y11156D02*
X1622805Y8289D01*
X1618452Y13593D02*
X1620890Y11156D01*
X1615586Y15508D02*
X1618452Y13593D01*
X1612401Y16827D02*
X1615586Y15508D01*
X1609021Y17500D02*
X1612401Y16827D01*
X-1724Y17500D02*
X1724D01*
X-5105Y16827D02*
X-1724Y17500D01*
X-8289Y15508D02*
X-5105Y16827D01*
X-11156Y13593D02*
X-8289Y15508D01*
X-13593Y11156D02*
X-11156Y13593D01*
X-15508Y8289D02*
X-13593Y11156D01*
X-16827Y5105D02*
X-15508Y8289D01*
X-17500Y1724D02*
X-16827Y5105D01*
X-17500Y0D02*
Y1724D01*
Y-1724D02*
Y0D01*
Y-1724D02*
X-16827Y-5105D01*
X-15508Y-8289D01*
X-13593Y-11156D01*
X-11156Y-13593D01*
X-8289Y-15508D01*
X-5105Y-16827D01*
X-1724Y-17500D01*
X1724D01*
X5105Y-16827D01*
X8289Y-15508D01*
X11156Y-13593D01*
X13593Y-11156D01*
X15508Y-8289D01*
X16827Y-5105D01*
X17500Y-1724D01*
Y0D01*
Y1724D01*
X16827Y5105D02*
X17500Y1724D01*
X15508Y8289D02*
X16827Y5105D01*
X13593Y11156D02*
X15508Y8289D01*
X11156Y13593D02*
X13593Y11156D01*
X8289Y15508D02*
X11156Y13593D01*
X5105Y16827D02*
X8289Y15508D01*
X1724Y17500D02*
X5105Y16827D01*
D44*
X719600Y457500D02*
D03*
X694200D02*
D03*
X668800D02*
D03*
X643400D02*
D03*
X300000Y72500D02*
D03*
X689350Y192344D02*
D03*
X714750D02*
D03*
Y166944D02*
D03*
X740150Y192344D02*
D03*
Y166944D02*
D03*
X765550Y192344D02*
D03*
Y166944D02*
D03*
X790950Y192344D02*
D03*
Y166944D02*
D03*
X816350Y192344D02*
D03*
Y166944D02*
D03*
X841750Y192344D02*
D03*
Y166944D02*
D03*
X867150Y192344D02*
D03*
Y166944D02*
D03*
X892550Y192344D02*
D03*
Y166944D02*
D03*
X917950Y192344D02*
D03*
Y166944D02*
D03*
D45*
X413443Y154617D02*
D03*
D46*
X1393166Y286274D02*
D03*
X1418566D02*
D03*
X1459779Y219641D02*
D03*
X1485179D02*
D03*
X1544464Y146431D02*
D03*
X1519064D02*
D03*
X1595771Y67444D02*
D03*
X1570371D02*
D03*
X365583Y392503D02*
D03*
X341714Y401190D02*
D03*
X435380Y427108D02*
D03*
X439791Y452122D02*
D03*
X625508Y488797D02*
D03*
X607548Y506757D02*
D03*
X1171917Y427128D02*
D03*
X1167506Y452142D02*
D03*
X1265583Y401210D02*
D03*
X1241714Y392523D02*
D03*
X696348Y237444D02*
D03*
X670948D02*
D03*
X674668Y378464D02*
D03*
X692629Y396424D02*
D03*
X525533Y460695D02*
D03*
Y486095D02*
D03*
X709573Y499814D02*
D03*
Y525214D02*
D03*
X803649Y504744D02*
D03*
Y530144D02*
D03*
X897724Y499814D02*
D03*
Y525214D02*
D03*
X981789Y488797D02*
D03*
X999749Y506757D02*
D03*
X910948Y387444D02*
D03*
X936348D02*
D03*
X910948Y317444D02*
D03*
X936348D02*
D03*
X910948Y262444D02*
D03*
X936348D02*
D03*
X1072784Y464414D02*
D03*
X1090744Y482375D02*
D03*
X1319955Y345539D02*
D03*
X1345355D02*
D03*
X482421Y324481D02*
D03*
X457021D02*
D03*
X482421Y269481D02*
D03*
X457021D02*
D03*
X482421Y214481D02*
D03*
X457021D02*
D03*
X287342Y345539D02*
D03*
X261942D02*
D03*
X214131Y286254D02*
D03*
X188731D02*
D03*
X147518Y219622D02*
D03*
X122118D02*
D03*
X88233Y146431D02*
D03*
X62833D02*
D03*
X36926Y67424D02*
D03*
X11526D02*
D03*
D47*
X854448Y408644D02*
D03*
X829048D02*
D03*
X803649D02*
D03*
X778249D02*
D03*
X752849D02*
D03*
X854448Y256244D02*
D03*
X829048D02*
D03*
X803649D02*
D03*
X778249D02*
D03*
X752849D02*
D03*
D48*
X87600Y-7556D02*
D03*
X75100D02*
D03*
X258258Y268608D02*
D03*
X249419Y259769D02*
D03*
X240580Y250930D02*
D03*
X353600Y304444D02*
D03*
X341100D02*
D03*
X1016350Y321940D02*
D03*
Y309440D02*
D03*
X1311853Y169193D02*
D03*
X1320692Y178032D02*
D03*
X1329531Y186871D02*
D03*
X1338370Y195710D02*
D03*
X1447942Y21282D02*
D03*
X1456781Y30121D02*
D03*
X1538600Y-6556D02*
D03*
X1526100D02*
D03*
D49*
X602500Y370000D02*
D03*
X595000D02*
D03*
X587500D02*
D03*
X1057500Y235000D02*
D03*
Y210000D02*
D03*
X640000Y222500D02*
D03*
Y230000D02*
D03*
X617500Y287500D02*
D03*
X563250Y372500D02*
D03*
X555250Y372250D02*
D03*
X547500Y320000D02*
D03*
X565000Y327500D02*
D03*
X572500Y322500D02*
D03*
X560000Y220000D02*
D03*
X506250Y321250D02*
D03*
X560500Y320000D02*
D03*
X499500Y325750D02*
D03*
D50*
X1162500Y392500D02*
D03*
X1147500D02*
D03*
X1162500Y412500D02*
D03*
X1147500Y420000D02*
D03*
X597500Y455000D02*
D03*
X622500Y389000D02*
D03*
X1032500Y247500D02*
D03*
X1105000Y240000D02*
D03*
X1257500Y342500D02*
D03*
X487500Y290000D02*
D03*
X890000Y335000D02*
D03*
X630000Y405000D02*
D03*
X637500Y412500D02*
D03*
X62500Y22500D02*
D03*
X332500Y330000D02*
D03*
X970000Y322500D02*
D03*
X1485000Y5000D02*
D03*
X1525000Y40000D02*
D03*
X1257500Y357500D02*
D03*
X1227500D02*
D03*
X172500Y182500D02*
D03*
X190000D02*
D03*
X172500Y157500D02*
D03*
X190000Y215000D02*
D03*
X172500Y197500D02*
D03*
X190000D02*
D03*
X155000Y182500D02*
D03*
X520000Y450000D02*
D03*
X1230000Y387500D02*
D03*
X682500Y415000D02*
D03*
X1202500Y355000D02*
D03*
X410000Y255000D02*
D03*
X425000D02*
D03*
X440000D02*
D03*
X155300Y107500D02*
D03*
X165000Y100000D02*
D03*
X145000Y115000D02*
D03*
X165000D02*
D03*
X145000Y100000D02*
D03*
X142500Y147500D02*
D03*
Y135000D02*
D03*
X155000D02*
D03*
X167500D02*
D03*
X482500Y257500D02*
D03*
X532500Y177500D02*
D03*
Y167500D02*
D03*
X542500D02*
D03*
Y177500D02*
D03*
X675000Y192500D02*
D03*
X530000Y427500D02*
D03*
Y410000D02*
D03*
X567500Y422500D02*
D03*
X577500D02*
D03*
X555000Y452500D02*
D03*
X535000Y362500D02*
D03*
X575000Y462500D02*
D03*
Y452500D02*
D03*
X615000Y345000D02*
D03*
X1160750Y291000D02*
D03*
M02*
