M48
;Layer_Color=9474304
;FILE_FORMAT=4:4
METRIC,LZ
;TYPE=PLATED
T1F00S00C0.2500
T2F00S00C0.3000
T3F00S00C0.5000
T4F00S00C0.7620
T5F00S00C0.9000
T6F00S00C1.0000
T7F00S00C1.2000
%
T01
X0056Y0022
X0064Y002225
Y0023
X006175Y002875
X005725Y003225
X00565Y003275
X005605Y0032
X005475
X0050625Y0032125
X004995Y0032575
X010575Y00235
Y0021
X006025Y0037
X00595
X005875
X0056325Y003725
X0055525Y0037225
X006Y0041825
T02
X00005Y000325
X000625Y000225
X0018Y000125
Y0004
X00205Y000375
Y00025
X0024Y0003
X002175Y00065
X002Y000975
Y001075
Y001175
X00205Y0014
Y00155
Y001825
X0019
Y001975
Y00215
X001725Y001975
Y001825
X00155
X001375Y0017
X001425Y001475
Y00135
X00155
X001675
X00165Y00115
Y001
X001553Y001075
X00145Y001
Y00115
X001725Y001575
X0024Y001175
Y001075
Y000975
X003Y0002
X003325Y0033
X0022Y0032
X00085Y0019
X0041Y001725
X004575Y00150965
X005325Y001675
Y001775
X005425
Y001675
X0063Y001575
X00655Y00165
X00665
X00675
Y001925
X007475Y0018
X0062Y0024
X00615Y00335
Y00345
X005525Y0033
X0051Y002825
X004875Y0029
X004825Y002575
Y002475
X0044Y00255
X00425
X0041
X004025Y003175
X004275
X007825Y002975
X00835Y0032
X008975Y00315
X0089Y00335
X0097Y003225
X010325Y002575
Y002475
X01105Y0024
X0115Y0023
X010925Y001575
X0097Y00165
X009375Y0018
X01215Y0016
X012075Y00265
X0116075Y00291
X012575Y003425
X0131Y0027
X0146Y002625
X01485Y00005
X01525Y0004
X015675Y001275
X012575Y003575
X012275
X012025Y00355
X0121Y003875
X0123
X011625Y003925
Y004125
X011475Y0042
Y003925
X0114Y004625
X01045Y004175
X0091Y004075
X009575Y0051
X007575Y00515
X006825Y00415
X0067Y0039
X0064Y00385
X006225Y00389
X0063Y00405
X006375Y004125
X005775Y004225
X005675
X00565Y004525
X00555
X00575
Y004625
X005975Y00455
X0052Y0045
X005125Y004425
X0053Y004275
Y0041
X00535Y003625
X005675Y0037975
Y0051
X004825Y00455
X004175Y004025
T03
X000626Y-00007556
X000751
X000876
X001001
X0024058Y0025093
X00249419Y00259769
X00258258Y00268608
X00267097Y00277446
X003286Y00304444
X003411
X003536
X003661
X0101635Y0030944
Y0032194
Y0033444
Y0029694
X01320692Y00178032
X01311853Y00169193
X01329531Y00186871
X0133837Y0019571
X01447942Y00021282
X01439104Y00012443
X01456781Y00030121
X0146562Y0003896
X015136Y-00006556
X015261
X015386
X015511
T04
X00752849Y00256244
X00778249
X00803649
X00829048
X00854448
Y00408644
X00829048
X00803649
X00778249
X00752849
T05
X003Y000725
Y001075
X0068935Y00166944
Y00192344
X0071475
Y00166944
X0074015
Y00192344
X0076555
Y00166944
X0079095
Y00192344
X0081635
Y00166944
X0084175
Y00192344
X0086715
Y00166944
X0089255
Y00192344
X0091795
Y00166944
X00745Y004575
X007196
X006942
X006688
X006434
T06
X00011526Y00067424
X00036926
X00062833Y00146431
X00088233
X00122118Y00219622
X00147518
X00188731Y00286254
X00214131
X00261942Y00345539
X00287342
X00457021Y00324481
X00482421
Y00269481
X00457021
Y00214481
X00482421
X00670948Y00237444
X00696348
X00910948Y00262444
X00936348
Y00317444
X00910948
X01319955Y00345539
X01345355
X01393166Y00286274
X01418566
X01459779Y00219641
X01485179
X01519064Y00146431
X01544464
X01570371Y00067444
X01595771
X01265583Y0040121
X01241714Y00392523
X01171917Y00427128
X01167506Y00452142
X01072784Y00464414
X01090744Y00482375
X00981789Y00488797
X00999749Y00506757
X00897724Y00499814
Y00525214
X00803649Y00530144
Y00504744
X00910948Y00387444
X00936348
X00692629Y00396424
X00674668Y00378464
X00709573Y00499814
Y00525214
X00625508Y00488797
X00607548Y00506757
X00525533Y00486095
Y00460695
X00439791Y00452122
X0043538Y00427108
X00365583Y00392503
X00341714Y0040119
T07
X00413443Y00154617
X00545Y002025
M30
