G04 Layer_Color=8388736*
%FSLAX44Y44*%
%MOMM*%
G71*
G01*
G75*
%ADD60R,2.4032X5.7032*%
%ADD61O,1.9032X0.5532*%
%ADD62R,3.2032X2.5032*%
G04:AMPARAMS|DCode=63|XSize=1.4032mm|YSize=0.7032mm|CornerRadius=0.2266mm|HoleSize=0mm|Usage=FLASHONLY|Rotation=90.000|XOffset=0mm|YOffset=0mm|HoleType=Round|Shape=RoundedRectangle|*
%AMROUNDEDRECTD63*
21,1,1.4032,0.2500,0,0,90.0*
21,1,0.9500,0.7032,0,0,90.0*
1,1,0.4532,0.1250,0.4750*
1,1,0.4532,0.1250,-0.4750*
1,1,0.4532,-0.1250,-0.4750*
1,1,0.4532,-0.1250,0.4750*
%
%ADD63ROUNDEDRECTD63*%
%ADD64O,2.7032X0.9032*%
%ADD65R,5.7032X2.4032*%
%ADD66O,0.5532X1.9032*%
%ADD67R,0.8032X0.8032*%
%ADD68R,0.8032X0.8032*%
%ADD69R,1.7032X1.2032*%
%ADD70R,6.7032X2.2032*%
%ADD71R,3.7032X1.5032*%
%ADD72R,1.5032X3.7032*%
%ADD73R,1.2032X1.7032*%
%ADD74R,1.3032X1.8032*%
%ADD75O,0.8032X2.3532*%
%ADD76O,2.3532X0.8032*%
%ADD77C,1.7272*%
%ADD78C,1.5032*%
%ADD79R,1.0032X1.2032*%
G04:AMPARAMS|DCode=80|XSize=1.0032mm|YSize=1.2032mm|CornerRadius=0mm|HoleSize=0mm|Usage=FLASHONLY|Rotation=45.000|XOffset=0mm|YOffset=0mm|HoleType=Round|Shape=Rectangle|*
%AMROTATEDRECTD80*
4,1,4,0.0707,-0.7801,-0.7801,0.0707,-0.0707,0.7801,0.7801,-0.0707,0.0707,-0.7801,0.0*
%
%ADD80ROTATEDRECTD80*%

%ADD81R,1.2032X1.0032*%
%ADD82C,1.7032*%
%ADD83R,1.7032X1.7032*%
%ADD84R,1.7032X1.7032*%
%ADD85C,1.8032*%
%ADD86C,0.9032*%
D60*
X1215000Y320000D02*
D03*
X487500Y392500D02*
D03*
D61*
X1186500Y316750D02*
D03*
Y323250D02*
D03*
Y329750D02*
D03*
Y336250D02*
D03*
Y342750D02*
D03*
Y349250D02*
D03*
Y355750D02*
D03*
Y362250D02*
D03*
Y277750D02*
D03*
Y284250D02*
D03*
Y290750D02*
D03*
Y297250D02*
D03*
Y303750D02*
D03*
Y310250D02*
D03*
X1243500Y277750D02*
D03*
Y362250D02*
D03*
Y355750D02*
D03*
Y349250D02*
D03*
Y342750D02*
D03*
Y336250D02*
D03*
Y329750D02*
D03*
Y323250D02*
D03*
Y316750D02*
D03*
Y310250D02*
D03*
Y303750D02*
D03*
Y297250D02*
D03*
Y290750D02*
D03*
Y284250D02*
D03*
X459000Y389250D02*
D03*
Y395750D02*
D03*
Y402250D02*
D03*
Y408750D02*
D03*
Y415250D02*
D03*
Y421750D02*
D03*
Y428250D02*
D03*
Y434750D02*
D03*
Y350250D02*
D03*
Y356750D02*
D03*
Y363250D02*
D03*
Y369750D02*
D03*
Y376250D02*
D03*
Y382750D02*
D03*
X516000Y350250D02*
D03*
Y434750D02*
D03*
Y428250D02*
D03*
Y421750D02*
D03*
Y415250D02*
D03*
Y408750D02*
D03*
Y402250D02*
D03*
Y395750D02*
D03*
Y389250D02*
D03*
Y382750D02*
D03*
Y376250D02*
D03*
Y369750D02*
D03*
Y363250D02*
D03*
Y356750D02*
D03*
D62*
X567500Y390000D02*
D03*
D63*
X563500Y411000D02*
D03*
X571500D02*
D03*
X579500D02*
D03*
X555500D02*
D03*
X579500Y369000D02*
D03*
X571500D02*
D03*
X563500D02*
D03*
X555500D02*
D03*
D64*
X270000Y17500D02*
D03*
Y30200D02*
D03*
Y42900D02*
D03*
Y55600D02*
D03*
X221000Y17500D02*
D03*
Y30200D02*
D03*
Y42900D02*
D03*
Y55600D02*
D03*
D65*
X682500Y317500D02*
D03*
D66*
X685750Y289000D02*
D03*
X679250D02*
D03*
X672750D02*
D03*
X666250D02*
D03*
X659750D02*
D03*
X653250D02*
D03*
X646750D02*
D03*
X640250D02*
D03*
X724750D02*
D03*
X718250D02*
D03*
X711750D02*
D03*
X705250D02*
D03*
X698750D02*
D03*
X692250D02*
D03*
X724750Y346000D02*
D03*
X640250D02*
D03*
X646750D02*
D03*
X653250D02*
D03*
X659750D02*
D03*
X666250D02*
D03*
X672750D02*
D03*
X679250D02*
D03*
X685750D02*
D03*
X692250D02*
D03*
X698750D02*
D03*
X705250D02*
D03*
X711750D02*
D03*
X718250D02*
D03*
D67*
X1210000Y377500D02*
D03*
X1200000D02*
D03*
X482500Y447500D02*
D03*
X472500D02*
D03*
X535000Y370000D02*
D03*
X545000D02*
D03*
X555000Y432500D02*
D03*
X565000D02*
D03*
X635000Y365000D02*
D03*
X645000D02*
D03*
X535000Y380000D02*
D03*
X545000D02*
D03*
X665000Y365000D02*
D03*
X655000D02*
D03*
X217500Y75000D02*
D03*
X207500D02*
D03*
X197500Y75000D02*
D03*
X187500D02*
D03*
X177500Y55000D02*
D03*
X187500D02*
D03*
X645000Y272500D02*
D03*
X635000D02*
D03*
X1465000Y5000D02*
D03*
X1475000D02*
D03*
X990000Y322500D02*
D03*
X980000D02*
D03*
X1230000Y377500D02*
D03*
X1220000D02*
D03*
X502500Y447500D02*
D03*
X492500D02*
D03*
X555000Y442500D02*
D03*
X565000D02*
D03*
X187500Y65000D02*
D03*
X177500D02*
D03*
X240000Y2500D02*
D03*
X250000D02*
D03*
D68*
X1525000Y20000D02*
D03*
Y30000D02*
D03*
X62500Y15000D02*
D03*
Y5000D02*
D03*
X340000Y320000D02*
D03*
Y330000D02*
D03*
X352500Y320000D02*
D03*
Y330000D02*
D03*
X300000Y40000D02*
D03*
Y30000D02*
D03*
X197500Y65000D02*
D03*
Y55000D02*
D03*
X627500Y345000D02*
D03*
Y335000D02*
D03*
X500000Y262500D02*
D03*
Y272500D02*
D03*
Y282500D02*
D03*
Y292500D02*
D03*
X1042500Y247500D02*
D03*
Y257500D02*
D03*
X1150000Y237500D02*
D03*
Y247500D02*
D03*
D69*
X157500Y147000D02*
D03*
Y168000D02*
D03*
D70*
X105000Y68500D02*
D03*
Y21500D02*
D03*
D71*
X425000Y243200D02*
D03*
Y196800D02*
D03*
D72*
X518200Y170000D02*
D03*
X471800D02*
D03*
X195700Y27500D02*
D03*
X149300D02*
D03*
D73*
X182000Y167500D02*
D03*
X203000D02*
D03*
D74*
X260000Y75000D02*
D03*
X230000D02*
D03*
D75*
X515550Y247500D02*
D03*
X528250D02*
D03*
X540950D02*
D03*
X553650D02*
D03*
X566350D02*
D03*
X579050D02*
D03*
X591750D02*
D03*
X604450D02*
D03*
X515550Y307500D02*
D03*
X528250D02*
D03*
X540950D02*
D03*
X553650D02*
D03*
X566350D02*
D03*
X579050D02*
D03*
X591750D02*
D03*
X604450D02*
D03*
D76*
X1072500Y246950D02*
D03*
Y234250D02*
D03*
Y221550D02*
D03*
Y208850D02*
D03*
Y196150D02*
D03*
Y183450D02*
D03*
Y170750D02*
D03*
Y158050D02*
D03*
X1132500Y246950D02*
D03*
Y234250D02*
D03*
Y221550D02*
D03*
Y208850D02*
D03*
Y196150D02*
D03*
Y183450D02*
D03*
Y170750D02*
D03*
Y158050D02*
D03*
D77*
X752849Y256244D02*
D03*
X778249D02*
D03*
X803649D02*
D03*
X829048D02*
D03*
X854448D02*
D03*
X752849Y408644D02*
D03*
X778249D02*
D03*
X803649D02*
D03*
X829048D02*
D03*
X854448D02*
D03*
D78*
X1595771Y67444D02*
D03*
X1570371D02*
D03*
X1544464Y146431D02*
D03*
X1519064D02*
D03*
X1485179Y219641D02*
D03*
X1459779D02*
D03*
X1418566Y286274D02*
D03*
X1393166D02*
D03*
X1345355Y345539D02*
D03*
X1319955D02*
D03*
X1241714Y392523D02*
D03*
X1265583Y401210D02*
D03*
X1167506Y452142D02*
D03*
X1171917Y427128D02*
D03*
X1090744Y482375D02*
D03*
X1072784Y464414D02*
D03*
X999749Y506757D02*
D03*
X981789Y488797D02*
D03*
X897724Y525214D02*
D03*
Y499814D02*
D03*
X803649Y530144D02*
D03*
Y504744D02*
D03*
X709573Y525214D02*
D03*
Y499814D02*
D03*
X607548Y506757D02*
D03*
X625508Y488797D02*
D03*
X525533Y486095D02*
D03*
Y460695D02*
D03*
X439791Y452122D02*
D03*
X435380Y427108D02*
D03*
X341714Y401190D02*
D03*
X365583Y392503D02*
D03*
X261942Y345539D02*
D03*
X287342D02*
D03*
X188731Y286254D02*
D03*
X214131D02*
D03*
X122118Y219622D02*
D03*
X147518D02*
D03*
X62833Y146431D02*
D03*
X88233D02*
D03*
X11526Y67424D02*
D03*
X36926D02*
D03*
X936348Y262444D02*
D03*
X910948D02*
D03*
X696348Y237444D02*
D03*
X670948D02*
D03*
X457021Y214481D02*
D03*
X482421D02*
D03*
X936348Y317444D02*
D03*
X910948D02*
D03*
X457021Y269481D02*
D03*
X482421D02*
D03*
X910948Y387444D02*
D03*
X936348D02*
D03*
X674668Y378464D02*
D03*
X692629Y396424D02*
D03*
X457021Y324481D02*
D03*
X482421D02*
D03*
D79*
X62600Y-7556D02*
D03*
X75100D02*
D03*
X87600D02*
D03*
X100100D02*
D03*
X328600Y304444D02*
D03*
X341100D02*
D03*
X353600D02*
D03*
X366100D02*
D03*
X1513600Y-6556D02*
D03*
X1526100D02*
D03*
X1538600D02*
D03*
X1551100D02*
D03*
D80*
X240580Y250930D02*
D03*
X249419Y259769D02*
D03*
X258258Y268608D02*
D03*
X267097Y277446D02*
D03*
X1338370Y195710D02*
D03*
X1329531Y186871D02*
D03*
X1320692Y178032D02*
D03*
X1311853Y169193D02*
D03*
X1465620Y38960D02*
D03*
X1456781Y30121D02*
D03*
X1447942Y21282D02*
D03*
X1439104Y12443D02*
D03*
D81*
X1016350Y296940D02*
D03*
Y309440D02*
D03*
Y321940D02*
D03*
Y334440D02*
D03*
D82*
X643400Y457500D02*
D03*
X668800D02*
D03*
X694200D02*
D03*
X719600D02*
D03*
X689350Y166944D02*
D03*
X714750Y192344D02*
D03*
Y166944D02*
D03*
X740150Y192344D02*
D03*
Y166944D02*
D03*
X765550Y192344D02*
D03*
Y166944D02*
D03*
X790950Y192344D02*
D03*
Y166944D02*
D03*
X816350Y192344D02*
D03*
Y166944D02*
D03*
X841750Y192344D02*
D03*
Y166944D02*
D03*
X867150Y192344D02*
D03*
Y166944D02*
D03*
X892550Y192344D02*
D03*
Y166944D02*
D03*
X917950Y192344D02*
D03*
Y166944D02*
D03*
X300000Y107500D02*
D03*
D83*
X745000Y457500D02*
D03*
X689350Y192344D02*
D03*
D84*
X300000Y72500D02*
D03*
D85*
X413443Y154617D02*
D03*
X545000Y202500D02*
D03*
D86*
X970000Y165000D02*
D03*
M02*
