G04 Layer_Physical_Order=4*
G04 Layer_Color=16711680*
%FSLAX44Y44*%
%MOMM*%
G71*
G01*
G75*
%ADD10R,0.6000X0.6000*%
%ADD11R,0.6000X0.6000*%
%ADD15C,1.5000*%
%ADD21O,0.6000X2.1500*%
%ADD27R,1.5000X1.0000*%
%ADD28C,0.2500*%
%ADD29C,0.3500*%
%ADD30C,0.5000*%
%ADD31C,0.3000*%
%ADD32C,1.0000*%
%ADD33R,1.5000X1.5000*%
%ADD34C,1.6000*%
%ADD35R,1.5000X1.5000*%
%ADD36C,1.3500*%
%ADD37C,1.5240*%
%ADD38R,0.8000X1.0000*%
G04:AMPARAMS|DCode=39|XSize=0.8mm|YSize=1mm|CornerRadius=0mm|HoleSize=0mm|Usage=FLASHONLY|Rotation=45.000|XOffset=0mm|YOffset=0mm|HoleType=Round|Shape=Rectangle|*
%AMROTATEDRECTD39*
4,1,4,0.0707,-0.6364,-0.6364,0.0707,-0.0707,0.6364,0.6364,-0.0707,0.0707,-0.6364,0.0*
%
%ADD39ROTATEDRECTD39*%

%ADD40R,1.0000X0.8000*%
%ADD41C,0.7000*%
%ADD42C,0.6000*%
%ADD52R,1.5000X1.2000*%
%ADD53R,1.2000X1.5000*%
%ADD54R,1.0500X0.6500*%
G04:AMPARAMS|DCode=55|XSize=0.95mm|YSize=0.85mm|CornerRadius=0mm|HoleSize=0mm|Usage=FLASHONLY|Rotation=45.000|XOffset=0mm|YOffset=0mm|HoleType=Round|Shape=Rectangle|*
%AMROTATEDRECTD55*
4,1,4,-0.0353,-0.6364,-0.6364,-0.0353,0.0353,0.6364,0.6364,0.0353,-0.0353,-0.6364,0.0*
%
%ADD55ROTATEDRECTD55*%

%ADD56P,0.8485X4X270.0*%
%ADD57P,0.8485X4X360.0*%
%ADD58O,1.8000X0.3000*%
%ADD59O,0.3000X1.8000*%
%ADD60R,0.6300X0.8300*%
%ADD61R,2.7700X2.5500*%
G36*
X515040Y449308D02*
X515290Y448049D01*
X516395Y446395D01*
X516686Y446201D01*
Y438872D01*
X515157Y437343D01*
X514439Y436268D01*
X514186Y435000D01*
Y401372D01*
X512437Y399624D01*
X507000D01*
X505852Y399148D01*
X505687Y398751D01*
X504313D01*
X504148Y399148D01*
X503000Y399624D01*
X497000D01*
X495814Y400507D01*
Y408377D01*
X506593Y419157D01*
X507311Y420232D01*
X507564Y421500D01*
Y443627D01*
X513662Y449725D01*
X515040Y449308D01*
D02*
G37*
G36*
X620154Y341428D02*
X620174Y341329D01*
X620837Y340337D01*
Y339663D01*
X620174Y338671D01*
X619941Y337500D01*
X620174Y336329D01*
X620837Y335337D01*
Y334663D01*
X620174Y333671D01*
X619941Y332500D01*
X620174Y331329D01*
X620837Y330337D01*
Y329663D01*
X620174Y328671D01*
X619941Y327500D01*
X620174Y326329D01*
X620837Y325337D01*
X621829Y324674D01*
X623000Y324441D01*
X638000D01*
X639170Y324674D01*
X639203Y324696D01*
X645328D01*
X652007Y318017D01*
X652917Y317410D01*
X653990Y317196D01*
X699728D01*
X700214Y316023D01*
X694495Y310304D01*
X641668D01*
X641336Y310708D01*
X640874Y311574D01*
X641059Y312500D01*
X640826Y313671D01*
X640163Y314663D01*
Y315337D01*
X640826Y316329D01*
X641059Y317500D01*
X640826Y318671D01*
X640163Y319663D01*
X639170Y320326D01*
X638000Y320559D01*
X631772D01*
X631768Y320561D01*
X630500Y320814D01*
X621283D01*
X620014Y320561D01*
X618939Y319843D01*
X615157Y316061D01*
X614439Y314986D01*
X614186Y313718D01*
Y297500D01*
X614439Y296232D01*
X614911Y295524D01*
X613996Y294609D01*
X613671Y294826D01*
X612500Y295059D01*
X611329Y294826D01*
X610337Y294163D01*
X609674Y293171D01*
X609441Y292000D01*
Y287500D01*
Y277000D01*
X609674Y275830D01*
X610337Y274837D01*
X611329Y274174D01*
X612500Y273941D01*
X613671Y274174D01*
X614663Y274837D01*
X615326Y275830D01*
X615559Y277000D01*
Y282003D01*
X616829Y283045D01*
X617500Y282912D01*
X618624Y283136D01*
X618995Y281914D01*
X618352Y281648D01*
X617876Y280500D01*
Y274500D01*
X618352Y273352D01*
X619500Y272876D01*
X625500D01*
X626648Y273352D01*
X628006Y273521D01*
X628536Y272986D01*
X628371Y271656D01*
X628352Y271648D01*
X627876Y270500D01*
Y266966D01*
X625474Y264564D01*
X609526D01*
X607124Y266966D01*
Y270500D01*
X606648Y271648D01*
X605814Y271994D01*
Y284500D01*
Y331128D01*
X614657Y339970D01*
X615000Y339902D01*
X616951Y340290D01*
X618605Y341395D01*
X618806Y341697D01*
X620154Y341428D01*
D02*
G37*
G36*
X571395Y458895D02*
X572340Y458264D01*
Y456736D01*
X571395Y456105D01*
X570290Y454451D01*
X569902Y452500D01*
X569970Y452157D01*
X548628Y430814D01*
X533799D01*
X533605Y431105D01*
X531951Y432210D01*
X531318Y432336D01*
X530900Y433714D01*
X548786Y451600D01*
X550164Y451182D01*
X550290Y450549D01*
X551395Y448895D01*
X553049Y447790D01*
X555000Y447402D01*
X556951Y447790D01*
X558605Y448895D01*
X559710Y450549D01*
X560098Y452500D01*
X559710Y454451D01*
X558605Y456105D01*
X556999Y457178D01*
X556942Y457240D01*
X556547Y458578D01*
X557030Y459186D01*
X571201D01*
X571395Y458895D01*
D02*
G37*
G36*
X599061Y442633D02*
X598691Y441414D01*
X598301Y437444D01*
X598691Y433474D01*
X599849Y429657D01*
X601730Y426139D01*
X604260Y423056D01*
X607344Y420525D01*
X610862Y418645D01*
X614360Y417584D01*
X614171Y416314D01*
X603429D01*
X602161Y416061D01*
X601086Y415343D01*
X598394Y412651D01*
X597124Y413177D01*
Y418000D01*
X596648Y419148D01*
X595500Y419624D01*
X589534D01*
X589496Y419625D01*
X589290Y419690D01*
X588314Y420507D01*
Y433628D01*
X597972Y443286D01*
X599061Y442633D01*
D02*
G37*
G36*
X957657Y397657D02*
X958732Y396939D01*
X960000Y396686D01*
X1142756D01*
X1143435Y395416D01*
X1142790Y394451D01*
X1142402Y392500D01*
X1142790Y390549D01*
X1143895Y388895D01*
X1144441Y388530D01*
Y372500D01*
X1144441Y372500D01*
X1144674Y371329D01*
X1145337Y370337D01*
X1161087Y354587D01*
X1162079Y353924D01*
X1163250Y353691D01*
X1163250Y353691D01*
X1165676D01*
Y350750D01*
X1165915Y350174D01*
X1166087Y349250D01*
X1165915Y348326D01*
X1165676Y347750D01*
Y335750D01*
X1166152Y334602D01*
X1166152Y333898D01*
X1165676Y332750D01*
Y320750D01*
X1165915Y320174D01*
X1166087Y319250D01*
X1165915Y318326D01*
X1165676Y317750D01*
Y305750D01*
X1165915Y305174D01*
X1166087Y304250D01*
X1165915Y303326D01*
X1165676Y302750D01*
Y294913D01*
X1164406Y294527D01*
X1164355Y294605D01*
X1162701Y295710D01*
X1160750Y296098D01*
X1158799Y295710D01*
X1158079Y295229D01*
X1156809Y295907D01*
Y350114D01*
X1156576Y351284D01*
X1155913Y352277D01*
X1155913Y352277D01*
X1121027Y387163D01*
X1120034Y387826D01*
X1118864Y388059D01*
X1118864Y388059D01*
X1047500D01*
X1047500Y388059D01*
X1046329Y387826D01*
X1045337Y387163D01*
X1036233Y378059D01*
X982099D01*
X981648Y379148D01*
X980500Y379624D01*
X974500D01*
X973352Y379148D01*
X973187Y378751D01*
X971813D01*
X971648Y379148D01*
X970500Y379624D01*
X964500D01*
X963352Y379148D01*
X962901Y378059D01*
X937997D01*
X937914Y379329D01*
X938502Y379406D01*
X940509Y380238D01*
X942232Y381560D01*
X943555Y383283D01*
X944386Y385290D01*
X944670Y387444D01*
X944386Y389598D01*
X943555Y391604D01*
X942232Y393328D01*
X940509Y394650D01*
X938502Y395482D01*
X936348Y395765D01*
X934195Y395482D01*
X932188Y394650D01*
X930464Y393328D01*
X929142Y391604D01*
X928311Y389598D01*
X928027Y387444D01*
X928311Y385290D01*
X929142Y383283D01*
X930464Y381560D01*
X932188Y380238D01*
X934195Y379406D01*
X934783Y379329D01*
X934700Y378059D01*
X912597D01*
X912514Y379329D01*
X913102Y379406D01*
X915109Y380238D01*
X916832Y381560D01*
X918155Y383283D01*
X918986Y385290D01*
X919270Y387444D01*
X918986Y389598D01*
X918155Y391604D01*
X916832Y393328D01*
X915109Y394650D01*
X913102Y395482D01*
X910948Y395765D01*
X908795Y395482D01*
X906788Y394650D01*
X905064Y393328D01*
X903742Y391604D01*
X902911Y389598D01*
X902627Y387444D01*
X902911Y385290D01*
X903742Y383283D01*
X905064Y381560D01*
X906788Y380238D01*
X908795Y379406D01*
X909383Y379329D01*
X909300Y378059D01*
X905631D01*
X886527Y397163D01*
X885535Y397826D01*
X884364Y398059D01*
X884364Y398059D01*
X755000D01*
X753829Y397826D01*
X752837Y397163D01*
X752837Y397163D01*
X717885Y362211D01*
X716615Y362737D01*
Y393943D01*
X716615Y393944D01*
X716382Y395114D01*
X715719Y396106D01*
X694663Y417163D01*
X693671Y417826D01*
X692500Y418059D01*
X692500Y418059D01*
X686470D01*
X686105Y418605D01*
X684451Y419710D01*
X682500Y420098D01*
X680549Y419710D01*
X678895Y418605D01*
X677790Y416951D01*
X677402Y415000D01*
X677790Y413049D01*
X678895Y411395D01*
X680549Y410290D01*
X682500Y409902D01*
X684451Y410290D01*
X686105Y411395D01*
X686470Y411941D01*
X691233D01*
X710498Y392677D01*
Y375428D01*
X709324Y374942D01*
X705694Y378573D01*
X704546Y379048D01*
X703398Y378573D01*
X696680Y371855D01*
X696205Y370707D01*
X696680Y369559D01*
X700879Y365361D01*
Y361827D01*
X689045Y349993D01*
X687184Y351855D01*
X686036Y352331D01*
X684887Y351855D01*
X681346Y348314D01*
X668873D01*
X664173Y353013D01*
X664659Y354186D01*
X667071D01*
X668339Y354439D01*
X669414Y355157D01*
X670201Y355944D01*
X671036Y355598D01*
X672184Y356074D01*
X675296Y359186D01*
X679368D01*
X680636Y359439D01*
X681711Y360157D01*
X683644Y362089D01*
X684306Y361427D01*
X685454Y360952D01*
X686602Y361427D01*
X693320Y368145D01*
X693795Y369293D01*
X693320Y370441D01*
X687309Y376451D01*
X686161Y376927D01*
X685013Y376451D01*
X683521Y374959D01*
X682444Y375679D01*
X682706Y376310D01*
X682989Y378464D01*
X682706Y380617D01*
X681875Y382624D01*
X680552Y384348D01*
X678829Y385670D01*
X676822Y386501D01*
X674668Y386785D01*
X672514Y386501D01*
X670508Y385670D01*
X668784Y384348D01*
X667462Y382624D01*
X666631Y380617D01*
X666347Y378464D01*
X666631Y376310D01*
X667462Y374303D01*
X668784Y372580D01*
X670508Y371257D01*
X672514Y370426D01*
X674668Y370143D01*
X676822Y370426D01*
X677453Y370687D01*
X678110Y369944D01*
X678260Y369647D01*
X677820Y368586D01*
X678296Y367438D01*
X678958Y366776D01*
X677996Y365814D01*
X673225D01*
X672184Y366855D01*
X671036Y367331D01*
X669887Y366855D01*
X665645Y362612D01*
X665169Y361465D01*
X664734Y360814D01*
X641892D01*
X640976Y362084D01*
X641059Y362500D01*
X640826Y363671D01*
X640163Y364663D01*
Y365337D01*
X640826Y366329D01*
X641059Y367500D01*
X640826Y368671D01*
X640163Y369663D01*
Y370337D01*
X640826Y371329D01*
X641059Y372500D01*
X640976Y372916D01*
X641892Y374186D01*
X645000D01*
X646268Y374439D01*
X647343Y375157D01*
X655630Y383444D01*
X656464Y383098D01*
X657613Y383574D01*
X661855Y387816D01*
X662331Y388965D01*
X661855Y390112D01*
X657613Y394355D01*
X656464Y394831D01*
X655316Y394355D01*
X651074Y390112D01*
X650598Y388965D01*
X650944Y388130D01*
X643627Y380814D01*
X630500D01*
X629232Y380561D01*
X629228Y380559D01*
X623000D01*
X621829Y380326D01*
X620837Y379663D01*
X620174Y378671D01*
X619941Y377500D01*
X620174Y376329D01*
X620837Y375337D01*
Y374663D01*
X620174Y373671D01*
X619941Y372500D01*
X620174Y371329D01*
X620837Y370337D01*
Y369663D01*
X620174Y368671D01*
X619941Y367500D01*
X620174Y366329D01*
X620837Y365337D01*
Y364663D01*
X620174Y363671D01*
X619941Y362500D01*
X620174Y361329D01*
X620837Y360337D01*
Y359663D01*
X620174Y358671D01*
X619941Y357500D01*
X620174Y356329D01*
X620837Y355337D01*
Y354663D01*
X620174Y353671D01*
X619941Y352500D01*
X620174Y351329D01*
X620837Y350337D01*
Y349663D01*
X620174Y348671D01*
X620154Y348572D01*
X618806Y348303D01*
X618605Y348605D01*
X616951Y349710D01*
X615000Y350098D01*
X613049Y349710D01*
X611395Y348605D01*
X610290Y346951D01*
X609902Y345000D01*
X609970Y344657D01*
X600157Y334843D01*
X599439Y333768D01*
X599186Y332500D01*
Y295892D01*
X597916Y294976D01*
X597500Y295059D01*
X596329Y294826D01*
X595337Y294163D01*
X594663D01*
X593671Y294826D01*
X592500Y295059D01*
X591329Y294826D01*
X590337Y294163D01*
X589663D01*
X588671Y294826D01*
X587500Y295059D01*
X586329Y294826D01*
X585337Y294163D01*
X584663D01*
X583671Y294826D01*
X582500Y295059D01*
X581329Y294826D01*
X580337Y294163D01*
X579663D01*
X578671Y294826D01*
X577500Y295059D01*
X576329Y294826D01*
X575337Y294163D01*
X574663D01*
X573671Y294826D01*
X572500Y295059D01*
X571329Y294826D01*
X570337Y294163D01*
X569663D01*
X568671Y294826D01*
X567500Y295059D01*
X567084Y294976D01*
X566221Y294992D01*
X565638Y295885D01*
X565561Y296268D01*
X564843Y297343D01*
X562343Y299843D01*
X561268Y300561D01*
X560000Y300814D01*
X558938D01*
X558452Y301987D01*
X574483Y318017D01*
X574960Y318731D01*
X575744Y319256D01*
X576739Y320744D01*
X577088Y322500D01*
X576739Y324256D01*
X575744Y325744D01*
X574256Y326739D01*
X572500Y327088D01*
X570744Y326739D01*
X570730Y326729D01*
X569587Y327493D01*
X569588Y327500D01*
X569239Y329256D01*
X568244Y330744D01*
X566756Y331739D01*
X565000Y332088D01*
X563244Y331739D01*
X561756Y330744D01*
X561461Y330304D01*
X559868D01*
X558795Y330090D01*
X557886Y329483D01*
X552767Y324364D01*
X552160Y323455D01*
X552153Y323422D01*
X550805Y323154D01*
X550744Y323244D01*
X549256Y324239D01*
X547500Y324588D01*
X545744Y324239D01*
X544256Y323244D01*
X543261Y321756D01*
X542972Y320304D01*
X530668D01*
X530336Y320708D01*
X529874Y321574D01*
X530059Y322500D01*
X529826Y323671D01*
X529163Y324663D01*
Y325337D01*
X529826Y326329D01*
X530059Y327500D01*
X529826Y328671D01*
X529163Y329663D01*
Y330337D01*
X529826Y331329D01*
X530059Y332500D01*
X529826Y333671D01*
X529163Y334663D01*
Y335337D01*
X529826Y336329D01*
X530059Y337500D01*
X529826Y338671D01*
X529163Y339663D01*
Y340337D01*
X529826Y341329D01*
X530059Y342500D01*
X529826Y343671D01*
X529163Y344663D01*
Y345337D01*
X529826Y346329D01*
X530059Y347500D01*
X529826Y348671D01*
X529163Y349663D01*
Y350337D01*
X529826Y351329D01*
X530059Y352500D01*
X529826Y353671D01*
X529163Y354663D01*
Y355337D01*
X529826Y356329D01*
X530059Y357500D01*
X529826Y358671D01*
X529610Y358993D01*
X529703Y359141D01*
X531216Y359164D01*
X531395Y358895D01*
X533049Y357790D01*
X535000Y357402D01*
X536951Y357790D01*
X538605Y358895D01*
X539710Y360549D01*
X540098Y362500D01*
X539710Y364451D01*
X538605Y366105D01*
X536951Y367210D01*
X535000Y367598D01*
X533049Y367210D01*
X531395Y366105D01*
X531216Y365836D01*
X529703Y365859D01*
X529610Y366007D01*
X529826Y366329D01*
X530059Y367500D01*
X529826Y368671D01*
X529163Y369663D01*
Y370337D01*
X529826Y371329D01*
X530059Y372500D01*
X529826Y373671D01*
X529163Y374663D01*
Y375337D01*
X529826Y376329D01*
X530059Y377500D01*
X529826Y378671D01*
X529163Y379663D01*
X528171Y380326D01*
X527000Y380559D01*
X520772D01*
X520768Y380561D01*
X519500Y380814D01*
X513872D01*
X513314Y381372D01*
Y390506D01*
X514148Y390852D01*
X514624Y392000D01*
Y392510D01*
X514843Y392657D01*
X519843Y397657D01*
X520561Y398732D01*
X520814Y400000D01*
Y412841D01*
X521987Y413327D01*
X524970Y410343D01*
X524902Y410000D01*
X525290Y408049D01*
X526395Y406395D01*
X528049Y405290D01*
X530000Y404902D01*
X531951Y405290D01*
X533102Y406059D01*
X534245Y405296D01*
X534186Y405000D01*
Y395500D01*
X534439Y394232D01*
X534441Y394228D01*
Y388000D01*
X534674Y386829D01*
X535337Y385837D01*
X536329Y385174D01*
X537500Y384941D01*
X538171Y385075D01*
X538808Y385037D01*
X539588Y384260D01*
X539674Y383829D01*
X540337Y382837D01*
X550705Y372469D01*
X550662Y372250D01*
X551011Y370494D01*
X552006Y369006D01*
X553494Y368011D01*
X555250Y367662D01*
X557006Y368011D01*
X558494Y369006D01*
X558699Y369311D01*
X559691D01*
X560132Y369171D01*
X561494Y368261D01*
X563250Y367912D01*
X565006Y368261D01*
X566494Y369256D01*
X567489Y370744D01*
X567838Y372500D01*
X567489Y374256D01*
X566494Y375744D01*
X565006Y376739D01*
X563250Y377088D01*
X563227Y377084D01*
X556457Y383854D01*
X557083Y385024D01*
X557500Y384941D01*
X558671Y385174D01*
X559663Y385837D01*
X560337D01*
X561329Y385174D01*
X562500Y384941D01*
X563671Y385174D01*
X564663Y385837D01*
X565337D01*
X566329Y385174D01*
X567500Y384941D01*
X568671Y385174D01*
X569663Y385837D01*
X570337D01*
X571329Y385174D01*
X572500Y384941D01*
X573426Y385126D01*
X574292Y384664D01*
X574696Y384332D01*
Y380000D01*
X574910Y378927D01*
X575517Y378017D01*
X583015Y370520D01*
X582912Y370000D01*
X583261Y368244D01*
X584256Y366756D01*
X585744Y365761D01*
X587500Y365412D01*
X589256Y365761D01*
X590744Y366756D01*
X591756D01*
X593244Y365761D01*
X595000Y365412D01*
X596756Y365761D01*
X598244Y366756D01*
X599256D01*
X600744Y365761D01*
X602500Y365412D01*
X604256Y365761D01*
X605744Y366756D01*
X606739Y368244D01*
X607088Y370000D01*
X606739Y371756D01*
X605744Y373244D01*
X604256Y374239D01*
X602511Y374586D01*
X593293Y383804D01*
X593670Y385172D01*
X593699Y385193D01*
X594663Y385837D01*
X595337D01*
X596329Y385174D01*
X597500Y384941D01*
X598671Y385174D01*
X599663Y385837D01*
X600337D01*
X601329Y385174D01*
X602500Y384941D01*
X603671Y385174D01*
X604663Y385837D01*
X605326Y386829D01*
X605559Y388000D01*
Y394228D01*
X605561Y394232D01*
X605814Y395500D01*
Y403627D01*
X606873Y404686D01*
X608607D01*
X609524Y403416D01*
X609441Y403000D01*
Y395098D01*
X609422Y395000D01*
X609441Y394902D01*
Y388000D01*
X609674Y386829D01*
X610337Y385837D01*
X611329Y385174D01*
X612500Y384941D01*
X613671Y385174D01*
X614663Y385837D01*
X615326Y386829D01*
X615559Y388000D01*
Y390000D01*
X616474Y390880D01*
X616798Y390868D01*
X617580Y389893D01*
X617402Y389000D01*
X617790Y387049D01*
X618895Y385395D01*
X620549Y384290D01*
X622500Y383902D01*
X624451Y384290D01*
X626105Y385395D01*
X627210Y387049D01*
X627598Y389000D01*
X627210Y390951D01*
X626888Y391432D01*
X627124Y392000D01*
Y398000D01*
X626648Y399148D01*
X625500Y399624D01*
X619500D01*
X618352Y399148D01*
X618323Y399078D01*
X615559D01*
Y403000D01*
X615476Y403416D01*
X616392Y404686D01*
X624964D01*
X625290Y403049D01*
X626395Y401395D01*
X628049Y400290D01*
X630000Y399902D01*
X631951Y400290D01*
X633605Y401395D01*
X633799Y401686D01*
X640000D01*
X641268Y401939D01*
X642343Y402657D01*
X663873Y424186D01*
X931127D01*
X957657Y397657D01*
D02*
G37*
G36*
X779942Y349699D02*
X779945Y349426D01*
X779612Y347750D01*
Y332250D01*
X779961Y330494D01*
X780956Y329006D01*
X781396Y328711D01*
Y305800D01*
X781610Y304727D01*
X782217Y303817D01*
X787196Y298839D01*
Y268161D01*
X786636Y267601D01*
X786028Y266691D01*
X785815Y265618D01*
Y263256D01*
X784545Y262908D01*
X782848Y264210D01*
X780629Y265129D01*
X778249Y265443D01*
X775868Y265129D01*
X773649Y264210D01*
X771744Y262748D01*
X770282Y260843D01*
X769363Y258625D01*
X769050Y256244D01*
X769363Y253863D01*
X770282Y251645D01*
X771744Y249739D01*
X773649Y248278D01*
X775868Y247359D01*
X778249Y247045D01*
X780629Y247359D01*
X780672Y247376D01*
X781779Y246460D01*
X781696Y246044D01*
Y237124D01*
X779500D01*
X778352Y236648D01*
X777876Y235500D01*
Y229500D01*
X778352Y228352D01*
X779500Y227876D01*
X781696D01*
Y212455D01*
X769634Y200394D01*
X767899Y201112D01*
X765550Y201422D01*
X763201Y201112D01*
X761011Y200205D01*
X759131Y198763D01*
X757689Y196883D01*
X756782Y194693D01*
X756472Y192344D01*
X756782Y189994D01*
X757689Y187805D01*
X759131Y185925D01*
X761011Y184482D01*
X763201Y183576D01*
X765550Y183266D01*
X767899Y183576D01*
X770089Y184482D01*
X771969Y185925D01*
X773411Y187805D01*
X774318Y189994D01*
X774628Y192344D01*
X774318Y194693D01*
X773600Y196428D01*
X786483Y209311D01*
X786876Y209900D01*
X788146Y209515D01*
Y200924D01*
X786411Y200205D01*
X784531Y198763D01*
X783089Y196883D01*
X782182Y194693D01*
X781872Y192344D01*
X782182Y189994D01*
X783089Y187805D01*
X784531Y185925D01*
X786411Y184482D01*
X788600Y183576D01*
X790950Y183266D01*
X793299Y183576D01*
X795489Y184482D01*
X797369Y185925D01*
X798811Y187805D01*
X799718Y189994D01*
X800028Y192344D01*
X799718Y194693D01*
X798811Y196883D01*
X797369Y198763D01*
X795489Y200205D01*
X793754Y200924D01*
Y227876D01*
X795500D01*
X796648Y228352D01*
X797124Y229500D01*
Y235500D01*
X796648Y236648D01*
X795500Y237124D01*
X789500D01*
X788574Y236740D01*
X787304Y237259D01*
Y244883D01*
X790601Y248180D01*
X790784Y248454D01*
X792329Y248706D01*
X808731Y232304D01*
Y222559D01*
X808944Y221486D01*
X809552Y220576D01*
X833700Y196428D01*
X832982Y194693D01*
X832672Y192344D01*
X832982Y189994D01*
X833889Y187805D01*
X835331Y185925D01*
X837211Y184482D01*
X839400Y183576D01*
X841750Y183266D01*
X844100Y183576D01*
X846289Y184482D01*
X848169Y185925D01*
X849612Y187805D01*
X850518Y189994D01*
X850828Y192344D01*
X850518Y194693D01*
X849612Y196883D01*
X848169Y198763D01*
X846289Y200205D01*
X844100Y201112D01*
X841750Y201422D01*
X839400Y201112D01*
X837666Y200394D01*
X814339Y223720D01*
Y233465D01*
X814125Y234538D01*
X813517Y235448D01*
X803055Y245910D01*
X803436Y246683D01*
X803708Y247053D01*
X806029Y247359D01*
X808248Y248278D01*
X810153Y249739D01*
X810605Y250328D01*
X811875Y249897D01*
Y249665D01*
X812088Y248592D01*
X812696Y247682D01*
X857196Y203182D01*
Y199494D01*
X857410Y198421D01*
X858017Y197511D01*
X859100Y196428D01*
X858382Y194693D01*
X858072Y192344D01*
X858382Y189994D01*
X859289Y187805D01*
X860731Y185925D01*
X862611Y184482D01*
X864800Y183576D01*
X867150Y183266D01*
X869500Y183576D01*
X871689Y184482D01*
X873569Y185925D01*
X875012Y187805D01*
X875918Y189994D01*
X876228Y192344D01*
X875918Y194693D01*
X875012Y196883D01*
X873569Y198763D01*
X871689Y200205D01*
X869500Y201112D01*
X867150Y201422D01*
X864800Y201112D01*
X864074Y200811D01*
X862804Y201660D01*
Y204343D01*
X862590Y205416D01*
X861983Y206326D01*
X842286Y226023D01*
X842772Y227196D01*
X853733D01*
X884500Y196428D01*
X883782Y194693D01*
X883472Y192344D01*
X883782Y189994D01*
X884689Y187805D01*
X886131Y185925D01*
X888011Y184482D01*
X890201Y183576D01*
X892550Y183266D01*
X894900Y183576D01*
X897089Y184482D01*
X898969Y185925D01*
X900412Y187805D01*
X900926Y189048D01*
X902196Y188795D01*
Y179894D01*
X902410Y178821D01*
X903017Y177911D01*
X909900Y171028D01*
X909182Y169293D01*
X908872Y166944D01*
X909182Y164594D01*
X910089Y162405D01*
X911345Y160768D01*
X910964Y159498D01*
X899536D01*
X899155Y160768D01*
X900412Y162405D01*
X901318Y164594D01*
X901628Y166944D01*
X901318Y169293D01*
X900412Y171483D01*
X898969Y173363D01*
X897089Y174805D01*
X894900Y175712D01*
X892550Y176021D01*
X890201Y175712D01*
X888011Y174805D01*
X886131Y173363D01*
X884689Y171483D01*
X884286Y170512D01*
X884013Y170433D01*
X882590Y171073D01*
X881983Y171983D01*
X874483Y179483D01*
X873573Y180090D01*
X872500Y180304D01*
X852306D01*
X851233Y180090D01*
X850323Y179483D01*
X845834Y174994D01*
X844100Y175712D01*
X841750Y176021D01*
X839400Y175712D01*
X837211Y174805D01*
X835331Y173363D01*
X833889Y171483D01*
X832982Y169293D01*
X832672Y166944D01*
X832982Y164594D01*
X833889Y162405D01*
X835331Y160525D01*
X837211Y159082D01*
X839400Y158176D01*
X841750Y157866D01*
X844100Y158176D01*
X846289Y159082D01*
X848169Y160525D01*
X849612Y162405D01*
X850518Y164594D01*
X850828Y166944D01*
X850518Y169293D01*
X849800Y171028D01*
X853467Y174696D01*
X860493D01*
X860902Y173493D01*
X860731Y173363D01*
X859289Y171483D01*
X858382Y169293D01*
X858072Y166944D01*
X858382Y164594D01*
X859289Y162405D01*
X860731Y160525D01*
X862611Y159082D01*
X864800Y158176D01*
X867150Y157866D01*
X869500Y158176D01*
X871235Y158894D01*
X878300Y151829D01*
X877774Y150559D01*
X735461D01*
X722905Y163114D01*
X723518Y164594D01*
X723828Y166944D01*
X723518Y169293D01*
X722611Y171483D01*
X721169Y173363D01*
X719289Y174805D01*
X717100Y175712D01*
X714750Y176021D01*
X712401Y175712D01*
X710666Y174994D01*
X705583Y180077D01*
X704673Y180684D01*
X703600Y180898D01*
X630568D01*
X606983Y204483D01*
X606073Y205090D01*
X605000Y205304D01*
X577124D01*
Y205500D01*
X576648Y206648D01*
X576251Y206813D01*
Y208187D01*
X576648Y208352D01*
X577124Y209500D01*
Y215500D01*
X576648Y216648D01*
X575500Y217124D01*
X575304D01*
Y219663D01*
X575398Y219702D01*
X575874Y220850D01*
Y229150D01*
X575398Y230298D01*
X575481Y231639D01*
X575840Y232177D01*
X576054Y233250D01*
Y250185D01*
X577324Y250711D01*
X607517Y220517D01*
X608427Y219910D01*
X609500Y219696D01*
X636461D01*
X636756Y219256D01*
X638244Y218261D01*
X640000Y217912D01*
X641756Y218261D01*
X643244Y219256D01*
X644239Y220744D01*
X644588Y222500D01*
X644239Y224256D01*
X643244Y225744D01*
Y226756D01*
X644239Y228244D01*
X644588Y230000D01*
X644239Y231756D01*
X643244Y233244D01*
X641756Y234239D01*
X640000Y234588D01*
X638244Y234239D01*
X636756Y233244D01*
X636461Y232804D01*
X611161D01*
X600539Y243426D01*
X601065Y244696D01*
X660000D01*
X661073Y244910D01*
X661983Y245517D01*
X767161Y350696D01*
X779409D01*
X779942Y349699D01*
D02*
G37*
G36*
X846396Y353221D02*
X846068Y352139D01*
X845877Y351944D01*
X844456Y350994D01*
X843461Y349506D01*
X843112Y347750D01*
Y332250D01*
X843461Y330494D01*
X844456Y329006D01*
X844896Y328711D01*
Y308861D01*
X838767Y302733D01*
X838160Y301823D01*
X837946Y300750D01*
Y292541D01*
X836949Y292008D01*
X836676Y292005D01*
X835000Y292338D01*
X834272Y292193D01*
X818045Y308421D01*
Y328270D01*
X818393Y328524D01*
X819315Y328833D01*
X820544Y328011D01*
X822300Y327662D01*
X824056Y328011D01*
X825544Y329006D01*
X826539Y330494D01*
X826888Y332250D01*
Y347750D01*
X826539Y349506D01*
X825544Y350994D01*
X824699Y351559D01*
X824283Y352183D01*
X810442Y366023D01*
X810928Y367196D01*
X832420D01*
X846396Y353221D01*
D02*
G37*
G36*
X495087Y330337D02*
X495087Y330337D01*
X495540Y330035D01*
X495639Y329890D01*
X495906Y328624D01*
X495872Y328420D01*
X495261Y327506D01*
X494912Y325750D01*
X495261Y323994D01*
X496256Y322506D01*
X497744Y321511D01*
X499500Y321162D01*
X500446Y321350D01*
X501381Y321273D01*
X501825Y320428D01*
X502011Y319494D01*
X503006Y318006D01*
X504494Y317011D01*
X506250Y316662D01*
X508006Y317011D01*
X509160Y316338D01*
X509204Y316284D01*
X509837Y315337D01*
Y314663D01*
X509174Y313671D01*
X508941Y312500D01*
X509174Y311329D01*
X509837Y310337D01*
Y309663D01*
X509174Y308671D01*
X508941Y307500D01*
X509174Y306329D01*
X509837Y305337D01*
Y304663D01*
X509174Y303671D01*
X508941Y302500D01*
X509024Y302084D01*
X508108Y300814D01*
X451994D01*
X451648Y301648D01*
X450500Y302124D01*
X444500D01*
X443352Y301648D01*
X443187Y301251D01*
X441813D01*
X441648Y301648D01*
X440500Y302124D01*
X434500D01*
X433352Y301648D01*
X433006Y300814D01*
X424124D01*
Y302000D01*
X423648Y303148D01*
X422500Y303624D01*
X407500D01*
X406352Y303148D01*
X405876Y302000D01*
Y298314D01*
X359898D01*
X359193Y299370D01*
X359224Y299444D01*
Y309444D01*
X358748Y310592D01*
X357600Y311068D01*
X356659D01*
Y330877D01*
X356813Y331249D01*
X358187D01*
X358352Y330852D01*
X359500Y330376D01*
X365500D01*
X366648Y330852D01*
X367099Y331941D01*
X451105D01*
X451536Y330671D01*
X451137Y330365D01*
X449814Y328641D01*
X448983Y326634D01*
X448699Y324481D01*
X448983Y322327D01*
X449814Y320320D01*
X451137Y318597D01*
X452860Y317274D01*
X454867Y316443D01*
X457021Y316159D01*
X459174Y316443D01*
X461181Y317274D01*
X462905Y318597D01*
X464227Y320320D01*
X465058Y322327D01*
X465342Y324481D01*
X465058Y326634D01*
X464227Y328641D01*
X462905Y330365D01*
X462505Y330671D01*
X462936Y331941D01*
X476505D01*
X476936Y330671D01*
X476537Y330365D01*
X475214Y328641D01*
X474383Y326634D01*
X474100Y324481D01*
X474383Y322327D01*
X475214Y320320D01*
X476537Y318597D01*
X478260Y317274D01*
X480267Y316443D01*
X482421Y316159D01*
X484574Y316443D01*
X486581Y317274D01*
X488305Y318597D01*
X489627Y320320D01*
X490458Y322327D01*
X490742Y324481D01*
X490458Y326634D01*
X489627Y328641D01*
X488305Y330365D01*
X487905Y330671D01*
X488336Y331941D01*
X493483D01*
X495087Y330337D01*
D02*
G37*
G36*
X597587Y490337D02*
X597587Y490337D01*
X598579Y489674D01*
X599750Y489441D01*
X615423D01*
X615423Y489441D01*
X616006Y489557D01*
X616845Y489017D01*
X617134Y488738D01*
X617213Y488601D01*
X617471Y486643D01*
X618302Y484636D01*
X619624Y482912D01*
X621348Y481590D01*
X623354Y480759D01*
X625508Y480475D01*
X627662Y480759D01*
X629669Y481590D01*
X631392Y482912D01*
X632715Y484636D01*
X633546Y486643D01*
X633829Y488797D01*
X633715Y489663D01*
X634918Y490256D01*
X643337Y481837D01*
X644330Y481174D01*
X645500Y480941D01*
X645500Y480941D01*
X918983D01*
X937087Y462837D01*
X937087Y462837D01*
X938080Y462174D01*
X939250Y461941D01*
X939250Y461941D01*
X1016733D01*
X1068337Y410337D01*
X1068337Y410337D01*
X1069330Y409674D01*
X1069784Y409584D01*
X1069659Y408314D01*
X963873D01*
X934843Y437343D01*
X933768Y438061D01*
X932500Y438314D01*
X660000D01*
X658732Y438061D01*
X657657Y437343D01*
X637843Y417530D01*
X637500Y417598D01*
X635549Y417210D01*
X634208Y416314D01*
X623125D01*
X622937Y417584D01*
X626435Y418645D01*
X629953Y420525D01*
X633037Y423056D01*
X635567Y426139D01*
X637448Y429657D01*
X638605Y433474D01*
X638996Y437444D01*
X638605Y441414D01*
X637448Y445231D01*
X635567Y448749D01*
X633037Y451832D01*
X629953Y454363D01*
X626435Y456243D01*
X622618Y457401D01*
X618648Y457792D01*
X614679Y457401D01*
X610862Y456243D01*
X607344Y454363D01*
X604260Y451832D01*
X602084Y449180D01*
X600814Y449634D01*
Y451201D01*
X601105Y451395D01*
X602210Y453049D01*
X602598Y455000D01*
X602210Y456951D01*
X601105Y458605D01*
X599451Y459710D01*
X598818Y459836D01*
X598400Y461214D01*
X601373Y464186D01*
X635586D01*
X636212Y462916D01*
X635539Y462039D01*
X634632Y459850D01*
X634322Y457500D01*
X634632Y455150D01*
X635539Y452961D01*
X636981Y451081D01*
X638861Y449638D01*
X641050Y448732D01*
X643400Y448422D01*
X645750Y448732D01*
X647939Y449638D01*
X649819Y451081D01*
X651262Y452961D01*
X652168Y455150D01*
X652478Y457500D01*
X652168Y459850D01*
X651262Y462039D01*
X649819Y463919D01*
X647939Y465362D01*
X646714Y465869D01*
Y467500D01*
X646631Y467916D01*
X647593Y469186D01*
X652428D01*
X660539Y461075D01*
X660032Y459850D01*
X659722Y457500D01*
X660032Y455150D01*
X660939Y452961D01*
X662381Y451081D01*
X664261Y449638D01*
X666451Y448732D01*
X668800Y448422D01*
X671150Y448732D01*
X673339Y449638D01*
X675219Y451081D01*
X676662Y452961D01*
X677568Y455150D01*
X677878Y457500D01*
X677568Y459850D01*
X676662Y462039D01*
X675219Y463919D01*
X673339Y465362D01*
X671150Y466268D01*
X668800Y466578D01*
X666451Y466268D01*
X665225Y465761D01*
X656143Y474843D01*
X655068Y475561D01*
X653800Y475814D01*
X522500D01*
X521232Y475561D01*
X520157Y474843D01*
X514482Y469168D01*
X513309Y469654D01*
Y484233D01*
X516046Y486970D01*
X517249Y486377D01*
X517212Y486095D01*
X517495Y483941D01*
X518327Y481934D01*
X519649Y480211D01*
X521373Y478888D01*
X523380Y478057D01*
X525533Y477774D01*
X527687Y478057D01*
X529694Y478888D01*
X531417Y480211D01*
X532739Y481934D01*
X533571Y483941D01*
X533854Y486095D01*
X533571Y488248D01*
X532739Y490255D01*
X531772Y491516D01*
X532366Y492786D01*
X595138D01*
X597587Y490337D01*
D02*
G37*
G36*
X834314Y554191D02*
X864947Y552686D01*
X895515Y550179D01*
X925984Y546674D01*
X956322Y542174D01*
X986497Y536683D01*
X1016475Y530209D01*
X1046226Y522756D01*
X1075717Y514335D01*
X1104917Y504953D01*
X1133794Y494620D01*
X1147035Y489388D01*
X1148216Y488921D01*
X1149417Y488504D01*
X1154502Y485996D01*
X1159638Y482565D01*
X1164282Y478492D01*
X1168355Y473847D01*
X1171787Y468711D01*
X1174519Y463171D01*
X1176505Y457322D01*
X1177710Y451263D01*
X1177808Y449763D01*
X1177808D01*
X1177883Y449699D01*
X1177989Y448090D01*
X1179338Y441308D01*
X1181560Y434760D01*
X1184619Y428559D01*
X1188460Y422809D01*
X1193020Y417610D01*
X1198219Y413051D01*
X1203968Y409209D01*
X1210170Y406151D01*
X1216718Y403928D01*
X1223500Y402579D01*
X1230399Y402127D01*
X1237300Y402579D01*
X1244081Y403928D01*
X1250629Y406151D01*
X1255958Y408778D01*
X1256831Y409209D01*
X1257080Y409375D01*
X1258177Y410013D01*
X1262816Y412301D01*
X1268665Y414286D01*
X1274724Y415491D01*
X1280888Y415895D01*
X1287052Y415491D01*
X1293110Y414286D01*
X1298960Y412301D01*
X1304500Y409569D01*
X1306163Y408457D01*
X1306163Y408457D01*
X1306175Y408460D01*
X1324356Y396738D01*
X1349575Y379283D01*
X1374209Y361013D01*
X1398233Y341947D01*
X1421619Y322105D01*
X1444344Y301508D01*
X1466383Y280179D01*
X1487712Y258140D01*
X1508309Y235415D01*
X1528151Y212028D01*
X1547218Y188005D01*
X1565488Y163370D01*
X1582942Y138151D01*
X1599562Y112375D01*
X1615329Y86068D01*
X1630228Y59260D01*
X1644241Y31978D01*
X1644600Y31219D01*
Y1263D01*
X1644600Y1251D01*
X1644600Y0D01*
X1644544Y-1247D01*
X1644182Y-5842D01*
X1642814Y-11540D01*
X1640572Y-16954D01*
X1637510Y-21951D01*
X1633704Y-26407D01*
X1629248Y-30213D01*
X1624251Y-33275D01*
X1618837Y-35517D01*
X1613139Y-36885D01*
X1607297Y-37345D01*
X1601455Y-36885D01*
X1595757Y-35517D01*
X1590343Y-33275D01*
X1585915Y-30562D01*
X1585915Y-30562D01*
X1585915Y-30562D01*
X1585836Y-30575D01*
X1583347Y-28810D01*
X1577179Y-25401D01*
X1570667Y-22703D01*
X1563895Y-20752D01*
X1556947Y-19572D01*
X1549910Y-19176D01*
Y-19222D01*
X1350690D01*
X1350502Y-19259D01*
X1343217Y-18781D01*
X1335873Y-17320D01*
X1328783Y-14913D01*
X1322067Y-11602D01*
X1315841Y-7441D01*
X1310211Y-2504D01*
X1306127Y2153D01*
X1305315Y3094D01*
X1305103Y3389D01*
X1305078Y3406D01*
X1304553Y4100D01*
X1300654Y9251D01*
X1284888Y28461D01*
X1268381Y47038D01*
X1251156Y64952D01*
X1233242Y82176D01*
X1214666Y98684D01*
X1195456Y114449D01*
X1175641Y129448D01*
X1155951Y143171D01*
X1156350Y144441D01*
X1302888D01*
X1302888Y144441D01*
X1304059Y144674D01*
X1305051Y145337D01*
X1324380Y164667D01*
X1324380Y164667D01*
X1325043Y165659D01*
X1325276Y166829D01*
X1325276Y166830D01*
Y173249D01*
X1328204Y176177D01*
X1328272Y176340D01*
X1331223Y179292D01*
X1331386Y179359D01*
X1337043Y185016D01*
X1337519Y186164D01*
X1337043Y187312D01*
X1337929Y188198D01*
X1339077Y187722D01*
X1340225Y188198D01*
X1345882Y193855D01*
X1346358Y195003D01*
X1345882Y196151D01*
X1338811Y203222D01*
X1337663Y203697D01*
X1336515Y203222D01*
X1330858Y197565D01*
X1330383Y196417D01*
X1330858Y195269D01*
X1329972Y194383D01*
X1328824Y194859D01*
X1327676Y194383D01*
X1322019Y188726D01*
X1321952Y188563D01*
X1319000Y185612D01*
X1318837Y185544D01*
X1313180Y179888D01*
X1312705Y178739D01*
X1313180Y177591D01*
X1312294Y176705D01*
X1311146Y177181D01*
X1309998Y176705D01*
X1304341Y171049D01*
X1303866Y169901D01*
X1304341Y168752D01*
X1311180Y161914D01*
X1311517Y160455D01*
X1301621Y150559D01*
X933820D01*
X933294Y151829D01*
X988661Y207196D01*
X1053961D01*
X1054256Y206756D01*
X1055744Y205761D01*
X1057500Y205412D01*
X1059256Y205761D01*
X1060744Y206756D01*
X1061739Y208244D01*
X1062088Y210000D01*
X1061739Y211756D01*
X1060744Y213244D01*
X1059256Y214239D01*
X1057500Y214588D01*
X1055744Y214239D01*
X1054256Y213244D01*
X1053961Y212804D01*
X988565D01*
X988039Y214074D01*
X1006161Y232196D01*
X1053961D01*
X1054256Y231756D01*
X1055744Y230761D01*
X1057500Y230412D01*
X1059256Y230761D01*
X1060744Y231756D01*
X1061739Y233244D01*
X1062088Y235000D01*
X1061739Y236756D01*
X1060744Y238244D01*
X1059256Y239239D01*
X1057500Y239588D01*
X1055744Y239239D01*
X1054256Y238244D01*
X1053961Y237804D01*
X1005000D01*
X1003927Y237590D01*
X1003017Y236983D01*
X926094Y160059D01*
X925690Y160161D01*
X925191Y161596D01*
X925811Y162405D01*
X926718Y164594D01*
X927028Y166944D01*
X926718Y169293D01*
X925811Y171483D01*
X924369Y173363D01*
X922489Y174805D01*
X920300Y175712D01*
X917950Y176021D01*
X915601Y175712D01*
X913866Y174994D01*
X907804Y181055D01*
Y190730D01*
X909074Y190814D01*
X909182Y189994D01*
X910089Y187805D01*
X911531Y185925D01*
X913411Y184482D01*
X915601Y183576D01*
X917950Y183266D01*
X920300Y183576D01*
X922489Y184482D01*
X924369Y185925D01*
X925811Y187805D01*
X926718Y189994D01*
X927028Y192344D01*
X926718Y194693D01*
X925811Y196883D01*
X924369Y198763D01*
X922489Y200205D01*
X920300Y201112D01*
X917950Y201422D01*
X915601Y201112D01*
X913866Y200394D01*
X871983Y242276D01*
X871073Y242884D01*
X870000Y243098D01*
X853361D01*
X849231Y247229D01*
X849849Y248278D01*
X852068Y247359D01*
X854448Y247045D01*
X856829Y247359D01*
X859048Y248278D01*
X860953Y249739D01*
X862415Y251645D01*
X863334Y253863D01*
X863647Y256244D01*
X863334Y258625D01*
X862415Y260843D01*
X860953Y262748D01*
X859048Y264210D01*
X856829Y265129D01*
X854448Y265443D01*
X852068Y265129D01*
X850978Y264678D01*
X850136Y265704D01*
X850290Y265935D01*
X850504Y267008D01*
Y268711D01*
X850944Y269006D01*
X851939Y270494D01*
X852288Y272250D01*
Y287750D01*
X851939Y289506D01*
X850944Y290994D01*
X849456Y291989D01*
X847700Y292338D01*
X845944Y291989D01*
X844824Y291240D01*
X843554Y291757D01*
Y299589D01*
X849683Y305717D01*
X850290Y306627D01*
X850504Y307700D01*
Y321300D01*
X850564Y321348D01*
X851774Y321761D01*
X857596Y315939D01*
Y291289D01*
X857156Y290994D01*
X856161Y289506D01*
X855812Y287750D01*
Y272250D01*
X856161Y270494D01*
X857156Y269006D01*
X858644Y268011D01*
X860400Y267662D01*
X862156Y268011D01*
X863644Y269006D01*
X864639Y270494D01*
X864988Y272250D01*
Y287750D01*
X864639Y289506D01*
X863644Y290994D01*
X863204Y291289D01*
Y317100D01*
X862990Y318173D01*
X862383Y319083D01*
X856254Y325211D01*
Y328243D01*
X857524Y328760D01*
X858644Y328011D01*
X860400Y327662D01*
X862156Y328011D01*
X863644Y329006D01*
X864639Y330494D01*
X864988Y332250D01*
Y347750D01*
X864639Y349506D01*
X863644Y350994D01*
X862156Y351989D01*
X861932Y352034D01*
X836983Y376983D01*
X836073Y377590D01*
X835000Y377804D01*
X758926D01*
X758400Y379074D01*
X761267Y381941D01*
X880369D01*
X909473Y352837D01*
X909473Y352837D01*
X910465Y352174D01*
X911636Y351941D01*
X962901D01*
X963352Y350852D01*
X964500Y350376D01*
X970500D01*
X971648Y350852D01*
X971813Y351249D01*
X973187D01*
X973352Y350852D01*
X974441Y350401D01*
Y350000D01*
X974441Y350000D01*
X974674Y348829D01*
X975337Y347837D01*
X1003397Y319777D01*
X1003397Y319777D01*
X1004389Y319114D01*
X1005560Y318881D01*
X1009726D01*
Y317940D01*
X1009794Y317777D01*
Y313603D01*
X1009726Y313440D01*
Y305440D01*
X1010202Y304292D01*
X1011350Y303816D01*
X1013001D01*
X1013072Y303762D01*
X1014653Y303107D01*
X1016350Y302884D01*
X1018047Y303107D01*
X1019628Y303762D01*
X1019699Y303816D01*
X1021350D01*
X1022498Y304292D01*
X1022974Y305440D01*
Y313440D01*
X1022906Y313603D01*
Y317777D01*
X1022974Y317940D01*
Y325940D01*
X1022498Y327088D01*
X1021350Y327564D01*
X1019699D01*
X1019628Y327618D01*
X1018047Y328273D01*
X1016350Y328496D01*
X1014653Y328273D01*
X1013072Y327618D01*
X1013001Y327564D01*
X1011350D01*
X1010202Y327088D01*
X1009726Y325940D01*
Y324999D01*
X1006827D01*
X981536Y350290D01*
X981648Y350852D01*
X982124Y352000D01*
Y358000D01*
X981648Y359148D01*
X981251Y359313D01*
Y360687D01*
X981648Y360852D01*
X982099Y361941D01*
X1035000D01*
X1035000Y361941D01*
X1036171Y362174D01*
X1037163Y362837D01*
X1051267Y376941D01*
X1116233D01*
X1145691Y347483D01*
Y283386D01*
X1145691Y283386D01*
X1145924Y282215D01*
X1146587Y281223D01*
X1161723Y266087D01*
X1161723Y266087D01*
X1162716Y265424D01*
X1163886Y265191D01*
X1163886Y265191D01*
X1187500D01*
X1187500Y265191D01*
X1188671Y265424D01*
X1189663Y266087D01*
X1217517Y293941D01*
X1227200D01*
Y266750D01*
X1230205D01*
X1230493Y265513D01*
X1228639Y264599D01*
X1222344Y260393D01*
X1216653Y255401D01*
X1211661Y249710D01*
X1207456Y243415D01*
X1204107Y236626D01*
X1201674Y229457D01*
X1200197Y222032D01*
X1199702Y214478D01*
X1200197Y206924D01*
X1201674Y199499D01*
X1204107Y192331D01*
X1207456Y185541D01*
X1211661Y179247D01*
X1216653Y173555D01*
X1222344Y168564D01*
X1228639Y164358D01*
X1235428Y161010D01*
X1242597Y158576D01*
X1250022Y157100D01*
X1257576Y156604D01*
X1265130Y157100D01*
X1272555Y158576D01*
X1279723Y161010D01*
X1286513Y164358D01*
X1292807Y168564D01*
X1298499Y173555D01*
X1303490Y179247D01*
X1307696Y185541D01*
X1311044Y192331D01*
X1313478Y199499D01*
X1314955Y206924D01*
X1315450Y214478D01*
X1314955Y222032D01*
X1313478Y229457D01*
X1311044Y236626D01*
X1307696Y243415D01*
X1303490Y249710D01*
X1301249Y252265D01*
X1302176Y253134D01*
X1434845Y120465D01*
X1434035Y119479D01*
X1428161Y123404D01*
X1421371Y126752D01*
X1414203Y129186D01*
X1406778Y130663D01*
X1399224Y131158D01*
X1391670Y130663D01*
X1384245Y129186D01*
X1377076Y126752D01*
X1370287Y123404D01*
X1363992Y119198D01*
X1358301Y114207D01*
X1353309Y108515D01*
X1349104Y102221D01*
X1345755Y95431D01*
X1343322Y88263D01*
X1341845Y80838D01*
X1341350Y73284D01*
X1341845Y65730D01*
X1343322Y58305D01*
X1345755Y51136D01*
X1349104Y44347D01*
X1353309Y38053D01*
X1358301Y32361D01*
X1363992Y27369D01*
X1370287Y23164D01*
X1377076Y19815D01*
X1384245Y17382D01*
X1391670Y15905D01*
X1399224Y15410D01*
X1406778Y15905D01*
X1414203Y17382D01*
X1421371Y19815D01*
X1428161Y23164D01*
X1434455Y27369D01*
X1440147Y32361D01*
X1445138Y38053D01*
X1449344Y44347D01*
X1452692Y51136D01*
X1455126Y58305D01*
X1456602Y65730D01*
X1457098Y73284D01*
X1456602Y80838D01*
X1455126Y88263D01*
X1452692Y95431D01*
X1449344Y102221D01*
X1445419Y108096D01*
X1446405Y108905D01*
X1458941Y96369D01*
Y50767D01*
X1454093Y45919D01*
X1453430Y44927D01*
X1453197Y43756D01*
X1453197Y43756D01*
Y35904D01*
X1449269Y31976D01*
X1449202Y31813D01*
X1446250Y28862D01*
X1446087Y28794D01*
X1440430Y23138D01*
X1439955Y21989D01*
X1440430Y20841D01*
X1441598Y19674D01*
X1441610Y19585D01*
X1442265Y18004D01*
X1443306Y16646D01*
X1444664Y15605D01*
X1446246Y14950D01*
X1446334Y14938D01*
X1447501Y13770D01*
X1448649Y13295D01*
X1449798Y13770D01*
X1455454Y19427D01*
X1455522Y19590D01*
X1458473Y22542D01*
X1458636Y22609D01*
X1464293Y28266D01*
X1464769Y29414D01*
X1464293Y30562D01*
X1463125Y31730D01*
X1463114Y31818D01*
X1462459Y33399D01*
X1461417Y34757D01*
X1460059Y35799D01*
X1459315Y36107D01*
Y42489D01*
X1464163Y47337D01*
X1464826Y48330D01*
X1465059Y49500D01*
X1465059Y49500D01*
Y94956D01*
X1466232Y95442D01*
X1511941Y49733D01*
Y5287D01*
X1511941Y5287D01*
X1512174Y4116D01*
X1512837Y3124D01*
X1520076Y-4115D01*
X1519767Y-4859D01*
X1519544Y-6556D01*
X1519767Y-8253D01*
X1520422Y-9834D01*
X1520476Y-9905D01*
Y-11556D01*
X1520952Y-12704D01*
X1522100Y-13180D01*
X1530100D01*
X1530263Y-13112D01*
X1534437D01*
X1534600Y-13180D01*
X1542600D01*
X1543748Y-12704D01*
X1544224Y-11556D01*
Y-9905D01*
X1544278Y-9834D01*
X1544933Y-8253D01*
X1545156Y-6556D01*
X1544933Y-4859D01*
X1544278Y-3278D01*
X1544224Y-3207D01*
Y-1556D01*
X1543748Y-408D01*
X1542600Y68D01*
X1534600D01*
X1534437Y0D01*
X1530263D01*
X1530100Y68D01*
X1524545D01*
X1518059Y6554D01*
Y51000D01*
X1518059Y51000D01*
X1517826Y52171D01*
X1517163Y53163D01*
X1517163Y53163D01*
X1292200Y278126D01*
Y289547D01*
X1293470Y289800D01*
X1293552Y289602D01*
X1294700Y289126D01*
X1309700D01*
X1310848Y289602D01*
X1311324Y290750D01*
Y302750D01*
X1311085Y303326D01*
X1310914Y304250D01*
X1311085Y305174D01*
X1311324Y305750D01*
Y317750D01*
X1311085Y318326D01*
X1310914Y319250D01*
X1311085Y320174D01*
X1311324Y320750D01*
Y332750D01*
X1310848Y333898D01*
X1310848Y334602D01*
X1311324Y335750D01*
Y341501D01*
X1312594Y341753D01*
X1312749Y341379D01*
X1314071Y339655D01*
X1315795Y338333D01*
X1317802Y337502D01*
X1319955Y337218D01*
X1322109Y337502D01*
X1324116Y338333D01*
X1325839Y339655D01*
X1327162Y341379D01*
X1327993Y343386D01*
X1328276Y345539D01*
X1327993Y347693D01*
X1327162Y349700D01*
X1325839Y351423D01*
X1324116Y352746D01*
X1322109Y353577D01*
X1319955Y353860D01*
X1317802Y353577D01*
X1315795Y352746D01*
X1314071Y351423D01*
X1312749Y349700D01*
X1311311Y349548D01*
X1311040Y349934D01*
X1311085Y350174D01*
X1311324Y350750D01*
Y362750D01*
X1311085Y363326D01*
X1310914Y364250D01*
X1311085Y365174D01*
X1311324Y365750D01*
Y377750D01*
X1310848Y378898D01*
X1309700Y379374D01*
X1294700D01*
X1293552Y378898D01*
X1293076Y377750D01*
Y365750D01*
X1293315Y365174D01*
X1293487Y364250D01*
X1293315Y363326D01*
X1293076Y362750D01*
Y350750D01*
X1293315Y350174D01*
X1293487Y349250D01*
X1293315Y348326D01*
X1293076Y347750D01*
Y335750D01*
X1293552Y334602D01*
X1293552Y333898D01*
X1293076Y332750D01*
Y320750D01*
X1293315Y320174D01*
X1293487Y319250D01*
X1293315Y318326D01*
X1293076Y317750D01*
Y307657D01*
X1292200Y306750D01*
X1291806Y306750D01*
X1227200D01*
Y304559D01*
X1213000D01*
X1213000Y304559D01*
X1211830Y304326D01*
X1210837Y303663D01*
X1210837Y303663D01*
X1185097Y277923D01*
X1183924Y278409D01*
Y287750D01*
X1183685Y288326D01*
X1183513Y289250D01*
X1183685Y290174D01*
X1183924Y290750D01*
Y302750D01*
X1183685Y303326D01*
X1183513Y304250D01*
X1183685Y305174D01*
X1183924Y305750D01*
Y317750D01*
X1183685Y318326D01*
X1183513Y319250D01*
X1183685Y320174D01*
X1183924Y320750D01*
Y332750D01*
X1183448Y333898D01*
X1183448Y334602D01*
X1183924Y335750D01*
Y347750D01*
X1183685Y348326D01*
X1183513Y349250D01*
X1183685Y350174D01*
X1183924Y350750D01*
Y362750D01*
X1183685Y363326D01*
X1183513Y364250D01*
X1183685Y365174D01*
X1183924Y365750D01*
Y377750D01*
X1183448Y378898D01*
X1182300Y379374D01*
X1171502D01*
X1165559Y385317D01*
Y388530D01*
X1166105Y388895D01*
X1167210Y390549D01*
X1167598Y392500D01*
X1167210Y394451D01*
X1166565Y395416D01*
X1167244Y396686D01*
X1173627D01*
X1187200Y383114D01*
Y366750D01*
X1203564D01*
X1221907Y348407D01*
X1222982Y347689D01*
X1224250Y347436D01*
X1250750D01*
X1252018Y347689D01*
X1253093Y348407D01*
X1257157Y352470D01*
X1257500Y352402D01*
X1259451Y352790D01*
X1261105Y353895D01*
X1262210Y355549D01*
X1262598Y357500D01*
X1262210Y359451D01*
X1261105Y361105D01*
X1259451Y362210D01*
X1257500Y362598D01*
X1255549Y362210D01*
X1253895Y361105D01*
X1252790Y359451D01*
X1252402Y357500D01*
X1252470Y357157D01*
X1249377Y354064D01*
X1232564D01*
X1231966Y355184D01*
X1232210Y355549D01*
X1232598Y357500D01*
X1232210Y359451D01*
X1231105Y361105D01*
X1229451Y362210D01*
X1227500Y362598D01*
X1227157Y362530D01*
X1224110Y365577D01*
X1224596Y366750D01*
X1247200D01*
Y386360D01*
X1248089Y387174D01*
X1249256Y389006D01*
X1249909Y391078D01*
X1250004Y393248D01*
X1249534Y395369D01*
X1248531Y397296D01*
X1247063Y398898D01*
X1245231Y400065D01*
X1243159Y400718D01*
X1240989Y400813D01*
X1238868Y400342D01*
X1236942Y399339D01*
X1235340Y397872D01*
X1234173Y396040D01*
X1233520Y393968D01*
X1233465Y392725D01*
X1232165Y392067D01*
X1231951Y392210D01*
X1230000Y392598D01*
X1228049Y392210D01*
X1226395Y391105D01*
X1225290Y389451D01*
X1224902Y387500D01*
X1224286Y386750D01*
X1202936D01*
X1182343Y407343D01*
X1181268Y408061D01*
X1180000Y408314D01*
X1167244D01*
X1166565Y409584D01*
X1167210Y410549D01*
X1167598Y412500D01*
X1167210Y414451D01*
X1166105Y416105D01*
X1164451Y417210D01*
X1162500Y417598D01*
X1160549Y417210D01*
X1158895Y416105D01*
X1158530Y415559D01*
X1151965D01*
X1151395Y416829D01*
X1152210Y418049D01*
X1152598Y420000D01*
X1152210Y421951D01*
X1151105Y423605D01*
X1149451Y424710D01*
X1147500Y425098D01*
X1145549Y424710D01*
X1143895Y423605D01*
X1143530Y423059D01*
X1072017D01*
X1022663Y472413D01*
X1021671Y473076D01*
X1020500Y473309D01*
X1020500Y473309D01*
X942767D01*
X924413Y491663D01*
X923421Y492326D01*
X922250Y492559D01*
X922250Y492559D01*
X903908D01*
X903477Y493829D01*
X903608Y493930D01*
X904930Y495653D01*
X905762Y497660D01*
X906045Y499814D01*
X905762Y501967D01*
X904930Y503974D01*
X903608Y505698D01*
X901885Y507020D01*
X899878Y507851D01*
X897724Y508135D01*
X895570Y507851D01*
X893564Y507020D01*
X891840Y505698D01*
X890518Y503974D01*
X889686Y501967D01*
X889403Y499814D01*
X889686Y497660D01*
X890518Y495653D01*
X891840Y493930D01*
X891972Y493829D01*
X891541Y492559D01*
X715756D01*
X715325Y493829D01*
X715457Y493930D01*
X716779Y495653D01*
X717610Y497660D01*
X717894Y499814D01*
X717610Y501967D01*
X716779Y503974D01*
X715457Y505698D01*
X713733Y507020D01*
X711727Y507851D01*
X709573Y508135D01*
X707419Y507851D01*
X705412Y507020D01*
X703689Y505698D01*
X702366Y503974D01*
X701535Y501967D01*
X701252Y499814D01*
X701535Y497660D01*
X702366Y495653D01*
X703689Y493930D01*
X703820Y493829D01*
X703389Y492559D01*
X649267D01*
X635913Y505913D01*
X634921Y506576D01*
X633750Y506809D01*
X633750Y506809D01*
X619000D01*
X617830Y506576D01*
X617058Y506061D01*
X615839Y506531D01*
X615869Y506757D01*
X615585Y508911D01*
X614754Y510918D01*
X613432Y512641D01*
X611708Y513963D01*
X609701Y514795D01*
X607548Y515078D01*
X605394Y514795D01*
X603387Y513963D01*
X601664Y512641D01*
X600341Y510918D01*
X599510Y508911D01*
X599226Y506757D01*
X599375Y505632D01*
X599197Y505366D01*
X598221Y504665D01*
X597500Y504809D01*
X597500Y504809D01*
X518500D01*
X518500Y504809D01*
X517329Y504576D01*
X516337Y503913D01*
X503587Y491163D01*
X502924Y490171D01*
X502691Y489000D01*
X502691Y489000D01*
Y461381D01*
X492837Y451527D01*
X492174Y450535D01*
X491941Y449364D01*
X491941Y449364D01*
Y426598D01*
X479337Y413994D01*
X478674Y413002D01*
X478441Y411831D01*
X478441Y411831D01*
Y368750D01*
X478441Y368750D01*
X478674Y367579D01*
X479337Y366587D01*
X486595Y359329D01*
X486069Y358059D01*
X367099D01*
X366648Y359148D01*
X365500Y359624D01*
X359500D01*
X358352Y359148D01*
X358187Y358751D01*
X356813D01*
X356648Y359148D01*
X355500Y359624D01*
X349500D01*
X348352Y359148D01*
X348006Y358314D01*
X312500D01*
X311232Y358061D01*
X310157Y357343D01*
X296730Y343917D01*
X295527Y344510D01*
X295663Y345539D01*
X295379Y347693D01*
X294548Y349700D01*
X293226Y351423D01*
X291502Y352746D01*
X289495Y353577D01*
X287342Y353860D01*
X285188Y353577D01*
X283181Y352746D01*
X281458Y351423D01*
X280135Y349700D01*
X279304Y347693D01*
X279021Y345539D01*
X279304Y343386D01*
X280135Y341379D01*
X281458Y339655D01*
X283181Y338333D01*
X285188Y337502D01*
X287342Y337218D01*
X288371Y337354D01*
X288965Y336151D01*
X97622Y144808D01*
X96419Y145401D01*
X96554Y146431D01*
X96271Y148584D01*
X95440Y150591D01*
X94117Y152315D01*
X92394Y153637D01*
X90387Y154468D01*
X88233Y154752D01*
X86080Y154468D01*
X84073Y153637D01*
X82349Y152315D01*
X81027Y150591D01*
X80196Y148584D01*
X79912Y146431D01*
X80196Y144277D01*
X81027Y142270D01*
X82349Y140547D01*
X84073Y139224D01*
X86080Y138393D01*
X88233Y138110D01*
X89263Y138245D01*
X89856Y137042D01*
X85257Y132443D01*
X84539Y131368D01*
X84286Y130100D01*
Y-932D01*
X83600D01*
X83437Y-1000D01*
X79263D01*
X79100Y-932D01*
X71100D01*
X69952Y-1408D01*
X69476Y-2556D01*
Y-4207D01*
X69422Y-4278D01*
X68767Y-5859D01*
X68544Y-7556D01*
X68767Y-9253D01*
X69422Y-10834D01*
X69476Y-10905D01*
Y-12556D01*
X69952Y-13704D01*
X71100Y-14180D01*
X79100D01*
X79263Y-14112D01*
X83437D01*
X83600Y-14180D01*
X91600D01*
X92748Y-13704D01*
X93224Y-12556D01*
Y-10905D01*
X93278Y-10834D01*
X93933Y-9253D01*
X94156Y-7556D01*
X93933Y-5859D01*
X93278Y-4278D01*
X93224Y-4207D01*
Y-2556D01*
X92748Y-1408D01*
X91600Y-932D01*
X90914D01*
Y128727D01*
X313873Y351686D01*
X348006D01*
X348352Y350852D01*
X348749Y350687D01*
Y349313D01*
X348352Y349148D01*
X347901Y348059D01*
X345000D01*
X345000Y348059D01*
X343829Y347826D01*
X342837Y347163D01*
X342837Y347163D01*
X338937Y343263D01*
X338274Y342270D01*
X338041Y341100D01*
X338041Y341100D01*
Y332993D01*
X336771Y332608D01*
X336105Y333605D01*
X334451Y334710D01*
X332500Y335098D01*
X330549Y334710D01*
X328895Y333605D01*
X327790Y331951D01*
X327402Y330000D01*
X327790Y328049D01*
X328895Y326395D01*
X330549Y325290D01*
X332500Y324902D01*
X334451Y325290D01*
X336105Y326395D01*
X336771Y327392D01*
X338041Y327007D01*
Y311068D01*
X337100D01*
X335952Y310592D01*
X335476Y309444D01*
Y299444D01*
X335507Y299370D01*
X334801Y298314D01*
X272500D01*
X271232Y298061D01*
X270157Y297343D01*
X255157Y282343D01*
X254439Y281268D01*
X254186Y280000D01*
Y279605D01*
X254169Y279517D01*
Y273886D01*
X250746Y270463D01*
X250678Y270300D01*
X247727Y267348D01*
X247564Y267281D01*
X241907Y261624D01*
X241431Y260476D01*
X241907Y259328D01*
X241021Y258442D01*
X239873Y258918D01*
X238725Y258442D01*
X233068Y252785D01*
X232592Y251637D01*
X233068Y250489D01*
X240139Y243418D01*
X241287Y242943D01*
X242435Y243418D01*
X248092Y249075D01*
X248568Y250223D01*
X248092Y251371D01*
X248978Y252257D01*
X250126Y251781D01*
X251274Y252257D01*
X256931Y257914D01*
X256998Y258077D01*
X259950Y261028D01*
X260113Y261096D01*
X265770Y266752D01*
X266245Y267901D01*
X265770Y269049D01*
X264602Y270216D01*
X264590Y270305D01*
X263935Y271886D01*
X262894Y273244D01*
X261536Y274285D01*
X260796Y274592D01*
Y278610D01*
X273873Y291686D01*
X296168D01*
X296694Y290416D01*
X217739Y211461D01*
X217131Y210551D01*
X216917Y209478D01*
Y144478D01*
X216917Y144478D01*
X216904D01*
X217171Y142455D01*
X217952Y140570D01*
X219194Y138951D01*
X220813Y137709D01*
X222698Y136928D01*
X224721Y136661D01*
Y136674D01*
X394721D01*
X394721Y136674D01*
Y136661D01*
X396744Y136928D01*
X398630Y137709D01*
X400249Y138951D01*
X401491Y140570D01*
X402272Y142455D01*
X402538Y144478D01*
X402525D01*
Y284478D01*
X402525Y284478D01*
X402538D01*
X402272Y286501D01*
X401491Y288387D01*
X400249Y290006D01*
X399713Y290416D01*
X400145Y291686D01*
X406006D01*
X406352Y290852D01*
X407500Y290376D01*
X422500D01*
X423648Y290852D01*
X424124Y292000D01*
Y294186D01*
X433006D01*
X433352Y293352D01*
X434500Y292876D01*
X440500D01*
X441648Y293352D01*
X441813Y293749D01*
X443187D01*
X443352Y293352D01*
X444500Y292876D01*
X450500D01*
X451648Y293352D01*
X451994Y294186D01*
X482756D01*
X483435Y292916D01*
X482790Y291951D01*
X482402Y290000D01*
X482790Y288049D01*
X483895Y286395D01*
X485549Y285290D01*
X487500Y284902D01*
X489451Y285290D01*
X491105Y286395D01*
X492210Y288049D01*
X492598Y290000D01*
X492210Y291951D01*
X491565Y292916D01*
X492244Y294186D01*
X533825D01*
X534151Y293797D01*
X534623Y292916D01*
X534441Y292000D01*
Y284500D01*
Y272099D01*
X533352Y271648D01*
X533323Y271578D01*
X531677D01*
X531648Y271648D01*
X530500Y272124D01*
X524500D01*
X523352Y271648D01*
X523323Y271578D01*
X502500D01*
X500939Y271268D01*
X499616Y270384D01*
X499616Y270384D01*
X490811Y261578D01*
X487761D01*
X487329Y262848D01*
X488305Y263597D01*
X489627Y265320D01*
X490458Y267327D01*
X490742Y269481D01*
X490458Y271634D01*
X489627Y273641D01*
X488305Y275365D01*
X486581Y276687D01*
X484574Y277518D01*
X482421Y277802D01*
X480267Y277518D01*
X478260Y276687D01*
X476537Y275365D01*
X475214Y273641D01*
X474383Y271634D01*
X474100Y269481D01*
X474383Y267327D01*
X475214Y265320D01*
X476537Y263597D01*
X478260Y262274D01*
X478429Y262204D01*
X478650Y260738D01*
X477790Y259451D01*
X477402Y257500D01*
X477790Y255549D01*
X478895Y253895D01*
X480549Y252790D01*
X482500Y252402D01*
X484451Y252790D01*
X485396Y253422D01*
X492500D01*
X492500Y253422D01*
X494061Y253732D01*
X495384Y254616D01*
X504189Y263422D01*
X523323D01*
X523352Y263352D01*
X524500Y262876D01*
X530500D01*
X531648Y263352D01*
X531677Y263422D01*
X533323D01*
X533352Y263352D01*
X534500Y262876D01*
X540500D01*
X541648Y263352D01*
X541813Y263749D01*
X543187D01*
X543352Y263352D01*
X544500Y262876D01*
X550500D01*
X551648Y263352D01*
X551813Y263749D01*
X553187D01*
X553352Y263352D01*
X554500Y262876D01*
X560500D01*
X561648Y263352D01*
X562124Y264500D01*
Y270500D01*
X561648Y271648D01*
X560559Y272099D01*
Y273278D01*
X561829Y274075D01*
X562500Y273941D01*
X563426Y274125D01*
X564292Y273664D01*
X564696Y273332D01*
Y252124D01*
X564500D01*
X563352Y251648D01*
X563187Y251251D01*
X561813D01*
X561648Y251648D01*
X560500Y252124D01*
X554500D01*
X553352Y251648D01*
X552876Y250500D01*
Y244500D01*
X553352Y243352D01*
X553749Y243187D01*
Y241813D01*
X553352Y241648D01*
X552876Y240500D01*
Y234500D01*
X553352Y233352D01*
X554500Y232876D01*
X557243D01*
X557766Y231606D01*
X557410Y231073D01*
X557196Y230000D01*
Y223539D01*
X556756Y223244D01*
X555761Y221756D01*
X555412Y220000D01*
X555761Y218244D01*
X556756Y216756D01*
X558244Y215761D01*
X560000Y215412D01*
X561756Y215761D01*
X563244Y216756D01*
X564239Y218244D01*
X564588Y220000D01*
X564239Y221756D01*
X563244Y223244D01*
X562804Y223539D01*
Y228839D01*
X566448Y232483D01*
X566987Y232440D01*
X567294Y232213D01*
X567864Y231122D01*
X567692Y230667D01*
X566802Y230298D01*
X566326Y229150D01*
Y220850D01*
X566802Y219702D01*
X567950Y219226D01*
X569696D01*
Y217124D01*
X569500D01*
X568352Y216648D01*
X567876Y215500D01*
Y211842D01*
X563158Y207124D01*
X559500D01*
X558352Y206648D01*
X557876Y205500D01*
Y199500D01*
X558352Y198352D01*
X559500Y197876D01*
X565500D01*
X566648Y198352D01*
X566813Y198749D01*
X568187D01*
X568352Y198352D01*
X569500Y197876D01*
X575500D01*
X576648Y198352D01*
X577124Y199500D01*
Y199696D01*
X603839D01*
X627424Y176111D01*
X628333Y175504D01*
X629406Y175290D01*
X702439D01*
X706700Y171028D01*
X705982Y169293D01*
X705672Y166944D01*
X705982Y164594D01*
X706889Y162405D01*
X708331Y160525D01*
X710211Y159082D01*
X712401Y158176D01*
X714750Y157866D01*
X717100Y158176D01*
X718579Y158789D01*
X730850Y146518D01*
X730324Y145248D01*
X455403D01*
X455403Y145248D01*
X454330Y145034D01*
X453836Y144805D01*
Y144805D01*
X452044Y143658D01*
X431656Y129448D01*
X411841Y114449D01*
X392631Y98684D01*
X374054Y82176D01*
X356140Y64952D01*
X338916Y47038D01*
X322409Y28461D01*
X306643Y9251D01*
X302744Y4100D01*
X302219Y3406D01*
X302194Y3389D01*
X301982Y3093D01*
X301170Y2153D01*
X297086Y-2504D01*
X291456Y-7441D01*
X285230Y-11602D01*
X278514Y-14913D01*
X271424Y-17320D01*
X264079Y-18781D01*
X256794Y-19259D01*
X256607Y-19222D01*
X57387D01*
Y-19176D01*
X50350Y-19572D01*
X43402Y-20752D01*
X36630Y-22703D01*
X30118Y-25401D01*
X23950Y-28810D01*
X21461Y-30575D01*
X21382Y-30562D01*
X21382Y-30562D01*
X21382Y-30562D01*
X16954Y-33275D01*
X11540Y-35517D01*
X5842Y-36885D01*
X0Y-37345D01*
X-5842Y-36885D01*
X-11540Y-35517D01*
X-16954Y-33275D01*
X-21951Y-30213D01*
X-26407Y-26407D01*
X-30213Y-21951D01*
X-33275Y-16954D01*
X-35517Y-11540D01*
X-36885Y-5842D01*
X-37333Y-151D01*
X-37303Y0D01*
Y31219D01*
X-36944Y31978D01*
X-22931Y59260D01*
X-8033Y86068D01*
X7735Y112375D01*
X24355Y138151D01*
X41809Y163370D01*
X60079Y188005D01*
X79146Y212028D01*
X98988Y235415D01*
X119585Y258140D01*
X140914Y280179D01*
X162953Y301508D01*
X185678Y322105D01*
X209064Y341947D01*
X233088Y361013D01*
X257722Y379283D01*
X282941Y396738D01*
X301122Y408460D01*
X301134Y408457D01*
X301134Y408457D01*
X302797Y409569D01*
X308337Y412301D01*
X314187Y414286D01*
X320245Y415491D01*
X326409Y415895D01*
X332573Y415491D01*
X338632Y414286D01*
X344481Y412301D01*
X349120Y410013D01*
X350217Y409375D01*
X350466Y409209D01*
X351339Y408778D01*
X356668Y406151D01*
X363215Y403928D01*
X369997Y402579D01*
X376897Y402127D01*
X383797Y402579D01*
X390579Y403928D01*
X397127Y406151D01*
X403329Y409209D01*
X409078Y413051D01*
X414277Y417610D01*
X418837Y422809D01*
X422678Y428559D01*
X425737Y434760D01*
X427959Y441308D01*
X429308Y448090D01*
X429414Y449699D01*
X429489Y449763D01*
X429488D01*
X429587Y451263D01*
X430792Y457322D01*
X432778Y463171D01*
X435510Y468711D01*
X438942Y473847D01*
X443014Y478492D01*
X447659Y482565D01*
X452795Y485996D01*
X457880Y488504D01*
X459081Y488921D01*
X460262Y489388D01*
X473503Y494620D01*
X502380Y504953D01*
X531580Y514335D01*
X561071Y522756D01*
X590822Y530209D01*
X620800Y536683D01*
X650975Y542174D01*
X681313Y546674D01*
X711782Y550179D01*
X742349Y552686D01*
X772983Y554191D01*
X803405Y554688D01*
X803649Y554640D01*
X803892Y554688D01*
X834314Y554191D01*
D02*
G37*
%LPC*%
G36*
X778249Y417843D02*
X775868Y417529D01*
X773649Y416610D01*
X771744Y415148D01*
X770282Y413243D01*
X769363Y411025D01*
X769050Y408644D01*
X769363Y406263D01*
X770282Y404045D01*
X771744Y402140D01*
X773649Y400678D01*
X775868Y399759D01*
X778249Y399445D01*
X780629Y399759D01*
X782848Y400678D01*
X784753Y402140D01*
X786215Y404045D01*
X787134Y406263D01*
X787447Y408644D01*
X787134Y411025D01*
X786215Y413243D01*
X784753Y415148D01*
X782848Y416610D01*
X780629Y417529D01*
X778249Y417843D01*
D02*
G37*
G36*
X752849D02*
X750468Y417529D01*
X748249Y416610D01*
X746344Y415148D01*
X744882Y413243D01*
X743963Y411025D01*
X743650Y408644D01*
X743963Y406263D01*
X744882Y404045D01*
X746344Y402140D01*
X748249Y400678D01*
X750468Y399759D01*
X752849Y399445D01*
X755229Y399759D01*
X757448Y400678D01*
X759353Y402140D01*
X760815Y404045D01*
X761734Y406263D01*
X762047Y408644D01*
X761734Y411025D01*
X760815Y413243D01*
X759353Y415148D01*
X757448Y416610D01*
X755229Y417529D01*
X752849Y417843D01*
D02*
G37*
G36*
X803649D02*
X801268Y417529D01*
X799049Y416610D01*
X797144Y415148D01*
X795682Y413243D01*
X794763Y411025D01*
X794450Y408644D01*
X794763Y406263D01*
X795682Y404045D01*
X797144Y402140D01*
X799049Y400678D01*
X801268Y399759D01*
X803649Y399445D01*
X806029Y399759D01*
X808248Y400678D01*
X810153Y402140D01*
X811615Y404045D01*
X812534Y406263D01*
X812847Y408644D01*
X812534Y411025D01*
X811615Y413243D01*
X810153Y415148D01*
X808248Y416610D01*
X806029Y417529D01*
X803649Y417843D01*
D02*
G37*
G36*
X854448D02*
X852068Y417529D01*
X849849Y416610D01*
X847944Y415148D01*
X846482Y413243D01*
X845563Y411025D01*
X845250Y408644D01*
X845563Y406263D01*
X846482Y404045D01*
X847944Y402140D01*
X849849Y400678D01*
X852068Y399759D01*
X854448Y399445D01*
X856829Y399759D01*
X859048Y400678D01*
X860953Y402140D01*
X862415Y404045D01*
X863334Y406263D01*
X863647Y408644D01*
X863334Y411025D01*
X862415Y413243D01*
X860953Y415148D01*
X859048Y416610D01*
X856829Y417529D01*
X854448Y417843D01*
D02*
G37*
G36*
X829048D02*
X826668Y417529D01*
X824449Y416610D01*
X822544Y415148D01*
X821082Y413243D01*
X820163Y411025D01*
X819850Y408644D01*
X820163Y406263D01*
X821082Y404045D01*
X822544Y402140D01*
X824449Y400678D01*
X826668Y399759D01*
X829048Y399445D01*
X831429Y399759D01*
X833648Y400678D01*
X835553Y402140D01*
X837015Y404045D01*
X837934Y406263D01*
X838247Y408644D01*
X837934Y411025D01*
X837015Y413243D01*
X835553Y415148D01*
X833648Y416610D01*
X831429Y417529D01*
X829048Y417843D01*
D02*
G37*
G36*
X692629Y404745D02*
X690475Y404462D01*
X688468Y403630D01*
X686745Y402308D01*
X685422Y400585D01*
X684591Y398578D01*
X684307Y396424D01*
X684591Y394271D01*
X685422Y392264D01*
X686745Y390540D01*
X688468Y389218D01*
X690475Y388386D01*
X692629Y388103D01*
X694782Y388386D01*
X696789Y389218D01*
X698513Y390540D01*
X699835Y392264D01*
X700666Y394271D01*
X700950Y396424D01*
X700666Y398578D01*
X699835Y400585D01*
X698513Y402308D01*
X696789Y403630D01*
X694782Y404462D01*
X692629Y404745D01*
D02*
G37*
G36*
X696850Y201467D02*
X681850D01*
X680702Y200992D01*
X680226Y199844D01*
Y195964D01*
X678956Y195579D01*
X678605Y196105D01*
X676951Y197210D01*
X675000Y197598D01*
X673049Y197210D01*
X671395Y196105D01*
X670290Y194451D01*
X669902Y192500D01*
X670290Y190549D01*
X671395Y188895D01*
X673049Y187790D01*
X675000Y187402D01*
X676951Y187790D01*
X678605Y188895D01*
X678956Y189421D01*
X680226Y189036D01*
Y184844D01*
X680702Y183696D01*
X681850Y183220D01*
X696850D01*
X697998Y183696D01*
X698474Y184844D01*
Y199844D01*
X697998Y200992D01*
X696850Y201467D01*
D02*
G37*
G36*
X816350Y201422D02*
X814000Y201112D01*
X811811Y200205D01*
X809931Y198763D01*
X808489Y196883D01*
X807582Y194693D01*
X807272Y192344D01*
X807582Y189994D01*
X808489Y187805D01*
X809931Y185925D01*
X811811Y184482D01*
X814000Y183576D01*
X816350Y183266D01*
X818699Y183576D01*
X820889Y184482D01*
X822769Y185925D01*
X824212Y187805D01*
X825118Y189994D01*
X825428Y192344D01*
X825118Y194693D01*
X824212Y196883D01*
X822769Y198763D01*
X820889Y200205D01*
X818699Y201112D01*
X816350Y201422D01*
D02*
G37*
G36*
X696348Y245765D02*
X694195Y245482D01*
X692188Y244650D01*
X690464Y243328D01*
X689142Y241604D01*
X688311Y239598D01*
X688027Y237444D01*
X688311Y235290D01*
X689142Y233283D01*
X690464Y231560D01*
X692188Y230238D01*
X694195Y229406D01*
X696348Y229123D01*
X698502Y229406D01*
X700509Y230238D01*
X702232Y231560D01*
X703555Y233283D01*
X704386Y235290D01*
X704670Y237444D01*
X704386Y239598D01*
X703555Y241604D01*
X702232Y243328D01*
X700509Y244650D01*
X698502Y245482D01*
X696348Y245765D01*
D02*
G37*
G36*
X752849Y265443D02*
X750468Y265129D01*
X748249Y264210D01*
X746344Y262748D01*
X744882Y260843D01*
X743963Y258625D01*
X743650Y256244D01*
X743963Y253863D01*
X744882Y251645D01*
X746344Y249739D01*
X748249Y248278D01*
X750468Y247359D01*
X752849Y247045D01*
X755229Y247359D01*
X757448Y248278D01*
X759353Y249739D01*
X760815Y251645D01*
X761734Y253863D01*
X762047Y256244D01*
X761734Y258625D01*
X760815Y260843D01*
X759353Y262748D01*
X757448Y264210D01*
X755229Y265129D01*
X752849Y265443D01*
D02*
G37*
G36*
X670948Y245765D02*
X668795Y245482D01*
X666788Y244650D01*
X665064Y243328D01*
X663742Y241604D01*
X662911Y239598D01*
X662627Y237444D01*
X662911Y235290D01*
X663742Y233283D01*
X665064Y231560D01*
X666788Y230238D01*
X668795Y229406D01*
X670948Y229123D01*
X673102Y229406D01*
X675109Y230238D01*
X676832Y231560D01*
X678155Y233283D01*
X678986Y235290D01*
X679270Y237444D01*
X678986Y239598D01*
X678155Y241604D01*
X676832Y243328D01*
X675109Y244650D01*
X673102Y245482D01*
X670948Y245765D01*
D02*
G37*
G36*
X740150Y201422D02*
X737801Y201112D01*
X735611Y200205D01*
X733731Y198763D01*
X732289Y196883D01*
X731382Y194693D01*
X731072Y192344D01*
X731382Y189994D01*
X732289Y187805D01*
X733731Y185925D01*
X735611Y184482D01*
X737801Y183576D01*
X740150Y183266D01*
X742499Y183576D01*
X744689Y184482D01*
X746569Y185925D01*
X748011Y187805D01*
X748918Y189994D01*
X749228Y192344D01*
X748918Y194693D01*
X748011Y196883D01*
X746569Y198763D01*
X744689Y200205D01*
X742499Y201112D01*
X740150Y201422D01*
D02*
G37*
G36*
X714750D02*
X712401Y201112D01*
X710211Y200205D01*
X708331Y198763D01*
X706889Y196883D01*
X705982Y194693D01*
X705672Y192344D01*
X705982Y189994D01*
X706889Y187805D01*
X708331Y185925D01*
X710211Y184482D01*
X712401Y183576D01*
X714750Y183266D01*
X717100Y183576D01*
X719289Y184482D01*
X721169Y185925D01*
X722611Y187805D01*
X723518Y189994D01*
X723828Y192344D01*
X723518Y194693D01*
X722611Y196883D01*
X721169Y198763D01*
X719289Y200205D01*
X717100Y201112D01*
X714750Y201422D01*
D02*
G37*
G36*
X740150Y176021D02*
X737801Y175712D01*
X735611Y174805D01*
X733731Y173363D01*
X732289Y171483D01*
X731382Y169293D01*
X731072Y166944D01*
X731382Y164594D01*
X732289Y162405D01*
X733731Y160525D01*
X735611Y159082D01*
X737801Y158176D01*
X740150Y157866D01*
X742499Y158176D01*
X744689Y159082D01*
X746569Y160525D01*
X748011Y162405D01*
X748918Y164594D01*
X749228Y166944D01*
X748918Y169293D01*
X748011Y171483D01*
X746569Y173363D01*
X744689Y174805D01*
X742499Y175712D01*
X740150Y176021D01*
D02*
G37*
G36*
X765550D02*
X763201Y175712D01*
X761011Y174805D01*
X759131Y173363D01*
X757689Y171483D01*
X756782Y169293D01*
X756472Y166944D01*
X756782Y164594D01*
X757689Y162405D01*
X759131Y160525D01*
X761011Y159082D01*
X763201Y158176D01*
X765550Y157866D01*
X767899Y158176D01*
X770089Y159082D01*
X771969Y160525D01*
X773411Y162405D01*
X774318Y164594D01*
X774628Y166944D01*
X774318Y169293D01*
X773411Y171483D01*
X771969Y173363D01*
X770089Y174805D01*
X767899Y175712D01*
X765550Y176021D01*
D02*
G37*
G36*
X816350D02*
X814000Y175712D01*
X811811Y174805D01*
X809931Y173363D01*
X808489Y171483D01*
X807582Y169293D01*
X807272Y166944D01*
X807582Y164594D01*
X808489Y162405D01*
X809931Y160525D01*
X811811Y159082D01*
X814000Y158176D01*
X816350Y157866D01*
X818699Y158176D01*
X820889Y159082D01*
X822769Y160525D01*
X824212Y162405D01*
X825118Y164594D01*
X825428Y166944D01*
X825118Y169293D01*
X824212Y171483D01*
X822769Y173363D01*
X820889Y174805D01*
X818699Y175712D01*
X816350Y176021D01*
D02*
G37*
G36*
X790950D02*
X788600Y175712D01*
X786411Y174805D01*
X784531Y173363D01*
X783089Y171483D01*
X782182Y169293D01*
X781872Y166944D01*
X782182Y164594D01*
X783089Y162405D01*
X784531Y160525D01*
X786411Y159082D01*
X788600Y158176D01*
X790950Y157866D01*
X793299Y158176D01*
X795489Y159082D01*
X797369Y160525D01*
X798811Y162405D01*
X799718Y164594D01*
X800028Y166944D01*
X799718Y169293D01*
X798811Y171483D01*
X797369Y173363D01*
X795489Y174805D01*
X793299Y175712D01*
X790950Y176021D01*
D02*
G37*
G36*
X829650Y454124D02*
X819150D01*
X818002Y453648D01*
X817526Y452500D01*
Y446000D01*
X818002Y444852D01*
X819150Y444376D01*
X829650D01*
X830798Y444852D01*
X831274Y446000D01*
Y452500D01*
X830798Y453648D01*
X829650Y454124D01*
D02*
G37*
G36*
X988649Y457792D02*
X984679Y457401D01*
X980862Y456243D01*
X977344Y454363D01*
X974260Y451832D01*
X971730Y448749D01*
X969849Y445231D01*
X968691Y441414D01*
X968300Y437444D01*
X968691Y433474D01*
X969849Y429657D01*
X971730Y426139D01*
X974260Y423056D01*
X977344Y420525D01*
X980862Y418645D01*
X984679Y417487D01*
X988649Y417096D01*
X992618Y417487D01*
X996435Y418645D01*
X999953Y420525D01*
X1003037Y423056D01*
X1005567Y426139D01*
X1007448Y429657D01*
X1008605Y433474D01*
X1008996Y437444D01*
X1008605Y441414D01*
X1007448Y445231D01*
X1005567Y448749D01*
X1003037Y451832D01*
X999953Y454363D01*
X996435Y456243D01*
X992618Y457401D01*
X988649Y457792D01*
D02*
G37*
G36*
X719600Y466578D02*
X717251Y466268D01*
X715061Y465362D01*
X713181Y463919D01*
X711739Y462039D01*
X710832Y459850D01*
X710522Y457500D01*
X710832Y455150D01*
X711739Y452961D01*
X713181Y451081D01*
X715061Y449638D01*
X717251Y448732D01*
X719600Y448422D01*
X721949Y448732D01*
X724139Y449638D01*
X726019Y451081D01*
X727461Y452961D01*
X728368Y455150D01*
X728678Y457500D01*
X728368Y459850D01*
X727461Y462039D01*
X726019Y463919D01*
X724139Y465362D01*
X721949Y466268D01*
X719600Y466578D01*
D02*
G37*
G36*
X760000Y475814D02*
X709200D01*
X707932Y475561D01*
X706857Y474843D01*
X697775Y465761D01*
X696550Y466268D01*
X694200Y466578D01*
X691851Y466268D01*
X689661Y465362D01*
X687781Y463919D01*
X686339Y462039D01*
X685432Y459850D01*
X685122Y457500D01*
X685432Y455150D01*
X686339Y452961D01*
X687781Y451081D01*
X689661Y449638D01*
X691851Y448732D01*
X694200Y448422D01*
X696550Y448732D01*
X698739Y449638D01*
X700619Y451081D01*
X702061Y452961D01*
X702968Y455150D01*
X703278Y457500D01*
X702968Y459850D01*
X702461Y461075D01*
X710573Y469186D01*
X758627D01*
X762876Y464937D01*
Y462000D01*
X763352Y460852D01*
X764500Y460376D01*
X770500D01*
X771648Y460852D01*
X771994Y461686D01*
X777150D01*
X778418Y461939D01*
X779493Y462657D01*
X782713Y465876D01*
X788150D01*
X789298Y466352D01*
X789774Y467500D01*
Y474000D01*
X789298Y475148D01*
X788150Y475624D01*
X777650D01*
X776502Y475148D01*
X776026Y474000D01*
Y468563D01*
X775777Y468314D01*
X771994D01*
X771648Y469148D01*
X770500Y469624D01*
X767563D01*
X762343Y474843D01*
X761268Y475561D01*
X761058Y475603D01*
X760000Y475814D01*
D02*
G37*
G36*
X829650Y475624D02*
X819150D01*
X818002Y475148D01*
X817526Y474000D01*
Y467500D01*
X818002Y466352D01*
X819150Y465876D01*
X829650D01*
X830798Y466352D01*
X831274Y467500D01*
Y474000D01*
X830798Y475148D01*
X829650Y475624D01*
D02*
G37*
G36*
X457021Y222802D02*
X454867Y222518D01*
X452860Y221687D01*
X451137Y220365D01*
X449814Y218641D01*
X448983Y216634D01*
X448699Y214481D01*
X448983Y212327D01*
X449814Y210320D01*
X451137Y208597D01*
X452860Y207274D01*
X454867Y206443D01*
X457021Y206159D01*
X459174Y206443D01*
X461181Y207274D01*
X462905Y208597D01*
X464227Y210320D01*
X465058Y212327D01*
X465342Y214481D01*
X465058Y216634D01*
X464227Y218641D01*
X462905Y220365D01*
X461181Y221687D01*
X459174Y222518D01*
X457021Y222802D01*
D02*
G37*
G36*
X1485000Y10098D02*
X1483049Y9710D01*
X1481395Y8605D01*
X1480290Y6951D01*
X1479902Y5000D01*
X1480290Y3049D01*
X1481395Y1395D01*
X1483049Y290D01*
X1485000Y-98D01*
X1486951Y290D01*
X1488605Y1395D01*
X1489710Y3049D01*
X1490098Y5000D01*
X1489710Y6951D01*
X1488605Y8605D01*
X1486951Y9710D01*
X1485000Y10098D01*
D02*
G37*
G36*
X482421Y222802D02*
X480267Y222518D01*
X478260Y221687D01*
X476537Y220365D01*
X475214Y218641D01*
X474383Y216634D01*
X474100Y214481D01*
X474383Y212327D01*
X475214Y210320D01*
X476537Y208597D01*
X478260Y207274D01*
X480267Y206443D01*
X482421Y206159D01*
X484574Y206443D01*
X486581Y207274D01*
X488305Y208597D01*
X489627Y210320D01*
X490458Y212327D01*
X490742Y214481D01*
X490458Y216634D01*
X489627Y218641D01*
X488305Y220365D01*
X486581Y221687D01*
X484574Y222518D01*
X482421Y222802D01*
D02*
G37*
G36*
X190000Y220098D02*
X188049Y219710D01*
X186395Y218605D01*
X185290Y216951D01*
X184902Y215000D01*
X185290Y213049D01*
X186395Y211395D01*
X188049Y210290D01*
X190000Y209902D01*
X191951Y210290D01*
X193605Y211395D01*
X194710Y213049D01*
X195098Y215000D01*
X194710Y216951D01*
X193605Y218605D01*
X191951Y219710D01*
X190000Y220098D01*
D02*
G37*
G36*
X1607297Y20348D02*
X1603327Y19957D01*
X1599510Y18799D01*
X1595992Y16919D01*
X1592909Y14388D01*
X1590378Y11305D01*
X1588498Y7787D01*
X1587340Y3970D01*
X1586949Y0D01*
X1587340Y-3970D01*
X1588498Y-7787D01*
X1590378Y-11305D01*
X1592909Y-14388D01*
X1595992Y-16919D01*
X1599510Y-18799D01*
X1603327Y-19957D01*
X1607297Y-20348D01*
X1611267Y-19957D01*
X1615084Y-18799D01*
X1618602Y-16919D01*
X1621685Y-14388D01*
X1624216Y-11305D01*
X1626096Y-7787D01*
X1627254Y-3970D01*
X1627645Y0D01*
X1627254Y3970D01*
X1626096Y7787D01*
X1624216Y11305D01*
X1621685Y14388D01*
X1618602Y16919D01*
X1615084Y18799D01*
X1611267Y19957D01*
X1607297Y20348D01*
D02*
G37*
G36*
X190000Y202598D02*
X188049Y202210D01*
X186395Y201105D01*
X185290Y199451D01*
X184902Y197500D01*
X185290Y195549D01*
X186395Y193895D01*
X188049Y192790D01*
X190000Y192402D01*
X191951Y192790D01*
X193605Y193895D01*
X194710Y195549D01*
X195098Y197500D01*
X194710Y199451D01*
X193605Y201105D01*
X191951Y202210D01*
X190000Y202598D01*
D02*
G37*
G36*
X172500D02*
X170549Y202210D01*
X168895Y201105D01*
X167790Y199451D01*
X167402Y197500D01*
X167790Y195549D01*
X168895Y193895D01*
X170549Y192790D01*
X172500Y192402D01*
X174451Y192790D01*
X176105Y193895D01*
X177210Y195549D01*
X177598Y197500D01*
X177210Y199451D01*
X176105Y201105D01*
X174451Y202210D01*
X172500Y202598D01*
D02*
G37*
G36*
X62500Y27598D02*
X60549Y27210D01*
X58895Y26105D01*
X57790Y24451D01*
X57402Y22500D01*
X57790Y20549D01*
X58895Y18895D01*
X60549Y17790D01*
X62500Y17402D01*
X64451Y17790D01*
X66105Y18895D01*
X67210Y20549D01*
X67598Y22500D01*
X67210Y24451D01*
X66105Y26105D01*
X64451Y27210D01*
X62500Y27598D01*
D02*
G37*
G36*
X122118Y227943D02*
X119964Y227659D01*
X117957Y226828D01*
X116234Y225505D01*
X114912Y223782D01*
X114080Y221775D01*
X113797Y219622D01*
X114080Y217468D01*
X114912Y215461D01*
X116234Y213738D01*
X117957Y212415D01*
X119964Y211584D01*
X122118Y211300D01*
X124272Y211584D01*
X126279Y212415D01*
X128002Y213738D01*
X129325Y215461D01*
X130156Y217468D01*
X130439Y219622D01*
X130156Y221775D01*
X129325Y223782D01*
X128002Y225505D01*
X126279Y226828D01*
X124272Y227659D01*
X122118Y227943D01*
D02*
G37*
G36*
X893000Y299624D02*
X887000D01*
X885852Y299148D01*
X885823Y299078D01*
X877500D01*
X875939Y298768D01*
X874616Y297884D01*
X874616Y297884D01*
X870216Y293484D01*
X869332Y292161D01*
X869022Y290600D01*
X869022Y290600D01*
Y289746D01*
X868861Y289506D01*
X868512Y287750D01*
Y272250D01*
X868861Y270494D01*
X869856Y269006D01*
X871344Y268011D01*
X873100Y267662D01*
X874856Y268011D01*
X876344Y269006D01*
X877339Y270494D01*
X877688Y272250D01*
Y287750D01*
X877411Y289143D01*
X879189Y290922D01*
X885823D01*
X885852Y290852D01*
X887000Y290376D01*
X893000D01*
X894148Y290852D01*
X894177Y290922D01*
X983311D01*
X1007116Y267116D01*
X1007116Y267116D01*
X1008439Y266232D01*
X1010000Y265922D01*
X1010000Y265922D01*
X1031811D01*
X1053666Y244066D01*
X1053666Y244066D01*
X1054989Y243182D01*
X1056550Y242872D01*
X1056550Y242872D01*
X1063311D01*
X1069066Y237116D01*
X1070389Y236232D01*
X1071950Y235922D01*
X1071950Y235922D01*
X1102104D01*
X1103049Y235290D01*
X1105000Y234902D01*
X1106951Y235290D01*
X1108605Y236395D01*
X1109710Y238049D01*
X1110098Y240000D01*
X1109710Y241951D01*
X1108605Y243605D01*
X1106951Y244710D01*
X1105000Y245098D01*
X1103049Y244710D01*
X1102104Y244078D01*
X1073639D01*
X1067884Y249834D01*
X1066561Y250718D01*
X1065000Y251028D01*
X1065000Y251028D01*
X1058239D01*
X1036384Y272884D01*
X1035061Y273768D01*
X1033500Y274078D01*
X1033500Y274078D01*
X1011689D01*
X987884Y297884D01*
X986561Y298768D01*
X985000Y299078D01*
X985000Y299078D01*
X894177D01*
X894148Y299148D01*
X893000Y299624D01*
D02*
G37*
G36*
X1032500Y252598D02*
X1030549Y252210D01*
X1028895Y251105D01*
X1027790Y249451D01*
X1027402Y247500D01*
X1027790Y245549D01*
X1028895Y243895D01*
X1030549Y242790D01*
X1032500Y242402D01*
X1034451Y242790D01*
X1036105Y243895D01*
X1037210Y245549D01*
X1037598Y247500D01*
X1037210Y249451D01*
X1036105Y251105D01*
X1034451Y252210D01*
X1032500Y252598D01*
D02*
G37*
G36*
X410000Y260098D02*
X408049Y259710D01*
X406395Y258605D01*
X405290Y256951D01*
X404902Y255000D01*
X405290Y253049D01*
X406395Y251395D01*
X408049Y250290D01*
X410000Y249902D01*
X411951Y250290D01*
X413605Y251395D01*
X414710Y253049D01*
X415098Y255000D01*
X414710Y256951D01*
X413605Y258605D01*
X411951Y259710D01*
X410000Y260098D01*
D02*
G37*
G36*
X147518Y227943D02*
X145364Y227659D01*
X143357Y226828D01*
X141634Y225505D01*
X140312Y223782D01*
X139480Y221775D01*
X139197Y219622D01*
X139480Y217468D01*
X140312Y215461D01*
X141634Y213738D01*
X143357Y212415D01*
X145364Y211584D01*
X147518Y211300D01*
X149672Y211584D01*
X151679Y212415D01*
X153402Y213738D01*
X154725Y215461D01*
X155556Y217468D01*
X155839Y219622D01*
X155556Y221775D01*
X154725Y223782D01*
X153402Y225505D01*
X151679Y226828D01*
X149672Y227659D01*
X147518Y227943D01*
D02*
G37*
G36*
X0Y20348D02*
X-3970Y19957D01*
X-7787Y18799D01*
X-11305Y16919D01*
X-14388Y14388D01*
X-16919Y11305D01*
X-18799Y7787D01*
X-19957Y3970D01*
X-20348Y0D01*
X-19957Y-3970D01*
X-18799Y-7787D01*
X-16919Y-11305D01*
X-14388Y-14388D01*
X-11305Y-16919D01*
X-7787Y-18799D01*
X-3970Y-19957D01*
X0Y-20348D01*
X3970Y-19957D01*
X7787Y-18799D01*
X11305Y-16919D01*
X14388Y-14388D01*
X16919Y-11305D01*
X18799Y-7787D01*
X19957Y-3970D01*
X20348Y0D01*
X19957Y3970D01*
X18799Y7787D01*
X16919Y11305D01*
X14388Y14388D01*
X11305Y16919D01*
X7787Y18799D01*
X3970Y19957D01*
X0Y20348D01*
D02*
G37*
G36*
X1459779Y227963D02*
X1457625Y227679D01*
X1455618Y226848D01*
X1453895Y225525D01*
X1452572Y223802D01*
X1451741Y221795D01*
X1451458Y219641D01*
X1451741Y217488D01*
X1452572Y215481D01*
X1453895Y213757D01*
X1455618Y212435D01*
X1457625Y211604D01*
X1459779Y211320D01*
X1461933Y211604D01*
X1463939Y212435D01*
X1465663Y213757D01*
X1466985Y215481D01*
X1467816Y217488D01*
X1468100Y219641D01*
X1467816Y221795D01*
X1466985Y223802D01*
X1465663Y225525D01*
X1463939Y226848D01*
X1461933Y227679D01*
X1459779Y227963D01*
D02*
G37*
G36*
X1485179D02*
X1483025Y227679D01*
X1481018Y226848D01*
X1479295Y225525D01*
X1477972Y223802D01*
X1477141Y221795D01*
X1476858Y219641D01*
X1477141Y217488D01*
X1477972Y215481D01*
X1479295Y213757D01*
X1481018Y212435D01*
X1483025Y211604D01*
X1485179Y211320D01*
X1487332Y211604D01*
X1489339Y212435D01*
X1491063Y213757D01*
X1492385Y215481D01*
X1493216Y217488D01*
X1493500Y219641D01*
X1493216Y221795D01*
X1492385Y223802D01*
X1491063Y225525D01*
X1489339Y226848D01*
X1487332Y227679D01*
X1485179Y227963D01*
D02*
G37*
G36*
X412608Y164163D02*
X410166Y163621D01*
X407947Y162466D01*
X406103Y160776D01*
X404759Y158667D01*
X404007Y156281D01*
X403898Y153782D01*
X404439Y151340D01*
X405594Y149121D01*
X407284Y147277D01*
X409394Y145933D01*
X411779Y145181D01*
X414278Y145072D01*
X416720Y145613D01*
X418939Y146768D01*
X420783Y148458D01*
X422127Y150568D01*
X422879Y152953D01*
X422989Y155452D01*
X422447Y157894D01*
X421292Y160113D01*
X419602Y161957D01*
X417492Y163301D01*
X415107Y164054D01*
X412608Y164163D01*
D02*
G37*
G36*
X1544464Y154752D02*
X1542310Y154468D01*
X1540303Y153637D01*
X1538580Y152315D01*
X1537257Y150591D01*
X1536426Y148584D01*
X1536143Y146431D01*
X1536426Y144277D01*
X1537257Y142270D01*
X1538580Y140547D01*
X1540303Y139224D01*
X1542310Y138393D01*
X1544464Y138110D01*
X1546617Y138393D01*
X1548624Y139224D01*
X1550348Y140547D01*
X1551670Y142270D01*
X1552501Y144277D01*
X1552785Y146431D01*
X1552501Y148584D01*
X1551670Y150591D01*
X1550348Y152315D01*
X1548624Y153637D01*
X1546617Y154468D01*
X1544464Y154752D01*
D02*
G37*
G36*
X593648Y192792D02*
X589679Y192401D01*
X585862Y191243D01*
X582344Y189363D01*
X579260Y186832D01*
X576730Y183749D01*
X574849Y180231D01*
X573691Y176414D01*
X573301Y172444D01*
X573691Y168474D01*
X574849Y164657D01*
X576730Y161139D01*
X579260Y158056D01*
X582344Y155525D01*
X585862Y153645D01*
X589679Y152487D01*
X593648Y152096D01*
X597618Y152487D01*
X601435Y153645D01*
X604953Y155525D01*
X608037Y158056D01*
X610567Y161139D01*
X612448Y164657D01*
X613605Y168474D01*
X613997Y172444D01*
X613605Y176414D01*
X612448Y180231D01*
X610567Y183749D01*
X608037Y186832D01*
X604953Y189363D01*
X601435Y191243D01*
X597618Y192401D01*
X593648Y192792D01*
D02*
G37*
G36*
X172500Y162598D02*
X170549Y162210D01*
X168895Y161105D01*
X167790Y159451D01*
X167402Y157500D01*
X167603Y156489D01*
X166433Y155863D01*
X166148Y156148D01*
X165000Y156624D01*
X137500D01*
X136352Y156148D01*
X135876Y155000D01*
Y95000D01*
X136352Y93852D01*
X137500Y93376D01*
X140847D01*
X141450Y93126D01*
X169150D01*
X169753Y93376D01*
X172500D01*
X173648Y93852D01*
X174124Y95000D01*
Y147500D01*
X173648Y148648D01*
X170863Y151433D01*
X171489Y152603D01*
X172500Y152402D01*
X174451Y152790D01*
X176105Y153895D01*
X177210Y155549D01*
X177598Y157500D01*
X177210Y159451D01*
X176105Y161105D01*
X174451Y162210D01*
X172500Y162598D01*
D02*
G37*
G36*
X1013649Y192792D02*
X1009679Y192401D01*
X1005862Y191243D01*
X1002344Y189363D01*
X999260Y186832D01*
X996730Y183749D01*
X994849Y180231D01*
X993691Y176414D01*
X993300Y172444D01*
X993691Y168474D01*
X994849Y164657D01*
X996730Y161139D01*
X999260Y158056D01*
X1002344Y155525D01*
X1005862Y153645D01*
X1009679Y152487D01*
X1013649Y152096D01*
X1017618Y152487D01*
X1021435Y153645D01*
X1024953Y155525D01*
X1028037Y158056D01*
X1030567Y161139D01*
X1032448Y164657D01*
X1033605Y168474D01*
X1033996Y172444D01*
X1033605Y176414D01*
X1032448Y180231D01*
X1030567Y183749D01*
X1028037Y186832D01*
X1024953Y189363D01*
X1021435Y191243D01*
X1017618Y192401D01*
X1013649Y192792D01*
D02*
G37*
G36*
X1519064Y154752D02*
X1516910Y154468D01*
X1514903Y153637D01*
X1513180Y152315D01*
X1511857Y150591D01*
X1511026Y148584D01*
X1510743Y146431D01*
X1511026Y144277D01*
X1511857Y142270D01*
X1513180Y140547D01*
X1514903Y139224D01*
X1516910Y138393D01*
X1519064Y138110D01*
X1521217Y138393D01*
X1523224Y139224D01*
X1524948Y140547D01*
X1526270Y142270D01*
X1527101Y144277D01*
X1527385Y146431D01*
X1527101Y148584D01*
X1526270Y150591D01*
X1524948Y152315D01*
X1523224Y153637D01*
X1521217Y154468D01*
X1519064Y154752D01*
D02*
G37*
G36*
X1570371Y75765D02*
X1568218Y75482D01*
X1566211Y74650D01*
X1564487Y73328D01*
X1563165Y71604D01*
X1562334Y69598D01*
X1562050Y67444D01*
X1562334Y65290D01*
X1563165Y63283D01*
X1564487Y61560D01*
X1566211Y60237D01*
X1568218Y59406D01*
X1570371Y59123D01*
X1572525Y59406D01*
X1574532Y60237D01*
X1576255Y61560D01*
X1577578Y63283D01*
X1578409Y65290D01*
X1578692Y67444D01*
X1578409Y69598D01*
X1577578Y71604D01*
X1576255Y73328D01*
X1574532Y74650D01*
X1572525Y75482D01*
X1570371Y75765D01*
D02*
G37*
G36*
X36926Y75745D02*
X34772Y75462D01*
X32765Y74630D01*
X31042Y73308D01*
X29719Y71585D01*
X28888Y69578D01*
X28604Y67424D01*
X28888Y65270D01*
X29719Y63263D01*
X31042Y61540D01*
X32765Y60218D01*
X34772Y59386D01*
X36926Y59103D01*
X39079Y59386D01*
X41086Y60218D01*
X42810Y61540D01*
X44132Y63263D01*
X44963Y65270D01*
X45247Y67424D01*
X44963Y69578D01*
X44132Y71585D01*
X42810Y73308D01*
X41086Y74630D01*
X39079Y75462D01*
X36926Y75745D01*
D02*
G37*
G36*
X1595771Y75765D02*
X1593618Y75482D01*
X1591611Y74650D01*
X1589887Y73328D01*
X1588565Y71604D01*
X1587734Y69598D01*
X1587450Y67444D01*
X1587734Y65290D01*
X1588565Y63283D01*
X1589887Y61560D01*
X1591611Y60237D01*
X1593618Y59406D01*
X1595771Y59123D01*
X1597925Y59406D01*
X1599932Y60237D01*
X1601655Y61560D01*
X1602978Y63283D01*
X1603809Y65290D01*
X1604093Y67444D01*
X1603809Y69598D01*
X1602978Y71604D01*
X1601655Y73328D01*
X1599932Y74650D01*
X1597925Y75482D01*
X1595771Y75765D01*
D02*
G37*
G36*
X62833Y154752D02*
X60679Y154468D01*
X58673Y153637D01*
X56949Y152315D01*
X55627Y150591D01*
X54795Y148584D01*
X54512Y146431D01*
X54795Y144277D01*
X55627Y142270D01*
X56949Y140547D01*
X58673Y139224D01*
X60679Y138393D01*
X62833Y138110D01*
X64987Y138393D01*
X66994Y139224D01*
X68717Y140547D01*
X70040Y142270D01*
X70871Y144277D01*
X71154Y146431D01*
X70871Y148584D01*
X70040Y150591D01*
X68717Y152315D01*
X66994Y153637D01*
X64987Y154468D01*
X62833Y154752D01*
D02*
G37*
G36*
X307500Y81624D02*
X292500D01*
X291352Y81148D01*
X290876Y80000D01*
Y65000D01*
X291352Y63852D01*
X292500Y63376D01*
X307500D01*
X308648Y63852D01*
X309124Y65000D01*
Y80000D01*
X308648Y81148D01*
X307500Y81624D01*
D02*
G37*
G36*
X172500Y187598D02*
X170549Y187210D01*
X168895Y186105D01*
X167790Y184451D01*
X167402Y182500D01*
X167790Y180549D01*
X168895Y178895D01*
X170549Y177790D01*
X172500Y177402D01*
X174451Y177790D01*
X176105Y178895D01*
X177210Y180549D01*
X177598Y182500D01*
X177210Y184451D01*
X176105Y186105D01*
X174451Y187210D01*
X172500Y187598D01*
D02*
G37*
G36*
X1525000Y45098D02*
X1523049Y44710D01*
X1521395Y43605D01*
X1520290Y41951D01*
X1519902Y40000D01*
X1520290Y38049D01*
X1521395Y36395D01*
X1523049Y35290D01*
X1525000Y34902D01*
X1526951Y35290D01*
X1528605Y36395D01*
X1529710Y38049D01*
X1530098Y40000D01*
X1529710Y41951D01*
X1528605Y43605D01*
X1526951Y44710D01*
X1525000Y45098D01*
D02*
G37*
G36*
X190000Y187598D02*
X188049Y187210D01*
X186395Y186105D01*
X185290Y184451D01*
X184902Y182500D01*
X185290Y180549D01*
X186395Y178895D01*
X188049Y177790D01*
X190000Y177402D01*
X191951Y177790D01*
X193605Y178895D01*
X194710Y180549D01*
X195098Y182500D01*
X194710Y184451D01*
X193605Y186105D01*
X191951Y187210D01*
X190000Y187598D01*
D02*
G37*
G36*
X542500Y182598D02*
X540549Y182210D01*
X538895Y181105D01*
X538264Y180160D01*
X536736D01*
X536105Y181105D01*
X534451Y182210D01*
X532500Y182598D01*
X530549Y182210D01*
X528895Y181105D01*
X527790Y179451D01*
X527402Y177500D01*
X527790Y175549D01*
X528895Y173895D01*
X529840Y173264D01*
Y171736D01*
X528895Y171105D01*
X527790Y169451D01*
X527402Y167500D01*
X527790Y165549D01*
X528895Y163895D01*
X530549Y162790D01*
X532500Y162402D01*
X534451Y162790D01*
X536105Y163895D01*
X536736Y164840D01*
X538264D01*
X538895Y163895D01*
X540549Y162790D01*
X542500Y162402D01*
X544451Y162790D01*
X546105Y163895D01*
X547210Y165549D01*
X547598Y167500D01*
X547210Y169451D01*
X546105Y171105D01*
X545160Y171736D01*
Y173264D01*
X546105Y173895D01*
X547210Y175549D01*
X547598Y177500D01*
X547210Y179451D01*
X546105Y181105D01*
X544451Y182210D01*
X542500Y182598D01*
D02*
G37*
G36*
X155000Y187598D02*
X153049Y187210D01*
X151395Y186105D01*
X150290Y184451D01*
X149902Y182500D01*
X150290Y180549D01*
X151395Y178895D01*
X153049Y177790D01*
X155000Y177402D01*
X156951Y177790D01*
X158605Y178895D01*
X159710Y180549D01*
X160098Y182500D01*
X159710Y184451D01*
X158605Y186105D01*
X156951Y187210D01*
X155000Y187598D01*
D02*
G37*
G36*
X11526Y75745D02*
X9372Y75462D01*
X7365Y74630D01*
X5642Y73308D01*
X4319Y71585D01*
X3488Y69578D01*
X3204Y67424D01*
X3488Y65270D01*
X4319Y63263D01*
X5642Y61540D01*
X7365Y60218D01*
X9372Y59386D01*
X11526Y59103D01*
X13679Y59386D01*
X15686Y60218D01*
X17410Y61540D01*
X18732Y63263D01*
X19563Y65270D01*
X19847Y67424D01*
X19563Y69578D01*
X18732Y71585D01*
X17410Y73308D01*
X15686Y74630D01*
X13679Y75462D01*
X11526Y75745D01*
D02*
G37*
G36*
X425000Y260098D02*
X423049Y259710D01*
X421395Y258605D01*
X420290Y256951D01*
X419902Y255000D01*
X420290Y253049D01*
X421395Y251395D01*
X423049Y250290D01*
X425000Y249902D01*
X426951Y250290D01*
X428605Y251395D01*
X429710Y253049D01*
X430098Y255000D01*
X429710Y256951D01*
X428605Y258605D01*
X426951Y259710D01*
X425000Y260098D01*
D02*
G37*
G36*
X1172642Y435417D02*
X1170472Y435322D01*
X1168400Y434669D01*
X1166568Y433502D01*
X1165100Y431901D01*
X1164097Y429974D01*
X1163627Y427853D01*
X1163722Y425683D01*
X1164375Y423611D01*
X1165542Y421779D01*
X1167144Y420312D01*
X1169071Y419308D01*
X1171191Y418838D01*
X1173362Y418933D01*
X1175434Y419586D01*
X1177265Y420753D01*
X1178733Y422355D01*
X1179736Y424282D01*
X1180206Y426403D01*
X1180111Y428573D01*
X1179458Y430644D01*
X1178291Y432477D01*
X1176690Y433944D01*
X1174763Y434947D01*
X1172642Y435417D01*
D02*
G37*
G36*
X434655Y435397D02*
X432534Y434927D01*
X430607Y433924D01*
X429006Y432457D01*
X427839Y430625D01*
X427185Y428553D01*
X427091Y426382D01*
X427561Y424262D01*
X428564Y422335D01*
X430031Y420733D01*
X431863Y419566D01*
X433935Y418913D01*
X436105Y418818D01*
X438226Y419288D01*
X440153Y420291D01*
X441755Y421759D01*
X442922Y423591D01*
X443575Y425663D01*
X443670Y427833D01*
X443200Y429954D01*
X442197Y431881D01*
X440729Y433482D01*
X438897Y434649D01*
X436825Y435303D01*
X434655Y435397D01*
D02*
G37*
G36*
X439066Y460411D02*
X436945Y459941D01*
X435018Y458938D01*
X433416Y457471D01*
X432249Y455639D01*
X431596Y453567D01*
X431501Y451397D01*
X431971Y449276D01*
X432975Y447349D01*
X434442Y445747D01*
X436274Y444580D01*
X438346Y443927D01*
X440516Y443832D01*
X442637Y444302D01*
X444564Y445306D01*
X446165Y446773D01*
X447332Y448605D01*
X447986Y450677D01*
X448080Y452847D01*
X447610Y454968D01*
X446607Y456895D01*
X445140Y458496D01*
X443307Y459663D01*
X441236Y460317D01*
X439066Y460411D01*
D02*
G37*
G36*
X1168231Y460431D02*
X1166061Y460337D01*
X1163989Y459683D01*
X1162157Y458516D01*
X1160690Y456915D01*
X1159687Y454988D01*
X1159217Y452867D01*
X1159311Y450697D01*
X1159965Y448625D01*
X1161132Y446793D01*
X1162733Y445326D01*
X1164660Y444323D01*
X1166781Y443852D01*
X1168951Y443947D01*
X1171023Y444600D01*
X1172855Y445768D01*
X1174322Y447369D01*
X1175325Y449296D01*
X1175796Y451417D01*
X1175701Y453587D01*
X1175048Y455659D01*
X1173880Y457491D01*
X1172279Y458958D01*
X1170352Y459961D01*
X1168231Y460431D01*
D02*
G37*
G36*
X999749Y515078D02*
X997596Y514795D01*
X995589Y513963D01*
X993865Y512641D01*
X992543Y510918D01*
X991712Y508911D01*
X991428Y506757D01*
X991712Y504603D01*
X992543Y502596D01*
X993865Y500873D01*
X995589Y499551D01*
X997596Y498719D01*
X999749Y498436D01*
X1001903Y498719D01*
X1003910Y499551D01*
X1005633Y500873D01*
X1006956Y502596D01*
X1007787Y504603D01*
X1008070Y506757D01*
X1007787Y508911D01*
X1006956Y510918D01*
X1005633Y512641D01*
X1003910Y513963D01*
X1001903Y514795D01*
X999749Y515078D01*
D02*
G37*
G36*
X803649Y513065D02*
X801495Y512782D01*
X799488Y511950D01*
X797765Y510628D01*
X796442Y508904D01*
X795611Y506898D01*
X795327Y504744D01*
X795611Y502590D01*
X796442Y500583D01*
X797765Y498860D01*
X799488Y497538D01*
X801495Y496706D01*
X803649Y496423D01*
X805802Y496706D01*
X807809Y497538D01*
X809532Y498860D01*
X810855Y500583D01*
X811686Y502590D01*
X811970Y504744D01*
X811686Y506898D01*
X810855Y508904D01*
X809532Y510628D01*
X807809Y511950D01*
X805802Y512782D01*
X803649Y513065D01*
D02*
G37*
G36*
X709573Y533535D02*
X707419Y533251D01*
X705412Y532420D01*
X703689Y531098D01*
X702366Y529374D01*
X701535Y527367D01*
X701252Y525214D01*
X701535Y523060D01*
X702366Y521053D01*
X703689Y519330D01*
X705412Y518007D01*
X707419Y517176D01*
X709573Y516892D01*
X711727Y517176D01*
X713733Y518007D01*
X715457Y519330D01*
X716779Y521053D01*
X717610Y523060D01*
X717894Y525214D01*
X717610Y527367D01*
X716779Y529374D01*
X715457Y531098D01*
X713733Y532420D01*
X711727Y533251D01*
X709573Y533535D01*
D02*
G37*
G36*
X803649Y538465D02*
X801495Y538182D01*
X799488Y537350D01*
X797765Y536028D01*
X796442Y534305D01*
X795611Y532298D01*
X795327Y530144D01*
X795611Y527990D01*
X796442Y525983D01*
X797765Y524260D01*
X799488Y522938D01*
X801495Y522106D01*
X803649Y521823D01*
X805802Y522106D01*
X807809Y522938D01*
X809532Y524260D01*
X810855Y525983D01*
X811686Y527990D01*
X811970Y530144D01*
X811686Y532298D01*
X810855Y534305D01*
X809532Y536028D01*
X807809Y537350D01*
X805802Y538182D01*
X803649Y538465D01*
D02*
G37*
G36*
X897724Y533535D02*
X895570Y533251D01*
X893564Y532420D01*
X891840Y531098D01*
X890518Y529374D01*
X889686Y527367D01*
X889403Y525214D01*
X889686Y523060D01*
X890518Y521053D01*
X891840Y519330D01*
X893564Y518007D01*
X895570Y517176D01*
X897724Y516892D01*
X899878Y517176D01*
X901885Y518007D01*
X903608Y519330D01*
X904930Y521053D01*
X905762Y523060D01*
X906045Y525214D01*
X905762Y527367D01*
X904930Y529374D01*
X903608Y531098D01*
X901885Y532420D01*
X899878Y533251D01*
X897724Y533535D01*
D02*
G37*
G36*
X981789Y497118D02*
X979635Y496834D01*
X977628Y496003D01*
X975905Y494680D01*
X974582Y492957D01*
X973751Y490950D01*
X973468Y488797D01*
X973751Y486643D01*
X974582Y484636D01*
X975905Y482912D01*
X977628Y481590D01*
X979635Y480759D01*
X981789Y480475D01*
X983942Y480759D01*
X985949Y481590D01*
X987673Y482912D01*
X988995Y484636D01*
X989826Y486643D01*
X990110Y488797D01*
X989826Y490950D01*
X988995Y492957D01*
X987673Y494680D01*
X985949Y496003D01*
X983942Y496834D01*
X981789Y497118D01*
D02*
G37*
G36*
X1072784Y472736D02*
X1070630Y472452D01*
X1068623Y471621D01*
X1066899Y470299D01*
X1065577Y468575D01*
X1064746Y466568D01*
X1064462Y464414D01*
X1064746Y462261D01*
X1065577Y460254D01*
X1066899Y458531D01*
X1068623Y457208D01*
X1070630Y456377D01*
X1072784Y456093D01*
X1074937Y456377D01*
X1076944Y457208D01*
X1078668Y458531D01*
X1079990Y460254D01*
X1080821Y462261D01*
X1081105Y464414D01*
X1080821Y466568D01*
X1079990Y468575D01*
X1078668Y470299D01*
X1076944Y471621D01*
X1074937Y472452D01*
X1072784Y472736D01*
D02*
G37*
G36*
X1090744Y490696D02*
X1088590Y490413D01*
X1086583Y489581D01*
X1084860Y488259D01*
X1083538Y486536D01*
X1082706Y484529D01*
X1082423Y482375D01*
X1082706Y480221D01*
X1083538Y478214D01*
X1084860Y476491D01*
X1086583Y475169D01*
X1088590Y474337D01*
X1090744Y474054D01*
X1092898Y474337D01*
X1094905Y475169D01*
X1096628Y476491D01*
X1097950Y478214D01*
X1098782Y480221D01*
X1099065Y482375D01*
X1098782Y484529D01*
X1097950Y486536D01*
X1096628Y488259D01*
X1094905Y489581D01*
X1092898Y490413D01*
X1090744Y490696D01*
D02*
G37*
G36*
X1393166Y294595D02*
X1391012Y294312D01*
X1389005Y293481D01*
X1387282Y292158D01*
X1385960Y290435D01*
X1385128Y288428D01*
X1384845Y286274D01*
X1385128Y284121D01*
X1385960Y282114D01*
X1387282Y280390D01*
X1389005Y279068D01*
X1391012Y278237D01*
X1393166Y277953D01*
X1395320Y278237D01*
X1397327Y279068D01*
X1399050Y280390D01*
X1400372Y282114D01*
X1401204Y284121D01*
X1401487Y286274D01*
X1401204Y288428D01*
X1400372Y290435D01*
X1399050Y292158D01*
X1397327Y293481D01*
X1395320Y294312D01*
X1393166Y294595D01*
D02*
G37*
G36*
X214131Y294576D02*
X211977Y294292D01*
X209970Y293461D01*
X208247Y292138D01*
X206925Y290415D01*
X206093Y288408D01*
X205810Y286254D01*
X206093Y284101D01*
X206925Y282094D01*
X208247Y280370D01*
X209970Y279048D01*
X211977Y278217D01*
X214131Y277933D01*
X216285Y278217D01*
X218291Y279048D01*
X220015Y280370D01*
X221337Y282094D01*
X222169Y284101D01*
X222452Y286254D01*
X222169Y288408D01*
X221337Y290415D01*
X220015Y292138D01*
X218291Y293461D01*
X216285Y294292D01*
X214131Y294576D01*
D02*
G37*
G36*
X1418566Y294595D02*
X1416412Y294312D01*
X1414405Y293481D01*
X1412682Y292158D01*
X1411360Y290435D01*
X1410528Y288428D01*
X1410245Y286274D01*
X1410528Y284121D01*
X1411360Y282114D01*
X1412682Y280390D01*
X1414405Y279068D01*
X1416412Y278237D01*
X1418566Y277953D01*
X1420720Y278237D01*
X1422727Y279068D01*
X1424450Y280390D01*
X1425772Y282114D01*
X1426604Y284121D01*
X1426887Y286274D01*
X1426604Y288428D01*
X1425772Y290435D01*
X1424450Y292158D01*
X1422727Y293481D01*
X1420720Y294312D01*
X1418566Y294595D01*
D02*
G37*
G36*
X936348Y325765D02*
X934195Y325482D01*
X932188Y324650D01*
X930464Y323328D01*
X929142Y321604D01*
X928311Y319598D01*
X928027Y317444D01*
X928311Y315290D01*
X929142Y313283D01*
X930464Y311560D01*
X932188Y310238D01*
X934195Y309406D01*
X936348Y309123D01*
X938502Y309406D01*
X940509Y310238D01*
X942232Y311560D01*
X943555Y313283D01*
X944386Y315290D01*
X944670Y317444D01*
X944386Y319598D01*
X943555Y321604D01*
X942232Y323328D01*
X940509Y324650D01*
X938502Y325482D01*
X936348Y325765D01*
D02*
G37*
G36*
X910948D02*
X908795Y325482D01*
X906788Y324650D01*
X905064Y323328D01*
X903742Y321604D01*
X902911Y319598D01*
X902627Y317444D01*
X902911Y315290D01*
X903742Y313283D01*
X905064Y311560D01*
X906788Y310238D01*
X908795Y309406D01*
X910948Y309123D01*
X913102Y309406D01*
X915109Y310238D01*
X916832Y311560D01*
X918155Y313283D01*
X918986Y315290D01*
X919270Y317444D01*
X918986Y319598D01*
X918155Y321604D01*
X916832Y323328D01*
X915109Y324650D01*
X913102Y325482D01*
X910948Y325765D01*
D02*
G37*
G36*
X188731Y294576D02*
X186577Y294292D01*
X184570Y293461D01*
X182847Y292138D01*
X181525Y290415D01*
X180693Y288408D01*
X180410Y286254D01*
X180693Y284101D01*
X181525Y282094D01*
X182847Y280370D01*
X184570Y279048D01*
X186577Y278217D01*
X188731Y277933D01*
X190885Y278217D01*
X192892Y279048D01*
X194615Y280370D01*
X195937Y282094D01*
X196769Y284101D01*
X197052Y286254D01*
X196769Y288408D01*
X195937Y290415D01*
X194615Y292138D01*
X192892Y293461D01*
X190885Y294292D01*
X188731Y294576D01*
D02*
G37*
G36*
X910948Y270765D02*
X908795Y270482D01*
X906788Y269650D01*
X905064Y268328D01*
X903742Y266604D01*
X902911Y264598D01*
X902627Y262444D01*
X902911Y260290D01*
X903742Y258283D01*
X905064Y256560D01*
X906788Y255238D01*
X908795Y254406D01*
X910948Y254123D01*
X913102Y254406D01*
X915109Y255238D01*
X916832Y256560D01*
X918155Y258283D01*
X918986Y260290D01*
X919270Y262444D01*
X918986Y264598D01*
X918155Y266604D01*
X916832Y268328D01*
X915109Y269650D01*
X913102Y270482D01*
X910948Y270765D01*
D02*
G37*
G36*
X440000Y260098D02*
X438049Y259710D01*
X436395Y258605D01*
X435290Y256951D01*
X434902Y255000D01*
X435290Y253049D01*
X436395Y251395D01*
X438049Y250290D01*
X440000Y249902D01*
X441951Y250290D01*
X443605Y251395D01*
X444710Y253049D01*
X445098Y255000D01*
X444710Y256951D01*
X443605Y258605D01*
X441951Y259710D01*
X440000Y260098D01*
D02*
G37*
G36*
X936348Y270765D02*
X934195Y270482D01*
X932188Y269650D01*
X930464Y268328D01*
X929142Y266604D01*
X928311Y264598D01*
X928027Y262444D01*
X928311Y260290D01*
X929142Y258283D01*
X930464Y256560D01*
X932188Y255238D01*
X934195Y254406D01*
X936348Y254123D01*
X938502Y254406D01*
X940509Y255238D01*
X942232Y256560D01*
X943555Y258283D01*
X944386Y260290D01*
X944670Y262444D01*
X944386Y264598D01*
X943555Y266604D01*
X942232Y268328D01*
X940509Y269650D01*
X938502Y270482D01*
X936348Y270765D01*
D02*
G37*
G36*
X457021Y277802D02*
X454867Y277518D01*
X452860Y276687D01*
X451137Y275365D01*
X449814Y273641D01*
X448983Y271634D01*
X448699Y269481D01*
X448983Y267327D01*
X449814Y265320D01*
X451137Y263597D01*
X452860Y262274D01*
X454867Y261443D01*
X457021Y261159D01*
X459174Y261443D01*
X461181Y262274D01*
X462905Y263597D01*
X464227Y265320D01*
X465058Y267327D01*
X465342Y269481D01*
X465058Y271634D01*
X464227Y273641D01*
X462905Y275365D01*
X461181Y276687D01*
X459174Y277518D01*
X457021Y277802D01*
D02*
G37*
G36*
X1083649Y371091D02*
X1076094Y370596D01*
X1068670Y369119D01*
X1061501Y366685D01*
X1054712Y363337D01*
X1048417Y359131D01*
X1042725Y354140D01*
X1037734Y348448D01*
X1033528Y342154D01*
X1030180Y335364D01*
X1027747Y328196D01*
X1026270Y320771D01*
X1025775Y313217D01*
X1026270Y305663D01*
X1027747Y298238D01*
X1030180Y291070D01*
X1033528Y284280D01*
X1037734Y277985D01*
X1042725Y272294D01*
X1048417Y267302D01*
X1054712Y263097D01*
X1061501Y259748D01*
X1068670Y257315D01*
X1076094Y255838D01*
X1083649Y255343D01*
X1091202Y255838D01*
X1098627Y257315D01*
X1105796Y259748D01*
X1112585Y263097D01*
X1118880Y267302D01*
X1124572Y272294D01*
X1129563Y277985D01*
X1133769Y284280D01*
X1137117Y291070D01*
X1139550Y298238D01*
X1141027Y305663D01*
X1141522Y313217D01*
X1141027Y320771D01*
X1139550Y328196D01*
X1137117Y335364D01*
X1133769Y342154D01*
X1129563Y348448D01*
X1124572Y354140D01*
X1118880Y359131D01*
X1112585Y363337D01*
X1105796Y366685D01*
X1098627Y369119D01*
X1091202Y370596D01*
X1083649Y371091D01*
D02*
G37*
G36*
X366308Y400793D02*
X364138Y400698D01*
X362066Y400045D01*
X360234Y398877D01*
X358766Y397276D01*
X357763Y395349D01*
X357293Y393228D01*
X357388Y391058D01*
X358041Y388986D01*
X359208Y387154D01*
X360810Y385687D01*
X362737Y384684D01*
X364857Y384214D01*
X367028Y384308D01*
X369099Y384962D01*
X370931Y386129D01*
X372399Y387730D01*
X373402Y389657D01*
X373872Y391778D01*
X373777Y393948D01*
X373124Y396020D01*
X371957Y397852D01*
X370355Y399319D01*
X368429Y400322D01*
X366308Y400793D01*
D02*
G37*
G36*
X1202500Y360098D02*
X1200549Y359710D01*
X1198895Y358605D01*
X1197790Y356951D01*
X1197402Y355000D01*
X1197790Y353049D01*
X1198895Y351395D01*
X1200549Y350290D01*
X1202500Y349902D01*
X1204451Y350290D01*
X1206105Y351395D01*
X1207210Y353049D01*
X1207598Y355000D01*
X1207210Y356951D01*
X1206105Y358605D01*
X1204451Y359710D01*
X1202500Y360098D01*
D02*
G37*
G36*
X1264857Y409500D02*
X1262737Y409030D01*
X1260810Y408027D01*
X1259208Y406559D01*
X1258041Y404727D01*
X1257388Y402655D01*
X1257293Y400485D01*
X1257763Y398364D01*
X1258766Y396438D01*
X1260234Y394836D01*
X1262066Y393669D01*
X1264138Y393016D01*
X1266308Y392921D01*
X1268429Y393391D01*
X1270355Y394394D01*
X1271957Y395862D01*
X1273124Y397694D01*
X1273777Y399766D01*
X1273872Y401936D01*
X1273402Y404056D01*
X1272399Y405983D01*
X1270931Y407585D01*
X1269099Y408752D01*
X1267028Y409405D01*
X1264857Y409500D01*
D02*
G37*
G36*
X342440Y409480D02*
X340269Y409385D01*
X338198Y408732D01*
X336366Y407565D01*
X334898Y405963D01*
X333895Y404036D01*
X333425Y401916D01*
X333520Y399745D01*
X334173Y397674D01*
X335340Y395842D01*
X336941Y394374D01*
X338868Y393371D01*
X340989Y392901D01*
X343159Y392996D01*
X345231Y393649D01*
X347063Y394816D01*
X348531Y396418D01*
X349534Y398344D01*
X350004Y400465D01*
X349909Y402635D01*
X349256Y404707D01*
X348089Y406539D01*
X346487Y408007D01*
X344560Y409010D01*
X342440Y409480D01*
D02*
G37*
G36*
X1281200Y390873D02*
X1269200D01*
X1268052Y390398D01*
X1267576Y389250D01*
X1266324D01*
X1265848Y390398D01*
X1264700Y390873D01*
X1252700D01*
X1251552Y390398D01*
X1251076Y389250D01*
Y374250D01*
X1251552Y373102D01*
X1252700Y372626D01*
X1264700D01*
X1265848Y373102D01*
X1266324Y374250D01*
X1267576D01*
X1268052Y373102D01*
X1269200Y372626D01*
X1281200D01*
X1282348Y373102D01*
X1282824Y374250D01*
Y389250D01*
X1282348Y390398D01*
X1281200Y390873D01*
D02*
G37*
G36*
X873100Y352338D02*
X871344Y351989D01*
X869856Y350994D01*
X868861Y349506D01*
X868512Y347750D01*
Y332250D01*
X868861Y330494D01*
X869022Y330254D01*
Y329400D01*
X869022Y329400D01*
X869332Y327839D01*
X870216Y326516D01*
X874616Y322116D01*
X874616Y322116D01*
X875939Y321232D01*
X877500Y320922D01*
X885823D01*
X885852Y320852D01*
X887000Y320376D01*
X893000D01*
X894148Y320852D01*
X894624Y322000D01*
Y328000D01*
X894148Y329148D01*
X894078Y329177D01*
Y332104D01*
X894710Y333049D01*
X895098Y335000D01*
X894710Y336951D01*
X893605Y338605D01*
X891951Y339710D01*
X890000Y340098D01*
X888049Y339710D01*
X886395Y338605D01*
X885290Y336951D01*
X884902Y335000D01*
X885290Y333049D01*
X885922Y332104D01*
Y329177D01*
X885852Y329148D01*
X885823Y329078D01*
X879189D01*
X877411Y330857D01*
X877688Y332250D01*
Y347750D01*
X877339Y349506D01*
X876344Y350994D01*
X874856Y351989D01*
X873100Y352338D01*
D02*
G37*
G36*
X970000Y327598D02*
X968049Y327210D01*
X966395Y326105D01*
X965290Y324451D01*
X964902Y322500D01*
X965290Y320549D01*
X966395Y318895D01*
X968049Y317790D01*
X970000Y317402D01*
X971951Y317790D01*
X973605Y318895D01*
X974710Y320549D01*
X975098Y322500D01*
X974710Y324451D01*
X973605Y326105D01*
X971951Y327210D01*
X970000Y327598D01*
D02*
G37*
G36*
X261942Y353860D02*
X259788Y353577D01*
X257781Y352746D01*
X256058Y351423D01*
X254735Y349700D01*
X253904Y347693D01*
X253620Y345539D01*
X253904Y343386D01*
X254735Y341379D01*
X256058Y339655D01*
X257781Y338333D01*
X259788Y337502D01*
X261942Y337218D01*
X264095Y337502D01*
X266102Y338333D01*
X267826Y339655D01*
X269148Y341379D01*
X269979Y343386D01*
X270263Y345539D01*
X269979Y347693D01*
X269148Y349700D01*
X267826Y351423D01*
X266102Y352746D01*
X264095Y353577D01*
X261942Y353860D01*
D02*
G37*
G36*
X1257500Y347598D02*
X1255549Y347210D01*
X1253895Y346105D01*
X1252790Y344451D01*
X1252402Y342500D01*
X1252790Y340549D01*
X1253895Y338895D01*
X1255549Y337790D01*
X1257500Y337402D01*
X1259451Y337790D01*
X1261105Y338895D01*
X1262210Y340549D01*
X1262598Y342500D01*
X1262210Y344451D01*
X1261105Y346105D01*
X1259451Y347210D01*
X1257500Y347598D01*
D02*
G37*
G36*
X1345355Y353860D02*
X1343201Y353577D01*
X1341195Y352746D01*
X1339471Y351423D01*
X1338149Y349700D01*
X1337318Y347693D01*
X1337034Y345539D01*
X1337318Y343386D01*
X1338149Y341379D01*
X1339471Y339655D01*
X1341195Y338333D01*
X1343201Y337502D01*
X1345355Y337218D01*
X1347509Y337502D01*
X1349516Y338333D01*
X1351239Y339655D01*
X1352562Y341379D01*
X1353393Y343386D01*
X1353676Y345539D01*
X1353393Y347693D01*
X1352562Y349700D01*
X1351239Y351423D01*
X1349516Y352746D01*
X1347509Y353577D01*
X1345355Y353860D01*
D02*
G37*
%LPD*%
G36*
X172500Y147500D02*
Y95000D01*
X137500D01*
Y155000D01*
X165000D01*
X172500Y147500D01*
D02*
G37*
D10*
X592500Y425000D02*
D03*
Y415000D02*
D03*
X622500Y267500D02*
D03*
Y277500D02*
D03*
X632500Y277500D02*
D03*
Y267500D02*
D03*
X890000Y295000D02*
D03*
Y305000D02*
D03*
Y315000D02*
D03*
Y325000D02*
D03*
X767500Y455000D02*
D03*
Y465000D02*
D03*
X510000Y405000D02*
D03*
Y395000D02*
D03*
X500000Y395000D02*
D03*
Y405000D02*
D03*
X567500Y247500D02*
D03*
Y237500D02*
D03*
X537500Y257500D02*
D03*
Y267500D02*
D03*
X527500Y257500D02*
D03*
Y267500D02*
D03*
X547500Y267500D02*
D03*
Y257500D02*
D03*
X557500Y257500D02*
D03*
Y267500D02*
D03*
D11*
X612500D02*
D03*
X602500D02*
D03*
X967500Y355000D02*
D03*
X977500D02*
D03*
X967500Y365000D02*
D03*
X977500D02*
D03*
X967500Y375000D02*
D03*
X977500D02*
D03*
X632500Y395000D02*
D03*
X622500D02*
D03*
X572500Y202500D02*
D03*
X562500D02*
D03*
X572500Y212500D02*
D03*
X562500D02*
D03*
X547500Y237500D02*
D03*
X557500D02*
D03*
X547500Y247500D02*
D03*
X557500D02*
D03*
X437500Y297500D02*
D03*
X447500D02*
D03*
X362500Y335000D02*
D03*
X352500D02*
D03*
X362500Y345000D02*
D03*
X352500D02*
D03*
X362500Y355000D02*
D03*
X352500D02*
D03*
X782500Y232500D02*
D03*
X772500D02*
D03*
X792500D02*
D03*
X802500D02*
D03*
D15*
X719600Y457500D02*
D03*
X694200D02*
D03*
X668800D02*
D03*
X643400D02*
D03*
X300000Y107500D02*
D03*
X689350Y166944D02*
D03*
X714750Y192344D02*
D03*
Y166944D02*
D03*
X740150Y192344D02*
D03*
Y166944D02*
D03*
X765550Y192344D02*
D03*
Y166944D02*
D03*
X790950Y192344D02*
D03*
Y166944D02*
D03*
X816350Y192344D02*
D03*
Y166944D02*
D03*
X841750Y192344D02*
D03*
Y166944D02*
D03*
X867150Y192344D02*
D03*
Y166944D02*
D03*
X892550Y192344D02*
D03*
Y166944D02*
D03*
X917950Y192344D02*
D03*
Y166944D02*
D03*
D21*
X873100Y280000D02*
D03*
X860400D02*
D03*
X847700D02*
D03*
X835000D02*
D03*
X822300D02*
D03*
X809600D02*
D03*
X796900D02*
D03*
X784200D02*
D03*
X873100Y340000D02*
D03*
X860400D02*
D03*
X847700D02*
D03*
X835000D02*
D03*
X822300D02*
D03*
X809600D02*
D03*
X796900D02*
D03*
X784200D02*
D03*
D27*
X415000Y318000D02*
D03*
Y297000D02*
D03*
D28*
X784500Y232500D02*
Y246044D01*
Y211294D02*
Y232500D01*
X695078Y361947D02*
Y379192D01*
X814678Y249665D02*
X860000Y204343D01*
Y199494D02*
Y204343D01*
Y199494D02*
X867150Y192344D01*
X814678Y249665D02*
Y264179D01*
X792618Y252382D02*
X811535Y233465D01*
Y222559D02*
Y233465D01*
Y222559D02*
X841750Y192344D01*
X854894Y230000D02*
X892550Y192344D01*
X840000Y230000D02*
X854894D01*
X818678Y251322D02*
X840000Y230000D01*
X865000Y235000D02*
X905000Y195000D01*
X850000Y235000D02*
X865000D01*
X840079Y244922D02*
X850000Y235000D01*
X818678Y251322D02*
Y260539D01*
X587500Y385632D02*
X602500Y370632D01*
X587500Y385632D02*
Y395500D01*
X602500Y370000D02*
Y370632D01*
X582500Y383132D02*
Y395500D01*
X595000Y370000D02*
Y370632D01*
X582500Y383132D02*
X595000Y370632D01*
X577500Y380000D02*
X587500Y370000D01*
X577500Y380000D02*
Y395500D01*
X885806Y156694D02*
X926694D01*
X880000Y162500D02*
X885806Y156694D01*
X880000Y162500D02*
Y170000D01*
X867150Y166944D02*
X881400Y152694D01*
X930194D01*
X987500Y210000D01*
X926694Y156694D02*
X1005000Y235000D01*
X1057500D01*
X987500Y210000D02*
X1057500D01*
X841750Y166944D02*
X852306Y177500D01*
X872500D01*
X880000Y170000D01*
X609500Y222500D02*
X640000D01*
X577500Y254500D02*
X609500Y222500D01*
X610000Y230000D02*
X640000D01*
X582500Y257500D02*
X610000Y230000D01*
X577500Y254500D02*
Y284500D01*
X582500Y257500D02*
Y284500D01*
X660000Y247500D02*
X766000Y353500D01*
X600000Y247500D02*
X660000D01*
X587500Y260000D02*
X600000Y247500D01*
X658814Y252500D02*
X763814Y357500D01*
X601843Y252500D02*
X658814D01*
X592500Y261843D02*
X601843Y252500D01*
X657407Y256750D02*
X762157Y361500D01*
X603250Y256750D02*
X657407D01*
X596750Y263250D02*
X603250Y256750D01*
X766000Y353500D02*
X787000D01*
X788657Y357500D02*
X788657Y357500D01*
X763814Y357500D02*
X788657D01*
X787000Y361500D02*
X787000Y361500D01*
X762157Y361500D02*
X787000D01*
X785343Y365500D02*
X785343Y365500D01*
X760500Y365500D02*
X785343D01*
X697500Y302500D02*
X760500Y365500D01*
X630500Y302500D02*
X697500D01*
X695657Y307500D02*
X758157Y370000D01*
X630500Y307500D02*
X695657D01*
X702500Y320000D02*
X757500Y375000D01*
X653990Y320000D02*
X702500D01*
X787000Y361500D02*
X804000D01*
X785343Y365500D02*
X807000D01*
X758157Y370000D02*
X833582D01*
X757500Y375000D02*
X835000D01*
X587500Y260000D02*
Y284500D01*
X592500Y261843D02*
Y284500D01*
X597500D02*
X597500Y284500D01*
Y273000D02*
Y284500D01*
X596750Y272250D02*
X597500Y273000D01*
X596750Y263250D02*
Y272250D01*
X630500Y327500D02*
X646490D01*
X653990Y320000D01*
X835000Y375000D02*
X860400Y349600D01*
Y340000D02*
Y349600D01*
X833582Y370000D02*
X853450Y350132D01*
Y324050D02*
Y350132D01*
Y324050D02*
X860400Y317100D01*
Y280000D02*
Y317100D01*
X807000Y365500D02*
X822300Y350200D01*
Y340000D02*
Y350200D01*
X804000Y361500D02*
X815350Y350150D01*
Y329868D02*
Y350150D01*
X815241Y329759D02*
X815350Y329868D01*
X815241Y307259D02*
Y329759D01*
Y307259D02*
X835000Y287500D01*
Y280000D02*
Y287500D01*
X788657Y357500D02*
X796900Y349257D01*
Y340000D02*
Y349257D01*
X787000Y353500D02*
X790000Y350500D01*
Y307500D02*
Y350500D01*
Y307500D02*
X809600Y287900D01*
Y280000D02*
Y287900D01*
X790000Y267000D02*
Y300000D01*
X788618Y265618D02*
X790000Y267000D01*
X792618Y262618D02*
X796900Y266900D01*
X784200Y305800D02*
X790000Y300000D01*
X796900Y266900D02*
Y280000D01*
X809600Y305400D02*
X815350Y299650D01*
Y264850D02*
Y299650D01*
X814678Y264179D02*
X815350Y264850D01*
X822300Y264161D02*
Y280000D01*
X818678Y260539D02*
X822300Y264161D01*
X852200Y240294D02*
X870000D01*
X844078Y248416D02*
X852200Y240294D01*
X844078Y248416D02*
Y263386D01*
X847700Y267008D02*
Y280000D01*
X844078Y263386D02*
X847700Y267008D01*
X840750Y267750D02*
Y300750D01*
X840079Y267078D02*
X840750Y267750D01*
X840079Y244922D02*
Y267078D01*
X840750Y300750D02*
X847700Y307700D01*
X870000Y240294D02*
X917950Y192344D01*
X847700Y307700D02*
Y340000D01*
X905000Y179894D02*
Y195000D01*
Y179894D02*
X917950Y166944D01*
X809600Y305400D02*
Y340000D01*
X763878Y194016D02*
X765550Y192344D01*
X784200Y305800D02*
Y340000D01*
X643400Y457500D02*
Y457694D01*
X695078Y379192D02*
X696061D01*
X693939Y360808D02*
X695078Y361947D01*
X545000Y317500D02*
X547500Y320000D01*
X519500Y317500D02*
X545000D01*
X550000Y312500D02*
X554750Y317250D01*
X519500Y312500D02*
X550000D01*
X552500Y307500D02*
X560000Y315000D01*
X519500Y307500D02*
X552500D01*
X572500Y320000D02*
Y322500D01*
X555000Y302500D02*
X572500Y320000D01*
X519500Y302500D02*
X555000D01*
X557500Y237500D02*
Y247500D01*
X567500D01*
Y284500D01*
X572500Y252389D02*
Y284500D01*
Y252389D02*
X573250Y251639D01*
Y233250D02*
Y251639D01*
X560000Y220000D02*
Y230000D01*
X567500Y237500D01*
X571100Y231100D02*
X573250Y233250D01*
X571100Y225000D02*
Y231100D01*
X572500Y212500D02*
Y223600D01*
X571100Y225000D02*
X572500Y223600D01*
X562500Y202500D02*
X572500Y212500D01*
Y202500D02*
X605000D01*
X629406Y178094D01*
X703600D01*
X714750Y166944D01*
X507500Y322500D02*
X519500D01*
X506250Y321250D02*
X507500Y322500D01*
X559868Y327500D02*
X565000D01*
X554750Y322382D02*
X559868Y327500D01*
X554750Y317250D02*
Y322382D01*
X560000Y315000D02*
Y319500D01*
X560500Y320000D01*
X501250Y327500D02*
X519500D01*
X499500Y325750D02*
X501250Y327500D01*
X792618Y252382D02*
Y262618D01*
X765550Y192344D02*
X784500Y211294D01*
Y246044D02*
X788618Y250163D01*
Y265618D01*
X790950Y192344D02*
Y230950D01*
X792500Y232500D01*
D29*
X686036Y345000D02*
X688738D01*
X667500D02*
X686036D01*
X678964Y353957D02*
X687089D01*
X632500Y394757D02*
X637743D01*
X515000Y465000D02*
X522500Y472500D01*
X515000Y455750D02*
Y465000D01*
X504250Y445000D02*
X515000Y455750D01*
X504250Y421500D02*
Y445000D01*
X492500Y409750D02*
X504250Y421500D01*
X492500Y372500D02*
Y409750D01*
X643400Y457694D02*
Y467500D01*
X600000D02*
X643400D01*
X537500Y405000D02*
X600000Y467500D01*
X597500Y447500D02*
Y455000D01*
X637000Y413000D02*
X637500Y412500D01*
X627000Y408000D02*
X630000Y405000D01*
X637743Y394757D02*
X640000Y392500D01*
Y385000D02*
Y392500D01*
X447500Y297500D02*
X560000D01*
X617500Y313718D02*
X621283Y317500D01*
X617500Y297500D02*
Y313718D01*
X607500Y310789D02*
X619211Y322500D01*
X607500Y284500D02*
Y310789D01*
X621283Y317500D02*
X630500D01*
X592500Y395500D02*
Y415000D01*
X597500Y395500D02*
Y407071D01*
X602500Y395500D02*
Y405000D01*
X497500Y367500D02*
X519500D01*
X1250750Y350750D02*
X1257500Y357500D01*
X630000Y405000D02*
X640000D01*
X257482Y269383D02*
X258258Y268608D01*
X257482Y269383D02*
Y279517D01*
X257500Y279535D01*
Y280000D01*
X272500Y295000D01*
X1016350Y307694D02*
Y309440D01*
X272500Y295000D02*
X413000D01*
X415000Y297000D01*
X415500Y297500D02*
X437500D01*
X560000D02*
X562500Y295000D01*
Y284500D02*
Y295000D01*
X630500Y352500D02*
X660000D01*
X87600Y-7556D02*
Y130100D01*
X312500Y355000D01*
X352500D01*
X640000Y405000D02*
X662500Y427500D01*
X637500Y412500D02*
X660000Y435000D01*
X1224250Y350750D02*
X1250750D01*
X694200Y457500D02*
X709200Y472500D01*
X760000D01*
X767500Y465000D01*
X777150D01*
X782900Y470750D01*
X512500Y377500D02*
X519500D01*
X510000Y380000D02*
X512500Y377500D01*
X510000Y380000D02*
Y395000D01*
X653800Y472500D02*
X668800Y457500D01*
X510000Y395000D02*
X512500D01*
X517500Y400000D01*
X520000Y437500D02*
Y450000D01*
X662500Y427500D02*
X932500D01*
X660000Y435000D02*
X932500D01*
X932500Y427500D02*
X960000Y400000D01*
X1175000D01*
X1224250Y350750D01*
X932500Y435000D02*
X962500Y405000D01*
X1180000D01*
X1227500Y357500D01*
X619211Y322500D02*
X630500D01*
Y377500D02*
X645000D01*
X656464Y388965D01*
X663536Y396036D02*
X663964D01*
X670000Y390000D01*
X672071Y362500D02*
X679368D01*
X685808Y368939D01*
X671036Y361465D02*
X672071Y362500D01*
X660000Y352500D02*
X667500Y345000D01*
X678964Y353535D02*
Y353957D01*
X687089D02*
X693939Y360808D01*
X688738Y345000D02*
X704192Y360454D01*
Y371061D01*
X663964Y368535D02*
Y383965D01*
X670000Y390000D01*
X682500D02*
X693308Y379192D01*
X670000Y390000D02*
X682500D01*
X693308Y379192D02*
X695078D01*
X630500Y357500D02*
X667071D01*
X671036Y361465D01*
X522500Y472500D02*
X653800D01*
X492500Y372500D02*
X497500Y367500D01*
X517500Y435000D02*
X520000Y437500D01*
X517500Y400000D02*
Y435000D01*
X585000D02*
X597500Y447500D01*
X585000Y420000D02*
Y435000D01*
X572500Y407500D02*
X585000Y420000D01*
X572500Y395500D02*
Y407500D01*
X537500Y395500D02*
Y405000D01*
X550000Y427500D02*
X575000Y452500D01*
X530000Y427500D02*
X550000D01*
X522500Y417500D02*
X530000Y410000D01*
X522500Y417500D02*
Y430000D01*
X555000Y462500D01*
X575000D01*
X622500Y277500D02*
X632500D01*
X632500Y277500D01*
X612500Y267500D02*
X622500D01*
X607500Y273096D02*
Y284500D01*
Y273096D02*
X612500Y268096D01*
Y267500D02*
Y268096D01*
X602500Y267500D02*
Y284500D01*
Y267500D02*
X602500Y267500D01*
Y266904D02*
Y267500D01*
X632500Y266904D02*
Y267500D01*
X602500Y266904D02*
X608154Y261250D01*
X626846D01*
X632500Y266904D01*
X615000Y326712D02*
X619211Y322500D01*
X615000Y326712D02*
Y335000D01*
X602500Y284500D02*
Y332500D01*
X615000Y345000D01*
X592500Y425000D02*
X595000Y422500D01*
X602500Y405000D02*
X605500Y408000D01*
X627000D01*
X597500Y407071D02*
X603429Y413000D01*
X637000D01*
X622500Y277500D02*
X624000Y279000D01*
Y291000D01*
X617500Y297500D02*
X624000Y291000D01*
X1160750Y284468D02*
Y291000D01*
Y284468D02*
X1163467Y281750D01*
X1174800D01*
D30*
X415000Y317500D02*
X427500D01*
X402500D02*
X415000D01*
X613500Y395000D02*
X622500D01*
X1033500Y270000D02*
X1056550Y246950D01*
X1065000D01*
X1071950Y240000D01*
X1105000D01*
X1010000Y270000D02*
X1033500D01*
X622500Y389000D02*
Y395000D01*
X985000Y295000D02*
X1010000Y270000D01*
X890000Y295000D02*
X985000D01*
X782500Y297500D02*
X784200Y295800D01*
Y280000D02*
Y295800D01*
X890000Y315000D02*
X897500D01*
X890000Y305000D02*
Y315000D01*
X835000Y320000D02*
Y340000D01*
X890000Y325000D02*
Y335000D01*
X890000Y295000D02*
X890000Y295000D01*
X877500Y295000D02*
X890000D01*
X773250Y449250D02*
X782900D01*
X767500Y455000D02*
X773250Y449250D01*
X747500Y455000D02*
X767500D01*
X745000Y457500D02*
X747500Y455000D01*
X527500Y267500D02*
X537500D01*
X527500Y257500D02*
X537500D01*
X510000Y440000D02*
X512500Y442500D01*
X500000Y405000D02*
X510000D01*
X502500Y267500D02*
X527500D01*
X492500Y257500D02*
X502500Y267500D01*
X482500Y257500D02*
X492500D01*
X505000D02*
X527500D01*
X495000Y247500D02*
X505000Y257500D01*
X482500Y247500D02*
X495000D01*
X510000Y405000D02*
Y440000D01*
X547500Y237500D02*
Y247500D01*
Y257500D01*
Y257500D01*
X537500Y257500D02*
X547500D01*
X557500D01*
X1320692Y178032D02*
X1322218Y176507D01*
X547500Y226400D02*
Y237500D01*
X548900Y218600D02*
Y225000D01*
Y218600D02*
X555000Y212500D01*
X562500D01*
X873100Y290600D02*
X877500Y295000D01*
X873100Y280000D02*
Y290600D01*
X877500Y325000D02*
X890000D01*
X873100Y329400D02*
X877500Y325000D01*
X873100Y329400D02*
Y340000D01*
D31*
X353600Y304444D02*
Y335000D01*
X1456256Y30121D02*
Y43756D01*
X612500Y287500D02*
X617500D01*
X1070750Y420000D02*
X1147500D01*
X1020500Y470250D02*
X1070750Y420000D01*
X1070500Y412500D02*
X1162500D01*
X1163250Y356750D02*
X1174800D01*
X1147500Y372500D02*
X1163250Y356750D01*
X1147500Y372500D02*
Y392500D01*
X1162500Y384050D02*
Y392500D01*
Y384050D02*
X1174800Y371750D01*
X941500Y470250D02*
X1020500D01*
X1018000Y465000D02*
X1070500Y412500D01*
X939250Y465000D02*
X1018000D01*
X920250Y484000D02*
X939250Y465000D01*
X922250Y489500D02*
X941500Y470250D01*
X648000Y489500D02*
X922250D01*
X645500Y484000D02*
X920250D01*
X630953Y498546D02*
X645500Y484000D01*
X633750Y503750D02*
X648000Y489500D01*
X619000Y503750D02*
X633750D01*
X621470Y498546D02*
X630953D01*
X599750Y492500D02*
X615423D01*
X596405Y495845D02*
X599750Y492500D01*
X520595Y495845D02*
X596405D01*
X615423Y492500D02*
X621470Y498546D01*
X602243Y497007D02*
X612257D01*
X597500Y501750D02*
X602243Y497007D01*
X518500Y501750D02*
X597500D01*
X612257Y497007D02*
X619000Y503750D01*
X505750Y489000D02*
X518500Y501750D01*
X505750Y460114D02*
Y489000D01*
X510250Y485500D02*
X520595Y495845D01*
X510250Y458250D02*
Y485500D01*
X495000Y449364D02*
X505750Y460114D01*
X495000Y425331D02*
Y449364D01*
X499750Y447750D02*
X510250Y458250D01*
X499750Y447217D02*
Y447750D01*
X499500Y446968D02*
X499750Y447217D01*
X481500Y411831D02*
X495000Y425331D01*
X481500Y368750D02*
Y411831D01*
X499500Y423467D02*
Y446968D01*
X486000Y371250D02*
Y409750D01*
X487750Y411500D01*
Y411717D01*
X499500Y423467D01*
X502750Y347500D02*
X519500D01*
X481500Y368750D02*
X502750Y347500D01*
X504750Y352500D02*
X519500D01*
X486000Y371250D02*
X504750Y352500D01*
X610000Y382500D02*
X627500D01*
X632500Y387500D01*
Y394757D01*
X1302888Y147500D02*
X1322218Y166829D01*
X734194Y147500D02*
X1302888D01*
X714750Y166944D02*
X734194Y147500D01*
X612500Y284500D02*
Y287500D01*
X881636Y385000D02*
X911636Y355000D01*
X760000Y385000D02*
X881636D01*
X700000Y325000D02*
X760000Y385000D01*
X883000Y390000D02*
X908000Y365000D01*
X757500Y390000D02*
X883000D01*
X697500Y330000D02*
X757500Y390000D01*
X884364Y395000D02*
X904364Y375000D01*
X755000Y395000D02*
X884364D01*
X694722Y334722D02*
X755000Y395000D01*
X341100Y304444D02*
Y341100D01*
X345000Y345000D01*
X352500D01*
X607500Y385000D02*
Y395500D01*
Y385000D02*
X610000Y382500D01*
X537500Y267500D02*
Y284500D01*
X542500Y272743D02*
Y284500D01*
Y272743D02*
X547500Y267743D01*
Y267500D02*
Y267743D01*
X500000Y377500D02*
X505000Y372500D01*
X519500D01*
X500000Y377500D02*
Y395000D01*
X557500Y267500D02*
Y284500D01*
X1329006Y186871D02*
X1329531D01*
X977500Y365000D02*
X1035000D01*
X1050000Y380000D01*
X1117500D01*
X1456256Y30121D02*
X1456781D01*
X977500Y375000D02*
X1037500D01*
X1047500Y385000D01*
X1526100Y-6556D02*
Y-5813D01*
X1515000Y5287D02*
X1526100Y-5813D01*
X630500Y342500D02*
X651257D01*
X630500Y337500D02*
X649893D01*
X904364Y375000D02*
X967500D01*
X908000Y365000D02*
X967500D01*
X630500Y347500D02*
X658282D01*
X666561Y339222D01*
X691722D01*
X713556Y361056D01*
Y393944D01*
X692500Y415000D02*
X713556Y393944D01*
X682500Y415000D02*
X692500D01*
X651257Y342500D02*
X659035Y334722D01*
X649893Y337500D02*
X657393Y330000D01*
X659035Y334722D02*
X694722D01*
X657393Y330000D02*
X697500D01*
X542500Y385000D02*
Y395500D01*
Y385000D02*
X555250Y372250D01*
X547500Y395500D02*
Y407500D01*
X562500Y422500D01*
X567500D01*
X557500Y395500D02*
Y405000D01*
X567500Y415000D01*
X570000D01*
X577500Y422500D01*
X630500Y332500D02*
X647500D01*
X655000Y325000D01*
X700000D01*
X911636Y355000D02*
X967500D01*
X977500Y350000D02*
Y355000D01*
Y350000D02*
X1005560Y321940D01*
X1016350D01*
X1320167Y178557D02*
X1320692Y178032D01*
X1322218Y166829D02*
Y176507D01*
X552500Y383485D02*
Y395500D01*
X563250Y372500D02*
Y372735D01*
X552500Y383485D02*
X563250Y372735D01*
X1047500Y385000D02*
X1118864D01*
X1264500Y301500D02*
X1515000Y51000D01*
Y5287D02*
Y51000D01*
X1456256Y43756D02*
X1462000Y49500D01*
Y97636D01*
X1262636Y297000D02*
X1462000Y97636D01*
X1213000Y301500D02*
X1264500D01*
X1184250Y272750D02*
X1213000Y301500D01*
X1165750Y272750D02*
X1184250D01*
X1187500Y268250D02*
X1216250Y297000D01*
X1262636D01*
X1163886Y268250D02*
X1187500D01*
X1153750Y284750D02*
X1165750Y272750D01*
X1153750Y284750D02*
Y350114D01*
X1118864Y385000D02*
X1153750Y350114D01*
X1148750Y283386D02*
X1163886Y268250D01*
X1148750Y283386D02*
Y348750D01*
X1117500Y380000D02*
X1148750Y348750D01*
X362500Y335000D02*
X494750D01*
X497250Y332500D01*
X519500D01*
X491114Y345000D02*
X498614Y337500D01*
X519500D01*
X487478Y355000D02*
X499978Y342500D01*
X519500D01*
X362500Y355000D02*
X487478D01*
X362500Y345000D02*
X491114D01*
D32*
X390000Y107500D02*
X472500Y190000D01*
X75100Y-7556D02*
X87600D01*
X249419Y259769D02*
X249419D01*
X258258Y268608D01*
X1016350Y309440D02*
Y321940D01*
X300000Y107500D02*
X390000D01*
X1320692Y178032D02*
X1329531Y186871D01*
X1447942Y21282D02*
X1447942D01*
X1456781Y30121D01*
X1526100Y-6556D02*
X1538600D01*
X472500Y190000D02*
X532500D01*
X545000Y202500D01*
D33*
X745000Y457500D02*
D03*
X689350Y192344D02*
D03*
D34*
X413443Y154617D02*
D03*
X545000Y202500D02*
D03*
D35*
X300000Y72500D02*
D03*
D36*
X1393166Y286274D02*
D03*
X1418566D02*
D03*
X1459779Y219641D02*
D03*
X1485179D02*
D03*
X1544464Y146431D02*
D03*
X1519064D02*
D03*
X1595771Y67444D02*
D03*
X1570371D02*
D03*
X365583Y392503D02*
D03*
X341714Y401190D02*
D03*
X435380Y427108D02*
D03*
X439791Y452122D02*
D03*
X625508Y488797D02*
D03*
X607548Y506757D02*
D03*
X1171917Y427128D02*
D03*
X1167506Y452142D02*
D03*
X1265583Y401210D02*
D03*
X1241714Y392523D02*
D03*
X696348Y237444D02*
D03*
X670948D02*
D03*
X674668Y378464D02*
D03*
X692629Y396424D02*
D03*
X525533Y460695D02*
D03*
Y486095D02*
D03*
X709573Y499814D02*
D03*
Y525214D02*
D03*
X803649Y504744D02*
D03*
Y530144D02*
D03*
X897724Y499814D02*
D03*
Y525214D02*
D03*
X981789Y488797D02*
D03*
X999749Y506757D02*
D03*
X910948Y387444D02*
D03*
X936348D02*
D03*
X910948Y317444D02*
D03*
X936348D02*
D03*
X910948Y262444D02*
D03*
X936348D02*
D03*
X1072784Y464414D02*
D03*
X1090744Y482375D02*
D03*
X1319955Y345539D02*
D03*
X1345355D02*
D03*
X482421Y324481D02*
D03*
X457021D02*
D03*
X482421Y269481D02*
D03*
X457021D02*
D03*
X482421Y214481D02*
D03*
X457021D02*
D03*
X287342Y345539D02*
D03*
X261942D02*
D03*
X214131Y286254D02*
D03*
X188731D02*
D03*
X147518Y219622D02*
D03*
X122118D02*
D03*
X88233Y146431D02*
D03*
X62833D02*
D03*
X36926Y67424D02*
D03*
X11526D02*
D03*
D37*
X854448Y408644D02*
D03*
X829048D02*
D03*
X803649D02*
D03*
X778249D02*
D03*
X752849D02*
D03*
X854448Y256244D02*
D03*
X829048D02*
D03*
X803649D02*
D03*
X778249D02*
D03*
X752849D02*
D03*
D38*
X100100Y-7556D02*
D03*
X87600D02*
D03*
X75100D02*
D03*
X62600D02*
D03*
X366100Y304444D02*
D03*
X353600D02*
D03*
X341100D02*
D03*
X328600D02*
D03*
X1551100Y-6556D02*
D03*
X1538600D02*
D03*
X1526100D02*
D03*
X1513600D02*
D03*
D39*
X267097Y277446D02*
D03*
X258258Y268608D02*
D03*
X249419Y259769D02*
D03*
X240580Y250930D02*
D03*
X1311853Y169193D02*
D03*
X1320692Y178032D02*
D03*
X1329531Y186871D02*
D03*
X1338370Y195710D02*
D03*
X1439104Y12443D02*
D03*
X1447942Y21282D02*
D03*
X1456781Y30121D02*
D03*
X1465620Y38960D02*
D03*
D40*
X1016350Y334440D02*
D03*
Y321940D02*
D03*
Y309440D02*
D03*
Y296940D02*
D03*
D41*
X815000Y240000D02*
D03*
X842500Y205044D02*
D03*
X817500D02*
D03*
X792500Y242500D02*
D03*
X1045000Y417500D02*
D03*
X1310000Y270000D02*
D03*
X1162500Y392500D02*
D03*
X1147500D02*
D03*
X1162500Y412500D02*
D03*
X1147500Y420000D02*
D03*
X482500Y455000D02*
D03*
X910000Y407500D02*
D03*
X970000Y165000D02*
D03*
X1460000Y262500D02*
D03*
X1567500Y127500D02*
D03*
X1140000Y462500D02*
D03*
X957500Y510000D02*
D03*
X567500D02*
D03*
X757500Y515000D02*
D03*
X417500Y402500D02*
D03*
X5000Y32500D02*
D03*
X85000Y190000D02*
D03*
X220000Y320000D02*
D03*
X137500Y170000D02*
D03*
X410000Y172500D02*
D03*
X457500Y150965D02*
D03*
X675000Y165000D02*
D03*
X665000D02*
D03*
X630000Y157500D02*
D03*
X747500Y180000D02*
D03*
X1207500Y265000D02*
D03*
X1215000Y160000D02*
D03*
X952500Y197500D02*
D03*
X597500Y455000D02*
D03*
X622500Y389000D02*
D03*
X1032500Y247500D02*
D03*
X1105000Y240000D02*
D03*
X1257500Y342500D02*
D03*
X487500Y290000D02*
D03*
X510000Y282500D02*
D03*
X552500Y330000D02*
D03*
X620000Y240000D02*
D03*
X1032500Y257500D02*
D03*
X1150000Y230000D02*
D03*
X1092500Y157500D02*
D03*
X782500Y297500D02*
D03*
X897500Y315000D02*
D03*
X835000Y320000D02*
D03*
X890000Y335000D02*
D03*
X630000Y405000D02*
D03*
X637500Y412500D02*
D03*
X62500Y22500D02*
D03*
X332500Y330000D02*
D03*
X970000Y322500D02*
D03*
X1485000Y5000D02*
D03*
X1525000Y40000D02*
D03*
X1257500Y357500D02*
D03*
X1227500D02*
D03*
X300000Y20000D02*
D03*
X240000Y30000D02*
D03*
X205000Y37500D02*
D03*
Y25000D02*
D03*
X180000Y40000D02*
D03*
Y12500D02*
D03*
X240000Y117500D02*
D03*
Y107500D02*
D03*
Y97500D02*
D03*
X200000Y107500D02*
D03*
Y117500D02*
D03*
Y97500D02*
D03*
X217500Y65000D02*
D03*
X172500Y182500D02*
D03*
X190000D02*
D03*
X172500Y157500D02*
D03*
X190000Y215000D02*
D03*
X172500Y197500D02*
D03*
X190000D02*
D03*
X155000Y182500D02*
D03*
X205000Y155000D02*
D03*
Y182500D02*
D03*
Y140000D02*
D03*
X427500Y317500D02*
D03*
X520000Y450000D02*
D03*
X1230000Y387500D02*
D03*
X1210000D02*
D03*
X682500Y415000D02*
D03*
X1202500Y355000D02*
D03*
X402500Y317500D02*
D03*
X410000Y255000D02*
D03*
X425000D02*
D03*
X440000D02*
D03*
X670000Y390000D02*
D03*
X512500Y442500D02*
D03*
X155300Y107500D02*
D03*
X165000Y100000D02*
D03*
X145000Y115000D02*
D03*
X165000D02*
D03*
X145000Y100000D02*
D03*
X142500Y147500D02*
D03*
Y135000D02*
D03*
X155000D02*
D03*
X167500D02*
D03*
X482500Y257500D02*
D03*
Y247500D02*
D03*
X532500Y177500D02*
D03*
Y167500D02*
D03*
X542500D02*
D03*
Y177500D02*
D03*
X675000Y192500D02*
D03*
X530000Y427500D02*
D03*
Y410000D02*
D03*
X567500Y422500D02*
D03*
X577500D02*
D03*
X555000Y452500D02*
D03*
X565000D02*
D03*
X535000Y362500D02*
D03*
X575000Y462500D02*
D03*
Y452500D02*
D03*
X567500Y379750D02*
D03*
X615000Y335000D02*
D03*
X640000Y385000D02*
D03*
X615000Y345000D02*
D03*
X1160750Y291000D02*
D03*
X640000Y195000D02*
D03*
D42*
X602500Y370000D02*
D03*
X595000D02*
D03*
X587500D02*
D03*
X1057500Y235000D02*
D03*
Y210000D02*
D03*
X640000Y222500D02*
D03*
Y230000D02*
D03*
X617500Y287500D02*
D03*
X563250Y372500D02*
D03*
X555250Y372250D02*
D03*
X547500Y320000D02*
D03*
X565000Y327500D02*
D03*
X572500Y322500D02*
D03*
X560000Y220000D02*
D03*
X600000Y418250D02*
D03*
X506250Y321250D02*
D03*
X560500Y320000D02*
D03*
X499500Y325750D02*
D03*
D52*
X1174800Y371750D02*
D03*
Y356750D02*
D03*
Y341750D02*
D03*
Y326750D02*
D03*
Y311750D02*
D03*
Y296750D02*
D03*
Y281750D02*
D03*
X1302200Y371750D02*
D03*
Y356750D02*
D03*
Y341750D02*
D03*
Y326750D02*
D03*
Y311750D02*
D03*
Y296750D02*
D03*
Y281750D02*
D03*
D53*
X1258700Y381750D02*
D03*
X1275200D02*
D03*
D54*
X782900Y449250D02*
D03*
Y470750D02*
D03*
X824400D02*
D03*
Y449250D02*
D03*
D55*
X704192Y371061D02*
D03*
X696061Y379192D02*
D03*
X685808Y368939D02*
D03*
X693939Y360808D02*
D03*
D56*
X686036Y346465D02*
D03*
X678964Y353535D02*
D03*
X671036Y361465D02*
D03*
X663964Y368535D02*
D03*
D57*
X663536Y396036D02*
D03*
X656464Y388965D02*
D03*
D58*
X630500Y377500D02*
D03*
Y372500D02*
D03*
Y367500D02*
D03*
Y362500D02*
D03*
Y357500D02*
D03*
Y352500D02*
D03*
Y347500D02*
D03*
Y342500D02*
D03*
Y337500D02*
D03*
Y332500D02*
D03*
Y327500D02*
D03*
Y322500D02*
D03*
Y317500D02*
D03*
Y312500D02*
D03*
Y307500D02*
D03*
Y302500D02*
D03*
X519500D02*
D03*
Y307500D02*
D03*
Y312500D02*
D03*
Y317500D02*
D03*
Y322500D02*
D03*
Y327500D02*
D03*
Y332500D02*
D03*
Y337500D02*
D03*
Y342500D02*
D03*
Y347500D02*
D03*
Y352500D02*
D03*
Y357500D02*
D03*
Y362500D02*
D03*
Y367500D02*
D03*
Y372500D02*
D03*
Y377500D02*
D03*
D59*
X612500Y284500D02*
D03*
X607500D02*
D03*
X602500D02*
D03*
X597500D02*
D03*
X592500D02*
D03*
X587500D02*
D03*
X582500D02*
D03*
X577500D02*
D03*
X572500D02*
D03*
X567500D02*
D03*
X562500D02*
D03*
X557500D02*
D03*
X552500D02*
D03*
X547500D02*
D03*
X542500D02*
D03*
X537500D02*
D03*
Y395500D02*
D03*
X542500D02*
D03*
X547500D02*
D03*
X552500D02*
D03*
X557500D02*
D03*
X562500D02*
D03*
X567500D02*
D03*
X572500D02*
D03*
X577500D02*
D03*
X582500D02*
D03*
X587500D02*
D03*
X592500D02*
D03*
X597500D02*
D03*
X602500D02*
D03*
X607500D02*
D03*
X612500D02*
D03*
D60*
X571100Y225000D02*
D03*
X548900D02*
D03*
D61*
X155300Y107500D02*
D03*
X219700D02*
D03*
M02*
