G04 Layer_Color=65535*
%FSLAX44Y44*%
%MOMM*%
G71*
G01*
G75*
%ADD30C,0.5000*%
%ADD51C,0.2540*%
%ADD62C,0.1700*%
%ADD63C,0.1000*%
%ADD64C,0.2000*%
G36*
X1079500Y247250D02*
Y254500D01*
X1086750D01*
X1079500Y247250D01*
D02*
G37*
G36*
X515250Y254500D02*
X508000D01*
Y261750D01*
X515250Y254500D01*
D02*
G37*
G36*
X555000Y370000D02*
X547500D01*
Y377500D01*
X555000Y370000D01*
D02*
G37*
D30*
X755349Y273744D02*
G03*
X755349Y273744I-2500J0D01*
G01*
D51*
X742598Y244994D02*
X865098D01*
Y419994D01*
X742598D02*
X865098D01*
X742598Y244994D02*
Y419994D01*
X770349Y371244D02*
X775349Y378744D01*
X780349Y371244D01*
X770348Y346244D02*
X775349Y338744D01*
X780349Y346244D01*
X770349Y346244D02*
Y371244D01*
X780349Y346244D02*
Y371244D01*
X785349Y386244D02*
X810349D01*
X785349Y376244D02*
X810349D01*
X810349Y386244D02*
X817849Y381244D01*
X810349Y376244D02*
X817849Y381244D01*
X777849D02*
X785349Y386244D01*
X777849Y381244D02*
X785349Y376244D01*
X815349Y346244D02*
Y371244D01*
X825349Y346244D02*
Y371244D01*
X815349Y371244D02*
X820349Y378744D01*
X825349Y371244D01*
X815349Y346244D02*
X820349Y338744D01*
X825349Y346244D01*
X785349Y331244D02*
X810349D01*
X785349Y341244D02*
X810349D01*
X777849Y336244D02*
X785348Y331244D01*
X777849Y336244D02*
X785348Y341244D01*
X810349Y331244D02*
X817849Y336244D01*
X810349Y341244D02*
X817849Y336244D01*
X780349Y301244D02*
Y326244D01*
X770349Y301244D02*
Y326244D01*
X775349Y293744D02*
X780349Y301244D01*
X770348D02*
X775349Y293744D01*
Y333744D02*
X780349Y326244D01*
X770349D02*
X775349Y333744D01*
X825349Y301244D02*
Y326244D01*
X815349Y301244D02*
Y326244D01*
X820349Y293744D02*
X825349Y301244D01*
X815349D02*
X820349Y293744D01*
Y333744D02*
X825349Y326244D01*
X815349D02*
X820349Y333744D01*
X785349Y296244D02*
X810349D01*
X785349Y286244D02*
X810349D01*
X810349Y296244D02*
X817849Y291244D01*
X810349Y286244D02*
X817849Y291244D01*
X777849D02*
X785349Y296244D01*
X777849Y291244D02*
X785349Y286244D01*
X837598Y289744D02*
X845098Y294744D01*
X837598Y289744D02*
X845098Y284744D01*
X845098Y284744D02*
X852598Y289744D01*
X845098Y294744D02*
X852598Y289744D01*
D62*
X1394325Y276632D02*
G03*
X1417307Y276632I11491J9642D01*
G01*
X1417407Y295916D02*
G03*
X1394425Y295916I-11491J-9642D01*
G01*
X1460938Y210000D02*
G03*
X1483920Y210000I11491J9642D01*
G01*
X1484019Y229283D02*
G03*
X1461038Y229283I-11491J-9642D01*
G01*
X1543304Y156073D02*
G03*
X1520323Y156073I-11491J-9642D01*
G01*
X1520223Y136789D02*
G03*
X1543204Y136789I11491J9642D01*
G01*
X1594612Y77086D02*
G03*
X1571631Y77086I-11491J-9642D01*
G01*
X1571531Y57802D02*
G03*
X1594512Y57802I11491J9642D01*
G01*
X367791Y401960D02*
G03*
X346195Y409820I-14095J-5130D01*
G01*
X339506Y391734D02*
G03*
X361101Y383873I14095J5130D01*
G01*
X445077Y426575D02*
G03*
X449067Y449207I-7500J12990D01*
G01*
X430094Y452654D02*
G03*
X426104Y430022I7500J-12990D01*
G01*
X631506Y496434D02*
G03*
X615256Y512684I-14943J1307D01*
G01*
X601550Y499119D02*
G03*
X617800Y482869I14943J-1307D01*
G01*
X1181211Y429944D02*
G03*
X1177220Y452576I-11491J9642D01*
G01*
X1158212Y449326D02*
G03*
X1162203Y426694I11491J-9642D01*
G01*
X1261195Y409874D02*
G03*
X1239600Y402014I-7500J-12990D01*
G01*
X1246102Y383859D02*
G03*
X1267697Y391719I7500J12990D01*
G01*
X704916Y249694D02*
G03*
X704916Y225194I-21218J-12250D01*
G01*
X677272Y363743D02*
G03*
X659948Y381068I6341J23665D01*
G01*
X535175Y461854D02*
G03*
X535175Y484836I-9642J11491D01*
G01*
X515891Y484935D02*
G03*
X515891Y461954I9642J-11491D01*
G01*
X719215Y500973D02*
G03*
X719215Y523954I-9642J11491D01*
G01*
X699931Y524054D02*
G03*
X699931Y501073I9642J-11491D01*
G01*
X813290Y505903D02*
G03*
X813290Y528885I-9642J11491D01*
G01*
X794007Y528985D02*
G03*
X794007Y506003I9642J-11491D01*
G01*
X907366Y500973D02*
G03*
X907366Y523954I-9642J11491D01*
G01*
X888082Y524054D02*
G03*
X888082Y501073I9642J-11491D01*
G01*
X989426Y482799D02*
G03*
X1005677Y499049I1307J14943D01*
G01*
X992112Y512755D02*
G03*
X975861Y496505I-1307J-14943D01*
G01*
X902381Y375194D02*
G03*
X902381Y399694I21218J12250D01*
G01*
X912108Y307802D02*
G03*
X935089Y307802I11491J9642D01*
G01*
X935189Y327086D02*
G03*
X912208Y327086I-11491J-9642D01*
G01*
X912108Y252802D02*
G03*
X935089Y252802I11491J9642D01*
G01*
X935189Y272086D02*
G03*
X912208Y272086I-11491J-9642D01*
G01*
X1080421Y458416D02*
G03*
X1096671Y474667I1307J14943D01*
G01*
X1083106Y488373D02*
G03*
X1066856Y472123I-1307J-14943D01*
G01*
X1321115Y335897D02*
G03*
X1344096Y335897I11491J9642D01*
G01*
X1344196Y355181D02*
G03*
X1321215Y355181I-11491J-9642D01*
G01*
X481261Y334123D02*
G03*
X458280Y334123I-11491J-9642D01*
G01*
X458180Y314839D02*
G03*
X481161Y314839I11491J9642D01*
G01*
X481261Y279123D02*
G03*
X458280Y279123I-11491J-9642D01*
G01*
X458180Y259839D02*
G03*
X481161Y259839I11491J9642D01*
G01*
X481261Y224123D02*
G03*
X458280Y224123I-11491J-9642D01*
G01*
X458180Y204839D02*
G03*
X481161Y204839I11491J9642D01*
G01*
X286182Y355181D02*
G03*
X263201Y355181I-11491J-9642D01*
G01*
X263101Y335897D02*
G03*
X286082Y335897I11491J9642D01*
G01*
X212972Y295896D02*
G03*
X189990Y295896I-11491J-9642D01*
G01*
X189890Y276612D02*
G03*
X212872Y276612I11491J9642D01*
G01*
X146359Y229263D02*
G03*
X123378Y229263I-11491J-9642D01*
G01*
X123278Y209980D02*
G03*
X146259Y209980I11491J9642D01*
G01*
X87074Y156073D02*
G03*
X64092Y156073I-11491J-9642D01*
G01*
X63993Y136789D02*
G03*
X86974Y136789I11491J9642D01*
G01*
X35766Y77066D02*
G03*
X12785Y77066I-11491J-9642D01*
G01*
X12685Y57782D02*
G03*
X35666Y57782I11491J9642D01*
G01*
X704899Y225194D02*
Y249694D01*
X659960Y381080D02*
X677284Y363756D01*
X902399Y375194D02*
Y399694D01*
X560000Y347497D02*
X566665D01*
X563332D01*
Y337500D01*
X569997D02*
Y347497D01*
X574995D01*
X576661Y345831D01*
Y342498D01*
X574995Y340832D01*
X569997D01*
X579994Y345831D02*
X581660Y347497D01*
X584992D01*
X586658Y345831D01*
Y344165D01*
X584992Y342498D01*
X583326D01*
X584992D01*
X586658Y340832D01*
Y339166D01*
X584992Y337500D01*
X581660D01*
X579994Y339166D01*
X597500Y404074D02*
X604165D01*
X600832D01*
Y394078D01*
X607497D02*
Y404074D01*
X612495D01*
X614161Y402408D01*
Y399076D01*
X612495Y397410D01*
X607497D01*
X624158Y394078D02*
X617494D01*
X624158Y400742D01*
Y402408D01*
X622492Y404074D01*
X619160D01*
X617494Y402408D01*
X562500Y362497D02*
X569165D01*
X565832D01*
Y352500D01*
X572497D02*
Y362497D01*
X577495D01*
X579161Y360831D01*
Y357498D01*
X577495Y355832D01*
X572497D01*
X582494Y352500D02*
X585826D01*
X584160D01*
Y362497D01*
X582494Y360831D01*
X1151669Y209165D02*
X1150003Y207498D01*
Y204166D01*
X1151669Y202500D01*
X1158334D01*
X1160000Y204166D01*
Y207498D01*
X1158334Y209165D01*
X1151669Y212497D02*
X1150003Y214163D01*
Y217495D01*
X1151669Y219161D01*
X1153335D01*
X1155002Y217495D01*
Y215829D01*
Y217495D01*
X1156668Y219161D01*
X1158334D01*
X1160000Y217495D01*
Y214163D01*
X1158334Y212497D01*
X1160000Y229158D02*
Y222494D01*
X1153335Y229158D01*
X1151669D01*
X1150003Y227492D01*
Y224160D01*
X1151669Y222494D01*
X1024169Y254165D02*
X1022503Y252498D01*
Y249166D01*
X1024169Y247500D01*
X1030834D01*
X1032500Y249166D01*
Y252498D01*
X1030834Y254165D01*
X1024169Y257497D02*
X1022503Y259163D01*
Y262495D01*
X1024169Y264161D01*
X1025835D01*
X1027502Y262495D01*
Y260829D01*
Y262495D01*
X1029168Y264161D01*
X1030834D01*
X1032500Y262495D01*
Y259163D01*
X1030834Y257497D01*
X1032500Y267493D02*
Y270826D01*
Y269160D01*
X1022503D01*
X1024169Y267493D01*
X1147500Y167497D02*
Y159166D01*
X1149166Y157500D01*
X1152498D01*
X1154165Y159166D01*
Y167497D01*
X1157497Y157500D02*
X1160829D01*
X1159163D01*
Y167497D01*
X1157497Y165831D01*
X1165827D02*
X1167494Y167497D01*
X1170826D01*
X1172492Y165831D01*
Y159166D01*
X1170826Y157500D01*
X1167494D01*
X1165827Y159166D01*
Y165831D01*
X615477Y264564D02*
X623807D01*
X625474Y266230D01*
Y269562D01*
X623807Y271228D01*
X615477D01*
X617143Y274560D02*
X615477Y276227D01*
Y279559D01*
X617143Y281225D01*
X618809D01*
X620475Y279559D01*
X622141Y281225D01*
X623807D01*
X625474Y279559D01*
Y276227D01*
X623807Y274560D01*
X622141D01*
X620475Y276227D01*
X618809Y274560D01*
X617143D01*
X620475Y276227D02*
Y279559D01*
X491669Y306665D02*
X490003Y304998D01*
Y301666D01*
X491669Y300000D01*
X498334D01*
X500000Y301666D01*
Y304998D01*
X498334Y306665D01*
X500000Y316661D02*
Y309997D01*
X493335Y316661D01*
X491669D01*
X490003Y314995D01*
Y311663D01*
X491669Y309997D01*
X490003Y319994D02*
Y326658D01*
X491669D01*
X498334Y319994D01*
X500000D01*
X495748Y234682D02*
X494082Y233016D01*
Y229683D01*
X495748Y228017D01*
X502412D01*
X504078Y229683D01*
Y233016D01*
X502412Y234682D01*
X504078Y244679D02*
Y238014D01*
X497414Y244679D01*
X495748D01*
X494082Y243013D01*
Y239680D01*
X495748Y238014D01*
X494082Y254675D02*
X495748Y251343D01*
X499080Y248011D01*
X502412D01*
X504078Y249677D01*
Y253009D01*
X502412Y254675D01*
X500746D01*
X499080Y253009D01*
Y248011D01*
X124771Y147500D02*
X134768D01*
Y154164D01*
Y164161D02*
Y157497D01*
X128104Y164161D01*
X126438D01*
X124771Y162495D01*
Y159163D01*
X126438Y157497D01*
X180788Y148900D02*
X179122Y150567D01*
X175790D01*
X174124Y148900D01*
Y142236D01*
X175790Y140570D01*
X179122D01*
X180788Y142236D01*
X190785Y140570D02*
X184120D01*
X190785Y147234D01*
Y148900D01*
X189119Y150567D01*
X185786D01*
X184120Y148900D01*
X200782Y150567D02*
X194117D01*
Y145568D01*
X197449Y147234D01*
X199116D01*
X200782Y145568D01*
Y142236D01*
X199116Y140570D01*
X195783D01*
X194117Y142236D01*
X939165Y219997D02*
X935832D01*
X937498D01*
Y211666D01*
X935832Y210000D01*
X934166D01*
X932500Y211666D01*
X942497D02*
X944163Y210000D01*
X947495D01*
X949161Y211666D01*
Y218331D01*
X947495Y219997D01*
X944163D01*
X942497Y218331D01*
Y216665D01*
X944163Y214998D01*
X949161D01*
X621669Y316665D02*
X620003Y314998D01*
Y311666D01*
X621669Y310000D01*
X628334D01*
X630000Y311666D01*
Y314998D01*
X628334Y316665D01*
X630000Y326661D02*
Y319997D01*
X623335Y326661D01*
X621669D01*
X620003Y324995D01*
Y321663D01*
X621669Y319997D01*
X244165Y-6669D02*
X242498Y-5003D01*
X239166D01*
X237500Y-6669D01*
Y-13334D01*
X239166Y-15000D01*
X242498D01*
X244165Y-13334D01*
X247497Y-6669D02*
X249163Y-5003D01*
X252495D01*
X254161Y-6669D01*
Y-8335D01*
X252495Y-10002D01*
X250829D01*
X252495D01*
X254161Y-11668D01*
Y-13334D01*
X252495Y-15000D01*
X249163D01*
X247497Y-13334D01*
X159164Y73331D02*
X157498Y74997D01*
X154166D01*
X152500Y73331D01*
Y66666D01*
X154166Y65000D01*
X157498D01*
X159164Y66666D01*
X169161Y74997D02*
X162497D01*
Y69998D01*
X165829Y71665D01*
X167495D01*
X169161Y69998D01*
Y66666D01*
X167495Y65000D01*
X164163D01*
X162497Y66666D01*
X186669Y89164D02*
X185003Y87498D01*
Y84166D01*
X186669Y82500D01*
X193334D01*
X195000Y84166D01*
Y87498D01*
X193334Y89164D01*
X185003Y99161D02*
X186669Y95829D01*
X190002Y92497D01*
X193334D01*
X195000Y94163D01*
Y97495D01*
X193334Y99161D01*
X191668D01*
X190002Y97495D01*
Y92497D01*
X254165Y95831D02*
X252498Y97497D01*
X249166D01*
X247500Y95831D01*
Y89166D01*
X249166Y87500D01*
X252498D01*
X254165Y89166D01*
X257497Y97497D02*
X264161D01*
Y95831D01*
X257497Y89166D01*
Y87500D01*
X309169Y34165D02*
X307503Y32498D01*
Y29166D01*
X309169Y27500D01*
X315834D01*
X317500Y29166D01*
Y32498D01*
X315834Y34165D01*
X309169Y37497D02*
X307503Y39163D01*
Y42495D01*
X309169Y44161D01*
X310835D01*
X312502Y42495D01*
X314168Y44161D01*
X315834D01*
X317500Y42495D01*
Y39163D01*
X315834Y37497D01*
X314168D01*
X312502Y39163D01*
X310835Y37497D01*
X309169D01*
X312502Y39163D02*
Y42495D01*
X551665Y480831D02*
X549998Y482497D01*
X546666D01*
X545000Y480831D01*
Y474166D01*
X546666Y472500D01*
X549998D01*
X551665Y474166D01*
X554997Y472500D02*
X558329D01*
X556663D01*
Y482497D01*
X554997Y480831D01*
X568326Y472500D02*
Y482497D01*
X563327Y477498D01*
X569992D01*
X494169Y463529D02*
X492503Y461862D01*
Y458530D01*
X494169Y456864D01*
X500834D01*
X502500Y458530D01*
Y461862D01*
X500834Y463529D01*
X502500Y473525D02*
Y466861D01*
X495835Y473525D01*
X494169D01*
X492503Y471859D01*
Y468527D01*
X494169Y466861D01*
Y476857D02*
X492503Y478524D01*
Y481856D01*
X494169Y483522D01*
X495835D01*
X497502Y481856D01*
Y480190D01*
Y481856D01*
X499168Y483522D01*
X500834D01*
X502500Y481856D01*
Y478524D01*
X500834Y476857D01*
X1211665Y400050D02*
X1209998Y401716D01*
X1206666D01*
X1205000Y400050D01*
Y393386D01*
X1206666Y391719D01*
X1209998D01*
X1211665Y393386D01*
X1221661Y391719D02*
X1214997D01*
X1221661Y398384D01*
Y400050D01*
X1219995Y401716D01*
X1216663D01*
X1214997Y400050D01*
X1229992Y391719D02*
Y401716D01*
X1224994Y396718D01*
X1231658D01*
X698583Y423240D02*
Y413243D01*
X703581D01*
X705247Y414909D01*
Y421574D01*
X703581Y423240D01*
X698583D01*
X715244Y413243D02*
X708579D01*
X715244Y419908D01*
Y421574D01*
X713578Y423240D01*
X710246D01*
X708579Y421574D01*
X912108Y347497D02*
Y337500D01*
X917106D01*
X918772Y339166D01*
Y345831D01*
X917106Y347497D01*
X912108D01*
X928769D02*
X922105D01*
Y342498D01*
X925437Y344165D01*
X927103D01*
X928769Y342498D01*
Y339166D01*
X927103Y337500D01*
X923771D01*
X922105Y339166D01*
X705000Y219997D02*
Y210000D01*
X709998D01*
X711665Y211666D01*
Y218331D01*
X709998Y219997D01*
X705000D01*
X714997D02*
X721661D01*
Y218331D01*
X714997Y211666D01*
Y210000D01*
X907500Y294997D02*
Y285000D01*
X912498D01*
X914165Y286666D01*
Y293331D01*
X912498Y294997D01*
X907500D01*
X917497Y293331D02*
X919163Y294997D01*
X922495D01*
X924161Y293331D01*
Y291665D01*
X922495Y289998D01*
X924161Y288332D01*
Y286666D01*
X922495Y285000D01*
X919163D01*
X917497Y286666D01*
Y288332D01*
X919163Y289998D01*
X917497Y291665D01*
Y293331D01*
X919163Y289998D02*
X922495D01*
X160803Y3664D02*
Y-6333D01*
X165802D01*
X167468Y-4667D01*
Y1998D01*
X165802Y3664D01*
X160803D01*
X170800Y-4667D02*
X172466Y-6333D01*
X175798D01*
X177464Y-4667D01*
Y1998D01*
X175798Y3664D01*
X172466D01*
X170800Y1998D01*
Y332D01*
X172466Y-1334D01*
X177464D01*
X10000Y97497D02*
Y87500D01*
X14998D01*
X16665Y89166D01*
Y95831D01*
X14998Y97497D01*
X10000D01*
X19997Y87500D02*
X23329D01*
X21663D01*
Y97497D01*
X19997Y95831D01*
X28327Y87500D02*
X31660D01*
X29994D01*
Y97497D01*
X28327Y95831D01*
X65000Y174997D02*
Y165000D01*
X69998D01*
X71665Y166666D01*
Y173331D01*
X69998Y174997D01*
X65000D01*
X74997Y165000D02*
X78329D01*
X76663D01*
Y174997D01*
X74997Y173331D01*
X89992Y165000D02*
X83327D01*
X89992Y171665D01*
Y173331D01*
X88326Y174997D01*
X84994D01*
X83327Y173331D01*
X120000Y247497D02*
Y237500D01*
X124998D01*
X126664Y239166D01*
Y245831D01*
X124998Y247497D01*
X120000D01*
X129997Y237500D02*
X133329D01*
X131663D01*
Y247497D01*
X129997Y245831D01*
X138327D02*
X139993Y247497D01*
X143326D01*
X144992Y245831D01*
Y244165D01*
X143326Y242498D01*
X141660D01*
X143326D01*
X144992Y240832D01*
Y239166D01*
X143326Y237500D01*
X139993D01*
X138327Y239166D01*
X185000Y314997D02*
Y305000D01*
X189998D01*
X191665Y306666D01*
Y313331D01*
X189998Y314997D01*
X185000D01*
X194997Y305000D02*
X198329D01*
X196663D01*
Y314997D01*
X194997Y313331D01*
X208326Y305000D02*
Y314997D01*
X203327Y309998D01*
X209992D01*
X267500Y377497D02*
Y367500D01*
X272498D01*
X274165Y369166D01*
Y375831D01*
X272498Y377497D01*
X267500D01*
X277497Y367500D02*
X280829D01*
X279163D01*
Y377497D01*
X277497Y375831D01*
X292492Y377497D02*
X285827D01*
Y372498D01*
X289160Y374165D01*
X290826D01*
X292492Y372498D01*
Y369166D01*
X290826Y367500D01*
X287494D01*
X285827Y369166D01*
X310000Y392497D02*
Y382500D01*
X314998D01*
X316665Y384166D01*
Y390831D01*
X314998Y392497D01*
X310000D01*
X319997Y382500D02*
X323329D01*
X321663D01*
Y392497D01*
X319997Y390831D01*
X334992Y392497D02*
X331660Y390831D01*
X328327Y387498D01*
Y384166D01*
X329994Y382500D01*
X333326D01*
X334992Y384166D01*
Y385832D01*
X333326Y387498D01*
X328327D01*
X430094Y417497D02*
Y407500D01*
X435093D01*
X436759Y409166D01*
Y415831D01*
X435093Y417497D01*
X430094D01*
X440091Y407500D02*
X443423D01*
X441757D01*
Y417497D01*
X440091Y415831D01*
X448422Y417497D02*
X455086D01*
Y415831D01*
X448422Y409166D01*
Y407500D01*
X530000Y505842D02*
Y495845D01*
X534998D01*
X536665Y497511D01*
Y504175D01*
X534998Y505842D01*
X530000D01*
X539997Y495845D02*
X543329D01*
X541663D01*
Y505842D01*
X539997Y504175D01*
X548327D02*
X549994Y505842D01*
X553326D01*
X554992Y504175D01*
Y502509D01*
X553326Y500843D01*
X554992Y499177D01*
Y497511D01*
X553326Y495845D01*
X549994D01*
X548327Y497511D01*
Y499177D01*
X549994Y500843D01*
X548327Y502509D01*
Y504175D01*
X549994Y500843D02*
X553326D01*
X610000Y532497D02*
Y522500D01*
X614998D01*
X616665Y524166D01*
Y530831D01*
X614998Y532497D01*
X610000D01*
X619997Y522500D02*
X623329D01*
X621663D01*
Y532497D01*
X619997Y530831D01*
X628327Y524166D02*
X629994Y522500D01*
X633326D01*
X634992Y524166D01*
Y530831D01*
X633326Y532497D01*
X629994D01*
X628327Y530831D01*
Y529165D01*
X629994Y527498D01*
X634992D01*
X702500Y544997D02*
Y535000D01*
X707498D01*
X709165Y536666D01*
Y543331D01*
X707498Y544997D01*
X702500D01*
X719161Y535000D02*
X712497D01*
X719161Y541665D01*
Y543331D01*
X717495Y544997D01*
X714163D01*
X712497Y543331D01*
X722494D02*
X724160Y544997D01*
X727492D01*
X729158Y543331D01*
Y536666D01*
X727492Y535000D01*
X724160D01*
X722494Y536666D01*
Y543331D01*
X770000Y547497D02*
Y537500D01*
X774998D01*
X776665Y539166D01*
Y545831D01*
X774998Y547497D01*
X770000D01*
X786661Y537500D02*
X779997D01*
X786661Y544165D01*
Y545831D01*
X784995Y547497D01*
X781663D01*
X779997Y545831D01*
X789994Y537500D02*
X793326D01*
X791660D01*
Y547497D01*
X789994Y545831D01*
X862500Y539997D02*
Y530000D01*
X867498D01*
X869165Y531666D01*
Y538331D01*
X867498Y539997D01*
X862500D01*
X879161Y530000D02*
X872497D01*
X879161Y536665D01*
Y538331D01*
X877495Y539997D01*
X874163D01*
X872497Y538331D01*
X889158Y530000D02*
X882494D01*
X889158Y536665D01*
Y538331D01*
X887492Y539997D01*
X884160D01*
X882494Y538331D01*
X967500Y529997D02*
Y520000D01*
X972498D01*
X974165Y521666D01*
Y528331D01*
X972498Y529997D01*
X967500D01*
X984161Y520000D02*
X977497D01*
X984161Y526665D01*
Y528331D01*
X982495Y529997D01*
X979163D01*
X977497Y528331D01*
X987494D02*
X989160Y529997D01*
X992492D01*
X994158Y528331D01*
Y526665D01*
X992492Y524998D01*
X990826D01*
X992492D01*
X994158Y523332D01*
Y521666D01*
X992492Y520000D01*
X989160D01*
X987494Y521666D01*
X1057500Y504997D02*
Y495000D01*
X1062498D01*
X1064165Y496666D01*
Y503331D01*
X1062498Y504997D01*
X1057500D01*
X1074161Y495000D02*
X1067497D01*
X1074161Y501665D01*
Y503331D01*
X1072495Y504997D01*
X1069163D01*
X1067497Y503331D01*
X1082492Y495000D02*
Y504997D01*
X1077494Y499998D01*
X1084158D01*
X1122500Y444997D02*
Y435000D01*
X1127498D01*
X1129165Y436666D01*
Y443331D01*
X1127498Y444997D01*
X1122500D01*
X1139161Y435000D02*
X1132497D01*
X1139161Y441665D01*
Y443331D01*
X1137495Y444997D01*
X1134163D01*
X1132497Y443331D01*
X1149158Y444997D02*
X1142494D01*
Y439998D01*
X1145826Y441665D01*
X1147492D01*
X1149158Y439998D01*
Y436666D01*
X1147492Y435000D01*
X1144160D01*
X1142494Y436666D01*
X1273626Y395846D02*
Y385849D01*
X1278624D01*
X1280290Y387515D01*
Y394180D01*
X1278624Y395846D01*
X1273626D01*
X1290287Y385849D02*
X1283622D01*
X1290287Y392514D01*
Y394180D01*
X1288621Y395846D01*
X1285289D01*
X1283622Y394180D01*
X1300284Y395846D02*
X1296951Y394180D01*
X1293619Y390848D01*
Y387515D01*
X1295285Y385849D01*
X1298618D01*
X1300284Y387515D01*
Y389182D01*
X1298618Y390848D01*
X1293619D01*
X1320000Y374997D02*
Y365000D01*
X1324998D01*
X1326664Y366666D01*
Y373331D01*
X1324998Y374997D01*
X1320000D01*
X1336661Y365000D02*
X1329997D01*
X1336661Y371665D01*
Y373331D01*
X1334995Y374997D01*
X1331663D01*
X1329997Y373331D01*
X1339994Y374997D02*
X1346658D01*
Y373331D01*
X1339994Y366666D01*
Y365000D01*
X1387176Y320133D02*
Y310136D01*
X1392174D01*
X1393840Y311802D01*
Y318467D01*
X1392174Y320133D01*
X1387176D01*
X1403837Y310136D02*
X1397173D01*
X1403837Y316800D01*
Y318467D01*
X1402171Y320133D01*
X1398839D01*
X1397173Y318467D01*
X1407170D02*
X1408836Y320133D01*
X1412168D01*
X1413834Y318467D01*
Y316800D01*
X1412168Y315134D01*
X1413834Y313468D01*
Y311802D01*
X1412168Y310136D01*
X1408836D01*
X1407170Y311802D01*
Y313468D01*
X1408836Y315134D01*
X1407170Y316800D01*
Y318467D01*
X1408836Y315134D02*
X1412168D01*
X1453724Y253331D02*
Y243334D01*
X1458722D01*
X1460388Y245000D01*
Y251665D01*
X1458722Y253331D01*
X1453724D01*
X1470385Y243334D02*
X1463721D01*
X1470385Y249998D01*
Y251665D01*
X1468719Y253331D01*
X1465387D01*
X1463721Y251665D01*
X1473718Y245000D02*
X1475384Y243334D01*
X1478716D01*
X1480382Y245000D01*
Y251665D01*
X1478716Y253331D01*
X1475384D01*
X1473718Y251665D01*
Y249998D01*
X1475384Y248332D01*
X1480382D01*
X1512906Y180179D02*
Y170182D01*
X1517904D01*
X1519570Y171848D01*
Y178513D01*
X1517904Y180179D01*
X1512906D01*
X1522903Y178513D02*
X1524569Y180179D01*
X1527901D01*
X1529567Y178513D01*
Y176847D01*
X1527901Y175180D01*
X1526235D01*
X1527901D01*
X1529567Y173514D01*
Y171848D01*
X1527901Y170182D01*
X1524569D01*
X1522903Y171848D01*
X1532900Y178513D02*
X1534566Y180179D01*
X1537898D01*
X1539564Y178513D01*
Y171848D01*
X1537898Y170182D01*
X1534566D01*
X1532900Y171848D01*
Y178513D01*
X1564214Y101185D02*
Y91188D01*
X1569212D01*
X1570878Y92854D01*
Y99519D01*
X1569212Y101185D01*
X1564214D01*
X1574211Y99519D02*
X1575877Y101185D01*
X1579209D01*
X1580875Y99519D01*
Y97852D01*
X1579209Y96186D01*
X1577543D01*
X1579209D01*
X1580875Y94520D01*
Y92854D01*
X1579209Y91188D01*
X1575877D01*
X1574211Y92854D01*
X1584208Y91188D02*
X1587540D01*
X1585874D01*
Y101185D01*
X1584208Y99519D01*
X1020313Y362497D02*
X1016981D01*
X1018647D01*
Y354166D01*
X1016981Y352500D01*
X1015315D01*
X1013649Y354166D01*
X1023645Y352500D02*
X1026977D01*
X1025311D01*
Y362497D01*
X1023645Y360831D01*
X389165Y304997D02*
X385832D01*
X387498D01*
Y296666D01*
X385832Y295000D01*
X384166D01*
X382500Y296666D01*
X399161Y295000D02*
X392497D01*
X399161Y301665D01*
Y303331D01*
X397495Y304997D01*
X394163D01*
X392497Y303331D01*
X280144Y299281D02*
X277787Y296925D01*
X278966Y298103D01*
X284856Y292213D01*
Y289856D01*
X283678Y288678D01*
X281322D01*
X283678Y300459D02*
Y302816D01*
X286034Y305172D01*
X288391Y305172D01*
X289569Y303994D01*
Y301638D01*
X288391Y300459D01*
X289569Y301638D01*
X291925Y301638D01*
X293103Y300459D01*
Y298103D01*
X290747Y295747D01*
X288391D01*
X1325144Y221781D02*
X1322787Y219425D01*
X1323966Y220603D01*
X1329856Y214713D01*
Y212356D01*
X1328678Y211178D01*
X1326322D01*
X1338103Y220603D02*
X1331034Y227672D01*
Y220603D01*
X1335747Y225316D01*
X34165Y-7503D02*
X30832D01*
X32498D01*
Y-15834D01*
X30832Y-17500D01*
X29166D01*
X27500Y-15834D01*
X44161Y-7503D02*
X37497D01*
Y-12502D01*
X40829Y-10835D01*
X42495D01*
X44161Y-12502D01*
Y-15834D01*
X42495Y-17500D01*
X39163D01*
X37497Y-15834D01*
X1407644Y6781D02*
X1405287Y4425D01*
X1406466Y5603D01*
X1412356Y-288D01*
Y-2644D01*
X1411178Y-3822D01*
X1408822D01*
X1414713Y13850D02*
X1413534Y10316D01*
Y5603D01*
X1415891Y3247D01*
X1418247D01*
X1420603Y5603D01*
Y7959D01*
X1419425Y9138D01*
X1417069Y9138D01*
X1413534Y5603D01*
X1553428Y27497D02*
X1550096D01*
X1551762D01*
Y19166D01*
X1550096Y17500D01*
X1548430D01*
X1546764Y19166D01*
X1556761Y27497D02*
X1563425D01*
Y25831D01*
X1556761Y19166D01*
Y17500D01*
X52500Y49997D02*
Y40000D01*
X59165D01*
X62497D02*
X65829D01*
X64163D01*
Y49997D01*
X62497Y48331D01*
X977500Y332500D02*
Y342497D01*
X982498D01*
X984165Y340831D01*
Y337498D01*
X982498Y335832D01*
X977500D01*
X980832D02*
X984165Y332500D01*
X987497D02*
X990829D01*
X989163D01*
Y342497D01*
X987497Y340831D01*
X357501Y337500D02*
X347504D01*
Y342499D01*
X349170Y344165D01*
X352502D01*
X354168Y342499D01*
Y337500D01*
Y340833D02*
X357501Y344165D01*
Y354162D02*
Y347497D01*
X350836Y354162D01*
X349170D01*
X347504Y352495D01*
Y349163D01*
X349170Y347497D01*
X345000Y337500D02*
X335003D01*
Y342498D01*
X336669Y344165D01*
X340002D01*
X341668Y342498D01*
Y337500D01*
Y340832D02*
X345000Y344165D01*
X336669Y347497D02*
X335003Y349163D01*
Y352495D01*
X336669Y354161D01*
X338335D01*
X340002Y352495D01*
Y350829D01*
Y352495D01*
X341668Y354161D01*
X343334D01*
X345000Y352495D01*
Y349163D01*
X343334Y347497D01*
X55000Y2500D02*
X45003D01*
Y7498D01*
X46669Y9165D01*
X50002D01*
X51668Y7498D01*
Y2500D01*
Y5832D02*
X55000Y9165D01*
X45003Y19161D02*
X46669Y15829D01*
X50002Y12497D01*
X53334D01*
X55000Y14163D01*
Y17495D01*
X53334Y19161D01*
X51668D01*
X50002Y17495D01*
Y12497D01*
X1462500Y-12500D02*
Y-2503D01*
X1467498D01*
X1469164Y-4169D01*
Y-7502D01*
X1467498Y-9168D01*
X1462500D01*
X1465832D02*
X1469164Y-12500D01*
X1472497Y-2503D02*
X1479161D01*
Y-4169D01*
X1472497Y-10834D01*
Y-12500D01*
X627500Y255000D02*
Y264997D01*
X632498D01*
X634165Y263331D01*
Y259998D01*
X632498Y258332D01*
X627500D01*
X630832D02*
X634165Y255000D01*
X637497Y263331D02*
X639163Y264997D01*
X642495D01*
X644161Y263331D01*
Y261665D01*
X642495Y259998D01*
X644161Y258332D01*
Y256666D01*
X642495Y255000D01*
X639163D01*
X637497Y256666D01*
Y258332D01*
X639163Y259998D01*
X637497Y261665D01*
Y263331D01*
X639163Y259998D02*
X642495D01*
X1515000Y17500D02*
X1505003D01*
Y22498D01*
X1506669Y24165D01*
X1510002D01*
X1511668Y22498D01*
Y17500D01*
Y20832D02*
X1515000Y24165D01*
X1513334Y27497D02*
X1515000Y29163D01*
Y32495D01*
X1513334Y34161D01*
X1506669D01*
X1505003Y32495D01*
Y29163D01*
X1506669Y27497D01*
X1508336D01*
X1510002Y29163D01*
Y34161D01*
X147500Y52500D02*
Y62497D01*
X152498D01*
X154164Y60831D01*
Y57498D01*
X152498Y55832D01*
X147500D01*
X150832D02*
X154164Y52500D01*
X157497D02*
X160829D01*
X159163D01*
Y62497D01*
X157497Y60831D01*
X165827Y52500D02*
X169160D01*
X167494D01*
Y62497D01*
X165827Y60831D01*
X170000Y107500D02*
Y117497D01*
X174998D01*
X176665Y115831D01*
Y112498D01*
X174998Y110832D01*
X170000D01*
X173332D02*
X176665Y107500D01*
X179997D02*
X183329D01*
X181663D01*
Y117497D01*
X179997Y115831D01*
X194992Y107500D02*
X188327D01*
X194992Y114164D01*
Y115831D01*
X193326Y117497D01*
X189993D01*
X188327Y115831D01*
X205000Y107500D02*
Y117497D01*
X209998D01*
X211665Y115831D01*
Y112498D01*
X209998Y110832D01*
X205000D01*
X208332D02*
X211665Y107500D01*
X214997D02*
X218329D01*
X216663D01*
Y117497D01*
X214997Y115831D01*
X223327D02*
X224994Y117497D01*
X228326D01*
X229992Y115831D01*
Y114164D01*
X228326Y112498D01*
X226660D01*
X228326D01*
X229992Y110832D01*
Y109166D01*
X228326Y107500D01*
X224994D01*
X223327Y109166D01*
X656564Y374303D02*
X646567D01*
Y379301D01*
X648233Y380968D01*
X651565D01*
X653231Y379301D01*
Y374303D01*
Y377635D02*
X656564Y380968D01*
Y384300D02*
Y387632D01*
Y385966D01*
X646567D01*
X648233Y384300D01*
X656564Y397629D02*
X646567D01*
X651565Y392631D01*
Y399295D01*
X544500Y387500D02*
X534503D01*
Y392498D01*
X536169Y394165D01*
X539502D01*
X541168Y392498D01*
Y387500D01*
Y390832D02*
X544500Y394165D01*
Y397497D02*
Y400829D01*
Y399163D01*
X534503D01*
X536169Y397497D01*
X534503Y412492D02*
Y405827D01*
X539502D01*
X537836Y409160D01*
Y410826D01*
X539502Y412492D01*
X542834D01*
X544500Y410826D01*
Y407494D01*
X542834Y405827D01*
X636148Y372500D02*
X626152D01*
Y377498D01*
X627818Y379165D01*
X631150D01*
X632816Y377498D01*
Y372500D01*
Y375832D02*
X636148Y379165D01*
Y382497D02*
Y385829D01*
Y384163D01*
X626152D01*
X627818Y382497D01*
X626152Y397492D02*
X627818Y394160D01*
X631150Y390827D01*
X634482D01*
X636148Y392494D01*
Y395826D01*
X634482Y397492D01*
X632816D01*
X631150Y395826D01*
Y390827D01*
X545000Y457500D02*
Y467497D01*
X549998D01*
X551665Y465831D01*
Y462498D01*
X549998Y460832D01*
X545000D01*
X548332D02*
X551665Y457500D01*
X554997D02*
X558329D01*
X556663D01*
Y467497D01*
X554997Y465831D01*
X563327Y467497D02*
X569992D01*
Y465831D01*
X563327Y459166D01*
Y457500D01*
X550000Y337500D02*
X540003D01*
Y342498D01*
X541669Y344165D01*
X545002D01*
X546668Y342498D01*
Y337500D01*
Y340832D02*
X550000Y344165D01*
Y347497D02*
Y350829D01*
Y349163D01*
X540003D01*
X541669Y347497D01*
Y355827D02*
X540003Y357494D01*
Y360826D01*
X541669Y362492D01*
X543335D01*
X545002Y360826D01*
X546668Y362492D01*
X548334D01*
X550000Y360826D01*
Y357494D01*
X548334Y355827D01*
X546668D01*
X545002Y357494D01*
X543335Y355827D01*
X541669D01*
X545002Y357494D02*
Y360826D01*
X475000Y455000D02*
X465003D01*
Y459998D01*
X466669Y461665D01*
X470002D01*
X471668Y459998D01*
Y455000D01*
Y458332D02*
X475000Y461665D01*
Y464997D02*
Y468329D01*
Y466663D01*
X465003D01*
X466669Y464997D01*
X473334Y473327D02*
X475000Y474994D01*
Y478326D01*
X473334Y479992D01*
X466669D01*
X465003Y478326D01*
Y474994D01*
X466669Y473327D01*
X468335D01*
X470002Y474994D01*
Y479992D01*
X1175230Y387500D02*
Y397497D01*
X1180229D01*
X1181895Y395831D01*
Y392498D01*
X1180229Y390832D01*
X1175230D01*
X1178563D02*
X1181895Y387500D01*
X1191892D02*
X1185227D01*
X1191892Y394165D01*
Y395831D01*
X1190226Y397497D01*
X1186893D01*
X1185227Y395831D01*
X1195224D02*
X1196890Y397497D01*
X1200222D01*
X1201889Y395831D01*
Y389166D01*
X1200222Y387500D01*
X1196890D01*
X1195224Y389166D01*
Y395831D01*
X743032Y437989D02*
Y429658D01*
X744698Y427992D01*
X748030D01*
X749697Y429658D01*
Y437989D01*
X753029Y427992D02*
X756361D01*
X754695D01*
Y437989D01*
X753029Y436323D01*
X730003Y280000D02*
X738334D01*
X740000Y281666D01*
Y284998D01*
X738334Y286665D01*
X730003D01*
X731669Y289997D02*
X730003Y291663D01*
Y294995D01*
X731669Y296661D01*
X733335D01*
X735002Y294995D01*
Y293329D01*
Y294995D01*
X736668Y296661D01*
X738334D01*
X740000Y294995D01*
Y291663D01*
X738334Y289997D01*
X262500Y9997D02*
Y1666D01*
X264166Y0D01*
X267498D01*
X269165Y1666D01*
Y9997D01*
X277495Y0D02*
Y9997D01*
X272497Y4998D01*
X279161D01*
X535175Y424997D02*
Y416666D01*
X536841Y415000D01*
X540173D01*
X541839Y416666D01*
Y424997D01*
X551836D02*
X545172D01*
Y419998D01*
X548504Y421665D01*
X550170D01*
X551836Y419998D01*
Y416666D01*
X550170Y415000D01*
X546838D01*
X545172Y416666D01*
X480000Y359997D02*
Y351666D01*
X481666Y350000D01*
X484998D01*
X486665Y351666D01*
Y359997D01*
X496661D02*
X493329Y358331D01*
X489997Y354998D01*
Y351666D01*
X491663Y350000D01*
X494995D01*
X496661Y351666D01*
Y353332D01*
X494995Y354998D01*
X489997D01*
X1255000Y326747D02*
Y318416D01*
X1256666Y316750D01*
X1259998D01*
X1261665Y318416D01*
Y326747D01*
X1264997D02*
X1271661D01*
Y325081D01*
X1264997Y318416D01*
Y316750D01*
X442500Y344997D02*
Y335000D01*
X447498D01*
X449165Y336666D01*
Y343331D01*
X447498Y344997D01*
X442500D01*
X452497Y335000D02*
X455829D01*
X454163D01*
Y344997D01*
X452497Y343331D01*
X907500Y427497D02*
Y417500D01*
X912498D01*
X914165Y419166D01*
Y425831D01*
X912498Y427497D01*
X907500D01*
X917497Y425831D02*
X919163Y427497D01*
X922495D01*
X924161Y425831D01*
Y424165D01*
X922495Y422498D01*
X920829D01*
X922495D01*
X924161Y420832D01*
Y419166D01*
X922495Y417500D01*
X919163D01*
X917497Y419166D01*
X440000Y292497D02*
Y282500D01*
X444998D01*
X446665Y284166D01*
Y290831D01*
X444998Y292497D01*
X440000D01*
X454995Y282500D02*
Y292497D01*
X449997Y287498D01*
X456661D01*
X447500Y239997D02*
Y230000D01*
X452498D01*
X454165Y231666D01*
Y238331D01*
X452498Y239997D01*
X447500D01*
X464161D02*
X460829Y238331D01*
X457497Y234998D01*
Y231666D01*
X459163Y230000D01*
X462495D01*
X464161Y231666D01*
Y233332D01*
X462495Y234998D01*
X457497D01*
X502500Y204997D02*
Y195000D01*
X507498D01*
X509165Y196666D01*
Y203331D01*
X507498Y204997D01*
X502500D01*
X512497Y203331D02*
X514163Y204997D01*
X517495D01*
X519161Y203331D01*
Y201665D01*
X517495Y199998D01*
X515829D01*
X517495D01*
X519161Y198332D01*
Y196666D01*
X517495Y195000D01*
X514163D01*
X512497Y196666D01*
X529158Y195000D02*
X522494D01*
X529158Y201665D01*
Y203331D01*
X527492Y204997D01*
X524160D01*
X522494Y203331D01*
X404826Y273335D02*
Y263338D01*
X409824D01*
X411490Y265004D01*
Y271669D01*
X409824Y273335D01*
X404826D01*
X414823Y271669D02*
X416489Y273335D01*
X419821D01*
X421487Y271669D01*
Y270003D01*
X419821Y268337D01*
X418155D01*
X419821D01*
X421487Y266670D01*
Y265004D01*
X419821Y263338D01*
X416489D01*
X414823Y265004D01*
X424819Y271669D02*
X426485Y273335D01*
X429818D01*
X431484Y271669D01*
Y270003D01*
X429818Y268337D01*
X428152D01*
X429818D01*
X431484Y266670D01*
Y265004D01*
X429818Y263338D01*
X426485D01*
X424819Y265004D01*
X970000Y177500D02*
X960003D01*
Y182498D01*
X961669Y184165D01*
X965002D01*
X966668Y182498D01*
Y177500D01*
Y180832D02*
X970000Y184165D01*
X961669Y187497D02*
X960003Y189163D01*
Y192495D01*
X961669Y194161D01*
X963335D01*
X965002Y192495D01*
Y190829D01*
Y192495D01*
X966668Y194161D01*
X968334D01*
X970000Y192495D01*
Y189163D01*
X968334Y187497D01*
X970000Y197494D02*
Y200826D01*
Y199160D01*
X960003D01*
X961669Y197494D01*
X982500Y177500D02*
X972503D01*
Y182498D01*
X974169Y184165D01*
X977502D01*
X979168Y182498D01*
Y177500D01*
Y180832D02*
X982500Y184165D01*
X974169Y187497D02*
X972503Y189163D01*
Y192495D01*
X974169Y194161D01*
X975835D01*
X977502Y192495D01*
Y190829D01*
Y192495D01*
X979168Y194161D01*
X980834D01*
X982500Y192495D01*
Y189163D01*
X980834Y187497D01*
X982500Y204158D02*
Y197494D01*
X975835Y204158D01*
X974169D01*
X972503Y202492D01*
Y199160D01*
X974169Y197494D01*
X1037500Y197500D02*
X1027503D01*
Y202498D01*
X1029169Y204165D01*
X1032502D01*
X1034168Y202498D01*
Y197500D01*
Y200832D02*
X1037500Y204165D01*
X1029169Y207497D02*
X1027503Y209163D01*
Y212495D01*
X1029169Y214161D01*
X1030835D01*
X1032502Y212495D01*
Y210829D01*
Y212495D01*
X1034168Y214161D01*
X1035834D01*
X1037500Y212495D01*
Y209163D01*
X1035834Y207497D01*
X1029169Y217494D02*
X1027503Y219160D01*
Y222492D01*
X1029169Y224158D01*
X1030835D01*
X1032502Y222492D01*
Y220826D01*
Y222492D01*
X1034168Y224158D01*
X1035834D01*
X1037500Y222492D01*
Y219160D01*
X1035834Y217494D01*
X1000000Y232500D02*
Y242497D01*
X1004998D01*
X1006665Y240831D01*
Y237498D01*
X1004998Y235832D01*
X1000000D01*
X1003332D02*
X1006665Y232500D01*
X1009997Y240831D02*
X1011663Y242497D01*
X1014995D01*
X1016661Y240831D01*
Y239165D01*
X1014995Y237498D01*
X1013329D01*
X1014995D01*
X1016661Y235832D01*
Y234166D01*
X1014995Y232500D01*
X1011663D01*
X1009997Y234166D01*
X1024992Y232500D02*
Y242497D01*
X1019994Y237498D01*
X1026658D01*
X837500Y218594D02*
X827503D01*
Y223592D01*
X829169Y225258D01*
X832502D01*
X834168Y223592D01*
Y218594D01*
Y221926D02*
X837500Y225258D01*
X829169Y228591D02*
X827503Y230257D01*
Y233589D01*
X829169Y235255D01*
X830835D01*
X832502Y233589D01*
Y231923D01*
Y233589D01*
X834168Y235255D01*
X835834D01*
X837500Y233589D01*
Y230257D01*
X835834Y228591D01*
X827503Y245252D02*
Y238587D01*
X832502D01*
X830835Y241920D01*
Y243586D01*
X832502Y245252D01*
X835834D01*
X837500Y243586D01*
Y240254D01*
X835834Y238587D01*
X670000Y152500D02*
X660003D01*
Y157498D01*
X661669Y159164D01*
X665002D01*
X666668Y157498D01*
Y152500D01*
Y155832D02*
X670000Y159164D01*
X661669Y162497D02*
X660003Y164163D01*
Y167495D01*
X661669Y169161D01*
X663335D01*
X665002Y167495D01*
Y165829D01*
Y167495D01*
X666668Y169161D01*
X668334D01*
X670000Y167495D01*
Y164163D01*
X668334Y162497D01*
X660003Y179158D02*
X661669Y175826D01*
X665002Y172494D01*
X668334D01*
X670000Y174160D01*
Y177492D01*
X668334Y179158D01*
X666668D01*
X665002Y177492D01*
Y172494D01*
X617500Y187500D02*
Y197497D01*
X622498D01*
X624165Y195831D01*
Y192498D01*
X622498Y190832D01*
X617500D01*
X620832D02*
X624165Y187500D01*
X627497Y195831D02*
X629163Y197497D01*
X632495D01*
X634161Y195831D01*
Y194165D01*
X632495Y192498D01*
X630829D01*
X632495D01*
X634161Y190832D01*
Y189166D01*
X632495Y187500D01*
X629163D01*
X627497Y189166D01*
X637494Y197497D02*
X644158D01*
Y195831D01*
X637494Y189166D01*
Y187500D01*
X617500Y165000D02*
Y174997D01*
X622498D01*
X624165Y173331D01*
Y169998D01*
X622498Y168332D01*
X617500D01*
X620832D02*
X624165Y165000D01*
X627497Y173331D02*
X629163Y174997D01*
X632495D01*
X634161Y173331D01*
Y171665D01*
X632495Y169998D01*
X630829D01*
X632495D01*
X634161Y168332D01*
Y166666D01*
X632495Y165000D01*
X629163D01*
X627497Y166666D01*
X637494Y173331D02*
X639160Y174997D01*
X642492D01*
X644158Y173331D01*
Y171665D01*
X642492Y169998D01*
X644158Y168332D01*
Y166666D01*
X642492Y165000D01*
X639160D01*
X637494Y166666D01*
Y168332D01*
X639160Y169998D01*
X637494Y171665D01*
Y173331D01*
X639160Y169998D02*
X642492D01*
X810000Y218594D02*
X800003D01*
Y223592D01*
X801669Y225258D01*
X805002D01*
X806668Y223592D01*
Y218594D01*
Y221926D02*
X810000Y225258D01*
Y233589D02*
X800003D01*
X805002Y228591D01*
Y235255D01*
X810000Y238587D02*
Y241920D01*
Y240254D01*
X800003D01*
X801669Y238587D01*
X857500Y218594D02*
X847503D01*
Y223592D01*
X849169Y225258D01*
X852502D01*
X854168Y223592D01*
Y218594D01*
Y221926D02*
X857500Y225258D01*
Y233589D02*
X847503D01*
X852502Y228591D01*
Y235255D01*
X857500Y245252D02*
Y238587D01*
X850835Y245252D01*
X849169D01*
X847503Y243586D01*
Y240254D01*
X849169Y238587D01*
X877500Y218594D02*
X867503D01*
Y223592D01*
X869169Y225258D01*
X872502D01*
X874168Y223592D01*
Y218594D01*
Y221926D02*
X877500Y225258D01*
Y233589D02*
X867503D01*
X872502Y228591D01*
Y235255D01*
X869169Y238587D02*
X867503Y240254D01*
Y243586D01*
X869169Y245252D01*
X870835D01*
X872502Y243586D01*
Y241920D01*
Y243586D01*
X874168Y245252D01*
X875834D01*
X877500Y243586D01*
Y240254D01*
X875834Y238587D01*
X897500Y218594D02*
X887503D01*
Y223592D01*
X889169Y225258D01*
X892502D01*
X894168Y223592D01*
Y218594D01*
Y221926D02*
X897500Y225258D01*
Y233589D02*
X887503D01*
X892502Y228591D01*
Y235255D01*
X897500Y243586D02*
X887503D01*
X892502Y238587D01*
Y245252D01*
X917500Y218594D02*
X907503D01*
Y223592D01*
X909169Y225258D01*
X912502D01*
X914168Y223592D01*
Y218594D01*
Y221926D02*
X917500Y225258D01*
Y233589D02*
X907503D01*
X912502Y228591D01*
Y235255D01*
X907503Y245252D02*
Y238587D01*
X912502D01*
X910835Y241920D01*
Y243586D01*
X912502Y245252D01*
X915834D01*
X917500Y243586D01*
Y240254D01*
X915834Y238587D01*
X628692Y231325D02*
X633405Y236037D01*
X631049Y233681D01*
X638117Y226612D01*
X642830Y231325D02*
X635761Y238393D01*
X639296Y241928D01*
X641652Y241928D01*
X644008Y239571D01*
Y237215D01*
X640474Y233681D01*
X653433Y241928D02*
X646364Y248997D01*
Y241928D01*
X651077Y246640D01*
X687500Y274997D02*
X694165D01*
X690832D01*
Y265000D01*
X697497D02*
Y274997D01*
X702495D01*
X704161Y273331D01*
Y269998D01*
X702495Y268332D01*
X697497D01*
X714158Y274997D02*
X707494D01*
Y269998D01*
X710826Y271665D01*
X712492D01*
X714158Y269998D01*
Y266666D01*
X712492Y265000D01*
X709160D01*
X707494Y266666D01*
X1162807Y271080D02*
Y277745D01*
Y274412D01*
X1172804D01*
Y281077D02*
X1162807D01*
Y286075D01*
X1164473Y287741D01*
X1167805D01*
X1169472Y286075D01*
Y281077D01*
X1162807Y297738D02*
X1164473Y294406D01*
X1167805Y291074D01*
X1171138D01*
X1172804Y292740D01*
Y296072D01*
X1171138Y297738D01*
X1169472D01*
X1167805Y296072D01*
Y291074D01*
X1167503Y202500D02*
Y209165D01*
Y205832D01*
X1177500D01*
Y212497D02*
X1167503D01*
Y217495D01*
X1169169Y219161D01*
X1172502D01*
X1174168Y217495D01*
Y212497D01*
X1167503Y222494D02*
Y229158D01*
X1169169D01*
X1175834Y222494D01*
X1177500D01*
D63*
X1520000Y15000D02*
X1530000D01*
X1520000Y35000D02*
X1530000D01*
X1520000Y15000D02*
Y35000D01*
X1530000Y15000D02*
Y35000D01*
X1460000Y0D02*
Y10000D01*
X1480000Y0D02*
Y10000D01*
X1460000D02*
X1480000D01*
X1460000Y0D02*
X1480000D01*
X1215000Y372500D02*
Y382500D01*
X1195000Y372500D02*
Y382500D01*
Y372500D02*
X1215000D01*
X1195000Y382500D02*
X1215000D01*
X1235000Y372500D02*
Y382500D01*
X1215000Y372500D02*
Y382500D01*
Y372500D02*
X1235000D01*
X1215000Y382500D02*
X1235000D01*
X1145000Y252500D02*
X1155000D01*
X1145000Y232500D02*
X1155000D01*
Y252500D01*
X1145000Y232500D02*
Y252500D01*
X1037500Y262500D02*
X1047500D01*
X1037500Y242500D02*
X1047500D01*
Y262500D01*
X1037500Y242500D02*
Y262500D01*
X995000Y317500D02*
Y327500D01*
X975000Y317500D02*
Y327500D01*
Y317500D02*
X995000D01*
X975000Y327500D02*
X995000D01*
X650000Y267500D02*
Y277500D01*
X630000Y267500D02*
Y277500D01*
Y267500D02*
X650000D01*
X630000Y277500D02*
X650000D01*
X622500Y350000D02*
X632500D01*
X622500Y330000D02*
X632500D01*
Y350000D01*
X622500Y330000D02*
Y350000D01*
X630000Y360000D02*
Y370000D01*
X650000Y360000D02*
Y370000D01*
X630000D02*
X650000D01*
X630000Y360000D02*
X650000D01*
X670000D02*
Y370000D01*
X650000Y360000D02*
Y370000D01*
Y360000D02*
X670000D01*
X650000Y370000D02*
X670000D01*
X530000Y365000D02*
Y375000D01*
X550000Y365000D02*
Y375000D01*
X530000D02*
X550000D01*
X530000Y365000D02*
X550000D01*
X530000Y375000D02*
Y385000D01*
X550000Y375000D02*
Y385000D01*
X530000D02*
X550000D01*
X530000Y375000D02*
X550000D01*
X547500Y370000D02*
Y377500D01*
Y370000D02*
X584500D01*
X547500Y377500D02*
Y410000D01*
X587500Y370000D02*
Y410000D01*
X584500D02*
X587500D01*
X584500Y370000D02*
X587500D01*
X547500Y410000D02*
X584500D01*
X550000Y437500D02*
Y447500D01*
X570000Y437500D02*
Y447500D01*
X550000D02*
X570000D01*
X550000Y437500D02*
X570000D01*
X550000Y427500D02*
Y437500D01*
X570000Y427500D02*
Y437500D01*
X550000D02*
X570000D01*
X550000Y427500D02*
X570000D01*
X487500Y442500D02*
Y452500D01*
X467500Y442500D02*
Y452500D01*
Y442500D02*
X487500D01*
X467500Y452500D02*
X487500D01*
X507500Y442500D02*
Y452500D01*
X487500Y442500D02*
Y452500D01*
Y442500D02*
X507500D01*
X487500Y452500D02*
X507500D01*
X495000Y297500D02*
X505000D01*
X495000Y277500D02*
X505000D01*
Y297500D01*
X495000Y277500D02*
Y297500D01*
Y277500D02*
X505000D01*
X495000Y257500D02*
X505000D01*
Y277500D01*
X495000Y257500D02*
Y277500D01*
X335000Y315000D02*
X345000D01*
X335000Y335000D02*
X345000D01*
X335000Y315000D02*
Y335000D01*
X345000Y315000D02*
Y335000D01*
X347500Y315000D02*
X357500D01*
X347500Y335000D02*
X357500D01*
X347500Y315000D02*
Y335000D01*
X357500Y315000D02*
Y335000D01*
X57500Y20000D02*
X67500D01*
X57500Y0D02*
X67500D01*
Y20000D01*
X57500Y0D02*
Y20000D01*
X235000Y-2500D02*
Y7500D01*
X255000Y-2500D02*
Y7500D01*
X235000D02*
X255000D01*
X235000Y-2500D02*
X255000D01*
X295000Y45000D02*
X305000D01*
X295000Y25000D02*
X305000D01*
Y45000D01*
X295000Y25000D02*
Y45000D01*
X222500Y70000D02*
Y80000D01*
X202500Y70000D02*
Y80000D01*
Y70000D02*
X222500D01*
X202500Y80000D02*
X222500D01*
X267500Y65000D02*
Y85000D01*
X222500D02*
X267500D01*
X222500Y65000D02*
Y85000D01*
Y65000D02*
X267500D01*
X202500Y70000D02*
Y80000D01*
X182500Y70000D02*
Y80000D01*
Y70000D02*
X202500D01*
X182500Y80000D02*
X202500D01*
X192500Y60000D02*
Y70000D01*
X172500Y60000D02*
Y70000D01*
Y60000D02*
X192500D01*
X172500Y70000D02*
X192500D01*
X172500Y50000D02*
Y60000D01*
X192500Y50000D02*
Y60000D01*
X172500D02*
X192500D01*
X172500Y50000D02*
X192500D01*
Y70000D02*
X202500D01*
X192500Y50000D02*
X202500D01*
Y70000D01*
X192500Y50000D02*
Y70000D01*
X175000Y157500D02*
Y177500D01*
Y157500D02*
X210000D01*
X175000Y177500D02*
X210000D01*
Y157500D02*
Y177500D01*
X147500Y140000D02*
X167500D01*
Y175000D01*
X147500Y140000D02*
Y175000D01*
X167500D01*
X647500Y160000D02*
X657500D01*
X647500Y180000D02*
X657500D01*
X647500Y160000D02*
Y180000D01*
X657500Y160000D02*
Y180000D01*
X647500Y200000D02*
X657500D01*
X647500Y180000D02*
X657500D01*
Y200000D01*
X647500Y180000D02*
Y200000D01*
X657500Y185000D02*
X667500D01*
X657500Y205000D02*
X667500D01*
X657500Y185000D02*
Y205000D01*
X667500Y185000D02*
Y205000D01*
X815000Y207500D02*
Y217500D01*
X795000Y207500D02*
Y217500D01*
Y207500D02*
X815000D01*
X795000Y217500D02*
X815000D01*
X842500Y207500D02*
Y217500D01*
X822500Y207500D02*
Y217500D01*
Y207500D02*
X842500D01*
X822500Y217500D02*
X842500D01*
X842500Y207500D02*
Y217500D01*
X862500Y207500D02*
Y217500D01*
X842500D02*
X862500D01*
X842500Y207500D02*
X862500D01*
X882500D02*
Y217500D01*
X862500Y207500D02*
Y217500D01*
Y207500D02*
X882500D01*
X862500Y217500D02*
X882500D01*
X882500Y207500D02*
Y217500D01*
X902500Y207500D02*
Y217500D01*
X882500D02*
X902500D01*
X882500Y207500D02*
X902500D01*
X922500D02*
Y217500D01*
X902500Y207500D02*
Y217500D01*
Y207500D02*
X922500D01*
X902500Y217500D02*
X922500D01*
X937500Y192500D02*
X947500D01*
X937500Y172500D02*
X947500D01*
Y192500D01*
X937500Y172500D02*
Y192500D01*
X947500D02*
X957500D01*
X947500Y172500D02*
X957500D01*
Y192500D01*
X947500Y172500D02*
Y192500D01*
X1040000Y224478D02*
X1050000D01*
X1040000Y204478D02*
X1050000D01*
Y224478D01*
X1040000Y204478D02*
Y224478D01*
X1027500Y232500D02*
Y242500D01*
X1047500Y232500D02*
Y242500D01*
X1027500D02*
X1047500D01*
X1027500Y232500D02*
X1047500D01*
D64*
X1199000Y272000D02*
X1231000D01*
X1199000Y368000D02*
X1231000D01*
Y272000D02*
Y368000D01*
X1199000Y272000D02*
Y368000D01*
Y359000D02*
X1208000Y368000D01*
X1199000Y361000D02*
X1206000Y368000D01*
X1199000Y365000D02*
X1202000Y368000D01*
X1199000Y363000D02*
X1204000Y368000D01*
X1079500Y150500D02*
Y254500D01*
X1125500Y150500D02*
Y254500D01*
X1079500D02*
X1125500D01*
X1079500Y150500D02*
X1125500D01*
X730500Y301500D02*
Y333500D01*
X634500Y301500D02*
Y333500D01*
X730500D01*
X634500Y301500D02*
X730500D01*
X634500Y310500D02*
X643500Y301500D01*
X634500Y308500D02*
X641500Y301500D01*
X634500Y304500D02*
X637500Y301500D01*
X634500Y306500D02*
X639500Y301500D01*
X471500Y344500D02*
X503500D01*
X471500Y440500D02*
X503500D01*
Y344500D02*
Y440500D01*
X471500Y344500D02*
Y440500D01*
Y431500D02*
X480500Y440500D01*
X471500Y433500D02*
X478500Y440500D01*
X471500Y437500D02*
X474500Y440500D01*
X471500Y435500D02*
X476500Y440500D01*
X485500Y150250D02*
Y189750D01*
X484000Y150250D02*
Y189750D01*
X482500Y150250D02*
Y189750D01*
X509500Y150250D02*
Y189750D01*
X480500Y150250D02*
X509500D01*
X480500Y189750D02*
X509500D01*
X480500Y150250D02*
Y189750D01*
X508000Y254500D02*
X612000D01*
X508000Y300500D02*
X612000D01*
X508000Y254500D02*
Y300500D01*
X612000Y254500D02*
Y300500D01*
X405250Y210500D02*
X444750D01*
X405250Y209000D02*
X444750D01*
X405250Y207500D02*
X444750D01*
X405250Y234500D02*
X444750D01*
Y205500D02*
Y234500D01*
X405250Y205500D02*
Y234500D01*
Y205500D02*
X444750D01*
X140000Y7500D02*
Y82500D01*
X70000Y7500D02*
X140000D01*
X70000Y82500D02*
X140000D01*
X70000Y7500D02*
Y82500D01*
X163000Y7750D02*
Y47250D01*
X161500Y7750D02*
Y47250D01*
X160000Y7750D02*
Y47250D01*
X187000Y7750D02*
Y47250D01*
X158000Y7750D02*
X187000D01*
X158000Y47250D02*
X187000D01*
X158000Y7750D02*
Y47250D01*
X250500Y11550D02*
X253500Y14550D01*
X248500Y11550D02*
X253500Y16550D01*
X246500Y11550D02*
X253500Y18550D01*
X237500Y61550D02*
X253500D01*
X237500Y11550D02*
X253500D01*
X237500D02*
Y61550D01*
X253500Y11550D02*
Y61550D01*
M02*
