G04 Layer_Physical_Order=4*
G04 Layer_Color=16711680*
%FSLAX44Y44*%
%MOMM*%
G71*
G01*
G75*
%ADD17R,0.6000X0.6000*%
%ADD18R,0.6000X0.6000*%
%ADD19R,1.5000X1.0000*%
%ADD25O,0.6000X2.1500*%
%ADD27C,0.5000*%
%ADD28C,0.3500*%
%ADD29C,0.2500*%
%ADD30C,1.0000*%
%ADD31C,0.3000*%
%ADD32C,1.5240*%
%ADD33C,1.3000*%
%ADD34R,0.8000X1.0000*%
G04:AMPARAMS|DCode=35|XSize=0.8mm|YSize=1mm|CornerRadius=0mm|HoleSize=0mm|Usage=FLASHONLY|Rotation=45.000|XOffset=0mm|YOffset=0mm|HoleType=Round|Shape=Rectangle|*
%AMROTATEDRECTD35*
4,1,4,0.0707,-0.6364,-0.6364,0.0707,-0.0707,0.6364,0.6364,-0.0707,0.0707,-0.6364,0.0*
%
%ADD35ROTATEDRECTD35*%

%ADD36R,1.0000X0.8000*%
%ADD37C,1.5000*%
%ADD38R,1.5000X1.5000*%
%ADD39R,1.5000X1.5000*%
%ADD40C,1.6000*%
%ADD41C,0.5000*%
%ADD42C,0.7000*%
%ADD52R,0.6300X0.8300*%
%ADD53R,2.7700X2.5500*%
%ADD54P,0.8485X4X270.0*%
%ADD55P,0.8485X4X360.0*%
%ADD56R,1.0500X0.6500*%
G04:AMPARAMS|DCode=57|XSize=0.95mm|YSize=0.85mm|CornerRadius=0mm|HoleSize=0mm|Usage=FLASHONLY|Rotation=45.000|XOffset=0mm|YOffset=0mm|HoleType=Round|Shape=Rectangle|*
%AMROTATEDRECTD57*
4,1,4,-0.0353,-0.6364,-0.6364,-0.0353,0.0353,0.6364,0.6364,0.0353,-0.0353,-0.6364,0.0*
%
%ADD57ROTATEDRECTD57*%

%ADD58O,0.3000X1.8000*%
%ADD59O,1.8000X0.3000*%
G36*
X517508Y461025D02*
X517464Y460695D01*
X517739Y458606D01*
X518545Y456660D01*
X519046Y456008D01*
X518599Y454819D01*
X518049Y454710D01*
X516395Y453605D01*
X515290Y451951D01*
X514902Y450000D01*
X515290Y448049D01*
X516395Y446395D01*
X516686Y446201D01*
Y438872D01*
X515157Y437343D01*
X514439Y436268D01*
X514186Y435000D01*
Y401372D01*
X512437Y399624D01*
X507000D01*
X505852Y399148D01*
X505687Y398751D01*
X504313D01*
X504148Y399148D01*
X503000Y399624D01*
X497000D01*
X495814Y400507D01*
Y441128D01*
X516305Y461619D01*
X517508Y461025D01*
D02*
G37*
G36*
X599061Y442633D02*
X598691Y441414D01*
X598301Y437444D01*
X598691Y433474D01*
X599849Y429657D01*
X601730Y426139D01*
X604260Y423056D01*
X607344Y420525D01*
X610862Y418645D01*
X614360Y417584D01*
X614171Y416314D01*
X603429D01*
X602161Y416061D01*
X601086Y415343D01*
X598394Y412651D01*
X597124Y413177D01*
Y418000D01*
X596648Y419148D01*
X595500Y419624D01*
X589534D01*
X589496Y419625D01*
X589290Y419690D01*
X588314Y420507D01*
Y433628D01*
X597972Y443286D01*
X599061Y442633D01*
D02*
G37*
G36*
X571395Y458895D02*
X572340Y458264D01*
Y456736D01*
X571395Y456105D01*
X570290Y454451D01*
X569902Y452500D01*
X569970Y452157D01*
X548628Y430814D01*
X533799D01*
X533605Y431105D01*
X531951Y432210D01*
X531318Y432336D01*
X530900Y433714D01*
X548786Y451600D01*
X550164Y451182D01*
X550290Y450549D01*
X551395Y448895D01*
X553049Y447790D01*
X555000Y447402D01*
X556951Y447790D01*
X558605Y448895D01*
X559710Y450549D01*
X560098Y452500D01*
X559710Y454451D01*
X558605Y456105D01*
X556999Y457178D01*
X556942Y457240D01*
X556547Y458578D01*
X557030Y459186D01*
X571201D01*
X571395Y458895D01*
D02*
G37*
G36*
X620154Y341428D02*
X620174Y341329D01*
X620837Y340337D01*
Y339663D01*
X620174Y338671D01*
X619941Y337500D01*
X620174Y336329D01*
X620837Y335337D01*
Y334663D01*
X620174Y333671D01*
X619941Y332500D01*
X620174Y331329D01*
X620837Y330337D01*
Y329663D01*
X620174Y328671D01*
X619941Y327500D01*
X620174Y326329D01*
X620837Y325337D01*
X621829Y324674D01*
X623000Y324441D01*
X638000D01*
X639170Y324674D01*
X639203Y324696D01*
X645328D01*
X652007Y318017D01*
X652917Y317410D01*
X653990Y317196D01*
X699728D01*
X700214Y316023D01*
X694495Y310304D01*
X641668D01*
X641336Y310708D01*
X640874Y311574D01*
X641059Y312500D01*
X640826Y313671D01*
X640557Y314073D01*
X640163Y315337D01*
X640826Y316329D01*
X641059Y317500D01*
X640826Y318671D01*
X640163Y319663D01*
X639170Y320326D01*
X638000Y320559D01*
X631772D01*
X631768Y320561D01*
X630500Y320814D01*
X621283D01*
X620014Y320561D01*
X618939Y319843D01*
X615157Y316061D01*
X614439Y314986D01*
X614186Y313718D01*
Y297500D01*
X614439Y296232D01*
X614911Y295524D01*
X613996Y294609D01*
X613671Y294826D01*
X612500Y295059D01*
X611329Y294826D01*
X610337Y294163D01*
X609674Y293171D01*
X609441Y292000D01*
Y287500D01*
Y277000D01*
X609674Y275830D01*
X610337Y274837D01*
X611329Y274174D01*
X612500Y273941D01*
X613671Y274174D01*
X614663Y274837D01*
X615326Y275830D01*
X615559Y277000D01*
Y282575D01*
X616829Y283555D01*
X617500Y283422D01*
X618045Y283530D01*
X619162Y282574D01*
X619067Y281944D01*
X618352Y281648D01*
X617876Y280500D01*
Y274500D01*
X618352Y273352D01*
X619500Y272876D01*
X625500D01*
X626648Y273352D01*
X628006Y273521D01*
X628536Y272986D01*
X628371Y271656D01*
X628352Y271648D01*
X627876Y270500D01*
Y266966D01*
X625474Y264564D01*
X609526D01*
X607124Y266966D01*
Y270500D01*
X606648Y271648D01*
X605814Y271994D01*
Y284500D01*
Y331128D01*
X614657Y339970D01*
X615000Y339902D01*
X616951Y340290D01*
X618605Y341395D01*
X618806Y341697D01*
X620154Y341428D01*
D02*
G37*
G36*
X779942Y349699D02*
X779945Y349426D01*
X779612Y347750D01*
Y332250D01*
X779961Y330494D01*
X780956Y329006D01*
X781396Y328711D01*
Y305800D01*
X781610Y304727D01*
X782217Y303817D01*
X787196Y298839D01*
Y268161D01*
X786636Y267601D01*
X786028Y266691D01*
X785815Y265618D01*
Y263256D01*
X784545Y262908D01*
X782848Y264210D01*
X780629Y265129D01*
X778249Y265443D01*
X775868Y265129D01*
X773649Y264210D01*
X771744Y262748D01*
X770282Y260843D01*
X769363Y258625D01*
X769050Y256244D01*
X769363Y253863D01*
X770282Y251645D01*
X771744Y249739D01*
X773649Y248278D01*
X775868Y247359D01*
X778249Y247045D01*
X780629Y247359D01*
X782848Y248278D01*
X784545Y249580D01*
X785815Y249232D01*
Y216574D01*
X769634Y200394D01*
X767899Y201112D01*
X765550Y201422D01*
X763201Y201112D01*
X761011Y200205D01*
X759131Y198763D01*
X757689Y196883D01*
X756782Y194693D01*
X756472Y192344D01*
X756782Y189994D01*
X757689Y187805D01*
X759131Y185925D01*
X761011Y184482D01*
X763201Y183576D01*
X765550Y183266D01*
X767899Y183576D01*
X770089Y184482D01*
X771969Y185925D01*
X773411Y187805D01*
X774318Y189994D01*
X774628Y192344D01*
X774318Y194693D01*
X773600Y196428D01*
X790601Y213430D01*
X791209Y214339D01*
X791422Y215412D01*
Y237047D01*
X792596Y237533D01*
X833700Y196428D01*
X832982Y194693D01*
X832672Y192344D01*
X832982Y189994D01*
X833889Y187805D01*
X835331Y185925D01*
X837211Y184482D01*
X839400Y183576D01*
X841750Y183266D01*
X844100Y183576D01*
X846289Y184482D01*
X848169Y185925D01*
X849612Y187805D01*
X850518Y189994D01*
X850828Y192344D01*
X850518Y194693D01*
X849612Y196883D01*
X848169Y198763D01*
X846289Y200205D01*
X844100Y201112D01*
X841750Y201422D01*
X839400Y201112D01*
X837666Y200394D01*
X795422Y242637D01*
Y249897D01*
X796692Y250328D01*
X797144Y249739D01*
X799049Y248278D01*
X801268Y247359D01*
X803649Y247045D01*
X806029Y247359D01*
X808248Y248278D01*
X810153Y249739D01*
X810605Y250328D01*
X811875Y249897D01*
Y244815D01*
X812088Y243742D01*
X812696Y242833D01*
X859100Y196428D01*
X858382Y194693D01*
X858072Y192344D01*
X858382Y189994D01*
X859289Y187805D01*
X860731Y185925D01*
X862611Y184482D01*
X864800Y183576D01*
X867150Y183266D01*
X869500Y183576D01*
X871689Y184482D01*
X873569Y185925D01*
X875012Y187805D01*
X875918Y189994D01*
X876228Y192344D01*
X875918Y194693D01*
X875012Y196883D01*
X873569Y198763D01*
X871689Y200205D01*
X869500Y201112D01*
X867150Y201422D01*
X864800Y201112D01*
X863066Y200394D01*
X817739Y245720D01*
X817827Y246412D01*
X819164Y246871D01*
X855517Y210517D01*
X856427Y209910D01*
X857500Y209696D01*
X871233D01*
X884500Y196428D01*
X883782Y194693D01*
X883472Y192344D01*
X883782Y189994D01*
X884689Y187805D01*
X886131Y185925D01*
X888011Y184482D01*
X890201Y183576D01*
X892550Y183266D01*
X894900Y183576D01*
X897089Y184482D01*
X898969Y185925D01*
X900412Y187805D01*
X900926Y189048D01*
X902196Y188795D01*
Y179894D01*
X902410Y178821D01*
X903017Y177911D01*
X909900Y171028D01*
X909182Y169293D01*
X908872Y166944D01*
X909182Y164594D01*
X910089Y162405D01*
X911345Y160768D01*
X910964Y159498D01*
X899536D01*
X899155Y160768D01*
X900412Y162405D01*
X901318Y164594D01*
X901628Y166944D01*
X901318Y169293D01*
X900412Y171483D01*
X898969Y173363D01*
X897089Y174805D01*
X894900Y175712D01*
X892550Y176021D01*
X890201Y175712D01*
X888011Y174805D01*
X886131Y173363D01*
X884689Y171483D01*
X884286Y170512D01*
X884013Y170433D01*
X882590Y171073D01*
X881983Y171983D01*
X874483Y179483D01*
X873573Y180090D01*
X872500Y180304D01*
X852306D01*
X851233Y180090D01*
X850323Y179483D01*
X845834Y174994D01*
X844100Y175712D01*
X841750Y176021D01*
X839400Y175712D01*
X837211Y174805D01*
X835331Y173363D01*
X833889Y171483D01*
X832982Y169293D01*
X832672Y166944D01*
X832982Y164594D01*
X833889Y162405D01*
X835331Y160525D01*
X837211Y159082D01*
X839400Y158176D01*
X841750Y157866D01*
X844100Y158176D01*
X846289Y159082D01*
X848169Y160525D01*
X849612Y162405D01*
X850518Y164594D01*
X850828Y166944D01*
X850518Y169293D01*
X849800Y171028D01*
X853467Y174696D01*
X860493D01*
X860901Y173493D01*
X860731Y173363D01*
X859289Y171483D01*
X858382Y169293D01*
X858072Y166944D01*
X858382Y164594D01*
X859289Y162405D01*
X860731Y160525D01*
X862611Y159082D01*
X864800Y158176D01*
X867150Y157866D01*
X869500Y158176D01*
X871234Y158894D01*
X878300Y151829D01*
X877774Y150559D01*
X735461D01*
X722905Y163114D01*
X723518Y164594D01*
X723828Y166944D01*
X723518Y169293D01*
X722611Y171483D01*
X721169Y173363D01*
X719289Y174805D01*
X717100Y175712D01*
X714750Y176021D01*
X712401Y175712D01*
X710666Y174994D01*
X705583Y180077D01*
X704673Y180684D01*
X703600Y180898D01*
X630568D01*
X606983Y204483D01*
X606073Y205090D01*
X605000Y205304D01*
X577124D01*
Y205500D01*
X576648Y206648D01*
X576251Y206813D01*
Y208187D01*
X576648Y208352D01*
X577124Y209500D01*
Y215500D01*
X576648Y216648D01*
X575500Y217124D01*
X575304D01*
Y219663D01*
X575398Y219702D01*
X575874Y220850D01*
Y229150D01*
X575398Y230298D01*
X575481Y231639D01*
X575840Y232177D01*
X576054Y233250D01*
Y250185D01*
X577324Y250711D01*
X607517Y220517D01*
X608427Y219910D01*
X609500Y219696D01*
X637063D01*
X637116Y219616D01*
X638439Y218732D01*
X640000Y218422D01*
X641561Y218732D01*
X642884Y219616D01*
X643768Y220939D01*
X644078Y222500D01*
X643768Y224061D01*
X642884Y225384D01*
X642538Y225615D01*
Y226885D01*
X642884Y227116D01*
X643768Y228439D01*
X644078Y230000D01*
X643768Y231561D01*
X642884Y232884D01*
X641561Y233768D01*
X640000Y234078D01*
X638439Y233768D01*
X637116Y232884D01*
X637063Y232804D01*
X611161D01*
X600539Y243426D01*
X601065Y244696D01*
X660000D01*
X661073Y244910D01*
X661983Y245517D01*
X767161Y350696D01*
X779409D01*
X779942Y349699D01*
D02*
G37*
G36*
X497165Y330416D02*
X497116Y330384D01*
X496232Y329061D01*
X495922Y327500D01*
X496232Y325939D01*
X497116Y324616D01*
X498439Y323732D01*
X500000Y323422D01*
X500029Y323428D01*
X500928Y322529D01*
X500922Y322500D01*
X501232Y320939D01*
X502116Y319616D01*
X503439Y318732D01*
X505000Y318422D01*
X506561Y318732D01*
X507480Y319346D01*
X508750Y318975D01*
X508886Y318875D01*
X509125Y318426D01*
X508941Y317500D01*
X509174Y316329D01*
X509837Y315337D01*
Y314663D01*
X509174Y313671D01*
X508941Y312500D01*
X509174Y311329D01*
X509837Y310337D01*
Y309663D01*
X509174Y308671D01*
X508941Y307500D01*
X509174Y306329D01*
X509837Y305337D01*
Y304663D01*
X509174Y303671D01*
X508941Y302500D01*
X509024Y302084D01*
X508108Y300814D01*
X451994D01*
X451648Y301648D01*
X450500Y302124D01*
X444500D01*
X443352Y301648D01*
X443187Y301251D01*
X441813D01*
X441648Y301648D01*
X440500Y302124D01*
X434500D01*
X433352Y301648D01*
X433006Y300814D01*
X424124D01*
Y302000D01*
X423648Y303148D01*
X422500Y303624D01*
X407500D01*
X406352Y303148D01*
X405876Y302000D01*
Y298314D01*
X359898D01*
X359193Y299370D01*
X359224Y299444D01*
Y309444D01*
X358748Y310592D01*
X357600Y311068D01*
X356659D01*
Y330877D01*
X356813Y331249D01*
X358187D01*
X358352Y330852D01*
X359500Y330376D01*
X365500D01*
X366648Y330852D01*
X366994Y331686D01*
X451184D01*
X451615Y330416D01*
X451315Y330186D01*
X450033Y328515D01*
X449227Y326569D01*
X448952Y324481D01*
X449227Y322392D01*
X450033Y320446D01*
X451315Y318775D01*
X452986Y317493D01*
X454932Y316687D01*
X457021Y316412D01*
X459109Y316687D01*
X461055Y317493D01*
X462726Y318775D01*
X464009Y320446D01*
X464815Y322392D01*
X465090Y324481D01*
X464815Y326569D01*
X464009Y328515D01*
X462726Y330186D01*
X462427Y330416D01*
X462858Y331686D01*
X476584D01*
X477015Y330416D01*
X476715Y330186D01*
X475433Y328515D01*
X474627Y326569D01*
X474352Y324481D01*
X474627Y322392D01*
X475433Y320446D01*
X476715Y318775D01*
X478386Y317493D01*
X480332Y316687D01*
X482421Y316412D01*
X484509Y316687D01*
X486455Y317493D01*
X488126Y318775D01*
X489409Y320446D01*
X490215Y322392D01*
X490490Y324481D01*
X490215Y326569D01*
X489409Y328515D01*
X488126Y330186D01*
X487827Y330416D01*
X488258Y331686D01*
X496780D01*
X497165Y330416D01*
D02*
G37*
G36*
X846396Y353221D02*
X846068Y352139D01*
X845877Y351944D01*
X844456Y350994D01*
X843461Y349506D01*
X843112Y347750D01*
Y332250D01*
X843461Y330494D01*
X844456Y329006D01*
X844896Y328711D01*
Y308861D01*
X838767Y302733D01*
X838160Y301823D01*
X837946Y300750D01*
Y292541D01*
X836949Y292008D01*
X836676Y292005D01*
X835000Y292338D01*
X834272Y292193D01*
X818045Y308421D01*
Y328270D01*
X818393Y328524D01*
X819315Y328833D01*
X820544Y328011D01*
X822300Y327662D01*
X824056Y328011D01*
X825544Y329006D01*
X826539Y330494D01*
X826888Y332250D01*
Y347750D01*
X826539Y349506D01*
X825544Y350994D01*
X824699Y351559D01*
X824283Y352183D01*
X810442Y366023D01*
X810928Y367196D01*
X832420D01*
X846396Y353221D01*
D02*
G37*
G36*
X834314Y554191D02*
X864947Y552686D01*
X895515Y550179D01*
X925984Y546674D01*
X956322Y542174D01*
X986497Y536683D01*
X1016475Y530209D01*
X1046226Y522756D01*
X1075717Y514335D01*
X1104917Y504953D01*
X1133794Y494620D01*
X1147035Y489388D01*
X1148216Y488921D01*
X1149417Y488504D01*
X1154502Y485996D01*
X1159638Y482565D01*
X1164282Y478492D01*
X1168355Y473847D01*
X1171787Y468711D01*
X1174519Y463171D01*
X1176505Y457322D01*
X1177710Y451263D01*
X1177808Y449763D01*
X1177808D01*
X1177883Y449699D01*
X1177989Y448090D01*
X1179338Y441308D01*
X1181560Y434760D01*
X1184619Y428559D01*
X1188460Y422809D01*
X1193020Y417610D01*
X1198219Y413051D01*
X1203968Y409209D01*
X1210170Y406151D01*
X1216718Y403928D01*
X1223500Y402579D01*
X1230399Y402127D01*
X1237300Y402579D01*
X1244081Y403928D01*
X1250629Y406151D01*
X1255958Y408778D01*
X1256831Y409209D01*
X1257080Y409375D01*
X1258177Y410013D01*
X1262816Y412301D01*
X1268665Y414286D01*
X1274724Y415491D01*
X1280888Y415895D01*
X1287052Y415491D01*
X1293110Y414286D01*
X1298960Y412301D01*
X1304500Y409569D01*
X1306163Y408457D01*
X1306163Y408457D01*
X1306175Y408460D01*
X1324356Y396738D01*
X1349575Y379283D01*
X1374209Y361013D01*
X1398233Y341947D01*
X1421619Y322105D01*
X1444344Y301508D01*
X1466383Y280179D01*
X1487712Y258140D01*
X1508309Y235415D01*
X1528151Y212028D01*
X1547218Y188005D01*
X1565488Y163370D01*
X1582942Y138151D01*
X1599562Y112375D01*
X1615329Y86068D01*
X1630228Y59260D01*
X1644241Y31978D01*
X1644600Y31219D01*
Y1263D01*
X1644600Y1251D01*
X1644600Y0D01*
X1644544Y-1247D01*
X1644182Y-5842D01*
X1642814Y-11540D01*
X1640572Y-16954D01*
X1637510Y-21951D01*
X1633704Y-26407D01*
X1629248Y-30213D01*
X1624251Y-33275D01*
X1618837Y-35517D01*
X1613139Y-36885D01*
X1607297Y-37345D01*
X1601455Y-36885D01*
X1595757Y-35517D01*
X1590343Y-33275D01*
X1585915Y-30562D01*
X1585915Y-30562D01*
X1585915Y-30562D01*
X1585836Y-30575D01*
X1583347Y-28810D01*
X1577179Y-25401D01*
X1570667Y-22703D01*
X1563895Y-20752D01*
X1556947Y-19572D01*
X1549910Y-19176D01*
Y-19222D01*
X1350690D01*
X1350502Y-19259D01*
X1343217Y-18781D01*
X1335873Y-17320D01*
X1328783Y-14913D01*
X1322067Y-11602D01*
X1315841Y-7441D01*
X1310211Y-2504D01*
X1306127Y2153D01*
X1305315Y3094D01*
X1305103Y3389D01*
X1305078Y3406D01*
X1304553Y4100D01*
X1300654Y9251D01*
X1284888Y28461D01*
X1268381Y47038D01*
X1251156Y64952D01*
X1233242Y82176D01*
X1214666Y98684D01*
X1195456Y114449D01*
X1175641Y129448D01*
X1155951Y143171D01*
X1156350Y144441D01*
X1302888D01*
X1302888Y144441D01*
X1304059Y144674D01*
X1305051Y145337D01*
X1324380Y164667D01*
X1324380Y164667D01*
X1325043Y165659D01*
X1325276Y166829D01*
X1325276Y166830D01*
Y173249D01*
X1328204Y176177D01*
X1328272Y176340D01*
X1331223Y179292D01*
X1331386Y179359D01*
X1337043Y185016D01*
X1337519Y186164D01*
X1337043Y187312D01*
X1337929Y188198D01*
X1339077Y187722D01*
X1340225Y188198D01*
X1345882Y193855D01*
X1346358Y195003D01*
X1345882Y196151D01*
X1338811Y203222D01*
X1337663Y203697D01*
X1336515Y203222D01*
X1330858Y197565D01*
X1330383Y196417D01*
X1330858Y195269D01*
X1329972Y194383D01*
X1328824Y194859D01*
X1327676Y194383D01*
X1322019Y188726D01*
X1321952Y188563D01*
X1319000Y185612D01*
X1318837Y185544D01*
X1313180Y179888D01*
X1312705Y178739D01*
X1313180Y177591D01*
X1312294Y176705D01*
X1311146Y177181D01*
X1309998Y176705D01*
X1304341Y171049D01*
X1303866Y169901D01*
X1304341Y168752D01*
X1311180Y161914D01*
X1311517Y160455D01*
X1301621Y150559D01*
X933820D01*
X933294Y151829D01*
X988661Y207196D01*
X1054563D01*
X1054616Y207116D01*
X1055939Y206232D01*
X1057500Y205922D01*
X1059061Y206232D01*
X1060384Y207116D01*
X1061268Y208439D01*
X1061578Y210000D01*
X1061268Y211561D01*
X1060384Y212884D01*
X1059061Y213768D01*
X1057500Y214078D01*
X1055939Y213768D01*
X1054616Y212884D01*
X1054563Y212804D01*
X988565D01*
X988039Y214074D01*
X1006161Y232196D01*
X1054563D01*
X1054616Y232116D01*
X1055939Y231232D01*
X1057500Y230922D01*
X1059061Y231232D01*
X1060384Y232116D01*
X1061268Y233439D01*
X1061578Y235000D01*
X1061268Y236561D01*
X1060384Y237884D01*
X1059061Y238768D01*
X1057500Y239078D01*
X1055939Y238768D01*
X1054616Y237884D01*
X1054563Y237804D01*
X1005000D01*
X1003927Y237590D01*
X1003017Y236983D01*
X926094Y160059D01*
X925690Y160161D01*
X925191Y161596D01*
X925811Y162405D01*
X926718Y164594D01*
X927028Y166944D01*
X926718Y169293D01*
X925811Y171483D01*
X924369Y173363D01*
X922489Y174805D01*
X920300Y175712D01*
X917950Y176021D01*
X915601Y175712D01*
X913866Y174994D01*
X907804Y181055D01*
Y190730D01*
X909074Y190814D01*
X909182Y189994D01*
X910089Y187805D01*
X911531Y185925D01*
X913411Y184482D01*
X915601Y183576D01*
X917950Y183266D01*
X920300Y183576D01*
X922489Y184482D01*
X924369Y185925D01*
X925811Y187805D01*
X926718Y189994D01*
X927028Y192344D01*
X926718Y194693D01*
X925811Y196883D01*
X924369Y198763D01*
X922489Y200205D01*
X920300Y201112D01*
X917950Y201422D01*
X915601Y201112D01*
X913866Y200394D01*
X871983Y242276D01*
X871073Y242884D01*
X870000Y243098D01*
X853361D01*
X849231Y247229D01*
X849849Y248278D01*
X852068Y247359D01*
X854448Y247045D01*
X856829Y247359D01*
X859048Y248278D01*
X860953Y249739D01*
X862415Y251645D01*
X863334Y253863D01*
X863647Y256244D01*
X863334Y258625D01*
X862415Y260843D01*
X860953Y262748D01*
X859048Y264210D01*
X856829Y265129D01*
X854448Y265443D01*
X852068Y265129D01*
X850978Y264678D01*
X850136Y265704D01*
X850290Y265935D01*
X850504Y267008D01*
Y268711D01*
X850944Y269006D01*
X851939Y270494D01*
X852288Y272250D01*
Y287750D01*
X851939Y289506D01*
X850944Y290994D01*
X849456Y291989D01*
X847700Y292338D01*
X845944Y291989D01*
X844824Y291240D01*
X843554Y291757D01*
Y299589D01*
X849683Y305717D01*
X850290Y306627D01*
X850504Y307700D01*
Y321300D01*
X850564Y321348D01*
X851774Y321761D01*
X857596Y315939D01*
Y291289D01*
X857156Y290994D01*
X856161Y289506D01*
X855812Y287750D01*
Y272250D01*
X856161Y270494D01*
X857156Y269006D01*
X858644Y268011D01*
X860400Y267662D01*
X862156Y268011D01*
X863644Y269006D01*
X864639Y270494D01*
X864988Y272250D01*
Y287750D01*
X864639Y289506D01*
X863644Y290994D01*
X863204Y291289D01*
Y317100D01*
X862990Y318173D01*
X862383Y319083D01*
X856254Y325211D01*
Y328243D01*
X857524Y328760D01*
X858644Y328011D01*
X860400Y327662D01*
X862156Y328011D01*
X863644Y329006D01*
X864639Y330494D01*
X864988Y332250D01*
Y347750D01*
X864639Y349506D01*
X863644Y350994D01*
X862156Y351989D01*
X861932Y352034D01*
X836983Y376983D01*
X836073Y377590D01*
X835000Y377804D01*
X758926D01*
X758400Y379074D01*
X761267Y381941D01*
X880369D01*
X909473Y352837D01*
X909473Y352837D01*
X910465Y352174D01*
X911636Y351941D01*
X962901D01*
X963352Y350852D01*
X964500Y350376D01*
X970500D01*
X971648Y350852D01*
X971813Y351249D01*
X973187D01*
X973352Y350852D01*
X974441Y350401D01*
Y350000D01*
X974441Y350000D01*
X974674Y348829D01*
X975337Y347837D01*
X1003397Y319777D01*
X1003397Y319777D01*
X1004389Y319114D01*
X1005560Y318881D01*
X1009726D01*
Y317940D01*
X1009794Y317777D01*
Y313603D01*
X1009726Y313440D01*
Y305440D01*
X1010202Y304292D01*
X1011350Y303816D01*
X1013001D01*
X1013072Y303762D01*
X1014653Y303107D01*
X1016350Y302884D01*
X1018047Y303107D01*
X1019628Y303762D01*
X1019699Y303816D01*
X1021350D01*
X1022498Y304292D01*
X1022974Y305440D01*
Y313440D01*
X1022906Y313603D01*
Y317777D01*
X1022974Y317940D01*
Y325940D01*
X1022498Y327088D01*
X1021350Y327564D01*
X1019699D01*
X1019628Y327618D01*
X1018047Y328273D01*
X1016350Y328496D01*
X1014653Y328273D01*
X1013072Y327618D01*
X1013001Y327564D01*
X1011350D01*
X1010202Y327088D01*
X1009726Y325940D01*
Y324999D01*
X1006827D01*
X981536Y350290D01*
X981648Y350852D01*
X982124Y352000D01*
Y358000D01*
X981648Y359148D01*
X981251Y359313D01*
Y360687D01*
X981648Y360852D01*
X982099Y361941D01*
X1035000D01*
X1035000Y361941D01*
X1036171Y362174D01*
X1037163Y362837D01*
X1051267Y376941D01*
X1116233D01*
X1208337Y284837D01*
X1209330Y284174D01*
X1210500Y283941D01*
X1210500Y283941D01*
X1300369D01*
X1486941Y97369D01*
Y78767D01*
X1454093Y45919D01*
X1453430Y44927D01*
X1453197Y43756D01*
X1453197Y43756D01*
Y35904D01*
X1449269Y31976D01*
X1449202Y31813D01*
X1446250Y28862D01*
X1446087Y28794D01*
X1440430Y23138D01*
X1439955Y21989D01*
X1440430Y20841D01*
X1441598Y19674D01*
X1441610Y19585D01*
X1442265Y18004D01*
X1443306Y16646D01*
X1444664Y15605D01*
X1446246Y14950D01*
X1446334Y14938D01*
X1447501Y13770D01*
X1448649Y13295D01*
X1449798Y13770D01*
X1455454Y19427D01*
X1455522Y19590D01*
X1458473Y22542D01*
X1458636Y22609D01*
X1464293Y28266D01*
X1464769Y29414D01*
X1464293Y30562D01*
X1463125Y31730D01*
X1463114Y31818D01*
X1462459Y33399D01*
X1461417Y34757D01*
X1460059Y35799D01*
X1459315Y36107D01*
Y42489D01*
X1492163Y75337D01*
X1492826Y76329D01*
X1493059Y77500D01*
Y95956D01*
X1494232Y96442D01*
X1511941Y78733D01*
Y5287D01*
X1511941Y5287D01*
X1512174Y4116D01*
X1512837Y3124D01*
X1520076Y-4115D01*
X1519767Y-4859D01*
X1519544Y-6556D01*
X1519767Y-8253D01*
X1520422Y-9834D01*
X1520476Y-9905D01*
Y-11556D01*
X1520952Y-12704D01*
X1522100Y-13180D01*
X1530100D01*
X1530263Y-13112D01*
X1534437D01*
X1534600Y-13180D01*
X1542600D01*
X1543748Y-12704D01*
X1544224Y-11556D01*
Y-9905D01*
X1544278Y-9834D01*
X1544933Y-8253D01*
X1545156Y-6556D01*
X1544933Y-4859D01*
X1544278Y-3278D01*
X1544224Y-3207D01*
Y-1556D01*
X1543748Y-408D01*
X1542600Y68D01*
X1534600D01*
X1534437Y0D01*
X1530263D01*
X1530100Y68D01*
X1524545D01*
X1518059Y6554D01*
Y80000D01*
X1517826Y81171D01*
X1517163Y82163D01*
X1517163Y82163D01*
X1305663Y293663D01*
X1304671Y294326D01*
X1303500Y294559D01*
X1303500Y294559D01*
X1213631D01*
X1121027Y387163D01*
X1120034Y387826D01*
X1118864Y388059D01*
X1118864Y388059D01*
X1047500D01*
X1047500Y388059D01*
X1046329Y387826D01*
X1045337Y387163D01*
X1036233Y378059D01*
X982099D01*
X981648Y379148D01*
X980500Y379624D01*
X974500D01*
X973352Y379148D01*
X973187Y378751D01*
X971813D01*
X971648Y379148D01*
X970500Y379624D01*
X964500D01*
X963352Y379148D01*
X962901Y378059D01*
X905631D01*
X886527Y397163D01*
X885535Y397826D01*
X884364Y398059D01*
X884364Y398059D01*
X755000D01*
X753829Y397826D01*
X752837Y397163D01*
X752837Y397163D01*
X717885Y362211D01*
X716615Y362737D01*
Y393943D01*
X716615Y393944D01*
X716382Y395114D01*
X715719Y396106D01*
X694663Y417163D01*
X693671Y417826D01*
X692500Y418059D01*
X692500Y418059D01*
X686470D01*
X686105Y418605D01*
X684451Y419710D01*
X682500Y420098D01*
X680549Y419710D01*
X678895Y418605D01*
X677790Y416951D01*
X677402Y415000D01*
X677790Y413049D01*
X678895Y411395D01*
X680549Y410290D01*
X682500Y409902D01*
X684451Y410290D01*
X686105Y411395D01*
X686470Y411941D01*
X691233D01*
X710498Y392677D01*
Y375428D01*
X709324Y374942D01*
X705694Y378573D01*
X704546Y379048D01*
X703398Y378573D01*
X696680Y371855D01*
X696205Y370707D01*
X696680Y369559D01*
X700879Y365361D01*
Y361827D01*
X689045Y349993D01*
X687184Y351855D01*
X686036Y352331D01*
X684887Y351855D01*
X681346Y348314D01*
X668873D01*
X664173Y353013D01*
X664659Y354186D01*
X667071D01*
X668339Y354439D01*
X669414Y355157D01*
X670201Y355944D01*
X671036Y355598D01*
X672184Y356074D01*
X675296Y359186D01*
X679368D01*
X680636Y359439D01*
X681711Y360157D01*
X683644Y362089D01*
X684306Y361427D01*
X685454Y360952D01*
X686602Y361427D01*
X693320Y368145D01*
X693795Y369293D01*
X693320Y370441D01*
X687309Y376451D01*
X686161Y376927D01*
X685013Y376451D01*
X683059Y374497D01*
X681982Y375217D01*
X682462Y376375D01*
X682737Y378464D01*
X682462Y380552D01*
X681656Y382498D01*
X680374Y384169D01*
X678703Y385452D01*
X676757Y386258D01*
X674668Y386533D01*
X672580Y386258D01*
X670634Y385452D01*
X668963Y384169D01*
X667680Y382498D01*
X666874Y380552D01*
X666599Y378464D01*
X666874Y376375D01*
X667680Y374429D01*
X668963Y372758D01*
X670634Y371476D01*
X672580Y370670D01*
X674668Y370395D01*
X676757Y370670D01*
X677915Y371149D01*
X678635Y370073D01*
X678296Y369734D01*
X677820Y368586D01*
X678296Y367438D01*
X678958Y366776D01*
X677996Y365814D01*
X673225D01*
X672184Y366855D01*
X671036Y367331D01*
X669887Y366855D01*
X665645Y362612D01*
X665169Y361465D01*
X664734Y360814D01*
X641892D01*
X640976Y362084D01*
X641059Y362500D01*
X640826Y363671D01*
X640163Y364663D01*
Y365337D01*
X640826Y366329D01*
X641059Y367500D01*
X640826Y368671D01*
X640163Y369663D01*
Y370337D01*
X640826Y371329D01*
X641059Y372500D01*
X640976Y372916D01*
X641892Y374186D01*
X645000D01*
X646268Y374439D01*
X647343Y375157D01*
X655630Y383444D01*
X656464Y383098D01*
X657613Y383574D01*
X661855Y387816D01*
X662331Y388965D01*
X661855Y390112D01*
X657613Y394355D01*
X656464Y394831D01*
X655316Y394355D01*
X651074Y390112D01*
X650598Y388965D01*
X650944Y388130D01*
X643627Y380814D01*
X630500D01*
X629232Y380561D01*
X629228Y380559D01*
X623000D01*
X621829Y380326D01*
X620837Y379663D01*
X620174Y378671D01*
X619941Y377500D01*
X620174Y376329D01*
X620443Y375927D01*
X620837Y374663D01*
X620174Y373671D01*
X619941Y372500D01*
X620174Y371329D01*
X620837Y370337D01*
Y369663D01*
X620174Y368671D01*
X619941Y367500D01*
X620174Y366329D01*
X620837Y365337D01*
Y364663D01*
X620174Y363671D01*
X619941Y362500D01*
X620174Y361329D01*
X620837Y360337D01*
Y359663D01*
X620174Y358671D01*
X619941Y357500D01*
X620174Y356329D01*
X620837Y355337D01*
Y354663D01*
X620174Y353671D01*
X619941Y352500D01*
X620174Y351329D01*
X620837Y350337D01*
Y349663D01*
X620174Y348671D01*
X620154Y348572D01*
X618806Y348303D01*
X618605Y348605D01*
X616951Y349710D01*
X615000Y350098D01*
X613049Y349710D01*
X611395Y348605D01*
X610290Y346951D01*
X609902Y345000D01*
X609970Y344657D01*
X600157Y334843D01*
X599439Y333768D01*
X599186Y332500D01*
Y295892D01*
X597916Y294976D01*
X597500Y295059D01*
X596329Y294826D01*
X595337Y294163D01*
X594663D01*
X593671Y294826D01*
X592500Y295059D01*
X591329Y294826D01*
X590337Y294163D01*
X589073Y294557D01*
X588671Y294826D01*
X587500Y295059D01*
X586329Y294826D01*
X585337Y294163D01*
X584663D01*
X583671Y294826D01*
X582500Y295059D01*
X581329Y294826D01*
X580337Y294163D01*
X579663D01*
X578671Y294826D01*
X577500Y295059D01*
X576329Y294826D01*
X575337Y294163D01*
X574663D01*
X573671Y294826D01*
X572500Y295059D01*
X571329Y294826D01*
X570337Y294163D01*
X569663D01*
X568671Y294826D01*
X567500Y295059D01*
X567084Y294976D01*
X566221Y294992D01*
X565638Y295885D01*
X565561Y296268D01*
X564843Y297343D01*
X562343Y299843D01*
X561268Y300561D01*
X560000Y300814D01*
X558938D01*
X558452Y301987D01*
X574483Y318017D01*
X575090Y318927D01*
X575204Y319496D01*
X575384Y319616D01*
X576268Y320939D01*
X576578Y322500D01*
X576268Y324061D01*
X575384Y325384D01*
X574061Y326268D01*
X572500Y326578D01*
X570939Y326268D01*
X569963Y325615D01*
X568849Y326348D01*
X569078Y327500D01*
X568768Y329061D01*
X567884Y330384D01*
X566561Y331268D01*
X565000Y331578D01*
X563439Y331268D01*
X562116Y330384D01*
X562063Y330304D01*
X560000D01*
X558927Y330090D01*
X558017Y329483D01*
X552767Y324233D01*
X552160Y323323D01*
X552035Y322698D01*
X550725Y322373D01*
X550384Y322884D01*
X549061Y323768D01*
X547500Y324078D01*
X545939Y323768D01*
X544616Y322884D01*
X543732Y321561D01*
X543482Y320304D01*
X530668D01*
X530336Y320708D01*
X529874Y321574D01*
X530059Y322500D01*
X529826Y323671D01*
X529557Y324073D01*
X529163Y325337D01*
X529826Y326329D01*
X530059Y327500D01*
X529826Y328671D01*
X529163Y329663D01*
Y330337D01*
X529826Y331329D01*
X530059Y332500D01*
X529826Y333671D01*
X529163Y334663D01*
Y335337D01*
X529826Y336329D01*
X530059Y337500D01*
X529826Y338671D01*
X529163Y339663D01*
X529557Y340927D01*
X529826Y341329D01*
X530059Y342500D01*
X529826Y343671D01*
X529163Y344663D01*
Y345337D01*
X529826Y346329D01*
X530059Y347500D01*
X529826Y348671D01*
X529163Y349663D01*
Y350337D01*
X529826Y351329D01*
X530059Y352500D01*
X529826Y353671D01*
X529163Y354663D01*
Y355337D01*
X529826Y356329D01*
X530059Y357500D01*
X529826Y358671D01*
X529610Y358993D01*
X529703Y359141D01*
X531216Y359164D01*
X531395Y358895D01*
X533049Y357790D01*
X535000Y357402D01*
X536951Y357790D01*
X538605Y358895D01*
X539710Y360549D01*
X540098Y362500D01*
X539710Y364451D01*
X538605Y366105D01*
X536951Y367210D01*
X535000Y367598D01*
X533049Y367210D01*
X531395Y366105D01*
X531216Y365836D01*
X529703Y365859D01*
X529610Y366007D01*
X529826Y366329D01*
X530059Y367500D01*
X529826Y368671D01*
X529163Y369663D01*
Y370337D01*
X529826Y371329D01*
X530059Y372500D01*
X529826Y373671D01*
X529163Y374663D01*
X529557Y375927D01*
X529826Y376329D01*
X530059Y377500D01*
X529826Y378671D01*
X529163Y379663D01*
X528171Y380326D01*
X527000Y380559D01*
X520772D01*
X520768Y380561D01*
X519500Y380814D01*
X513872D01*
X513314Y381372D01*
Y390506D01*
X514148Y390852D01*
X514624Y392000D01*
Y392510D01*
X514843Y392657D01*
X519843Y397657D01*
X520561Y398732D01*
X520814Y400000D01*
Y412841D01*
X521987Y413327D01*
X524970Y410343D01*
X524902Y410000D01*
X525290Y408049D01*
X526395Y406395D01*
X528049Y405290D01*
X530000Y404902D01*
X531951Y405290D01*
X533102Y406059D01*
X534245Y405296D01*
X534186Y405000D01*
Y395500D01*
X534439Y394232D01*
X534441Y394228D01*
Y388000D01*
X534674Y386829D01*
X535337Y385837D01*
X536329Y385174D01*
X537500Y384941D01*
X538171Y385075D01*
X538808Y385037D01*
X539588Y384260D01*
X539674Y383829D01*
X540337Y382837D01*
X551233Y371941D01*
X551482Y370689D01*
X552366Y369366D01*
X553689Y368482D01*
X555250Y368172D01*
X556811Y368482D01*
X558134Y369366D01*
X558570Y370019D01*
X560085Y370038D01*
X560366Y369616D01*
X561689Y368732D01*
X563250Y368422D01*
X564811Y368732D01*
X566134Y369616D01*
X567018Y370939D01*
X567328Y372500D01*
X567018Y374061D01*
X566134Y375384D01*
X564811Y376268D01*
X563559Y376517D01*
X556164Y383912D01*
X556772Y385050D01*
X556829Y385075D01*
X557500Y384941D01*
X558671Y385174D01*
X559663Y385837D01*
X560337D01*
X561329Y385174D01*
X562500Y384941D01*
X563671Y385174D01*
X564663Y385837D01*
X565337D01*
X566329Y385174D01*
X567500Y384941D01*
X568671Y385174D01*
X569663Y385837D01*
X570337D01*
X571329Y385174D01*
X572500Y384941D01*
X573671Y385174D01*
X574073Y385443D01*
X575337Y385837D01*
X576329Y385174D01*
X577500Y384941D01*
X578671Y385174D01*
X579663Y385837D01*
X580337D01*
X581329Y385174D01*
X582500Y384941D01*
X583671Y385174D01*
X584073Y385443D01*
X585337Y385837D01*
X586329Y385174D01*
X587500Y384941D01*
X588671Y385174D01*
X589663Y385837D01*
X590337D01*
X591329Y385174D01*
X592500Y384941D01*
X593671Y385174D01*
X594663Y385837D01*
X595337D01*
X596329Y385174D01*
X597500Y384941D01*
X598671Y385174D01*
X599663Y385837D01*
X600337D01*
X601329Y385174D01*
X602500Y384941D01*
X603671Y385174D01*
X604663Y385837D01*
X605326Y386829D01*
X605559Y388000D01*
Y394228D01*
X605561Y394232D01*
X605814Y395500D01*
Y403627D01*
X606873Y404686D01*
X608607D01*
X609524Y403416D01*
X609441Y403000D01*
Y395098D01*
X609422Y395000D01*
X609441Y394902D01*
Y388000D01*
X609674Y386829D01*
X610337Y385837D01*
X611329Y385174D01*
X612500Y384941D01*
X613671Y385174D01*
X614663Y385837D01*
X615326Y386829D01*
X615559Y388000D01*
Y390000D01*
X616474Y390880D01*
X616798Y390868D01*
X617580Y389893D01*
X617402Y389000D01*
X617790Y387049D01*
X618895Y385395D01*
X620549Y384290D01*
X622500Y383902D01*
X624451Y384290D01*
X626105Y385395D01*
X627210Y387049D01*
X627598Y389000D01*
X627210Y390951D01*
X626888Y391432D01*
X627124Y392000D01*
Y398000D01*
X626648Y399148D01*
X625500Y399624D01*
X619500D01*
X618352Y399148D01*
X618323Y399078D01*
X615559D01*
Y403000D01*
X615476Y403416D01*
X616392Y404686D01*
X624964D01*
X625290Y403049D01*
X626395Y401395D01*
X628049Y400290D01*
X630000Y399902D01*
X631951Y400290D01*
X633605Y401395D01*
X633799Y401686D01*
X640000D01*
X641268Y401939D01*
X642343Y402657D01*
X663873Y424186D01*
X931127D01*
X957657Y397657D01*
X958732Y396939D01*
X960000Y396686D01*
X1173627D01*
X1221907Y348407D01*
X1222982Y347689D01*
X1224250Y347436D01*
X1250750D01*
X1252018Y347689D01*
X1253093Y348407D01*
X1257157Y352470D01*
X1257500Y352402D01*
X1259451Y352790D01*
X1261105Y353895D01*
X1262210Y355549D01*
X1262598Y357500D01*
X1262210Y359451D01*
X1261105Y361105D01*
X1259451Y362210D01*
X1257500Y362598D01*
X1255549Y362210D01*
X1253895Y361105D01*
X1252790Y359451D01*
X1252402Y357500D01*
X1252470Y357157D01*
X1249377Y354064D01*
X1232564D01*
X1231966Y355184D01*
X1232210Y355549D01*
X1232598Y357500D01*
X1232210Y359451D01*
X1231105Y361105D01*
X1229451Y362210D01*
X1227500Y362598D01*
X1227157Y362530D01*
X1182343Y407343D01*
X1181268Y408061D01*
X1180000Y408314D01*
X963873D01*
X934843Y437343D01*
X933768Y438061D01*
X932500Y438314D01*
X660000D01*
X658732Y438061D01*
X657657Y437343D01*
X637843Y417530D01*
X637500Y417598D01*
X635549Y417210D01*
X634208Y416314D01*
X623125D01*
X622937Y417584D01*
X626435Y418645D01*
X629953Y420525D01*
X633037Y423056D01*
X635567Y426139D01*
X637448Y429657D01*
X638605Y433474D01*
X638996Y437444D01*
X638605Y441414D01*
X637448Y445231D01*
X635567Y448749D01*
X633037Y451832D01*
X629953Y454363D01*
X626435Y456243D01*
X622618Y457401D01*
X618648Y457792D01*
X614679Y457401D01*
X610862Y456243D01*
X607344Y454363D01*
X604260Y451832D01*
X602084Y449180D01*
X600814Y449634D01*
Y451201D01*
X601105Y451395D01*
X602210Y453049D01*
X602598Y455000D01*
X602210Y456951D01*
X601105Y458605D01*
X599451Y459710D01*
X598818Y459836D01*
X598400Y461214D01*
X601373Y464186D01*
X635586D01*
X636212Y462916D01*
X635539Y462039D01*
X634632Y459850D01*
X634322Y457500D01*
X634632Y455150D01*
X635539Y452961D01*
X636981Y451081D01*
X638861Y449638D01*
X641050Y448732D01*
X643400Y448422D01*
X645750Y448732D01*
X647939Y449638D01*
X649819Y451081D01*
X651262Y452961D01*
X652168Y455150D01*
X652478Y457500D01*
X652168Y459850D01*
X651262Y462039D01*
X649819Y463919D01*
X647939Y465362D01*
X646714Y465869D01*
Y467500D01*
X646631Y467916D01*
X647593Y469186D01*
X652428D01*
X660539Y461075D01*
X660032Y459850D01*
X659722Y457500D01*
X660032Y455150D01*
X660939Y452961D01*
X662381Y451081D01*
X664261Y449638D01*
X666451Y448732D01*
X668800Y448422D01*
X671150Y448732D01*
X673339Y449638D01*
X675219Y451081D01*
X676662Y452961D01*
X677568Y455150D01*
X677878Y457500D01*
X677568Y459850D01*
X676662Y462039D01*
X675219Y463919D01*
X673339Y465362D01*
X671150Y466268D01*
X668800Y466578D01*
X666451Y466268D01*
X665225Y465761D01*
X656143Y474843D01*
X655068Y475561D01*
X653800Y475814D01*
X522500D01*
X521232Y475561D01*
X520157Y474843D01*
X490157Y444843D01*
X489439Y443768D01*
X489186Y442500D01*
Y372500D01*
X489439Y371232D01*
X490157Y370157D01*
X495157Y365157D01*
X496232Y364439D01*
X497500Y364186D01*
X508108D01*
X509024Y362916D01*
X508941Y362500D01*
X509174Y361329D01*
X509837Y360337D01*
Y359663D01*
X509174Y358671D01*
X508941Y357500D01*
X509174Y356329D01*
X509837Y355337D01*
Y354663D01*
X509174Y353671D01*
X508941Y352500D01*
X509174Y351329D01*
X509698Y350545D01*
X509277Y349300D01*
X508067Y349119D01*
X499843Y357343D01*
X498768Y358061D01*
X497500Y358314D01*
X366994D01*
X366648Y359148D01*
X365500Y359624D01*
X359500D01*
X358352Y359148D01*
X358187Y358751D01*
X356813D01*
X356648Y359148D01*
X355500Y359624D01*
X349500D01*
X348352Y359148D01*
X348006Y358314D01*
X312500D01*
X311232Y358061D01*
X310157Y357343D01*
X296440Y343626D01*
X295237Y344219D01*
X295411Y345539D01*
X295136Y347628D01*
X294330Y349574D01*
X293047Y351245D01*
X291376Y352527D01*
X289430Y353333D01*
X287342Y353608D01*
X285253Y353333D01*
X283307Y352527D01*
X281636Y351245D01*
X280354Y349574D01*
X279548Y347628D01*
X279273Y345539D01*
X279548Y343451D01*
X280354Y341505D01*
X281636Y339834D01*
X283307Y338551D01*
X285253Y337745D01*
X287342Y337470D01*
X288662Y337644D01*
X289255Y336441D01*
X97331Y144517D01*
X96128Y145111D01*
X96302Y146431D01*
X96027Y148519D01*
X95221Y150465D01*
X93939Y152136D01*
X92268Y153419D01*
X90322Y154225D01*
X88233Y154500D01*
X86145Y154225D01*
X84199Y153419D01*
X82528Y152136D01*
X81245Y150465D01*
X80439Y148519D01*
X80164Y146431D01*
X80439Y144342D01*
X81245Y142396D01*
X82528Y140725D01*
X84199Y139443D01*
X86145Y138637D01*
X88233Y138362D01*
X89553Y138535D01*
X90146Y137332D01*
X85257Y132443D01*
X84539Y131368D01*
X84286Y130100D01*
Y-932D01*
X83600D01*
X83437Y-1000D01*
X79263D01*
X79100Y-932D01*
X71100D01*
X69952Y-1408D01*
X69476Y-2556D01*
Y-4207D01*
X69422Y-4278D01*
X68767Y-5859D01*
X68544Y-7556D01*
X68767Y-9253D01*
X69422Y-10834D01*
X69476Y-10905D01*
Y-12556D01*
X69952Y-13704D01*
X71100Y-14180D01*
X79100D01*
X79263Y-14112D01*
X83437D01*
X83600Y-14180D01*
X91600D01*
X92748Y-13704D01*
X93224Y-12556D01*
Y-10905D01*
X93278Y-10834D01*
X93933Y-9253D01*
X94156Y-7556D01*
X93933Y-5859D01*
X93278Y-4278D01*
X93224Y-4207D01*
Y-2556D01*
X92748Y-1408D01*
X91600Y-932D01*
X90914D01*
Y128727D01*
X313873Y351686D01*
X348006D01*
X348352Y350852D01*
X348749Y350687D01*
Y349313D01*
X348352Y349148D01*
X347901Y348059D01*
X345000D01*
X345000Y348059D01*
X343829Y347826D01*
X342837Y347163D01*
X342837Y347163D01*
X338937Y343263D01*
X338274Y342270D01*
X338041Y341100D01*
X338041Y341100D01*
Y332993D01*
X336771Y332608D01*
X336105Y333605D01*
X334451Y334710D01*
X332500Y335098D01*
X330549Y334710D01*
X328895Y333605D01*
X327790Y331951D01*
X327402Y330000D01*
X327790Y328049D01*
X328895Y326395D01*
X330549Y325290D01*
X332500Y324902D01*
X334451Y325290D01*
X336105Y326395D01*
X336771Y327392D01*
X338041Y327007D01*
Y311068D01*
X337100D01*
X335952Y310592D01*
X335476Y309444D01*
Y299444D01*
X335507Y299370D01*
X334801Y298314D01*
X272500D01*
X271232Y298061D01*
X270157Y297343D01*
X255157Y282343D01*
X254439Y281268D01*
X254186Y280000D01*
Y279605D01*
X254169Y279517D01*
Y273886D01*
X250746Y270463D01*
X250678Y270300D01*
X247727Y267348D01*
X247564Y267281D01*
X241907Y261624D01*
X241431Y260476D01*
X241907Y259328D01*
X241021Y258442D01*
X239873Y258918D01*
X238725Y258442D01*
X233068Y252785D01*
X232592Y251637D01*
X233068Y250489D01*
X240139Y243418D01*
X241287Y242943D01*
X242435Y243418D01*
X248092Y249075D01*
X248568Y250223D01*
X248092Y251371D01*
X248978Y252257D01*
X250126Y251781D01*
X251274Y252257D01*
X256931Y257914D01*
X256998Y258077D01*
X259950Y261028D01*
X260113Y261096D01*
X265770Y266752D01*
X266245Y267901D01*
X265770Y269049D01*
X264602Y270216D01*
X264590Y270305D01*
X263935Y271886D01*
X262894Y273244D01*
X261536Y274285D01*
X260796Y274592D01*
Y278610D01*
X273873Y291686D01*
X296168D01*
X296694Y290416D01*
X217739Y211461D01*
X217131Y210551D01*
X216917Y209478D01*
Y144478D01*
X216917Y144478D01*
X216904D01*
X217171Y142455D01*
X217952Y140570D01*
X219194Y138951D01*
X220813Y137709D01*
X222698Y136928D01*
X224721Y136661D01*
Y136674D01*
X394721D01*
X394721Y136674D01*
Y136661D01*
X396744Y136928D01*
X398630Y137709D01*
X400249Y138951D01*
X401491Y140570D01*
X402272Y142455D01*
X402538Y144478D01*
X402525D01*
Y284478D01*
X402525Y284478D01*
X402538D01*
X402272Y286501D01*
X401491Y288387D01*
X400249Y290006D01*
X399713Y290416D01*
X400145Y291686D01*
X406006D01*
X406352Y290852D01*
X407500Y290376D01*
X422500D01*
X423648Y290852D01*
X424124Y292000D01*
Y294186D01*
X433006D01*
X433352Y293352D01*
X434500Y292876D01*
X440500D01*
X441648Y293352D01*
X441813Y293749D01*
X443187D01*
X443352Y293352D01*
X444500Y292876D01*
X450500D01*
X451648Y293352D01*
X451994Y294186D01*
X482756D01*
X483435Y292916D01*
X482790Y291951D01*
X482402Y290000D01*
X482790Y288049D01*
X483895Y286395D01*
X485549Y285290D01*
X487500Y284902D01*
X489451Y285290D01*
X491105Y286395D01*
X492210Y288049D01*
X492598Y290000D01*
X492210Y291951D01*
X491565Y292916D01*
X492244Y294186D01*
X533825D01*
X534151Y293797D01*
X534623Y292916D01*
X534441Y292000D01*
Y284500D01*
Y272099D01*
X533352Y271648D01*
X533323Y271578D01*
X531677D01*
X531648Y271648D01*
X530500Y272124D01*
X524500D01*
X523352Y271648D01*
X523323Y271578D01*
X502500D01*
X500939Y271268D01*
X499616Y270384D01*
X499616Y270384D01*
X490811Y261578D01*
X487350D01*
X486919Y262848D01*
X488126Y263775D01*
X489409Y265446D01*
X490215Y267392D01*
X490490Y269481D01*
X490215Y271569D01*
X489409Y273515D01*
X488126Y275186D01*
X486455Y276469D01*
X484509Y277275D01*
X482421Y277550D01*
X480332Y277275D01*
X478386Y276469D01*
X476715Y275186D01*
X475433Y273515D01*
X474627Y271569D01*
X474352Y269481D01*
X474627Y267392D01*
X475433Y265446D01*
X476715Y263775D01*
X478386Y262493D01*
X478774Y262332D01*
X478803Y262040D01*
X478792Y260950D01*
X477790Y259451D01*
X477402Y257500D01*
X477790Y255549D01*
X478895Y253895D01*
X480549Y252790D01*
X482500Y252402D01*
X484451Y252790D01*
X485396Y253422D01*
X492500D01*
X492500Y253422D01*
X494061Y253732D01*
X495384Y254616D01*
X504189Y263422D01*
X523323D01*
X523352Y263352D01*
X524500Y262876D01*
X530500D01*
X531648Y263352D01*
X531677Y263422D01*
X533323D01*
X533352Y263352D01*
X534500Y262876D01*
X540500D01*
X541648Y263352D01*
X541813Y263749D01*
X543187D01*
X543352Y263352D01*
X544500Y262876D01*
X550500D01*
X551648Y263352D01*
X551813Y263749D01*
X553187D01*
X553352Y263352D01*
X554500Y262876D01*
X560500D01*
X561648Y263352D01*
X562124Y264500D01*
Y270500D01*
X561648Y271648D01*
X560559Y272099D01*
Y273278D01*
X561829Y274075D01*
X562500Y273941D01*
X563426Y274125D01*
X564292Y273664D01*
X564696Y273332D01*
Y252124D01*
X564500D01*
X563352Y251648D01*
X563187Y251251D01*
X561813D01*
X561648Y251648D01*
X560500Y252124D01*
X554500D01*
X553352Y251648D01*
X552876Y250500D01*
Y244500D01*
X553352Y243352D01*
X553749Y243187D01*
Y241813D01*
X553352Y241648D01*
X552876Y240500D01*
Y234500D01*
X553352Y233352D01*
X554500Y232876D01*
X557243D01*
X557766Y231606D01*
X557410Y231073D01*
X557196Y230000D01*
Y222937D01*
X557116Y222884D01*
X556232Y221561D01*
X555922Y220000D01*
X556232Y218439D01*
X557116Y217116D01*
X558439Y216232D01*
X560000Y215922D01*
X561561Y216232D01*
X562884Y217116D01*
X563768Y218439D01*
X564078Y220000D01*
X563768Y221561D01*
X562884Y222884D01*
X562804Y222937D01*
Y228839D01*
X566448Y232483D01*
X566987Y232440D01*
X567294Y232213D01*
X567864Y231122D01*
X567692Y230667D01*
X566802Y230298D01*
X566326Y229150D01*
Y220850D01*
X566802Y219702D01*
X567950Y219226D01*
X569696D01*
Y217124D01*
X569500D01*
X568352Y216648D01*
X567876Y215500D01*
Y211842D01*
X563158Y207124D01*
X559500D01*
X558352Y206648D01*
X557876Y205500D01*
Y199500D01*
X558352Y198352D01*
X559500Y197876D01*
X565500D01*
X566648Y198352D01*
X566813Y198749D01*
X568187D01*
X568352Y198352D01*
X569500Y197876D01*
X575500D01*
X576648Y198352D01*
X577124Y199500D01*
Y199696D01*
X603839D01*
X627424Y176111D01*
X628333Y175504D01*
X629406Y175290D01*
X702439D01*
X706700Y171028D01*
X705982Y169293D01*
X705672Y166944D01*
X705982Y164594D01*
X706889Y162405D01*
X708331Y160525D01*
X710211Y159082D01*
X712401Y158176D01*
X714750Y157866D01*
X717100Y158176D01*
X718579Y158789D01*
X730850Y146518D01*
X730324Y145248D01*
X455403D01*
X455403Y145248D01*
X454330Y145034D01*
X453836Y144805D01*
Y144805D01*
X452044Y143658D01*
X431656Y129448D01*
X411841Y114449D01*
X392631Y98684D01*
X374054Y82176D01*
X356140Y64952D01*
X338916Y47038D01*
X322409Y28461D01*
X306643Y9251D01*
X302744Y4100D01*
X302219Y3406D01*
X302194Y3389D01*
X301982Y3093D01*
X301170Y2153D01*
X297086Y-2504D01*
X291456Y-7441D01*
X285230Y-11602D01*
X278514Y-14913D01*
X271424Y-17320D01*
X264079Y-18781D01*
X256794Y-19259D01*
X256607Y-19222D01*
X57387D01*
Y-19176D01*
X50350Y-19572D01*
X43402Y-20752D01*
X36630Y-22703D01*
X30118Y-25401D01*
X23950Y-28810D01*
X21461Y-30575D01*
X21382Y-30562D01*
X21382Y-30562D01*
X21382Y-30562D01*
X16954Y-33275D01*
X11540Y-35517D01*
X5842Y-36885D01*
X0Y-37345D01*
X-5842Y-36885D01*
X-11540Y-35517D01*
X-16954Y-33275D01*
X-21951Y-30213D01*
X-26407Y-26407D01*
X-30213Y-21951D01*
X-33275Y-16954D01*
X-35517Y-11540D01*
X-36885Y-5842D01*
X-37333Y-151D01*
X-37303Y0D01*
Y31219D01*
X-36944Y31978D01*
X-22931Y59260D01*
X-8033Y86068D01*
X7735Y112375D01*
X24355Y138151D01*
X41809Y163370D01*
X60079Y188005D01*
X79146Y212028D01*
X98988Y235415D01*
X119585Y258140D01*
X140914Y280179D01*
X162953Y301508D01*
X185678Y322105D01*
X209064Y341947D01*
X233088Y361013D01*
X257722Y379283D01*
X282941Y396738D01*
X301122Y408460D01*
X301134Y408457D01*
X301134Y408457D01*
X302797Y409569D01*
X308337Y412301D01*
X314187Y414286D01*
X320245Y415491D01*
X326409Y415895D01*
X332573Y415491D01*
X338632Y414286D01*
X344481Y412301D01*
X349120Y410013D01*
X350217Y409375D01*
X350466Y409209D01*
X351339Y408778D01*
X356668Y406151D01*
X363215Y403928D01*
X369997Y402579D01*
X376897Y402127D01*
X383797Y402579D01*
X390579Y403928D01*
X397127Y406151D01*
X403329Y409209D01*
X409078Y413051D01*
X414277Y417610D01*
X418837Y422809D01*
X422678Y428559D01*
X425737Y434760D01*
X427959Y441308D01*
X429308Y448090D01*
X429414Y449699D01*
X429489Y449763D01*
X429488D01*
X429587Y451263D01*
X430792Y457322D01*
X432778Y463171D01*
X435510Y468711D01*
X438942Y473847D01*
X443014Y478492D01*
X447659Y482565D01*
X452795Y485996D01*
X457880Y488504D01*
X459081Y488921D01*
X460262Y489388D01*
X473503Y494620D01*
X502380Y504953D01*
X531580Y514335D01*
X561071Y522756D01*
X590822Y530209D01*
X620800Y536683D01*
X650975Y542174D01*
X681313Y546674D01*
X711782Y550179D01*
X742349Y552686D01*
X772983Y554191D01*
X803405Y554688D01*
X803649Y554640D01*
X803892Y554688D01*
X834314Y554191D01*
D02*
G37*
%LPC*%
G36*
X696850Y201467D02*
X681850D01*
X680702Y200992D01*
X680226Y199844D01*
Y195964D01*
X678956Y195579D01*
X678605Y196105D01*
X676951Y197210D01*
X675000Y197598D01*
X673049Y197210D01*
X671395Y196105D01*
X670290Y194451D01*
X669902Y192500D01*
X670290Y190549D01*
X671395Y188895D01*
X673049Y187790D01*
X675000Y187402D01*
X676951Y187790D01*
X678605Y188895D01*
X678956Y189421D01*
X680226Y189036D01*
Y184844D01*
X680702Y183696D01*
X681850Y183220D01*
X696850D01*
X697998Y183696D01*
X698474Y184844D01*
Y199844D01*
X697998Y200992D01*
X696850Y201467D01*
D02*
G37*
G36*
X714750Y201422D02*
X712401Y201112D01*
X710211Y200205D01*
X708331Y198763D01*
X706889Y196883D01*
X705982Y194693D01*
X705672Y192344D01*
X705982Y189994D01*
X706889Y187805D01*
X708331Y185925D01*
X710211Y184482D01*
X712401Y183576D01*
X714750Y183266D01*
X717100Y183576D01*
X719289Y184482D01*
X721169Y185925D01*
X722611Y187805D01*
X723518Y189994D01*
X723828Y192344D01*
X723518Y194693D01*
X722611Y196883D01*
X721169Y198763D01*
X719289Y200205D01*
X717100Y201112D01*
X714750Y201422D01*
D02*
G37*
G36*
X740150Y201422D02*
X737801Y201112D01*
X735611Y200205D01*
X733731Y198763D01*
X732289Y196883D01*
X731382Y194693D01*
X731072Y192344D01*
X731382Y189994D01*
X732289Y187805D01*
X733731Y185925D01*
X735611Y184482D01*
X737801Y183576D01*
X740150Y183266D01*
X742499Y183576D01*
X744689Y184482D01*
X746569Y185925D01*
X748011Y187805D01*
X748918Y189994D01*
X749228Y192344D01*
X748918Y194693D01*
X748011Y196883D01*
X746569Y198763D01*
X744689Y200205D01*
X742499Y201112D01*
X740150Y201422D01*
D02*
G37*
G36*
X816350Y201422D02*
X814000Y201112D01*
X811811Y200205D01*
X809931Y198763D01*
X808489Y196883D01*
X807582Y194693D01*
X807272Y192344D01*
X807582Y189994D01*
X808489Y187805D01*
X809931Y185925D01*
X811811Y184482D01*
X814000Y183576D01*
X816350Y183266D01*
X818699Y183576D01*
X820889Y184482D01*
X822769Y185925D01*
X824212Y187805D01*
X825118Y189994D01*
X825428Y192344D01*
X825118Y194693D01*
X824212Y196883D01*
X822769Y198763D01*
X820889Y200205D01*
X818699Y201112D01*
X816350Y201422D01*
D02*
G37*
G36*
X790950D02*
X788600Y201112D01*
X786411Y200205D01*
X784531Y198763D01*
X783089Y196883D01*
X782182Y194693D01*
X781872Y192344D01*
X782182Y189994D01*
X783089Y187805D01*
X784531Y185925D01*
X786411Y184482D01*
X788600Y183576D01*
X790950Y183266D01*
X793299Y183576D01*
X795489Y184482D01*
X797369Y185925D01*
X798811Y187805D01*
X799718Y189994D01*
X800028Y192344D01*
X799718Y194693D01*
X798811Y196883D01*
X797369Y198763D01*
X795489Y200205D01*
X793299Y201112D01*
X790950Y201422D01*
D02*
G37*
G36*
X752849Y265443D02*
X750468Y265129D01*
X748249Y264210D01*
X746344Y262748D01*
X744882Y260843D01*
X743963Y258625D01*
X743650Y256244D01*
X743963Y253863D01*
X744882Y251645D01*
X746344Y249739D01*
X748249Y248278D01*
X750468Y247359D01*
X752849Y247045D01*
X755229Y247359D01*
X757448Y248278D01*
X759353Y249739D01*
X760815Y251645D01*
X761734Y253863D01*
X762047Y256244D01*
X761734Y258625D01*
X760815Y260843D01*
X759353Y262748D01*
X757448Y264210D01*
X755229Y265129D01*
X752849Y265443D01*
D02*
G37*
G36*
X696348Y245513D02*
X694260Y245238D01*
X692314Y244432D01*
X690643Y243150D01*
X689361Y241478D01*
X688554Y239532D01*
X688279Y237444D01*
X688554Y235355D01*
X689361Y233409D01*
X690643Y231738D01*
X692314Y230456D01*
X694260Y229650D01*
X696348Y229375D01*
X698437Y229650D01*
X700383Y230456D01*
X702054Y231738D01*
X703336Y233409D01*
X704143Y235355D01*
X704417Y237444D01*
X704143Y239532D01*
X703336Y241478D01*
X702054Y243150D01*
X700383Y244432D01*
X698437Y245238D01*
X696348Y245513D01*
D02*
G37*
G36*
X670948D02*
X668860Y245238D01*
X666914Y244432D01*
X665243Y243150D01*
X663960Y241478D01*
X663154Y239532D01*
X662879Y237444D01*
X663154Y235355D01*
X663960Y233409D01*
X665243Y231738D01*
X666914Y230456D01*
X668860Y229650D01*
X670948Y229375D01*
X673037Y229650D01*
X674983Y230456D01*
X676654Y231738D01*
X677936Y233409D01*
X678743Y235355D01*
X679017Y237444D01*
X678743Y239532D01*
X677936Y241478D01*
X676654Y243150D01*
X674983Y244432D01*
X673037Y245238D01*
X670948Y245513D01*
D02*
G37*
G36*
X816350Y176021D02*
X814000Y175712D01*
X811811Y174805D01*
X809931Y173363D01*
X808489Y171483D01*
X807582Y169293D01*
X807272Y166944D01*
X807582Y164594D01*
X808489Y162405D01*
X809931Y160525D01*
X811811Y159082D01*
X814000Y158176D01*
X816350Y157866D01*
X818699Y158176D01*
X820889Y159082D01*
X822769Y160525D01*
X824212Y162405D01*
X825118Y164594D01*
X825428Y166944D01*
X825118Y169293D01*
X824212Y171483D01*
X822769Y173363D01*
X820889Y174805D01*
X818699Y175712D01*
X816350Y176021D01*
D02*
G37*
G36*
X790950D02*
X788600Y175712D01*
X786411Y174805D01*
X784531Y173363D01*
X783089Y171483D01*
X782182Y169293D01*
X781872Y166944D01*
X782182Y164594D01*
X783089Y162405D01*
X784531Y160525D01*
X786411Y159082D01*
X788600Y158176D01*
X790950Y157866D01*
X793299Y158176D01*
X795489Y159082D01*
X797369Y160525D01*
X798811Y162405D01*
X799718Y164594D01*
X800028Y166944D01*
X799718Y169293D01*
X798811Y171483D01*
X797369Y173363D01*
X795489Y174805D01*
X793299Y175712D01*
X790950Y176021D01*
D02*
G37*
G36*
X765550D02*
X763201Y175712D01*
X761011Y174805D01*
X759131Y173363D01*
X757689Y171483D01*
X756782Y169293D01*
X756472Y166944D01*
X756782Y164594D01*
X757689Y162405D01*
X759131Y160525D01*
X761011Y159082D01*
X763201Y158176D01*
X765550Y157866D01*
X767899Y158176D01*
X770089Y159082D01*
X771969Y160525D01*
X773411Y162405D01*
X774318Y164594D01*
X774628Y166944D01*
X774318Y169293D01*
X773411Y171483D01*
X771969Y173363D01*
X770089Y174805D01*
X767899Y175712D01*
X765550Y176021D01*
D02*
G37*
G36*
X740150Y176022D02*
X737801Y175712D01*
X735611Y174805D01*
X733731Y173363D01*
X732289Y171483D01*
X731382Y169293D01*
X731072Y166944D01*
X731382Y164594D01*
X732289Y162405D01*
X733731Y160525D01*
X735611Y159082D01*
X737801Y158176D01*
X740150Y157866D01*
X742499Y158176D01*
X744689Y159082D01*
X746569Y160525D01*
X748011Y162405D01*
X748918Y164594D01*
X749228Y166944D01*
X748918Y169293D01*
X748011Y171483D01*
X746569Y173363D01*
X744689Y174805D01*
X742499Y175712D01*
X740150Y176022D01*
D02*
G37*
G36*
X457021Y222550D02*
X454932Y222275D01*
X452986Y221469D01*
X451315Y220186D01*
X450033Y218515D01*
X449227Y216569D01*
X448952Y214481D01*
X449227Y212392D01*
X450033Y210446D01*
X451315Y208775D01*
X452986Y207493D01*
X454932Y206687D01*
X457021Y206412D01*
X459109Y206687D01*
X461055Y207493D01*
X462726Y208775D01*
X464009Y210446D01*
X464815Y212392D01*
X465090Y214481D01*
X464815Y216569D01*
X464009Y218515D01*
X462726Y220186D01*
X461055Y221469D01*
X459109Y222275D01*
X457021Y222550D01*
D02*
G37*
G36*
X190000Y202598D02*
X188049Y202210D01*
X186395Y201105D01*
X185290Y199451D01*
X184902Y197500D01*
X185290Y195549D01*
X186395Y193895D01*
X188049Y192790D01*
X190000Y192402D01*
X191951Y192790D01*
X193605Y193895D01*
X194710Y195549D01*
X195098Y197500D01*
X194710Y199451D01*
X193605Y201105D01*
X191951Y202210D01*
X190000Y202598D01*
D02*
G37*
G36*
Y220098D02*
X188049Y219710D01*
X186395Y218605D01*
X185290Y216951D01*
X184902Y215000D01*
X185290Y213049D01*
X186395Y211395D01*
X188049Y210290D01*
X190000Y209902D01*
X191951Y210290D01*
X193605Y211395D01*
X194710Y213049D01*
X195098Y215000D01*
X194710Y216951D01*
X193605Y218605D01*
X191951Y219710D01*
X190000Y220098D01*
D02*
G37*
G36*
X482421Y222550D02*
X480332Y222275D01*
X478386Y221469D01*
X476715Y220186D01*
X475433Y218515D01*
X474627Y216569D01*
X474352Y214481D01*
X474627Y212392D01*
X475433Y210446D01*
X476715Y208775D01*
X478386Y207493D01*
X480332Y206687D01*
X482421Y206412D01*
X484509Y206687D01*
X486455Y207493D01*
X488126Y208775D01*
X489409Y210446D01*
X490215Y212392D01*
X490490Y214481D01*
X490215Y216569D01*
X489409Y218515D01*
X488126Y220186D01*
X486455Y221469D01*
X484509Y222275D01*
X482421Y222550D01*
D02*
G37*
G36*
X122118Y227691D02*
X120030Y227416D01*
X118084Y226609D01*
X116412Y225327D01*
X115130Y223656D01*
X114324Y221710D01*
X114049Y219622D01*
X114324Y217533D01*
X115130Y215587D01*
X116412Y213916D01*
X118084Y212633D01*
X120030Y211827D01*
X122118Y211552D01*
X124206Y211827D01*
X126153Y212633D01*
X127824Y213916D01*
X129106Y215587D01*
X129912Y217533D01*
X130187Y219622D01*
X129912Y221710D01*
X129106Y223656D01*
X127824Y225327D01*
X126153Y226609D01*
X124206Y227416D01*
X122118Y227691D01*
D02*
G37*
G36*
X542500Y182598D02*
X540549Y182210D01*
X538895Y181105D01*
X538264Y180160D01*
X536736D01*
X536105Y181105D01*
X534451Y182210D01*
X532500Y182598D01*
X530549Y182210D01*
X528895Y181105D01*
X527790Y179451D01*
X527402Y177500D01*
X527790Y175549D01*
X528895Y173895D01*
X529840Y173264D01*
Y171736D01*
X528895Y171105D01*
X527790Y169451D01*
X527402Y167500D01*
X527790Y165549D01*
X528895Y163895D01*
X530549Y162790D01*
X532500Y162402D01*
X534451Y162790D01*
X536105Y163895D01*
X536736Y164840D01*
X538264D01*
X538895Y163895D01*
X540549Y162790D01*
X542500Y162402D01*
X544451Y162790D01*
X546105Y163895D01*
X547210Y165549D01*
X547598Y167500D01*
X547210Y169451D01*
X546105Y171105D01*
X545160Y171736D01*
Y173264D01*
X546105Y173895D01*
X547210Y175549D01*
X547598Y177500D01*
X547210Y179451D01*
X546105Y181105D01*
X544451Y182210D01*
X542500Y182598D01*
D02*
G37*
G36*
X172500Y202598D02*
X170549Y202210D01*
X168895Y201105D01*
X167790Y199451D01*
X167402Y197500D01*
X167790Y195549D01*
X168895Y193895D01*
X170549Y192790D01*
X172500Y192402D01*
X174451Y192790D01*
X176105Y193895D01*
X177210Y195549D01*
X177598Y197500D01*
X177210Y199451D01*
X176105Y201105D01*
X174451Y202210D01*
X172500Y202598D01*
D02*
G37*
G36*
X410000Y260098D02*
X408049Y259710D01*
X406395Y258605D01*
X405290Y256951D01*
X404902Y255000D01*
X405290Y253049D01*
X406395Y251395D01*
X408049Y250290D01*
X410000Y249902D01*
X411951Y250290D01*
X413605Y251395D01*
X414710Y253049D01*
X415098Y255000D01*
X414710Y256951D01*
X413605Y258605D01*
X411951Y259710D01*
X410000Y260098D01*
D02*
G37*
G36*
X1032500Y252598D02*
X1030549Y252210D01*
X1028895Y251105D01*
X1027790Y249451D01*
X1027402Y247500D01*
X1027790Y245549D01*
X1028895Y243895D01*
X1030549Y242790D01*
X1032500Y242402D01*
X1034451Y242790D01*
X1036105Y243895D01*
X1037210Y245549D01*
X1037598Y247500D01*
X1037210Y249451D01*
X1036105Y251105D01*
X1034451Y252210D01*
X1032500Y252598D01*
D02*
G37*
G36*
X910948Y270513D02*
X908860Y270238D01*
X906914Y269432D01*
X905243Y268150D01*
X903960Y266478D01*
X903154Y264532D01*
X902879Y262444D01*
X903154Y260355D01*
X903960Y258409D01*
X905243Y256738D01*
X906914Y255456D01*
X908860Y254650D01*
X910948Y254375D01*
X913037Y254650D01*
X914983Y255456D01*
X916654Y256738D01*
X917936Y258409D01*
X918743Y260355D01*
X919017Y262444D01*
X918743Y264532D01*
X917936Y266478D01*
X916654Y268150D01*
X914983Y269432D01*
X913037Y270238D01*
X910948Y270513D01*
D02*
G37*
G36*
X440000Y260098D02*
X438049Y259710D01*
X436395Y258605D01*
X435290Y256951D01*
X434902Y255000D01*
X435290Y253049D01*
X436395Y251395D01*
X438049Y250290D01*
X440000Y249902D01*
X441951Y250290D01*
X443605Y251395D01*
X444710Y253049D01*
X445098Y255000D01*
X444710Y256951D01*
X443605Y258605D01*
X441951Y259710D01*
X440000Y260098D01*
D02*
G37*
G36*
X425000D02*
X423049Y259710D01*
X421395Y258605D01*
X420290Y256951D01*
X419902Y255000D01*
X420290Y253049D01*
X421395Y251395D01*
X423049Y250290D01*
X425000Y249902D01*
X426951Y250290D01*
X428605Y251395D01*
X429710Y253049D01*
X430098Y255000D01*
X429710Y256951D01*
X428605Y258605D01*
X426951Y259710D01*
X425000Y260098D01*
D02*
G37*
G36*
X1485179Y227710D02*
X1483090Y227435D01*
X1481144Y226629D01*
X1479473Y225347D01*
X1478191Y223676D01*
X1477385Y221730D01*
X1477110Y219641D01*
X1477385Y217553D01*
X1478191Y215607D01*
X1479473Y213936D01*
X1481144Y212654D01*
X1483090Y211847D01*
X1485179Y211572D01*
X1487267Y211847D01*
X1489213Y212654D01*
X1490884Y213936D01*
X1492167Y215607D01*
X1492973Y217553D01*
X1493248Y219641D01*
X1492973Y221730D01*
X1492167Y223676D01*
X1490884Y225347D01*
X1489213Y226629D01*
X1487267Y227435D01*
X1485179Y227710D01*
D02*
G37*
G36*
X1459779D02*
X1457690Y227435D01*
X1455744Y226629D01*
X1454073Y225347D01*
X1452791Y223676D01*
X1451985Y221730D01*
X1451710Y219641D01*
X1451985Y217553D01*
X1452791Y215607D01*
X1454073Y213936D01*
X1455744Y212654D01*
X1457690Y211847D01*
X1459779Y211572D01*
X1461867Y211847D01*
X1463813Y212654D01*
X1465484Y213936D01*
X1466767Y215607D01*
X1467573Y217553D01*
X1467848Y219641D01*
X1467573Y221730D01*
X1466767Y223676D01*
X1465484Y225347D01*
X1463813Y226629D01*
X1461867Y227435D01*
X1459779Y227710D01*
D02*
G37*
G36*
X147518Y227691D02*
X145430Y227416D01*
X143484Y226609D01*
X141812Y225327D01*
X140530Y223656D01*
X139724Y221710D01*
X139449Y219622D01*
X139724Y217533D01*
X140530Y215587D01*
X141812Y213916D01*
X143484Y212633D01*
X145430Y211827D01*
X147518Y211552D01*
X149607Y211827D01*
X151553Y212633D01*
X153224Y213916D01*
X154506Y215587D01*
X155312Y217533D01*
X155587Y219622D01*
X155312Y221710D01*
X154506Y223656D01*
X153224Y225327D01*
X151553Y226609D01*
X149607Y227416D01*
X147518Y227691D01*
D02*
G37*
G36*
X893000Y299624D02*
X887000D01*
X885852Y299148D01*
X885823Y299078D01*
X877500D01*
X875939Y298768D01*
X874616Y297884D01*
X874616Y297884D01*
X870216Y293484D01*
X869332Y292161D01*
X869022Y290600D01*
X869022Y290600D01*
Y289746D01*
X868861Y289506D01*
X868512Y287750D01*
Y272250D01*
X868861Y270494D01*
X869856Y269006D01*
X871344Y268011D01*
X873100Y267662D01*
X874856Y268011D01*
X876344Y269006D01*
X877339Y270494D01*
X877688Y272250D01*
Y287750D01*
X877411Y289143D01*
X879189Y290922D01*
X885823D01*
X885852Y290852D01*
X887000Y290376D01*
X893000D01*
X894148Y290852D01*
X894177Y290922D01*
X983311D01*
X1007116Y267116D01*
X1007116Y267116D01*
X1008439Y266232D01*
X1010000Y265922D01*
X1010000Y265922D01*
X1031811D01*
X1053666Y244066D01*
X1053666Y244066D01*
X1054989Y243182D01*
X1056550Y242872D01*
X1056550Y242872D01*
X1063311D01*
X1069066Y237116D01*
X1070389Y236232D01*
X1071950Y235922D01*
X1071950Y235922D01*
X1102104D01*
X1103049Y235290D01*
X1105000Y234902D01*
X1106951Y235290D01*
X1108605Y236395D01*
X1109710Y238049D01*
X1110098Y240000D01*
X1109710Y241951D01*
X1108605Y243605D01*
X1106951Y244710D01*
X1105000Y245098D01*
X1103049Y244710D01*
X1102104Y244078D01*
X1073639D01*
X1067884Y249834D01*
X1066561Y250718D01*
X1065000Y251028D01*
X1065000Y251028D01*
X1058239D01*
X1036384Y272884D01*
X1035061Y273768D01*
X1033500Y274078D01*
X1033500Y274078D01*
X1011689D01*
X987884Y297884D01*
X986561Y298768D01*
X985000Y299078D01*
X985000Y299078D01*
X894177D01*
X894148Y299148D01*
X893000Y299624D01*
D02*
G37*
G36*
X190000Y187598D02*
X188049Y187210D01*
X186395Y186105D01*
X185290Y184451D01*
X184902Y182500D01*
X185290Y180549D01*
X186395Y178895D01*
X188049Y177790D01*
X190000Y177402D01*
X191951Y177790D01*
X193605Y178895D01*
X194710Y180549D01*
X195098Y182500D01*
X194710Y184451D01*
X193605Y186105D01*
X191951Y187210D01*
X190000Y187598D01*
D02*
G37*
G36*
X1570371Y75513D02*
X1568283Y75238D01*
X1566337Y74432D01*
X1564666Y73150D01*
X1563383Y71478D01*
X1562577Y69532D01*
X1562302Y67444D01*
X1562577Y65356D01*
X1563383Y63409D01*
X1564666Y61738D01*
X1566337Y60456D01*
X1568283Y59650D01*
X1570371Y59375D01*
X1572460Y59650D01*
X1574406Y60456D01*
X1576077Y61738D01*
X1577359Y63409D01*
X1578165Y65356D01*
X1578440Y67444D01*
X1578165Y69532D01*
X1577359Y71478D01*
X1576077Y73150D01*
X1574406Y74432D01*
X1572460Y75238D01*
X1570371Y75513D01*
D02*
G37*
G36*
X36926Y75493D02*
X34837Y75218D01*
X32891Y74412D01*
X31220Y73130D01*
X29938Y71458D01*
X29132Y69512D01*
X28857Y67424D01*
X29132Y65335D01*
X29938Y63389D01*
X31220Y61718D01*
X32891Y60436D01*
X34837Y59630D01*
X36926Y59355D01*
X39014Y59630D01*
X40960Y60436D01*
X42631Y61718D01*
X43914Y63389D01*
X44720Y65335D01*
X44995Y67424D01*
X44720Y69512D01*
X43914Y71458D01*
X42631Y73130D01*
X40960Y74412D01*
X39014Y75218D01*
X36926Y75493D01*
D02*
G37*
G36*
X11526D02*
X9437Y75218D01*
X7491Y74412D01*
X5820Y73130D01*
X4538Y71458D01*
X3731Y69512D01*
X3457Y67424D01*
X3731Y65335D01*
X4538Y63389D01*
X5820Y61718D01*
X7491Y60436D01*
X9437Y59630D01*
X11526Y59355D01*
X13614Y59630D01*
X15560Y60436D01*
X17231Y61718D01*
X18514Y63389D01*
X19320Y65335D01*
X19595Y67424D01*
X19320Y69512D01*
X18514Y71458D01*
X17231Y73130D01*
X15560Y74412D01*
X13614Y75218D01*
X11526Y75493D01*
D02*
G37*
G36*
X62833Y154500D02*
X60745Y154225D01*
X58799Y153419D01*
X57127Y152136D01*
X55845Y150465D01*
X55039Y148519D01*
X54764Y146431D01*
X55039Y144342D01*
X55845Y142396D01*
X57127Y140725D01*
X58799Y139443D01*
X60745Y138637D01*
X62833Y138362D01*
X64922Y138637D01*
X66868Y139443D01*
X68539Y140725D01*
X69821Y142396D01*
X70627Y144342D01*
X70902Y146431D01*
X70627Y148519D01*
X69821Y150465D01*
X68539Y152136D01*
X66868Y153419D01*
X64922Y154225D01*
X62833Y154500D01*
D02*
G37*
G36*
X307500Y81624D02*
X292500D01*
X291352Y81148D01*
X290876Y80000D01*
Y65000D01*
X291352Y63852D01*
X292500Y63376D01*
X307500D01*
X308648Y63852D01*
X309124Y65000D01*
Y80000D01*
X308648Y81148D01*
X307500Y81624D01*
D02*
G37*
G36*
X1595771Y75513D02*
X1593683Y75238D01*
X1591737Y74432D01*
X1590066Y73150D01*
X1588783Y71478D01*
X1587977Y69532D01*
X1587702Y67444D01*
X1587977Y65356D01*
X1588783Y63409D01*
X1590066Y61738D01*
X1591737Y60456D01*
X1593683Y59650D01*
X1595771Y59375D01*
X1597860Y59650D01*
X1599806Y60456D01*
X1601477Y61738D01*
X1602759Y63409D01*
X1603565Y65356D01*
X1603840Y67444D01*
X1603565Y69532D01*
X1602759Y71478D01*
X1601477Y73150D01*
X1599806Y74432D01*
X1597860Y75238D01*
X1595771Y75513D01*
D02*
G37*
G36*
X1485000Y10098D02*
X1483049Y9710D01*
X1481395Y8605D01*
X1480290Y6951D01*
X1479902Y5000D01*
X1480290Y3049D01*
X1481395Y1395D01*
X1483049Y290D01*
X1485000Y-98D01*
X1486951Y290D01*
X1488605Y1395D01*
X1489710Y3049D01*
X1490098Y5000D01*
X1489710Y6951D01*
X1488605Y8605D01*
X1486951Y9710D01*
X1485000Y10098D01*
D02*
G37*
G36*
X1607297Y20348D02*
X1603327Y19957D01*
X1599510Y18799D01*
X1595992Y16919D01*
X1592909Y14388D01*
X1590378Y11305D01*
X1588498Y7787D01*
X1587340Y3970D01*
X1586949Y0D01*
X1587340Y-3970D01*
X1588498Y-7787D01*
X1590378Y-11305D01*
X1592909Y-14388D01*
X1595992Y-16919D01*
X1599510Y-18799D01*
X1603327Y-19957D01*
X1607297Y-20348D01*
X1611267Y-19957D01*
X1615084Y-18799D01*
X1618602Y-16919D01*
X1621685Y-14388D01*
X1624216Y-11305D01*
X1626096Y-7787D01*
X1627254Y-3970D01*
X1627645Y0D01*
X1627254Y3970D01*
X1626096Y7787D01*
X1624216Y11305D01*
X1621685Y14388D01*
X1618602Y16919D01*
X1615084Y18799D01*
X1611267Y19957D01*
X1607297Y20348D01*
D02*
G37*
G36*
X0D02*
X-3970Y19957D01*
X-7787Y18799D01*
X-11305Y16919D01*
X-14388Y14388D01*
X-16919Y11305D01*
X-18799Y7787D01*
X-19957Y3970D01*
X-20348Y0D01*
X-19957Y-3970D01*
X-18799Y-7787D01*
X-16919Y-11305D01*
X-14388Y-14388D01*
X-11305Y-16919D01*
X-7787Y-18799D01*
X-3970Y-19957D01*
X0Y-20348D01*
X3970Y-19957D01*
X7787Y-18799D01*
X11305Y-16919D01*
X14388Y-14388D01*
X16919Y-11305D01*
X18799Y-7787D01*
X19957Y-3970D01*
X20348Y0D01*
X19957Y3970D01*
X18799Y7787D01*
X16919Y11305D01*
X14388Y14388D01*
X11305Y16919D01*
X7787Y18799D01*
X3970Y19957D01*
X0Y20348D01*
D02*
G37*
G36*
X1525000Y45098D02*
X1523049Y44710D01*
X1521395Y43605D01*
X1520290Y41951D01*
X1519902Y40000D01*
X1520290Y38049D01*
X1521395Y36395D01*
X1523049Y35290D01*
X1525000Y34902D01*
X1526951Y35290D01*
X1528605Y36395D01*
X1529710Y38049D01*
X1530098Y40000D01*
X1529710Y41951D01*
X1528605Y43605D01*
X1526951Y44710D01*
X1525000Y45098D01*
D02*
G37*
G36*
X62500Y27598D02*
X60549Y27210D01*
X58895Y26105D01*
X57790Y24451D01*
X57402Y22500D01*
X57790Y20549D01*
X58895Y18895D01*
X60549Y17790D01*
X62500Y17402D01*
X64451Y17790D01*
X66105Y18895D01*
X67210Y20549D01*
X67598Y22500D01*
X67210Y24451D01*
X66105Y26105D01*
X64451Y27210D01*
X62500Y27598D01*
D02*
G37*
G36*
X1399224Y131158D02*
X1391670Y130663D01*
X1384245Y129186D01*
X1377076Y126752D01*
X1370287Y123404D01*
X1363992Y119198D01*
X1358301Y114207D01*
X1353309Y108515D01*
X1349104Y102221D01*
X1345755Y95431D01*
X1343322Y88263D01*
X1341845Y80838D01*
X1341350Y73284D01*
X1341845Y65730D01*
X1343322Y58305D01*
X1345755Y51136D01*
X1349104Y44347D01*
X1353309Y38053D01*
X1358301Y32361D01*
X1363992Y27369D01*
X1370287Y23164D01*
X1377076Y19815D01*
X1384245Y17382D01*
X1391670Y15905D01*
X1399224Y15410D01*
X1406778Y15905D01*
X1414203Y17382D01*
X1421371Y19815D01*
X1428161Y23164D01*
X1434455Y27369D01*
X1440147Y32361D01*
X1445138Y38053D01*
X1449344Y44347D01*
X1452692Y51136D01*
X1455126Y58305D01*
X1456602Y65730D01*
X1457098Y73284D01*
X1456602Y80838D01*
X1455126Y88263D01*
X1452692Y95431D01*
X1449344Y102221D01*
X1445138Y108515D01*
X1440147Y114207D01*
X1434455Y119198D01*
X1428161Y123404D01*
X1421371Y126752D01*
X1414203Y129186D01*
X1406778Y130663D01*
X1399224Y131158D01*
D02*
G37*
G36*
X1519064Y154500D02*
X1516975Y154225D01*
X1515029Y153419D01*
X1513358Y152136D01*
X1512076Y150465D01*
X1511270Y148519D01*
X1510995Y146431D01*
X1511270Y144342D01*
X1512076Y142396D01*
X1513358Y140725D01*
X1515029Y139443D01*
X1516975Y138637D01*
X1519064Y138362D01*
X1521152Y138637D01*
X1523098Y139443D01*
X1524769Y140725D01*
X1526052Y142396D01*
X1526858Y144342D01*
X1527133Y146431D01*
X1526858Y148519D01*
X1526052Y150465D01*
X1524769Y152136D01*
X1523098Y153419D01*
X1521152Y154225D01*
X1519064Y154500D01*
D02*
G37*
G36*
X172500Y187598D02*
X170549Y187210D01*
X168895Y186105D01*
X167790Y184451D01*
X167402Y182500D01*
X167790Y180549D01*
X168895Y178895D01*
X170549Y177790D01*
X172500Y177402D01*
X174451Y177790D01*
X176105Y178895D01*
X177210Y180549D01*
X177598Y182500D01*
X177210Y184451D01*
X176105Y186105D01*
X174451Y187210D01*
X172500Y187598D01*
D02*
G37*
G36*
X155000D02*
X153049Y187210D01*
X151395Y186105D01*
X150290Y184451D01*
X149902Y182500D01*
X150290Y180549D01*
X151395Y178895D01*
X153049Y177790D01*
X155000Y177402D01*
X156951Y177790D01*
X158605Y178895D01*
X159710Y180549D01*
X160098Y182500D01*
X159710Y184451D01*
X158605Y186105D01*
X156951Y187210D01*
X155000Y187598D01*
D02*
G37*
G36*
X593648Y192792D02*
X589679Y192401D01*
X585862Y191243D01*
X582344Y189363D01*
X579260Y186832D01*
X576730Y183749D01*
X574849Y180231D01*
X573691Y176414D01*
X573301Y172444D01*
X573691Y168474D01*
X574849Y164657D01*
X576730Y161139D01*
X579260Y158056D01*
X582344Y155525D01*
X585862Y153645D01*
X589679Y152487D01*
X593648Y152096D01*
X597618Y152487D01*
X601435Y153645D01*
X604953Y155525D01*
X608037Y158056D01*
X610567Y161139D01*
X612448Y164657D01*
X613605Y168474D01*
X613997Y172444D01*
X613605Y176414D01*
X612448Y180231D01*
X610567Y183749D01*
X608037Y186832D01*
X604953Y189363D01*
X601435Y191243D01*
X597618Y192401D01*
X593648Y192792D01*
D02*
G37*
G36*
X412608Y164163D02*
X410166Y163621D01*
X407947Y162466D01*
X406103Y160776D01*
X404759Y158667D01*
X404007Y156281D01*
X403898Y153782D01*
X404439Y151340D01*
X405594Y149121D01*
X407284Y147277D01*
X409394Y145933D01*
X411779Y145181D01*
X414278Y145072D01*
X416720Y145613D01*
X418939Y146768D01*
X420783Y148458D01*
X422127Y150568D01*
X422879Y152953D01*
X422989Y155452D01*
X422447Y157894D01*
X421292Y160113D01*
X419602Y161957D01*
X417492Y163301D01*
X415107Y164054D01*
X412608Y164163D01*
D02*
G37*
G36*
X1544464Y154500D02*
X1542375Y154225D01*
X1540429Y153419D01*
X1538758Y152136D01*
X1537476Y150465D01*
X1536670Y148519D01*
X1536395Y146431D01*
X1536670Y144342D01*
X1537476Y142396D01*
X1538758Y140725D01*
X1540429Y139443D01*
X1542375Y138637D01*
X1544464Y138362D01*
X1546552Y138637D01*
X1548498Y139443D01*
X1550169Y140725D01*
X1551452Y142396D01*
X1552258Y144342D01*
X1552533Y146431D01*
X1552258Y148519D01*
X1551452Y150465D01*
X1550169Y152136D01*
X1548498Y153419D01*
X1546552Y154225D01*
X1544464Y154500D01*
D02*
G37*
G36*
X1257576Y272352D02*
X1250022Y271857D01*
X1242597Y270380D01*
X1235428Y267947D01*
X1228639Y264599D01*
X1222344Y260393D01*
X1216653Y255401D01*
X1211661Y249710D01*
X1207456Y243415D01*
X1204107Y236626D01*
X1201674Y229457D01*
X1200197Y222032D01*
X1199702Y214478D01*
X1200197Y206924D01*
X1201674Y199499D01*
X1204107Y192331D01*
X1207456Y185541D01*
X1211661Y179247D01*
X1216653Y173555D01*
X1222344Y168564D01*
X1228639Y164358D01*
X1235428Y161010D01*
X1242597Y158576D01*
X1250022Y157100D01*
X1257576Y156604D01*
X1265130Y157100D01*
X1272555Y158576D01*
X1279723Y161010D01*
X1286513Y164358D01*
X1292807Y168564D01*
X1298499Y173555D01*
X1303490Y179247D01*
X1307696Y185541D01*
X1311044Y192331D01*
X1313478Y199499D01*
X1314955Y206924D01*
X1315450Y214478D01*
X1314955Y222032D01*
X1313478Y229457D01*
X1311044Y236626D01*
X1307696Y243415D01*
X1303490Y249710D01*
X1298499Y255401D01*
X1292807Y260393D01*
X1286513Y264599D01*
X1279723Y267947D01*
X1272555Y270380D01*
X1265130Y271857D01*
X1257576Y272352D01*
D02*
G37*
G36*
X172500Y162598D02*
X170549Y162210D01*
X168895Y161105D01*
X167790Y159451D01*
X167402Y157500D01*
X167603Y156489D01*
X166433Y155863D01*
X166148Y156148D01*
X165000Y156624D01*
X137500D01*
X136352Y156148D01*
X135876Y155000D01*
Y95000D01*
X136352Y93852D01*
X137500Y93376D01*
X140847D01*
X141450Y93126D01*
X169150D01*
X169753Y93376D01*
X172500D01*
X173648Y93852D01*
X174124Y95000D01*
Y147500D01*
X173648Y148648D01*
X170863Y151433D01*
X171489Y152603D01*
X172500Y152402D01*
X174451Y152790D01*
X176105Y153895D01*
X177210Y155549D01*
X177598Y157500D01*
X177210Y159451D01*
X176105Y161105D01*
X174451Y162210D01*
X172500Y162598D01*
D02*
G37*
G36*
X1013649Y192792D02*
X1009679Y192401D01*
X1005862Y191243D01*
X1002344Y189363D01*
X999260Y186832D01*
X996730Y183749D01*
X994849Y180231D01*
X993691Y176414D01*
X993300Y172444D01*
X993691Y168474D01*
X994849Y164657D01*
X996730Y161139D01*
X999260Y158056D01*
X1002344Y155525D01*
X1005862Y153645D01*
X1009679Y152487D01*
X1013649Y152096D01*
X1017618Y152487D01*
X1021435Y153645D01*
X1024953Y155525D01*
X1028037Y158056D01*
X1030567Y161139D01*
X1032448Y164657D01*
X1033605Y168474D01*
X1033996Y172444D01*
X1033605Y176414D01*
X1032448Y180231D01*
X1030567Y183749D01*
X1028037Y186832D01*
X1024953Y189363D01*
X1021435Y191243D01*
X1017618Y192401D01*
X1013649Y192792D01*
D02*
G37*
G36*
X988649Y457792D02*
X984679Y457401D01*
X980862Y456243D01*
X977344Y454363D01*
X974260Y451832D01*
X971730Y448749D01*
X969849Y445231D01*
X968691Y441414D01*
X968300Y437444D01*
X968691Y433474D01*
X969849Y429657D01*
X971730Y426139D01*
X974260Y423056D01*
X977344Y420525D01*
X980862Y418645D01*
X984679Y417487D01*
X988649Y417096D01*
X992618Y417487D01*
X996435Y418645D01*
X999953Y420525D01*
X1003037Y423056D01*
X1005567Y426139D01*
X1007448Y429657D01*
X1008605Y433474D01*
X1008996Y437444D01*
X1008605Y441414D01*
X1007448Y445231D01*
X1005567Y448749D01*
X1003037Y451832D01*
X999953Y454363D01*
X996435Y456243D01*
X992618Y457401D01*
X988649Y457792D01*
D02*
G37*
G36*
X607548Y514826D02*
X605459Y514551D01*
X603513Y513745D01*
X601842Y512463D01*
X600560Y510792D01*
X599754Y508845D01*
X599479Y506757D01*
X599754Y504669D01*
X600560Y502723D01*
X601842Y501051D01*
X603513Y499769D01*
X605459Y498963D01*
X607548Y498688D01*
X609636Y498963D01*
X611582Y499769D01*
X613253Y501051D01*
X614536Y502723D01*
X615342Y504669D01*
X615617Y506757D01*
X615342Y508845D01*
X614536Y510792D01*
X613253Y512463D01*
X611582Y513745D01*
X609636Y514551D01*
X607548Y514826D01*
D02*
G37*
G36*
X854448Y417843D02*
X852068Y417529D01*
X849849Y416610D01*
X847944Y415148D01*
X846482Y413243D01*
X845563Y411025D01*
X845250Y408644D01*
X845563Y406263D01*
X846482Y404045D01*
X847944Y402140D01*
X849849Y400678D01*
X852068Y399759D01*
X854448Y399445D01*
X856829Y399759D01*
X859048Y400678D01*
X860953Y402140D01*
X862415Y404045D01*
X863334Y406263D01*
X863647Y408644D01*
X863334Y411025D01*
X862415Y413243D01*
X860953Y415148D01*
X859048Y416610D01*
X856829Y417529D01*
X854448Y417843D01*
D02*
G37*
G36*
X439088Y460160D02*
X437031Y459704D01*
X435163Y458732D01*
X433610Y457309D01*
X432478Y455532D01*
X431844Y453523D01*
X431753Y451419D01*
X432208Y449362D01*
X433181Y447494D01*
X434604Y445941D01*
X436381Y444809D01*
X438390Y444175D01*
X440494Y444084D01*
X442551Y444539D01*
X444419Y445512D01*
X445972Y446935D01*
X447104Y448712D01*
X447737Y450721D01*
X447829Y452825D01*
X447373Y454882D01*
X446401Y456750D01*
X444977Y458303D01*
X443201Y459435D01*
X441192Y460068D01*
X439088Y460160D01*
D02*
G37*
G36*
X1172620Y435166D02*
X1170516Y435074D01*
X1168507Y434441D01*
X1166730Y433309D01*
X1165307Y431756D01*
X1164334Y429888D01*
X1163878Y427831D01*
X1163970Y425727D01*
X1164604Y423718D01*
X1165735Y421941D01*
X1167289Y420518D01*
X1169157Y419545D01*
X1171214Y419090D01*
X1173318Y419181D01*
X1175327Y419815D01*
X1177103Y420947D01*
X1178527Y422500D01*
X1179499Y424368D01*
X1179955Y426424D01*
X1179863Y428529D01*
X1179230Y430538D01*
X1178098Y432314D01*
X1176545Y433737D01*
X1174677Y434710D01*
X1172620Y435166D01*
D02*
G37*
G36*
X434677Y435146D02*
X432620Y434690D01*
X430752Y433717D01*
X429199Y432294D01*
X428067Y430518D01*
X427434Y428509D01*
X427342Y426404D01*
X427798Y424348D01*
X428770Y422480D01*
X430193Y420927D01*
X431970Y419795D01*
X433979Y419161D01*
X436083Y419069D01*
X438140Y419525D01*
X440008Y420498D01*
X441561Y421921D01*
X442693Y423698D01*
X443327Y425707D01*
X443419Y427811D01*
X442962Y429868D01*
X441990Y431736D01*
X440567Y433289D01*
X438790Y434421D01*
X436781Y435054D01*
X434677Y435146D01*
D02*
G37*
G36*
X752849Y417843D02*
X750468Y417529D01*
X748249Y416610D01*
X746344Y415148D01*
X744882Y413243D01*
X743963Y411025D01*
X743650Y408644D01*
X743963Y406263D01*
X744882Y404045D01*
X746344Y402140D01*
X748249Y400678D01*
X750468Y399759D01*
X752849Y399445D01*
X755229Y399759D01*
X757448Y400678D01*
X759353Y402140D01*
X760815Y404045D01*
X761734Y406263D01*
X762047Y408644D01*
X761734Y411025D01*
X760815Y413243D01*
X759353Y415148D01*
X757448Y416610D01*
X755229Y417529D01*
X752849Y417843D01*
D02*
G37*
G36*
X999749Y514826D02*
X997661Y514551D01*
X995715Y513745D01*
X994044Y512463D01*
X992761Y510792D01*
X991955Y508845D01*
X991680Y506757D01*
X991955Y504669D01*
X992761Y502723D01*
X994044Y501051D01*
X995715Y499769D01*
X997661Y498963D01*
X999749Y498688D01*
X1001838Y498963D01*
X1003784Y499769D01*
X1005455Y501051D01*
X1006737Y502723D01*
X1007543Y504669D01*
X1007818Y506757D01*
X1007543Y508845D01*
X1006737Y510792D01*
X1005455Y512463D01*
X1003784Y513745D01*
X1001838Y514551D01*
X999749Y514826D01*
D02*
G37*
G36*
X1264879Y409249D02*
X1262823Y408793D01*
X1260954Y407820D01*
X1259401Y406397D01*
X1258270Y404621D01*
X1257636Y402612D01*
X1257544Y400507D01*
X1258000Y398451D01*
X1258973Y396582D01*
X1260396Y395029D01*
X1262172Y393897D01*
X1264181Y393264D01*
X1266286Y393172D01*
X1268342Y393628D01*
X1270211Y394601D01*
X1271764Y396024D01*
X1272896Y397800D01*
X1273529Y399809D01*
X1273621Y401914D01*
X1273165Y403970D01*
X1272192Y405839D01*
X1270769Y407392D01*
X1268993Y408523D01*
X1266984Y409157D01*
X1264879Y409249D01*
D02*
G37*
G36*
X829048Y417843D02*
X826668Y417529D01*
X824449Y416610D01*
X822544Y415148D01*
X821082Y413243D01*
X820163Y411025D01*
X819850Y408644D01*
X820163Y406263D01*
X821082Y404045D01*
X822544Y402140D01*
X824449Y400678D01*
X826668Y399759D01*
X829048Y399445D01*
X831429Y399759D01*
X833648Y400678D01*
X835553Y402140D01*
X837015Y404045D01*
X837934Y406263D01*
X838247Y408644D01*
X837934Y411025D01*
X837015Y413243D01*
X835553Y415148D01*
X833648Y416610D01*
X831429Y417529D01*
X829048Y417843D01*
D02*
G37*
G36*
X803649D02*
X801268Y417529D01*
X799049Y416610D01*
X797144Y415148D01*
X795682Y413243D01*
X794763Y411025D01*
X794450Y408644D01*
X794763Y406263D01*
X795682Y404045D01*
X797144Y402140D01*
X799049Y400678D01*
X801268Y399759D01*
X803649Y399445D01*
X806029Y399759D01*
X808248Y400678D01*
X810153Y402140D01*
X811615Y404045D01*
X812534Y406263D01*
X812847Y408644D01*
X812534Y411025D01*
X811615Y413243D01*
X810153Y415148D01*
X808248Y416610D01*
X806029Y417529D01*
X803649Y417843D01*
D02*
G37*
G36*
X778249D02*
X775868Y417529D01*
X773649Y416610D01*
X771744Y415148D01*
X770282Y413243D01*
X769363Y411025D01*
X769050Y408644D01*
X769363Y406263D01*
X770282Y404045D01*
X771744Y402140D01*
X773649Y400678D01*
X775868Y399759D01*
X778249Y399445D01*
X780629Y399759D01*
X782848Y400678D01*
X784753Y402140D01*
X786215Y404045D01*
X787134Y406263D01*
X787447Y408644D01*
X787134Y411025D01*
X786215Y413243D01*
X784753Y415148D01*
X782848Y416610D01*
X780629Y417529D01*
X778249Y417843D01*
D02*
G37*
G36*
X1168209Y460180D02*
X1166105Y460088D01*
X1164096Y459455D01*
X1162319Y458323D01*
X1160896Y456770D01*
X1159924Y454902D01*
X1159468Y452845D01*
X1159560Y450741D01*
X1160193Y448732D01*
X1161325Y446955D01*
X1162878Y445532D01*
X1164746Y444560D01*
X1166803Y444104D01*
X1168907Y444196D01*
X1170916Y444829D01*
X1172693Y445961D01*
X1174116Y447514D01*
X1175089Y449382D01*
X1175544Y451439D01*
X1175452Y453543D01*
X1174819Y455552D01*
X1173687Y457328D01*
X1172134Y458752D01*
X1170266Y459724D01*
X1168209Y460180D01*
D02*
G37*
G36*
X625508Y496866D02*
X623420Y496591D01*
X621474Y495784D01*
X619803Y494502D01*
X618520Y492831D01*
X617714Y490885D01*
X617439Y488797D01*
X617714Y486708D01*
X618520Y484762D01*
X619803Y483091D01*
X621474Y481809D01*
X623420Y481002D01*
X625508Y480728D01*
X627597Y481002D01*
X629543Y481809D01*
X631214Y483091D01*
X632496Y484762D01*
X633302Y486708D01*
X633577Y488797D01*
X633302Y490885D01*
X632496Y492831D01*
X631214Y494502D01*
X629543Y495784D01*
X627597Y496591D01*
X625508Y496866D01*
D02*
G37*
G36*
X525533Y494164D02*
X523445Y493889D01*
X521499Y493083D01*
X519827Y491800D01*
X518545Y490129D01*
X517739Y488183D01*
X517464Y486095D01*
X517739Y484006D01*
X518545Y482060D01*
X519827Y480389D01*
X521499Y479107D01*
X523445Y478301D01*
X525533Y478026D01*
X527622Y478301D01*
X529568Y479107D01*
X531239Y480389D01*
X532521Y482060D01*
X533327Y484006D01*
X533602Y486095D01*
X533327Y488183D01*
X532521Y490129D01*
X531239Y491800D01*
X529568Y493083D01*
X527622Y493889D01*
X525533Y494164D01*
D02*
G37*
G36*
X1090744Y490444D02*
X1088656Y490169D01*
X1086710Y489363D01*
X1085038Y488081D01*
X1083756Y486409D01*
X1082950Y484463D01*
X1082675Y482375D01*
X1082950Y480287D01*
X1083756Y478340D01*
X1085038Y476669D01*
X1086710Y475387D01*
X1088656Y474581D01*
X1090744Y474306D01*
X1092832Y474581D01*
X1094779Y475387D01*
X1096450Y476669D01*
X1097732Y478340D01*
X1098538Y480287D01*
X1098813Y482375D01*
X1098538Y484463D01*
X1097732Y486409D01*
X1096450Y488081D01*
X1094779Y489363D01*
X1092832Y490169D01*
X1090744Y490444D01*
D02*
G37*
G36*
X897724Y507883D02*
X895636Y507608D01*
X893690Y506802D01*
X892018Y505519D01*
X890736Y503848D01*
X889930Y501902D01*
X889655Y499814D01*
X889930Y497725D01*
X890736Y495779D01*
X892018Y494108D01*
X893690Y492826D01*
X895636Y492020D01*
X897724Y491745D01*
X899812Y492020D01*
X901759Y492826D01*
X903430Y494108D01*
X904712Y495779D01*
X905518Y497725D01*
X905793Y499814D01*
X905518Y501902D01*
X904712Y503848D01*
X903430Y505519D01*
X901759Y506802D01*
X899812Y507608D01*
X897724Y507883D01*
D02*
G37*
G36*
X709573D02*
X707484Y507608D01*
X705538Y506802D01*
X703867Y505519D01*
X702585Y503848D01*
X701779Y501902D01*
X701504Y499814D01*
X701779Y497725D01*
X702585Y495779D01*
X703867Y494108D01*
X705538Y492826D01*
X707484Y492020D01*
X709573Y491745D01*
X711661Y492020D01*
X713607Y492826D01*
X715278Y494108D01*
X716561Y495779D01*
X717367Y497725D01*
X717642Y499814D01*
X717367Y501902D01*
X716561Y503848D01*
X715278Y505519D01*
X713607Y506802D01*
X711661Y507608D01*
X709573Y507883D01*
D02*
G37*
G36*
X981789Y496866D02*
X979700Y496591D01*
X977754Y495784D01*
X976083Y494502D01*
X974801Y492831D01*
X973995Y490885D01*
X973720Y488797D01*
X973995Y486708D01*
X974801Y484762D01*
X976083Y483091D01*
X977754Y481809D01*
X979700Y481002D01*
X981789Y480728D01*
X983877Y481002D01*
X985823Y481809D01*
X987494Y483091D01*
X988777Y484762D01*
X989583Y486708D01*
X989858Y488797D01*
X989583Y490885D01*
X988777Y492831D01*
X987494Y494502D01*
X985823Y495784D01*
X983877Y496591D01*
X981789Y496866D01*
D02*
G37*
G36*
X719600Y466578D02*
X717251Y466268D01*
X715061Y465362D01*
X713181Y463919D01*
X711739Y462039D01*
X710832Y459850D01*
X710522Y457500D01*
X710832Y455150D01*
X711739Y452961D01*
X713181Y451081D01*
X715061Y449638D01*
X717251Y448732D01*
X719600Y448422D01*
X721949Y448732D01*
X724139Y449638D01*
X726019Y451081D01*
X727461Y452961D01*
X728368Y455150D01*
X728678Y457500D01*
X728368Y459850D01*
X727461Y462039D01*
X726019Y463919D01*
X724139Y465362D01*
X721949Y466268D01*
X719600Y466578D01*
D02*
G37*
G36*
X803649Y512813D02*
X801560Y512538D01*
X799614Y511732D01*
X797943Y510450D01*
X796661Y508778D01*
X795854Y506832D01*
X795579Y504744D01*
X795854Y502655D01*
X796661Y500709D01*
X797943Y499038D01*
X799614Y497756D01*
X801560Y496950D01*
X803649Y496675D01*
X805737Y496950D01*
X807683Y497756D01*
X809354Y499038D01*
X810636Y500709D01*
X811442Y502655D01*
X811718Y504744D01*
X811442Y506832D01*
X810636Y508778D01*
X809354Y510450D01*
X807683Y511732D01*
X805737Y512538D01*
X803649Y512813D01*
D02*
G37*
G36*
X829650Y454124D02*
X819150D01*
X818002Y453648D01*
X817526Y452500D01*
Y446000D01*
X818002Y444852D01*
X819150Y444376D01*
X829650D01*
X830798Y444852D01*
X831274Y446000D01*
Y452500D01*
X830798Y453648D01*
X829650Y454124D01*
D02*
G37*
G36*
Y475624D02*
X819150D01*
X818002Y475148D01*
X817526Y474000D01*
Y467500D01*
X818002Y466352D01*
X819150Y465876D01*
X829650D01*
X830798Y466352D01*
X831274Y467500D01*
Y474000D01*
X830798Y475148D01*
X829650Y475624D01*
D02*
G37*
G36*
X760000Y475814D02*
X709200D01*
X707932Y475561D01*
X706857Y474843D01*
X697775Y465761D01*
X696550Y466268D01*
X694200Y466578D01*
X691851Y466268D01*
X689661Y465362D01*
X687781Y463919D01*
X686339Y462039D01*
X685432Y459850D01*
X685122Y457500D01*
X685432Y455150D01*
X686339Y452961D01*
X687781Y451081D01*
X689661Y449638D01*
X691851Y448732D01*
X694200Y448422D01*
X696550Y448732D01*
X698739Y449638D01*
X700619Y451081D01*
X702061Y452961D01*
X702968Y455150D01*
X703278Y457500D01*
X702968Y459850D01*
X702461Y461075D01*
X710573Y469186D01*
X758627D01*
X762876Y464937D01*
Y462000D01*
X763352Y460852D01*
X764500Y460376D01*
X770500D01*
X771648Y460852D01*
X771994Y461686D01*
X777150D01*
X778418Y461939D01*
X779493Y462657D01*
X782713Y465876D01*
X788150D01*
X789298Y466352D01*
X789774Y467500D01*
Y474000D01*
X789298Y475148D01*
X788150Y475624D01*
X777650D01*
X776502Y475148D01*
X776026Y474000D01*
Y468563D01*
X775777Y468314D01*
X771994D01*
X771648Y469148D01*
X770500Y469624D01*
X767563D01*
X762343Y474843D01*
X761268Y475561D01*
X761058Y475603D01*
X760000Y475814D01*
D02*
G37*
G36*
X1072784Y472484D02*
X1070695Y472209D01*
X1068749Y471403D01*
X1067078Y470120D01*
X1065796Y468449D01*
X1064989Y466503D01*
X1064715Y464414D01*
X1064989Y462326D01*
X1065796Y460380D01*
X1067078Y458709D01*
X1068749Y457427D01*
X1070695Y456620D01*
X1072784Y456345D01*
X1074872Y456620D01*
X1076818Y457427D01*
X1078489Y458709D01*
X1079771Y460380D01*
X1080578Y462326D01*
X1080853Y464414D01*
X1080578Y466503D01*
X1079771Y468449D01*
X1078489Y470120D01*
X1076818Y471403D01*
X1074872Y472209D01*
X1072784Y472484D01*
D02*
G37*
G36*
X936348Y325513D02*
X934260Y325238D01*
X932314Y324432D01*
X930643Y323150D01*
X929361Y321478D01*
X928554Y319532D01*
X928279Y317444D01*
X928554Y315355D01*
X929361Y313409D01*
X930643Y311738D01*
X932314Y310456D01*
X934260Y309650D01*
X936348Y309375D01*
X938437Y309650D01*
X940383Y310456D01*
X942054Y311738D01*
X943336Y313409D01*
X944143Y315355D01*
X944417Y317444D01*
X944143Y319532D01*
X943336Y321478D01*
X942054Y323150D01*
X940383Y324432D01*
X938437Y325238D01*
X936348Y325513D01*
D02*
G37*
G36*
X910948D02*
X908860Y325238D01*
X906914Y324432D01*
X905243Y323150D01*
X903960Y321478D01*
X903154Y319532D01*
X902879Y317444D01*
X903154Y315355D01*
X903960Y313409D01*
X905243Y311738D01*
X906914Y310456D01*
X908860Y309650D01*
X910948Y309375D01*
X913037Y309650D01*
X914983Y310456D01*
X916654Y311738D01*
X917936Y313409D01*
X918743Y315355D01*
X919017Y317444D01*
X918743Y319532D01*
X917936Y321478D01*
X916654Y323150D01*
X914983Y324432D01*
X913037Y325238D01*
X910948Y325513D01*
D02*
G37*
G36*
X1418566Y294343D02*
X1416478Y294068D01*
X1414532Y293262D01*
X1412860Y291980D01*
X1411578Y290309D01*
X1410772Y288363D01*
X1410497Y286274D01*
X1410772Y284186D01*
X1411578Y282240D01*
X1412860Y280569D01*
X1414532Y279286D01*
X1416478Y278480D01*
X1418566Y278205D01*
X1420654Y278480D01*
X1422601Y279286D01*
X1424272Y280569D01*
X1425554Y282240D01*
X1426360Y284186D01*
X1426635Y286274D01*
X1426360Y288363D01*
X1425554Y290309D01*
X1424272Y291980D01*
X1422601Y293262D01*
X1420654Y294068D01*
X1418566Y294343D01*
D02*
G37*
G36*
X873100Y352338D02*
X871344Y351989D01*
X869856Y350994D01*
X868861Y349506D01*
X868512Y347750D01*
Y332250D01*
X868861Y330494D01*
X869022Y330254D01*
Y329400D01*
X869022Y329400D01*
X869332Y327839D01*
X870216Y326516D01*
X874616Y322116D01*
X874616Y322116D01*
X875939Y321232D01*
X877500Y320922D01*
X885823D01*
X885852Y320852D01*
X887000Y320376D01*
X893000D01*
X894148Y320852D01*
X894624Y322000D01*
Y328000D01*
X894148Y329148D01*
X894078Y329177D01*
Y332104D01*
X894710Y333049D01*
X895098Y335000D01*
X894710Y336951D01*
X893605Y338605D01*
X891951Y339710D01*
X890000Y340098D01*
X888049Y339710D01*
X886395Y338605D01*
X885290Y336951D01*
X884902Y335000D01*
X885290Y333049D01*
X885922Y332104D01*
Y329177D01*
X885852Y329148D01*
X885823Y329078D01*
X879189D01*
X877411Y330857D01*
X877688Y332250D01*
Y347750D01*
X877339Y349506D01*
X876344Y350994D01*
X874856Y351989D01*
X873100Y352338D01*
D02*
G37*
G36*
X970000Y327598D02*
X968049Y327210D01*
X966395Y326105D01*
X965290Y324451D01*
X964902Y322500D01*
X965290Y320549D01*
X966395Y318895D01*
X968049Y317790D01*
X970000Y317402D01*
X971951Y317790D01*
X973605Y318895D01*
X974710Y320549D01*
X975098Y322500D01*
X974710Y324451D01*
X973605Y326105D01*
X971951Y327210D01*
X970000Y327598D01*
D02*
G37*
G36*
X803649Y538213D02*
X801560Y537938D01*
X799614Y537132D01*
X797943Y535850D01*
X796661Y534178D01*
X795854Y532232D01*
X795579Y530144D01*
X795854Y528055D01*
X796661Y526109D01*
X797943Y524438D01*
X799614Y523156D01*
X801560Y522350D01*
X803649Y522075D01*
X805737Y522350D01*
X807683Y523156D01*
X809354Y524438D01*
X810636Y526109D01*
X811442Y528055D01*
X811718Y530144D01*
X811442Y532232D01*
X810636Y534178D01*
X809354Y535850D01*
X807683Y537132D01*
X805737Y537938D01*
X803649Y538213D01*
D02*
G37*
G36*
X457021Y277550D02*
X454932Y277275D01*
X452986Y276469D01*
X451315Y275186D01*
X450033Y273515D01*
X449227Y271569D01*
X448952Y269481D01*
X449227Y267392D01*
X450033Y265446D01*
X451315Y263775D01*
X452986Y262493D01*
X454932Y261687D01*
X457021Y261412D01*
X459109Y261687D01*
X461055Y262493D01*
X462726Y263775D01*
X464009Y265446D01*
X464815Y267392D01*
X465090Y269481D01*
X464815Y271569D01*
X464009Y273515D01*
X462726Y275186D01*
X461055Y276469D01*
X459109Y277275D01*
X457021Y277550D01*
D02*
G37*
G36*
X1083649Y371091D02*
X1076094Y370596D01*
X1068670Y369119D01*
X1061501Y366685D01*
X1054712Y363337D01*
X1048417Y359131D01*
X1042725Y354140D01*
X1037734Y348448D01*
X1033528Y342154D01*
X1030180Y335364D01*
X1027747Y328196D01*
X1026270Y320771D01*
X1025775Y313217D01*
X1026270Y305663D01*
X1027747Y298238D01*
X1030180Y291070D01*
X1033528Y284280D01*
X1037734Y277985D01*
X1042725Y272294D01*
X1048417Y267302D01*
X1054712Y263097D01*
X1061501Y259748D01*
X1068670Y257315D01*
X1076094Y255838D01*
X1083649Y255343D01*
X1091202Y255838D01*
X1098627Y257315D01*
X1105796Y259748D01*
X1112585Y263097D01*
X1118880Y267302D01*
X1124572Y272294D01*
X1129563Y277985D01*
X1133769Y284280D01*
X1137117Y291070D01*
X1139550Y298238D01*
X1141027Y305663D01*
X1141522Y313217D01*
X1141027Y320771D01*
X1139550Y328196D01*
X1137117Y335364D01*
X1133769Y342154D01*
X1129563Y348448D01*
X1124572Y354140D01*
X1118880Y359131D01*
X1112585Y363337D01*
X1105796Y366685D01*
X1098627Y369119D01*
X1091202Y370596D01*
X1083649Y371091D01*
D02*
G37*
G36*
X936348Y270513D02*
X934260Y270238D01*
X932314Y269432D01*
X930643Y268150D01*
X929361Y266478D01*
X928554Y264532D01*
X928279Y262444D01*
X928554Y260355D01*
X929361Y258409D01*
X930643Y256738D01*
X932314Y255456D01*
X934260Y254650D01*
X936348Y254375D01*
X938437Y254650D01*
X940383Y255456D01*
X942054Y256738D01*
X943336Y258409D01*
X944143Y260355D01*
X944417Y262444D01*
X944143Y264532D01*
X943336Y266478D01*
X942054Y268150D01*
X940383Y269432D01*
X938437Y270238D01*
X936348Y270513D01*
D02*
G37*
G36*
X1393166Y294343D02*
X1391078Y294068D01*
X1389131Y293262D01*
X1387460Y291980D01*
X1386178Y290309D01*
X1385372Y288363D01*
X1385097Y286274D01*
X1385372Y284186D01*
X1386178Y282240D01*
X1387460Y280569D01*
X1389131Y279286D01*
X1391078Y278480D01*
X1393166Y278205D01*
X1395254Y278480D01*
X1397200Y279286D01*
X1398872Y280569D01*
X1400154Y282240D01*
X1400960Y284186D01*
X1401235Y286274D01*
X1400960Y288363D01*
X1400154Y290309D01*
X1398872Y291980D01*
X1397200Y293262D01*
X1395254Y294068D01*
X1393166Y294343D01*
D02*
G37*
G36*
X214131Y294323D02*
X212043Y294048D01*
X210096Y293242D01*
X208425Y291960D01*
X207143Y290289D01*
X206337Y288343D01*
X206062Y286254D01*
X206337Y284166D01*
X207143Y282220D01*
X208425Y280549D01*
X210096Y279266D01*
X212043Y278460D01*
X214131Y278185D01*
X216219Y278460D01*
X218165Y279266D01*
X219837Y280549D01*
X221119Y282220D01*
X221925Y284166D01*
X222200Y286254D01*
X221925Y288343D01*
X221119Y290289D01*
X219837Y291960D01*
X218165Y293242D01*
X216219Y294048D01*
X214131Y294323D01*
D02*
G37*
G36*
X188731D02*
X186642Y294048D01*
X184696Y293242D01*
X183025Y291960D01*
X181743Y290289D01*
X180937Y288343D01*
X180662Y286254D01*
X180937Y284166D01*
X181743Y282220D01*
X183025Y280549D01*
X184696Y279266D01*
X186642Y278460D01*
X188731Y278185D01*
X190819Y278460D01*
X192765Y279266D01*
X194437Y280549D01*
X195719Y282220D01*
X196525Y284166D01*
X196800Y286254D01*
X196525Y288343D01*
X195719Y290289D01*
X194437Y291960D01*
X192765Y293242D01*
X190819Y294048D01*
X188731Y294323D01*
D02*
G37*
G36*
X897724Y533283D02*
X895636Y533008D01*
X893690Y532202D01*
X892018Y530919D01*
X890736Y529248D01*
X889930Y527302D01*
X889655Y525214D01*
X889930Y523125D01*
X890736Y521179D01*
X892018Y519508D01*
X893690Y518226D01*
X895636Y517420D01*
X897724Y517145D01*
X899812Y517420D01*
X901759Y518226D01*
X903430Y519508D01*
X904712Y521179D01*
X905518Y523125D01*
X905793Y525214D01*
X905518Y527302D01*
X904712Y529248D01*
X903430Y530919D01*
X901759Y532202D01*
X899812Y533008D01*
X897724Y533283D01*
D02*
G37*
G36*
X366286Y400541D02*
X364181Y400450D01*
X362173Y399816D01*
X360396Y398684D01*
X358973Y397131D01*
X358000Y395263D01*
X357544Y393206D01*
X357636Y391102D01*
X358270Y389093D01*
X359401Y387317D01*
X360954Y385893D01*
X362823Y384921D01*
X364879Y384465D01*
X366984Y384557D01*
X368993Y385190D01*
X370769Y386322D01*
X372192Y387875D01*
X373165Y389743D01*
X373621Y391800D01*
X373529Y393904D01*
X372896Y395913D01*
X371764Y397690D01*
X370211Y399113D01*
X368342Y400085D01*
X366286Y400541D01*
D02*
G37*
G36*
X936348Y395513D02*
X934260Y395238D01*
X932314Y394432D01*
X930643Y393150D01*
X929361Y391478D01*
X928554Y389532D01*
X928279Y387444D01*
X928554Y385355D01*
X929361Y383409D01*
X930643Y381738D01*
X932314Y380456D01*
X934260Y379650D01*
X936348Y379375D01*
X938437Y379650D01*
X940383Y380456D01*
X942054Y381738D01*
X943336Y383409D01*
X944143Y385355D01*
X944417Y387444D01*
X944143Y389532D01*
X943336Y391478D01*
X942054Y393150D01*
X940383Y394432D01*
X938437Y395238D01*
X936348Y395513D01*
D02*
G37*
G36*
X910948D02*
X908860Y395238D01*
X906914Y394432D01*
X905243Y393150D01*
X903960Y391478D01*
X903154Y389532D01*
X902879Y387444D01*
X903154Y385355D01*
X903960Y383409D01*
X905243Y381738D01*
X906914Y380456D01*
X908860Y379650D01*
X910948Y379375D01*
X913037Y379650D01*
X914983Y380456D01*
X916654Y381738D01*
X917936Y383409D01*
X918743Y385355D01*
X919017Y387444D01*
X918743Y389532D01*
X917936Y391478D01*
X916654Y393150D01*
X914983Y394432D01*
X913037Y395238D01*
X910948Y395513D01*
D02*
G37*
G36*
X342418Y409229D02*
X340313Y409137D01*
X338304Y408503D01*
X336528Y407372D01*
X335105Y405819D01*
X334132Y403950D01*
X333676Y401894D01*
X333768Y399789D01*
X334401Y397780D01*
X335533Y396004D01*
X337086Y394581D01*
X338955Y393608D01*
X341011Y393152D01*
X343116Y393244D01*
X345125Y393877D01*
X346901Y395009D01*
X348324Y396562D01*
X349297Y398431D01*
X349753Y400487D01*
X349661Y402592D01*
X349027Y404600D01*
X347896Y406377D01*
X346343Y407800D01*
X344474Y408773D01*
X342418Y409229D01*
D02*
G37*
G36*
X1241011Y400561D02*
X1238955Y400106D01*
X1237086Y399133D01*
X1235533Y397710D01*
X1234401Y395933D01*
X1233768Y393924D01*
X1233708Y392563D01*
X1232409Y391904D01*
X1231951Y392210D01*
X1230000Y392598D01*
X1228049Y392210D01*
X1226395Y391105D01*
X1225290Y389451D01*
X1224902Y387500D01*
X1225290Y385549D01*
X1226395Y383895D01*
X1228049Y382790D01*
X1230000Y382402D01*
X1231951Y382790D01*
X1233605Y383895D01*
X1234710Y385549D01*
X1234856Y386286D01*
X1236228Y386669D01*
X1236528Y386342D01*
X1238304Y385210D01*
X1240313Y384577D01*
X1242418Y384485D01*
X1244474Y384941D01*
X1246343Y385913D01*
X1247896Y387337D01*
X1249027Y389113D01*
X1249661Y391122D01*
X1249753Y393226D01*
X1249297Y395283D01*
X1248324Y397151D01*
X1246901Y398704D01*
X1245125Y399836D01*
X1243115Y400470D01*
X1241011Y400561D01*
D02*
G37*
G36*
X692629Y404493D02*
X690540Y404218D01*
X688594Y403412D01*
X686923Y402130D01*
X685641Y400459D01*
X684835Y398513D01*
X684560Y396424D01*
X684835Y394336D01*
X685641Y392390D01*
X686923Y390718D01*
X688594Y389436D01*
X690540Y388630D01*
X692629Y388355D01*
X694717Y388630D01*
X696663Y389436D01*
X698334Y390718D01*
X699617Y392390D01*
X700423Y394336D01*
X700698Y396424D01*
X700423Y398513D01*
X699617Y400459D01*
X698334Y402130D01*
X696663Y403412D01*
X694717Y404218D01*
X692629Y404493D01*
D02*
G37*
G36*
X1202500Y360098D02*
X1200549Y359710D01*
X1198895Y358605D01*
X1197790Y356951D01*
X1197402Y355000D01*
X1197790Y353049D01*
X1198895Y351395D01*
X1200549Y350290D01*
X1202500Y349902D01*
X1204451Y350290D01*
X1206105Y351395D01*
X1207210Y353049D01*
X1207598Y355000D01*
X1207210Y356951D01*
X1206105Y358605D01*
X1204451Y359710D01*
X1202500Y360098D01*
D02*
G37*
G36*
X261942Y353608D02*
X259853Y353333D01*
X257907Y352527D01*
X256236Y351245D01*
X254954Y349574D01*
X254148Y347628D01*
X253873Y345539D01*
X254148Y343451D01*
X254954Y341505D01*
X256236Y339834D01*
X257907Y338551D01*
X259853Y337745D01*
X261942Y337470D01*
X264030Y337745D01*
X265976Y338551D01*
X267647Y339834D01*
X268930Y341505D01*
X269736Y343451D01*
X270011Y345539D01*
X269736Y347628D01*
X268930Y349574D01*
X267647Y351245D01*
X265976Y352527D01*
X264030Y353333D01*
X261942Y353608D01*
D02*
G37*
G36*
X1257500Y347598D02*
X1255549Y347210D01*
X1253895Y346105D01*
X1252790Y344451D01*
X1252402Y342500D01*
X1252790Y340549D01*
X1253895Y338895D01*
X1255549Y337790D01*
X1257500Y337402D01*
X1259451Y337790D01*
X1261105Y338895D01*
X1262210Y340549D01*
X1262598Y342500D01*
X1262210Y344451D01*
X1261105Y346105D01*
X1259451Y347210D01*
X1257500Y347598D01*
D02*
G37*
G36*
X1319955Y353608D02*
X1317867Y353333D01*
X1315921Y352527D01*
X1314250Y351245D01*
X1312967Y349574D01*
X1312161Y347628D01*
X1311886Y345539D01*
X1312161Y343451D01*
X1312967Y341505D01*
X1314250Y339834D01*
X1315921Y338551D01*
X1317867Y337745D01*
X1319955Y337470D01*
X1322044Y337745D01*
X1323990Y338551D01*
X1325661Y339834D01*
X1326943Y341505D01*
X1327749Y343451D01*
X1328024Y345539D01*
X1327749Y347628D01*
X1326943Y349574D01*
X1325661Y351245D01*
X1323990Y352527D01*
X1322044Y353333D01*
X1319955Y353608D01*
D02*
G37*
G36*
X709573Y533283D02*
X707484Y533008D01*
X705538Y532202D01*
X703867Y530919D01*
X702585Y529248D01*
X701779Y527302D01*
X701504Y525214D01*
X701779Y523125D01*
X702585Y521179D01*
X703867Y519508D01*
X705538Y518226D01*
X707484Y517420D01*
X709573Y517145D01*
X711661Y517420D01*
X713607Y518226D01*
X715278Y519508D01*
X716561Y521179D01*
X717367Y523125D01*
X717642Y525214D01*
X717367Y527302D01*
X716561Y529248D01*
X715278Y530919D01*
X713607Y532202D01*
X711661Y533008D01*
X709573Y533283D01*
D02*
G37*
G36*
X1345355Y353608D02*
X1343267Y353333D01*
X1341321Y352527D01*
X1339650Y351245D01*
X1338367Y349574D01*
X1337561Y347628D01*
X1337286Y345539D01*
X1337561Y343451D01*
X1338367Y341505D01*
X1339650Y339834D01*
X1341321Y338551D01*
X1343267Y337745D01*
X1345355Y337470D01*
X1347444Y337745D01*
X1349390Y338551D01*
X1351061Y339834D01*
X1352343Y341505D01*
X1353149Y343451D01*
X1353424Y345539D01*
X1353149Y347628D01*
X1352343Y349574D01*
X1351061Y351245D01*
X1349390Y352527D01*
X1347444Y353333D01*
X1345355Y353608D01*
D02*
G37*
%LPD*%
G36*
X172500Y147500D02*
Y95000D01*
X137500D01*
Y155000D01*
X165000D01*
X172500Y147500D01*
D02*
G37*
D17*
X562500Y212500D02*
D03*
X572500D02*
D03*
X557500Y237500D02*
D03*
X547500D02*
D03*
X557500Y247500D02*
D03*
X547500D02*
D03*
X447500Y297500D02*
D03*
X437500D02*
D03*
X977500Y375000D02*
D03*
X967500D02*
D03*
X977500Y365000D02*
D03*
X967500D02*
D03*
X562500Y202500D02*
D03*
X572500D02*
D03*
X977500Y355000D02*
D03*
X967500D02*
D03*
X352500D02*
D03*
X362500D02*
D03*
X352500Y335000D02*
D03*
X362500D02*
D03*
X352500Y345000D02*
D03*
X362500D02*
D03*
X602500Y267500D02*
D03*
X612500D02*
D03*
X622500Y395000D02*
D03*
X632500D02*
D03*
D18*
X890000Y295000D02*
D03*
Y305000D02*
D03*
Y315000D02*
D03*
Y325000D02*
D03*
X567500Y237500D02*
D03*
Y247500D02*
D03*
X527500Y267500D02*
D03*
Y257500D02*
D03*
X510000Y395000D02*
D03*
Y405000D02*
D03*
X537500Y267500D02*
D03*
Y257500D02*
D03*
X632500Y267500D02*
D03*
Y277500D02*
D03*
X622500Y277500D02*
D03*
Y267500D02*
D03*
X547500Y257500D02*
D03*
Y267500D02*
D03*
X500000Y405000D02*
D03*
Y395000D02*
D03*
X767500Y465000D02*
D03*
Y455000D02*
D03*
X592500Y415000D02*
D03*
Y425000D02*
D03*
X557500Y267500D02*
D03*
Y257500D02*
D03*
D19*
X415000Y318000D02*
D03*
Y297000D02*
D03*
D25*
X873100Y280000D02*
D03*
X860400D02*
D03*
X847700D02*
D03*
X835000D02*
D03*
X822300D02*
D03*
X809600D02*
D03*
X796900D02*
D03*
X784200D02*
D03*
X873100Y340000D02*
D03*
X860400D02*
D03*
X847700D02*
D03*
X835000D02*
D03*
X822300D02*
D03*
X809600D02*
D03*
X796900D02*
D03*
X784200D02*
D03*
D27*
X613500Y395000D02*
X622500D01*
X415000Y317500D02*
X427500D01*
X402500D02*
X415000D01*
X873100Y329400D02*
Y340000D01*
Y329400D02*
X877500Y325000D01*
X890000D01*
X873100Y280000D02*
Y290600D01*
X877500Y295000D01*
X555000Y212500D02*
X562500D01*
X548900Y218600D02*
X555000Y212500D01*
X548900Y218600D02*
Y225000D01*
X547500Y226400D02*
Y237500D01*
X1320692Y178032D02*
X1322218Y176507D01*
X547500Y257500D02*
X557500D01*
X537500D02*
X547500D01*
Y257500D01*
Y247500D02*
Y257500D01*
Y237500D02*
Y247500D01*
X510000Y405000D02*
Y440000D01*
X482500Y247500D02*
X495000D01*
X505000Y257500D01*
X527500D01*
X482500D02*
X492500D01*
X502500Y267500D01*
X527500D01*
X500000Y405000D02*
X510000D01*
X510000Y440000D02*
X512500Y442500D01*
X527500Y257500D02*
X537500D01*
X527500Y267500D02*
X537500D01*
X745000Y457500D02*
X747500Y455000D01*
X767500D01*
X773250Y449250D01*
X782900D01*
X877500Y295000D02*
X890000D01*
X890000Y295000D01*
Y325000D02*
Y335000D01*
X835000Y320000D02*
Y340000D01*
X890000Y305000D02*
Y315000D01*
X897500D01*
X784200Y280000D02*
Y295800D01*
X782500Y297500D02*
X784200Y295800D01*
X890000Y295000D02*
X985000D01*
X1010000Y270000D01*
X622500Y389000D02*
Y395000D01*
X1010000Y270000D02*
X1033500D01*
X1071950Y240000D02*
X1105000D01*
X1065000Y246950D02*
X1071950Y240000D01*
X1056550Y246950D02*
X1065000D01*
X1033500Y270000D02*
X1056550Y246950D01*
D28*
X632500Y394757D02*
X637743D01*
X678964Y353957D02*
X687089D01*
X686036Y345000D02*
X688738D01*
X667500D02*
X686036D01*
X505000Y332500D02*
X519500D01*
X502500Y335000D02*
X505000Y332500D01*
X362500Y335000D02*
X502500D01*
X510000Y342500D02*
X519500D01*
X497500Y355000D02*
X510000Y342500D01*
X362500Y355000D02*
X497500D01*
X602500Y332500D02*
X615000Y345000D01*
X602500Y284500D02*
Y332500D01*
X615000Y326712D02*
Y335000D01*
Y326712D02*
X619211Y322500D01*
X626846Y261250D02*
X632500Y266904D01*
X608154Y261250D02*
X626846D01*
X602500Y266904D02*
X608154Y261250D01*
X632500Y266904D02*
Y267500D01*
X602500Y266904D02*
Y267500D01*
X602500Y267500D02*
X602500Y267500D01*
X602500Y267500D02*
Y284500D01*
X612500Y267500D02*
Y268096D01*
X607500Y273096D02*
X612500Y268096D01*
X607500Y273096D02*
Y284500D01*
X612500Y267500D02*
X622500D01*
X632500Y277500D02*
X632500Y277500D01*
X622500Y277500D02*
X632500D01*
X555000Y462500D02*
X575000D01*
X522500Y430000D02*
X555000Y462500D01*
X522500Y417500D02*
Y430000D01*
Y417500D02*
X530000Y410000D01*
Y427500D02*
X550000D01*
X575000Y452500D01*
X537500Y395500D02*
Y405000D01*
X572500Y395500D02*
Y407500D01*
X585000Y420000D01*
Y435000D01*
X597500Y447500D01*
X592500Y425000D02*
X595000Y422500D01*
X600000D01*
X517500Y400000D02*
Y435000D01*
X492500Y442500D02*
X522500Y472500D01*
X492500Y372500D02*
Y442500D01*
X517500Y435000D02*
X520000Y437500D01*
X492500Y372500D02*
X497500Y367500D01*
X522500Y472500D02*
X653800D01*
X667071Y357500D02*
X671036Y361465D01*
X630500Y357500D02*
X667071D01*
X693308Y379192D02*
X695078D01*
X670000Y390000D02*
X682500D01*
X693308Y379192D01*
X663964Y383965D02*
X670000Y390000D01*
X663964Y368535D02*
Y383965D01*
X704192Y360454D02*
Y371061D01*
X688738Y345000D02*
X704192Y360454D01*
X687089Y353957D02*
X693939Y360808D01*
X678964Y353535D02*
Y353957D01*
X660000Y352500D02*
X667500Y345000D01*
X671036Y361465D02*
X672071Y362500D01*
X679368D02*
X685808Y368939D01*
X672071Y362500D02*
X679368D01*
X663964Y396036D02*
X670000Y390000D01*
X663536Y396036D02*
X663964D01*
X645000Y377500D02*
X656464Y388965D01*
X630500Y377500D02*
X645000D01*
X619211Y322500D02*
X630500D01*
X1180000Y405000D02*
X1227500Y357500D01*
X962500Y405000D02*
X1180000D01*
X932500Y435000D02*
X962500Y405000D01*
X1175000Y400000D02*
X1224250Y350750D01*
X960000Y400000D02*
X1175000D01*
X932500Y427500D02*
X960000Y400000D01*
X660000Y435000D02*
X932500D01*
X662500Y427500D02*
X932500D01*
X520000Y437500D02*
Y450000D01*
X512500Y395000D02*
X517500Y400000D01*
X510000Y395000D02*
X512500D01*
X653800Y472500D02*
X668800Y457500D01*
X510000Y380000D02*
Y395000D01*
Y380000D02*
X512500Y377500D01*
X519500D01*
X777150Y465000D02*
X782900Y470750D01*
X767500Y465000D02*
X777150D01*
X760000Y472500D02*
X767500Y465000D01*
X709200Y472500D02*
X760000D01*
X694200Y457500D02*
X709200Y472500D01*
X1224250Y350750D02*
X1250750D01*
X637500Y412500D02*
X660000Y435000D01*
X640000Y405000D02*
X662500Y427500D01*
X312500Y355000D02*
X352500D01*
X87600Y130100D02*
X312500Y355000D01*
X87600Y-7556D02*
Y130100D01*
X630500Y352500D02*
X660000D01*
X562500Y284500D02*
Y295000D01*
X560000Y297500D02*
X562500Y295000D01*
X415500Y297500D02*
X437500D01*
X413000Y295000D02*
X415000Y297000D01*
X272500Y295000D02*
X413000D01*
X1016350Y307694D02*
Y309440D01*
X257500Y280000D02*
X272500Y295000D01*
X257500Y279535D02*
Y280000D01*
X257482Y279517D02*
X257500Y279535D01*
X257482Y269383D02*
Y279517D01*
Y269383D02*
X258258Y268608D01*
X630000Y405000D02*
X640000D01*
X1250750Y350750D02*
X1257500Y357500D01*
X497500Y367500D02*
X519500D01*
X602500Y395500D02*
Y405000D01*
X597500Y395500D02*
Y407071D01*
X592500Y395500D02*
Y415000D01*
X621283Y317500D02*
X630500D01*
X607500Y284500D02*
Y310789D01*
X619211Y322500D01*
X617500Y297500D02*
Y313718D01*
X621283Y317500D01*
X617500Y297500D02*
X623250Y291750D01*
Y278250D02*
Y291750D01*
X622500Y277500D02*
X623250Y278250D01*
X447500Y297500D02*
X560000D01*
X640000Y385000D02*
Y392500D01*
X637743Y394757D02*
X640000Y392500D01*
X602500Y405000D02*
X605500Y408000D01*
X627000D01*
X630000Y405000D01*
X597500Y407071D02*
X603429Y413000D01*
X637000D01*
X637500Y412500D01*
X597500Y447500D02*
Y455000D01*
X537500Y405000D02*
X600000Y467500D01*
X643400D01*
Y457694D02*
Y467500D01*
D29*
X695078Y361947D02*
Y379192D01*
X703600Y178094D02*
X714750Y166944D01*
X629406Y178094D02*
X703600D01*
X605000Y202500D02*
X629406Y178094D01*
X572500Y202500D02*
X605000D01*
X562500D02*
X572500Y212500D01*
X571100Y225000D02*
X572500Y223600D01*
Y212500D02*
Y223600D01*
X571100Y225000D02*
Y231100D01*
X573250Y233250D01*
X560000Y230000D02*
X567500Y237500D01*
X560000Y220000D02*
Y230000D01*
X573250Y233250D02*
Y251639D01*
X572500Y252389D02*
X573250Y251639D01*
X572500Y252389D02*
Y284500D01*
X567500Y247500D02*
Y284500D01*
X557500Y247500D02*
X567500D01*
X557500Y237500D02*
Y247500D01*
X560000Y327500D02*
X565000D01*
X554750Y322250D02*
X560000Y327500D01*
X554750Y317250D02*
Y322250D01*
X519500Y302500D02*
X555000D01*
X572500Y320000D01*
Y322500D01*
X519500Y307500D02*
X552500D01*
X560000Y315000D01*
Y320000D01*
X519500Y312500D02*
X550000D01*
X554750Y317250D01*
X519500Y317500D02*
X545000D01*
X547500Y320000D01*
X505000Y322500D02*
X505000Y322500D01*
X519500D01*
X500000Y327500D02*
X500250Y327750D01*
X507175D01*
X507425Y327500D01*
X519500D01*
X693939Y360808D02*
X695078Y361947D01*
Y379192D02*
X696061D01*
X643400Y457500D02*
Y457694D01*
X784200Y305800D02*
Y340000D01*
X763878Y194016D02*
X765550Y192344D01*
X809600Y305400D02*
Y340000D01*
X905000Y179894D02*
X917950Y166944D01*
X905000Y179894D02*
Y195000D01*
X847700Y307700D02*
Y340000D01*
X814678Y244815D02*
X867150Y192344D01*
X872394Y212500D02*
X892550Y192344D01*
X882500Y217500D02*
X905000Y195000D01*
X870000Y240294D02*
X917950Y192344D01*
X840750Y300750D02*
X847700Y307700D01*
X867500Y217500D02*
X882500D01*
X840079Y244922D02*
X867500Y217500D01*
X840079Y244922D02*
Y267078D01*
X840750Y267750D01*
Y300750D01*
X844078Y263386D02*
X847700Y267008D01*
Y280000D01*
X844078Y248416D02*
Y263386D01*
Y248416D02*
X852200Y240294D01*
X870000D01*
X857500Y212500D02*
X872394D01*
X818678Y251322D02*
X857500Y212500D01*
X818678Y251322D02*
Y260539D01*
X822300Y264161D01*
Y280000D01*
X814678Y244815D02*
Y264179D01*
X815350Y264850D01*
Y299650D01*
X809600Y305400D02*
X815350Y299650D01*
X796900Y266900D02*
Y280000D01*
X784200Y305800D02*
X790000Y300000D01*
X792618Y241476D02*
X841750Y192344D01*
X765550D02*
X788618Y215412D01*
X792618Y241476D02*
Y262618D01*
X796900Y266900D01*
X788618Y215412D02*
Y265618D01*
X790000Y267000D01*
Y300000D01*
X809600Y280000D02*
Y287900D01*
X790000Y307500D02*
X809600Y287900D01*
X790000Y307500D02*
Y350500D01*
X787000Y353500D02*
X790000Y350500D01*
X796900Y340000D02*
Y349257D01*
X788657Y357500D02*
X796900Y349257D01*
X835000Y280000D02*
Y287500D01*
X815241Y307259D02*
X835000Y287500D01*
X815241Y307259D02*
Y329759D01*
X815350Y329868D01*
Y350150D01*
X804000Y361500D02*
X815350Y350150D01*
X822300Y340000D02*
Y350200D01*
X807000Y365500D02*
X822300Y350200D01*
X860400Y280000D02*
Y317100D01*
X853450Y324050D02*
X860400Y317100D01*
X853450Y324050D02*
Y350132D01*
X833582Y370000D02*
X853450Y350132D01*
X860400Y340000D02*
Y349600D01*
X835000Y375000D02*
X860400Y349600D01*
X646490Y327500D02*
X653990Y320000D01*
X630500Y327500D02*
X646490D01*
X596750Y263250D02*
Y272250D01*
X597500Y273000D01*
Y284500D01*
X597500Y284500D02*
X597500Y284500D01*
X592500Y261843D02*
Y284500D01*
X587500Y260000D02*
Y284500D01*
X757500Y375000D02*
X835000D01*
X758157Y370000D02*
X833582D01*
X785343Y365500D02*
X807000D01*
X787000Y361500D02*
X804000D01*
X653990Y320000D02*
X702500D01*
X757500Y375000D01*
X630500Y307500D02*
X695657D01*
X758157Y370000D01*
X630500Y302500D02*
X697500D01*
X760500Y365500D01*
X785343D01*
X785343Y365500D01*
X762157Y361500D02*
X787000D01*
X787000Y361500D01*
X763814Y357500D02*
X788657D01*
X788657Y357500D01*
X766000Y353500D02*
X787000D01*
X596750Y263250D02*
X603250Y256750D01*
X657407D01*
X762157Y361500D01*
X592500Y261843D02*
X601843Y252500D01*
X658814D01*
X763814Y357500D01*
X587500Y260000D02*
X600000Y247500D01*
X660000D01*
X766000Y353500D01*
X582500Y257500D02*
Y284500D01*
X577500Y254500D02*
Y284500D01*
X582500Y257500D02*
X610000Y230000D01*
X640000D01*
X577500Y254500D02*
X609500Y222500D01*
X640000D01*
X872500Y177500D02*
X880000Y170000D01*
X852306Y177500D02*
X872500D01*
X841750Y166944D02*
X852306Y177500D01*
X987500Y210000D02*
X1057500D01*
X1005000Y235000D02*
X1057500D01*
X926694Y156694D02*
X1005000Y235000D01*
X930194Y152694D02*
X987500Y210000D01*
X881400Y152694D02*
X930194D01*
X867150Y166944D02*
X881400Y152694D01*
X880000Y162500D02*
Y170000D01*
Y162500D02*
X885806Y156694D01*
X926694D01*
D30*
X532500Y190000D02*
X545000Y202500D01*
X472500Y190000D02*
X532500D01*
X1526100Y-6556D02*
X1538600D01*
X1447942Y21282D02*
X1456781Y30121D01*
X1447942Y21282D02*
X1447942D01*
X1320692Y178032D02*
X1329531Y186871D01*
X300000Y107500D02*
X390000D01*
X1016350Y309440D02*
Y321940D01*
X249419Y259769D02*
X258258Y268608D01*
X249419Y259769D02*
X249419D01*
X75100Y-7556D02*
X87600D01*
X390000Y107500D02*
X472500Y190000D01*
D31*
X612500Y287500D02*
X617500D01*
X1456256Y30121D02*
Y43756D01*
X353600Y304444D02*
Y335000D01*
X1322218Y166829D02*
Y176507D01*
X1320167Y178557D02*
X1320692Y178032D01*
X1005560Y321940D02*
X1016350D01*
X977500Y350000D02*
X1005560Y321940D01*
X977500Y350000D02*
Y355000D01*
X911636D02*
X967500D01*
X655000Y325000D02*
X700000D01*
X647500Y332500D02*
X655000Y325000D01*
X630500Y332500D02*
X647500D01*
X507500Y337500D02*
X519500D01*
X500000Y345000D02*
X507500Y337500D01*
X362500Y345000D02*
X500000D01*
X570000Y415000D02*
X577500Y422500D01*
X567500Y415000D02*
X570000D01*
X557500Y405000D02*
X567500Y415000D01*
X557500Y395500D02*
Y405000D01*
X562500Y422500D02*
X567500D01*
X547500Y407500D02*
X562500Y422500D01*
X547500Y395500D02*
Y407500D01*
X552500Y383250D02*
Y395500D01*
Y383250D02*
X563250Y372500D01*
X542500Y385000D02*
X555250Y372250D01*
X542500Y385000D02*
Y395500D01*
X657393Y330000D02*
X697500D01*
X659035Y334722D02*
X694722D01*
X649893Y337500D02*
X657393Y330000D01*
X651257Y342500D02*
X659035Y334722D01*
X682500Y415000D02*
X692500D01*
X713556Y393944D01*
Y361056D02*
Y393944D01*
X691722Y339222D02*
X713556Y361056D01*
X666561Y339222D02*
X691722D01*
X658282Y347500D02*
X666561Y339222D01*
X630500Y347500D02*
X658282D01*
X908000Y365000D02*
X967500D01*
X904364Y375000D02*
X967500D01*
X630500Y337500D02*
X649893D01*
X630500Y342500D02*
X651257D01*
X1515000Y5287D02*
X1526100Y-5813D01*
Y-6556D02*
Y-5813D01*
X1047500Y385000D02*
X1118864D01*
X1037500Y375000D02*
X1047500Y385000D01*
X977500Y375000D02*
X1037500D01*
X1456256Y30121D02*
X1456781D01*
X1050000Y380000D02*
X1117500D01*
X1035000Y365000D02*
X1050000Y380000D01*
X977500Y365000D02*
X1035000D01*
X1329006Y186871D02*
X1329531D01*
X557500Y267500D02*
Y284500D01*
X500000Y377500D02*
Y395000D01*
X505000Y372500D02*
X519500D01*
X500000Y377500D02*
X505000Y372500D01*
X547500Y267500D02*
Y267743D01*
X542500Y272743D02*
X547500Y267743D01*
X542500Y272743D02*
Y284500D01*
X537500Y267500D02*
Y284500D01*
X607500Y385000D02*
X610000Y382500D01*
X607500Y385000D02*
Y395500D01*
X345000Y345000D02*
X352500D01*
X341100Y341100D02*
X345000Y345000D01*
X341100Y304444D02*
Y341100D01*
X694722Y334722D02*
X755000Y395000D01*
X884364D01*
X904364Y375000D01*
X697500Y330000D02*
X757500Y390000D01*
X883000D01*
X908000Y365000D01*
X700000Y325000D02*
X760000Y385000D01*
X881636D01*
X911636Y355000D01*
X612500Y284500D02*
Y287500D01*
X714750Y166944D02*
X734194Y147500D01*
X1302888D01*
X1322218Y166829D01*
X632500Y387500D02*
Y394757D01*
X627500Y382500D02*
X632500Y387500D01*
X610000Y382500D02*
X627500D01*
X1118864Y385000D02*
X1212364Y291500D01*
X1117500Y380000D02*
X1210500Y287000D01*
X1212364Y291500D02*
X1303500D01*
X1515000Y80000D01*
Y5287D02*
Y80000D01*
X1210500Y287000D02*
X1301636D01*
X1456256Y43756D02*
X1490000Y77500D01*
Y98636D01*
X1301636Y287000D02*
X1490000Y98636D01*
D32*
X752849Y256244D02*
D03*
X778249D02*
D03*
X803649D02*
D03*
X829048D02*
D03*
X854448D02*
D03*
X752849Y408644D02*
D03*
X778249D02*
D03*
X803649D02*
D03*
X829048D02*
D03*
X854448D02*
D03*
D33*
X1595771Y67444D02*
D03*
X1570371D02*
D03*
X1544464Y146431D02*
D03*
X1519064D02*
D03*
X1485179Y219641D02*
D03*
X1459779D02*
D03*
X1418566Y286274D02*
D03*
X1393166D02*
D03*
X1345355Y345539D02*
D03*
X1319955D02*
D03*
X1241714Y392523D02*
D03*
X1265583Y401210D02*
D03*
X1167506Y452142D02*
D03*
X1171917Y427128D02*
D03*
X1090744Y482375D02*
D03*
X1072784Y464414D02*
D03*
X999749Y506757D02*
D03*
X981789Y488797D02*
D03*
X897724Y525214D02*
D03*
Y499814D02*
D03*
X803649Y530144D02*
D03*
Y504744D02*
D03*
X709573Y525214D02*
D03*
Y499814D02*
D03*
X607548Y506757D02*
D03*
X625508Y488797D02*
D03*
X525533Y486095D02*
D03*
Y460695D02*
D03*
X439791Y452122D02*
D03*
X435380Y427108D02*
D03*
X341714Y401190D02*
D03*
X365583Y392503D02*
D03*
X261942Y345539D02*
D03*
X287342D02*
D03*
X188731Y286254D02*
D03*
X214131D02*
D03*
X122118Y219622D02*
D03*
X147518D02*
D03*
X62833Y146431D02*
D03*
X88233D02*
D03*
X11526Y67424D02*
D03*
X36926D02*
D03*
X936348Y262444D02*
D03*
X910948D02*
D03*
X696348Y237444D02*
D03*
X670948D02*
D03*
X457021Y214481D02*
D03*
X482421D02*
D03*
X936348Y317444D02*
D03*
X910948D02*
D03*
X457021Y269481D02*
D03*
X482421D02*
D03*
X910948Y387444D02*
D03*
X936348D02*
D03*
X674668Y378464D02*
D03*
X692629Y396424D02*
D03*
X457021Y324481D02*
D03*
X482421D02*
D03*
D34*
X62600Y-7556D02*
D03*
X75100D02*
D03*
X87600D02*
D03*
X100100D02*
D03*
X328600Y304444D02*
D03*
X341100D02*
D03*
X353600D02*
D03*
X366100D02*
D03*
X1513600Y-6556D02*
D03*
X1526100D02*
D03*
X1538600D02*
D03*
X1551100D02*
D03*
D35*
X240580Y250930D02*
D03*
X249419Y259769D02*
D03*
X258258Y268608D02*
D03*
X267097Y277446D02*
D03*
X1338370Y195710D02*
D03*
X1329531Y186871D02*
D03*
X1320692Y178032D02*
D03*
X1311853Y169193D02*
D03*
X1465620Y38960D02*
D03*
X1456781Y30121D02*
D03*
X1447942Y21282D02*
D03*
X1439104Y12443D02*
D03*
D36*
X1016350Y296940D02*
D03*
Y309440D02*
D03*
Y321940D02*
D03*
Y334440D02*
D03*
D37*
X643400Y457500D02*
D03*
X668800D02*
D03*
X694200D02*
D03*
X719600D02*
D03*
X689350Y166944D02*
D03*
X714750Y192344D02*
D03*
Y166944D02*
D03*
X740150Y192344D02*
D03*
Y166944D02*
D03*
X765550Y192344D02*
D03*
Y166944D02*
D03*
X790950Y192344D02*
D03*
Y166944D02*
D03*
X816350Y192344D02*
D03*
Y166944D02*
D03*
X841750Y192344D02*
D03*
Y166944D02*
D03*
X867150Y192344D02*
D03*
Y166944D02*
D03*
X892550Y192344D02*
D03*
Y166944D02*
D03*
X917950Y192344D02*
D03*
Y166944D02*
D03*
X300000Y107500D02*
D03*
D38*
X745000Y457500D02*
D03*
X689350Y192344D02*
D03*
D39*
X300000Y72500D02*
D03*
D40*
X413443Y154617D02*
D03*
X545000Y202500D02*
D03*
D41*
X560000Y220000D02*
D03*
X572500Y322500D02*
D03*
X560000Y320000D02*
D03*
X565000Y327500D02*
D03*
X547500Y320000D02*
D03*
X500000Y327500D02*
D03*
X505000Y322500D02*
D03*
X555250Y372250D02*
D03*
X563250Y372500D02*
D03*
X617500Y287500D02*
D03*
X640000Y230000D02*
D03*
Y222500D02*
D03*
X1057500Y210000D02*
D03*
Y235000D02*
D03*
D42*
X615000Y345000D02*
D03*
X640000Y385000D02*
D03*
X615000Y335000D02*
D03*
X567500Y379750D02*
D03*
X575000Y452500D02*
D03*
Y462500D02*
D03*
X535000Y362500D02*
D03*
X565000Y452500D02*
D03*
X555000D02*
D03*
X577500Y422500D02*
D03*
X567500D02*
D03*
X600000D02*
D03*
X530000Y410000D02*
D03*
Y427500D02*
D03*
X675000Y192500D02*
D03*
X542500Y177500D02*
D03*
Y167500D02*
D03*
X532500D02*
D03*
Y177500D02*
D03*
X482500Y247500D02*
D03*
Y257500D02*
D03*
X167500Y135000D02*
D03*
X155000D02*
D03*
X142500D02*
D03*
Y147500D02*
D03*
X145000Y100000D02*
D03*
X165000Y115000D02*
D03*
X145000D02*
D03*
X165000Y100000D02*
D03*
X155300Y107500D02*
D03*
X512500Y442500D02*
D03*
X670000Y390000D02*
D03*
X440000Y255000D02*
D03*
X425000D02*
D03*
X410000D02*
D03*
X402500Y317500D02*
D03*
X1202500Y355000D02*
D03*
X682500Y415000D02*
D03*
X1210000Y387500D02*
D03*
X1230000D02*
D03*
X492500Y455000D02*
D03*
X520000Y450000D02*
D03*
X427500Y317500D02*
D03*
X205000Y140000D02*
D03*
Y182500D02*
D03*
Y155000D02*
D03*
X155000Y182500D02*
D03*
X190000Y197500D02*
D03*
X172500D02*
D03*
X190000Y215000D02*
D03*
X172500Y157500D02*
D03*
X190000Y182500D02*
D03*
X172500D02*
D03*
X217500Y65000D02*
D03*
X200000Y97500D02*
D03*
Y117500D02*
D03*
Y107500D02*
D03*
X240000Y97500D02*
D03*
Y107500D02*
D03*
Y117500D02*
D03*
X180000Y12500D02*
D03*
Y40000D02*
D03*
X205000Y25000D02*
D03*
Y37500D02*
D03*
X240000Y30000D02*
D03*
X300000Y20000D02*
D03*
X1227500Y357500D02*
D03*
X1257500D02*
D03*
X1525000Y40000D02*
D03*
X1485000Y5000D02*
D03*
X970000Y322500D02*
D03*
X332500Y330000D02*
D03*
X62500Y22500D02*
D03*
X637500Y412500D02*
D03*
X630000Y405000D02*
D03*
X890000Y335000D02*
D03*
X835000Y320000D02*
D03*
X897500Y315000D02*
D03*
X782500Y297500D02*
D03*
X1092500Y157500D02*
D03*
X1150000Y230000D02*
D03*
X1032500Y257500D02*
D03*
X620000Y240000D02*
D03*
X552500Y330000D02*
D03*
X510000Y282500D02*
D03*
X487500Y290000D02*
D03*
X1257500Y342500D02*
D03*
X1105000Y240000D02*
D03*
X1032500Y247500D02*
D03*
X622500Y389000D02*
D03*
X597500Y455000D02*
D03*
X937500Y180000D02*
D03*
X1215000Y160000D02*
D03*
X1207500Y265000D02*
D03*
X747500Y180000D02*
D03*
X630000Y157500D02*
D03*
X655000Y165000D02*
D03*
X665000D02*
D03*
X675000D02*
D03*
X457500Y150965D02*
D03*
X410000Y172500D02*
D03*
X137500Y170000D02*
D03*
X220000Y320000D02*
D03*
X85000Y190000D02*
D03*
X5000Y32500D02*
D03*
X417500Y402500D02*
D03*
X757500Y515000D02*
D03*
X567500Y510000D02*
D03*
X957500D02*
D03*
X1140000Y462500D02*
D03*
X1567500Y127500D02*
D03*
X1460000Y262500D02*
D03*
X970000Y165000D02*
D03*
X910000Y407500D02*
D03*
D52*
X548900Y225000D02*
D03*
X571100D02*
D03*
D53*
X219700Y107500D02*
D03*
X155300D02*
D03*
D54*
X678964Y353535D02*
D03*
X686036Y346465D02*
D03*
X663964Y368535D02*
D03*
X671036Y361465D02*
D03*
D55*
X656464Y388965D02*
D03*
X663536Y396036D02*
D03*
D56*
X824400Y449250D02*
D03*
Y470750D02*
D03*
X782900D02*
D03*
Y449250D02*
D03*
D57*
X693939Y360808D02*
D03*
X685808Y368939D02*
D03*
X696061Y379192D02*
D03*
X704192Y371061D02*
D03*
D58*
X612500Y395500D02*
D03*
X607500D02*
D03*
X602500D02*
D03*
X597500D02*
D03*
X592500D02*
D03*
X587500D02*
D03*
X582500Y395500D02*
D03*
X577500D02*
D03*
X572500Y395500D02*
D03*
X567500D02*
D03*
X562500D02*
D03*
X557500D02*
D03*
X552500D02*
D03*
X547500Y395500D02*
D03*
X542500D02*
D03*
X537500Y395500D02*
D03*
X537500Y284500D02*
D03*
X542500D02*
D03*
X547500D02*
D03*
X552500D02*
D03*
X557500D02*
D03*
X562500D02*
D03*
X567500D02*
D03*
X572500D02*
D03*
X577500D02*
D03*
X582500D02*
D03*
X587500D02*
D03*
X592500Y284500D02*
D03*
X597500D02*
D03*
X602500Y284500D02*
D03*
X607500D02*
D03*
X612500D02*
D03*
D59*
X519500Y377500D02*
D03*
X519500Y372500D02*
D03*
Y367500D02*
D03*
X519500Y362500D02*
D03*
Y357500D02*
D03*
Y352500D02*
D03*
Y347500D02*
D03*
Y342500D02*
D03*
X519500Y337500D02*
D03*
Y332500D02*
D03*
Y327500D02*
D03*
X519500Y322500D02*
D03*
Y317500D02*
D03*
Y312500D02*
D03*
Y307500D02*
D03*
Y302500D02*
D03*
X630500D02*
D03*
Y307500D02*
D03*
Y312500D02*
D03*
X630500Y317500D02*
D03*
Y322500D02*
D03*
X630500Y327500D02*
D03*
Y332500D02*
D03*
Y337500D02*
D03*
Y342500D02*
D03*
Y347500D02*
D03*
Y352500D02*
D03*
Y357500D02*
D03*
Y362500D02*
D03*
Y367500D02*
D03*
Y372500D02*
D03*
X630500Y377500D02*
D03*
M02*
