G04 Layer_Physical_Order=1*
G04 Layer_Color=255*
%FSLAX44Y44*%
%MOMM*%
G71*
G01*
G75*
%ADD10R,0.6000X0.6000*%
%ADD11R,0.6000X0.6000*%
%ADD12O,1.7000X0.3500*%
%ADD13R,2.2000X5.5000*%
%ADD14O,2.1500X0.6000*%
%ADD15C,1.5000*%
%ADD16O,0.3500X1.7000*%
%ADD17R,5.5000X2.2000*%
G04:AMPARAMS|DCode=18|XSize=1.2mm|YSize=0.5mm|CornerRadius=0.125mm|HoleSize=0mm|Usage=FLASHONLY|Rotation=90.000|XOffset=0mm|YOffset=0mm|HoleType=Round|Shape=RoundedRectangle|*
%AMROUNDEDRECTD18*
21,1,1.2000,0.2500,0,0,90.0*
21,1,0.9500,0.5000,0,0,90.0*
1,1,0.2500,0.1250,0.4750*
1,1,0.2500,0.1250,-0.4750*
1,1,0.2500,-0.1250,-0.4750*
1,1,0.2500,-0.1250,0.4750*
%
%ADD18ROUNDEDRECTD18*%
%ADD19R,3.0000X2.3000*%
%ADD20R,1.3000X3.5000*%
%ADD21O,0.6000X2.1500*%
%ADD22R,3.5000X1.3000*%
%ADD23R,6.5000X2.0000*%
%ADD24O,2.5000X0.7000*%
%ADD25R,1.1000X1.6000*%
%ADD26R,1.0000X1.5000*%
%ADD27R,1.5000X1.0000*%
%ADD28C,0.2500*%
%ADD29C,0.3500*%
%ADD30C,0.5000*%
%ADD31C,0.3000*%
%ADD32C,1.0000*%
%ADD33R,1.5000X1.5000*%
%ADD34C,1.6000*%
%ADD35R,1.5000X1.5000*%
%ADD36C,1.3500*%
%ADD37C,1.5240*%
%ADD38R,0.8000X1.0000*%
G04:AMPARAMS|DCode=39|XSize=0.8mm|YSize=1mm|CornerRadius=0mm|HoleSize=0mm|Usage=FLASHONLY|Rotation=45.000|XOffset=0mm|YOffset=0mm|HoleType=Round|Shape=Rectangle|*
%AMROTATEDRECTD39*
4,1,4,0.0707,-0.6364,-0.6364,0.0707,-0.0707,0.6364,0.6364,-0.0707,0.0707,-0.6364,0.0*
%
%ADD39ROTATEDRECTD39*%

%ADD40R,1.0000X0.8000*%
%ADD41C,0.7000*%
%ADD42C,0.6000*%
G36*
X524018Y257017D02*
X524011Y257006D01*
X523662Y255250D01*
Y239750D01*
X524011Y237994D01*
X525006Y236506D01*
X526494Y235511D01*
X528250Y235162D01*
X530006Y235511D01*
X531145Y236273D01*
X531848Y236358D01*
X532689Y236008D01*
X533017Y235517D01*
X540517Y228017D01*
X541427Y227410D01*
X542500Y227196D01*
X563182D01*
X580360Y210017D01*
X581270Y209410D01*
X582343Y209196D01*
X603025D01*
X639204Y173017D01*
X640113Y172410D01*
X641186Y172196D01*
X647876D01*
Y172000D01*
X648352Y170852D01*
X649500Y170376D01*
X655500D01*
X656648Y170852D01*
X657124Y172000D01*
Y172196D01*
X672500D01*
X673573Y172410D01*
X674483Y173017D01*
X676755Y175290D01*
X708757D01*
X709188Y174020D01*
X708331Y173363D01*
X706889Y171483D01*
X705982Y169293D01*
X705672Y166944D01*
X705982Y164594D01*
X706889Y162405D01*
X708331Y160525D01*
X710211Y159082D01*
X710232Y159074D01*
X709979Y157804D01*
X651161D01*
X606983Y201983D01*
X606073Y202590D01*
X605000Y202804D01*
X581161D01*
X564485Y219480D01*
X564588Y220000D01*
X564239Y221756D01*
X563244Y223244D01*
X561756Y224239D01*
X560000Y224588D01*
X558244Y224239D01*
X556756Y223244D01*
X555761Y221756D01*
X555412Y220000D01*
X555761Y218244D01*
X556756Y216756D01*
X558244Y215761D01*
X560000Y215412D01*
X560520Y215515D01*
X578017Y198017D01*
X578927Y197410D01*
X580000Y197196D01*
X603839D01*
X647436Y153598D01*
X646910Y152328D01*
X601470D01*
X601282Y153598D01*
X601435Y153645D01*
X604953Y155525D01*
X608037Y158056D01*
X610567Y161139D01*
X612448Y164657D01*
X613605Y168474D01*
X613997Y172444D01*
X613605Y176414D01*
X612448Y180231D01*
X610567Y183749D01*
X608037Y186832D01*
X604953Y189363D01*
X601435Y191243D01*
X597618Y192401D01*
X593648Y192792D01*
X589679Y192401D01*
X585862Y191243D01*
X582344Y189363D01*
X579260Y186832D01*
X576730Y183749D01*
X574849Y180231D01*
X573691Y176414D01*
X573301Y172444D01*
X573691Y168474D01*
X574849Y164657D01*
X576730Y161139D01*
X579260Y158056D01*
X582344Y155525D01*
X585862Y153645D01*
X586015Y153598D01*
X585826Y152328D01*
X538784D01*
X538298Y153502D01*
X548648Y163852D01*
X549123Y165000D01*
Y187500D01*
X548648Y188648D01*
X547500Y189123D01*
X524700Y189124D01*
X510000Y189124D01*
X508852Y188648D01*
X508376Y187500D01*
X508376Y152500D01*
X508262Y152328D01*
X483189D01*
X479924Y155594D01*
Y184156D01*
X502884Y207116D01*
X502884Y207116D01*
X503768Y208439D01*
X504078Y210000D01*
X504078Y210000D01*
Y258323D01*
X504148Y258352D01*
X504177Y258422D01*
X510811D01*
X511472Y257761D01*
Y257246D01*
X511311Y257006D01*
X510962Y255250D01*
Y239750D01*
X511311Y237994D01*
X512306Y236506D01*
X513794Y235511D01*
X515550Y235162D01*
X517306Y235511D01*
X518794Y236506D01*
X519789Y237994D01*
X520138Y239750D01*
Y255250D01*
X519789Y257006D01*
X519628Y257246D01*
Y259450D01*
X519628Y259450D01*
X519572Y259734D01*
X520759Y260276D01*
X524018Y257017D01*
D02*
G37*
G36*
X547500Y187500D02*
Y165000D01*
X535000Y152500D01*
X510000D01*
X510000Y187500D01*
X547500Y187500D01*
D02*
G37*
G36*
X822876Y215500D02*
Y209500D01*
X823352Y208352D01*
X824500Y207876D01*
X824696D01*
Y198337D01*
X823426Y197906D01*
X822769Y198763D01*
X820889Y200205D01*
X818699Y201112D01*
X816350Y201422D01*
X814000Y201112D01*
X812266Y200394D01*
X804195Y208465D01*
X804624Y209500D01*
Y215500D01*
X804817Y215790D01*
X822683D01*
X822876Y215500D01*
D02*
G37*
G36*
X834314Y554191D02*
X864947Y552686D01*
X895515Y550179D01*
X925984Y546674D01*
X956322Y542174D01*
X986497Y536683D01*
X1016475Y530209D01*
X1046226Y522756D01*
X1075717Y514335D01*
X1104917Y504953D01*
X1133794Y494620D01*
X1147035Y489388D01*
X1148216Y488921D01*
X1149417Y488504D01*
X1154502Y485996D01*
X1159638Y482565D01*
X1164282Y478492D01*
X1168355Y473847D01*
X1171787Y468711D01*
X1174519Y463171D01*
X1176505Y457322D01*
X1177710Y451263D01*
X1177808Y449763D01*
X1177808D01*
X1177883Y449699D01*
X1177989Y448090D01*
X1179338Y441308D01*
X1181560Y434760D01*
X1184619Y428559D01*
X1188460Y422809D01*
X1193020Y417610D01*
X1198219Y413051D01*
X1203968Y409209D01*
X1210170Y406151D01*
X1216718Y403928D01*
X1223500Y402579D01*
X1230399Y402127D01*
X1237300Y402579D01*
X1244081Y403928D01*
X1250629Y406151D01*
X1255958Y408778D01*
X1256831Y409209D01*
X1257080Y409375D01*
X1258177Y410013D01*
X1262816Y412301D01*
X1268665Y414286D01*
X1274724Y415491D01*
X1280888Y415895D01*
X1287052Y415491D01*
X1293110Y414286D01*
X1298960Y412301D01*
X1304500Y409569D01*
X1306163Y408457D01*
X1306163Y408457D01*
X1306175Y408460D01*
X1324356Y396738D01*
X1349575Y379283D01*
X1374209Y361013D01*
X1398233Y341947D01*
X1421619Y322105D01*
X1444344Y301508D01*
X1466383Y280179D01*
X1487712Y258140D01*
X1508309Y235415D01*
X1528151Y212028D01*
X1547218Y188005D01*
X1565488Y163370D01*
X1582942Y138151D01*
X1599562Y112375D01*
X1615329Y86068D01*
X1630228Y59260D01*
X1644241Y31978D01*
X1644600Y31219D01*
Y1263D01*
X1644600Y1251D01*
X1644600Y0D01*
X1644544Y-1247D01*
X1644182Y-5842D01*
X1642814Y-11540D01*
X1640572Y-16954D01*
X1637510Y-21951D01*
X1633704Y-26407D01*
X1629248Y-30213D01*
X1624251Y-33275D01*
X1618837Y-35517D01*
X1613139Y-36885D01*
X1607297Y-37345D01*
X1601455Y-36885D01*
X1595757Y-35517D01*
X1590343Y-33275D01*
X1585915Y-30562D01*
X1585915Y-30562D01*
X1585915Y-30562D01*
X1585836Y-30575D01*
X1583347Y-28810D01*
X1577179Y-25401D01*
X1570667Y-22703D01*
X1563895Y-20752D01*
X1556947Y-19572D01*
X1549910Y-19176D01*
Y-19222D01*
X1350690D01*
X1350502Y-19259D01*
X1343217Y-18781D01*
X1335873Y-17320D01*
X1328783Y-14913D01*
X1322067Y-11602D01*
X1315841Y-7441D01*
X1310211Y-2504D01*
X1306127Y2153D01*
X1305315Y3094D01*
X1305103Y3389D01*
X1305078Y3406D01*
X1304553Y4100D01*
X1300654Y9251D01*
X1284888Y28461D01*
X1268381Y47038D01*
X1251156Y64952D01*
X1233242Y82176D01*
X1214666Y98684D01*
X1195456Y114449D01*
X1175641Y129448D01*
X1156338Y142902D01*
X1156737Y144172D01*
X1290910D01*
X1290910Y144172D01*
X1292471Y144482D01*
X1293794Y145366D01*
X1310761Y162333D01*
X1311413Y161681D01*
X1312561Y161206D01*
X1313709Y161681D01*
X1315449Y163422D01*
X1322888D01*
X1322888Y163422D01*
X1324449Y163732D01*
X1325772Y164616D01*
X1342779Y181623D01*
X1342779Y181623D01*
X1343663Y182946D01*
X1343974Y184507D01*
Y191946D01*
X1345882Y193855D01*
X1346358Y195003D01*
X1345882Y196151D01*
X1338811Y203222D01*
X1337663Y203697D01*
X1336515Y203222D01*
X1330858Y197565D01*
X1330383Y196417D01*
X1330858Y195269D01*
X1329972Y194383D01*
X1328824Y194859D01*
X1327676Y194383D01*
X1322019Y188726D01*
X1321952Y188563D01*
X1319000Y185612D01*
X1318837Y185544D01*
X1313180Y179888D01*
X1312705Y178739D01*
X1313180Y177591D01*
X1312294Y176705D01*
X1311146Y177181D01*
X1309998Y176705D01*
X1304341Y171049D01*
X1303866Y169901D01*
X1304341Y168752D01*
X1304993Y168101D01*
X1289221Y152328D01*
X1109078D01*
Y237104D01*
X1109710Y238049D01*
X1109932Y239164D01*
X1113639Y242872D01*
X1122754D01*
X1122994Y242711D01*
X1124750Y242362D01*
X1140250D01*
X1142006Y242711D01*
X1142246Y242872D01*
X1149450D01*
X1149474Y242876D01*
X1153000D01*
X1154148Y243352D01*
X1154624Y244500D01*
Y250500D01*
X1154148Y251648D01*
X1153000Y252124D01*
X1147000D01*
X1145852Y251648D01*
X1145595Y251028D01*
X1142246D01*
X1142006Y251189D01*
X1140250Y251538D01*
X1124750D01*
X1122994Y251189D01*
X1122754Y251028D01*
X1111950D01*
X1111950Y251028D01*
X1110389Y250718D01*
X1109066Y249834D01*
X1104164Y244932D01*
X1103049Y244710D01*
X1101395Y243605D01*
X1100290Y241951D01*
X1099902Y240000D01*
X1100290Y238049D01*
X1100922Y237104D01*
Y152328D01*
X1021470D01*
X1021282Y153598D01*
X1021435Y153645D01*
X1024953Y155525D01*
X1028037Y158056D01*
X1030567Y161139D01*
X1032448Y164657D01*
X1033605Y168474D01*
X1033996Y172444D01*
X1033605Y176414D01*
X1032448Y180231D01*
X1030567Y183749D01*
X1028037Y186832D01*
X1024953Y189363D01*
X1021435Y191243D01*
X1017618Y192401D01*
X1013649Y192792D01*
X1009679Y192401D01*
X1005862Y191243D01*
X1002344Y189363D01*
X999260Y186832D01*
X996730Y183749D01*
X994849Y180231D01*
X993691Y176414D01*
X993300Y172444D01*
X993691Y168474D01*
X994849Y164657D01*
X996730Y161139D01*
X999260Y158056D01*
X1002344Y155525D01*
X1005862Y153645D01*
X1006015Y153598D01*
X1005827Y152328D01*
X730590D01*
X730064Y153598D01*
X735575Y159110D01*
X735611Y159082D01*
X737801Y158176D01*
X740150Y157866D01*
X742499Y158176D01*
X744689Y159082D01*
X746569Y160525D01*
X748011Y162405D01*
X748918Y164594D01*
X749228Y166944D01*
X748918Y169293D01*
X748011Y171483D01*
X746569Y173363D01*
X744689Y174805D01*
X742499Y175712D01*
X740150Y176021D01*
X737801Y175712D01*
X735611Y174805D01*
X733731Y173363D01*
X732289Y171483D01*
X731382Y169293D01*
X731072Y166944D01*
X731382Y164594D01*
X731893Y163359D01*
X726339Y157804D01*
X719521D01*
X719268Y159074D01*
X719289Y159082D01*
X721169Y160525D01*
X722611Y162405D01*
X723518Y164594D01*
X723828Y166944D01*
X723518Y169293D01*
X722611Y171483D01*
X721169Y173363D01*
X720312Y174020D01*
X720743Y175290D01*
X725900D01*
X726973Y175504D01*
X727883Y176111D01*
X736066Y184294D01*
X737801Y183576D01*
X740150Y183266D01*
X742499Y183576D01*
X744689Y184482D01*
X746569Y185925D01*
X748011Y187805D01*
X748426Y188806D01*
X749696Y188554D01*
Y187500D01*
X749910Y186427D01*
X750517Y185517D01*
X758017Y178017D01*
X758927Y177410D01*
X760000Y177196D01*
X764742D01*
X764825Y175926D01*
X763201Y175712D01*
X761011Y174805D01*
X759131Y173363D01*
X757689Y171483D01*
X756782Y169293D01*
X756472Y166944D01*
X756782Y164594D01*
X757689Y162405D01*
X759131Y160525D01*
X761011Y159082D01*
X763201Y158176D01*
X765550Y157866D01*
X767899Y158176D01*
X770089Y159082D01*
X771969Y160525D01*
X773411Y162405D01*
X774318Y164594D01*
X774628Y166944D01*
X774318Y169293D01*
X773411Y171483D01*
X771969Y173363D01*
X770089Y174805D01*
X767899Y175712D01*
X766275Y175926D01*
X766358Y177196D01*
X776732D01*
X782900Y171028D01*
X782182Y169293D01*
X781872Y166944D01*
X782182Y164594D01*
X783089Y162405D01*
X784531Y160525D01*
X786411Y159082D01*
X788600Y158176D01*
X790950Y157866D01*
X793299Y158176D01*
X795489Y159082D01*
X797369Y160525D01*
X798811Y162405D01*
X799718Y164594D01*
X800028Y166944D01*
X799718Y169293D01*
X798811Y171483D01*
X797369Y173363D01*
X795489Y174805D01*
X793299Y175712D01*
X790950Y176021D01*
X788600Y175712D01*
X786866Y174994D01*
X779876Y181983D01*
X778967Y182590D01*
X777894Y182804D01*
X769355D01*
X769102Y184074D01*
X770089Y184482D01*
X771969Y185925D01*
X773411Y187805D01*
X774318Y189994D01*
X774628Y192344D01*
X774318Y194693D01*
X773411Y196883D01*
X771969Y198763D01*
X770089Y200205D01*
X767899Y201112D01*
X765550Y201422D01*
X763201Y201112D01*
X761011Y200205D01*
X759131Y198763D01*
X757689Y196883D01*
X756782Y194693D01*
X756574Y193115D01*
X755304Y193198D01*
Y197500D01*
X755090Y198573D01*
X754483Y199483D01*
X751348Y202617D01*
X751834Y203790D01*
X775539D01*
X782900Y196428D01*
X782182Y194693D01*
X781872Y192344D01*
X782182Y189994D01*
X783089Y187805D01*
X784531Y185925D01*
X786411Y184482D01*
X788600Y183576D01*
X790950Y183266D01*
X793299Y183576D01*
X795489Y184482D01*
X797369Y185925D01*
X798426Y187303D01*
X799696Y186872D01*
Y180794D01*
X799910Y179721D01*
X800517Y178811D01*
X808300Y171028D01*
X807582Y169293D01*
X807272Y166944D01*
X807582Y164594D01*
X808489Y162405D01*
X809931Y160525D01*
X811811Y159082D01*
X814000Y158176D01*
X816350Y157866D01*
X818699Y158176D01*
X820889Y159082D01*
X822769Y160525D01*
X824212Y162405D01*
X825118Y164594D01*
X825428Y166944D01*
X825118Y169293D01*
X824400Y171028D01*
X829483Y176111D01*
X830090Y177021D01*
X830304Y178094D01*
Y207876D01*
X830500D01*
X831648Y208352D01*
X832124Y209500D01*
Y215500D01*
X832317Y215790D01*
X852683D01*
X852876Y215500D01*
Y209500D01*
X853352Y208352D01*
X854500Y207876D01*
X854696D01*
Y201161D01*
X850740Y197205D01*
X849182Y197443D01*
X848169Y198763D01*
X846289Y200205D01*
X844100Y201112D01*
X841750Y201422D01*
X839400Y201112D01*
X837211Y200205D01*
X835331Y198763D01*
X833889Y196883D01*
X832982Y194693D01*
X832672Y192344D01*
X832982Y189994D01*
X833889Y187805D01*
X835331Y185925D01*
X837211Y184482D01*
X839400Y183576D01*
X841750Y183266D01*
X844100Y183576D01*
X846289Y184482D01*
X848169Y185925D01*
X849612Y187805D01*
X850374Y189645D01*
X850917Y189753D01*
X851826Y190361D01*
X857607Y196142D01*
X858684Y195422D01*
X858382Y194693D01*
X858072Y192344D01*
X858382Y189994D01*
X859289Y187805D01*
X860731Y185925D01*
X862611Y184482D01*
X864800Y183576D01*
X867150Y183266D01*
X869500Y183576D01*
X871689Y184482D01*
X873569Y185925D01*
X875012Y187805D01*
X875918Y189994D01*
X876228Y192344D01*
X875918Y194693D01*
X875012Y196883D01*
X873569Y198763D01*
X871689Y200205D01*
X869954Y200924D01*
Y207876D01*
X870500D01*
X871648Y208352D01*
X872124Y209500D01*
Y215500D01*
X872317Y215790D01*
X892683D01*
X892876Y215500D01*
Y209500D01*
X893352Y208352D01*
X894500Y207876D01*
X894696D01*
Y202102D01*
X893741Y201265D01*
X892550Y201422D01*
X890201Y201112D01*
X888011Y200205D01*
X886131Y198763D01*
X884689Y196883D01*
X883782Y194693D01*
X883472Y192344D01*
X883782Y189994D01*
X884689Y187805D01*
X886131Y185925D01*
X888011Y184482D01*
X890201Y183576D01*
X892550Y183266D01*
X894900Y183576D01*
X897089Y184482D01*
X898969Y185925D01*
X900412Y187805D01*
X901318Y189994D01*
X901628Y192344D01*
X901318Y194693D01*
X900412Y196883D01*
X900261Y197079D01*
X900304Y197294D01*
Y207876D01*
X900500D01*
X901648Y208352D01*
X901813Y208749D01*
X903187D01*
X903352Y208352D01*
X904500Y207876D01*
X904696D01*
Y202794D01*
X904910Y201721D01*
X905517Y200811D01*
X909900Y196428D01*
X909182Y194693D01*
X908872Y192344D01*
X909182Y189994D01*
X910089Y187805D01*
X911531Y185925D01*
X913411Y184482D01*
X915601Y183576D01*
X917950Y183266D01*
X920300Y183576D01*
X922489Y184482D01*
X924369Y185925D01*
X925811Y187805D01*
X926718Y189994D01*
X927028Y192344D01*
X926718Y194693D01*
X925811Y196883D01*
X924369Y198763D01*
X922489Y200205D01*
X920300Y201112D01*
X917950Y201422D01*
X915601Y201112D01*
X913866Y200394D01*
X910304Y203955D01*
Y207876D01*
X910500D01*
X911648Y208352D01*
X912124Y209500D01*
Y215500D01*
X912317Y215790D01*
X1015245D01*
X1024461Y206574D01*
X1023935Y205304D01*
X977500D01*
X976427Y205090D01*
X975517Y204483D01*
X953158Y182124D01*
X949500D01*
X948352Y181648D01*
X948187Y181251D01*
X946813D01*
X946648Y181648D01*
X945500Y182124D01*
X939500D01*
X938352Y181648D01*
X937876Y180500D01*
Y176842D01*
X930782Y169748D01*
X926530D01*
X925811Y171483D01*
X924369Y173363D01*
X922489Y174805D01*
X920300Y175712D01*
X917950Y176021D01*
X915601Y175712D01*
X913411Y174805D01*
X911531Y173363D01*
X910089Y171483D01*
X909182Y169293D01*
X908872Y166944D01*
X909182Y164594D01*
X910089Y162405D01*
X911345Y160768D01*
X910964Y159498D01*
X903961D01*
X900600Y162859D01*
X901318Y164594D01*
X901628Y166944D01*
X901318Y169293D01*
X900412Y171483D01*
X898969Y173363D01*
X897089Y174805D01*
X894900Y175712D01*
X892550Y176021D01*
X890201Y175712D01*
X888011Y174805D01*
X886131Y173363D01*
X884689Y171483D01*
X883782Y169293D01*
X883472Y166944D01*
X883782Y164594D01*
X884689Y162405D01*
X886131Y160525D01*
X888011Y159082D01*
X890201Y158176D01*
X892550Y157866D01*
X894900Y158176D01*
X896634Y158894D01*
X900817Y154711D01*
X901727Y154103D01*
X902800Y153890D01*
X931694D01*
X932767Y154103D01*
X933677Y154711D01*
X951842Y172876D01*
X955500D01*
X956648Y173352D01*
X957124Y174500D01*
Y178158D01*
X978661Y199696D01*
X1023839D01*
X1056752Y166783D01*
X1057017Y166386D01*
X1060386Y163017D01*
X1061295Y162410D01*
X1062368Y162196D01*
X1085000D01*
X1086073Y162410D01*
X1086983Y163017D01*
X1089483Y165517D01*
X1090090Y166427D01*
X1090304Y167500D01*
Y175000D01*
X1090090Y176073D01*
X1089483Y176983D01*
X1084536Y181929D01*
X1084838Y183450D01*
X1084489Y185206D01*
X1083494Y186694D01*
X1082006Y187689D01*
X1080250Y188038D01*
X1064750D01*
X1062994Y187689D01*
X1061506Y186694D01*
X1060511Y185206D01*
X1060162Y183450D01*
X1060511Y181694D01*
X1061506Y180206D01*
X1062994Y179211D01*
X1064750Y178862D01*
X1079673D01*
X1082394Y176140D01*
X1081686Y175053D01*
X1080250Y175338D01*
X1064750D01*
X1063813Y175152D01*
X1046889Y192076D01*
X1047415Y193346D01*
X1061211D01*
X1061506Y192906D01*
X1062994Y191911D01*
X1064750Y191562D01*
X1080250D01*
X1082006Y191911D01*
X1083494Y192906D01*
X1084489Y194394D01*
X1084838Y196150D01*
X1084489Y197906D01*
X1083494Y199394D01*
X1082006Y200389D01*
X1080250Y200738D01*
X1064750D01*
X1062994Y200389D01*
X1061506Y199394D01*
X1061211Y198954D01*
X1047511D01*
X1042881Y203585D01*
X1043407Y204855D01*
X1048000D01*
X1049148Y205330D01*
X1049624Y206478D01*
Y207196D01*
X1053961D01*
X1054256Y206756D01*
X1055744Y205761D01*
X1057500Y205412D01*
X1059256Y205761D01*
X1059682Y206046D01*
X1061211D01*
X1061506Y205606D01*
X1062994Y204611D01*
X1064750Y204262D01*
X1080250D01*
X1082006Y204611D01*
X1083494Y205606D01*
X1084489Y207094D01*
X1084838Y208850D01*
X1084489Y210606D01*
X1083494Y212094D01*
X1082006Y213089D01*
X1080250Y213438D01*
X1064750D01*
X1062994Y213089D01*
X1061511Y212098D01*
X1060744Y213244D01*
X1059256Y214239D01*
X1057500Y214588D01*
X1055744Y214239D01*
X1054256Y213244D01*
X1053961Y212804D01*
X1049489D01*
X1049148Y213626D01*
X1048000Y214102D01*
X1042000D01*
X1040852Y213626D01*
X1040376Y212478D01*
Y207885D01*
X1039106Y207359D01*
X1023039Y223426D01*
X1023565Y224696D01*
X1056339D01*
X1060330Y220705D01*
X1060511Y219794D01*
X1061506Y218306D01*
X1062994Y217311D01*
X1064750Y216962D01*
X1080250D01*
X1082006Y217311D01*
X1083494Y218306D01*
X1084489Y219794D01*
X1084838Y221550D01*
X1084489Y223306D01*
X1083494Y224794D01*
X1082006Y225789D01*
X1080250Y226138D01*
X1064750D01*
X1063146Y225819D01*
X1059483Y229483D01*
X1059449Y229505D01*
X1059388Y229906D01*
X1059556Y230961D01*
X1060281Y231446D01*
X1061211D01*
X1061506Y231006D01*
X1062994Y230011D01*
X1064750Y229662D01*
X1080250D01*
X1082006Y230011D01*
X1083494Y231006D01*
X1084489Y232494D01*
X1084838Y234250D01*
X1084489Y236006D01*
X1083494Y237494D01*
X1082006Y238489D01*
X1080250Y238838D01*
X1064750D01*
X1062994Y238489D01*
X1062382Y238080D01*
X1060744Y238244D01*
X1059256Y239239D01*
X1057500Y239588D01*
X1055744Y239239D01*
X1054256Y238244D01*
X1053961Y237804D01*
X1047124D01*
Y240500D01*
X1046648Y241648D01*
X1046667Y242986D01*
X1047335Y243636D01*
X1061609D01*
X1062994Y242711D01*
X1064750Y242362D01*
X1080250D01*
X1082006Y242711D01*
X1083494Y243706D01*
X1084489Y245194D01*
X1084838Y246950D01*
X1084489Y248706D01*
X1083494Y250194D01*
X1082006Y251189D01*
X1080250Y251538D01*
X1064750D01*
X1062994Y251189D01*
X1061609Y250264D01*
X1047124D01*
Y250500D01*
X1046648Y251648D01*
X1045500Y252124D01*
X1039500D01*
X1038352Y251648D01*
X1038323Y251578D01*
X1035396D01*
X1034451Y252210D01*
X1032500Y252598D01*
X1030549Y252210D01*
X1028895Y251105D01*
X1027790Y249451D01*
X1027402Y247500D01*
X1027790Y245549D01*
X1028895Y243895D01*
X1030549Y242790D01*
X1032500Y242402D01*
X1034451Y242790D01*
X1035396Y243422D01*
X1038323D01*
X1038352Y243352D01*
X1038749Y243187D01*
Y241813D01*
X1038352Y241648D01*
X1037876Y240500D01*
Y234500D01*
X1038352Y233352D01*
X1039500Y232876D01*
X1043228D01*
X1043927Y232410D01*
X1045000Y232196D01*
X1053521D01*
X1054012Y231574D01*
X1053407Y230304D01*
X702571D01*
X702304Y231089D01*
X702243Y231574D01*
X703555Y233283D01*
X704386Y235290D01*
X704670Y237444D01*
X704386Y239598D01*
X703555Y241604D01*
X702232Y243328D01*
X700509Y244650D01*
X698502Y245482D01*
X696348Y245765D01*
X695564Y246453D01*
Y289000D01*
Y295750D01*
X695311Y297018D01*
X694593Y298093D01*
X693518Y298811D01*
X692250Y299064D01*
X690982Y298811D01*
X689907Y298093D01*
X689764Y297879D01*
X688236D01*
X688093Y298093D01*
X687018Y298811D01*
X685750Y299064D01*
X684482Y298811D01*
X683407Y298093D01*
X683264Y297879D01*
X681736D01*
X681593Y298093D01*
X680518Y298811D01*
X679250Y299064D01*
X677982Y298811D01*
X676907Y298093D01*
X676764Y297879D01*
X675236D01*
X675093Y298093D01*
X674018Y298811D01*
X672750Y299064D01*
X671482Y298811D01*
X670407Y298093D01*
X669689Y297018D01*
X669436Y295750D01*
Y282250D01*
X669689Y280982D01*
X669946Y280597D01*
Y276411D01*
X659084Y265550D01*
X657349Y266268D01*
X655000Y266578D01*
X652651Y266268D01*
X650461Y265361D01*
X648581Y263919D01*
X647139Y262039D01*
X646232Y259849D01*
X645922Y257500D01*
X646232Y255151D01*
X647139Y252961D01*
X648581Y251081D01*
X650461Y249639D01*
X652651Y248732D01*
X655000Y248422D01*
X657349Y248732D01*
X659539Y249639D01*
X661419Y251081D01*
X662861Y252961D01*
X663768Y255151D01*
X664078Y257500D01*
X663768Y259849D01*
X663050Y261584D01*
X669822Y268357D01*
X670961Y267795D01*
X670922Y267500D01*
X671232Y265151D01*
X672139Y262961D01*
X673581Y261081D01*
X675461Y259639D01*
X677651Y258732D01*
X680000Y258422D01*
X682349Y258732D01*
X684539Y259639D01*
X686419Y261081D01*
X687666Y262707D01*
X688748Y262479D01*
X688936Y262377D01*
Y241542D01*
X688995Y241249D01*
X688311Y239598D01*
X688027Y237444D01*
X688311Y235290D01*
X689142Y233283D01*
X690454Y231574D01*
X690393Y231089D01*
X690126Y230304D01*
X677171D01*
X676904Y231089D01*
X676843Y231574D01*
X678155Y233283D01*
X678986Y235290D01*
X679270Y237444D01*
X678986Y239598D01*
X678155Y241604D01*
X676832Y243328D01*
X675109Y244650D01*
X673102Y245482D01*
X670948Y245765D01*
X668795Y245482D01*
X666788Y244650D01*
X665064Y243328D01*
X663742Y241604D01*
X662911Y239598D01*
X662627Y237444D01*
X662911Y235290D01*
X663742Y233283D01*
X665054Y231574D01*
X664993Y231089D01*
X664726Y230304D01*
X656161D01*
X620304Y266161D01*
Y283961D01*
X620744Y284256D01*
X621739Y285744D01*
X622088Y287500D01*
X621739Y289256D01*
X620744Y290744D01*
X619256Y291739D01*
X617500Y292088D01*
X615744Y291739D01*
X614256Y290744D01*
X613261Y289256D01*
X612912Y287500D01*
X613261Y285744D01*
X614256Y284256D01*
X614696Y283961D01*
Y265000D01*
X614910Y263927D01*
X615517Y263017D01*
X643686Y234849D01*
X643218Y233520D01*
X642885Y233484D01*
X641756Y234239D01*
X640000Y234588D01*
X638244Y234239D01*
X636756Y233244D01*
X635761Y231756D01*
X635412Y230000D01*
X635761Y228244D01*
X636756Y226756D01*
Y225744D01*
X635761Y224256D01*
X635412Y222500D01*
X635761Y220744D01*
X636756Y219256D01*
X637636Y218668D01*
X637250Y217398D01*
X631567D01*
X612983Y235983D01*
X612073Y236590D01*
X611000Y236804D01*
X602161D01*
X600304Y238661D01*
Y291339D01*
X604181Y295215D01*
X604450Y295162D01*
X606206Y295511D01*
X607694Y296506D01*
X608689Y297994D01*
X609038Y299750D01*
Y315250D01*
X608689Y317006D01*
X607694Y318494D01*
X606206Y319489D01*
X604450Y319838D01*
X602694Y319489D01*
X601206Y318494D01*
X600211Y317006D01*
X599862Y315250D01*
Y299750D01*
X600015Y298980D01*
X595517Y294483D01*
X594910Y293573D01*
X594696Y292500D01*
Y260041D01*
X593699Y259508D01*
X593426Y259505D01*
X591750Y259838D01*
X589994Y259489D01*
X589074Y258874D01*
X587804Y259553D01*
Y295000D01*
X587678Y295632D01*
X588844Y296280D01*
X589994Y295511D01*
X591750Y295162D01*
X593506Y295511D01*
X594994Y296506D01*
X595989Y297994D01*
X596338Y299750D01*
Y315250D01*
X595989Y317006D01*
X594994Y318494D01*
X593506Y319489D01*
X591750Y319838D01*
X591647Y319818D01*
X586983Y324483D01*
X586073Y325090D01*
X585000Y325304D01*
X576039D01*
X575744Y325744D01*
X574256Y326739D01*
X572500Y327088D01*
X570744Y326739D01*
X570730Y326729D01*
X569587Y327493D01*
X569588Y327500D01*
X569239Y329256D01*
X568244Y330744D01*
X566756Y331739D01*
X565000Y332088D01*
X563244Y331739D01*
X561756Y330744D01*
X560761Y329256D01*
X560412Y327500D01*
X560761Y325744D01*
X560770Y325731D01*
X560064Y324501D01*
X558744Y324239D01*
X557256Y323244D01*
X556261Y321756D01*
X555912Y320000D01*
X556261Y318244D01*
X557196Y316845D01*
Y275000D01*
X557410Y273927D01*
X558017Y273017D01*
X574681Y256353D01*
X574462Y255250D01*
Y239750D01*
X574698Y238563D01*
X573527Y237938D01*
X570938Y240527D01*
Y255250D01*
X570589Y257006D01*
X569594Y258494D01*
X568106Y259489D01*
X566350Y259838D01*
X564594Y259489D01*
X563106Y258494D01*
X562111Y257006D01*
X561762Y255250D01*
Y239750D01*
X562095Y238074D01*
X562092Y237801D01*
X561559Y236804D01*
X558441D01*
X557908Y237801D01*
X557905Y238074D01*
X558238Y239750D01*
Y255250D01*
X557889Y257006D01*
X556894Y258494D01*
X555406Y259489D01*
X554245Y259720D01*
X550304Y263661D01*
Y316461D01*
X550744Y316756D01*
X551739Y318244D01*
X552088Y320000D01*
X551739Y321756D01*
X550744Y323244D01*
X549256Y324239D01*
X547500Y324588D01*
X545744Y324239D01*
X544256Y323244D01*
X543261Y321756D01*
X543035Y320620D01*
X542850Y319985D01*
X541678Y319693D01*
X540950Y319838D01*
X539194Y319489D01*
X537706Y318494D01*
X536711Y317006D01*
X536362Y315250D01*
Y299750D01*
X536681Y298146D01*
X533017Y294483D01*
X532410Y293573D01*
X532196Y292500D01*
Y259553D01*
X530926Y258874D01*
X530006Y259489D01*
X529345Y259620D01*
X525304Y263661D01*
Y294959D01*
X526301Y295492D01*
X526574Y295495D01*
X528250Y295162D01*
X530006Y295511D01*
X531494Y296506D01*
X532489Y297994D01*
X532838Y299750D01*
Y315250D01*
X532489Y317006D01*
X531494Y318494D01*
X531054Y318789D01*
Y321750D01*
X530840Y322823D01*
X530233Y323733D01*
X524233Y329733D01*
X523323Y330340D01*
X522250Y330554D01*
X500250D01*
X499177Y330340D01*
X499035Y330246D01*
X497744Y329989D01*
X496256Y328994D01*
X495261Y327506D01*
X494912Y325750D01*
X495261Y323994D01*
X496256Y322506D01*
X497744Y321511D01*
X499500Y321162D01*
X500446Y321350D01*
X500589Y321338D01*
X501484Y321065D01*
X501810Y320425D01*
X501910Y319927D01*
X501931Y319894D01*
X502011Y319494D01*
X503006Y318006D01*
X504494Y317011D01*
X506250Y316662D01*
X508006Y317011D01*
X509494Y318006D01*
X510489Y319494D01*
X510529Y319696D01*
X511818D01*
X512181Y318802D01*
X512260Y318426D01*
X511311Y317006D01*
X510962Y315250D01*
Y299750D01*
X511311Y297994D01*
X511472Y297754D01*
Y297239D01*
X510811Y296578D01*
X504177D01*
X504148Y296648D01*
X503000Y297124D01*
X497000D01*
X495852Y296648D01*
X495823Y296578D01*
X490000D01*
X490000Y296578D01*
X488439Y296268D01*
X487116Y295384D01*
X486664Y294932D01*
X485549Y294710D01*
X483895Y293605D01*
X482790Y291951D01*
X482402Y290000D01*
X482790Y288049D01*
X483895Y286395D01*
X485549Y285290D01*
X487500Y284902D01*
X489451Y285290D01*
X491105Y286395D01*
X492210Y288049D01*
X492284Y288422D01*
X495823D01*
X495852Y288352D01*
X497000Y287876D01*
X503000D01*
X504148Y288352D01*
X504177Y288422D01*
X512500D01*
X512500Y288422D01*
X514061Y288732D01*
X515384Y289616D01*
X518426Y292658D01*
X518459Y292658D01*
X519696Y292269D01*
Y262731D01*
X519139Y262408D01*
X518459Y262296D01*
X518434Y262334D01*
X515384Y265384D01*
X514061Y266268D01*
X512500Y266578D01*
X512500Y266578D01*
X504177D01*
X504148Y266648D01*
X503000Y267124D01*
X497000D01*
X495852Y266648D01*
X495376Y265500D01*
Y259500D01*
X495852Y258352D01*
X495922Y258323D01*
Y211689D01*
X473356Y189124D01*
X465300D01*
X464152Y188648D01*
X463676Y187500D01*
Y172730D01*
X431556D01*
Y188676D01*
X442500D01*
X443648Y189152D01*
X444124Y190300D01*
Y203300D01*
X443648Y204448D01*
X442500Y204924D01*
X407500D01*
X406352Y204448D01*
X405876Y203300D01*
Y190300D01*
X406352Y189152D01*
X407500Y188676D01*
X418444D01*
Y168890D01*
X413671Y164116D01*
X412608Y164163D01*
X410166Y163621D01*
X407947Y162466D01*
X406103Y160776D01*
X404759Y158667D01*
X404007Y156281D01*
X403898Y153782D01*
X404439Y151340D01*
X405594Y149121D01*
X406887Y147710D01*
Y141159D01*
X344784Y79056D01*
X309124D01*
Y80000D01*
X308648Y81148D01*
X307500Y81624D01*
X292500D01*
X291352Y81148D01*
X290876Y80000D01*
Y79056D01*
X267124D01*
Y83000D01*
X266648Y84148D01*
X265500Y84624D01*
X254500D01*
X253352Y84148D01*
X252876Y83000D01*
Y77148D01*
X245364Y69636D01*
X244322Y68278D01*
X243667Y66697D01*
X243444Y65000D01*
Y37500D01*
X243667Y35803D01*
X244322Y34222D01*
X245364Y32864D01*
X252664Y25564D01*
X254022Y24522D01*
X255603Y23867D01*
X257300Y23644D01*
X259749D01*
X259874Y22374D01*
X259049Y22210D01*
X258104Y21578D01*
X257500D01*
X257500Y21578D01*
X255939Y21268D01*
X254616Y20384D01*
X247116Y12884D01*
X246232Y11561D01*
X245922Y10000D01*
X245922Y10000D01*
Y7309D01*
X244765Y6853D01*
X244577Y6889D01*
X244078Y7424D01*
Y10000D01*
X243768Y11561D01*
X242884Y12884D01*
X242884Y12884D01*
X235384Y20384D01*
X234061Y21268D01*
X233064Y21466D01*
X231951Y22210D01*
X230000Y22598D01*
X225033D01*
X224278Y23178D01*
X222697Y23833D01*
X221000Y24056D01*
X212500D01*
X210803Y23833D01*
X209222Y23178D01*
X207864Y22136D01*
X205364Y19636D01*
X204322Y18278D01*
X203667Y16697D01*
X203444Y15000D01*
Y10216D01*
X199784Y6556D01*
X165216D01*
X157424Y14348D01*
Y45000D01*
X156948Y46148D01*
X155800Y46624D01*
X142800D01*
X141652Y46148D01*
X141176Y45000D01*
Y28648D01*
X140584Y28056D01*
X139124D01*
Y31500D01*
X138648Y32648D01*
X137500Y33124D01*
X72500D01*
X71352Y32648D01*
X70876Y31500D01*
Y11500D01*
X71352Y10352D01*
X72500Y9876D01*
X137500D01*
X138648Y10352D01*
X139124Y11500D01*
Y14944D01*
X141176D01*
Y10000D01*
X141652Y8852D01*
X142800Y8376D01*
X144852D01*
X157864Y-4636D01*
X159222Y-5678D01*
X160803Y-6333D01*
X162500Y-6556D01*
X202500D01*
X204197Y-6333D01*
X205778Y-5678D01*
X207136Y-4636D01*
X214636Y2864D01*
X215678Y4222D01*
X216333Y5803D01*
X216556Y7500D01*
Y10944D01*
X221000D01*
X222697Y11167D01*
X224278Y11822D01*
X225034Y12402D01*
X230000D01*
X231527Y12706D01*
X235922Y8311D01*
Y6677D01*
X235852Y6648D01*
X235376Y5500D01*
Y-500D01*
X235852Y-1648D01*
X237000Y-2124D01*
X243000D01*
X244148Y-1648D01*
X244313Y-1251D01*
X245687D01*
X245852Y-1648D01*
X247000Y-2124D01*
X253000D01*
X254148Y-1648D01*
X254624Y-500D01*
Y5500D01*
X254148Y6648D01*
X254078Y6677D01*
Y8311D01*
X258755Y12987D01*
X259049Y12790D01*
X261000Y12402D01*
X279000D01*
X280951Y12790D01*
X282605Y13895D01*
X283710Y15549D01*
X284098Y17500D01*
X283710Y19451D01*
X282605Y21105D01*
X280951Y22210D01*
X279000Y22598D01*
X271785D01*
X271697Y23867D01*
X273278Y24522D01*
X274034Y25102D01*
X279000D01*
X280951Y25490D01*
X282605Y26595D01*
X283710Y28249D01*
X284098Y30200D01*
X283710Y32151D01*
X282605Y33805D01*
X280951Y34910D01*
X279000Y35298D01*
X274034D01*
X273278Y35878D01*
X271697Y36533D01*
X271785Y37802D01*
X279000D01*
X280951Y38190D01*
X282605Y39295D01*
X283710Y40949D01*
X284098Y42900D01*
X283710Y44851D01*
X282605Y46505D01*
X280951Y47610D01*
X279000Y47998D01*
X261000D01*
X259049Y47610D01*
X257826Y46793D01*
X256556Y47361D01*
Y51139D01*
X257826Y51707D01*
X259049Y50890D01*
X261000Y50502D01*
X279000D01*
X280951Y50890D01*
X281896Y51522D01*
X282711D01*
X295376Y38856D01*
Y37000D01*
X295852Y35852D01*
X297000Y35376D01*
X303000D01*
X304148Y35852D01*
X304624Y37000D01*
Y43000D01*
X304148Y44148D01*
X303000Y44624D01*
X301144D01*
X287284Y58484D01*
X285961Y59368D01*
X284400Y59678D01*
X284400Y59678D01*
X281896D01*
X280951Y60310D01*
X279000Y60698D01*
X261000D01*
X259049Y60310D01*
X257826Y59493D01*
X256556Y60061D01*
Y62284D01*
X259648Y65376D01*
X265500D01*
X266648Y65852D01*
X266686Y65944D01*
X290876D01*
Y65000D01*
X291352Y63852D01*
X292500Y63376D01*
X307500D01*
X308648Y63852D01*
X309124Y65000D01*
Y65944D01*
X347500D01*
X349197Y66167D01*
X350778Y66822D01*
X352136Y67864D01*
X418079Y133807D01*
X419121Y135165D01*
X419776Y136746D01*
X419999Y138443D01*
Y147739D01*
X420783Y148458D01*
X422127Y150568D01*
X422879Y152953D01*
X422963Y154865D01*
X427716Y159618D01*
X463676D01*
Y152500D01*
X464152Y151352D01*
X465300Y150876D01*
X473106D01*
X477465Y146518D01*
X476939Y145248D01*
X455403D01*
X455403Y145248D01*
X454330Y145034D01*
X453836Y144805D01*
Y144805D01*
X452044Y143658D01*
X431656Y129448D01*
X411841Y114449D01*
X392631Y98684D01*
X374054Y82176D01*
X356140Y64952D01*
X338916Y47038D01*
X322409Y28461D01*
X306643Y9251D01*
X302744Y4100D01*
X302219Y3406D01*
X302194Y3389D01*
X301982Y3093D01*
X301170Y2153D01*
X297086Y-2504D01*
X291456Y-7441D01*
X285230Y-11602D01*
X278514Y-14913D01*
X271424Y-17320D01*
X264079Y-18781D01*
X256794Y-19259D01*
X256607Y-19222D01*
X57387D01*
Y-19176D01*
X50350Y-19572D01*
X43402Y-20752D01*
X36630Y-22703D01*
X30118Y-25401D01*
X23950Y-28810D01*
X21461Y-30575D01*
X21382Y-30562D01*
X21382Y-30562D01*
X21382Y-30562D01*
X16954Y-33275D01*
X11540Y-35517D01*
X5842Y-36885D01*
X0Y-37345D01*
X-5842Y-36885D01*
X-11540Y-35517D01*
X-16954Y-33275D01*
X-21951Y-30213D01*
X-26407Y-26407D01*
X-30213Y-21951D01*
X-33275Y-16954D01*
X-35517Y-11540D01*
X-36885Y-5842D01*
X-37333Y-151D01*
X-37303Y0D01*
Y31219D01*
X-36944Y31978D01*
X-22931Y59260D01*
X-8033Y86068D01*
X7735Y112375D01*
X24355Y138151D01*
X41809Y163370D01*
X60079Y188005D01*
X79146Y212028D01*
X98988Y235415D01*
X119585Y258140D01*
X140914Y280179D01*
X162953Y301508D01*
X185678Y322105D01*
X209064Y341947D01*
X233088Y361013D01*
X257722Y379283D01*
X282941Y396738D01*
X301122Y408460D01*
X301134Y408457D01*
X301134Y408457D01*
X302797Y409569D01*
X308337Y412301D01*
X314187Y414286D01*
X320245Y415491D01*
X326409Y415895D01*
X332573Y415491D01*
X338632Y414286D01*
X344481Y412301D01*
X349120Y410013D01*
X350217Y409375D01*
X350466Y409209D01*
X351339Y408778D01*
X356668Y406151D01*
X363215Y403928D01*
X369997Y402579D01*
X376897Y402127D01*
X383797Y402579D01*
X390579Y403928D01*
X397127Y406151D01*
X403329Y409209D01*
X409078Y413051D01*
X414277Y417610D01*
X418837Y422809D01*
X422678Y428559D01*
X425737Y434760D01*
X427959Y441308D01*
X429308Y448090D01*
X429414Y449699D01*
X429489Y449763D01*
X429488D01*
X429587Y451263D01*
X430792Y457322D01*
X432778Y463171D01*
X435510Y468711D01*
X438942Y473847D01*
X443014Y478492D01*
X447659Y482565D01*
X452795Y485996D01*
X457880Y488504D01*
X459081Y488921D01*
X460262Y489388D01*
X473503Y494620D01*
X502380Y504953D01*
X531580Y514335D01*
X561071Y522756D01*
X590822Y530209D01*
X620800Y536683D01*
X650975Y542174D01*
X681313Y546674D01*
X711782Y550179D01*
X742349Y552686D01*
X772983Y554191D01*
X803405Y554688D01*
X803649Y554640D01*
X803892Y554688D01*
X834314Y554191D01*
D02*
G37*
G36*
X672549Y198520D02*
X671722Y198178D01*
X670364Y197136D01*
X669322Y195778D01*
X668667Y194197D01*
X668444Y192500D01*
X668667Y190803D01*
X669322Y189222D01*
X670364Y187864D01*
X671722Y186822D01*
X673303Y186167D01*
X673217Y184898D01*
X657124D01*
Y188000D01*
X656648Y189148D01*
X655500Y189624D01*
X649500D01*
X648352Y189148D01*
X647876Y188000D01*
Y184898D01*
X640911D01*
X627192Y198617D01*
X627678Y199790D01*
X657876D01*
Y197000D01*
X658352Y195852D01*
X659500Y195376D01*
X665500D01*
X666648Y195852D01*
X667124Y197000D01*
Y199790D01*
X672296D01*
X672549Y198520D01*
D02*
G37*
%LPC*%
G36*
X1485179Y227963D02*
X1483025Y227679D01*
X1481018Y226848D01*
X1479295Y225525D01*
X1477972Y223802D01*
X1477141Y221795D01*
X1476858Y219641D01*
X1477141Y217488D01*
X1477972Y215481D01*
X1479295Y213757D01*
X1481018Y212435D01*
X1483025Y211604D01*
X1485179Y211320D01*
X1487332Y211604D01*
X1489339Y212435D01*
X1491063Y213757D01*
X1492385Y215481D01*
X1493216Y217488D01*
X1493500Y219641D01*
X1493216Y221795D01*
X1492385Y223802D01*
X1491063Y225525D01*
X1489339Y226848D01*
X1487332Y227679D01*
X1485179Y227963D01*
D02*
G37*
G36*
X1382190Y300564D02*
X1236750D01*
X1235482Y300311D01*
X1234407Y299593D01*
X1233689Y298518D01*
X1233436Y297250D01*
X1233689Y295982D01*
X1234407Y294907D01*
X1234621Y294764D01*
Y293236D01*
X1234407Y293093D01*
X1233689Y292018D01*
X1233436Y290750D01*
X1233689Y289482D01*
X1234407Y288407D01*
X1234621Y288264D01*
Y286736D01*
X1234407Y286593D01*
X1233689Y285518D01*
X1233436Y284250D01*
X1233689Y282982D01*
X1234407Y281907D01*
X1234621Y281764D01*
Y280236D01*
X1234407Y280093D01*
X1233689Y279018D01*
X1233436Y277750D01*
X1233689Y276482D01*
X1234407Y275407D01*
X1235482Y274689D01*
X1236750Y274436D01*
X1370877D01*
X1567058Y78256D01*
Y75001D01*
X1566211Y74650D01*
X1564487Y73328D01*
X1563165Y71604D01*
X1562334Y69598D01*
X1562050Y67444D01*
X1562334Y65290D01*
X1563165Y63283D01*
X1564487Y61560D01*
X1566211Y60237D01*
X1568218Y59406D01*
X1570371Y59123D01*
X1572525Y59406D01*
X1574532Y60237D01*
X1576255Y61560D01*
X1577578Y63283D01*
X1578409Y65290D01*
X1578692Y67444D01*
X1578409Y69598D01*
X1577578Y71604D01*
X1576255Y73328D01*
X1574532Y74650D01*
X1573685Y75001D01*
Y79629D01*
X1573433Y80897D01*
X1572714Y81972D01*
X1517675Y137011D01*
X1518268Y138214D01*
X1519064Y138110D01*
X1521217Y138393D01*
X1523224Y139224D01*
X1524948Y140547D01*
X1526270Y142270D01*
X1527101Y144277D01*
X1527385Y146431D01*
X1527101Y148584D01*
X1526270Y150591D01*
X1524948Y152315D01*
X1523224Y153637D01*
X1521217Y154468D01*
X1519064Y154752D01*
X1516910Y154468D01*
X1514903Y153637D01*
X1513180Y152315D01*
X1512523Y151459D01*
X1510844Y151342D01*
X1447032Y215154D01*
X1447518Y216328D01*
X1452222D01*
X1452572Y215481D01*
X1453895Y213757D01*
X1455618Y212435D01*
X1457625Y211604D01*
X1459779Y211320D01*
X1461933Y211604D01*
X1463939Y212435D01*
X1465663Y213757D01*
X1466985Y215481D01*
X1467816Y217488D01*
X1468100Y219641D01*
X1467816Y221795D01*
X1466985Y223802D01*
X1465663Y225525D01*
X1463939Y226848D01*
X1461933Y227679D01*
X1459779Y227963D01*
X1457625Y227679D01*
X1455618Y226848D01*
X1453895Y225525D01*
X1452572Y223802D01*
X1452222Y222955D01*
X1446731D01*
X1392868Y276818D01*
X1393487Y277995D01*
X1395320Y278237D01*
X1397327Y279068D01*
X1399050Y280390D01*
X1400372Y282114D01*
X1401204Y284121D01*
X1401487Y286274D01*
X1401204Y288428D01*
X1400372Y290435D01*
X1399050Y292158D01*
X1397327Y293481D01*
X1395320Y294312D01*
X1393166Y294595D01*
X1391012Y294312D01*
X1390165Y293961D01*
X1384533Y299593D01*
X1383458Y300311D01*
X1383248Y300353D01*
X1382190Y300564D01*
D02*
G37*
G36*
X457021Y222802D02*
X454867Y222518D01*
X452860Y221687D01*
X451137Y220365D01*
X449814Y218641D01*
X448983Y216634D01*
X448699Y214481D01*
X448983Y212327D01*
X449814Y210320D01*
X451137Y208597D01*
X452860Y207274D01*
X454867Y206443D01*
X457021Y206159D01*
X459174Y206443D01*
X461181Y207274D01*
X462905Y208597D01*
X464227Y210320D01*
X465058Y212327D01*
X465342Y214481D01*
X465058Y216634D01*
X464227Y218641D01*
X462905Y220365D01*
X461181Y221687D01*
X459174Y222518D01*
X457021Y222802D01*
D02*
G37*
G36*
X122118Y227943D02*
X119964Y227659D01*
X117957Y226828D01*
X116234Y225505D01*
X114912Y223782D01*
X114080Y221775D01*
X113797Y219622D01*
X114080Y217468D01*
X114912Y215461D01*
X116234Y213738D01*
X117957Y212415D01*
X119964Y211584D01*
X122118Y211300D01*
X124272Y211584D01*
X126279Y212415D01*
X128002Y213738D01*
X129325Y215461D01*
X130156Y217468D01*
X130439Y219622D01*
X130156Y221775D01*
X129325Y223782D01*
X128002Y225505D01*
X126279Y226828D01*
X124272Y227659D01*
X122118Y227943D01*
D02*
G37*
G36*
X1140250Y238838D02*
X1124750D01*
X1122994Y238489D01*
X1121506Y237494D01*
X1120511Y236006D01*
X1120162Y234250D01*
X1120511Y232494D01*
X1121506Y231006D01*
X1122994Y230011D01*
X1124750Y229662D01*
X1140250D01*
X1142006Y230011D01*
X1143494Y231006D01*
X1144489Y232494D01*
X1144838Y234250D01*
X1144489Y236006D01*
X1143494Y237494D01*
X1142006Y238489D01*
X1140250Y238838D01*
D02*
G37*
G36*
X1083649Y371091D02*
X1076094Y370596D01*
X1068670Y369119D01*
X1061501Y366685D01*
X1054712Y363337D01*
X1048417Y359131D01*
X1042725Y354140D01*
X1037734Y348448D01*
X1033528Y342154D01*
X1030180Y335364D01*
X1027747Y328196D01*
X1026270Y320771D01*
X1025775Y313217D01*
X1026270Y305663D01*
X1027747Y298238D01*
X1030180Y291070D01*
X1033528Y284280D01*
X1037734Y277985D01*
X1042725Y272294D01*
X1048417Y267302D01*
X1054712Y263097D01*
X1061501Y259748D01*
X1068670Y257315D01*
X1076094Y255838D01*
X1083649Y255343D01*
X1091202Y255838D01*
X1098627Y257315D01*
X1105796Y259748D01*
X1112585Y263097D01*
X1118880Y267302D01*
X1124572Y272294D01*
X1129563Y277985D01*
X1133769Y284280D01*
X1137117Y291070D01*
X1139550Y298238D01*
X1141027Y305663D01*
X1141522Y313217D01*
X1141027Y320771D01*
X1139550Y328196D01*
X1137117Y335364D01*
X1133769Y342154D01*
X1129563Y348448D01*
X1124572Y354140D01*
X1118880Y359131D01*
X1112585Y363337D01*
X1105796Y366685D01*
X1098627Y369119D01*
X1091202Y370596D01*
X1083649Y371091D01*
D02*
G37*
G36*
X257551Y276595D02*
X256402Y276120D01*
X250746Y270463D01*
X250678Y270300D01*
X247727Y267348D01*
X247564Y267281D01*
X241907Y261624D01*
X241431Y260476D01*
X241907Y259328D01*
X241021Y258442D01*
X239873Y258918D01*
X238725Y258442D01*
X233068Y252785D01*
X232592Y251637D01*
X233068Y250489D01*
X240139Y243418D01*
X241287Y242943D01*
X242435Y243418D01*
X248092Y249075D01*
X248568Y250223D01*
X248092Y251371D01*
X248978Y252257D01*
X250126Y251781D01*
X251274Y252257D01*
X256931Y257914D01*
X256998Y258077D01*
X259950Y261028D01*
X260113Y261096D01*
X265770Y266752D01*
X266245Y267901D01*
X265770Y269049D01*
X264602Y270216D01*
X264590Y270305D01*
X263935Y271886D01*
X262894Y273244D01*
X261536Y274285D01*
X259954Y274940D01*
X259866Y274952D01*
X258699Y276120D01*
X257551Y276595D01*
D02*
G37*
G36*
X640250Y299064D02*
X638982Y298811D01*
X637907Y298093D01*
X637189Y297018D01*
X636936Y295750D01*
Y282250D01*
X637054Y281658D01*
X632837Y277441D01*
X632625Y277124D01*
X632000D01*
X630852Y276648D01*
X630376Y275500D01*
Y269500D01*
X630852Y268352D01*
X632000Y267876D01*
X638000D01*
X639148Y268352D01*
X639624Y269500D01*
Y275500D01*
X639601Y275554D01*
X642413Y278365D01*
X643076Y279358D01*
X643309Y280528D01*
Y280978D01*
X643311Y280982D01*
X643564Y282250D01*
Y295750D01*
X643311Y297018D01*
X642593Y298093D01*
X641518Y298811D01*
X640250Y299064D01*
D02*
G37*
G36*
X936348Y270765D02*
X934195Y270482D01*
X932188Y269650D01*
X930464Y268328D01*
X929142Y266604D01*
X928311Y264598D01*
X928027Y262444D01*
X928311Y260290D01*
X929142Y258283D01*
X930464Y256560D01*
X932188Y255238D01*
X934195Y254406D01*
X936348Y254123D01*
X938502Y254406D01*
X940509Y255238D01*
X942232Y256560D01*
X943555Y258283D01*
X944386Y260290D01*
X944670Y262444D01*
X944386Y264598D01*
X943555Y266604D01*
X942232Y268328D01*
X940509Y269650D01*
X938502Y270482D01*
X936348Y270765D01*
D02*
G37*
G36*
X394721Y292295D02*
Y292282D01*
X299721D01*
X298648Y292069D01*
X297739Y291461D01*
X217739Y211461D01*
X217131Y210551D01*
X216917Y209478D01*
Y144478D01*
X216917Y144478D01*
X216904D01*
X217171Y142455D01*
X217952Y140570D01*
X219194Y138951D01*
X220813Y137709D01*
X222698Y136928D01*
X224721Y136661D01*
Y136674D01*
X394721D01*
X394721Y136674D01*
Y136661D01*
X396744Y136928D01*
X398630Y137709D01*
X400249Y138951D01*
X401491Y140570D01*
X402272Y142455D01*
X402538Y144478D01*
X402525D01*
Y233737D01*
X403795Y233989D01*
X403852Y233852D01*
X405000Y233376D01*
X445000D01*
X446148Y233852D01*
X446624Y235000D01*
Y260000D01*
X446148Y261148D01*
X445000Y261624D01*
X405000D01*
X403852Y261148D01*
X403795Y261011D01*
X402525Y261263D01*
Y284478D01*
X402525Y284478D01*
X402538D01*
X402272Y286501D01*
X401491Y288387D01*
X400249Y290006D01*
X398630Y291248D01*
X396744Y292029D01*
X394721Y292295D01*
D02*
G37*
G36*
X803649Y265443D02*
X801268Y265129D01*
X799049Y264210D01*
X797144Y262748D01*
X795682Y260843D01*
X794763Y258625D01*
X794450Y256244D01*
X794763Y253863D01*
X795682Y251645D01*
X797144Y249739D01*
X799049Y248278D01*
X801268Y247359D01*
X803649Y247045D01*
X806029Y247359D01*
X808248Y248278D01*
X810153Y249739D01*
X811615Y251645D01*
X812534Y253863D01*
X812847Y256244D01*
X812534Y258625D01*
X811615Y260843D01*
X810153Y262748D01*
X808248Y264210D01*
X806029Y265129D01*
X803649Y265443D01*
D02*
G37*
G36*
X1193250Y300564D02*
X1179750D01*
X1178482Y300311D01*
X1177407Y299593D01*
X1176689Y298518D01*
X1176436Y297250D01*
X1176689Y295982D01*
X1177407Y294907D01*
X1177621Y294764D01*
Y293236D01*
X1177407Y293093D01*
X1176689Y292018D01*
X1176436Y290750D01*
X1176689Y289482D01*
X1177407Y288407D01*
X1177531Y288324D01*
X1177146Y287054D01*
X1173025D01*
X1171952Y286840D01*
X1171043Y286233D01*
X1168017Y283207D01*
X1167410Y282298D01*
X1167196Y281225D01*
Y271080D01*
X1165461Y270361D01*
X1163581Y268919D01*
X1162139Y267039D01*
X1161232Y264849D01*
X1160922Y262500D01*
X1161232Y260151D01*
X1162139Y257961D01*
X1163581Y256081D01*
X1165461Y254639D01*
X1167651Y253732D01*
X1170000Y253422D01*
X1172349Y253732D01*
X1174539Y254639D01*
X1176419Y256081D01*
X1177861Y257961D01*
X1178768Y260151D01*
X1179078Y262500D01*
X1178768Y264849D01*
X1177861Y267039D01*
X1176419Y268919D01*
X1174539Y270361D01*
X1172804Y271080D01*
Y280063D01*
X1174187Y281446D01*
X1177146D01*
X1177531Y280176D01*
X1177407Y280093D01*
X1176689Y279018D01*
X1176436Y277750D01*
X1176689Y276482D01*
X1177407Y275407D01*
X1178482Y274689D01*
X1179750Y274436D01*
X1183696D01*
Y257661D01*
X1174084Y248050D01*
X1172349Y248768D01*
X1170000Y249078D01*
X1167651Y248768D01*
X1165461Y247861D01*
X1163581Y246419D01*
X1162139Y244539D01*
X1161232Y242349D01*
X1160922Y240000D01*
X1161232Y237651D01*
X1162139Y235461D01*
X1163581Y233581D01*
X1165461Y232139D01*
X1167651Y231232D01*
X1170000Y230922D01*
X1172349Y231232D01*
X1174539Y232139D01*
X1176419Y233581D01*
X1177861Y235461D01*
X1178768Y237651D01*
X1179078Y240000D01*
X1178768Y242349D01*
X1178050Y244084D01*
X1188483Y254517D01*
X1189090Y255427D01*
X1189304Y256500D01*
Y274436D01*
X1193250D01*
X1194518Y274689D01*
X1195593Y275407D01*
X1196311Y276482D01*
X1196564Y277750D01*
X1196311Y279018D01*
X1195593Y280093D01*
X1195379Y280236D01*
Y281764D01*
X1195593Y281907D01*
X1196311Y282982D01*
X1196564Y284250D01*
X1196311Y285518D01*
X1195593Y286593D01*
X1195379Y286736D01*
Y288264D01*
X1195593Y288407D01*
X1196311Y289482D01*
X1196564Y290750D01*
X1196311Y292018D01*
X1195593Y293093D01*
X1195379Y293236D01*
Y294764D01*
X1195593Y294907D01*
X1196311Y295982D01*
X1196564Y297250D01*
X1196311Y298518D01*
X1195593Y299593D01*
X1194518Y300311D01*
X1193250Y300564D01*
D02*
G37*
G36*
X1140250Y200738D02*
X1124750D01*
X1122994Y200389D01*
X1121506Y199394D01*
X1120511Y197906D01*
X1120162Y196150D01*
X1120511Y194394D01*
X1121506Y192906D01*
X1122994Y191911D01*
X1124750Y191562D01*
X1140250D01*
X1142006Y191911D01*
X1143494Y192906D01*
X1144489Y194394D01*
X1144838Y196150D01*
X1144489Y197906D01*
X1143494Y199394D01*
X1142006Y200389D01*
X1140250Y200738D01*
D02*
G37*
G36*
X1456074Y38109D02*
X1454926Y37633D01*
X1449269Y31976D01*
X1449202Y31813D01*
X1446250Y28862D01*
X1446087Y28794D01*
X1440430Y23138D01*
X1439955Y21989D01*
X1440430Y20841D01*
X1441598Y19674D01*
X1441610Y19585D01*
X1442265Y18004D01*
X1443306Y16646D01*
X1444664Y15605D01*
X1446246Y14950D01*
X1446334Y14938D01*
X1447501Y13770D01*
X1448649Y13295D01*
X1449798Y13770D01*
X1450670Y14643D01*
X1460376Y4937D01*
Y2000D01*
X1460852Y852D01*
X1462000Y376D01*
X1468000D01*
X1469148Y852D01*
X1469313Y1249D01*
X1470687D01*
X1470852Y852D01*
X1472000Y376D01*
X1478000D01*
X1479148Y852D01*
X1479177Y922D01*
X1482104D01*
X1483049Y290D01*
X1485000Y-98D01*
X1486951Y290D01*
X1488605Y1395D01*
X1489710Y3049D01*
X1490098Y5000D01*
X1489710Y6951D01*
X1488605Y8605D01*
X1486951Y9710D01*
X1485000Y10098D01*
X1483049Y9710D01*
X1482104Y9078D01*
X1479177D01*
X1479148Y9148D01*
X1478000Y9624D01*
X1472000D01*
X1470852Y9148D01*
X1470687Y8751D01*
X1469313D01*
X1469148Y9148D01*
X1468000Y9624D01*
X1465063D01*
X1456119Y18567D01*
X1456187Y20255D01*
X1458473Y22542D01*
X1458636Y22609D01*
X1464293Y28266D01*
X1464769Y29414D01*
X1464293Y30562D01*
X1463125Y31730D01*
X1463114Y31818D01*
X1462459Y33399D01*
X1461417Y34757D01*
X1460059Y35799D01*
X1458478Y36454D01*
X1458390Y36465D01*
X1457222Y37633D01*
X1456074Y38109D01*
D02*
G37*
G36*
X1399224Y131158D02*
X1391670Y130663D01*
X1384245Y129186D01*
X1377076Y126752D01*
X1370287Y123404D01*
X1363992Y119198D01*
X1358301Y114207D01*
X1353309Y108515D01*
X1349104Y102221D01*
X1345755Y95431D01*
X1343322Y88263D01*
X1341845Y80838D01*
X1341350Y73284D01*
X1341845Y65730D01*
X1343322Y58305D01*
X1345755Y51136D01*
X1349104Y44347D01*
X1353309Y38053D01*
X1358301Y32361D01*
X1363992Y27369D01*
X1370287Y23164D01*
X1377076Y19815D01*
X1384245Y17382D01*
X1391670Y15905D01*
X1399224Y15410D01*
X1406778Y15905D01*
X1414203Y17382D01*
X1421371Y19815D01*
X1428161Y23164D01*
X1434455Y27369D01*
X1440147Y32361D01*
X1445138Y38053D01*
X1449344Y44347D01*
X1452692Y51136D01*
X1455126Y58305D01*
X1456602Y65730D01*
X1457098Y73284D01*
X1456602Y80838D01*
X1455126Y88263D01*
X1452692Y95431D01*
X1449344Y102221D01*
X1445138Y108515D01*
X1440147Y114207D01*
X1434455Y119198D01*
X1428161Y123404D01*
X1421371Y126752D01*
X1414203Y129186D01*
X1406778Y130663D01*
X1399224Y131158D01*
D02*
G37*
G36*
X11526Y75745D02*
X9372Y75462D01*
X7365Y74630D01*
X5642Y73308D01*
X4319Y71585D01*
X3488Y69578D01*
X3204Y67424D01*
X3488Y65270D01*
X4319Y63263D01*
X5642Y61540D01*
X7365Y60218D01*
X9372Y59386D01*
X11526Y59103D01*
X13679Y59386D01*
X15686Y60218D01*
X17410Y61540D01*
X18732Y63263D01*
X19563Y65270D01*
X19847Y67424D01*
X19563Y69578D01*
X18732Y71585D01*
X17410Y73308D01*
X15686Y74630D01*
X13679Y75462D01*
X11526Y75745D01*
D02*
G37*
G36*
X1525000Y45098D02*
X1523049Y44710D01*
X1521395Y43605D01*
X1520290Y41951D01*
X1519902Y40000D01*
X1520290Y38049D01*
X1520922Y37104D01*
Y34177D01*
X1520852Y34148D01*
X1520376Y33000D01*
Y27000D01*
X1520852Y25852D01*
X1521249Y25687D01*
Y24313D01*
X1520852Y24148D01*
X1520376Y23000D01*
Y17000D01*
X1520852Y15852D01*
X1522000Y15376D01*
X1522786D01*
Y68D01*
X1522100D01*
X1520952Y-408D01*
X1520476Y-1556D01*
Y-3207D01*
X1520422Y-3278D01*
X1519767Y-4859D01*
X1519544Y-6556D01*
X1519767Y-8253D01*
X1520422Y-9834D01*
X1520476Y-9905D01*
Y-11556D01*
X1520952Y-12704D01*
X1522100Y-13180D01*
X1530100D01*
X1530263Y-13112D01*
X1534437D01*
X1534600Y-13180D01*
X1542600D01*
X1543748Y-12704D01*
X1544224Y-11556D01*
Y-9905D01*
X1544278Y-9834D01*
X1544933Y-8253D01*
X1545156Y-6556D01*
X1544933Y-4859D01*
X1544278Y-3278D01*
X1544224Y-3207D01*
Y-1556D01*
X1543748Y-408D01*
X1542600Y68D01*
X1534600D01*
X1534437Y0D01*
X1530263D01*
X1530100Y68D01*
X1529414D01*
Y16493D01*
X1529624Y17000D01*
Y23000D01*
X1529148Y24148D01*
X1528751Y24313D01*
Y25687D01*
X1529148Y25852D01*
X1529624Y27000D01*
Y33000D01*
X1529148Y34148D01*
X1529078Y34177D01*
Y37104D01*
X1529710Y38049D01*
X1530098Y40000D01*
X1529710Y41951D01*
X1528605Y43605D01*
X1526951Y44710D01*
X1525000Y45098D01*
D02*
G37*
G36*
X0Y20348D02*
X-3970Y19957D01*
X-7787Y18799D01*
X-11305Y16919D01*
X-14388Y14388D01*
X-16919Y11305D01*
X-18799Y7787D01*
X-19957Y3970D01*
X-20348Y0D01*
X-19957Y-3970D01*
X-18799Y-7787D01*
X-16919Y-11305D01*
X-14388Y-14388D01*
X-11305Y-16919D01*
X-7787Y-18799D01*
X-3970Y-19957D01*
X0Y-20348D01*
X3970Y-19957D01*
X7787Y-18799D01*
X11305Y-16919D01*
X14388Y-14388D01*
X16919Y-11305D01*
X18799Y-7787D01*
X19957Y-3970D01*
X20348Y0D01*
X19957Y3970D01*
X18799Y7787D01*
X16919Y11305D01*
X14388Y14388D01*
X11305Y16919D01*
X7787Y18799D01*
X3970Y19957D01*
X0Y20348D01*
D02*
G37*
G36*
X1607297D02*
X1603327Y19957D01*
X1599510Y18799D01*
X1595992Y16919D01*
X1592909Y14388D01*
X1590378Y11305D01*
X1588498Y7787D01*
X1587340Y3970D01*
X1586949Y0D01*
X1587340Y-3970D01*
X1588498Y-7787D01*
X1590378Y-11305D01*
X1592909Y-14388D01*
X1595992Y-16919D01*
X1599510Y-18799D01*
X1603327Y-19957D01*
X1607297Y-20348D01*
X1611267Y-19957D01*
X1615084Y-18799D01*
X1618602Y-16919D01*
X1621685Y-14388D01*
X1624216Y-11305D01*
X1626096Y-7787D01*
X1627254Y-3970D01*
X1627645Y0D01*
X1627254Y3970D01*
X1626096Y7787D01*
X1624216Y11305D01*
X1621685Y14388D01*
X1618602Y16919D01*
X1615084Y18799D01*
X1611267Y19957D01*
X1607297Y20348D01*
D02*
G37*
G36*
X62500Y27598D02*
X60549Y27210D01*
X58895Y26105D01*
X57790Y24451D01*
X57402Y22500D01*
X57790Y20549D01*
X57926Y20346D01*
X58352Y19148D01*
X57876Y18000D01*
Y12000D01*
X58352Y10852D01*
X58749Y10687D01*
Y9313D01*
X58352Y9148D01*
X57876Y8000D01*
Y2000D01*
X58352Y852D01*
X59500Y376D01*
X65500D01*
X66648Y852D01*
X66994Y1686D01*
X68628D01*
X70231Y82D01*
X69952Y-1408D01*
X69476Y-2556D01*
Y-4207D01*
X69422Y-4278D01*
X68767Y-5859D01*
X68544Y-7556D01*
X68767Y-9253D01*
X69422Y-10834D01*
X69476Y-10905D01*
Y-12556D01*
X69952Y-13704D01*
X71100Y-14180D01*
X79100D01*
X79263Y-14112D01*
X83437D01*
X83600Y-14180D01*
X91600D01*
X92748Y-13704D01*
X93224Y-12556D01*
Y-10905D01*
X93278Y-10834D01*
X93933Y-9253D01*
X94156Y-7556D01*
X93933Y-5859D01*
X93278Y-4278D01*
X93224Y-4207D01*
Y-2556D01*
X92748Y-1408D01*
X91600Y-932D01*
X83600D01*
X83437Y-1000D01*
X79263D01*
X79100Y-932D01*
X78414D01*
Y-100D01*
X78161Y1168D01*
X77443Y2243D01*
X72343Y7343D01*
X71268Y8061D01*
X70000Y8314D01*
X66994D01*
X66648Y9148D01*
X66251Y9313D01*
Y10687D01*
X66648Y10852D01*
X67124Y12000D01*
Y18000D01*
X66648Y19148D01*
X67074Y20346D01*
X67210Y20549D01*
X67598Y22500D01*
X67210Y24451D01*
X66105Y26105D01*
X64451Y27210D01*
X62500Y27598D01*
D02*
G37*
G36*
X1595771Y75765D02*
X1593618Y75482D01*
X1591611Y74650D01*
X1589887Y73328D01*
X1588565Y71604D01*
X1587734Y69598D01*
X1587450Y67444D01*
X1587734Y65290D01*
X1588565Y63283D01*
X1589887Y61560D01*
X1591611Y60237D01*
X1593618Y59406D01*
X1595771Y59123D01*
X1597925Y59406D01*
X1599932Y60237D01*
X1601655Y61560D01*
X1602978Y63283D01*
X1603809Y65290D01*
X1604093Y67444D01*
X1603809Y69598D01*
X1602978Y71604D01*
X1601655Y73328D01*
X1599932Y74650D01*
X1597925Y75482D01*
X1595771Y75765D01*
D02*
G37*
G36*
X841750Y176021D02*
X839400Y175712D01*
X837211Y174805D01*
X835331Y173363D01*
X833889Y171483D01*
X832982Y169293D01*
X832672Y166944D01*
X832982Y164594D01*
X833889Y162405D01*
X835331Y160525D01*
X837211Y159082D01*
X839400Y158176D01*
X841750Y157866D01*
X844100Y158176D01*
X846289Y159082D01*
X848169Y160525D01*
X849612Y162405D01*
X850518Y164594D01*
X850828Y166944D01*
X850518Y169293D01*
X849612Y171483D01*
X848169Y173363D01*
X846289Y174805D01*
X844100Y175712D01*
X841750Y176021D01*
D02*
G37*
G36*
X867150D02*
X864800Y175712D01*
X862611Y174805D01*
X860731Y173363D01*
X859289Y171483D01*
X858382Y169293D01*
X858072Y166944D01*
X858382Y164594D01*
X859289Y162405D01*
X860731Y160525D01*
X862611Y159082D01*
X864800Y158176D01*
X867150Y157866D01*
X869500Y158176D01*
X871689Y159082D01*
X873569Y160525D01*
X875012Y162405D01*
X875918Y164594D01*
X876228Y166944D01*
X875918Y169293D01*
X875012Y171483D01*
X873569Y173363D01*
X871689Y174805D01*
X869500Y175712D01*
X867150Y176021D01*
D02*
G37*
G36*
X1140250Y175338D02*
X1124750D01*
X1122994Y174989D01*
X1121506Y173994D01*
X1120511Y172506D01*
X1120162Y170750D01*
X1120511Y168994D01*
X1121506Y167506D01*
X1122994Y166511D01*
X1124750Y166162D01*
X1140250D01*
X1142006Y166511D01*
X1143494Y167506D01*
X1144489Y168994D01*
X1144838Y170750D01*
X1144489Y172506D01*
X1143494Y173994D01*
X1142006Y174989D01*
X1140250Y175338D01*
D02*
G37*
G36*
X1257576Y272352D02*
X1250022Y271857D01*
X1242597Y270380D01*
X1235428Y267947D01*
X1228639Y264599D01*
X1222344Y260393D01*
X1216653Y255401D01*
X1211661Y249710D01*
X1207456Y243415D01*
X1204107Y236626D01*
X1201674Y229457D01*
X1200197Y222032D01*
X1199702Y214478D01*
X1200197Y206924D01*
X1201674Y199499D01*
X1204107Y192331D01*
X1207456Y185541D01*
X1211661Y179247D01*
X1216653Y173555D01*
X1222344Y168564D01*
X1228639Y164358D01*
X1235428Y161010D01*
X1242597Y158576D01*
X1250022Y157100D01*
X1257576Y156604D01*
X1265130Y157100D01*
X1272555Y158576D01*
X1279723Y161010D01*
X1286513Y164358D01*
X1292807Y168564D01*
X1298499Y173555D01*
X1303490Y179247D01*
X1307696Y185541D01*
X1311044Y192331D01*
X1313478Y199499D01*
X1314955Y206924D01*
X1315450Y214478D01*
X1314955Y222032D01*
X1313478Y229457D01*
X1311044Y236626D01*
X1307696Y243415D01*
X1303490Y249710D01*
X1298499Y255401D01*
X1292807Y260393D01*
X1286513Y264599D01*
X1279723Y267947D01*
X1272555Y270380D01*
X1265130Y271857D01*
X1257576Y272352D01*
D02*
G37*
G36*
X170000Y124124D02*
X115000D01*
X113852Y123648D01*
X71352Y81148D01*
X70876Y80000D01*
Y57500D01*
X71352Y56352D01*
X72500Y55876D01*
X137500D01*
X138648Y56352D01*
X171148Y88852D01*
X171624Y90000D01*
Y96941D01*
X176233D01*
X184441Y88733D01*
Y79599D01*
X183352Y79148D01*
X182876Y78000D01*
Y72000D01*
X183352Y70852D01*
X183476Y69514D01*
X182986Y69024D01*
X181648Y69148D01*
X180500Y69624D01*
X174500D01*
X173352Y69148D01*
X172876Y68000D01*
Y62000D01*
X173352Y60852D01*
X173749Y60687D01*
Y59313D01*
X173352Y59148D01*
X172876Y58000D01*
Y52000D01*
X173352Y50852D01*
X174500Y50376D01*
X180500D01*
X181648Y50852D01*
X182124Y52000D01*
Y58000D01*
X181648Y59148D01*
X181251Y59313D01*
Y60687D01*
X181648Y60852D01*
X181813Y61249D01*
X183187D01*
X183352Y60852D01*
X184500Y60376D01*
X190500D01*
X191648Y60852D01*
X191813Y61249D01*
X193187D01*
X193352Y60852D01*
X194500Y60376D01*
X198040D01*
X200441Y57976D01*
Y51500D01*
X200441Y51500D01*
X200674Y50329D01*
X201337Y49337D01*
X207047Y43628D01*
X206902Y42900D01*
X207290Y40949D01*
X208395Y39295D01*
X210049Y38190D01*
X212000Y37802D01*
X230000D01*
X231951Y38190D01*
X233605Y39295D01*
X234710Y40949D01*
X235098Y42900D01*
X234710Y44851D01*
X233605Y46505D01*
X231951Y47610D01*
X230000Y47998D01*
X212000D01*
X211439Y47886D01*
X209528Y49797D01*
X209728Y50216D01*
X210277Y50845D01*
X212000Y50502D01*
X230000D01*
X231951Y50890D01*
X233605Y51995D01*
X234710Y53649D01*
X235098Y55600D01*
X234710Y57551D01*
X233605Y59205D01*
X231951Y60310D01*
X230000Y60698D01*
X212000D01*
X211059Y61806D01*
Y70608D01*
X211648Y70852D01*
X212124Y72000D01*
Y78000D01*
X211648Y79148D01*
X210500Y79623D01*
X204500D01*
X203352Y79148D01*
X203187Y78751D01*
X201813D01*
X201648Y79148D01*
X200500Y79624D01*
X194500D01*
X193352Y79148D01*
X193187Y78751D01*
X191813D01*
X191648Y79148D01*
X190559Y79599D01*
Y90000D01*
X190326Y91171D01*
X189663Y92163D01*
X189663Y92163D01*
X179663Y102163D01*
X178671Y102826D01*
X177500Y103059D01*
X177500Y103059D01*
X171624D01*
Y122500D01*
X171148Y123648D01*
X170000Y124124D01*
D02*
G37*
G36*
X62833Y154752D02*
X60679Y154468D01*
X58673Y153637D01*
X56949Y152315D01*
X55627Y150591D01*
X54795Y148584D01*
X54512Y146431D01*
X54795Y144277D01*
X55627Y142270D01*
X56949Y140547D01*
X58673Y139224D01*
X60679Y138393D01*
X62833Y138110D01*
X64987Y138393D01*
X66994Y139224D01*
X68717Y140547D01*
X70040Y142270D01*
X70871Y144277D01*
X71154Y146431D01*
X70871Y148584D01*
X70040Y150591D01*
X68717Y152315D01*
X66994Y153637D01*
X64987Y154468D01*
X62833Y154752D01*
D02*
G37*
G36*
X1544464D02*
X1542310Y154468D01*
X1540303Y153637D01*
X1538580Y152315D01*
X1537257Y150591D01*
X1536426Y148584D01*
X1536143Y146431D01*
X1536426Y144277D01*
X1537257Y142270D01*
X1538580Y140547D01*
X1540303Y139224D01*
X1542310Y138393D01*
X1544464Y138110D01*
X1546617Y138393D01*
X1548624Y139224D01*
X1550348Y140547D01*
X1551670Y142270D01*
X1552501Y144277D01*
X1552785Y146431D01*
X1552501Y148584D01*
X1551670Y150591D01*
X1550348Y152315D01*
X1548624Y153637D01*
X1546617Y154468D01*
X1544464Y154752D01*
D02*
G37*
G36*
X188731Y294576D02*
X186577Y294292D01*
X184570Y293461D01*
X182847Y292138D01*
X181525Y290415D01*
X180693Y288408D01*
X180410Y286254D01*
X180693Y284101D01*
X181525Y282094D01*
X182847Y280370D01*
X184570Y279048D01*
X186577Y278217D01*
X188731Y277933D01*
X190885Y278217D01*
X192892Y279048D01*
X194615Y280370D01*
X195937Y282094D01*
X196769Y284101D01*
X197052Y286254D01*
X196769Y288408D01*
X195937Y290415D01*
X194615Y292138D01*
X192892Y293461D01*
X190885Y294292D01*
X188731Y294576D01*
D02*
G37*
G36*
X439066Y460411D02*
X436945Y459941D01*
X435018Y458938D01*
X433416Y457471D01*
X432249Y455639D01*
X431596Y453567D01*
X431501Y451397D01*
X431971Y449276D01*
X432975Y447349D01*
X434442Y445747D01*
X436274Y444580D01*
X438346Y443927D01*
X440516Y443832D01*
X442637Y444302D01*
X444564Y445306D01*
X446165Y446773D01*
X447332Y448605D01*
X447986Y450677D01*
X448080Y452847D01*
X447610Y454968D01*
X446607Y456895D01*
X445140Y458496D01*
X443307Y459663D01*
X441236Y460317D01*
X439066Y460411D01*
D02*
G37*
G36*
X988649Y457792D02*
X984679Y457401D01*
X980862Y456243D01*
X977344Y454363D01*
X974260Y451832D01*
X971730Y448749D01*
X969849Y445231D01*
X968691Y441414D01*
X968300Y437444D01*
X968691Y433474D01*
X969849Y429657D01*
X971730Y426139D01*
X974260Y423056D01*
X977344Y420525D01*
X980862Y418645D01*
X984679Y417487D01*
X988649Y417096D01*
X992618Y417487D01*
X996435Y418645D01*
X999953Y420525D01*
X1003037Y423056D01*
X1005567Y426139D01*
X1007448Y429657D01*
X1008605Y433474D01*
X1008996Y437444D01*
X1008605Y441414D01*
X1007448Y445231D01*
X1005567Y448749D01*
X1003037Y451832D01*
X999953Y454363D01*
X996435Y456243D01*
X992618Y457401D01*
X988649Y457792D01*
D02*
G37*
G36*
X719600Y466578D02*
X717251Y466268D01*
X715061Y465362D01*
X713181Y463919D01*
X711739Y462039D01*
X710832Y459850D01*
X710522Y457500D01*
X710832Y455150D01*
X711739Y452961D01*
X713181Y451081D01*
X715061Y449638D01*
X717251Y448732D01*
X719600Y448422D01*
X721949Y448732D01*
X724139Y449638D01*
X726019Y451081D01*
X727461Y452961D01*
X728368Y455150D01*
X728678Y457500D01*
X728368Y459850D01*
X727461Y462039D01*
X726019Y463919D01*
X724139Y465362D01*
X721949Y466268D01*
X719600Y466578D01*
D02*
G37*
G36*
X1168231Y460431D02*
X1166061Y460337D01*
X1163989Y459683D01*
X1162157Y458516D01*
X1160690Y456915D01*
X1159687Y454988D01*
X1159217Y452867D01*
X1159311Y450697D01*
X1159965Y448625D01*
X1161132Y446793D01*
X1162733Y445326D01*
X1164660Y444323D01*
X1166781Y443852D01*
X1168951Y443947D01*
X1171023Y444600D01*
X1172855Y445768D01*
X1174322Y447369D01*
X1175325Y449296D01*
X1175796Y451417D01*
X1175701Y453587D01*
X1175048Y455659D01*
X1173880Y457491D01*
X1172279Y458958D01*
X1170352Y459961D01*
X1168231Y460431D01*
D02*
G37*
G36*
X342440Y409480D02*
X340269Y409385D01*
X338198Y408732D01*
X336366Y407565D01*
X334898Y405963D01*
X333895Y404036D01*
X333425Y401916D01*
X333520Y399745D01*
X334173Y397674D01*
X335340Y395842D01*
X336941Y394374D01*
X338868Y393371D01*
X340989Y392901D01*
X343159Y392996D01*
X345231Y393649D01*
X347063Y394816D01*
X348531Y396418D01*
X349534Y398344D01*
X350004Y400465D01*
X349909Y402635D01*
X349256Y404707D01*
X348089Y406539D01*
X346487Y408007D01*
X344560Y409010D01*
X342440Y409480D01*
D02*
G37*
G36*
X1147500Y425098D02*
X1145549Y424710D01*
X1143895Y423605D01*
X1142790Y421951D01*
X1142402Y420000D01*
X1142790Y418049D01*
X1143895Y416395D01*
X1144441Y416030D01*
Y396470D01*
X1143895Y396105D01*
X1142790Y394451D01*
X1142402Y392500D01*
X1142790Y390549D01*
X1143895Y388895D01*
X1145549Y387790D01*
X1147500Y387402D01*
X1149451Y387790D01*
X1151105Y388895D01*
X1152210Y390549D01*
X1152598Y392500D01*
X1152210Y394451D01*
X1151105Y396105D01*
X1150559Y396470D01*
Y416030D01*
X1151105Y416395D01*
X1152210Y418049D01*
X1152598Y420000D01*
X1152210Y421951D01*
X1151105Y423605D01*
X1149451Y424710D01*
X1147500Y425098D01*
D02*
G37*
G36*
X618648Y457792D02*
X614679Y457401D01*
X610862Y456243D01*
X607344Y454363D01*
X604260Y451832D01*
X601730Y448749D01*
X599849Y445231D01*
X598691Y441414D01*
X598301Y437444D01*
X598691Y433474D01*
X599849Y429657D01*
X601730Y426139D01*
X604260Y423056D01*
X607344Y420525D01*
X610862Y418645D01*
X614679Y417487D01*
X618648Y417096D01*
X622618Y417487D01*
X626435Y418645D01*
X629953Y420525D01*
X633037Y423056D01*
X635567Y426139D01*
X637448Y429657D01*
X638605Y433474D01*
X638996Y437444D01*
X638605Y441414D01*
X637448Y445231D01*
X635567Y448749D01*
X633037Y451832D01*
X629953Y454363D01*
X626435Y456243D01*
X622618Y457401D01*
X618648Y457792D01*
D02*
G37*
G36*
X803649Y417843D02*
X801268Y417529D01*
X799049Y416610D01*
X797144Y415148D01*
X795682Y413243D01*
X794763Y411025D01*
X794450Y408644D01*
X794763Y406263D01*
X795682Y404045D01*
X797144Y402140D01*
X799049Y400678D01*
X801268Y399759D01*
X803649Y399445D01*
X806029Y399759D01*
X808248Y400678D01*
X810153Y402140D01*
X811615Y404045D01*
X812534Y406263D01*
X812847Y408644D01*
X812534Y411025D01*
X811615Y413243D01*
X810153Y415148D01*
X808248Y416610D01*
X806029Y417529D01*
X803649Y417843D01*
D02*
G37*
G36*
X709573Y533535D02*
X707419Y533251D01*
X705412Y532420D01*
X703689Y531098D01*
X702366Y529374D01*
X701535Y527367D01*
X701252Y525214D01*
X701535Y523060D01*
X702366Y521053D01*
X703689Y519330D01*
X705412Y518007D01*
X707419Y517176D01*
X709573Y516892D01*
X711727Y517176D01*
X713733Y518007D01*
X715457Y519330D01*
X716779Y521053D01*
X717610Y523060D01*
X717894Y525214D01*
X717610Y527367D01*
X716779Y529374D01*
X715457Y531098D01*
X713733Y532420D01*
X711727Y533251D01*
X709573Y533535D01*
D02*
G37*
G36*
X999749Y515078D02*
X997596Y514795D01*
X995589Y513963D01*
X993865Y512641D01*
X992543Y510918D01*
X991712Y508911D01*
X991428Y506757D01*
X991712Y504603D01*
X992543Y502596D01*
X993865Y500873D01*
X995589Y499551D01*
X997596Y498719D01*
X999749Y498436D01*
X1001903Y498719D01*
X1003910Y499551D01*
X1005633Y500873D01*
X1006956Y502596D01*
X1007787Y504603D01*
X1008070Y506757D01*
X1007787Y508911D01*
X1006956Y510918D01*
X1005633Y512641D01*
X1003910Y513963D01*
X1001903Y514795D01*
X999749Y515078D01*
D02*
G37*
G36*
X803649Y538465D02*
X801495Y538182D01*
X799488Y537350D01*
X797765Y536028D01*
X796442Y534305D01*
X795611Y532298D01*
X795327Y530144D01*
X795611Y527990D01*
X796442Y525983D01*
X797765Y524260D01*
X799488Y522938D01*
X801495Y522106D01*
X803649Y521823D01*
X805802Y522106D01*
X807809Y522938D01*
X809532Y524260D01*
X810855Y525983D01*
X811686Y527990D01*
X811970Y530144D01*
X811686Y532298D01*
X810855Y534305D01*
X809532Y536028D01*
X807809Y537350D01*
X805802Y538182D01*
X803649Y538465D01*
D02*
G37*
G36*
X897724Y533535D02*
X895570Y533251D01*
X893564Y532420D01*
X891840Y531098D01*
X890518Y529374D01*
X889686Y527367D01*
X889403Y525214D01*
X889686Y523060D01*
X890518Y521053D01*
X891840Y519330D01*
X893564Y518007D01*
X895570Y517176D01*
X897724Y516892D01*
X899878Y517176D01*
X901885Y518007D01*
X903608Y519330D01*
X904930Y521053D01*
X905762Y523060D01*
X906045Y525214D01*
X905762Y527367D01*
X904930Y529374D01*
X903608Y531098D01*
X901885Y532420D01*
X899878Y533251D01*
X897724Y533535D01*
D02*
G37*
G36*
X525533Y494416D02*
X523380Y494132D01*
X521373Y493301D01*
X519649Y491979D01*
X518327Y490255D01*
X517495Y488248D01*
X517212Y486095D01*
X517495Y483941D01*
X518327Y481934D01*
X519649Y480211D01*
X521373Y478888D01*
X523380Y478057D01*
X525533Y477774D01*
X527687Y478057D01*
X529694Y478888D01*
X531417Y480211D01*
X532739Y481934D01*
X533571Y483941D01*
X533854Y486095D01*
X533571Y488248D01*
X532739Y490255D01*
X531417Y491979D01*
X529694Y493301D01*
X527687Y494132D01*
X525533Y494416D01*
D02*
G37*
G36*
X1090744Y490696D02*
X1088590Y490413D01*
X1086583Y489581D01*
X1084860Y488259D01*
X1083538Y486536D01*
X1082706Y484529D01*
X1082423Y482375D01*
X1082706Y480221D01*
X1083538Y478214D01*
X1084860Y476491D01*
X1086583Y475169D01*
X1088590Y474337D01*
X1090744Y474054D01*
X1092898Y474337D01*
X1094905Y475169D01*
X1096628Y476491D01*
X1097950Y478214D01*
X1098782Y480221D01*
X1099065Y482375D01*
X1098782Y484529D01*
X1097950Y486536D01*
X1096628Y488259D01*
X1094905Y489581D01*
X1092898Y490413D01*
X1090744Y490696D01*
D02*
G37*
G36*
X607548Y515078D02*
X605394Y514795D01*
X603387Y513963D01*
X601664Y512641D01*
X600341Y510918D01*
X599510Y508911D01*
X599226Y506757D01*
X599510Y504603D01*
X600341Y502596D01*
X601664Y500873D01*
X603387Y499551D01*
X605394Y498719D01*
X607548Y498436D01*
X609701Y498719D01*
X611708Y499551D01*
X613432Y500873D01*
X614754Y502596D01*
X615585Y504603D01*
X615869Y506757D01*
X615585Y508911D01*
X614754Y510918D01*
X613432Y512641D01*
X611708Y513963D01*
X609701Y514795D01*
X607548Y515078D01*
D02*
G37*
G36*
X803649Y513065D02*
X801495Y512782D01*
X799488Y511950D01*
X797765Y510628D01*
X796442Y508904D01*
X795611Y506898D01*
X795327Y504744D01*
X795611Y502590D01*
X795962Y501743D01*
X770782Y476564D01*
X692668D01*
X692182Y477737D01*
X706572Y492127D01*
X707419Y491776D01*
X709573Y491492D01*
X711727Y491776D01*
X713733Y492607D01*
X715457Y493930D01*
X716779Y495653D01*
X717610Y497660D01*
X717894Y499814D01*
X717610Y501967D01*
X716779Y503974D01*
X715457Y505698D01*
X713733Y507020D01*
X711727Y507851D01*
X709573Y508135D01*
X707419Y507851D01*
X705412Y507020D01*
X703689Y505698D01*
X702366Y503974D01*
X701535Y501967D01*
X701252Y499814D01*
X701535Y497660D01*
X701886Y496813D01*
X686637Y481564D01*
X631721D01*
X631289Y482834D01*
X631392Y482912D01*
X632715Y484636D01*
X633546Y486643D01*
X633829Y488797D01*
X633546Y490950D01*
X632715Y492957D01*
X631392Y494680D01*
X629669Y496003D01*
X627662Y496834D01*
X625508Y497118D01*
X623354Y496834D01*
X621348Y496003D01*
X619624Y494680D01*
X618302Y492957D01*
X617621Y491314D01*
X560500D01*
X559232Y491061D01*
X558157Y490343D01*
X535157Y467343D01*
X534439Y466268D01*
X534186Y465000D01*
Y464681D01*
X532916Y464428D01*
X532739Y464855D01*
X531417Y466579D01*
X529694Y467901D01*
X527687Y468732D01*
X525533Y469016D01*
X523380Y468732D01*
X521373Y467901D01*
X519955Y466814D01*
X473500D01*
X472232Y466561D01*
X471157Y465843D01*
X443157Y437843D01*
X442439Y436768D01*
X442186Y435500D01*
Y433644D01*
X441003Y433183D01*
X440729Y433482D01*
X438897Y434649D01*
X436825Y435303D01*
X434655Y435397D01*
X432534Y434927D01*
X430607Y433924D01*
X429006Y432457D01*
X427839Y430625D01*
X427185Y428553D01*
X427091Y426382D01*
X427561Y424262D01*
X428564Y422335D01*
X430031Y420733D01*
X431863Y419566D01*
X432066Y419502D01*
Y402120D01*
X432319Y400852D01*
X433037Y399777D01*
X438980Y393834D01*
X438454Y392564D01*
X373838D01*
X373777Y393948D01*
X373124Y396020D01*
X371957Y397852D01*
X370355Y399319D01*
X368429Y400322D01*
X366308Y400793D01*
X364138Y400698D01*
X362066Y400045D01*
X360234Y398877D01*
X358766Y397276D01*
X357763Y395349D01*
X357293Y393228D01*
X357388Y391058D01*
X358041Y388986D01*
X359208Y387154D01*
X359376Y387000D01*
X358916Y385817D01*
X324306D01*
X323037Y385564D01*
X321963Y384846D01*
X290342Y353226D01*
X289495Y353577D01*
X287342Y353860D01*
X285188Y353577D01*
X283181Y352746D01*
X281458Y351423D01*
X280135Y349700D01*
X279304Y347693D01*
X279021Y345539D01*
X279304Y343386D01*
X280135Y341379D01*
X281458Y339655D01*
X283181Y338333D01*
X285188Y337502D01*
X287342Y337218D01*
X289495Y337502D01*
X291502Y338333D01*
X293226Y339655D01*
X294548Y341379D01*
X295379Y343386D01*
X295663Y345539D01*
X295379Y347693D01*
X295029Y348540D01*
X325678Y379189D01*
X458753D01*
X459994Y379436D01*
X465750D01*
X467018Y379689D01*
X468093Y380407D01*
X468811Y381482D01*
X469064Y382750D01*
X468811Y384018D01*
X468093Y385093D01*
X467879Y385236D01*
Y386764D01*
X468093Y386907D01*
X468811Y387982D01*
X469064Y389250D01*
X468811Y390518D01*
X468093Y391593D01*
X467879Y391736D01*
Y393264D01*
X468093Y393407D01*
X468811Y394482D01*
X469064Y395750D01*
X468811Y397018D01*
X468093Y398093D01*
X467879Y398236D01*
Y399764D01*
X468093Y399907D01*
X468811Y400982D01*
X469064Y402250D01*
X468811Y403518D01*
X468093Y404593D01*
X467018Y405311D01*
X465750Y405564D01*
X450373D01*
X448814Y407123D01*
Y431757D01*
X449370Y432088D01*
X450084Y432289D01*
X450982Y431689D01*
X452250Y431436D01*
X465750D01*
X467018Y431689D01*
X467022Y431691D01*
X467250D01*
X467250Y431691D01*
X468421Y431924D01*
X469413Y432587D01*
X474663Y437837D01*
X474663Y437837D01*
X475326Y438829D01*
X475559Y440000D01*
Y442901D01*
X476648Y443352D01*
X477124Y444500D01*
Y450500D01*
X476648Y451648D01*
X475500Y452124D01*
X469500D01*
X468352Y451648D01*
X467876Y450500D01*
Y444500D01*
X468352Y443352D01*
X469441Y442901D01*
Y441267D01*
X466157Y437983D01*
X465750Y438064D01*
X454409D01*
X453923Y439237D01*
X474873Y460186D01*
X517279D01*
X517495Y458541D01*
X518327Y456534D01*
X518773Y455953D01*
X518325Y454765D01*
X518049Y454710D01*
X517104Y454078D01*
X505000D01*
X505000Y454078D01*
X503439Y453768D01*
X502116Y452884D01*
X501356Y452124D01*
X499500D01*
X498352Y451648D01*
X497876Y450500D01*
Y444500D01*
X498352Y443352D01*
X498422Y443323D01*
Y435000D01*
X498422Y435000D01*
X498732Y433439D01*
X499186Y432760D01*
Y418500D01*
X499439Y417232D01*
X500157Y416157D01*
X503407Y412907D01*
X504482Y412189D01*
X505750Y411936D01*
X522750D01*
X524018Y412189D01*
X524054Y412212D01*
X525189Y411444D01*
X524902Y410000D01*
X525290Y408049D01*
X526102Y406834D01*
X525528Y405564D01*
X509250D01*
X507982Y405311D01*
X506907Y404593D01*
X506189Y403518D01*
X505936Y402250D01*
X506189Y400982D01*
X506907Y399907D01*
X507121Y399764D01*
Y398236D01*
X506907Y398093D01*
X506189Y397018D01*
X505936Y395750D01*
X506189Y394482D01*
X506907Y393407D01*
X507121Y393264D01*
Y391736D01*
X506907Y391593D01*
X506189Y390518D01*
X505936Y389250D01*
X506189Y387982D01*
X506907Y386907D01*
X507121Y386764D01*
Y385236D01*
X506907Y385093D01*
X506189Y384018D01*
X505936Y382750D01*
X506189Y381482D01*
X506907Y380407D01*
X507982Y379689D01*
X509250Y379436D01*
X522750D01*
X524018Y379689D01*
X525093Y380407D01*
X525811Y381482D01*
X526064Y382750D01*
X525811Y384018D01*
X525378Y384666D01*
X525943Y385936D01*
X534250D01*
X535518Y386189D01*
X536593Y386907D01*
X549843Y400157D01*
X550561Y401232D01*
X550814Y402500D01*
Y404157D01*
X552084Y404542D01*
X552267Y404267D01*
X553177Y403660D01*
X554250Y403446D01*
X556750D01*
X557823Y403660D01*
X558733Y404267D01*
X558736Y404273D01*
X560264D01*
X560267Y404267D01*
X561177Y403660D01*
X562250Y403446D01*
X564750D01*
X565823Y403660D01*
X566733Y404267D01*
X566736Y404273D01*
X568264D01*
X568267Y404267D01*
X569177Y403660D01*
X570250Y403446D01*
X572750D01*
X573823Y403660D01*
X574733Y404267D01*
X574736Y404273D01*
X576264D01*
X576267Y404267D01*
X577177Y403660D01*
X578250Y403446D01*
X580750D01*
X581823Y403660D01*
X582733Y404267D01*
X583340Y405177D01*
X583554Y406250D01*
Y409434D01*
X584824Y409559D01*
X584939Y408982D01*
X585657Y407907D01*
X590907Y402657D01*
X591982Y401939D01*
X593250Y401686D01*
X626201D01*
X626395Y401395D01*
X628049Y400290D01*
X630000Y399902D01*
X630343Y399970D01*
X643436Y386878D01*
Y369624D01*
X642000D01*
X640852Y369148D01*
X640687Y368751D01*
X639313D01*
X639148Y369148D01*
X638000Y369624D01*
X632000D01*
X630852Y369148D01*
X630376Y368000D01*
Y362000D01*
X630852Y360852D01*
X632000Y360376D01*
X633687D01*
X636936Y357127D01*
Y348314D01*
X631994D01*
X631648Y349148D01*
X630500Y349624D01*
X624500D01*
X623352Y349148D01*
X623006Y348314D01*
X618799D01*
X618605Y348605D01*
X616951Y349710D01*
X615000Y350098D01*
X614035Y349906D01*
X612804Y350956D01*
Y362500D01*
X612590Y363573D01*
X611983Y364483D01*
X606985Y369480D01*
X607088Y370000D01*
X606739Y371756D01*
X605744Y373244D01*
X604256Y374239D01*
X602500Y374588D01*
X600744Y374239D01*
X599256Y373244D01*
X597887Y373483D01*
X597804Y373539D01*
Y375962D01*
X599850Y376232D01*
X602039Y377138D01*
X603919Y378581D01*
X605362Y380461D01*
X606268Y382650D01*
X606578Y385000D01*
X606268Y387350D01*
X605362Y389539D01*
X603919Y391419D01*
X602039Y392861D01*
X599850Y393768D01*
X597500Y394078D01*
X595150Y393768D01*
X592961Y392861D01*
X591081Y391419D01*
X589638Y389539D01*
X588732Y387350D01*
X588422Y385000D01*
X588732Y382650D01*
X589638Y380461D01*
X591081Y378581D01*
X592196Y377726D01*
Y373539D01*
X592113Y373483D01*
X590744Y373244D01*
X589256Y374239D01*
X587500Y374588D01*
X585744Y374239D01*
X584256Y373244D01*
X583261Y371756D01*
X582912Y370000D01*
X583261Y368244D01*
X584256Y366756D01*
X585040Y366231D01*
X585517Y365517D01*
X589450Y361584D01*
X588732Y359850D01*
X588422Y357500D01*
X588732Y355150D01*
X589638Y352961D01*
X591081Y351081D01*
X592961Y349638D01*
X595150Y348732D01*
X597500Y348422D01*
X599850Y348732D01*
X602039Y349638D01*
X603919Y351081D01*
X605362Y352961D01*
X605926Y354324D01*
X607196Y354072D01*
Y351161D01*
X597599Y341564D01*
X597500Y341578D01*
X595150Y341268D01*
X592961Y340361D01*
X591081Y338919D01*
X589638Y337039D01*
X588732Y334850D01*
X588422Y332500D01*
X588732Y330150D01*
X589638Y327961D01*
X591081Y326081D01*
X592961Y324638D01*
X595150Y323732D01*
X597500Y323422D01*
X599850Y323732D01*
X602039Y324638D01*
X603919Y326081D01*
X605362Y327961D01*
X606268Y330150D01*
X606578Y332500D01*
X606268Y334850D01*
X605362Y337039D01*
X603919Y338919D01*
X603855Y339890D01*
X608666Y344701D01*
X610045Y344283D01*
X610290Y343049D01*
X611395Y341395D01*
X613049Y340290D01*
X615000Y339902D01*
X616951Y340290D01*
X618605Y341395D01*
X618799Y341686D01*
X623006D01*
X623352Y340852D01*
X624500Y340376D01*
X630500D01*
X631648Y340852D01*
X631994Y341686D01*
X636936D01*
Y338679D01*
X637189Y337411D01*
X637907Y336336D01*
X641365Y332878D01*
Y307821D01*
X641618Y306553D01*
X642336Y305478D01*
X649936Y297878D01*
Y289000D01*
Y282250D01*
X650189Y280982D01*
X650907Y279907D01*
X651982Y279189D01*
X653250Y278936D01*
X654518Y279189D01*
X655593Y279907D01*
X656311Y280982D01*
X656564Y282250D01*
Y295750D01*
Y299250D01*
X656311Y300518D01*
X655593Y301593D01*
X647993Y309194D01*
Y330936D01*
X655321D01*
X656589Y331189D01*
X657664Y331907D01*
X662093Y336336D01*
X662811Y337411D01*
X663064Y338679D01*
Y346000D01*
Y357781D01*
X665659Y360376D01*
X668000D01*
X668166Y360445D01*
X669436Y359597D01*
Y352750D01*
Y346000D01*
Y339250D01*
X669689Y337982D01*
X670407Y336907D01*
X671482Y336189D01*
X672750Y335936D01*
X674018Y336189D01*
X675093Y336907D01*
X675236Y337121D01*
X676764D01*
X676907Y336907D01*
X677982Y336189D01*
X679250Y335936D01*
X680518Y336189D01*
X681593Y336907D01*
X681736Y337121D01*
X683264D01*
X683407Y336907D01*
X684482Y336189D01*
X685750Y335936D01*
X687018Y336189D01*
X688093Y336907D01*
X688236Y337121D01*
X689764D01*
X689907Y336907D01*
X690982Y336189D01*
X692250Y335936D01*
X693518Y336189D01*
X694593Y336907D01*
X695311Y337982D01*
X695564Y339250D01*
Y352750D01*
Y363806D01*
X720944Y389186D01*
X729887D01*
X730373Y388013D01*
X702907Y360547D01*
X702189Y359472D01*
X701936Y358204D01*
Y346000D01*
Y339250D01*
X702189Y337982D01*
X702907Y336907D01*
X703982Y336189D01*
X705250Y335936D01*
X706518Y336189D01*
X707593Y336907D01*
X707736Y337121D01*
X709264D01*
X709407Y336907D01*
X710482Y336189D01*
X711750Y335936D01*
X713018Y336189D01*
X714093Y336907D01*
X714236Y337121D01*
X715764D01*
X715907Y336907D01*
X716982Y336189D01*
X718250Y335936D01*
X719518Y336189D01*
X720593Y336907D01*
X720736Y337121D01*
X722264D01*
X722407Y336907D01*
X723482Y336189D01*
X724750Y335936D01*
X726018Y336189D01*
X727093Y336907D01*
X727811Y337982D01*
X728064Y339250D01*
Y342686D01*
X845127D01*
X907635Y280179D01*
Y270001D01*
X906788Y269650D01*
X905064Y268328D01*
X903742Y266604D01*
X902911Y264598D01*
X902627Y262444D01*
X902911Y260290D01*
X903742Y258283D01*
X905064Y256560D01*
X906788Y255238D01*
X908795Y254406D01*
X910948Y254123D01*
X913102Y254406D01*
X915109Y255238D01*
X916832Y256560D01*
X918155Y258283D01*
X918986Y260290D01*
X919270Y262444D01*
X918986Y264598D01*
X918155Y266604D01*
X916832Y268328D01*
X915109Y269650D01*
X914262Y270001D01*
Y281551D01*
X914010Y282820D01*
X913292Y283895D01*
X848843Y348343D01*
X847768Y349061D01*
X846500Y349314D01*
X728064D01*
Y352750D01*
X727811Y354018D01*
X727093Y355093D01*
X726609Y355416D01*
X726995Y356686D01*
X876127D01*
X891774Y341040D01*
X891148Y339870D01*
X890000Y340098D01*
X888049Y339710D01*
X886395Y338605D01*
X885290Y336951D01*
X884902Y335000D01*
X885290Y333049D01*
X886395Y331395D01*
X888049Y330290D01*
X890000Y329902D01*
X891951Y330290D01*
X893605Y331395D01*
X894710Y333049D01*
X895098Y335000D01*
X894870Y336148D01*
X896040Y336774D01*
X906789Y326025D01*
X906788Y325403D01*
X906550Y324468D01*
X905064Y323328D01*
X903742Y321604D01*
X902911Y319598D01*
X902627Y317444D01*
X902911Y315290D01*
X903742Y313283D01*
X905064Y311560D01*
X906788Y310238D01*
X908795Y309406D01*
X910948Y309123D01*
X913102Y309406D01*
X915109Y310238D01*
X916832Y311560D01*
X918155Y313283D01*
X918986Y315290D01*
X919270Y317444D01*
X918986Y319598D01*
X918155Y321604D01*
X916832Y323328D01*
X915109Y324650D01*
X914262Y325001D01*
Y326552D01*
X914010Y327820D01*
X913292Y328895D01*
X879843Y362343D01*
X878768Y363061D01*
X877500Y363314D01*
X724659D01*
X724173Y364487D01*
X738873Y379186D01*
X906004D01*
X907273Y379439D01*
X907825Y379808D01*
X908795Y379406D01*
X910948Y379123D01*
X913102Y379406D01*
X915109Y380238D01*
X916832Y381560D01*
X918155Y383283D01*
X918986Y385290D01*
X919270Y387444D01*
X918986Y389598D01*
X918155Y391604D01*
X916832Y393328D01*
X915109Y394650D01*
X913102Y395482D01*
X910948Y395765D01*
X908795Y395482D01*
X906788Y394650D01*
X905064Y393328D01*
X903742Y391604D01*
X902911Y389598D01*
X902627Y387444D01*
X902716Y386768D01*
X901879Y385814D01*
X837964D01*
X837478Y386987D01*
X850782Y400291D01*
X852068Y399759D01*
X854448Y399445D01*
X856829Y399759D01*
X859048Y400678D01*
X860953Y402140D01*
X862415Y404045D01*
X863334Y406263D01*
X863647Y408644D01*
X863334Y411025D01*
X862415Y413243D01*
X860953Y415148D01*
X859048Y416610D01*
X856829Y417529D01*
X854448Y417843D01*
X852068Y417529D01*
X849849Y416610D01*
X847944Y415148D01*
X846482Y413243D01*
X845563Y411025D01*
X845250Y408644D01*
X845563Y406263D01*
X846096Y404977D01*
X831932Y390814D01*
X817564D01*
X817078Y391987D01*
X825382Y400291D01*
X826668Y399759D01*
X829048Y399445D01*
X831429Y399759D01*
X833648Y400678D01*
X835553Y402140D01*
X837015Y404045D01*
X837934Y406263D01*
X838247Y408644D01*
X837934Y411025D01*
X837015Y413243D01*
X835553Y415148D01*
X833648Y416610D01*
X831429Y417529D01*
X829048Y417843D01*
X826668Y417529D01*
X824449Y416610D01*
X822544Y415148D01*
X821082Y413243D01*
X820163Y411025D01*
X819850Y408644D01*
X820163Y406263D01*
X820696Y404977D01*
X811532Y395814D01*
X771764D01*
X771278Y396987D01*
X774582Y400291D01*
X775868Y399759D01*
X778249Y399445D01*
X780629Y399759D01*
X782848Y400678D01*
X784753Y402140D01*
X786215Y404045D01*
X787134Y406263D01*
X787447Y408644D01*
X787134Y411025D01*
X786215Y413243D01*
X784753Y415148D01*
X782848Y416610D01*
X780629Y417529D01*
X778249Y417843D01*
X775868Y417529D01*
X773649Y416610D01*
X771744Y415148D01*
X770282Y413243D01*
X769363Y411025D01*
X769050Y408644D01*
X769363Y406263D01*
X769896Y404977D01*
X765732Y400814D01*
X759601D01*
X759192Y402016D01*
X759353Y402140D01*
X760815Y404045D01*
X761734Y406263D01*
X762047Y408644D01*
X761734Y411025D01*
X760815Y413243D01*
X759353Y415148D01*
X757448Y416610D01*
X755229Y417529D01*
X752849Y417843D01*
X750468Y417529D01*
X748249Y416610D01*
X746344Y415148D01*
X744882Y413243D01*
X744350Y411958D01*
X721144D01*
X719876Y411705D01*
X718801Y410987D01*
X701927Y394113D01*
X700724Y394706D01*
X700950Y396424D01*
X700666Y398578D01*
X699835Y400585D01*
X698513Y402308D01*
X696789Y403630D01*
X694782Y404462D01*
X692629Y404745D01*
X690475Y404462D01*
X688468Y403630D01*
X686745Y402308D01*
X685422Y400585D01*
X684591Y398578D01*
X684307Y396424D01*
X684591Y394271D01*
X685422Y392264D01*
X686745Y390540D01*
X688468Y389218D01*
X690475Y388386D01*
X692629Y388103D01*
X694347Y388329D01*
X694940Y387126D01*
X683966Y376152D01*
X682763Y376745D01*
X682989Y378464D01*
X682706Y380617D01*
X681875Y382624D01*
X680552Y384348D01*
X678829Y385670D01*
X676822Y386501D01*
X674668Y386785D01*
X672514Y386501D01*
X670508Y385670D01*
X668784Y384348D01*
X667462Y382624D01*
X666631Y380617D01*
X666347Y378464D01*
X666631Y376310D01*
X667462Y374303D01*
X668784Y372580D01*
X669436Y372079D01*
Y370403D01*
X668166Y369555D01*
X668000Y369624D01*
X662000D01*
X660852Y369148D01*
X660687Y368751D01*
X659313D01*
X659148Y369148D01*
X658000Y369624D01*
X656564D01*
Y396750D01*
X656311Y398018D01*
X655593Y399093D01*
X642530Y412157D01*
X642598Y412500D01*
X642210Y414451D01*
X641105Y416105D01*
X639451Y417210D01*
X637500Y417598D01*
X635549Y417210D01*
X633895Y416105D01*
X633701Y415814D01*
X616500D01*
X615232Y415561D01*
X614157Y414843D01*
X612627Y413314D01*
X597373D01*
X596564Y414123D01*
Y444250D01*
X596311Y445518D01*
X595593Y446593D01*
X580030Y462157D01*
X580098Y462500D01*
X579710Y464451D01*
X578605Y466105D01*
X576951Y467210D01*
X575000Y467598D01*
X573049Y467210D01*
X571395Y466105D01*
X570290Y464451D01*
X569902Y462500D01*
X570290Y460549D01*
X571395Y458895D01*
X572340Y458264D01*
Y456736D01*
X571395Y456105D01*
X570290Y454451D01*
X569902Y452500D01*
X570290Y450549D01*
X571395Y448895D01*
X573049Y447790D01*
X575000Y447402D01*
X575343Y447470D01*
X584686Y438128D01*
Y416567D01*
X583416Y416441D01*
X583340Y416823D01*
X582814Y417611D01*
Y420500D01*
X582561Y421768D01*
X582477Y421894D01*
X582598Y422500D01*
X582210Y424451D01*
X581105Y426105D01*
X579451Y427210D01*
X577500Y427598D01*
X575549Y427210D01*
X573895Y426105D01*
X573264Y425160D01*
X571736D01*
X571105Y426105D01*
X569550Y427144D01*
X569375Y427670D01*
X569230Y428549D01*
X569624Y429500D01*
Y435500D01*
X569148Y436648D01*
X568000Y437124D01*
X562000D01*
X560852Y436648D01*
X560687Y436251D01*
X559313D01*
X559148Y436648D01*
X558702Y436833D01*
Y438167D01*
X559148Y438352D01*
X559624Y439500D01*
Y445500D01*
X559148Y446648D01*
X558314Y446994D01*
Y448701D01*
X558605Y448895D01*
X559710Y450549D01*
X560098Y452500D01*
X559710Y454451D01*
X558605Y456105D01*
X556951Y457210D01*
X555000Y457598D01*
X553049Y457210D01*
X552084Y456565D01*
X550814Y457244D01*
Y458628D01*
X562123Y469936D01*
X606091D01*
X606577Y468763D01*
X597843Y460030D01*
X597500Y460098D01*
X595549Y459710D01*
X593895Y458605D01*
X592790Y456951D01*
X592402Y455000D01*
X592790Y453049D01*
X593895Y451395D01*
X595549Y450290D01*
X597500Y449902D01*
X599451Y450290D01*
X601105Y451395D01*
X602210Y453049D01*
X602598Y455000D01*
X602530Y455343D01*
X612123Y464936D01*
X636397D01*
X636787Y463666D01*
X635539Y462039D01*
X634632Y459850D01*
X634322Y457500D01*
X634632Y455150D01*
X635539Y452961D01*
X636981Y451081D01*
X638861Y449638D01*
X641050Y448732D01*
X643400Y448422D01*
X645750Y448732D01*
X647939Y449638D01*
X649819Y451081D01*
X651262Y452961D01*
X652168Y455150D01*
X652478Y457500D01*
X652168Y459850D01*
X651262Y462039D01*
X650013Y463666D01*
X650403Y464936D01*
X661797D01*
X662187Y463666D01*
X660939Y462039D01*
X660032Y459850D01*
X659722Y457500D01*
X660032Y455150D01*
X660939Y452961D01*
X662381Y451081D01*
X664261Y449638D01*
X666451Y448732D01*
X668800Y448422D01*
X671150Y448732D01*
X673339Y449638D01*
X675219Y451081D01*
X676662Y452961D01*
X677568Y455150D01*
X677878Y457500D01*
X677568Y459850D01*
X676662Y462039D01*
X675413Y463666D01*
X675803Y464936D01*
X682077D01*
X685939Y461075D01*
X685432Y459850D01*
X685122Y457500D01*
X685432Y455150D01*
X685939Y453925D01*
X680157Y448143D01*
X679439Y447068D01*
X679186Y445800D01*
Y418799D01*
X678895Y418605D01*
X677790Y416951D01*
X677402Y415000D01*
X677790Y413049D01*
X678895Y411395D01*
X680549Y410290D01*
X682500Y409902D01*
X684451Y410290D01*
X686105Y411395D01*
X687210Y413049D01*
X687598Y415000D01*
X687210Y416951D01*
X686105Y418605D01*
X685814Y418799D01*
Y444427D01*
X690625Y449239D01*
X691851Y448732D01*
X694200Y448422D01*
X696550Y448732D01*
X698739Y449638D01*
X700619Y451081D01*
X702061Y452961D01*
X702968Y455150D01*
X703278Y457500D01*
X702968Y459850D01*
X702061Y462039D01*
X700619Y463919D01*
X698739Y465362D01*
X696550Y466268D01*
X694200Y466578D01*
X691851Y466268D01*
X690625Y465761D01*
X687623Y468763D01*
X688109Y469936D01*
X772154D01*
X773423Y470189D01*
X774498Y470907D01*
X800648Y497057D01*
X801495Y496706D01*
X803649Y496423D01*
X805802Y496706D01*
X807809Y497538D01*
X809532Y498860D01*
X810855Y500583D01*
X811686Y502590D01*
X811970Y504744D01*
X811686Y506898D01*
X810855Y508904D01*
X809532Y510628D01*
X807809Y511950D01*
X805802Y512782D01*
X803649Y513065D01*
D02*
G37*
G36*
X522750Y373064D02*
X509250D01*
X507982Y372811D01*
X506907Y372093D01*
X506189Y371018D01*
X505936Y369750D01*
X506189Y368482D01*
X506622Y367834D01*
X506057Y366564D01*
X505000D01*
X503732Y366311D01*
X502657Y365593D01*
X481878Y344814D01*
X478227D01*
X476959Y344561D01*
X475884Y343843D01*
X465078Y333037D01*
X464359Y331962D01*
X464137Y330845D01*
X463561Y330537D01*
X462837Y330416D01*
X461181Y331687D01*
X459174Y332518D01*
X457021Y332802D01*
X454867Y332518D01*
X452860Y331687D01*
X451137Y330365D01*
X449814Y328641D01*
X448983Y326634D01*
X448699Y324481D01*
X448983Y322327D01*
X449814Y320320D01*
X451137Y318597D01*
X452860Y317274D01*
X454867Y316443D01*
X457021Y316159D01*
X459174Y316443D01*
X461181Y317274D01*
X462837Y318545D01*
X463271Y318472D01*
X464107Y318188D01*
Y275773D01*
X463271Y275489D01*
X462837Y275417D01*
X461181Y276687D01*
X459174Y277518D01*
X457021Y277802D01*
X454867Y277518D01*
X452860Y276687D01*
X451137Y275365D01*
X449814Y273641D01*
X448983Y271634D01*
X448699Y269481D01*
X448983Y267327D01*
X449814Y265320D01*
X451137Y263597D01*
X452860Y262274D01*
X454867Y261443D01*
X457021Y261159D01*
X459174Y261443D01*
X461181Y262274D01*
X462837Y263545D01*
X463271Y263472D01*
X464107Y263189D01*
Y229481D01*
X464359Y228213D01*
X465078Y227138D01*
X474734Y217481D01*
X474383Y216634D01*
X474100Y214481D01*
X474383Y212327D01*
X475214Y210320D01*
X476537Y208597D01*
X478260Y207274D01*
X480267Y206443D01*
X482421Y206159D01*
X484574Y206443D01*
X486581Y207274D01*
X488305Y208597D01*
X489627Y210320D01*
X490458Y212327D01*
X490742Y214481D01*
X490458Y216634D01*
X489627Y218641D01*
X488305Y220365D01*
X486581Y221687D01*
X484574Y222518D01*
X482421Y222802D01*
X480267Y222518D01*
X479420Y222167D01*
X470734Y230853D01*
Y274821D01*
X471908Y275308D01*
X474734Y272481D01*
X474383Y271634D01*
X474100Y269481D01*
X474383Y267327D01*
X475214Y265320D01*
X476537Y263597D01*
X478260Y262274D01*
X478429Y262204D01*
X478650Y260738D01*
X477790Y259451D01*
X477402Y257500D01*
X477790Y255549D01*
X478895Y253895D01*
X480549Y252790D01*
X482500Y252402D01*
X484451Y252790D01*
X486105Y253895D01*
X487210Y255549D01*
X487598Y257500D01*
X487210Y259451D01*
X486315Y260790D01*
X486510Y262245D01*
X486581Y262274D01*
X488305Y263597D01*
X489627Y265320D01*
X490458Y267327D01*
X490742Y269481D01*
X490458Y271634D01*
X489627Y273641D01*
X488305Y275365D01*
X486581Y276687D01*
X484574Y277518D01*
X482421Y277802D01*
X480267Y277518D01*
X479420Y277167D01*
X475734Y280853D01*
Y317640D01*
X477004Y318238D01*
X478260Y317274D01*
X480267Y316443D01*
X482421Y316159D01*
X484574Y316443D01*
X486581Y317274D01*
X488305Y318597D01*
X489627Y320320D01*
X490458Y322327D01*
X490742Y324481D01*
X490458Y326634D01*
X490108Y327481D01*
X509563Y346936D01*
X522750D01*
X524018Y347189D01*
X525093Y347907D01*
X525811Y348982D01*
X526064Y350250D01*
X525811Y351518D01*
X525093Y352593D01*
X524879Y352736D01*
Y354264D01*
X525093Y354407D01*
X525811Y355482D01*
X526064Y356750D01*
X525811Y358018D01*
X525093Y359093D01*
X524879Y359236D01*
Y360764D01*
X525093Y360907D01*
X525811Y361982D01*
X526064Y363250D01*
X525811Y364518D01*
X525093Y365593D01*
X524879Y365736D01*
Y367264D01*
X525093Y367407D01*
X525811Y368482D01*
X526064Y369750D01*
X525811Y371018D01*
X525093Y372093D01*
X524018Y372811D01*
X522750Y373064D01*
D02*
G37*
G36*
X465750D02*
X332250D01*
X330982Y372811D01*
X329907Y372093D01*
X283627Y325814D01*
X257094D01*
X255826Y325561D01*
X254751Y324843D01*
X221578Y291670D01*
X220311Y291753D01*
X220015Y292138D01*
X218291Y293461D01*
X216285Y294292D01*
X214131Y294576D01*
X211977Y294292D01*
X209970Y293461D01*
X208247Y292138D01*
X206925Y290415D01*
X206093Y288408D01*
X205810Y286254D01*
X206093Y284101D01*
X206925Y282094D01*
X208247Y280370D01*
X209970Y279048D01*
X211977Y278217D01*
X213972Y277954D01*
X214590Y277002D01*
X214665Y276851D01*
X160749Y222935D01*
X155075D01*
X154725Y223782D01*
X153402Y225505D01*
X151679Y226828D01*
X149672Y227659D01*
X147518Y227943D01*
X145364Y227659D01*
X143357Y226828D01*
X141634Y225505D01*
X140312Y223782D01*
X139480Y221775D01*
X139197Y219622D01*
X139480Y217468D01*
X140312Y215461D01*
X141634Y213738D01*
X143357Y212415D01*
X145364Y211584D01*
X147518Y211300D01*
X149672Y211584D01*
X151679Y212415D01*
X153402Y213738D01*
X154725Y215461D01*
X155075Y216308D01*
X159962D01*
X160448Y215135D01*
X153628Y208314D01*
X146803D01*
X145534Y208061D01*
X144459Y207343D01*
X91234Y154117D01*
X90387Y154468D01*
X88233Y154752D01*
X86080Y154468D01*
X84073Y153637D01*
X82349Y152315D01*
X81027Y150591D01*
X80196Y148584D01*
X79912Y146431D01*
X80196Y144277D01*
X81027Y142270D01*
X82349Y140547D01*
X84073Y139224D01*
X86080Y138393D01*
X88233Y138110D01*
X89263Y138245D01*
X89856Y137042D01*
X34583Y81769D01*
X33864Y80694D01*
X33612Y79426D01*
Y74981D01*
X32765Y74630D01*
X31042Y73308D01*
X29719Y71585D01*
X28888Y69578D01*
X28604Y67424D01*
X28888Y65270D01*
X29719Y63263D01*
X31042Y61540D01*
X32765Y60218D01*
X34772Y59386D01*
X36926Y59103D01*
X39079Y59386D01*
X41086Y60218D01*
X42810Y61540D01*
X44132Y63263D01*
X44963Y65270D01*
X45247Y67424D01*
X44963Y69578D01*
X44132Y71585D01*
X42810Y73308D01*
X41086Y74630D01*
X40239Y74981D01*
Y78053D01*
X142203Y180017D01*
X143376Y179531D01*
Y160000D01*
X143852Y158852D01*
X145000Y158376D01*
X161136D01*
X161493Y157894D01*
X160852Y156624D01*
X137500Y156624D01*
X136352Y156148D01*
X135876Y155000D01*
Y130000D01*
X136352Y128852D01*
X137500Y128376D01*
X172500D01*
X173648Y128852D01*
X174124Y130000D01*
Y145000D01*
X173648Y146148D01*
X170190Y149606D01*
X170716Y150876D01*
X195000D01*
X196148Y151352D01*
X196624Y152500D01*
Y220000D01*
X196148Y221148D01*
X195000Y221624D01*
X185469D01*
X184983Y222797D01*
X266373Y304186D01*
X292500D01*
X293768Y304439D01*
X294843Y305157D01*
X336623Y346936D01*
X465750D01*
X467018Y347189D01*
X468093Y347907D01*
X468811Y348982D01*
X469064Y350250D01*
X468811Y351518D01*
X468093Y352593D01*
X467879Y352736D01*
Y354264D01*
X468093Y354407D01*
X468811Y355482D01*
X469064Y356750D01*
X468811Y358018D01*
X468093Y359093D01*
X467879Y359236D01*
Y360764D01*
X468093Y360907D01*
X468811Y361982D01*
X469064Y363250D01*
X468811Y364518D01*
X468093Y365593D01*
X467879Y365736D01*
Y367264D01*
X468093Y367407D01*
X468811Y368482D01*
X469064Y369750D01*
X468811Y371018D01*
X468093Y372093D01*
X467018Y372811D01*
X465750Y373064D01*
D02*
G37*
G36*
X1160750Y296098D02*
X1158799Y295710D01*
X1157145Y294605D01*
X1156040Y292951D01*
X1155652Y291000D01*
X1156040Y289049D01*
X1157145Y287395D01*
X1158799Y286290D01*
X1160750Y285902D01*
X1162701Y286290D01*
X1164355Y287395D01*
X1165460Y289049D01*
X1165848Y291000D01*
X1165460Y292951D01*
X1164355Y294605D01*
X1162701Y295710D01*
X1160750Y296098D01*
D02*
G37*
G36*
X332500Y335098D02*
X330549Y334710D01*
X328895Y333605D01*
X327790Y331951D01*
X327402Y330000D01*
X327790Y328049D01*
X328895Y326395D01*
X330549Y325290D01*
X332500Y324902D01*
X334451Y325290D01*
X334654Y325426D01*
X334979Y325541D01*
X335335Y325291D01*
X335852Y324148D01*
X335376Y323000D01*
Y317000D01*
X335852Y315852D01*
X336941Y315401D01*
Y311002D01*
X335952Y310592D01*
X335476Y309444D01*
Y299444D01*
X335952Y298296D01*
X337100Y297820D01*
X345100D01*
X346248Y298296D01*
X346724Y299444D01*
X347976D01*
X348452Y298296D01*
X349600Y297820D01*
X357600D01*
X358748Y298296D01*
X359224Y299444D01*
Y309444D01*
X358748Y310592D01*
X357600Y311068D01*
X355559D01*
Y315401D01*
X356648Y315852D01*
X357124Y317000D01*
Y323000D01*
X356648Y324148D01*
X356251Y324313D01*
Y325687D01*
X356648Y325852D01*
X357124Y327000D01*
Y333000D01*
X356648Y334148D01*
X355500Y334624D01*
X349500D01*
X348352Y334148D01*
X348323Y334078D01*
X344177D01*
X344148Y334148D01*
X343000Y334624D01*
X337000D01*
X335852Y334148D01*
X334654Y334574D01*
X334451Y334710D01*
X332500Y335098D01*
D02*
G37*
G36*
X936348Y325765D02*
X934195Y325482D01*
X932188Y324650D01*
X930464Y323328D01*
X929142Y321604D01*
X928311Y319598D01*
X928027Y317444D01*
X928311Y315290D01*
X929142Y313283D01*
X930464Y311560D01*
X932188Y310238D01*
X934195Y309406D01*
X936348Y309123D01*
X938502Y309406D01*
X940509Y310238D01*
X942232Y311560D01*
X943555Y313283D01*
X944386Y315290D01*
X944670Y317444D01*
X944386Y319598D01*
X943555Y321604D01*
X942232Y323328D01*
X940509Y324650D01*
X938502Y325482D01*
X936348Y325765D01*
D02*
G37*
G36*
X724750Y299064D02*
X723482Y298811D01*
X722407Y298093D01*
X722264Y297879D01*
X720736D01*
X720593Y298093D01*
X719518Y298811D01*
X718250Y299064D01*
X716982Y298811D01*
X715907Y298093D01*
X715764Y297879D01*
X714236D01*
X714093Y298093D01*
X713018Y298811D01*
X711750Y299064D01*
X710482Y298811D01*
X709407Y298093D01*
X709264Y297879D01*
X707736D01*
X707593Y298093D01*
X706518Y298811D01*
X705250Y299064D01*
X703982Y298811D01*
X702907Y298093D01*
X702189Y297018D01*
X701936Y295750D01*
Y289000D01*
Y282250D01*
Y267250D01*
X702189Y265982D01*
X702907Y264907D01*
X713913Y253901D01*
X714988Y253183D01*
X716256Y252930D01*
X744350D01*
X744882Y251645D01*
X746344Y249739D01*
X748249Y248278D01*
X750468Y247359D01*
X752849Y247045D01*
X755229Y247359D01*
X757448Y248278D01*
X759353Y249739D01*
X760815Y251645D01*
X761734Y253863D01*
X762047Y256244D01*
X761734Y258625D01*
X760815Y260843D01*
X759353Y262748D01*
X759046Y262984D01*
X759454Y264186D01*
X765620D01*
X769896Y259910D01*
X769363Y258625D01*
X769050Y256244D01*
X769363Y253863D01*
X770282Y251645D01*
X771744Y249739D01*
X773649Y248278D01*
X775868Y247359D01*
X778249Y247045D01*
X780629Y247359D01*
X782848Y248278D01*
X784753Y249739D01*
X786215Y251645D01*
X787134Y253863D01*
X787447Y256244D01*
X787134Y258625D01*
X786215Y260843D01*
X784753Y262748D01*
X782848Y264210D01*
X780629Y265129D01*
X778249Y265443D01*
X775868Y265129D01*
X774582Y264597D01*
X771166Y268013D01*
X771652Y269186D01*
X811420D01*
X820696Y259910D01*
X820163Y258625D01*
X819850Y256244D01*
X820163Y253863D01*
X821082Y251645D01*
X822544Y249739D01*
X824449Y248278D01*
X826668Y247359D01*
X829048Y247045D01*
X831429Y247359D01*
X833648Y248278D01*
X835553Y249739D01*
X837015Y251645D01*
X837934Y253863D01*
X838247Y256244D01*
X837934Y258625D01*
X837015Y260843D01*
X835553Y262748D01*
X833648Y264210D01*
X831429Y265129D01*
X829048Y265443D01*
X826668Y265129D01*
X825382Y264597D01*
X816965Y273013D01*
X817452Y274186D01*
X831820D01*
X846096Y259910D01*
X845563Y258625D01*
X845250Y256244D01*
X845563Y253863D01*
X846482Y251645D01*
X847944Y249739D01*
X849849Y248278D01*
X852068Y247359D01*
X854448Y247045D01*
X856829Y247359D01*
X859048Y248278D01*
X860953Y249739D01*
X862415Y251645D01*
X863334Y253863D01*
X863647Y256244D01*
X863334Y258625D01*
X862415Y260843D01*
X860953Y262748D01*
X859048Y264210D01*
X856829Y265129D01*
X854448Y265443D01*
X852068Y265129D01*
X850782Y264597D01*
X835536Y279843D01*
X834461Y280561D01*
X833192Y280814D01*
X728873D01*
X728064Y281623D01*
Y289000D01*
Y295750D01*
X727811Y297018D01*
X727093Y298093D01*
X726018Y298811D01*
X724750Y299064D01*
D02*
G37*
G36*
X1016350Y328496D02*
X1014653Y328273D01*
X1013072Y327618D01*
X1013001Y327564D01*
X1011350D01*
X1010202Y327088D01*
X1009726Y325940D01*
Y325559D01*
X994599D01*
X994148Y326648D01*
X993000Y327124D01*
X987000D01*
X985852Y326648D01*
X985687Y326251D01*
X984313D01*
X984148Y326648D01*
X983000Y327124D01*
X977000D01*
X975852Y326648D01*
X975823Y326578D01*
X972896D01*
X971951Y327210D01*
X970000Y327598D01*
X968049Y327210D01*
X966395Y326105D01*
X965290Y324451D01*
X964902Y322500D01*
X965290Y320549D01*
X966395Y318895D01*
X968049Y317790D01*
X970000Y317402D01*
X971951Y317790D01*
X972896Y318422D01*
X975823D01*
X975852Y318352D01*
X977000Y317876D01*
X983000D01*
X984148Y318352D01*
X984313Y318749D01*
X985687D01*
X985852Y318352D01*
X987000Y317876D01*
X993000D01*
X994148Y318352D01*
X994599Y319441D01*
X1009726D01*
Y317940D01*
X1009794Y317777D01*
Y313603D01*
X1009726Y313440D01*
Y305440D01*
X1010202Y304292D01*
X1011350Y303816D01*
X1013001D01*
X1013072Y303762D01*
X1014653Y303107D01*
X1016350Y302884D01*
X1018047Y303107D01*
X1019628Y303762D01*
X1019699Y303816D01*
X1021350D01*
X1022498Y304292D01*
X1022974Y305440D01*
Y313440D01*
X1022906Y313603D01*
Y317777D01*
X1022974Y317940D01*
Y325940D01*
X1022498Y327088D01*
X1021350Y327564D01*
X1019699D01*
X1019628Y327618D01*
X1018047Y328273D01*
X1016350Y328496D01*
D02*
G37*
G36*
X261942Y353860D02*
X259788Y353577D01*
X257781Y352746D01*
X256058Y351423D01*
X254735Y349700D01*
X253904Y347693D01*
X253620Y345539D01*
X253904Y343386D01*
X254735Y341379D01*
X256058Y339655D01*
X257781Y338333D01*
X259788Y337502D01*
X261942Y337218D01*
X264095Y337502D01*
X266102Y338333D01*
X267826Y339655D01*
X269148Y341379D01*
X269979Y343386D01*
X270263Y345539D01*
X269979Y347693D01*
X269148Y349700D01*
X267826Y351423D01*
X266102Y352746D01*
X264095Y353577D01*
X261942Y353860D01*
D02*
G37*
G36*
X548000Y384624D02*
X542000D01*
X540852Y384148D01*
X540687Y383751D01*
X539313D01*
X539148Y384148D01*
X538000Y384624D01*
X532000D01*
X530852Y384148D01*
X530376Y383000D01*
Y377000D01*
X530852Y375852D01*
X531298Y375667D01*
Y374333D01*
X530852Y374148D01*
X530376Y373000D01*
Y367000D01*
X530852Y365852D01*
X530969Y365467D01*
X530290Y364451D01*
X529902Y362500D01*
X530290Y360549D01*
X531395Y358895D01*
X533049Y357790D01*
X535000Y357402D01*
X536951Y357790D01*
X538605Y358895D01*
X539710Y360549D01*
X540098Y362500D01*
X539710Y364451D01*
X539357Y364979D01*
X539617Y365516D01*
X540852Y365852D01*
X541941Y365401D01*
Y360000D01*
X541941Y360000D01*
X542174Y358829D01*
X542837Y357837D01*
X547837Y352837D01*
X548829Y352174D01*
X550000Y351941D01*
X550000Y351941D01*
X567500D01*
X567500Y351941D01*
X568671Y352174D01*
X569663Y352837D01*
X573663Y356837D01*
X573663Y356837D01*
X574326Y357829D01*
X574559Y359000D01*
Y362151D01*
X574733Y362267D01*
X575340Y363177D01*
X575554Y364250D01*
Y373750D01*
X575340Y374823D01*
X574733Y375733D01*
X573823Y376340D01*
X572750Y376554D01*
X570250D01*
X569177Y376340D01*
X568267Y375733D01*
X568264Y375727D01*
X566736D01*
X566733Y375733D01*
X565823Y376340D01*
X565508Y376403D01*
X565006Y376739D01*
X563250Y377088D01*
X561494Y376739D01*
X560006Y375744D01*
X559142Y375736D01*
X558551Y375854D01*
X557823Y376340D01*
X556750Y376554D01*
X556679D01*
X555250Y376838D01*
X554417Y376673D01*
X549624Y381466D01*
Y383000D01*
X549148Y384148D01*
X548000Y384624D01*
D02*
G37*
G36*
X622500Y394098D02*
X620549Y393710D01*
X618895Y392605D01*
X617790Y390951D01*
X617402Y389000D01*
X617790Y387049D01*
X618895Y385395D01*
X620549Y384290D01*
X622500Y383902D01*
X624451Y384290D01*
X626105Y385395D01*
X627210Y387049D01*
X627598Y389000D01*
X627210Y390951D01*
X626105Y392605D01*
X624451Y393710D01*
X622500Y394098D01*
D02*
G37*
G36*
X1264857Y409500D02*
X1262737Y409030D01*
X1260810Y408027D01*
X1259208Y406559D01*
X1258041Y404727D01*
X1257388Y402655D01*
X1257293Y400485D01*
X1257763Y398364D01*
X1258766Y396438D01*
X1260234Y394836D01*
X1262066Y393669D01*
X1262269Y393605D01*
Y361648D01*
X1261518Y361298D01*
X1260999Y361176D01*
X1259451Y362210D01*
X1257500Y362598D01*
X1255549Y362210D01*
X1254743Y361672D01*
X1254075Y361999D01*
X1253536Y362392D01*
X1253311Y363518D01*
X1252593Y364593D01*
X1251518Y365311D01*
X1250250Y365564D01*
X1245741D01*
X1245061Y366018D01*
X1243500Y366328D01*
X1236939D01*
X1234078Y369189D01*
Y373323D01*
X1234148Y373352D01*
X1234624Y374500D01*
Y380500D01*
X1234148Y381648D01*
X1234078Y381677D01*
Y384604D01*
X1234710Y385549D01*
X1234796Y385982D01*
X1236167Y386365D01*
X1236366Y386149D01*
X1238198Y384982D01*
X1240269Y384328D01*
X1242440Y384234D01*
X1244560Y384704D01*
X1246487Y385707D01*
X1248089Y387174D01*
X1249256Y389006D01*
X1249909Y391078D01*
X1250004Y393248D01*
X1249534Y395369D01*
X1248531Y397296D01*
X1247063Y398898D01*
X1245231Y400065D01*
X1243159Y400718D01*
X1240989Y400813D01*
X1238868Y400342D01*
X1236942Y399339D01*
X1235340Y397872D01*
X1234173Y396040D01*
X1233520Y393968D01*
X1233465Y392725D01*
X1232165Y392067D01*
X1231951Y392210D01*
X1230000Y392598D01*
X1228049Y392210D01*
X1226395Y391105D01*
X1225290Y389451D01*
X1224902Y387500D01*
X1225290Y385549D01*
X1225922Y384604D01*
Y381677D01*
X1225852Y381648D01*
X1225376Y380500D01*
Y374500D01*
X1225852Y373352D01*
X1225922Y373323D01*
Y367500D01*
X1225922Y367500D01*
X1226232Y365939D01*
X1227116Y364616D01*
X1227924Y363809D01*
X1227658Y363051D01*
X1227365Y362571D01*
X1225549Y362210D01*
X1223895Y361105D01*
X1222790Y359451D01*
X1222402Y357500D01*
X1222790Y355549D01*
X1223895Y353895D01*
X1225549Y352790D01*
X1227500Y352402D01*
X1227843Y352470D01*
X1233407Y346907D01*
X1234125Y346427D01*
X1234357Y345331D01*
X1234298Y344930D01*
X1233689Y344018D01*
X1233436Y342750D01*
X1233689Y341482D01*
X1234407Y340407D01*
X1235482Y339689D01*
X1236750Y339436D01*
X1253534D01*
X1253895Y338895D01*
X1255549Y337790D01*
X1257500Y337402D01*
X1259451Y337790D01*
X1260999Y338824D01*
X1261518Y338702D01*
X1262269Y338352D01*
Y324455D01*
X1257878Y320064D01*
X1253443D01*
X1252878Y321334D01*
X1253311Y321982D01*
X1253564Y323250D01*
X1253311Y324518D01*
X1252593Y325593D01*
X1252379Y325736D01*
Y327264D01*
X1252593Y327407D01*
X1253311Y328482D01*
X1253564Y329750D01*
X1253311Y331018D01*
X1252593Y332093D01*
X1251518Y332812D01*
X1250250Y333064D01*
X1236750D01*
X1235482Y332812D01*
X1234407Y332093D01*
X1233689Y331018D01*
X1233436Y329750D01*
X1233689Y328482D01*
X1234407Y327407D01*
X1234621Y327264D01*
Y325736D01*
X1234407Y325593D01*
X1233689Y324518D01*
X1233436Y323250D01*
X1233689Y321982D01*
X1234407Y320907D01*
X1234621Y320764D01*
Y319236D01*
X1234407Y319093D01*
X1233689Y318018D01*
X1233436Y316750D01*
X1233689Y315482D01*
X1234407Y314407D01*
X1234621Y314264D01*
Y312736D01*
X1234407Y312593D01*
X1233689Y311518D01*
X1233436Y310250D01*
X1233689Y308982D01*
X1234407Y307907D01*
X1235482Y307189D01*
X1236750Y306936D01*
X1284666D01*
X1285934Y307189D01*
X1287009Y307907D01*
X1316955Y337852D01*
X1317802Y337502D01*
X1319955Y337218D01*
X1322109Y337502D01*
X1324116Y338333D01*
X1325839Y339655D01*
X1327162Y341379D01*
X1327993Y343386D01*
X1328276Y345539D01*
X1327993Y347693D01*
X1327162Y349700D01*
X1325839Y351423D01*
X1324116Y352746D01*
X1322109Y353577D01*
X1319955Y353860D01*
X1317802Y353577D01*
X1315795Y352746D01*
X1314071Y351423D01*
X1312749Y349700D01*
X1311918Y347693D01*
X1311634Y345539D01*
X1311918Y343386D01*
X1312268Y342539D01*
X1283293Y313564D01*
X1262546D01*
X1262020Y314834D01*
X1267926Y320739D01*
X1268644Y321814D01*
X1268896Y323083D01*
Y393634D01*
X1270355Y394394D01*
X1271957Y395862D01*
X1273124Y397694D01*
X1273777Y399766D01*
X1273872Y401936D01*
X1273402Y404056D01*
X1272399Y405983D01*
X1270931Y407585D01*
X1269099Y408752D01*
X1267028Y409405D01*
X1264857Y409500D01*
D02*
G37*
G36*
X936348Y395765D02*
X934195Y395482D01*
X932188Y394650D01*
X930464Y393328D01*
X929142Y391604D01*
X928311Y389598D01*
X928027Y387444D01*
X928311Y385290D01*
X929142Y383283D01*
X930464Y381560D01*
X932188Y380238D01*
X934195Y379406D01*
X936348Y379123D01*
X938502Y379406D01*
X940509Y380238D01*
X942232Y381560D01*
X943555Y383283D01*
X944386Y385290D01*
X944670Y387444D01*
X944386Y389598D01*
X943555Y391604D01*
X942232Y393328D01*
X940509Y394650D01*
X938502Y395482D01*
X936348Y395765D01*
D02*
G37*
G36*
X1345355Y353860D02*
X1343201Y353577D01*
X1341195Y352746D01*
X1339471Y351423D01*
X1338149Y349700D01*
X1337318Y347693D01*
X1337034Y345539D01*
X1337318Y343386D01*
X1338149Y341379D01*
X1339471Y339655D01*
X1341195Y338333D01*
X1343201Y337502D01*
X1345355Y337218D01*
X1347509Y337502D01*
X1349516Y338333D01*
X1351239Y339655D01*
X1352562Y341379D01*
X1353393Y343386D01*
X1353676Y345539D01*
X1353393Y347693D01*
X1352562Y349700D01*
X1351239Y351423D01*
X1349516Y352746D01*
X1347509Y353577D01*
X1345355Y353860D01*
D02*
G37*
G36*
X1418566Y294595D02*
X1416412Y294312D01*
X1414405Y293481D01*
X1412682Y292158D01*
X1411360Y290435D01*
X1410528Y288428D01*
X1410245Y286274D01*
X1410528Y284121D01*
X1411360Y282114D01*
X1412682Y280390D01*
X1414405Y279068D01*
X1416412Y278237D01*
X1418566Y277953D01*
X1420720Y278237D01*
X1422727Y279068D01*
X1424450Y280390D01*
X1425772Y282114D01*
X1426604Y284121D01*
X1426887Y286274D01*
X1426604Y288428D01*
X1425772Y290435D01*
X1424450Y292158D01*
X1422727Y293481D01*
X1420720Y294312D01*
X1418566Y294595D01*
D02*
G37*
G36*
X897724Y508135D02*
X895570Y507851D01*
X893564Y507020D01*
X891840Y505698D01*
X890518Y503974D01*
X889686Y501967D01*
X889403Y499814D01*
X889686Y497660D01*
X890518Y495653D01*
X891840Y493930D01*
X893564Y492607D01*
X895570Y491776D01*
X897724Y491492D01*
X899878Y491776D01*
X900725Y492127D01*
X917695Y475157D01*
X918770Y474439D01*
X920038Y474186D01*
X1031191D01*
X1150436Y354941D01*
Y331250D01*
X1150689Y329982D01*
X1151407Y328907D01*
X1172407Y307907D01*
X1173482Y307189D01*
X1174750Y306936D01*
X1193250D01*
X1194518Y307189D01*
X1195593Y307907D01*
X1196311Y308982D01*
X1196564Y310250D01*
X1196311Y311518D01*
X1195593Y312593D01*
X1195379Y312736D01*
Y314264D01*
X1195593Y314407D01*
X1196311Y315482D01*
X1196564Y316750D01*
X1196311Y318018D01*
X1195593Y319093D01*
X1195379Y319236D01*
Y320764D01*
X1195593Y320907D01*
X1196311Y321982D01*
X1196564Y323250D01*
X1196311Y324518D01*
X1195593Y325593D01*
X1195379Y325736D01*
Y327264D01*
X1195593Y327407D01*
X1196311Y328482D01*
X1196564Y329750D01*
X1196311Y331018D01*
X1195593Y332093D01*
X1194518Y332812D01*
X1193250Y333064D01*
X1179122D01*
X1175230Y336956D01*
Y354921D01*
X1175291Y354997D01*
X1176626Y354798D01*
X1176689Y354482D01*
X1177407Y353407D01*
X1178482Y352689D01*
X1179750Y352436D01*
X1184259D01*
X1184939Y351982D01*
X1186500Y351672D01*
X1198710D01*
X1198895Y351395D01*
X1200549Y350290D01*
X1202500Y349902D01*
X1204451Y350290D01*
X1206105Y351395D01*
X1207210Y353049D01*
X1207598Y355000D01*
X1207210Y356951D01*
X1206105Y358605D01*
X1204451Y359710D01*
X1202500Y360098D01*
X1201145Y359828D01*
X1198811D01*
X1198285Y361098D01*
X1202343Y365157D01*
X1203061Y366232D01*
X1203314Y367500D01*
Y373006D01*
X1204148Y373352D01*
X1204624Y374500D01*
Y380500D01*
X1204148Y381648D01*
X1203000Y382124D01*
X1197000D01*
X1195852Y381648D01*
X1195376Y380500D01*
Y374500D01*
X1195852Y373352D01*
X1196686Y373006D01*
Y368872D01*
X1193378Y365564D01*
X1179750D01*
X1178482Y365312D01*
X1177407Y364593D01*
X1176689Y363518D01*
X1176626Y363202D01*
X1175291Y363003D01*
X1175230Y363079D01*
Y419522D01*
X1175434Y419586D01*
X1177265Y420753D01*
X1178733Y422355D01*
X1179736Y424282D01*
X1180206Y426403D01*
X1180111Y428573D01*
X1179458Y430644D01*
X1178291Y432477D01*
X1176690Y433944D01*
X1174763Y434947D01*
X1172642Y435417D01*
X1170472Y435322D01*
X1168400Y434669D01*
X1166568Y433502D01*
X1165100Y431901D01*
X1164097Y429974D01*
X1163627Y427853D01*
X1163722Y425683D01*
X1164375Y423611D01*
X1165542Y421779D01*
X1167144Y420312D01*
X1168603Y419552D01*
Y413957D01*
X1167333Y413832D01*
X1167210Y414451D01*
X1166105Y416105D01*
X1164451Y417210D01*
X1162500Y417598D01*
X1160549Y417210D01*
X1158895Y416105D01*
X1157790Y414451D01*
X1157402Y412500D01*
X1157790Y410549D01*
X1158895Y408895D01*
X1159441Y408530D01*
Y396470D01*
X1158895Y396105D01*
X1157790Y394451D01*
X1157402Y392500D01*
X1157790Y390549D01*
X1158895Y388895D01*
X1160549Y387790D01*
X1162500Y387402D01*
X1164451Y387790D01*
X1166105Y388895D01*
X1167210Y390549D01*
X1167333Y391168D01*
X1168603Y391043D01*
Y362314D01*
X1167376Y361925D01*
X1167333Y361924D01*
X1076097Y453160D01*
Y456857D01*
X1076944Y457208D01*
X1078668Y458531D01*
X1079990Y460254D01*
X1080821Y462261D01*
X1081105Y464414D01*
X1080821Y466568D01*
X1079990Y468575D01*
X1078668Y470299D01*
X1076944Y471621D01*
X1074937Y472452D01*
X1072784Y472736D01*
X1070630Y472452D01*
X1068623Y471621D01*
X1066899Y470299D01*
X1065577Y468575D01*
X1064746Y466568D01*
X1064462Y464414D01*
X1064746Y462261D01*
X1065577Y460254D01*
X1066899Y458531D01*
X1068623Y457208D01*
X1069470Y456857D01*
Y454376D01*
X1068297Y453890D01*
X1031047Y491140D01*
X1029972Y491858D01*
X1028704Y492110D01*
X989346D01*
X988995Y492957D01*
X987673Y494680D01*
X985949Y496003D01*
X983942Y496834D01*
X981789Y497118D01*
X979635Y496834D01*
X977628Y496003D01*
X975905Y494680D01*
X974582Y492957D01*
X973751Y490950D01*
X973468Y488797D01*
X973751Y486643D01*
X974582Y484636D01*
X975905Y482912D01*
X976985Y482084D01*
X976554Y480814D01*
X921410D01*
X905411Y496813D01*
X905762Y497660D01*
X906045Y499814D01*
X905762Y501967D01*
X904930Y503974D01*
X903608Y505698D01*
X901885Y507020D01*
X899878Y507851D01*
X897724Y508135D01*
D02*
G37*
%LPD*%
G36*
X445000Y235000D02*
X405000D01*
Y260000D01*
X445000D01*
Y235000D01*
D02*
G37*
G36*
X170000Y90000D02*
X137500Y57500D01*
X72500D01*
Y80000D01*
X115000Y122500D01*
X170000D01*
Y90000D01*
D02*
G37*
G36*
X534186Y456708D02*
Y432244D01*
X532916Y431565D01*
X531951Y432210D01*
X530000Y432598D01*
X528049Y432210D01*
X527116Y431587D01*
X525919Y431784D01*
X525426Y432906D01*
X525811Y433482D01*
X526064Y434750D01*
X525811Y436018D01*
X525093Y437093D01*
X524018Y437811D01*
X522750Y438064D01*
X518241D01*
X517561Y438518D01*
X516000Y438828D01*
X506578D01*
Y443323D01*
X506648Y443352D01*
X507124Y444500D01*
Y445922D01*
X517104D01*
X518049Y445290D01*
X520000Y444902D01*
X521951Y445290D01*
X523605Y446395D01*
X524710Y448049D01*
X525098Y450000D01*
X524863Y451181D01*
X525152Y451696D01*
X525814Y452410D01*
X525815Y452411D01*
X527687Y452657D01*
X529694Y453488D01*
X531417Y454811D01*
X532739Y456534D01*
X532916Y456961D01*
X534186Y456708D01*
D02*
G37*
G36*
X195000Y152500D02*
X170000D01*
X162500Y160000D01*
X145000D01*
Y182814D01*
X182186Y220000D01*
X195000D01*
Y152500D01*
D02*
G37*
G36*
X172500Y145000D02*
Y130000D01*
X137500D01*
Y155000D01*
X162500Y155000D01*
X172500Y145000D01*
D02*
G37*
D10*
X1525000Y30000D02*
D03*
Y20000D02*
D03*
X1150000Y237500D02*
D03*
Y247500D02*
D03*
X1042500D02*
D03*
Y257500D02*
D03*
X627500Y335000D02*
D03*
Y345000D02*
D03*
X500000Y282500D02*
D03*
Y292500D02*
D03*
Y262500D02*
D03*
Y272500D02*
D03*
X340000Y330000D02*
D03*
Y320000D02*
D03*
X352500Y330000D02*
D03*
Y320000D02*
D03*
X62500Y5000D02*
D03*
Y15000D02*
D03*
X300000Y30000D02*
D03*
Y40000D02*
D03*
X197500Y55000D02*
D03*
Y65000D02*
D03*
X652500Y175000D02*
D03*
Y165000D02*
D03*
Y185000D02*
D03*
Y195000D02*
D03*
X662500Y200000D02*
D03*
Y190000D02*
D03*
X942500Y177500D02*
D03*
Y187500D02*
D03*
X952500Y177500D02*
D03*
Y187500D02*
D03*
X1045000Y209478D02*
D03*
Y219478D02*
D03*
D11*
X1475000Y5000D02*
D03*
X1465000D02*
D03*
X1200000Y377500D02*
D03*
X1210000D02*
D03*
X1220000D02*
D03*
X1230000D02*
D03*
X980000Y322500D02*
D03*
X990000D02*
D03*
X635000Y272500D02*
D03*
X645000D02*
D03*
X645000Y365000D02*
D03*
X635000D02*
D03*
X655000D02*
D03*
X665000D02*
D03*
X545000Y370000D02*
D03*
X535000D02*
D03*
X545000Y380000D02*
D03*
X535000D02*
D03*
X565000Y442500D02*
D03*
X555000D02*
D03*
X565000Y432500D02*
D03*
X555000D02*
D03*
X472500Y447500D02*
D03*
X482500D02*
D03*
X492500D02*
D03*
X502500D02*
D03*
X250000Y2500D02*
D03*
X240000D02*
D03*
X207500Y75000D02*
D03*
X217500D02*
D03*
X187500Y75000D02*
D03*
X197500D02*
D03*
X177500Y65000D02*
D03*
X187500D02*
D03*
X187500Y55000D02*
D03*
X177500D02*
D03*
X800000Y212500D02*
D03*
X810000D02*
D03*
X827500D02*
D03*
X837500D02*
D03*
X857500D02*
D03*
X847500D02*
D03*
X867500D02*
D03*
X877500D02*
D03*
X897500D02*
D03*
X887500D02*
D03*
X907500D02*
D03*
X917500D02*
D03*
X1042500Y237500D02*
D03*
X1032500D02*
D03*
D12*
X1243500Y284250D02*
D03*
Y290750D02*
D03*
Y297250D02*
D03*
Y303750D02*
D03*
Y310250D02*
D03*
Y316750D02*
D03*
Y323250D02*
D03*
Y329750D02*
D03*
Y336250D02*
D03*
Y342750D02*
D03*
Y349250D02*
D03*
Y355750D02*
D03*
Y362250D02*
D03*
Y277750D02*
D03*
X1186500Y310250D02*
D03*
Y303750D02*
D03*
Y297250D02*
D03*
Y290750D02*
D03*
Y284250D02*
D03*
Y277750D02*
D03*
Y362250D02*
D03*
Y355750D02*
D03*
Y349250D02*
D03*
Y342750D02*
D03*
Y336250D02*
D03*
Y329750D02*
D03*
Y323250D02*
D03*
Y316750D02*
D03*
X516000Y356750D02*
D03*
Y363250D02*
D03*
Y369750D02*
D03*
Y376250D02*
D03*
Y382750D02*
D03*
Y389250D02*
D03*
Y395750D02*
D03*
Y402250D02*
D03*
Y408750D02*
D03*
Y415250D02*
D03*
Y421750D02*
D03*
Y428250D02*
D03*
Y434750D02*
D03*
Y350250D02*
D03*
X459000Y382750D02*
D03*
Y376250D02*
D03*
Y369750D02*
D03*
Y363250D02*
D03*
Y356750D02*
D03*
Y350250D02*
D03*
Y434750D02*
D03*
Y428250D02*
D03*
Y421750D02*
D03*
Y415250D02*
D03*
Y408750D02*
D03*
Y402250D02*
D03*
Y395750D02*
D03*
Y389250D02*
D03*
D13*
X1215000Y320000D02*
D03*
X487500Y392500D02*
D03*
D14*
X1072500Y246950D02*
D03*
Y234250D02*
D03*
Y221550D02*
D03*
Y208850D02*
D03*
Y196150D02*
D03*
Y183450D02*
D03*
Y170750D02*
D03*
Y158050D02*
D03*
X1132500Y246950D02*
D03*
Y234250D02*
D03*
Y221550D02*
D03*
Y208850D02*
D03*
Y196150D02*
D03*
Y183450D02*
D03*
Y170750D02*
D03*
Y158050D02*
D03*
D15*
X597500Y332500D02*
D03*
Y357500D02*
D03*
Y385000D02*
D03*
X1170000Y240000D02*
D03*
Y262500D02*
D03*
X655000Y257500D02*
D03*
X680000Y267500D02*
D03*
X719600Y457500D02*
D03*
X694200D02*
D03*
X668800D02*
D03*
X643400D02*
D03*
X300000Y107500D02*
D03*
X689350Y166944D02*
D03*
X714750Y192344D02*
D03*
Y166944D02*
D03*
X740150Y192344D02*
D03*
Y166944D02*
D03*
X765550Y192344D02*
D03*
Y166944D02*
D03*
X790950Y192344D02*
D03*
Y166944D02*
D03*
X816350Y192344D02*
D03*
Y166944D02*
D03*
X841750Y192344D02*
D03*
Y166944D02*
D03*
X867150Y192344D02*
D03*
Y166944D02*
D03*
X892550Y192344D02*
D03*
Y166944D02*
D03*
X917950Y192344D02*
D03*
Y166944D02*
D03*
D16*
X718250Y346000D02*
D03*
X711750D02*
D03*
X705250D02*
D03*
X698750D02*
D03*
X692250D02*
D03*
X685750D02*
D03*
X679250D02*
D03*
X672750D02*
D03*
X666250D02*
D03*
X659750D02*
D03*
X653250D02*
D03*
X646750D02*
D03*
X640250D02*
D03*
X724750D02*
D03*
X692250Y289000D02*
D03*
X698750D02*
D03*
X705250D02*
D03*
X711750D02*
D03*
X718250D02*
D03*
X724750D02*
D03*
X640250D02*
D03*
X646750D02*
D03*
X653250D02*
D03*
X659750D02*
D03*
X666250D02*
D03*
X672750D02*
D03*
X679250D02*
D03*
X685750D02*
D03*
D17*
X682500Y317500D02*
D03*
D18*
X555500Y369000D02*
D03*
X563500D02*
D03*
X571500D02*
D03*
X579500D02*
D03*
X555500Y411000D02*
D03*
X579500D02*
D03*
X571500D02*
D03*
X563500D02*
D03*
D19*
X567500Y390000D02*
D03*
D20*
X471800Y170000D02*
D03*
X518200D02*
D03*
X149300Y27500D02*
D03*
X195700D02*
D03*
D21*
X515550Y247500D02*
D03*
X528250D02*
D03*
X540950D02*
D03*
X553650D02*
D03*
X566350D02*
D03*
X579050D02*
D03*
X591750D02*
D03*
X604450D02*
D03*
X515550Y307500D02*
D03*
X528250D02*
D03*
X540950D02*
D03*
X553650D02*
D03*
X566350D02*
D03*
X579050D02*
D03*
X591750D02*
D03*
X604450D02*
D03*
D22*
X425000Y196800D02*
D03*
Y243200D02*
D03*
D23*
X105000Y21500D02*
D03*
Y68500D02*
D03*
D24*
X221000Y55600D02*
D03*
Y42900D02*
D03*
Y30200D02*
D03*
Y17500D02*
D03*
X270000Y55600D02*
D03*
Y42900D02*
D03*
Y30200D02*
D03*
Y17500D02*
D03*
D25*
X230000Y75000D02*
D03*
X260000D02*
D03*
D26*
X203000Y167500D02*
D03*
X182000D02*
D03*
D27*
X157500Y168000D02*
D03*
Y147000D02*
D03*
D28*
X867150Y192344D02*
Y212500D01*
X652500Y182094D02*
X704500D01*
X639749D02*
X652500D01*
X662500Y202594D02*
X747406D01*
X624906D02*
X662500D01*
X597500Y332500D02*
Y337500D01*
X610000Y350000D01*
Y362500D01*
X602500Y370000D02*
X610000Y362500D01*
X595000Y382500D02*
X597500Y385000D01*
X595000Y370000D02*
Y382500D01*
X587500Y367500D02*
X597500Y357500D01*
X587500Y367500D02*
Y370000D01*
X560000Y319500D02*
X560500Y320000D01*
X560000Y275000D02*
Y319500D01*
X650000Y155000D02*
X727500D01*
X605000Y200000D02*
X650000Y155000D01*
X727500D02*
X739444Y166944D01*
X535000Y237500D02*
X542500Y230000D01*
X540950Y241550D02*
X548500Y234000D01*
X580000Y200000D02*
X605000D01*
X560000Y220000D02*
X580000Y200000D01*
X547500Y262500D02*
X553650Y256350D01*
X547500Y262500D02*
Y320000D01*
X553650Y247500D02*
Y256350D01*
X892550Y166944D02*
X902800Y156694D01*
X1057500Y210000D02*
X1058650Y208850D01*
X1072500D01*
X1057500Y235000D02*
X1058250Y234250D01*
X1072500D01*
X1064250Y170750D02*
X1072500D01*
X1016406Y218594D02*
X1064250Y170750D01*
X643906Y218594D02*
X1016406D01*
X1063450Y221550D02*
X1072500D01*
X1057500Y227500D02*
X1063450Y221550D01*
X655000Y227500D02*
X1057500D01*
X1085000Y165000D02*
X1087500Y167500D01*
Y175000D01*
X1079050Y183450D02*
X1087500Y175000D01*
X1072500Y183450D02*
X1079050D01*
X617500Y265000D02*
X655000Y227500D01*
X617500Y265000D02*
Y287500D01*
X640000Y222500D02*
X643906Y218594D01*
X789406Y210594D02*
X802500Y197500D01*
X628220Y210594D02*
X789406D01*
X630406Y214594D02*
X797906D01*
X611000Y234000D02*
X630406Y214594D01*
X610814Y228000D02*
X628220Y210594D01*
X776700Y206594D02*
X790950Y192344D01*
X626563Y206594D02*
X776700D01*
X609157Y224000D02*
X626563Y206594D01*
X704500Y182094D02*
X714750Y192344D01*
X725900Y178094D02*
X740150Y192344D01*
X777894Y180000D02*
X790950Y166944D01*
X760000Y180000D02*
X777894D01*
X752500Y187500D02*
X760000Y180000D01*
X752500Y187500D02*
Y197500D01*
X747406Y202594D02*
X752500Y197500D01*
X593500Y224000D02*
X609157D01*
X802500Y180794D02*
X816350Y166944D01*
X802500Y180794D02*
Y197500D01*
X599500Y228000D02*
X610814D01*
X591750Y235750D02*
X599500Y228000D01*
X591750Y235750D02*
Y247500D01*
X601000Y234000D02*
X611000D01*
X597500Y237500D02*
X601000Y234000D01*
X517500Y322500D02*
X522500Y317500D01*
X522250Y327750D02*
X528250Y321750D01*
Y307500D02*
Y321750D01*
X565000Y327500D02*
X566350Y326150D01*
X572500Y322500D02*
X585000D01*
X591750Y315750D01*
Y307500D02*
Y315750D01*
X560000Y275000D02*
X579050Y255950D01*
Y247500D02*
Y255950D01*
Y300950D02*
Y307500D01*
Y300950D02*
X585000Y295000D01*
Y232500D02*
Y295000D01*
X597500Y237500D02*
Y292500D01*
X604450Y299450D01*
Y307500D01*
X535000Y292500D02*
X540950Y298450D01*
Y307500D01*
X522500Y262500D02*
Y317500D01*
Y262500D02*
X528250Y256750D01*
Y247500D02*
Y256750D01*
X540950Y241550D02*
Y247500D01*
X535000Y237500D02*
Y292500D01*
X739444Y166944D02*
X740150D01*
X504500Y321000D02*
X504750Y321250D01*
X506250D01*
X507500Y322500D02*
X517500D01*
X506250Y321250D02*
X507500Y322500D01*
X566350Y307500D02*
Y326150D01*
X640000Y230000D02*
X643965D01*
X651371Y222594D01*
X499500Y325750D02*
Y327000D01*
X500250Y327750D02*
X522250D01*
X499500Y327000D02*
X500250Y327750D01*
X1045000Y235000D02*
X1057500D01*
X1042500Y237500D02*
X1045000Y235000D01*
X1025000Y202500D02*
X1059000Y168500D01*
X651371Y222594D02*
X1019906D01*
X816350Y166944D02*
X827500Y178094D01*
Y212500D01*
X585000Y232500D02*
X593500Y224000D01*
X607500Y220000D02*
X624906Y202594D01*
X587500Y220000D02*
X607500D01*
X566350Y241150D02*
Y247500D01*
Y241150D02*
X587500Y220000D01*
X548500Y234000D02*
X567843D01*
X585843Y216000D01*
X605843D01*
X639749Y182094D01*
X582343Y212000D02*
X604186D01*
X542500Y230000D02*
X564343D01*
X582343Y212000D01*
X841750Y192344D02*
X849844D01*
X857500Y200000D01*
Y212499D01*
X892550Y192344D02*
X897500Y197294D01*
Y212499D01*
X907500Y202794D02*
X917950Y192344D01*
X907500Y202794D02*
Y212500D01*
X917950Y166944D02*
X931944D01*
X942500Y177500D01*
X800000Y208694D02*
X816350Y192344D01*
X800000Y208694D02*
Y212500D01*
X797906Y214594D02*
X800000Y212500D01*
X977500Y202500D02*
X1025000D01*
X902800Y156694D02*
X931694D01*
X952500Y177500D01*
X977500Y202500D01*
X1062368Y165000D02*
X1085000D01*
X1059000Y168368D02*
X1062368Y165000D01*
X1059000Y168368D02*
Y168500D01*
X1046350Y196150D02*
X1072500D01*
X1019906Y222594D02*
X1046350Y196150D01*
X1045522Y210000D02*
X1057500D01*
X1045000Y209478D02*
X1045522Y210000D01*
X675594Y178094D02*
X725900D01*
X672500Y175000D02*
X675594Y178094D01*
X604186Y212000D02*
X641186Y175000D01*
X652500D02*
X672500D01*
X641186D02*
X652500D01*
X1173025Y284250D02*
X1186500D01*
X1170000Y281225D02*
X1173025Y284250D01*
X1170000Y262500D02*
Y281225D01*
X1186500Y256500D02*
Y277750D01*
X1170000Y240000D02*
X1186500Y256500D01*
X672750Y275250D02*
Y289000D01*
X655000Y257500D02*
X672750Y275250D01*
X679250Y268250D02*
Y289000D01*
Y268250D02*
X680000Y267500D01*
D29*
X555250Y369750D02*
X555750Y369250D01*
X646750Y365000D02*
Y388250D01*
Y346000D02*
Y365000D01*
X653250D02*
Y396750D01*
Y346000D02*
Y365000D01*
X1165000Y335000D02*
Y359571D01*
X1072784Y451787D02*
X1165000Y359571D01*
X1072784Y451787D02*
Y464414D01*
X1159500Y333000D02*
Y358000D01*
X1028704Y488797D02*
X1159500Y358000D01*
X981789Y488797D02*
X1028704D01*
X1153750Y331250D02*
Y356314D01*
X1032564Y477500D02*
X1153750Y356314D01*
X920038Y477500D02*
X1032564D01*
X285000Y322500D02*
X332250Y369750D01*
X257094Y322500D02*
X285000D01*
X220849Y286254D02*
X257094Y322500D01*
X287500Y317500D02*
X333250Y363250D01*
X290000Y312500D02*
X334250Y356750D01*
X332250Y369750D02*
X459000D01*
X333250Y363250D02*
X459000D01*
X334250Y356750D02*
X459000D01*
X335250Y350250D02*
X459000D01*
X292500Y307500D02*
X335250Y350250D01*
X635000Y363750D02*
X640250Y358500D01*
X683450Y468250D02*
X694200Y457500D01*
X610750Y468250D02*
X683450D01*
X597500Y455000D02*
X610750Y468250D01*
X1159500Y333000D02*
X1175750Y316750D01*
X1153750Y331250D02*
X1174750Y310250D01*
X575000Y462500D02*
X593250Y444250D01*
X575000Y452500D02*
X588000Y439500D01*
X1042500Y247500D02*
X1043050Y246950D01*
X1072500D01*
X1243500Y342750D02*
X1257250D01*
X502500Y418500D02*
Y435000D01*
Y418500D02*
X505750Y415250D01*
X516000D01*
X552500Y330000D02*
X553650Y328850D01*
X910948Y317444D02*
Y326552D01*
X877500Y360000D02*
X910948Y326552D01*
X722500Y360000D02*
X877500D01*
X846500Y346000D02*
X910948Y281551D01*
X724750Y346000D02*
X846500D01*
X910948Y262444D02*
Y281551D01*
X737500Y382500D02*
X906004D01*
X711750Y356750D02*
X737500Y382500D01*
X906004D02*
X910948Y387444D01*
X718250Y355750D02*
X722500Y360000D01*
X718250Y346000D02*
Y355750D01*
X711750Y346000D02*
Y356750D01*
X734546Y387500D02*
X833305D01*
X705250Y358204D02*
X734546Y387500D01*
X705250Y346000D02*
Y358204D01*
X833305Y387500D02*
X854448Y408644D01*
X812905Y392500D02*
X829048Y408644D01*
X719571Y392500D02*
X812905D01*
X692250Y365179D02*
X719571Y392500D01*
X767104Y397500D02*
X778249Y408644D01*
X717500Y397500D02*
X767104D01*
X685750Y365750D02*
X717500Y397500D01*
X721144Y408644D02*
X752849D01*
X679250Y366750D02*
X721144Y408644D01*
X672750Y376545D02*
X674668Y378464D01*
X672750Y346000D02*
Y376545D01*
X833192Y277500D02*
X854448Y256244D01*
X727500Y277500D02*
X833192D01*
X724750Y280250D02*
X727500Y277500D01*
X724750Y280250D02*
Y289000D01*
X812792Y272500D02*
X829048Y256244D01*
X724571Y272500D02*
X812792D01*
X718250Y278821D02*
X724571Y272500D01*
X718250Y278821D02*
Y289000D01*
X766992Y267500D02*
X778249Y256244D01*
X722500Y267500D02*
X766992D01*
X711750Y278250D02*
X722500Y267500D01*
X711750Y278250D02*
Y289000D01*
X716256Y256244D02*
X752849D01*
X705250Y267250D02*
X716256Y256244D01*
X705250Y267250D02*
Y289000D01*
X692250Y241542D02*
X696348Y237444D01*
X692250Y241542D02*
Y289000D01*
X1174750Y310250D02*
X1186500D01*
X1175750Y316750D02*
X1186500D01*
X1165000Y335000D02*
X1176750Y323250D01*
X1186500D01*
X1177750Y329750D02*
X1186500D01*
X1171917Y335583D02*
X1177750Y329750D01*
X1171917Y335583D02*
Y427128D01*
X1284666Y310250D02*
X1319955Y345539D01*
X1243500Y310250D02*
X1284666D01*
X1570371Y67444D02*
Y79629D01*
X1372250Y277750D02*
X1570371Y79629D01*
X1243500Y277750D02*
X1372250D01*
X1511069Y146431D02*
X1519064D01*
X1373250Y284250D02*
X1511069Y146431D01*
X1243500Y284250D02*
X1373250D01*
X1445358Y219641D02*
X1459779D01*
X1374250Y290750D02*
X1445358Y219641D01*
X1243500Y290750D02*
X1374250D01*
X1243500Y297250D02*
X1382190D01*
X1393166Y286274D01*
X1200000Y367500D02*
Y377500D01*
X1194750Y362250D02*
X1200000Y367500D01*
X1186500Y362250D02*
X1194750D01*
X624712Y488000D02*
X625508Y488797D01*
X522728Y463500D02*
X525533Y460695D01*
X214131Y286254D02*
X220849D01*
X88233Y146431D02*
X146803Y205000D01*
X449000Y402250D02*
X459000D01*
X435380Y402120D02*
Y427108D01*
Y402120D02*
X441750Y395750D01*
X459000D01*
X368836Y389250D02*
X459000D01*
X365583Y392503D02*
X368836Y389250D01*
X473500Y463500D02*
X522728D01*
X1243500Y316750D02*
X1259250D01*
X1265583Y323083D01*
Y401210D01*
X62500Y5000D02*
X70000D01*
X75100Y-100D01*
Y-7556D02*
Y-100D01*
X682500Y415000D02*
Y445800D01*
X694200Y457500D01*
X1235750Y349250D02*
X1243500D01*
X1227500Y357500D02*
X1235750Y349250D01*
X1243500Y355750D02*
X1255750D01*
X1257500Y357500D01*
X637500Y412500D02*
X653250Y396750D01*
X679250Y346000D02*
Y366750D01*
X685750Y346000D02*
Y365750D01*
X692250Y346000D02*
Y365179D01*
X505000Y363250D02*
X516000D01*
X479298Y335500D02*
X485750D01*
X507000Y356750D01*
X516000D01*
X483250Y341500D02*
X505000Y363250D01*
X1448718Y21282D02*
X1465000Y5000D01*
X1447942Y21282D02*
X1448718D01*
X1525000Y20000D02*
X1526100Y18900D01*
Y-6556D02*
Y18900D01*
X530000Y410000D02*
Y417500D01*
X525750Y421750D02*
X530000Y417500D01*
X516000Y421750D02*
X525750D01*
X529250Y428250D02*
X530000Y427500D01*
X516000Y428250D02*
X529250D01*
X560500Y488000D02*
X624712D01*
X516000Y402250D02*
X532250D01*
X537500Y407500D01*
Y465000D01*
X560500Y488000D01*
X516000Y395750D02*
X533250D01*
X542500Y405000D01*
Y462929D01*
X516000Y389250D02*
X534250D01*
X547500Y402500D01*
Y460000D01*
X579500Y411000D02*
Y420500D01*
X577500Y422500D02*
X579500Y420500D01*
X571500Y411000D02*
Y418500D01*
X567500Y422500D02*
X571500Y418500D01*
X555500Y411000D02*
Y414500D01*
X552500Y417500D02*
X555500Y414500D01*
X552500Y417500D02*
Y430000D01*
X555000Y432500D01*
X563500Y411000D02*
Y415364D01*
X560000Y418864D02*
X563500Y415364D01*
X560000Y418864D02*
Y426904D01*
X565000Y431904D01*
Y432500D01*
X555000D02*
Y442500D01*
X565000D02*
Y452500D01*
X555000Y442500D02*
Y452500D01*
X567500Y390000D02*
X577500D01*
X579500Y388000D01*
Y369000D02*
Y388000D01*
X545000Y380000D02*
X546404D01*
X535000Y370000D02*
Y380000D01*
X535000Y362500D02*
Y370000D01*
X555500Y369000D02*
X555750Y369250D01*
X546404Y380000D02*
X554154Y372250D01*
X555250D01*
Y369750D02*
Y372250D01*
X659750Y346000D02*
Y359154D01*
X665000Y364404D01*
Y365000D01*
X659750Y338679D02*
Y346000D01*
X655321Y334250D02*
X659750Y338679D01*
X640250D02*
X644679Y334250D01*
X640250Y338679D02*
Y346000D01*
Y358500D01*
X635000Y363750D02*
Y364757D01*
X615000Y345000D02*
X627500D01*
X639250D01*
X615000Y335000D02*
X627500D01*
X646750Y289000D02*
Y298250D01*
X653250Y289000D02*
Y299250D01*
X644679Y307821D02*
X653250Y299250D01*
X644679Y334250D02*
X655321D01*
X644679Y307821D02*
Y334250D01*
X637500Y307500D02*
X646750Y298250D01*
X637500Y307500D02*
Y325000D01*
X627500Y335000D02*
X637500Y325000D01*
X630000Y405000D02*
X646750Y388250D01*
X482421Y324481D02*
X508190Y350250D01*
X516000D01*
X36926Y67424D02*
Y79426D01*
X265000Y307500D01*
X292500D01*
X146803Y205000D02*
X155000D01*
X262500Y312500D01*
X290000D01*
X147518Y219622D02*
X162121D01*
X260000Y317500D01*
X287500D01*
X547500Y460000D02*
X560750Y473250D01*
X772154D01*
X803649Y504744D01*
X688009Y478250D02*
X709573Y499814D01*
X542500Y462929D02*
X552285Y472715D01*
X553144D01*
X558679Y478250D01*
X688009D01*
X897724Y499814D02*
X920038Y477500D01*
X467421Y229481D02*
Y330694D01*
X478227Y341500D01*
X472421Y279481D02*
Y328623D01*
X479298Y335500D01*
X472421Y279481D02*
X482421Y269481D01*
X467421Y229481D02*
X482421Y214481D01*
X478227Y341500D02*
X483250D01*
X445500Y405750D02*
X449000Y402250D01*
X445500Y405750D02*
Y435500D01*
X473500Y463500D01*
X324306Y382503D02*
X458753D01*
X459000Y382750D01*
X287342Y345539D02*
X324306Y382503D01*
X588000Y410250D02*
Y439500D01*
Y410250D02*
X593250Y405000D01*
X630000D01*
X614000Y410000D02*
X616500Y412500D01*
X637500D01*
X593250Y412750D02*
Y444250D01*
Y412750D02*
X596000Y410000D01*
X614000D01*
D30*
X1210000Y336250D02*
X1215000D01*
Y336250D02*
X1243500D01*
X1186500Y303750D02*
X1215000D01*
X698750Y289000D02*
Y317500D01*
X487500Y408750D02*
X516000D01*
X487500Y408750D02*
X490000D01*
X459000D02*
X487500D01*
Y376250D02*
X488750D01*
X459000D02*
X487500D01*
X205000Y167500D02*
Y182500D01*
Y155000D02*
Y167500D01*
X340000Y330000D02*
X352500D01*
X332500D02*
X340000D01*
X482500Y447500D02*
Y455000D01*
X205000Y140000D02*
Y155000D01*
X1215000Y307500D02*
Y320000D01*
X1032500Y247500D02*
X1042500D01*
X1132500Y246950D02*
X1149450D01*
X1111950D02*
X1132500D01*
X1105000Y240000D02*
X1111950Y246950D01*
X502500Y435000D02*
Y447500D01*
X502750Y434750D02*
X516000D01*
X502500Y435000D02*
X502750Y434750D01*
X490000Y292500D02*
X500000D01*
X487500Y290000D02*
X490000Y292500D01*
X500000Y272500D02*
Y282500D01*
X510000D01*
X604450Y247500D02*
X612500D01*
X620000Y240000D01*
X1032500Y257500D02*
X1042500D01*
X1091950Y158050D02*
X1092500Y157500D01*
X1072500Y158050D02*
X1091950D01*
X1116350Y208850D02*
X1132500D01*
X1115950Y183450D02*
X1132500D01*
X1121950Y158050D02*
X1132500D01*
X1115000Y165000D02*
X1121950Y158050D01*
X1115000Y165000D02*
Y217500D01*
X1119050Y221550D01*
X1132500D01*
X1150000Y230000D02*
Y237500D01*
X1141550Y221550D02*
X1150000Y230000D01*
X1132500Y221550D02*
X1141550D01*
X481500Y148250D02*
X1105000D01*
X1290910D01*
X1105000D02*
Y240000D01*
X1210000Y336250D02*
Y377500D01*
X482500Y435500D02*
Y447500D01*
X475250Y428250D02*
X482500Y435500D01*
X459000Y428250D02*
X475250D01*
X300000Y20000D02*
Y30000D01*
X270000Y55600D02*
X284400D01*
X300000Y40000D01*
X250000Y2500D02*
Y10000D01*
X257500Y17500D01*
X270000D01*
X240000Y2500D02*
Y10000D01*
X232500Y17500D02*
X240000Y10000D01*
X221000Y17500D02*
X232500D01*
X217500Y65000D02*
Y75000D01*
X230000D01*
X187500Y55000D02*
X197500D01*
X187500Y47500D02*
Y55000D01*
X180000Y40000D02*
X187500Y47500D01*
X180000Y12500D02*
X192500D01*
X195700Y15700D01*
Y20700D01*
X62500Y15000D02*
Y22500D01*
X482500Y447500D02*
X492500D01*
X1235250Y362250D02*
X1243500D01*
X1230000Y367500D02*
X1235250Y362250D01*
X1230000Y367500D02*
Y377500D01*
X1210000D02*
X1220000D01*
X1210000D02*
Y387500D01*
X1230000Y377500D02*
Y387500D01*
X1475000Y5000D02*
X1485000D01*
X1525000Y30000D02*
Y40000D01*
X1215000Y307500D02*
X1218750Y303750D01*
X1243500D01*
X1215000Y303750D02*
Y307500D01*
Y320000D02*
Y336250D01*
Y336250D01*
X1186500D02*
Y342750D01*
Y349250D01*
Y336250D02*
X1210000D01*
X1186500Y355750D02*
X1201750D01*
X1202500Y355000D01*
X970000Y322500D02*
X980000D01*
X666250Y318750D02*
Y346000D01*
Y318750D02*
X667500Y317500D01*
X682500D02*
X698750D01*
X659750Y289000D02*
X666250D01*
X662500Y317500D02*
X667500D01*
X666250Y289000D02*
Y310500D01*
Y316250D01*
X664750Y309000D02*
X666250Y310500D01*
X673250Y317500D01*
X667500D02*
X673250D01*
X682500D01*
X698750Y317500D02*
Y346000D01*
Y317500D02*
X698750Y317500D01*
X502500Y447500D02*
X505000Y450000D01*
X520000D01*
X487500Y392500D02*
Y408750D01*
Y377500D02*
Y392500D01*
Y377500D02*
X488750Y376250D01*
X516000D01*
X459000Y408750D02*
Y415250D01*
Y421750D01*
Y428250D01*
X221200Y30000D02*
X240000D01*
X645000Y272500D02*
X646750Y274250D01*
Y289000D01*
X645000Y272500D02*
X662500D01*
X666250Y276250D01*
Y289000D01*
X500000Y262500D02*
X512500D01*
X515550Y259450D01*
Y247500D02*
Y259450D01*
X500000Y292500D02*
X512500D01*
X515550Y295550D01*
Y307500D01*
X471800Y157950D02*
Y170000D01*
Y157950D02*
X481500Y148250D01*
X1290910D02*
X1311853Y169193D01*
X471800Y170000D02*
Y170000D01*
Y181800D01*
X500000Y210000D01*
Y262500D01*
X1311853Y169193D02*
X1313547Y167500D01*
X1322888D01*
X1339895Y184507D01*
X1338370Y195710D02*
X1339895D01*
Y184507D02*
Y195710D01*
D31*
X1162500Y392500D02*
Y412500D01*
X1147500Y392500D02*
Y420000D01*
X553650Y307500D02*
Y328850D01*
X472500Y440000D02*
Y447500D01*
X467250Y434750D02*
X472500Y440000D01*
X459000Y434750D02*
X467250D01*
X635000Y364757D02*
Y365000D01*
X197500Y75000D02*
X207500D01*
X211900Y55600D02*
X221000D01*
X212100Y42900D02*
X221000D01*
X203500Y51500D02*
X212100Y42900D01*
X208000Y59500D02*
X211900Y55600D01*
X207500Y75000D02*
X208000Y74500D01*
Y59500D02*
Y74500D01*
X203500Y51500D02*
Y59243D01*
X197743Y65000D02*
X203500Y59243D01*
X197500Y65000D02*
X197743D01*
X187500D02*
X197500D01*
X177500Y55000D02*
Y65000D01*
X340000Y305544D02*
Y320000D01*
Y305544D02*
X341100Y304444D01*
X352500Y305544D02*
Y320000D01*
Y305544D02*
X353600Y304444D01*
X990000Y322500D02*
X1015790D01*
X635000Y272500D02*
Y275278D01*
X165000Y100000D02*
X177500D01*
X187500Y90000D01*
Y75000D02*
Y90000D01*
X1320692Y178032D02*
X1321968D01*
X545000Y370000D02*
X545000Y370000D01*
X567500Y355000D02*
X571500Y359000D01*
Y369000D01*
X545000Y360000D02*
Y370000D01*
Y360000D02*
X550000Y355000D01*
X567500D01*
X640250Y280528D02*
Y289000D01*
X635000Y275278D02*
X640250Y280528D01*
D32*
X413443Y138443D02*
Y154617D01*
X347500Y72500D02*
X413443Y138443D01*
X300000Y72500D02*
X347500D01*
X675000Y165000D02*
X687406D01*
X689350Y166944D01*
X262500Y72500D02*
X300000D01*
X260000Y75000D02*
X262500Y72500D01*
X250000Y65000D02*
X260000Y75000D01*
X250000Y37500D02*
Y65000D01*
Y37500D02*
X257300Y30200D01*
X270000D01*
X212500Y17500D02*
X221000D01*
X210000Y15000D02*
X212500Y17500D01*
X210000Y7500D02*
Y15000D01*
X202500Y0D02*
X210000Y7500D01*
X162500Y0D02*
X202500D01*
X149300Y13200D02*
X162500Y0D01*
X149300Y13200D02*
Y27500D01*
X105000Y21500D02*
X143300D01*
X149300Y27500D01*
X157500Y168000D02*
X181500D01*
X75100Y-7556D02*
X87600D01*
X1016350Y309440D02*
Y321940D01*
X249419Y259769D02*
X249419D01*
X258258Y268608D01*
X413443Y154617D02*
X425000Y166174D01*
Y196800D01*
Y166174D02*
X467974D01*
X1320692Y178032D02*
X1329531Y186871D01*
X1447942Y21282D02*
X1456781Y30121D01*
X1456781D01*
X1526100Y-6556D02*
X1538600D01*
X675000Y192500D02*
X689194D01*
X467974Y166174D02*
X471800Y170000D01*
X471800Y170000D01*
D33*
X745000Y457500D02*
D03*
X689350Y192344D02*
D03*
D34*
X413443Y154617D02*
D03*
X545000Y202500D02*
D03*
D35*
X300000Y72500D02*
D03*
D36*
X1393166Y286274D02*
D03*
X1418566D02*
D03*
X1459779Y219641D02*
D03*
X1485179D02*
D03*
X1544464Y146431D02*
D03*
X1519064D02*
D03*
X1595771Y67444D02*
D03*
X1570371D02*
D03*
X365583Y392503D02*
D03*
X341714Y401190D02*
D03*
X435380Y427108D02*
D03*
X439791Y452122D02*
D03*
X625508Y488797D02*
D03*
X607548Y506757D02*
D03*
X1171917Y427128D02*
D03*
X1167506Y452142D02*
D03*
X1265583Y401210D02*
D03*
X1241714Y392523D02*
D03*
X696348Y237444D02*
D03*
X670948D02*
D03*
X674668Y378464D02*
D03*
X692629Y396424D02*
D03*
X525533Y460695D02*
D03*
Y486095D02*
D03*
X709573Y499814D02*
D03*
Y525214D02*
D03*
X803649Y504744D02*
D03*
Y530144D02*
D03*
X897724Y499814D02*
D03*
Y525214D02*
D03*
X981789Y488797D02*
D03*
X999749Y506757D02*
D03*
X910948Y387444D02*
D03*
X936348D02*
D03*
X910948Y317444D02*
D03*
X936348D02*
D03*
X910948Y262444D02*
D03*
X936348D02*
D03*
X1072784Y464414D02*
D03*
X1090744Y482375D02*
D03*
X1319955Y345539D02*
D03*
X1345355D02*
D03*
X482421Y324481D02*
D03*
X457021D02*
D03*
X482421Y269481D02*
D03*
X457021D02*
D03*
X482421Y214481D02*
D03*
X457021D02*
D03*
X287342Y345539D02*
D03*
X261942D02*
D03*
X214131Y286254D02*
D03*
X188731D02*
D03*
X147518Y219622D02*
D03*
X122118D02*
D03*
X88233Y146431D02*
D03*
X62833D02*
D03*
X36926Y67424D02*
D03*
X11526D02*
D03*
D37*
X854448Y408644D02*
D03*
X829048D02*
D03*
X803649D02*
D03*
X778249D02*
D03*
X752849D02*
D03*
X854448Y256244D02*
D03*
X829048D02*
D03*
X803649D02*
D03*
X778249D02*
D03*
X752849D02*
D03*
D38*
X100100Y-7556D02*
D03*
X87600D02*
D03*
X75100D02*
D03*
X62600D02*
D03*
X366100Y304444D02*
D03*
X353600D02*
D03*
X341100D02*
D03*
X328600D02*
D03*
X1551100Y-6556D02*
D03*
X1538600D02*
D03*
X1526100D02*
D03*
X1513600D02*
D03*
D39*
X267097Y277446D02*
D03*
X258258Y268608D02*
D03*
X249419Y259769D02*
D03*
X240580Y250930D02*
D03*
X1311853Y169193D02*
D03*
X1320692Y178032D02*
D03*
X1329531Y186871D02*
D03*
X1338370Y195710D02*
D03*
X1439104Y12443D02*
D03*
X1447942Y21282D02*
D03*
X1456781Y30121D02*
D03*
X1465620Y38960D02*
D03*
D40*
X1016350Y334440D02*
D03*
Y321940D02*
D03*
Y309440D02*
D03*
Y296940D02*
D03*
D41*
X815000Y240000D02*
D03*
X842500Y205044D02*
D03*
X817500D02*
D03*
X792500Y242500D02*
D03*
X1045000Y417500D02*
D03*
X1310000Y270000D02*
D03*
X1162500Y392500D02*
D03*
X1147500D02*
D03*
X1162500Y412500D02*
D03*
X1147500Y420000D02*
D03*
X482500Y455000D02*
D03*
X910000Y407500D02*
D03*
X970000Y165000D02*
D03*
X1460000Y262500D02*
D03*
X1567500Y127500D02*
D03*
X1140000Y462500D02*
D03*
X957500Y510000D02*
D03*
X567500D02*
D03*
X757500Y515000D02*
D03*
X417500Y402500D02*
D03*
X5000Y32500D02*
D03*
X85000Y190000D02*
D03*
X220000Y320000D02*
D03*
X137500Y170000D02*
D03*
X410000Y172500D02*
D03*
X457500Y150965D02*
D03*
X675000Y165000D02*
D03*
X665000D02*
D03*
X630000Y157500D02*
D03*
X747500Y180000D02*
D03*
X1207500Y265000D02*
D03*
X1215000Y160000D02*
D03*
X952500Y197500D02*
D03*
X597500Y455000D02*
D03*
X622500Y389000D02*
D03*
X1032500Y247500D02*
D03*
X1105000Y240000D02*
D03*
X1257500Y342500D02*
D03*
X487500Y290000D02*
D03*
X510000Y282500D02*
D03*
X552500Y330000D02*
D03*
X620000Y240000D02*
D03*
X1032500Y257500D02*
D03*
X1150000Y230000D02*
D03*
X1092500Y157500D02*
D03*
X782500Y297500D02*
D03*
X897500Y315000D02*
D03*
X835000Y320000D02*
D03*
X890000Y335000D02*
D03*
X630000Y405000D02*
D03*
X637500Y412500D02*
D03*
X62500Y22500D02*
D03*
X332500Y330000D02*
D03*
X970000Y322500D02*
D03*
X1485000Y5000D02*
D03*
X1525000Y40000D02*
D03*
X1257500Y357500D02*
D03*
X1227500D02*
D03*
X300000Y20000D02*
D03*
X240000Y30000D02*
D03*
X205000Y37500D02*
D03*
Y25000D02*
D03*
X180000Y40000D02*
D03*
Y12500D02*
D03*
X240000Y117500D02*
D03*
Y107500D02*
D03*
Y97500D02*
D03*
X200000Y107500D02*
D03*
Y117500D02*
D03*
Y97500D02*
D03*
X217500Y65000D02*
D03*
X172500Y182500D02*
D03*
X190000D02*
D03*
X172500Y157500D02*
D03*
X190000Y215000D02*
D03*
X172500Y197500D02*
D03*
X190000D02*
D03*
X155000Y182500D02*
D03*
X205000Y155000D02*
D03*
Y182500D02*
D03*
Y140000D02*
D03*
X427500Y317500D02*
D03*
X520000Y450000D02*
D03*
X1230000Y387500D02*
D03*
X1210000D02*
D03*
X682500Y415000D02*
D03*
X1202500Y355000D02*
D03*
X402500Y317500D02*
D03*
X410000Y255000D02*
D03*
X425000D02*
D03*
X440000D02*
D03*
X670000Y390000D02*
D03*
X512500Y442500D02*
D03*
X155300Y107500D02*
D03*
X165000Y100000D02*
D03*
X145000Y115000D02*
D03*
X165000D02*
D03*
X145000Y100000D02*
D03*
X142500Y147500D02*
D03*
Y135000D02*
D03*
X155000D02*
D03*
X167500D02*
D03*
X482500Y257500D02*
D03*
Y247500D02*
D03*
X532500Y177500D02*
D03*
Y167500D02*
D03*
X542500D02*
D03*
Y177500D02*
D03*
X675000Y192500D02*
D03*
X530000Y427500D02*
D03*
Y410000D02*
D03*
X567500Y422500D02*
D03*
X577500D02*
D03*
X555000Y452500D02*
D03*
X565000D02*
D03*
X535000Y362500D02*
D03*
X575000Y462500D02*
D03*
Y452500D02*
D03*
X567500Y379750D02*
D03*
X615000Y335000D02*
D03*
X640000Y385000D02*
D03*
X615000Y345000D02*
D03*
X1160750Y291000D02*
D03*
X640000Y195000D02*
D03*
D42*
X602500Y370000D02*
D03*
X595000D02*
D03*
X587500D02*
D03*
X1057500Y235000D02*
D03*
Y210000D02*
D03*
X640000Y222500D02*
D03*
Y230000D02*
D03*
X617500Y287500D02*
D03*
X563250Y372500D02*
D03*
X555250Y372250D02*
D03*
X547500Y320000D02*
D03*
X565000Y327500D02*
D03*
X572500Y322500D02*
D03*
X560000Y220000D02*
D03*
X600000Y418250D02*
D03*
X506250Y321250D02*
D03*
X560500Y320000D02*
D03*
X499500Y325750D02*
D03*
M02*
