G04 Layer_Color=128*
%FSLAX44Y44*%
%MOMM*%
G71*
G01*
G75*
%ADD17R,0.6000X0.6000*%
%ADD18R,0.6000X0.6000*%
%ADD19R,1.5000X1.0000*%
%ADD25O,0.6000X2.1500*%
%ADD52R,0.6300X0.8300*%
%ADD53R,2.7700X2.5500*%
%ADD54P,0.8485X4X270.0*%
%ADD55P,0.8485X4X360.0*%
%ADD56R,1.0500X0.6500*%
G04:AMPARAMS|DCode=57|XSize=0.95mm|YSize=0.85mm|CornerRadius=0mm|HoleSize=0mm|Usage=FLASHONLY|Rotation=45.000|XOffset=0mm|YOffset=0mm|HoleType=Round|Shape=Rectangle|*
%AMROTATEDRECTD57*
4,1,4,-0.0353,-0.6364,-0.6364,-0.0353,0.0353,0.6364,0.6364,0.0353,-0.0353,-0.6364,0.0*
%
%ADD57ROTATEDRECTD57*%

%ADD58O,0.3000X1.8000*%
%ADD59O,1.8000X0.3000*%
D17*
X562500Y212500D02*
D03*
X572500D02*
D03*
X557500Y237500D02*
D03*
X547500D02*
D03*
X557500Y247500D02*
D03*
X547500D02*
D03*
X447500Y297500D02*
D03*
X437500D02*
D03*
X977500Y375000D02*
D03*
X967500D02*
D03*
X977500Y365000D02*
D03*
X967500D02*
D03*
X562500Y202500D02*
D03*
X572500D02*
D03*
X977500Y355000D02*
D03*
X967500D02*
D03*
X352500D02*
D03*
X362500D02*
D03*
X352500Y335000D02*
D03*
X362500D02*
D03*
X352500Y345000D02*
D03*
X362500D02*
D03*
X602500Y267500D02*
D03*
X612500D02*
D03*
X622500Y395000D02*
D03*
X632500D02*
D03*
D18*
X890000Y295000D02*
D03*
Y305000D02*
D03*
Y315000D02*
D03*
Y325000D02*
D03*
X567500Y237500D02*
D03*
Y247500D02*
D03*
X527500Y267500D02*
D03*
Y257500D02*
D03*
X510000Y395000D02*
D03*
Y405000D02*
D03*
X537500Y267500D02*
D03*
Y257500D02*
D03*
X632500Y267500D02*
D03*
Y277500D02*
D03*
X622500Y277500D02*
D03*
Y267500D02*
D03*
X547500Y257500D02*
D03*
Y267500D02*
D03*
X500000Y405000D02*
D03*
Y395000D02*
D03*
X767500Y465000D02*
D03*
Y455000D02*
D03*
X592500Y415000D02*
D03*
Y425000D02*
D03*
X557500Y267500D02*
D03*
Y257500D02*
D03*
D19*
X415000Y318000D02*
D03*
Y297000D02*
D03*
D25*
X873100Y280000D02*
D03*
X860400D02*
D03*
X847700D02*
D03*
X835000D02*
D03*
X822300D02*
D03*
X809600D02*
D03*
X796900D02*
D03*
X784200D02*
D03*
X873100Y340000D02*
D03*
X860400D02*
D03*
X847700D02*
D03*
X835000D02*
D03*
X822300D02*
D03*
X809600D02*
D03*
X796900D02*
D03*
X784200D02*
D03*
D52*
X548900Y225000D02*
D03*
X571100D02*
D03*
D53*
X219700Y107500D02*
D03*
X155300D02*
D03*
D54*
X678964Y353535D02*
D03*
X686036Y346465D02*
D03*
X663964Y368535D02*
D03*
X671036Y361465D02*
D03*
D55*
X656464Y388965D02*
D03*
X663536Y396036D02*
D03*
D56*
X824400Y449250D02*
D03*
Y470750D02*
D03*
X782900D02*
D03*
Y449250D02*
D03*
D57*
X693939Y360808D02*
D03*
X685808Y368939D02*
D03*
X696061Y379192D02*
D03*
X704192Y371061D02*
D03*
D58*
X612500Y395500D02*
D03*
X607500D02*
D03*
X602500D02*
D03*
X597500D02*
D03*
X592500D02*
D03*
X587500D02*
D03*
X582500Y395500D02*
D03*
X577500D02*
D03*
X572500Y395500D02*
D03*
X567500D02*
D03*
X562500D02*
D03*
X557500D02*
D03*
X552500D02*
D03*
X547500Y395500D02*
D03*
X542500D02*
D03*
X537500Y395500D02*
D03*
X537500Y284500D02*
D03*
X542500D02*
D03*
X547500D02*
D03*
X552500D02*
D03*
X557500D02*
D03*
X562500D02*
D03*
X567500D02*
D03*
X572500D02*
D03*
X577500D02*
D03*
X582500D02*
D03*
X587500D02*
D03*
X592500Y284500D02*
D03*
X597500D02*
D03*
X602500Y284500D02*
D03*
X607500D02*
D03*
X612500D02*
D03*
D59*
X519500Y377500D02*
D03*
X519500Y372500D02*
D03*
Y367500D02*
D03*
X519500Y362500D02*
D03*
Y357500D02*
D03*
Y352500D02*
D03*
Y347500D02*
D03*
Y342500D02*
D03*
X519500Y337500D02*
D03*
Y332500D02*
D03*
Y327500D02*
D03*
X519500Y322500D02*
D03*
Y317500D02*
D03*
Y312500D02*
D03*
Y307500D02*
D03*
Y302500D02*
D03*
X630500D02*
D03*
Y307500D02*
D03*
Y312500D02*
D03*
X630500Y317500D02*
D03*
Y322500D02*
D03*
X630500Y327500D02*
D03*
Y332500D02*
D03*
Y337500D02*
D03*
Y342500D02*
D03*
Y347500D02*
D03*
Y352500D02*
D03*
Y357500D02*
D03*
Y362500D02*
D03*
Y367500D02*
D03*
Y372500D02*
D03*
X630500Y377500D02*
D03*
M02*
